700 0 1 0           
33 Autodesk Inventor 17.0.13800.0000 19 ASM 218.0.0.5119 NT 24 Tue Dec 10 11:02:22 2013 
1 9.9999999999999995e-007 1e-010 
body $-1 -1 $-1 $1 $-1 $-1 #
lump $-1 -1 $-1 $-1 $2 $0 #
shell $-1 -1 $-1 $-1 $-1 $3 $-1 $1 #
face $-1 -1 $-1 $4 $5 $2 $-1 $6 reversed single #
face $-1 -1 $-1 $7 $8 $2 $-1 $9 reversed single #
loop $-1 -1 $-1 $10 $11 $3 #
cone-surface $-1 -1 $-1 125 72.168783648703226 9.5250000000000004 0 0 -1 -4.0999999999999996 0 0 1 I I 0 1 4.0999999999999996 forward I I I I #
face $-1 -1 $-1 $12 $13 $2 $-1 $14 reversed single #
loop $-1 -1 $-1 $15 $16 $4 #
cone-surface $-1 -1 $-1 -125 72.168783648703211 9.5250000000000004 0 0 -1 -4.0999999999999996 0 0 1 I I 0 1 4.0999999999999996 forward I I I I #
loop $-1 -1 $-1 $-1 $17 $3 #
coedge $-1 -1 $-1 $11 $11 $18 $19 reversed $5 $-1 #
face $-1 -1 $-1 $20 $21 $2 $-1 $22 forward single #
loop $-1 -1 $-1 $23 $24 $7 #
cone-surface $-1 -1 $-1 0 -144.33756729740645 9.5250000000000004 0 0 -1 -4.0999999999999996 0 0 1 I I 0 1 4.0999999999999996 forward I I I I #
loop $-1 -1 $-1 $-1 $25 $4 #
coedge $-1 -1 $-1 $16 $16 $26 $27 reversed $8 $-1 #
coedge $-1 -1 $-1 $17 $17 $28 $29 reversed $10 $-1 #
coedge $-1 -1 $-1 $18 $18 $11 $19 forward $30 $-1 #
edge $-1 -1 $-1 $31 -3.1415926535897931 $31 3.1415926535897931 $18 $32 forward @7 unknown #
face $-1 -1 $-1 $33 $30 $2 $-1 $34 reversed single #
loop $-1 -1 $-1 $35 $28 $12 #
plane-surface $-1 -1 $-1 3.947743022810473e-014 2.5002372477799663e-013 9.5250000000000004 0 0 1 10 0 0 forward_v I I I I #
loop $-1 -1 $-1 $-1 $36 $7 #
coedge $-1 -1 $-1 $24 $24 $37 $38 reversed $13 $-1 #
coedge $-1 -1 $-1 $25 $25 $39 $40 reversed $15 $-1 #
coedge $-1 -1 $-1 $26 $26 $16 $27 forward $41 $-1 #
edge $-1 -1 $-1 $42 -3.1415926535897931 $42 3.1415926535897931 $26 $43 forward @7 unknown #
coedge $-1 -1 $-1 $28 $28 $17 $29 forward $21 $-1 #
edge $-1 -1 $-1 $44 -3.1415926535897931 $44 3.1415926535897931 $28 $45 forward @7 unknown #
loop $-1 -1 $-1 $41 $18 $20 #
vertex $-1 -1 $-1 $19 $46 #
ellipse-curve $-1 -1 $-1 125 72.168783648703226 0 0 0 1 -4.0999999999999996 0 0 1 I I #
face $-1 -1 $-1 $47 $48 $2 $-1 $49 forward single #
plane-surface $-1 -1 $-1 3.947743022810473e-014 2.5002372477799663e-013 0 0 0 1 10 0 0 forward_v I I I I #
loop $-1 -1 $-1 $50 $39 $12 #
coedge $-1 -1 $-1 $36 $36 $51 $52 reversed $23 $-1 #
coedge $-1 -1 $-1 $37 $37 $24 $38 forward $53 $-1 #
edge $-1 -1 $-1 $54 -3.1415926535897931 $54 3.1415926535897931 $37 $55 forward @7 unknown #
coedge $-1 -1 $-1 $39 $39 $25 $40 forward $35 $-1 #
edge $-1 -1 $-1 $56 -3.1415926535897931 $56 3.1415926535897931 $39 $57 forward @7 unknown #
loop $-1 -1 $-1 $53 $26 $20 #
vertex $-1 -1 $-1 $27 $58 #
ellipse-curve $-1 -1 $-1 -125 72.168783648703211 0 0 0 1 -4.0999999999999996 0 0 1 I I #
vertex $-1 -1 $-1 $29 $59 #
ellipse-curve $-1 -1 $-1 125 72.168783648703226 9.5250000000000004 -0 -0 -1 -4.0999999999999996 0 0 1 I I #
point $-1 -1 $-1 129.09999999999999 72.168783648703226 0 #
face $-1 -1 $-1 $60 $61 $2 $-1 $62 forward single #
loop $-1 -1 $-1 $-1 $63 $33 #
cone-surface $-1 -1 $-1 125 72.168783648703226 0 0 0 1 262.5 1.7763568394002505e-014 0 1 I I 0 1 262.5 forward I I I I #
loop $-1 -1 $-1 $64 $51 $12 #
coedge $-1 -1 $-1 $51 $51 $36 $52 forward $50 $-1 #
edge $-1 -1 $-1 $65 -3.1415926535897931 $65 3.1415926535897931 $51 $66 forward @7 unknown #
loop $-1 -1 $-1 $67 $37 $20 #
vertex $-1 -1 $-1 $38 $68 #
ellipse-curve $-1 -1 $-1 0 -144.33756729740645 0 0 0 1 -4.0999999999999996 0 0 1 I I #
vertex $-1 -1 $-1 $40 $69 #
ellipse-curve $-1 -1 $-1 -125 72.168783648703211 9.5250000000000004 -0 -0 -1 -4.0999999999999996 0 0 1 I I #
point $-1 -1 $-1 -120.90000000000001 72.168783648703211 0 #
point $-1 -1 $-1 129.09999999999999 72.168783648703226 9.5250000000000004 #
face $-1 -1 $-1 $70 $71 $2 $-1 $72 forward single #
loop $-1 -1 $-1 $-1 $73 $47 #
cone-surface $-1 -1 $-1 -125 72.168783648703211 0 0 0 1 6.249999999999992 -10.825317547305445 0 1 I I 0 1 12.499999999999964 forward I I I I #
coedge $-1 -1 $-1 $74 $75 $76 $77 reversed $48 $-1 #
loop $-1 -1 $-1 $-1 $78 $12 #
vertex $-1 -1 $-1 $52 $79 #
ellipse-curve $-1 -1 $-1 0 -144.33756729740645 9.5250000000000004 -0 -0 -1 -4.0999999999999996 0 0 1 I I #
loop $-1 -1 $-1 $-1 $80 $20 #
point $-1 -1 $-1 4.0999999999999996 -144.33756729740645 0 #
point $-1 -1 $-1 -120.90000000000001 72.168783648703211 9.5250000000000004 #
face $-1 -1 $-1 $81 $82 $2 $-1 $83 forward single #
loop $-1 -1 $-1 $-1 $84 $60 #
cone-surface $-1 -1 $-1 0 -144.33756729740645 0 0 0 1 -131.25000152942869 -227.33166761039911 0 1 I I 0 1 262.50000000000006 forward I I I I #
coedge $-1 -1 $-1 $85 $86 $87 $88 reversed $61 $-1 #
coedge $-1 -1 $-1 $89 $63 $90 $91 forward $48 $-1 #
coedge $-1 -1 $-1 $63 $89 $85 $92 reversed $48 $-1 #
coedge $-1 -1 $-1 $87 $80 $63 $77 forward $67 $-1 #
edge $-1 -1 $-1 $93 2.0943951023931957 $94 3.1415926535897931 $63 $95 forward @7 unknown #
coedge $-1 -1 $-1 $96 $97 $98 $99 forward $64 $-1 #
point $-1 -1 $-1 4.0999999999999996 -144.33756729740645 9.5250000000000004 #
coedge $-1 -1 $-1 $76 $100 $101 $102 forward $67 $-1 #
face $-1 -1 $-1 $103 $104 $2 $-1 $105 forward single #
loop $-1 -1 $-1 $-1 $106 $70 #
cone-surface $-1 -1 $-1 125 72.168783648703226 0 0 0 1 -12.5 0 0 1 I I 0 1 12.5 forward I I I I #
coedge $-1 -1 $-1 $107 $108 $109 $110 reversed $71 $-1 #
coedge $-1 -1 $-1 $111 $73 $75 $92 forward $61 $-1 #
coedge $-1 -1 $-1 $73 $111 $107 $112 reversed $61 $-1 #
coedge $-1 -1 $-1 $109 $76 $73 $88 forward $67 $-1 #
edge $-1 -1 $-1 $94 2.0943951023931957 $113 3.1415926535897927 $73 $114 forward @7 unknown #
coedge $-1 -1 $-1 $75 $74 $97 $115 reversed $48 $-1 #
coedge $-1 -1 $-1 $101 $98 $74 $91 reversed $116 $-1 #
edge $-1 -1 $-1 $93 0 $117 0.95250000000000001 $90 $118 forward @7 tangent #
edge $-1 -1 $-1 $94 0 $119 0.95250000000000001 $85 $120 forward @7 tangent #
vertex $-1 -1 $-1 $102 $121 #
vertex $-1 -1 $-1 $77 $122 #
ellipse-curve $-1 -1 $-1 125 72.168783648703226 0 0 0 -1 262.5 1.7763568394002505e-014 0 1 F 2.0943951023931957 F 3.1415926535897931 #
coedge $-1 -1 $-1 $123 $78 $124 $125 forward $64 $-1 #
coedge $-1 -1 $-1 $78 $126 $89 $115 forward $64 $-1 #
coedge $-1 -1 $-1 $90 $127 $78 $99 reversed $116 $-1 #
edge $-1 -1 $-1 $117 -3.1415926535897931 $128 -2.0943951023931966 $98 $129 forward @7 unknown #
coedge $-1 -1 $-1 $80 $130 $131 $132 forward $67 $-1 #
coedge $-1 -1 $-1 $127 $90 $80 $102 reversed $116 $-1 #
edge $-1 -1 $-1 $133 2.0943951023931966 $93 3.1415926535897931 $101 $134 forward @7 unknown #
face $-1 -1 $-1 $-1 $116 $2 $-1 $135 forward single #
loop $-1 -1 $-1 $-1 $131 $81 #
cone-surface $-1 -1 $-1 -125 72.168783648703211 0 0 0 1 -131.25 227.33166849341515 0 1 I I 0 1 262.5 forward I I I I #
coedge $-1 -1 $-1 $136 $137 $130 $138 reversed $82 $-1 #
coedge $-1 -1 $-1 $139 $84 $86 $112 forward $71 $-1 #
coedge $-1 -1 $-1 $84 $139 $136 $140 reversed $71 $-1 #
coedge $-1 -1 $-1 $130 $87 $84 $110 forward $67 $-1 #
edge $-1 -1 $-1 $113 2.0943950956654538 $141 3.1415926535897931 $84 $142 forward @7 unknown #
coedge $-1 -1 $-1 $86 $85 $126 $143 reversed $61 $-1 #
edge $-1 -1 $-1 $113 0 $144 0.95250000000000001 $107 $145 forward @7 tangent #
vertex $-1 -1 $-1 $88 $146 #
ellipse-curve $-1 -1 $-1 -125 72.168783648703211 0 0 0 -1 6.249999999999992 -10.825317547305445 0 1 F 2.0943951023931948 F 3.1415926535897927 #
edge $-1 -1 $-1 $119 -3.1415926535897931 $117 -2.0943951023931957 $89 $147 forward @7 unknown #
loop $-1 -1 $-1 $-1 $101 $103 #
vertex $-1 -1 $-1 $91 $148 #
straight-curve $-1 -1 $-1 -6.2500000000000195 -155.16288484471198 0 0 0 10 I I #
vertex $-1 -1 $-1 $92 $149 #
straight-curve $-1 -1 $-1 -137.5 72.168783648703197 0 0 0 10 I I #
point $-1 -1 $-1 -6.2500000000000195 -155.16288484471198 0 #
point $-1 -1 $-1 -137.5 72.168783648703197 0 #
coedge $-1 -1 $-1 $150 $96 $151 $152 forward $64 $-1 #
coedge $-1 -1 $-1 $153 $154 $96 $125 reversed $104 $-1 #
edge $-1 -1 $-1 $128 -3.1415926535897931 $155 -2.0943951023931953 $124 $156 forward @7 unknown #
coedge $-1 -1 $-1 $97 $150 $111 $143 forward $64 $-1 #
coedge $-1 -1 $-1 $98 $101 $153 $157 forward $116 $-1 #
vertex $-1 -1 $-1 $157 $158 #
ellipse-curve $-1 -1 $-1 0 -144.33756729740645 9.5250000000000004 0 0 1 6.250000000000048 10.82531754730558 0 1 I I #
coedge $-1 -1 $-1 $100 $109 $106 $138 forward $67 $-1 #
coedge $-1 -1 $-1 $154 $153 $100 $132 reversed $104 $-1 #
edge $-1 -1 $-1 $159 2.0943951023931953 $133 3.1415926535897931 $131 $160 forward @7 unknown #
vertex $-1 -1 $-1 $102 $161 #
ellipse-curve $-1 -1 $-1 0 -144.33756729740645 0 0 0 -1 6.250000000000048 10.82531754730558 0 1 F 2.0943951023931966 F 3.1415926535897931 #
cone-surface $-1 -1 $-1 0 -144.33756729740645 0 0 0 1 6.250000000000048 10.82531754730558 0 1 I I 0 1 12.500000000000107 forward I I I I #
coedge $-1 -1 $-1 $151 $106 $108 $140 forward $82 $-1 #
coedge $-1 -1 $-1 $106 $151 $154 $162 reversed $82 $-1 #
edge $-1 -1 $-1 $141 2.0943952436757667 $159 3.1415926535897931 $106 $163 forward @7 unknown #
coedge $-1 -1 $-1 $108 $107 $150 $164 reversed $71 $-1 #
edge $-1 -1 $-1 $141 0 $165 0.95250000000000001 $136 $166 forward @7 tangent #
vertex $-1 -1 $-1 $110 $167 #
ellipse-curve $-1 -1 $-1 0 -144.33756729740645 0 0 0 -1 -131.25000152942869 -227.33166761039911 -0 1 F 2.0943950956654538 F 3.1415926535897931 #
edge $-1 -1 $-1 $144 -3.1415926535897927 $119 -2.0943951023931957 $111 $168 forward @7 unknown #
vertex $-1 -1 $-1 $112 $169 #
straight-curve $-1 -1 $-1 -131.25000000000003 82.994101196008728 0 0 0 10 I I #
point $-1 -1 $-1 -131.25000000000003 82.994101196008728 0 #
ellipse-curve $-1 -1 $-1 125 72.168783648703226 9.5250000000000004 0 0 1 262.5 1.7763568394002505e-014 0 1 I I #
point $-1 -1 $-1 -6.2500000000000195 -155.16288484471198 9.5250000000000004 #
point $-1 -1 $-1 -137.5 72.168783648703183 9.5250000000000004 #
coedge $-1 -1 $-1 $126 $123 $139 $164 forward $64 $-1 #
coedge $-1 -1 $-1 $137 $136 $123 $152 reversed $82 $-1 #
edge $-1 -1 $-1 $155 -3.1415926535897931 $165 -2.0943952436757667 $151 $170 forward @7 unknown #
coedge $-1 -1 $-1 $131 $124 $127 $157 reversed $104 $-1 #
coedge $-1 -1 $-1 $124 $131 $137 $162 forward $104 $-1 #
vertex $-1 -1 $-1 $162 $171 #
ellipse-curve $-1 -1 $-1 -125 72.168783648703211 9.5250000000000004 0 0 1 -131.25 227.33166849341515 0 1 I I #
edge $-1 -1 $-1 $133 0 $128 0.95250000000000001 $127 $172 forward @7 tangent #
point $-1 -1 $-1 6.2500000000000195 -155.16288484471198 9.5250000000000004 #
vertex $-1 -1 $-1 $138 $173 #
ellipse-curve $-1 -1 $-1 -125 72.168783648703211 0 0 0 -1 -131.25 227.33166849341515 0 1 F 2.0943951023931953 F 3.1415926535897931 #
point $-1 -1 $-1 6.2500000000000195 -155.16288484471198 0 #
edge $-1 -1 $-1 $159 0 $155 0.95250000000000001 $154 $174 forward @7 tangent #
ellipse-curve $-1 -1 $-1 125 72.168783648703226 0 0 0 -1 -12.5 -0 -0 1 F 2.0943952436757667 F 3.1415926535897931 #
edge $-1 -1 $-1 $165 -3.1415926535897931 $144 -2.0943950956654538 $139 $175 forward @7 unknown #
vertex $-1 -1 $-1 $140 $176 #
straight-curve $-1 -1 $-1 131.25000152942869 82.994100312992629 0 0 0 10 I I #
point $-1 -1 $-1 131.25000152942869 82.994100312992629 0 #
ellipse-curve $-1 -1 $-1 -125 72.168783648703211 9.5250000000000004 0 0 1 6.249999999999992 -10.825317547305445 0 1 I I #
point $-1 -1 $-1 -131.25000000000003 82.994101196008714 9.5250000000000004 #
ellipse-curve $-1 -1 $-1 125 72.168783648703226 9.5250000000000004 0 0 1 -12.5 -0 -0 1 I I #
point $-1 -1 $-1 137.5 72.168783648703226 9.5250000000000004 #
straight-curve $-1 -1 $-1 6.2500000000000195 -155.16288484471198 0 0 0 10 I I #
point $-1 -1 $-1 137.5 72.168783648703226 0 #
straight-curve $-1 -1 $-1 137.5 72.168783648703226 0 0 0 10 I I #
ellipse-curve $-1 -1 $-1 0 -144.33756729740645 9.5250000000000004 0 0 1 -131.25000152942869 -227.33166761039911 -0 1 I I #
point $-1 -1 $-1 131.25000152942869 82.994100312992629 9.5250000000000004 #
End-of-ACIS-data 