700 0 1 0           
33 Autodesk Inventor 17.0.13800.0000 19 ASM 218.0.0.5119 NT 24 Tue Dec 10 11:02:24 2013 
1 9.9999999999999995e-007 1e-010 
body $-1 -1 $-1 $1 $-1 $-1 #
lump $-1 -1 $-1 $-1 $2 $0 #
shell $-1 -1 $-1 $-1 $-1 $3 $-1 $1 #
face $-1 -1 $-1 $4 $5 $2 $-1 $6 forward single #
face $-1 -1 $-1 $7 $8 $2 $-1 $9 forward single #
loop $-1 -1 $-1 $-1 $10 $3 #
torus-surface $-1 -1 $-1 -3.5442222658252432e-014 228.36758075688792 6.3499999999999996 -0 -0 -1 23.812499999999996 6.3499999999999996 -1 0 0 forward_v I I I I #
face $-1 -1 $-1 $11 $12 $2 $-1 $13 forward single #
loop $-1 -1 $-1 $-1 $14 $4 #
torus-surface $-1 -1 $-1 -1251.5935182350395 -722.60785466899029 6.3499999999999996 -0 -0 -1 1595.7032766353882 6.3499999999999996 -1 0 0 forward_v I I I I #
coedge $-1 -1 $-1 $15 $16 $17 $18 forward $5 $-1 #
face $-1 -1 $-1 $19 $20 $2 $-1 $21 forward single #
loop $-1 -1 $-1 $-1 $22 $7 #
torus-surface $-1 -1 $-1 197.77212633625908 -114.18379037844389 6.3499999999999996 -0 -0 -1 23.812500000000007 6.3499999999999996 -1 0 0 forward_v I I I I #
coedge $-1 -1 $-1 $23 $24 $25 $26 forward $8 $-1 #
coedge $-1 -1 $-1 $27 $10 $28 $29 forward $5 $-1 #
coedge $-1 -1 $-1 $10 $27 $30 $31 forward $5 $-1 #
coedge $-1 -1 $-1 $32 $33 $10 $18 reversed $34 $-1 #
edge $-1 -1 $-1 $35 0 $36 1.5707963267948966 $10 $37 forward @7 tangent #
face $-1 -1 $-1 $38 $39 $2 $-1 $40 forward single #
loop $-1 -1 $-1 $-1 $41 $11 #
torus-surface $-1 -1 $-1 0 1445.2157093379815 6.3499999999999996 -0 -0 -1 1595.7032766353884 6.3499999999999996 -1 0 0 forward_v I I I I #
coedge $-1 -1 $-1 $42 $43 $44 $45 forward $12 $-1 #
coedge $-1 -1 $-1 $46 $14 $47 $48 forward $8 $-1 #
coedge $-1 -1 $-1 $14 $46 $49 $50 forward $8 $-1 #
coedge $-1 -1 $-1 $43 $42 $14 $26 reversed $12 $-1 #
edge $-1 -1 $-1 $51 0 $52 1.5707963267948966 $14 $53 forward @7 tangent #
coedge $-1 -1 $-1 $16 $15 $46 $54 forward $5 $-1 #
coedge $-1 -1 $-1 $55 $56 $15 $29 reversed $57 $-1 #
edge $-1 -1 $-1 $36 -0.92104522817683032 $58 0.92104522817682988 $28 $59 forward @7 tangent #
coedge $-1 -1 $-1 $47 $60 $16 $31 reversed $61 $-1 #
edge $-1 -1 $-1 $62 -0.92104522817683032 $35 0.92104522817682988 $30 $63 forward @7 tangent #
coedge $-1 -1 $-1 $64 $17 $60 $65 forward $34 $-1 #
coedge $-1 -1 $-1 $17 $64 $66 $67 forward $34 $-1 #
loop $-1 -1 $-1 $-1 $17 $38 #
vertex $-1 -1 $-1 $31 $68 #
vertex $-1 -1 $-1 $69 $70 #
ellipse-curve $-1 -1 $-1 -18.960331783844499 242.77386323699145 6.3499999999999996 0.60498824063426682 0.79623440562076608 0 0 0 -6.3499999999999996 1 F 0 F 1.5707963267948966 #
face $-1 -1 $-1 $71 $34 $2 $-1 $72 forward single #
loop $-1 -1 $-1 $-1 $73 $19 #
torus-surface $-1 -1 $-1 -197.77212633625908 -114.18379037844389 6.3499999999999996 -0 -0 -1 23.812499999999996 6.3499999999999996 -1 0 0 forward_v I I I I #
coedge $-1 -1 $-1 $74 $75 $76 $77 forward $20 $-1 #
coedge $-1 -1 $-1 $25 $22 $78 $79 forward $12 $-1 #
coedge $-1 -1 $-1 $22 $25 $80 $81 forward $12 $-1 #
coedge $-1 -1 $-1 $75 $74 $22 $45 reversed $20 $-1 #
edge $-1 -1 $-1 $82 0 $83 1.5707963267948966 $22 $84 forward @7 tangent #
coedge $-1 -1 $-1 $24 $23 $27 $54 reversed $8 $-1 #
coedge $-1 -1 $-1 $78 $30 $23 $48 reversed $61 $-1 #
edge $-1 -1 $-1 $52 -0.1261523230197687 $62 0.12615232301976842 $47 $85 forward @7 tangent #
coedge $-1 -1 $-1 $86 $87 $24 $50 reversed $88 $-1 #
edge $-1 -1 $-1 $58 -0.12615232301976834 $51 0.12615232301976864 $49 $89 forward @7 tangent #
vertex $-1 -1 $-1 $90 $91 #
vertex $-1 -1 $-1 $48 $92 #
ellipse-curve $-1 -1 $-1 219.72849883004619 -104.96680262950463 6.3499999999999996 -0.38706510231765628 0.92205238819050972 0 5.8550326650093609 2.4578633997169597 0 1 F 0 F 1.5707963267948966 #
edge $-1 -1 $-1 $58 0 $62 1.5707963267948966 $27 $93 forward @7 tangent #
coedge $-1 -1 $-1 $94 $28 $95 $69 forward $57 $-1 #
coedge $-1 -1 $-1 $28 $94 $86 $96 reversed $57 $-1 #
loop $-1 -1 $-1 $-1 $28 $97 #
vertex $-1 -1 $-1 $96 $98 #
ellipse-curve $-1 -1 $-1 -3.5442222658252432e-014 228.36758075688792 6.3499999999999996 -0 -0 -1 -1.562803647450475e-014 30.162499999999998 0 1 F -1.1111200138362578 F 1.1111200138362587 #
coedge $-1 -1 $-1 $30 $99 $32 $65 reversed $61 $-1 #
loop $-1 -1 $-1 $-1 $30 $100 #
vertex $-1 -1 $-1 $31 $101 #
ellipse-curve $-1 -1 $-1 -3.5442222658252432e-014 228.36758075688792 0 0 0 1 -1.2337923532503751e-014 23.812499999999996 0 1 F -1.1111200138362587 F 1.1111200138362578 #
coedge $-1 -1 $-1 $33 $32 $73 $102 reversed $34 $-1 #
edge $-1 -1 $-1 $35 -0.12615232301976811 $103 0.1261523230197687 $60 $104 forward @7 tangent #
coedge $-1 -1 $-1 $105 $95 $33 $67 reversed $106 $-1 #
edge $-1 -1 $-1 $107 -0.1261523230197687 $36 0.12615232301976811 $66 $108 forward @7 tangent #
point $-1 -1 $-1 -18.960331783844499 242.77386323699145 0 #
edge $-1 -1 $-1 $36 0.63500000000000001 $109 1.25 $55 $110 forward @7 tangent #
point $-1 -1 $-1 -24.01642025953651 246.61553856501914 6.3499999999999996 #
face $-1 -1 $-1 $111 $112 $2 $-1 $113 forward single #
torus-surface $-1 -1 $-1 1251.5935182350399 -722.60785466899029 6.3499999999999996 -0 -0 -1 1595.7032766353884 6.3499999999999996 -1 0 0 forward_v I I I I #
coedge $-1 -1 $-1 $114 $115 $64 $102 forward $39 $-1 #
coedge $-1 -1 $-1 $44 $41 $116 $117 forward $20 $-1 #
coedge $-1 -1 $-1 $41 $44 $118 $119 forward $20 $-1 #
coedge $-1 -1 $-1 $115 $114 $41 $77 reversed $39 $-1 #
edge $-1 -1 $-1 $120 0 $121 1.5707963267948966 $41 $122 forward @7 tangent #
coedge $-1 -1 $-1 $116 $47 $42 $79 reversed $61 $-1 #
edge $-1 -1 $-1 $83 -0.92104522817682899 $52 0.92104522817682866 $78 $123 forward @7 tangent #
coedge $-1 -1 $-1 $124 $125 $43 $81 reversed $112 $-1 #
edge $-1 -1 $-1 $51 -0.92104522817683021 $82 0.92104522817682977 $80 $126 forward @7 tangent #
vertex $-1 -1 $-1 $127 $128 #
vertex $-1 -1 $-1 $79 $129 #
ellipse-curve $-1 -1 $-1 200.7681670462012 -137.80706060748648 6.3499999999999996 0.99205334295191983 0.12581798256974441 0 0.79894418931790057 -6.2995387277448778 0 1 F 0 F 1.5707963267948966 #
ellipse-curve $-1 -1 $-1 -1251.5935182350395 -722.60785466899029 0 0 0 1 1381.9195744683138 797.85163831769398 0 1 F -0.12922726086931052 F 0.12814778572310423 #
coedge $-1 -1 $-1 $130 $49 $56 $96 forward $88 $-1 #
coedge $-1 -1 $-1 $49 $130 $124 $90 reversed $88 $-1 #
loop $-1 -1 $-1 $-1 $49 $111 #
ellipse-curve $-1 -1 $-1 -1251.5935182350395 -722.60785466899029 6.3499999999999996 -0 -0 -1 1387.4188357823448 801.02663831769382 0 1 F -0.12814778572310423 F 0.12922726086931052 #
edge $-1 -1 $-1 $51 0.63500000000000001 $131 1.25 $124 $132 forward @7 tangent #
point $-1 -1 $-1 225.58353149505558 -102.50893922978767 6.3499999999999996 #
point $-1 -1 $-1 219.72849883004619 -104.96680262950463 0 #
ellipse-curve $-1 -1 $-1 18.96033178384441 242.77386323699145 6.3499999999999996 -0.60498824063427059 0.79623440562076309 0 5.056088475692146 3.8416753280278471 0 1 F 0 F 1.5707963267948966 #
coedge $-1 -1 $-1 $56 $55 $133 $134 reversed $57 $-1 #
coedge $-1 -1 $-1 $66 $135 $55 $69 reversed $106 $-1 #
edge $-1 -1 $-1 $58 0.63500000000000001 $136 1.25 $56 $137 forward @7 tangent #
face $-1 -1 $-1 $100 $57 $2 $-1 $138 forward single #
point $-1 -1 $-1 24.016420259536556 246.61553856501928 6.3499999999999996 #
coedge $-1 -1 $-1 $60 $116 $114 $139 reversed $61 $-1 #
face $-1 -1 $-1 $140 $141 $2 $-1 $142 reversed single #
point $-1 -1 $-1 18.96033178384441 242.77386323699145 0 #
edge $-1 -1 $-1 $107 0 $103 1.5707963267948966 $73 $143 forward @7 tangent #
vertex $-1 -1 $-1 $139 $144 #
ellipse-curve $-1 -1 $-1 1251.5935182350399 -722.60785466899029 0 0 0 1 -1381.9195744683143 797.8516383176941 0 1 F -0.12615232301976811 F 0.1261523230197687 #
coedge $-1 -1 $-1 $135 $66 $145 $146 forward $106 $-1 #
loop $-1 -1 $-1 $-1 $66 $147 #
vertex $-1 -1 $-1 $146 $148 #
ellipse-curve $-1 -1 $-1 1251.5935182350399 -722.60785466899029 6.3499999999999996 -0 -0 -1 -1387.418835782345 801.02663831769394 0 1 F -0.1261523230197687 F 0.12615232301976811 #
vertex $-1 -1 $-1 $69 $149 #
straight-curve $-1 -1 $-1 -24.01642025953651 246.61553856501914 0 0 0 10 I I #
face $-1 -1 $-1 $97 $88 $2 $-1 $150 forward single #
loop $-1 -1 $-1 $-1 $80 $71 #
cone-surface $-1 -1 $-1 197.77212633625908 -114.18379037844389 0 0 0 1 -3.7949848992600121 29.922808956787268 0 1 I I 0 1 30.162499999999994 forward I I I I #
coedge $-1 -1 $-1 $76 $73 $99 $139 forward $39 $-1 #
coedge $-1 -1 $-1 $73 $76 $151 $152 forward $39 $-1 #
coedge $-1 -1 $-1 $99 $78 $74 $117 reversed $61 $-1 #
edge $-1 -1 $-1 $121 -0.12615232301976825 $83 0.12615232301976859 $116 $153 forward @7 tangent #
coedge $-1 -1 $-1 $154 $155 $75 $119 reversed $156 $-1 #
edge $-1 -1 $-1 $82 -0.12615232301976861 $120 0.12615232301976823 $118 $157 forward @7 tangent #
vertex $-1 -1 $-1 $158 $159 #
vertex $-1 -1 $-1 $117 $160 #
ellipse-curve $-1 -1 $-1 -200.76816704620128 -137.80706060748682 6.3499999999999996 0.99205334295192038 -0.12581798256974 0 -0.79894418931782951 -6.2995387277445403 0 1 F 0 F 1.5707963267948966 #
ellipse-curve $-1 -1 $-1 197.77212633625908 -114.18379037844389 0 0 0 1 20.622229927616949 -11.906250000000004 0 1 F -1.1815654040871522 F 1.4240636511775497 #
coedge $-1 -1 $-1 $161 $80 $87 $90 forward $112 $-1 #
coedge $-1 -1 $-1 $80 $161 $154 $127 reversed $112 $-1 #
ellipse-curve $-1 -1 $-1 197.77212633625908 -114.18379037844389 6.3499999999999996 -0 -0 -1 26.121491241648123 -15.081249999999997 0 1 F -1.4240636511775497 F 1.1815654040871522 #
edge $-1 -1 $-1 $82 0.63500000000000001 $162 1.25 $154 $163 forward @7 tangent #
point $-1 -1 $-1 201.56711123551912 -144.10659933523135 6.3499999999999996 #
point $-1 -1 $-1 200.7681670462012 -137.80706060748648 0 #
coedge $-1 -1 $-1 $87 $86 $164 $165 reversed $88 $-1 #
vertex $-1 -1 $-1 $90 $166 #
straight-curve $-1 -1 $-1 225.58353149505558 -102.50893922978767 0 0 0 10 I I #
coedge $-1 -1 $-1 $167 $164 $94 $134 forward $168 $-1 #
edge $-1 -1 $-1 $136 -3.1415926535897931 $109 -1.2995021972361331 $94 $169 forward @7 unknown #
coedge $-1 -1 $-1 $95 $105 $167 $170 reversed $106 $-1 #
vertex $-1 -1 $-1 $96 $171 #
straight-curve $-1 -1 $-1 24.016420259536556 246.61553856501928 0 0 0 10 I I #
cone-surface $-1 -1 $-1 -3.5442222658252432e-014 228.36758075688792 0 0 0 1 -24.016420259536297 -18.247957808131147 0 1 I I 0 1 30.162499999999998 forward I I I I #
edge $-1 -1 $-1 $103 -0.92104522817682954 $121 0.92104522817682721 $99 $172 forward @7 tangent #
face $-1 -1 $-1 $173 $174 $2 $-1 $175 reversed single #
loop $-1 -1 $-1 $176 $177 $100 #
plane-surface $-1 -1 $-1 8.2423419267489979e-015 3.0496665128971291e-013 0 0 0 1 10 0 0 forward_v I I I I #
ellipse-curve $-1 -1 $-1 -219.72849883004562 -104.96680262950485 6.3499999999999996 -0.38706510231764746 -0.92205238819051338 -0 -5.8550326650096451 2.457863399717013 0 1 F 0 F 1.5707963267948966 #
point $-1 -1 $-1 -219.72849883004562 -104.96680262950485 0 #
coedge $-1 -1 $-1 $151 $178 $105 $146 reversed $179 $-1 #
edge $-1 -1 $-1 $107 0.63500000000000001 $180 1.25 $105 $181 forward @7 tangent #
face $-1 -1 $-1 $182 $106 $2 $-1 $183 forward single #
point $-1 -1 $-1 -225.5835314950553 -102.50893922978784 6.3499999999999996 #
point $-1 -1 $-1 -24.01642025953651 246.61553856501914 12.5 #
cone-surface $-1 -1 $-1 -1251.5935182350395 -722.60785466899029 0 0 0 1 -1477.177049730095 -620.09891543920253 0 1 I I 0 1 1602.0532766353879 forward I I I I #
coedge $-1 -1 $-1 $184 $145 $115 $152 reversed $179 $-1 #
edge $-1 -1 $-1 $120 -0.92104522817682921 $107 0.9210452281768291 $151 $185 forward @7 tangent #
ellipse-curve $-1 -1 $-1 0 1445.2157093379815 0 0 0 1 -3.1847687257342037e-013 -1595.7032766353884 0 1 F -0.13107101678474894 F 0.13107101678474933 #
coedge $-1 -1 $-1 $186 $118 $125 $127 forward $156 $-1 #
coedge $-1 -1 $-1 $118 $186 $184 $158 reversed $156 $-1 #
loop $-1 -1 $-1 $-1 $118 $187 #
ellipse-curve $-1 -1 $-1 0 1445.2157093379815 6.3499999999999996 -0 -0 -1 -3.1974423109204503e-013 -1602.0532766353881 0 1 F -0.13107101678474933 F 0.13107101678474894 #
edge $-1 -1 $-1 $120 0.63500000000000001 $188 1.25 $184 $189 forward @7 tangent #
point $-1 -1 $-1 -201.56711123551912 -144.10659933523135 6.3499999999999996 #
point $-1 -1 $-1 -200.76816704620128 -137.80706060748682 0 #
coedge $-1 -1 $-1 $125 $124 $190 $191 reversed $112 $-1 #
vertex $-1 -1 $-1 $127 $192 #
straight-curve $-1 -1 $-1 201.56711123551912 -144.10659933523135 0 0 0 10 I I #
coedge $-1 -1 $-1 $133 $190 $130 $165 forward $168 $-1 #
edge $-1 -1 $-1 $131 -3.1415926535897931 $136 -2.8892880075502561 $130 $193 forward @7 unknown #
point $-1 -1 $-1 225.58353149505558 -102.50893922978764 12.5 #
coedge $-1 -1 $-1 $194 $133 $135 $170 forward $168 $-1 #
loop $-1 -1 $-1 $-1 $133 $182 #
ellipse-curve $-1 -1 $-1 -3.5442222658252432e-014 228.36758075688792 12.5 0 0 1 -24.016420259536297 -18.247957808131147 -0 1 I I #
edge $-1 -1 $-1 $109 -3.1415926535897931 $180 -2.8892880075502569 $135 $195 forward @7 unknown #
point $-1 -1 $-1 24.016420259536556 246.61553856501928 12.5 #
ellipse-curve $-1 -1 $-1 -197.77212633625908 -114.18379037844389 0 0 0 1 -20.622229927616935 -11.906250000000011 0 1 F -1.4240636511775409 F 1.1815654040871515 #
face $-1 -1 $-1 $196 $197 $2 $-1 $198 reversed single #
loop $-1 -1 $-1 $199 $200 $140 #
cone-surface $-1 -1 $-1 31.960187415779568 68.156668423554009 0 0 0 1 1.6210000000000002 0 0 1 I I 0 1 1.6210000000000002 forward I I I I #
loop $-1 -1 $-1 $201 $202 $100 #
coedge $-1 -1 $-1 $177 $177 $203 $204 forward $141 $-1 #
coedge $-1 -1 $-1 $145 $184 $194 $205 reversed $179 $-1 #
loop $-1 -1 $-1 $-1 $151 $206 #
vertex $-1 -1 $-1 $146 $207 #
straight-curve $-1 -1 $-1 -225.5835314950553 -102.50893922978784 0 0 0 10 I I #
face $-1 -1 $-1 $-1 $208 $2 $-1 $209 forward single #
cone-surface $-1 -1 $-1 1251.5935182350399 -722.60785466899029 0 0 0 1 1275.6099384945762 -969.22339323400934 0 1 I I 0 1 1602.0532766353881 forward I I I I #
coedge $-1 -1 $-1 $178 $151 $155 $158 forward $179 $-1 #
ellipse-curve $-1 -1 $-1 -197.77212633625908 -114.18379037844389 6.3499999999999996 -0 -0 -1 -26.121491241648119 -15.081250000000015 0 1 F -1.1815654040871515 F 1.4240636511775409 #
coedge $-1 -1 $-1 $155 $154 $210 $211 reversed $156 $-1 #
face $-1 -1 $-1 $206 $156 $2 $-1 $212 forward single #
vertex $-1 -1 $-1 $158 $213 #
straight-curve $-1 -1 $-1 -201.56711123551912 -144.10659933523135 0 0 0 10 I I #
coedge $-1 -1 $-1 $164 $210 $161 $191 forward $168 $-1 #
edge $-1 -1 $-1 $162 -3.1415926535897931 $131 -1.2995021972361336 $161 $214 forward @7 unknown #
point $-1 -1 $-1 201.56711123551912 -144.10659933523132 12.5 #
ellipse-curve $-1 -1 $-1 -1251.5935182350395 -722.60785466899029 12.5 0 0 1 -1477.177049730095 -620.09891543920253 -0 1 I I #
coedge $-1 -1 $-1 $210 $167 $178 $205 forward $168 $-1 #
ellipse-curve $-1 -1 $-1 1251.5935182350399 -722.60785466899029 12.5 0 0 1 1275.6099384945762 -969.22339323400934 0 1 I I #
face $-1 -1 $-1 $215 $216 $2 $-1 $217 reversed single #
loop $-1 -1 $-1 $218 $219 $173 #
cone-surface $-1 -1 $-1 -43.039812584220357 -61.747142144111805 0 0 0 1 1.6210000000000002 0 0 1 I I 0 1 1.6210000000000002 forward I I I I #
loop $-1 -1 $-1 $-1 $220 $140 #
coedge $-1 -1 $-1 $200 $200 $221 $222 reversed $174 $-1 #
loop $-1 -1 $-1 $223 $224 $100 #
coedge $-1 -1 $-1 $202 $202 $225 $226 forward $176 $-1 #
coedge $-1 -1 $-1 $203 $203 $177 $204 reversed $227 $-1 #
edge $-1 -1 $-1 $228 -3.1415926535897931 $228 3.1415926535897931 $177 $229 forward @7 unknown #
edge $-1 -1 $-1 $180 -3.1415926535897931 $188 -1.2995021972361349 $178 $230 forward @7 unknown #
face $-1 -1 $-1 $147 $179 $2 $-1 $231 forward single #
point $-1 -1 $-1 -225.5835314950553 -102.50893922978787 12.5 #
loop $-1 -1 $-1 $232 $221 $182 #
plane-surface $-1 -1 $-1 8.2423419267489979e-015 3.0496665128971291e-013 12.5 0 0 1 10 0 0 forward_v I I I I #
coedge $-1 -1 $-1 $190 $194 $186 $211 forward $168 $-1 #
edge $-1 -1 $-1 $188 -3.1415926535897931 $162 -2.8892880075502569 $186 $233 forward @7 unknown #
cone-surface $-1 -1 $-1 0 1445.2157093379815 0 0 0 1 201.56711123551912 1589.322308673213 0 1 I I 0 1 1602.0532766353881 forward I I I I #
point $-1 -1 $-1 -201.56711123551912 -144.10659933523132 12.5 #
ellipse-curve $-1 -1 $-1 197.77212633625908 -114.18379037844389 12.5 0 0 1 -3.7949848992600121 29.922808956787268 0 1 I I #
face $-1 -1 $-1 $234 $235 $2 $-1 $236 reversed single #
loop $-1 -1 $-1 $237 $238 $196 #
cone-surface $-1 -1 $-1 86.364268448345442 2.4873009110522952 0 0 0 1 1.5000000000000009 0 0 1 I I 0 1 1.5000000000000009 forward I I I I #
loop $-1 -1 $-1 $-1 $239 $173 #
coedge $-1 -1 $-1 $219 $219 $240 $241 reversed $197 $-1 #
coedge $-1 -1 $-1 $220 $220 $242 $243 reversed $199 $-1 #
coedge $-1 -1 $-1 $221 $221 $200 $222 forward $208 $-1 #
edge $-1 -1 $-1 $244 -3.1415926535897931 $244 3.1415926535897931 $221 $245 forward @7 unknown #
loop $-1 -1 $-1 $246 $247 $100 #
coedge $-1 -1 $-1 $224 $224 $248 $249 forward $201 $-1 #
coedge $-1 -1 $-1 $225 $225 $202 $226 reversed $250 $-1 #
edge $-1 -1 $-1 $251 -3.1415926535897931 $251 3.1415926535897931 $202 $252 forward @7 unknown #
loop $-1 -1 $-1 $-1 $203 $253 #
vertex $-1 -1 $-1 $204 $254 #
ellipse-curve $-1 -1 $-1 -149.99999999999997 -86.602540378443905 0 0 0 1 -1.5874999999999995 0 0 1 I I #
ellipse-curve $-1 -1 $-1 -197.77212633625908 -114.18379037844389 12.5 0 0 1 27.81140515879633 -11.674851148656094 0 1 I I #
cone-surface $-1 -1 $-1 -197.77212633625908 -114.18379037844389 0 0 0 1 27.81140515879633 -11.674851148656094 0 1 I I 0 1 30.162499999999994 forward I I I I #
loop $-1 -1 $-1 $255 $240 $182 #
ellipse-curve $-1 -1 $-1 0 1445.2157093379815 12.5 0 0 1 201.56711123551912 1589.322308673213 0 1 I I #
face $-1 -1 $-1 $256 $257 $2 $-1 $258 reversed single #
loop $-1 -1 $-1 $259 $260 $215 #
cone-surface $-1 -1 $-1 41.025268448345464 -76.042150653313087 0 0 0 1 1.5000000000000009 0 0 1 I I 0 1 1.5000000000000009 forward I I I I #
loop $-1 -1 $-1 $-1 $261 $196 #
coedge $-1 -1 $-1 $238 $238 $262 $263 reversed $216 $-1 #
coedge $-1 -1 $-1 $239 $239 $264 $265 reversed $218 $-1 #
coedge $-1 -1 $-1 $240 $240 $219 $241 forward $232 $-1 #
edge $-1 -1 $-1 $266 -3.1415926535897931 $266 3.1415926535897931 $240 $267 forward @7 unknown #
coedge $-1 -1 $-1 $242 $242 $220 $243 forward $268 $-1 #
edge $-1 -1 $-1 $269 -3.1415926535897931 $269 3.1415926535897931 $242 $270 forward @7 unknown #
vertex $-1 -1 $-1 $222 $271 #
ellipse-curve $-1 -1 $-1 31.960187415779568 68.156668423554009 12.5 -0 -0 -1 1.6210000000000002 0 0 1 I I #
loop $-1 -1 $-1 $272 $273 $100 #
coedge $-1 -1 $-1 $247 $247 $274 $275 forward $223 $-1 #
coedge $-1 -1 $-1 $248 $248 $224 $249 reversed $276 $-1 #
edge $-1 -1 $-1 $277 -3.1415926535897931 $277 3.1415926535897931 $224 $278 forward @7 unknown #
loop $-1 -1 $-1 $-1 $225 $279 #
vertex $-1 -1 $-1 $226 $280 #
ellipse-curve $-1 -1 $-1 150.00000000000003 -86.602540378443877 0 0 0 1 -1.5875000000000006 0 0 1 I I #
face $-1 -1 $-1 $187 $281 $2 $-1 $282 reversed single #
point $-1 -1 $-1 -148.41249999999999 -86.602540378443905 0 #
loop $-1 -1 $-1 $283 $262 $182 #
face $-1 -1 $-1 $284 $285 $2 $-1 $286 reversed single #
loop $-1 -1 $-1 $287 $288 $234 #
cone-surface $-1 -1 $-1 78.970171515160672 -97.9496506533131 0 0 0 1 1.5000000000000009 0 0 1 I I 0 1 1.5000000000000009 forward I I I I #
loop $-1 -1 $-1 $-1 $289 $215 #
coedge $-1 -1 $-1 $260 $260 $290 $291 reversed $235 $-1 #
coedge $-1 -1 $-1 $261 $261 $292 $293 reversed $237 $-1 #
coedge $-1 -1 $-1 $262 $262 $238 $263 forward $255 $-1 #
edge $-1 -1 $-1 $294 -3.1415926535897931 $294 3.1415926535897931 $262 $295 forward @7 unknown #
coedge $-1 -1 $-1 $264 $264 $239 $265 forward $296 $-1 #
edge $-1 -1 $-1 $297 -3.1415926535897931 $297 3.1415926535897931 $264 $298 forward @7 unknown #
vertex $-1 -1 $-1 $241 $299 #
ellipse-curve $-1 -1 $-1 -43.039812584220357 -61.747142144111805 12.5 -0 -0 -1 1.6210000000000002 0 0 1 I I #
loop $-1 -1 $-1 $61 $242 $100 #
vertex $-1 -1 $-1 $243 $300 #
ellipse-curve $-1 -1 $-1 31.960187415779568 68.156668423554009 0 0 0 1 1.6210000000000002 0 0 1 I I #
point $-1 -1 $-1 30.339187415779566 68.156668423554009 12.5 #
loop $-1 -1 $-1 $301 $302 $100 #
coedge $-1 -1 $-1 $273 $273 $303 $304 forward $246 $-1 #
coedge $-1 -1 $-1 $274 $274 $247 $275 reversed $305 $-1 #
edge $-1 -1 $-1 $306 -3.1415926535897931 $306 3.1415926535897931 $247 $307 forward @7 unknown #
loop $-1 -1 $-1 $-1 $248 $308 #
vertex $-1 -1 $-1 $249 $309 #
ellipse-curve $-1 -1 $-1 3.3049062589308865e-014 173.20508075688775 0 0 0 1 -1.5875000000000006 0 0 1 I I #
face $-1 -1 $-1 $253 $310 $2 $-1 $311 reversed single #
point $-1 -1 $-1 151.58750000000001 -86.602540378443877 0 #
loop $-1 -1 $-1 $227 $312 $253 #
cone-surface $-1 -1 $-1 -149.99999999999997 -86.602540378443905 0 0 0 1 -1.5874999999999995 0 0 1 I I 0 1 1.5874999999999995 forward I I I I #
loop $-1 -1 $-1 $313 $290 $182 #
face $-1 -1 $-1 $314 $315 $2 $-1 $316 reversed single #
loop $-1 -1 $-1 $317 $318 $256 #
cone-surface $-1 -1 $-1 124.30917151516064 -19.420199088947683 0 0 0 1 1.5000000000000009 0 0 1 I I 0 1 1.5000000000000009 forward I I I I #
loop $-1 -1 $-1 $-1 $319 $234 #
coedge $-1 -1 $-1 $288 $288 $320 $321 reversed $257 $-1 #
coedge $-1 -1 $-1 $289 $289 $322 $323 reversed $259 $-1 #
coedge $-1 -1 $-1 $290 $290 $260 $291 forward $283 $-1 #
edge $-1 -1 $-1 $324 -3.1415926535897931 $324 3.1415926535897931 $290 $325 forward @7 unknown #
coedge $-1 -1 $-1 $292 $292 $261 $293 forward $326 $-1 #
edge $-1 -1 $-1 $327 -3.1415926535897931 $327 3.1415926535897931 $292 $328 forward @7 unknown #
vertex $-1 -1 $-1 $263 $329 #
ellipse-curve $-1 -1 $-1 86.364268448345442 2.4873009110522952 12.5 -0 -0 -1 1.5000000000000009 0 0 1 I I #
loop $-1 -1 $-1 $268 $264 $100 #
vertex $-1 -1 $-1 $265 $330 #
ellipse-curve $-1 -1 $-1 -43.039812584220357 -61.747142144111805 0 0 0 1 1.6210000000000002 0 0 1 I I #
point $-1 -1 $-1 -44.660812584220359 -61.747142144111805 12.5 #
point $-1 -1 $-1 30.339187415779566 68.156668423554009 0 #
loop $-1 -1 $-1 $331 $332 $100 #
coedge $-1 -1 $-1 $302 $302 $333 $334 forward $272 $-1 #
coedge $-1 -1 $-1 $303 $303 $273 $304 reversed $335 $-1 #
edge $-1 -1 $-1 $336 -3.1415926535897931 $336 3.1415926535897931 $273 $337 forward @7 unknown #
loop $-1 -1 $-1 $-1 $274 $338 #
vertex $-1 -1 $-1 $275 $339 #
ellipse-curve $-1 -1 $-1 -3.5442222658252432e-014 228.36758075688792 0 0 0 1 -1.5874999999999999 0 0 1 I I #
face $-1 -1 $-1 $279 $340 $2 $-1 $341 reversed single #
point $-1 -1 $-1 1.5875000000000337 173.20508075688775 0 #
loop $-1 -1 $-1 $250 $342 $279 #
cone-surface $-1 -1 $-1 150.00000000000003 -86.602540378443877 0 0 0 1 -1.5875000000000006 0 0 1 I I 0 1 1.5875000000000006 forward I I I I #
coedge $-1 -1 $-1 $312 $312 $343 $344 reversed $281 $-1 #
loop $-1 -1 $-1 $345 $320 $182 #
face $-1 -1 $-1 $346 $347 $2 $-1 $348 reversed single #
loop $-1 -1 $-1 $349 $350 $284 #
cone-surface $-1 -1 $-1 -11.341082773442377 93.156668423553981 0 0 0 1 1.6210000000000002 0 0 1 I I 0 1 1.6210000000000002 forward I I I I #
loop $-1 -1 $-1 $-1 $351 $256 #
coedge $-1 -1 $-1 $318 $318 $352 $353 reversed $285 $-1 #
coedge $-1 -1 $-1 $319 $319 $354 $355 reversed $287 $-1 #
coedge $-1 -1 $-1 $320 $320 $288 $321 forward $313 $-1 #
edge $-1 -1 $-1 $356 -3.1415926535897931 $356 3.1415926535897931 $320 $357 forward @7 unknown #
coedge $-1 -1 $-1 $322 $322 $289 $323 forward $358 $-1 #
edge $-1 -1 $-1 $359 -3.1415926535897931 $359 3.1415926535897931 $322 $360 forward @7 unknown #
vertex $-1 -1 $-1 $291 $361 #
ellipse-curve $-1 -1 $-1 41.025268448345464 -76.042150653313087 12.5 -0 -0 -1 1.5000000000000009 0 0 1 I I #
loop $-1 -1 $-1 $296 $292 $100 #
vertex $-1 -1 $-1 $293 $362 #
ellipse-curve $-1 -1 $-1 86.364268448345442 2.4873009110522952 0 0 0 1 1.5000000000000009 0 0 1 I I #
point $-1 -1 $-1 84.864268448345427 2.4873009110522952 12.5 #
point $-1 -1 $-1 -44.660812584220359 -61.747142144111805 0 #
loop $-1 -1 $-1 $363 $364 $100 #
coedge $-1 -1 $-1 $332 $332 $365 $366 forward $301 $-1 #
coedge $-1 -1 $-1 $333 $333 $302 $334 reversed $367 $-1 #
edge $-1 -1 $-1 $368 -3.1415926535897931 $368 3.1415926535897931 $302 $369 forward @7 unknown #
loop $-1 -1 $-1 $-1 $303 $370 #
vertex $-1 -1 $-1 $304 $371 #
ellipse-curve $-1 -1 $-1 -197.77212633625908 -114.18379037844389 0 0 0 1 -1.5874999999999999 0 0 1 I I #
face $-1 -1 $-1 $308 $372 $2 $-1 $373 reversed single #
point $-1 -1 $-1 1.5874999999999644 228.36758075688792 0 #
loop $-1 -1 $-1 $276 $374 $308 #
cone-surface $-1 -1 $-1 3.3049062589308865e-014 173.20508075688775 0 0 0 1 -1.5875000000000006 0 0 1 I I 0 1 1.5875000000000006 forward I I I I #
coedge $-1 -1 $-1 $342 $342 $375 $376 reversed $310 $-1 #
coedge $-1 -1 $-1 $343 $343 $312 $344 forward $377 $-1 #
edge $-1 -1 $-1 $378 -3.1415926535897931 $378 3.1415926535897931 $343 $379 forward @7 unknown #
loop $-1 -1 $-1 $380 $352 $182 #
face $-1 -1 $-1 $381 $382 $2 $-1 $383 reversed single #
loop $-1 -1 $-1 $384 $385 $314 #
cone-surface $-1 -1 $-1 -86.341082773442281 -36.747142144111827 0 0 0 1 1.6210000000000002 0 0 1 I I 0 1 1.6210000000000002 forward I I I I #
loop $-1 -1 $-1 $-1 $386 $284 #
coedge $-1 -1 $-1 $350 $350 $387 $388 reversed $315 $-1 #
coedge $-1 -1 $-1 $351 $351 $389 $390 reversed $317 $-1 #
coedge $-1 -1 $-1 $352 $352 $318 $353 forward $345 $-1 #
edge $-1 -1 $-1 $391 -3.1415926535897931 $391 3.1415926535897931 $352 $392 forward @7 unknown #
coedge $-1 -1 $-1 $354 $354 $319 $355 forward $393 $-1 #
edge $-1 -1 $-1 $394 -3.1415926535897931 $394 3.1415926535897931 $354 $395 forward @7 unknown #
vertex $-1 -1 $-1 $321 $396 #
ellipse-curve $-1 -1 $-1 78.970171515160672 -97.9496506533131 12.5 -0 -0 -1 1.5000000000000009 0 0 1 I I #
loop $-1 -1 $-1 $326 $322 $100 #
vertex $-1 -1 $-1 $323 $397 #
ellipse-curve $-1 -1 $-1 41.025268448345464 -76.042150653313087 0 0 0 1 1.5000000000000009 0 0 1 I I #
point $-1 -1 $-1 39.525268448345464 -76.042150653313087 12.5 #
point $-1 -1 $-1 84.864268448345427 2.4873009110522952 0 #
loop $-1 -1 $-1 $398 $399 $100 #
coedge $-1 -1 $-1 $364 $364 $400 $401 forward $331 $-1 #
coedge $-1 -1 $-1 $365 $365 $332 $366 reversed $402 $-1 #
edge $-1 -1 $-1 $403 -3.1415926535897931 $403 3.1415926535897931 $332 $404 forward @7 unknown #
loop $-1 -1 $-1 $-1 $333 $405 #
vertex $-1 -1 $-1 $334 $406 #
ellipse-curve $-1 -1 $-1 197.77212633625908 -114.18379037844389 0 0 0 1 -1.5874999999999999 0 0 1 I I #
face $-1 -1 $-1 $338 $407 $2 $-1 $408 reversed single #
point $-1 -1 $-1 -196.18462633625907 -114.18379037844389 0 #
loop $-1 -1 $-1 $305 $409 $338 #
cone-surface $-1 -1 $-1 -3.5442222658252432e-014 228.36758075688792 0 0 0 1 -1.5874999999999999 0 0 1 I I 0 1 1.5874999999999999 forward I I I I #
coedge $-1 -1 $-1 $374 $374 $410 $411 reversed $340 $-1 #
coedge $-1 -1 $-1 $375 $375 $342 $376 forward $412 $-1 #
edge $-1 -1 $-1 $413 -3.1415926535897931 $413 3.1415926535897931 $375 $414 forward @7 unknown #
loop $-1 -1 $-1 $168 $343 $182 #
vertex $-1 -1 $-1 $344 $415 #
ellipse-curve $-1 -1 $-1 -149.99999999999997 -86.602540378443905 12.5 -0 -0 -1 -1.5874999999999995 0 0 1 I I #
loop $-1 -1 $-1 $416 $387 $182 #
face $-1 -1 $-1 $417 $418 $2 $-1 $419 reversed single #
loop $-1 -1 $-1 $420 $421 $346 #
cone-surface $-1 -1 $-1 144.32660624134115 -65.429146619785158 12.5 0 0 -1 0.80000000000000093 1.3856406460551018 0 1 I I 0 1 1.6000000000000003 forward I I I I #
loop $-1 -1 $-1 $-1 $422 $314 #
coedge $-1 -1 $-1 $385 $385 $423 $424 reversed $347 $-1 #
coedge $-1 -1 $-1 $386 $386 $425 $426 reversed $349 $-1 #
coedge $-1 -1 $-1 $387 $387 $350 $388 forward $380 $-1 #
edge $-1 -1 $-1 $427 -3.1415926535897931 $427 3.1415926535897931 $387 $428 forward @7 unknown #
coedge $-1 -1 $-1 $389 $389 $351 $390 forward $429 $-1 #
edge $-1 -1 $-1 $430 -3.1415926535897931 $430 3.1415926535897931 $389 $431 forward @7 unknown #
vertex $-1 -1 $-1 $353 $432 #
ellipse-curve $-1 -1 $-1 124.30917151516064 -19.420199088947683 12.5 -0 -0 -1 1.5000000000000009 0 0 1 I I #
loop $-1 -1 $-1 $358 $354 $100 #
vertex $-1 -1 $-1 $355 $433 #
ellipse-curve $-1 -1 $-1 78.970171515160672 -97.9496506533131 0 0 0 1 1.5000000000000009 0 0 1 I I #
point $-1 -1 $-1 77.470171515160672 -97.9496506533131 12.5 #
point $-1 -1 $-1 39.525268448345464 -76.042150653313087 0 #
loop $-1 -1 $-1 $434 $435 $100 #
coedge $-1 -1 $-1 $399 $399 $436 $437 forward $363 $-1 #
coedge $-1 -1 $-1 $400 $400 $364 $401 reversed $438 $-1 #
edge $-1 -1 $-1 $439 -3.1415926535897931 $439 3.1415926535897931 $364 $440 forward @7 unknown #
loop $-1 -1 $-1 $441 $365 $442 #
vertex $-1 -1 $-1 $366 $443 #
ellipse-curve $-1 -1 $-1 15.500000000000025 188.70508075688772 0 0 0 1 -1.6000000000000003 0 0 1 I I #
face $-1 -1 $-1 $370 $444 $2 $-1 $445 reversed single #
point $-1 -1 $-1 199.35962633625908 -114.18379037844389 0 #
loop $-1 -1 $-1 $335 $446 $370 #
cone-surface $-1 -1 $-1 -197.77212633625908 -114.18379037844389 0 0 0 1 -1.5874999999999999 0 0 1 I I 0 1 1.5874999999999999 forward I I I I #
coedge $-1 -1 $-1 $409 $409 $447 $448 reversed $372 $-1 #
coedge $-1 -1 $-1 $410 $410 $374 $411 forward $449 $-1 #
edge $-1 -1 $-1 $450 -3.1415926535897931 $450 3.1415926535897931 $410 $451 forward @7 unknown #
loop $-1 -1 $-1 $377 $375 $182 #
vertex $-1 -1 $-1 $376 $452 #
ellipse-curve $-1 -1 $-1 150.00000000000003 -86.602540378443877 12.5 -0 -0 -1 -1.5875000000000006 0 0 1 I I #
point $-1 -1 $-1 -148.41249999999999 -86.602540378443905 12.5 #
loop $-1 -1 $-1 $453 $423 $182 #
face $-1 -1 $-1 $454 $455 $2 $-1 $456 reversed single #
loop $-1 -1 $-1 $457 $458 $381 #
cone-surface $-1 -1 $-1 155.67339375865876 -107.77593413710278 12.5 0 0 -1 0.80000000000000093 1.3856406460551018 0 1 I I 0 1 1.6000000000000003 forward I I I I #
loop $-1 -1 $-1 $-1 $459 $346 #
coedge $-1 -1 $-1 $421 $421 $460 $461 reversed $382 $-1 #
coedge $-1 -1 $-1 $422 $422 $462 $463 reversed $384 $-1 #
coedge $-1 -1 $-1 $423 $423 $385 $424 forward $416 $-1 #
edge $-1 -1 $-1 $464 -3.1415926535897931 $464 3.1415926535897931 $423 $465 forward @7 unknown #
coedge $-1 -1 $-1 $425 $425 $386 $426 forward $466 $-1 #
edge $-1 -1 $-1 $467 -3.1415926535897931 $467 3.1415926535897931 $425 $468 forward @7 unknown #
vertex $-1 -1 $-1 $388 $469 #
ellipse-curve $-1 -1 $-1 -11.341082773442377 93.156668423553981 12.5 -0 -0 -1 1.6210000000000002 0 0 1 I I #
loop $-1 -1 $-1 $393 $389 $100 #
vertex $-1 -1 $-1 $390 $470 #
ellipse-curve $-1 -1 $-1 124.30917151516064 -19.420199088947683 0 0 0 1 1.5000000000000009 0 0 1 I I #
point $-1 -1 $-1 122.80917151516064 -19.420199088947683 12.5 #
point $-1 -1 $-1 77.470171515160672 -97.9496506533131 0 #
loop $-1 -1 $-1 $471 $472 $100 #
coedge $-1 -1 $-1 $435 $435 $473 $474 forward $398 $-1 #
coedge $-1 -1 $-1 $436 $436 $399 $437 reversed $475 $-1 #
edge $-1 -1 $-1 $476 -3.1415926535898042 $476 3.141592653589782 $399 $477 forward @7 unknown #
loop $-1 -1 $-1 $478 $400 $479 #
vertex $-1 -1 $-1 $401 $480 #
ellipse-curve $-1 -1 $-1 -15.499999999999972 157.7050807568877 0 0 0 1 -1.6000000000000003 0 0 1 I I #
loop $-1 -1 $-1 $-1 $481 $442 #
face $-1 -1 $-1 $405 $402 $2 $-1 $482 reversed single #
point $-1 -1 $-1 17.100000000000026 188.70508075688772 0 #
loop $-1 -1 $-1 $367 $483 $405 #
cone-surface $-1 -1 $-1 197.77212633625908 -114.18379037844389 0 0 0 1 -1.5874999999999999 0 0 1 I I 0 1 1.5874999999999999 forward I I I I #
coedge $-1 -1 $-1 $446 $446 $484 $485 reversed $407 $-1 #
coedge $-1 -1 $-1 $447 $447 $409 $448 forward $486 $-1 #
edge $-1 -1 $-1 $487 -3.1415926535897931 $487 3.1415926535897931 $447 $488 forward @7 unknown #
loop $-1 -1 $-1 $412 $410 $182 #
vertex $-1 -1 $-1 $411 $489 #
ellipse-curve $-1 -1 $-1 3.3049062589308865e-014 173.20508075688775 12.5 -0 -0 -1 -1.5875000000000006 0 0 1 I I #
point $-1 -1 $-1 151.58750000000001 -86.602540378443877 12.5 #
loop $-1 -1 $-1 $490 $491 $182 #
face $-1 -1 $-1 $479 $475 $2 $-1 $492 reversed single #
loop $-1 -1 $-1 $493 $473 $417 #
cone-surface $-1 -1 $-1 -128.82660624134121 -92.275934137102595 12.5 0 0 -1 0.79999999999999982 -1.3856406460551023 0 1 I I 0 1 1.6000000000000003 forward I I I I #
loop $-1 -1 $-1 $-1 $494 $381 #
coedge $-1 -1 $-1 $458 $458 $472 $495 reversed $418 $-1 #
coedge $-1 -1 $-1 $459 $459 $491 $496 reversed $420 $-1 #
coedge $-1 -1 $-1 $460 $460 $421 $461 forward $471 $-1 #
edge $-1 -1 $-1 $497 -3.141592653589806 $497 3.1415926535897802 $460 $498 forward @7 unknown #
coedge $-1 -1 $-1 $462 $462 $422 $463 forward $499 $-1 #
edge $-1 -1 $-1 $500 -3.1415926535897931 $500 3.1415926535897931 $462 $501 forward @7 unknown #
vertex $-1 -1 $-1 $424 $502 #
ellipse-curve $-1 -1 $-1 -86.341082773442281 -36.747142144111827 12.5 -0 -0 -1 1.6210000000000002 0 0 1 I I #
loop $-1 -1 $-1 $429 $425 $100 #
vertex $-1 -1 $-1 $426 $503 #
ellipse-curve $-1 -1 $-1 -11.341082773442377 93.156668423553981 0 0 0 1 1.6210000000000002 0 0 1 I I #
point $-1 -1 $-1 -12.962082773442379 93.156668423553981 12.5 #
point $-1 -1 $-1 122.80917151516064 -19.420199088947683 0 #
loop $-1 -1 $-1 $499 $460 $100 #
coedge $-1 -1 $-1 $472 $472 $458 $495 forward $434 $-1 #
coedge $-1 -1 $-1 $473 $473 $435 $474 reversed $455 $-1 #
edge $-1 -1 $-1 $504 -3.1415926535897891 $504 3.1415926535897971 $435 $505 forward @7 unknown #
loop $-1 -1 $-1 $506 $436 $454 #
vertex $-1 -1 $-1 $437 $507 #
ellipse-curve $-1 -1 $-1 -171.17339375865885 -80.929146619785001 0 0 0 1 0.79999999999999982 -1.3856406460551023 0 1 I I #
loop $-1 -1 $-1 $-1 $508 $479 #
face $-1 -1 $-1 $442 $438 $2 $-1 $509 reversed single #
point $-1 -1 $-1 -13.89999999999997 157.7050807568877 0 #
coedge $-1 -1 $-1 $481 $481 $510 $511 reversed $441 $-1 #
cone-surface $-1 -1 $-1 15.500000000000025 188.70508075688772 12.5 0 0 -1 -1.6000000000000003 0 0 1 I I 0 1 1.6000000000000003 forward I I I I #
coedge $-1 -1 $-1 $483 $483 $512 $513 reversed $444 $-1 #
coedge $-1 -1 $-1 $484 $484 $446 $485 forward $514 $-1 #
edge $-1 -1 $-1 $515 -3.1415926535897931 $515 3.1415926535897931 $484 $516 forward @7 unknown #
loop $-1 -1 $-1 $449 $447 $182 #
vertex $-1 -1 $-1 $448 $517 #
ellipse-curve $-1 -1 $-1 -3.5442222658252432e-014 228.36758075688792 12.5 -0 -0 -1 -1.5874999999999999 0 0 1 I I #
point $-1 -1 $-1 1.5875000000000337 173.20508075688775 12.5 #
loop $-1 -1 $-1 $518 $519 $182 #
coedge $-1 -1 $-1 $491 $491 $459 $496 forward $453 $-1 #
cone-surface $-1 -1 $-1 -171.17339375865885 -80.929146619785001 12.5 0 0 -1 0.79999999999999982 -1.3856406460551023 0 1 I I 0 1 1.6000000000000003 forward I I I I #
loop $-1 -1 $-1 $-1 $520 $417 #
coedge $-1 -1 $-1 $494 $494 $519 $521 reversed $457 $-1 #
edge $-1 -1 $-1 $522 -3.141592653589806 $522 3.1415926535897802 $472 $523 forward @7 unknown #
edge $-1 -1 $-1 $524 -3.1415926535897802 $524 3.141592653589806 $491 $525 forward @7 unknown #
vertex $-1 -1 $-1 $461 $526 #
ellipse-curve $-1 -1 $-1 144.32660624134115 -65.429146619785158 0 0 0 1 0.80000000000000093 1.3856406460551018 0 1 I I #
loop $-1 -1 $-1 $466 $462 $100 #
vertex $-1 -1 $-1 $463 $527 #
ellipse-curve $-1 -1 $-1 -86.341082773442281 -36.747142144111827 0 0 0 1 1.6210000000000002 0 0 1 I I #
point $-1 -1 $-1 -87.96208277344229 -36.747142144111827 12.5 #
point $-1 -1 $-1 -12.962082773442379 93.156668423553981 0 #
vertex $-1 -1 $-1 $474 $528 #
ellipse-curve $-1 -1 $-1 -128.82660624134121 -92.275934137102595 0 0 0 1 0.79999999999999982 -1.3856406460551023 0 1 I I #
loop $-1 -1 $-1 $-1 $529 $454 #
point $-1 -1 $-1 -171.97339375865883 -79.543505973729907 0 #
coedge $-1 -1 $-1 $508 $508 $530 $531 reversed $478 $-1 #
cone-surface $-1 -1 $-1 -15.499999999999972 157.7050807568877 12.5 0 0 -1 -1.6000000000000003 0 0 1 I I 0 1 1.6000000000000003 forward I I I I #
coedge $-1 -1 $-1 $510 $510 $481 $511 forward $532 $-1 #
edge $-1 -1 $-1 $533 -3.1415926535897931 $533 3.1415926535897931 $510 $534 forward @7 unknown #
coedge $-1 -1 $-1 $512 $512 $483 $513 forward $535 $-1 #
edge $-1 -1 $-1 $536 -3.1415926535897931 $536 3.1415926535897931 $512 $537 forward @7 unknown #
loop $-1 -1 $-1 $486 $484 $182 #
vertex $-1 -1 $-1 $485 $538 #
ellipse-curve $-1 -1 $-1 -197.77212633625908 -114.18379037844389 12.5 -0 -0 -1 -1.5874999999999999 0 0 1 I I #
point $-1 -1 $-1 1.5874999999999644 228.36758075688792 12.5 #
loop $-1 -1 $-1 $539 $540 $182 #
coedge $-1 -1 $-1 $519 $519 $494 $521 forward $490 $-1 #
coedge $-1 -1 $-1 $520 $520 $540 $541 reversed $493 $-1 #
edge $-1 -1 $-1 $542 -3.1415926535897802 $542 3.141592653589806 $519 $543 forward @7 unknown #
vertex $-1 -1 $-1 $495 $544 #
ellipse-curve $-1 -1 $-1 155.67339375865876 -107.77593413710278 0 0 0 1 0.80000000000000093 1.3856406460551018 0 1 I I #
vertex $-1 -1 $-1 $496 $545 #
ellipse-curve $-1 -1 $-1 144.32660624134115 -65.429146619785158 12.5 -0 -0 -1 0.80000000000000093 1.3856406460551018 0 1 I I #
point $-1 -1 $-1 143.52660624134114 -66.814787265840252 0 #
point $-1 -1 $-1 -87.96208277344229 -36.747142144111827 0 #
point $-1 -1 $-1 -129.62660624134122 -90.890293491047501 0 #
coedge $-1 -1 $-1 $529 $529 $546 $547 reversed $506 $-1 #
coedge $-1 -1 $-1 $530 $530 $508 $531 forward $548 $-1 #
edge $-1 -1 $-1 $549 -3.1415926535897931 $549 3.1415926535897931 $530 $550 forward @7 unknown #
loop $-1 -1 $-1 $535 $510 $182 #
vertex $-1 -1 $-1 $511 $551 #
ellipse-curve $-1 -1 $-1 15.500000000000025 188.70508075688772 12.5 -0 -0 -1 -1.6000000000000003 0 0 1 I I #
loop $-1 -1 $-1 $514 $512 $182 #
vertex $-1 -1 $-1 $513 $552 #
ellipse-curve $-1 -1 $-1 197.77212633625908 -114.18379037844389 12.5 -0 -0 -1 -1.5874999999999999 0 0 1 I I #
point $-1 -1 $-1 -196.18462633625907 -114.18379037844389 12.5 #
loop $-1 -1 $-1 $548 $546 $182 #
coedge $-1 -1 $-1 $540 $540 $520 $541 forward $518 $-1 #
edge $-1 -1 $-1 $553 -3.1415926535897971 $553 3.1415926535897891 $540 $554 forward @7 unknown #
vertex $-1 -1 $-1 $521 $555 #
ellipse-curve $-1 -1 $-1 155.67339375865876 -107.77593413710278 12.5 -0 -0 -1 0.80000000000000093 1.3856406460551018 0 1 I I #
point $-1 -1 $-1 154.87339375865875 -109.16157478315787 0 #
point $-1 -1 $-1 143.52660624134114 -66.814787265840252 12.5 #
coedge $-1 -1 $-1 $546 $546 $529 $547 forward $539 $-1 #
edge $-1 -1 $-1 $556 -3.141592653589782 $556 3.1415926535898042 $546 $557 forward @7 unknown #
loop $-1 -1 $-1 $532 $530 $182 #
vertex $-1 -1 $-1 $531 $558 #
ellipse-curve $-1 -1 $-1 -15.499999999999972 157.7050807568877 12.5 -0 -0 -1 -1.6000000000000003 0 0 1 I I #
point $-1 -1 $-1 17.100000000000026 188.70508075688772 12.5 #
point $-1 -1 $-1 199.35962633625908 -114.18379037844389 12.5 #
vertex $-1 -1 $-1 $541 $559 #
ellipse-curve $-1 -1 $-1 -128.82660624134121 -92.275934137102595 12.5 -0 -0 -1 0.79999999999999982 -1.3856406460551023 0 1 I I #
point $-1 -1 $-1 154.87339375865875 -109.16157478315787 12.5 #
vertex $-1 -1 $-1 $547 $560 #
ellipse-curve $-1 -1 $-1 -171.17339375865885 -80.929146619785001 12.5 -0 -0 -1 0.79999999999999982 -1.3856406460551023 0 1 I I #
point $-1 -1 $-1 -13.89999999999997 157.7050807568877 12.5 #
point $-1 -1 $-1 -129.62660624134122 -90.890293491047501 12.5 #
point $-1 -1 $-1 -171.97339375865883 -79.543505973729907 12.5 #
End-of-ACIS-data 