700 0 1 0           
33 Autodesk Inventor 17.0.13800.0000 19 ASM 218.0.0.5119 NT 24 Tue Dec 10 11:02:26 2013 
1 9.9999999999999995e-007 1e-010 
body $-1 -1 $-1 $1 $-1 $-1 #
lump $-1 -1 $-1 $-1 $2 $0 #
shell $-1 -1 $-1 $-1 $-1 $3 $-1 $1 #
face $-1 -1 $-1 $4 $5 $2 $-1 $6 reversed single #
face $-1 -1 $-1 $7 $8 $2 $-1 $9 reversed single #
loop $-1 -1 $-1 $10 $11 $3 #
cone-surface $-1 -1 $-1 12.373337956570163 -7.143750000000006 0 0 0 1 -1.2890500000000016 -2.2327000934966614 0 1 I I 0 1 2.5781000000000005 forward I I I I #
face $-1 -1 $-1 $12 $13 $2 $-1 $14 reversed single #
loop $-1 -1 $-1 $15 $16 $4 #
cone-surface $-1 -1 $-1 -12.37333795657017 -7.1437499999999972 0 0 0 1 -1.2890499999999996 2.2327000934966619 0 1 I I 0 1 2.5781000000000005 forward I I I I #
loop $-1 -1 $-1 $-1 $17 $3 #
coedge $-1 -1 $-1 $11 $11 $18 $19 reversed $5 $-1 #
face $-1 -1 $-1 $20 $21 $2 $-1 $22 forward single #
loop $-1 -1 $-1 $23 $24 $7 #
cone-surface $-1 -1 $-1 0 14.2875 0 0 0 1 2.5781000000000005 0 0 1 I I 0 1 2.5781000000000005 forward I I I I #
loop $-1 -1 $-1 $-1 $25 $4 #
coedge $-1 -1 $-1 $16 $16 $26 $27 reversed $8 $-1 #
coedge $-1 -1 $-1 $17 $17 $28 $29 reversed $10 $-1 #
coedge $-1 -1 $-1 $18 $18 $11 $19 forward $30 $-1 #
edge $-1 -1 $-1 $31 -3.1415926535897927 $31 3.1415926535897936 $18 $32 forward @7 unknown #
face $-1 -1 $-1 $33 $34 $2 $-1 $35 forward single #
loop $-1 -1 $-1 $36 $37 $12 #
cone-surface $-1 -1 $-1 0 0 0 0 0 1 9.5249999999999915 0 0 1 I I 0 1 9.5249999999999915 forward I I I I #
loop $-1 -1 $-1 $-1 $38 $7 #
coedge $-1 -1 $-1 $24 $24 $39 $40 reversed $13 $-1 #
coedge $-1 -1 $-1 $25 $25 $41 $42 reversed $15 $-1 #
coedge $-1 -1 $-1 $26 $26 $16 $27 forward $43 $-1 #
edge $-1 -1 $-1 $44 -3.1415926535897931 $44 3.1415926535897931 $26 $45 forward @7 unknown #
coedge $-1 -1 $-1 $28 $28 $17 $29 forward $46 $-1 #
edge $-1 -1 $-1 $47 -3.1415926535897936 $47 3.1415926535897927 $28 $48 forward @7 unknown #
loop $-1 -1 $-1 $43 $18 $49 #
vertex $-1 -1 $-1 $19 $50 #
ellipse-curve $-1 -1 $-1 12.373337956570163 -7.143750000000006 4.7751999999999999 -0 -0 -1 -1.2890500000000016 -2.2327000934966614 0 1 I I #
face $-1 -1 $-1 $49 $51 $2 $-1 $52 forward single #
loop $-1 -1 $-1 $-1 $53 $20 #
plane-surface $-1 -1 $-1 4.8573583211457227e-016 -1.9426474621612556e-016 38.100000000000001 0 0 1 10 0 0 forward_v I I I I #
loop $-1 -1 $-1 $-1 $54 $12 #
coedge $-1 -1 $-1 $37 $37 $53 $55 reversed $21 $-1 #
coedge $-1 -1 $-1 $38 $38 $56 $57 reversed $23 $-1 #
coedge $-1 -1 $-1 $39 $39 $24 $40 forward $58 $-1 #
edge $-1 -1 $-1 $59 -3.1415926535897931 $59 3.1415926535897931 $39 $60 forward @7 unknown #
coedge $-1 -1 $-1 $41 $41 $25 $42 forward $61 $-1 #
edge $-1 -1 $-1 $62 -3.1415926535897931 $62 3.1415926535897931 $41 $63 forward @7 unknown #
loop $-1 -1 $-1 $58 $26 $49 #
vertex $-1 -1 $-1 $27 $64 #
ellipse-curve $-1 -1 $-1 -12.37333795657017 -7.1437499999999972 4.7751999999999999 -0 -0 -1 -1.2890499999999996 2.2327000934966619 0 1 I I #
loop $-1 -1 $-1 $61 $28 $65 #
vertex $-1 -1 $-1 $29 $66 #
ellipse-curve $-1 -1 $-1 12.373337956570163 -7.143750000000006 0 0 0 1 -1.2890500000000016 -2.2327000934966614 0 1 I I #
face $-1 -1 $-1 $65 $30 $2 $-1 $67 forward single #
point $-1 -1 $-1 13.662387956570166 -4.9110499065033455 4.7751999999999999 #
loop $-1 -1 $-1 $68 $69 $33 #
cone-surface $-1 -1 $-1 0 0 0 0 0 1 -19.049999999999983 0 0 1 I I 0 1 19.049999999999983 forward I I I I #
coedge $-1 -1 $-1 $53 $53 $37 $55 forward $34 $-1 #
coedge $-1 -1 $-1 $54 $54 $70 $71 reversed $36 $-1 #
edge $-1 -1 $-1 $72 -3.1415926535897931 $72 3.1415926535897931 $37 $73 forward @7 unknown #
coedge $-1 -1 $-1 $56 $56 $38 $57 forward $74 $-1 #
edge $-1 -1 $-1 $75 -3.1415926535897931 $75 3.1415926535897931 $56 $76 forward @7 unknown #
loop $-1 -1 $-1 $77 $39 $49 #
vertex $-1 -1 $-1 $40 $78 #
ellipse-curve $-1 -1 $-1 0 14.2875 4.7751999999999999 -0 -0 -1 2.5781000000000005 0 0 1 I I #
loop $-1 -1 $-1 $74 $41 $65 #
vertex $-1 -1 $-1 $42 $79 #
ellipse-curve $-1 -1 $-1 -12.37333795657017 -7.1437499999999972 0 0 0 1 -1.2890499999999996 2.2327000934966619 0 1 I I #
point $-1 -1 $-1 -11.084287956570169 -9.3764500934966595 4.7751999999999999 #
face $-1 -1 $-1 $-1 $46 $2 $-1 $80 reversed single #
point $-1 -1 $-1 13.662387956570166 -4.9110499065033455 0 #
plane-surface $-1 -1 $-1 -9.7147166422914453e-016 -3.8852949243225111e-016 4.7751999999999999 0 0 1 10 0 0 forward_v I I I I #
loop $-1 -1 $-1 $-1 $81 $33 #
coedge $-1 -1 $-1 $69 $69 $82 $83 reversed $51 $-1 #
coedge $-1 -1 $-1 $70 $70 $54 $71 forward $77 $-1 #
edge $-1 -1 $-1 $84 -3.1415926535897931 $84 3.1415926535897931 $70 $85 forward @7 unknown #
vertex $-1 -1 $-1 $55 $86 #
ellipse-curve $-1 -1 $-1 0 0 38.100000000000001 0 0 1 9.5249999999999915 0 0 1 I I #
loop $-1 -1 $-1 $87 $56 $65 #
vertex $-1 -1 $-1 $57 $88 #
ellipse-curve $-1 -1 $-1 0 14.2875 0 0 0 1 2.5781000000000005 0 0 1 I I #
loop $-1 -1 $-1 $89 $70 $49 #
point $-1 -1 $-1 -2.5781000000000005 14.2875 4.7751999999999999 #
point $-1 -1 $-1 -11.084287956570169 -9.3764500934966595 0 #
plane-surface $-1 -1 $-1 -9.7147166422914453e-016 -3.8852949243225111e-016 0 0 0 1 10 0 0 forward_v I I I I #
coedge $-1 -1 $-1 $81 $81 $90 $91 reversed $68 $-1 #
coedge $-1 -1 $-1 $82 $82 $69 $83 forward $89 $-1 #
edge $-1 -1 $-1 $92 -3.1415926535897931 $92 3.1415926535897931 $69 $93 forward @7 unknown #
vertex $-1 -1 $-1 $71 $94 #
ellipse-curve $-1 -1 $-1 0 0 4.7751999999999999 -0 -0 -1 9.5249999999999915 0 0 1 I I #
point $-1 -1 $-1 -9.5249999999999915 1.1664760761878528e-015 38.100000000000001 #
loop $-1 -1 $-1 $-1 $90 $65 #
point $-1 -1 $-1 -2.5781000000000005 14.2875 0 #
loop $-1 -1 $-1 $-1 $82 $49 #
coedge $-1 -1 $-1 $90 $90 $81 $91 forward $87 $-1 #
edge $-1 -1 $-1 $95 -3.1415926535897931 $95 3.1415926535897931 $81 $96 forward @7 unknown #
vertex $-1 -1 $-1 $83 $97 #
ellipse-curve $-1 -1 $-1 0 0 4.7751999999999999 0 0 1 -19.049999999999983 -0 -0 1 I I #
point $-1 -1 $-1 -9.5249999999999915 1.1664760761878528e-015 4.7751999999999999 #
vertex $-1 -1 $-1 $91 $98 #
ellipse-curve $-1 -1 $-1 0 0 0 0 0 -1 -19.049999999999983 -0 -0 1 I I #
point $-1 -1 $-1 19.049999999999983 2.3329521523757057e-015 4.7751999999999999 #
point $-1 -1 $-1 19.049999999999983 2.3329521523757057e-015 0 #
End-of-ACIS-data 