700 0 1 0           
33 Autodesk Inventor 17.0.13800.0000 19 ASM 218.0.0.5119 NT 24 Tue Dec 10 11:02:29 2013 
1 9.9999999999999995e-007 1e-010 
body $-1 -1 $-1 $1 $-1 $-1 #
lump $-1 -1 $-1 $-1 $2 $0 #
shell $-1 -1 $-1 $-1 $-1 $3 $-1 $1 #
face $-1 -1 $-1 $4 $5 $2 $-1 $6 reversed single #
face $-1 -1 $-1 $7 $8 $2 $-1 $9 reversed single #
loop $-1 -1 $-1 $10 $11 $3 #
cone-surface $-1 -1 $-1 -150 -86.602540378443933 7.9375 0 0 1 -3.7500000000000036 6.4951905283832883 0 1 I I 0 1 7.5 forward I I I I #
face $-1 -1 $-1 $12 $13 $2 $-1 $14 reversed single #
loop $-1 -1 $-1 $15 $16 $4 #
cone-surface $-1 -1 $-1 -150 -86.602540378443933 0 0 0 1 -5.7500000000000062 9.9592921435210435 0 1 I I 0 1 11.500000000000002 forward I I I I #
loop $-1 -1 $-1 $-1 $17 $3 #
coedge $-1 -1 $-1 $11 $11 $18 $19 reversed $5 $-1 #
face $-1 -1 $-1 $20 $21 $2 $-1 $22 reversed single #
loop $-1 -1 $-1 $23 $24 $7 #
plane-surface $-1 -1 $-1 -150 -86.602540378443933 7.9375 0 0 1 -5.0000000000000053 8.6602540378443855 0 forward_v I I I I #
loop $-1 -1 $-1 $-1 $25 $4 #
coedge $-1 -1 $-1 $16 $16 $26 $27 forward $8 $-1 #
coedge $-1 -1 $-1 $17 $17 $24 $28 forward $10 $-1 #
coedge $-1 -1 $-1 $18 $18 $11 $19 forward $29 $-1 #
edge $-1 -1 $-1 $30 -3.1415926535897927 $30 3.1415926535897936 $18 $31 forward @7 unknown #
face $-1 -1 $-1 $32 $33 $2 $-1 $34 reversed single #
loop $-1 -1 $-1 $35 $36 $12 #
cone-surface $-1 -1 $-1 150.00000000000003 -86.602540378443877 7.9375 0 0 1 -3.7499999999999991 -6.4951905283832909 0 1 I I 0 1 7.5 forward I I I I #
loop $-1 -1 $-1 $-1 $26 $7 #
coedge $-1 -1 $-1 $24 $24 $17 $28 reversed $13 $-1 #
coedge $-1 -1 $-1 $25 $25 $37 $38 reversed $15 $-1 #
coedge $-1 -1 $-1 $26 $26 $16 $27 reversed $23 $-1 #
edge $-1 -1 $-1 $39 -3.1415926535897931 $39 3.1415926535897931 $16 $40 forward @7 unknown #
edge $-1 -1 $-1 $41 -3.1415926535897931 $41 3.1415926535897931 $24 $42 forward @7 unknown #
loop $-1 -1 $-1 $43 $18 $44 #
vertex $-1 -1 $-1 $19 $45 #
ellipse-curve $-1 -1 $-1 -150 -86.602540378443933 12.5 -0 -0 -1 -3.7500000000000036 6.4951905283832883 0 1 I I #
face $-1 -1 $-1 $46 $47 $2 $-1 $48 reversed single #
loop $-1 -1 $-1 $49 $50 $20 #
cone-surface $-1 -1 $-1 150.00000000000003 -86.602540378443877 0 0 0 1 -5.7499999999999982 -9.9592921435210471 0 1 I I 0 1 11.500000000000002 forward I I I I #
loop $-1 -1 $-1 $-1 $51 $12 #
coedge $-1 -1 $-1 $36 $36 $52 $53 reversed $21 $-1 #
coedge $-1 -1 $-1 $37 $37 $25 $38 forward $54 $-1 #
edge $-1 -1 $-1 $55 -3.1415926535897922 $55 3.141592653589794 $37 $56 forward @7 unknown #
vertex $-1 -1 $-1 $27 $57 #
ellipse-curve $-1 -1 $-1 -150 -86.602540378443933 7.9375 0 0 1 -5.7500000000000062 9.9592921435210435 0 1 I I #
vertex $-1 -1 $-1 $28 $58 #
ellipse-curve $-1 -1 $-1 -150 -86.602540378443933 7.9375 0 0 -1 -3.7500000000000036 6.4951905283832883 0 1 I I #
loop $-1 -1 $-1 $59 $52 $44 #
face $-1 -1 $-1 $60 $29 $2 $-1 $61 forward single #
point $-1 -1 $-1 -146.25 -93.097730906827223 12.5 #
face $-1 -1 $-1 $62 $63 $2 $-1 $64 reversed single #
loop $-1 -1 $-1 $65 $66 $32 #
plane-surface $-1 -1 $-1 150.00000000000003 -86.602540378443877 7.9375 0 0 1 -4.9999999999999982 -8.6602540378443891 0 forward_v I I I I #
loop $-1 -1 $-1 $-1 $67 $20 #
coedge $-1 -1 $-1 $50 $50 $68 $69 forward $33 $-1 #
coedge $-1 -1 $-1 $51 $51 $66 $70 forward $35 $-1 #
coedge $-1 -1 $-1 $52 $52 $36 $53 forward $43 $-1 #
edge $-1 -1 $-1 $71 -3.1415926535897931 $71 3.1415926535897931 $52 $72 forward @7 unknown #
loop $-1 -1 $-1 $73 $37 $74 #
vertex $-1 -1 $-1 $38 $75 #
ellipse-curve $-1 -1 $-1 -150 -86.602540378443933 0 0 0 1 -5.7500000000000062 9.9592921435210435 0 1 I I #
point $-1 -1 $-1 -144.25 -96.561832521964959 7.9375 #
point $-1 -1 $-1 -146.25 -93.097730906827223 7.9375 #
loop $-1 -1 $-1 $76 $77 $44 #
face $-1 -1 $-1 $78 $79 $2 $-1 $80 reversed single #
plane-surface $-1 -1 $-1 8.2423419267489979e-015 3.0496665128971291e-013 12.5 0 0 1 10 0 0 forward_v I I I I #
face $-1 -1 $-1 $81 $82 $2 $-1 $83 reversed single #
loop $-1 -1 $-1 $84 $85 $46 #
cone-surface $-1 -1 $-1 3.3049062589308865e-014 173.20508075688775 7.9375 0 0 1 7.5 0 0 1 I I 0 1 7.5 forward I I I I #
loop $-1 -1 $-1 $-1 $68 $32 #
coedge $-1 -1 $-1 $66 $66 $51 $70 reversed $47 $-1 #
coedge $-1 -1 $-1 $67 $67 $86 $87 reversed $49 $-1 #
coedge $-1 -1 $-1 $68 $68 $50 $69 reversed $65 $-1 #
edge $-1 -1 $-1 $88 -3.1415926535897931 $88 3.1415926535897931 $50 $89 forward @7 unknown #
edge $-1 -1 $-1 $90 -3.1415926535897931 $90 3.1415926535897931 $66 $91 forward @7 unknown #
vertex $-1 -1 $-1 $53 $92 #
ellipse-curve $-1 -1 $-1 150.00000000000003 -86.602540378443877 12.5 -0 -0 -1 -3.7499999999999991 -6.4951905283832909 0 1 I I #
loop $-1 -1 $-1 $93 $86 $74 #
face $-1 -1 $-1 $-1 $54 $2 $-1 $94 reversed single #
point $-1 -1 $-1 -144.25 -96.561832521964959 0 #
loop $-1 -1 $-1 $95 $96 $44 #
coedge $-1 -1 $-1 $77 $77 $85 $97 forward $59 $-1 #
face $-1 -1 $-1 $98 $99 $2 $-1 $100 reversed single #
loop $-1 -1 $-1 $-1 $101 $60 #
plane-surface $-1 -1 $-1 31.249999999999993 29.999999999999993 10.594999999999999 0 -1 0 -10 -0 -0 forward_v I I I I #
face $-1 -1 $-1 $102 $103 $2 $-1 $104 reversed single #
loop $-1 -1 $-1 $105 $106 $62 #
cone-surface $-1 -1 $-1 3.3049062589308865e-014 173.20508075688775 0 0 0 1 11.500000000000002 0 0 1 I I 0 1 11.500000000000002 forward I I I I #
loop $-1 -1 $-1 $-1 $107 $46 #
coedge $-1 -1 $-1 $85 $85 $77 $97 reversed $63 $-1 #
coedge $-1 -1 $-1 $86 $86 $67 $87 forward $73 $-1 #
edge $-1 -1 $-1 $108 -3.1415926535897927 $108 3.1415926535897936 $86 $109 forward @7 unknown #
vertex $-1 -1 $-1 $69 $110 #
ellipse-curve $-1 -1 $-1 150.00000000000003 -86.602540378443877 7.9375 0 0 1 -5.7499999999999982 -9.9592921435210471 0 1 I I #
vertex $-1 -1 $-1 $70 $111 #
ellipse-curve $-1 -1 $-1 150.00000000000003 -86.602540378443877 7.9375 0 0 -1 -3.7499999999999991 -6.4951905283832909 0 1 I I #
point $-1 -1 $-1 153.75000000000003 -80.107349850060587 12.5 #
loop $-1 -1 $-1 $112 $113 $74 #
plane-surface $-1 -1 $-1 8.2423419267489979e-015 3.0496665128971291e-013 0 0 0 1 10 0 0 forward_v I I I I #
loop $-1 -1 $-1 $114 $115 $44 #
coedge $-1 -1 $-1 $116 $117 $118 $119 forward $76 $-1 #
edge $-1 -1 $-1 $120 -3.1415926535897931 $120 3.1415926535897931 $77 $121 forward @7 unknown #
face $-1 -1 $-1 $122 $123 $2 $-1 $124 forward single #
loop $-1 -1 $-1 $-1 $125 $78 #
cone-surface $-1 -1 $-1 0 0 12.5 0 0 -1 -105 0 0 1 I I 0 1 105 forward I I I I #
coedge $-1 -1 $-1 $126 $127 $128 $129 reversed $79 $-1 #
face $-1 -1 $-1 $130 $131 $2 $-1 $132 forward single #
loop $-1 -1 $-1 $133 $134 $81 #
plane-surface $-1 -1 $-1 3.3888069443065755e-014 173.20508075688775 7.9375 0 0 1 10 0 0 forward_v I I I I #
loop $-1 -1 $-1 $-1 $135 $62 #
coedge $-1 -1 $-1 $106 $106 $136 $137 forward $82 $-1 #
coedge $-1 -1 $-1 $107 $107 $134 $138 reversed $84 $-1 #
vertex $-1 -1 $-1 $87 $139 #
ellipse-curve $-1 -1 $-1 150.00000000000003 -86.602540378443877 0 0 0 1 -5.7499999999999982 -9.9592921435210471 0 1 I I #
point $-1 -1 $-1 155.75 -76.643248234922822 7.9375 #
point $-1 -1 $-1 153.75000000000003 -80.107349850060587 7.9375 #
loop $-1 -1 $-1 $140 $141 $74 #
coedge $-1 -1 $-1 $113 $113 $135 $142 forward $93 $-1 #
loop $-1 -1 $-1 $143 $144 $44 #
coedge $-1 -1 $-1 $115 $115 $145 $146 forward $95 $-1 #
coedge $-1 -1 $-1 $147 $96 $148 $149 forward $76 $-1 #
coedge $-1 -1 $-1 $96 $150 $151 $152 forward $76 $-1 #
coedge $-1 -1 $-1 $153 $154 $96 $119 reversed $155 $-1 #
edge $-1 -1 $-1 $156 -3.1415926535897931 $157 -1.2995021972361331 $118 $158 forward @7 unknown #
vertex $-1 -1 $-1 $97 $159 #
ellipse-curve $-1 -1 $-1 3.3049062589308865e-014 173.20508075688775 12.5 -0 -0 -1 7.5 0 0 1 I I #
face $-1 -1 $-1 $160 $161 $2 $-1 $162 reversed single #
loop $-1 -1 $-1 $-1 $163 $98 #
plane-surface $-1 -1 $-1 -5.5829483985244105e-015 -2.2556912246352386e-015 10.594999999999999 0 0 1 10 0 0 forward_v I I I I #
coedge $-1 -1 $-1 $164 $165 $166 $167 forward $99 $-1 #
coedge $-1 -1 $-1 $168 $101 $169 $170 reversed $79 $-1 #
coedge $-1 -1 $-1 $101 $168 $171 $172 forward $79 $-1 #
coedge $-1 -1 $-1 $173 $174 $101 $129 forward $131 $-1 #
edge $-1 -1 $-1 $175 0 $176 0.57150000000000001 $101 $177 forward @7 tangent #
face $-1 -1 $-1 $178 $179 $2 $-1 $180 reversed single #
loop $-1 -1 $-1 $-1 $173 $102 #
cone-surface $-1 -1 $-1 -28.074999999999992 33.17499999999999 10.594999999999999 0 0 -1 -2.2450640302672884 -2.2450640302672884 0 1 I I 0 -1 3.1750000000000007 forward I I I I #
loop $-1 -1 $-1 $-1 $136 $81 #
coedge $-1 -1 $-1 $134 $134 $107 $138 forward $103 $-1 #
coedge $-1 -1 $-1 $135 $135 $113 $142 reversed $105 $-1 #
coedge $-1 -1 $-1 $136 $136 $106 $137 reversed $133 $-1 #
edge $-1 -1 $-1 $181 -3.1415926535897931 $181 3.1415926535897931 $106 $182 forward @7 unknown #
edge $-1 -1 $-1 $183 -3.1415926535897931 $183 3.1415926535897931 $134 $184 forward @7 unknown #
point $-1 -1 $-1 155.75 -76.643248234922822 0 #
loop $-1 -1 $-1 $185 $186 $74 #
coedge $-1 -1 $-1 $141 $141 $187 $188 forward $112 $-1 #
edge $-1 -1 $-1 $189 -3.1415926535897931 $189 3.1415926535897931 $113 $190 forward @7 unknown #
loop $-1 -1 $-1 $191 $192 $44 #
coedge $-1 -1 $-1 $144 $144 $193 $194 forward $114 $-1 #
coedge $-1 -1 $-1 $145 $145 $115 $146 reversed $195 $-1 #
edge $-1 -1 $-1 $196 -3.1415926535897931 $196 3.1415926535897931 $115 $197 forward @7 unknown #
coedge $-1 -1 $-1 $198 $116 $199 $200 forward $76 $-1 #
coedge $-1 -1 $-1 $201 $202 $116 $149 reversed $203 $-1 #
edge $-1 -1 $-1 $157 -3.1415926535897931 $204 -2.8892880075502569 $148 $205 forward @7 unknown #
coedge $-1 -1 $-1 $117 $198 $206 $207 forward $76 $-1 #
coedge $-1 -1 $-1 $208 $209 $117 $152 reversed $210 $-1 #
edge $-1 -1 $-1 $211 -3.1415926535897931 $156 -2.8892880075502561 $151 $212 forward @7 unknown #
coedge $-1 -1 $-1 $213 $118 $209 $214 reversed $155 $-1 #
coedge $-1 -1 $-1 $118 $213 $201 $215 forward $155 $-1 #
loop $-1 -1 $-1 $-1 $213 $216 #
vertex $-1 -1 $-1 $214 $217 #
vertex $-1 -1 $-1 $215 $218 #
ellipse-curve $-1 -1 $-1 -3.5442222658252432e-014 228.36758075688792 12.5 0 0 1 -24.016420259536297 -18.247957808131147 -0 1 I I #
point $-1 -1 $-1 -7.4999999999999662 173.20508075688775 12.5 #
face $-1 -1 $-1 $219 $220 $2 $-1 $221 reversed single #
loop $-1 -1 $-1 $222 $223 $122 #
cone-surface $-1 -1 $-1 5.5511151231257827e-016 -144.33756729740645 0 0 0 1 -4.25 0 0 1 I I 0 1 4.25 forward I I I I #
coedge $-1 -1 $-1 $224 $225 $226 $227 forward $123 $-1 #
coedge $-1 -1 $-1 $228 $125 $229 $230 reversed $99 $-1 #
coedge $-1 -1 $-1 $125 $231 $232 $233 reversed $99 $-1 #
coedge $-1 -1 $-1 $234 $224 $125 $167 reversed $123 $-1 #
edge $-1 -1 $-1 $235 -4.4330522552823526 $236 1.2914596016925599 $125 $237 forward @7 unknown #
coedge $-1 -1 $-1 $127 $126 $238 $239 reversed $79 $-1 #
coedge $-1 -1 $-1 $225 $240 $126 $170 forward $123 $-1 #
edge $-1 -1 $-1 $241 -1.2449999999999999 $175 4.3699999999999983 $169 $242 forward @7 unknown #
coedge $-1 -1 $-1 $243 $244 $127 $172 reversed $245 $-1 #
edge $-1 -1 $-1 $246 -5.9324999999999983 $176 -0.31749999999999989 $127 $247 forward @7 unknown #
coedge $-1 -1 $-1 $248 $128 $244 $249 reversed $131 $-1 #
coedge $-1 -1 $-1 $128 $248 $225 $250 forward $131 $-1 #
vertex $-1 -1 $-1 $250 $251 #
vertex $-1 -1 $-1 $249 $252 #
straight-curve $-1 -1 $-1 -28.074999999999992 29.999999999999993 10.594999999999999 0 0 -10 F -0.98425100000000043 F 1.5557510000000001 #
face $-1 -1 $-1 $253 $254 $2 $-1 $255 forward single #
loop $-1 -1 $-1 $-1 $256 $130 #
plane-surface $-1 -1 $-1 -31.249999999999993 29.999999999999993 10.594999999999999 -1 -1.8966852058847927e-016 -0 -1.8966852058847928e-015 10 0 forward_v I I I I #
vertex $-1 -1 $-1 $137 $257 #
ellipse-curve $-1 -1 $-1 3.3049062589308865e-014 173.20508075688775 7.9375 0 0 1 11.500000000000002 0 0 1 I I #
vertex $-1 -1 $-1 $138 $258 #
ellipse-curve $-1 -1 $-1 3.3049062589308865e-014 173.20508075688775 7.9375 0 0 1 7.5 0 0 1 I I #
loop $-1 -1 $-1 $259 $260 $74 #
coedge $-1 -1 $-1 $186 $186 $261 $262 forward $140 $-1 #
coedge $-1 -1 $-1 $187 $187 $141 $188 reversed $263 $-1 #
edge $-1 -1 $-1 $264 -3.1415926535897931 $264 3.1415926535897931 $141 $265 forward @7 unknown #
vertex $-1 -1 $-1 $142 $266 #
ellipse-curve $-1 -1 $-1 3.3049062589308865e-014 173.20508075688775 0 0 0 1 11.500000000000002 0 0 1 I I #
loop $-1 -1 $-1 $267 $268 $44 #
coedge $-1 -1 $-1 $192 $192 $269 $270 forward $143 $-1 #
coedge $-1 -1 $-1 $193 $193 $144 $194 reversed $271 $-1 #
edge $-1 -1 $-1 $272 -3.1415926535897931 $272 3.1415926535897931 $144 $273 forward @7 unknown #
loop $-1 -1 $-1 $274 $145 $275 #
vertex $-1 -1 $-1 $146 $276 #
ellipse-curve $-1 -1 $-1 -3.5442222658252432e-014 228.36758075688792 12.5 -0 -0 -1 -1.5874999999999999 0 0 1 I I #
coedge $-1 -1 $-1 $150 $147 $277 $278 forward $76 $-1 #
coedge $-1 -1 $-1 $279 $280 $147 $200 reversed $281 $-1 #
edge $-1 -1 $-1 $204 -3.1415926535897931 $282 -1.2995021972361349 $199 $283 forward @7 unknown #
coedge $-1 -1 $-1 $284 $148 $154 $215 reversed $203 $-1 #
coedge $-1 -1 $-1 $148 $284 $279 $285 forward $203 $-1 #
loop $-1 -1 $-1 $-1 $284 $286 #
vertex $-1 -1 $-1 $285 $287 #
ellipse-curve $-1 -1 $-1 1251.5935182350399 -722.60785466899029 12.5 0 0 1 1275.6099384945762 -969.22339323400934 0 1 I I #
coedge $-1 -1 $-1 $288 $289 $150 $207 reversed $290 $-1 #
edge $-1 -1 $-1 $291 -3.1415926535897931 $211 -1.2995021972361336 $206 $292 forward @7 unknown #
coedge $-1 -1 $-1 $293 $151 $289 $294 reversed $210 $-1 #
coedge $-1 -1 $-1 $151 $293 $153 $214 forward $210 $-1 #
loop $-1 -1 $-1 $-1 $293 $295 #
vertex $-1 -1 $-1 $294 $296 #
ellipse-curve $-1 -1 $-1 -1251.5935182350395 -722.60785466899029 12.5 0 0 1 -1477.177049730095 -620.09891543920253 -0 1 I I #
coedge $-1 -1 $-1 $154 $153 $297 $298 reversed $155 $-1 #
edge $-1 -1 $-1 $299 0 $156 1.25 $153 $300 forward @7 tangent #
edge $-1 -1 $-1 $301 0 $157 1.25 $154 $302 forward @7 tangent #
face $-1 -1 $-1 $74 $155 $2 $-1 $303 forward single #
point $-1 -1 $-1 24.016420259536556 246.61553856501928 12.5 #
point $-1 -1 $-1 -24.01642025953651 246.61553856501914 12.5 #
face $-1 -1 $-1 $304 $305 $2 $-1 $306 reversed single #
loop $-1 -1 $-1 $307 $308 $160 #
cone-surface $-1 -1 $-1 124.99999999999999 72.168783648703283 0 0 0 1 -4.2499999999999982 0 0 1 I I 0 1 4.2499999999999982 forward I I I I #
loop $-1 -1 $-1 $-1 $261 $122 #
coedge $-1 -1 $-1 $223 $223 $309 $310 reversed $161 $-1 #
coedge $-1 -1 $-1 $166 $163 $311 $312 reversed $123 $-1 #
coedge $-1 -1 $-1 $163 $169 $174 $250 reversed $123 $-1 #
coedge $-1 -1 $-1 $256 $313 $163 $227 reversed $179 $-1 #
edge $-1 -1 $-1 $314 1.8174999999999999 $315 8.28781129773148 $163 $316 forward @7 unknown #
coedge $-1 -1 $-1 $317 $164 $318 $319 forward $99 $-1 #
coedge $-1 -1 $-1 $311 $320 $164 $230 forward $321 $-1 #
edge $-1 -1 $-1 $322 -0.76200000000000001 $236 -0.19050000000000011 $164 $323 forward @7 tangent #
coedge $-1 -1 $-1 $165 $324 $325 $326 forward $99 $-1 #
coedge $-1 -1 $-1 $327 $328 $165 $233 forward $329 $-1 #
edge $-1 -1 $-1 $235 0.19050000000000011 $330 0.76200000000000001 $165 $331 forward @7 tangent #
coedge $-1 -1 $-1 $332 $166 $328 $333 reversed $123 $-1 #
vertex $-1 -1 $-1 $167 $334 #
vertex $-1 -1 $-1 $167 $335 #
ellipse-curve $-1 -1 $-1 0 0 10.594999999999999 -0 -0 -1 -105 0 0 1 I I #
coedge $-1 -1 $-1 $336 $337 $168 $239 forward $254 $-1 #
edge $-1 -1 $-1 $246 -0.57150000000000001 $241 0 $168 $338 forward @7 tangent #
coedge $-1 -1 $-1 $169 $332 $336 $339 reversed $123 $-1 #
vertex $-1 -1 $-1 $170 $340 #
straight-curve $-1 -1 $-1 15.624999999999993 29.999999999999993 10.594999999999999 -10 0 0 I I #
coedge $-1 -1 $-1 $341 $171 $337 $342 forward $245 $-1 #
coedge $-1 -1 $-1 $171 $343 $173 $249 forward $245 $-1 #
loop $-1 -1 $-1 $-1 $244 $253 #
vertex $-1 -1 $-1 $172 $344 #
straight-curve $-1 -1 $-1 -31.249999999999993 29.999999999999993 4.879999999999999 -10 -0 -0 I I #
coedge $-1 -1 $-1 $174 $173 $256 $345 forward $131 $-1 #
edge $-1 -1 $-1 $346 -0.78539816339744828 $176 0.78539816339744828 $244 $347 forward @7 unknown #
edge $-1 -1 $-1 $314 -0.78539816339744828 $175 0.78539816339744828 $174 $348 forward @7 unknown #
point $-1 -1 $-1 -28.074999999999992 29.999999999999993 10.594999999999999 #
point $-1 -1 $-1 -28.074999999999992 29.999999999999993 4.879999999999999 #
face $-1 -1 $-1 $349 $245 $2 $-1 $350 forward single #
loop $-1 -1 $-1 $-1 $337 $178 #
cone-surface $-1 -1 $-1 28.074999999999992 33.17499999999999 10.594999999999999 -0 -0 -1 2.2450640302672884 -2.2450640302672884 0 1 I I 0 -1 3.1750000000000007 forward I I I I #
coedge $-1 -1 $-1 $351 $226 $248 $345 reversed $179 $-1 #
point $-1 -1 $-1 -11.499999999999968 173.20508075688775 7.9375 #
point $-1 -1 $-1 -7.4999999999999662 173.20508075688775 7.9375 #
loop $-1 -1 $-1 $352 $353 $74 #
coedge $-1 -1 $-1 $260 $260 $354 $355 forward $185 $-1 #
coedge $-1 -1 $-1 $261 $261 $186 $262 reversed $222 $-1 #
edge $-1 -1 $-1 $356 -3.1415926535897931 $356 3.1415926535897931 $186 $357 forward @7 unknown #
loop $-1 -1 $-1 $-1 $187 $358 #
vertex $-1 -1 $-1 $188 $359 #
ellipse-curve $-1 -1 $-1 -1.5258238722423095e-013 105 0 0 0 1 -12.5 0 0 1 I I #
point $-1 -1 $-1 -11.499999999999968 173.20508075688775 0 #
loop $-1 -1 $-1 $360 $361 $44 #
coedge $-1 -1 $-1 $268 $268 $362 $363 forward $191 $-1 #
coedge $-1 -1 $-1 $269 $269 $192 $270 reversed $364 $-1 #
edge $-1 -1 $-1 $365 -3.1415926535897931 $365 3.1415926535897931 $192 $366 forward @7 unknown #
loop $-1 -1 $-1 $367 $193 $368 #
vertex $-1 -1 $-1 $194 $369 #
ellipse-curve $-1 -1 $-1 -197.77212633625908 -114.18379037844389 12.5 -0 -0 -1 -1.5874999999999999 0 0 1 I I #
loop $-1 -1 $-1 $-1 $370 $275 #
face $-1 -1 $-1 $295 $195 $2 $-1 $371 reversed single #
point $-1 -1 $-1 1.5874999999999644 228.36758075688792 12.5 #
coedge $-1 -1 $-1 $372 $373 $198 $278 reversed $374 $-1 #
edge $-1 -1 $-1 $282 -3.1415926535897931 $291 -2.8892880075502569 $277 $375 forward @7 unknown #
coedge $-1 -1 $-1 $376 $199 $202 $285 reversed $281 $-1 #
coedge $-1 -1 $-1 $199 $376 $372 $377 forward $281 $-1 #
loop $-1 -1 $-1 $-1 $376 $378 #
vertex $-1 -1 $-1 $377 $379 #
ellipse-curve $-1 -1 $-1 -197.77212633625908 -114.18379037844389 12.5 0 0 1 27.81140515879633 -11.674851148656094 0 1 I I #
coedge $-1 -1 $-1 $202 $201 $380 $381 reversed $203 $-1 #
edge $-1 -1 $-1 $382 0 $204 1.25 $202 $383 forward @7 tangent #
face $-1 -1 $-1 $216 $203 $2 $-1 $384 forward single #
point $-1 -1 $-1 -225.5835314950553 -102.50893922978787 12.5 #
coedge $-1 -1 $-1 $385 $206 $373 $386 reversed $290 $-1 #
coedge $-1 -1 $-1 $206 $385 $208 $294 forward $290 $-1 #
loop $-1 -1 $-1 $-1 $385 $387 #
vertex $-1 -1 $-1 $386 $388 #
ellipse-curve $-1 -1 $-1 197.77212633625908 -114.18379037844389 12.5 0 0 1 -3.7949848992600121 29.922808956787268 0 1 I I #
coedge $-1 -1 $-1 $209 $208 $389 $390 reversed $210 $-1 #
edge $-1 -1 $-1 $391 0 $211 1.25 $289 $392 forward @7 tangent #
face $-1 -1 $-1 $387 $210 $2 $-1 $393 forward single #
point $-1 -1 $-1 225.58353149505558 -102.50893922978764 12.5 #
coedge $-1 -1 $-1 $389 $380 $213 $298 forward $394 $-1 #
edge $-1 -1 $-1 $301 1.2995021972361331 $299 3.1415926535897931 $213 $395 forward @7 unknown #
vertex $-1 -1 $-1 $298 $396 #
straight-curve $-1 -1 $-1 24.016420259536556 246.61553856501928 0 0 0 10 I I #
vertex $-1 -1 $-1 $298 $397 #
straight-curve $-1 -1 $-1 -24.01642025953651 246.61553856501914 0 0 0 10 I I #
cone-surface $-1 -1 $-1 -3.5442222658252432e-014 228.36758075688792 0 0 0 1 -24.016420259536297 -18.247957808131147 0 1 I I 0 1 30.162499999999998 forward I I I I #
face $-1 -1 $-1 $368 $364 $2 $-1 $398 reversed single #
loop $-1 -1 $-1 $399 $362 $219 #
cone-surface $-1 -1 $-1 -125.00000000000001 72.168783648703197 0 0 0 1 -4.2499999999999982 0 0 1 I I 0 1 4.2499999999999982 forward I I I I #
loop $-1 -1 $-1 $-1 $354 $160 #
coedge $-1 -1 $-1 $308 $308 $361 $400 reversed $220 $-1 #
coedge $-1 -1 $-1 $309 $309 $223 $310 forward $360 $-1 #
edge $-1 -1 $-1 $401 -3.1415926535897931 $401 3.1415926535897931 $309 $402 forward @7 unknown #
coedge $-1 -1 $-1 $403 $229 $224 $312 forward $321 $-1 #
edge $-1 -1 $-1 $236 -0.64572980084628007 $315 0.64572980084628051 $311 $404 forward @7 unknown #
coedge $-1 -1 $-1 $226 $351 $403 $405 reversed $179 $-1 #
vertex $-1 -1 $-1 $227 $406 #
vertex $-1 -1 $-1 $312 $407 #
straight-curve $-1 -1 $-1 -31.249999999999993 14.999999999999991 10.594999999999999 -1.8966852058847928e-015 10 0 I I #
coedge $-1 -1 $-1 $408 $228 $409 $410 forward $99 $-1 #
coedge $-1 -1 $-1 $411 $412 $228 $319 reversed $245 $-1 #
edge $-1 -1 $-1 $322 -1.8501330518972332 $413 -1.6899143574475246 $228 $414 forward @7 unknown #
coedge $-1 -1 $-1 $229 $403 $411 $415 reversed $321 $-1 #
loop $-1 -1 $-1 $-1 $320 $416 #
vertex $-1 -1 $-1 $319 $417 #
straight-curve $-1 -1 $-1 -28.950405106800883 100.93004529946529 12.5 0 0 10 F -1.7462510000000002 F 0.79375100000000032 #
coedge $-1 -1 $-1 $231 $408 $418 $419 forward $99 $-1 #
coedge $-1 -1 $-1 $412 $420 $231 $326 reversed $245 $-1 #
edge $-1 -1 $-1 $421 -1.4516782961422714 $330 -1.2914596016925601 $231 $414 forward @7 unknown #
coedge $-1 -1 $-1 $422 $232 $420 $423 reversed $329 $-1 #
coedge $-1 -1 $-1 $232 $422 $234 $333 forward $329 $-1 #
loop $-1 -1 $-1 $-1 $327 $424 #
vertex $-1 -1 $-1 $423 $425 #
straight-curve $-1 -1 $-1 28.950405106800872 100.93004529946532 12.5 -0 -0 -10 F -0.79375100000000032 F 1.7462510000000002 #
coedge $-1 -1 $-1 $240 $234 $426 $427 forward $123 $-1 #
edge $-1 -1 $-1 $428 -0.64572980084628295 $235 0.64572980084627785 $328 $429 forward @7 unknown #
point $-1 -1 $-1 28.950405106800872 100.93004529946532 10.594999999999999 #
point $-1 -1 $-1 -28.950405106800883 100.93004529946529 10.594999999999999 #
coedge $-1 -1 $-1 $430 $238 $240 $339 forward $254 $-1 #
coedge $-1 -1 $-1 $238 $430 $243 $342 reversed $254 $-1 #
straight-curve $-1 -1 $-1 28.074999999999992 29.999999999999993 10.594999999999999 0 0 10 F -1.5557510000000001 F 0.98425100000000043 #
edge $-1 -1 $-1 $241 -0.78539816339744828 $431 0.78539816339744828 $336 $432 forward @7 unknown #
point $-1 -1 $-1 28.074999999999992 29.999999999999993 10.594999999999999 #
coedge $-1 -1 $-1 $420 $243 $433 $434 reversed $245 $-1 #
edge $-1 -1 $-1 $246 -0.78539816339744828 $435 0.78539816339744828 $243 $436 forward @7 unknown #
coedge $-1 -1 $-1 $244 $411 $351 $437 reversed $245 $-1 #
point $-1 -1 $-1 28.074999999999992 29.999999999999993 4.879999999999999 #
edge $-1 -1 $-1 $346 -0.57150000000000001 $314 0 $256 $438 forward @7 tangent #
vertex $-1 -1 $-1 $437 $439 #
ellipse-curve $-1 -1 $-1 -28.074999999999992 33.17499999999999 4.8799999999999963 0 0 1 -2.2450640302672884 -2.2450640302672884 0 1 I I #
ellipse-curve $-1 -1 $-1 -28.074999999999992 33.17499999999999 10.594999999999999 0 0 1 -2.2450640302672884 -2.2450640302672884 0 1 I I #
face $-1 -1 $-1 $424 $440 $2 $-1 $441 reversed single #
plane-surface $-1 -1 $-1 -5.2244664154767869e-015 63.633638047183425 4.8799999999999963 0 0 1 10 0 0 forward_v I I I I #
coedge $-1 -1 $-1 $313 $256 $343 $437 forward $179 $-1 #
loop $-1 -1 $-1 $442 $443 $74 #
coedge $-1 -1 $-1 $353 $353 $444 $445 forward $259 $-1 #
coedge $-1 -1 $-1 $354 $354 $260 $355 reversed $307 $-1 #
edge $-1 -1 $-1 $446 -3.1415926535897931 $446 3.1415926535897931 $260 $447 forward @7 unknown #
vertex $-1 -1 $-1 $262 $448 #
ellipse-curve $-1 -1 $-1 5.5511151231257827e-016 -144.33756729740645 0 0 0 1 -4.25 0 0 1 I I #
face $-1 -1 $-1 $44 $449 $2 $-1 $450 reversed single #
point $-1 -1 $-1 12.499999999999847 105 0 #
loop $-1 -1 $-1 $451 $309 $44 #
coedge $-1 -1 $-1 $361 $361 $308 $400 forward $267 $-1 #
coedge $-1 -1 $-1 $362 $362 $268 $363 reversed $305 $-1 #
edge $-1 -1 $-1 $452 -3.1415926535897931 $452 3.1415926535897931 $268 $453 forward @7 unknown #
loop $-1 -1 $-1 $454 $269 $304 #
vertex $-1 -1 $-1 $270 $455 #
ellipse-curve $-1 -1 $-1 197.77212633625908 -114.18379037844389 12.5 -0 -0 -1 -1.5874999999999999 0 0 1 I I #
loop $-1 -1 $-1 $-1 $456 $368 #
face $-1 -1 $-1 $275 $271 $2 $-1 $457 reversed single #
point $-1 -1 $-1 -196.18462633625907 -114.18379037844389 12.5 #
coedge $-1 -1 $-1 $370 $370 $458 $459 reversed $274 $-1 #
cone-surface $-1 -1 $-1 -3.5442222658252432e-014 228.36758075688792 0 0 0 1 -1.5874999999999999 0 0 1 I I 0 1 1.5874999999999999 forward I I I I #
coedge $-1 -1 $-1 $460 $277 $280 $377 reversed $374 $-1 #
coedge $-1 -1 $-1 $277 $460 $288 $386 forward $374 $-1 #
loop $-1 -1 $-1 $-1 $460 $461 #
ellipse-curve $-1 -1 $-1 0 1445.2157093379815 12.5 0 0 1 201.56711123551912 1589.322308673213 0 1 I I #
coedge $-1 -1 $-1 $280 $279 $462 $463 reversed $281 $-1 #
edge $-1 -1 $-1 $464 0 $282 1.25 $280 $465 forward @7 tangent #
face $-1 -1 $-1 $286 $281 $2 $-1 $466 forward single #
point $-1 -1 $-1 -201.56711123551912 -144.10659933523132 12.5 #
coedge $-1 -1 $-1 $297 $462 $284 $381 forward $394 $-1 #
edge $-1 -1 $-1 $382 2.8892880075502569 $301 3.1415926535897931 $284 $467 forward @7 unknown #
vertex $-1 -1 $-1 $463 $468 #
straight-curve $-1 -1 $-1 -225.5835314950553 -102.50893922978784 0 0 0 10 I I #
cone-surface $-1 -1 $-1 1251.5935182350399 -722.60785466899029 0 0 0 1 1275.6099384945762 -969.22339323400934 0 1 I I 0 1 1602.0532766353881 forward I I I I #
coedge $-1 -1 $-1 $289 $288 $469 $470 reversed $290 $-1 #
edge $-1 -1 $-1 $471 0 $291 1.25 $373 $472 forward @7 tangent #
face $-1 -1 $-1 $461 $290 $2 $-1 $473 forward single #
point $-1 -1 $-1 201.56711123551912 -144.10659933523132 12.5 #
coedge $-1 -1 $-1 $469 $297 $293 $390 forward $394 $-1 #
edge $-1 -1 $-1 $299 2.8892880075502561 $391 3.1415926535897931 $293 $474 forward @7 unknown #
vertex $-1 -1 $-1 $390 $475 #
straight-curve $-1 -1 $-1 225.58353149505558 -102.50893922978767 0 0 0 10 I I #
cone-surface $-1 -1 $-1 -1251.5935182350395 -722.60785466899029 0 0 0 1 -1477.177049730095 -620.09891543920253 0 1 I I 0 1 1602.0532766353879 forward I I I I #
loop $-1 -1 $-1 $-1 $297 $74 #
ellipse-curve $-1 -1 $-1 -3.5442222658252432e-014 228.36758075688792 0 0 0 -1 -24.016420259536297 -18.247957808131147 -0 1 F 1.2995021972361331 F 3.1415926535897931 #
point $-1 -1 $-1 24.016420259536556 246.61553856501928 0 #
point $-1 -1 $-1 -24.01642025953651 246.61553856501914 0 #
cone-surface $-1 -1 $-1 197.77212633625908 -114.18379037844389 0 0 0 1 -1.5874999999999999 0 0 1 I I 0 1 1.5874999999999999 forward I I I I #
loop $-1 -1 $-1 $-1 $444 $219 #
edge $-1 -1 $-1 $476 -3.1415926535897931 $476 3.1415926535897931 $361 $477 forward @7 unknown #
vertex $-1 -1 $-1 $310 $478 #
ellipse-curve $-1 -1 $-1 5.5511151231257827e-016 -144.33756729740645 12.5 -0 -0 -1 -4.25 0 0 1 I I #
coedge $-1 -1 $-1 $320 $311 $313 $405 forward $321 $-1 #
ellipse-curve $-1 -1 $-1 -28.075000000000003 97.8781129773148 10.594999999999999 0 0 1 -2.5357480369796992 1.9106561419977175 0 1 I I #
edge $-1 -1 $-1 $315 0.19050000000000011 $479 0.76200000000000012 $313 $480 forward @7 tangent #
point $-1 -1 $-1 -31.249999999999996 33.17499999999999 10.594999999999999 #
point $-1 -1 $-1 -31.250000000000007 97.8781129773148 10.594999999999999 #
coedge $-1 -1 $-1 $324 $317 $481 $482 reversed $99 $-1 #
coedge $-1 -1 $-1 $483 $484 $317 $410 reversed $449 $-1 #
edge $-1 -1 $-1 $413 -0.76200000000000012 $485 0 $317 $486 forward @7 unknown #
coedge $-1 -1 $-1 $343 $318 $320 $415 forward $245 $-1 #
coedge $-1 -1 $-1 $318 $325 $483 $487 forward $245 $-1 #
vertex $-1 -1 $-1 $487 $488 #
ellipse-curve $-1 -1 $-1 0 0 4.879999999999999 -0 -0 -1 105 0 0 1 I I #
edge $-1 -1 $-1 $322 -0.64572980084628007 $479 0.64572980084628051 $411 $489 forward @7 unknown #
face $-1 -1 $-1 $358 $321 $2 $-1 $490 forward single #
point $-1 -1 $-1 -28.950405106800883 100.93004529946529 4.879999999999999 #
coedge $-1 -1 $-1 $484 $483 $324 $419 reversed $449 $-1 #
edge $-1 -1 $-1 $491 0 $421 0.76200000000000012 $324 $492 forward @7 unknown #
coedge $-1 -1 $-1 $325 $341 $327 $423 forward $245 $-1 #
vertex $-1 -1 $-1 $326 $493 #
coedge $-1 -1 $-1 $328 $327 $494 $495 forward $329 $-1 #
edge $-1 -1 $-1 $496 -0.64572980084628295 $330 0.64572980084627762 $420 $497 forward @7 unknown #
face $-1 -1 $-1 $416 $329 $2 $-1 $498 forward single #
point $-1 -1 $-1 28.950405106800869 100.93004529946529 4.879999999999999 #
coedge $-1 -1 $-1 $494 $499 $332 $427 reversed $440 $-1 #
edge $-1 -1 $-1 $428 -4.7757165510212776 $431 1.6945947467102034 $332 $500 forward @7 unknown #
vertex $-1 -1 $-1 $427 $501 #
ellipse-curve $-1 -1 $-1 28.074999999999989 97.8781129773148 10.594999999999999 0 0 1 2.5357480369796948 1.9106561419977239 0 1 I I #
coedge $-1 -1 $-1 $337 $336 $499 $502 forward $254 $-1 #
vertex $-1 -1 $-1 $339 $503 #
ellipse-curve $-1 -1 $-1 28.074999999999992 33.17499999999999 10.594999999999999 0 0 1 2.2450640302672884 -2.2450640302672884 0 1 I I #
coedge $-1 -1 $-1 $499 $494 $341 $434 forward $440 $-1 #
edge $-1 -1 $-1 $496 -6.7878112977314808 $435 -0.31749999999999989 $433 $504 forward @7 unknown #
vertex $-1 -1 $-1 $502 $505 #
ellipse-curve $-1 -1 $-1 28.074999999999992 33.17499999999999 4.8799999999999963 0 0 1 2.2450640302672884 -2.2450640302672884 0 1 I I #
edge $-1 -1 $-1 $346 -6.7066894934204058 $479 -0.23637819568892482 $351 $506 forward @7 unknown #
straight-curve $-1 -1 $-1 -31.249999999999993 33.17499999999999 10.594999999999999 0 0 10 F -1.5557510000000001 F 0.98425100000000043 #
point $-1 -1 $-1 -31.249999999999993 33.17499999999999 4.879999999999999 #
loop $-1 -1 $-1 $-1 $499 $349 #
plane-surface $-1 -1 $-1 31.250000000000004 100.24189493420405 10.594999999999999 1 -1.8966852058847927e-016 0 -1.8966852058847928e-015 -10 -0 forward_v I I I I #
loop $-1 -1 $-1 $507 $508 $74 #
coedge $-1 -1 $-1 $443 $443 $509 $510 forward $352 $-1 #
coedge $-1 -1 $-1 $444 $444 $353 $445 reversed $399 $-1 #
edge $-1 -1 $-1 $511 -3.1415926535897931 $511 3.1415926535897931 $353 $512 forward @7 unknown #
vertex $-1 -1 $-1 $355 $513 #
ellipse-curve $-1 -1 $-1 124.99999999999999 72.168783648703283 0 0 0 1 -4.2499999999999982 0 0 1 I I #
point $-1 -1 $-1 4.2500000000000009 -144.33756729740645 0 #
loop $-1 -1 $-1 $263 $409 $358 #
cone-surface $-1 -1 $-1 -1.5258238722423095e-013 105 12.5 0 0 -1 -12.5 0 0 1 I I 0 1 12.5 forward I I I I #
loop $-1 -1 $-1 $-1 $514 $44 #
vertex $-1 -1 $-1 $363 $515 #
ellipse-curve $-1 -1 $-1 -125.00000000000001 72.168783648703197 12.5 -0 -0 -1 -4.2499999999999982 0 0 1 I I #
loop $-1 -1 $-1 $-1 $509 $304 #
point $-1 -1 $-1 199.35962633625908 -114.18379037844389 12.5 #
coedge $-1 -1 $-1 $456 $456 $508 $516 reversed $367 $-1 #
cone-surface $-1 -1 $-1 -197.77212633625908 -114.18379037844389 0 0 0 1 -1.5874999999999999 0 0 1 I I 0 1 1.5874999999999999 forward I I I I #
coedge $-1 -1 $-1 $458 $458 $370 $459 forward $507 $-1 #
edge $-1 -1 $-1 $517 -3.1415926535897931 $517 3.1415926535897931 $458 $518 forward @7 unknown #
coedge $-1 -1 $-1 $373 $372 $519 $520 reversed $374 $-1 #
face $-1 -1 $-1 $378 $374 $2 $-1 $521 forward single #
coedge $-1 -1 $-1 $380 $519 $376 $463 forward $394 $-1 #
edge $-1 -1 $-1 $464 1.2995021972361349 $382 3.1415926535897931 $376 $522 forward @7 unknown #
vertex $-1 -1 $-1 $520 $523 #
straight-curve $-1 -1 $-1 -201.56711123551912 -144.10659933523135 0 0 0 10 I I #
cone-surface $-1 -1 $-1 -197.77212633625908 -114.18379037844389 0 0 0 1 27.81140515879633 -11.674851148656094 0 1 I I 0 1 30.162499999999994 forward I I I I #
ellipse-curve $-1 -1 $-1 1251.5935182350399 -722.60785466899029 0 0 0 -1 1275.6099384945762 -969.22339323400934 0 1 F 2.8892880075502569 F 3.1415926535897931 #
point $-1 -1 $-1 -225.5835314950553 -102.50893922978784 0 #
coedge $-1 -1 $-1 $519 $389 $385 $470 forward $394 $-1 #
edge $-1 -1 $-1 $391 1.2995021972361336 $471 3.1415926535897931 $385 $524 forward @7 unknown #
vertex $-1 -1 $-1 $470 $525 #
straight-curve $-1 -1 $-1 201.56711123551912 -144.10659933523135 0 0 0 10 I I #
cone-surface $-1 -1 $-1 197.77212633625908 -114.18379037844389 0 0 0 1 -3.7949848992600121 29.922808956787268 0 1 I I 0 1 30.162499999999994 forward I I I I #
ellipse-curve $-1 -1 $-1 -1251.5935182350395 -722.60785466899029 0 0 0 -1 -1477.177049730095 -620.09891543920253 -0 1 F 2.8892880075502561 F 3.1415926535897931 #
point $-1 -1 $-1 225.58353149505558 -102.50893922978767 0 #
vertex $-1 -1 $-1 $400 $526 #
ellipse-curve $-1 -1 $-1 124.99999999999999 72.168783648703283 12.5 -0 -0 -1 -4.2499999999999982 0 0 1 I I #
point $-1 -1 $-1 4.2500000000000009 -144.33756729740645 12.5 #
vertex $-1 -1 $-1 $405 $527 #
straight-curve $-1 -1 $-1 -31.250000000000004 97.8781129773148 12.5 0 0 -10 F -0.79375100000000032 F 1.7462510000000002 #
coedge $-1 -1 $-1 $514 $514 $408 $482 forward $451 $-1 #
edge $-1 -1 $-1 $491 -4.5932709497320658 $485 1.4516782961422694 $481 $528 forward @7 unknown #
coedge $-1 -1 $-1 $418 $409 $412 $487 reversed $449 $-1 #
coedge $-1 -1 $-1 $409 $418 $514 $529 reversed $449 $-1 #
vertex $-1 -1 $-1 $410 $530 #
straight-curve $-1 -1 $-1 -12.477836076042726 104.25595238095238 12.5 0 0 10 I I #
edge $-1 -1 $-1 $421 -3.0820336382634816 $413 -0.059559015326314586 $412 $531 forward @7 unknown #
point $-1 -1 $-1 -12.477836076042813 104.25595238095235 4.879999999999999 #
ellipse-curve $-1 -1 $-1 -28.075000000000003 97.8781129773148 4.8799999999999963 0 0 1 -2.5357480369796992 1.9106561419977175 0 1 I I #
cone-surface $-1 -1 $-1 -28.075000000000003 97.8781129773148 12.5 0 0 -1 -2.5357480369796992 1.9106561419977175 0 1 I I 0 -1 3.1749999999999998 forward I I I I #
vertex $-1 -1 $-1 $482 $532 #
straight-curve $-1 -1 $-1 12.477836076042424 104.25595238095241 12.5 0 0 -10 I I #
point $-1 -1 $-1 12.477836076042511 104.25595238095239 4.879999999999999 #
coedge $-1 -1 $-1 $433 $426 $422 $495 reversed $440 $-1 #
edge $-1 -1 $-1 $496 -0.76200000000000012 $428 -0.19050000000000011 $494 $533 forward @7 tangent #
vertex $-1 -1 $-1 $434 $534 #
ellipse-curve $-1 -1 $-1 28.074999999999989 97.8781129773148 4.8799999999999963 0 0 1 2.5357480369796948 1.9106561419977239 0 1 I I #
cone-surface $-1 -1 $-1 28.074999999999989 97.8781129773148 12.5 0 0 -1 2.5357480369796948 1.9106561419977239 0 1 I I 0 -1 3.1749999999999998 forward I I I I #
coedge $-1 -1 $-1 $426 $433 $430 $502 reversed $440 $-1 #
straight-curve $-1 -1 $-1 31.249999999999996 50.120947467102027 10.594999999999999 -1.8966852058847928e-015 -10 0 I I #
point $-1 -1 $-1 31.250000000000004 97.8781129773148 10.594999999999999 #
edge $-1 -1 $-1 $431 0 $435 0.57150000000000001 $499 $535 forward @7 tangent #
point $-1 -1 $-1 31.249999999999993 33.17499999999999 10.594999999999999 #
straight-curve $-1 -1 $-1 31.249999999999993 29.999999999999993 4.879999999999999 -1.8966852058847928e-015 -10 -0 I I #
point $-1 -1 $-1 31.249999999999993 33.17499999999999 4.879999999999999 #
straight-curve $-1 -1 $-1 -31.250000000000004 100.24189493420405 4.879999999999999 -1.8966852058847928e-015 10 0 I I #
loop $-1 -1 $-1 $394 $458 $74 #
coedge $-1 -1 $-1 $508 $508 $456 $516 forward $442 $-1 #
coedge $-1 -1 $-1 $509 $509 $443 $510 reversed $454 $-1 #
edge $-1 -1 $-1 $536 -3.1415926535897931 $536 3.1415926535897931 $443 $537 forward @7 unknown #
vertex $-1 -1 $-1 $445 $538 #
ellipse-curve $-1 -1 $-1 -125.00000000000001 72.168783648703197 0 0 0 1 -4.2499999999999982 0 0 1 I I #
point $-1 -1 $-1 129.24999999999997 72.168783648703283 0 #
coedge $-1 -1 $-1 $481 $481 $484 $529 forward $451 $-1 #
point $-1 -1 $-1 -120.75000000000003 72.168783648703197 12.5 #
edge $-1 -1 $-1 $539 -3.1415926535897931 $539 3.1415926535897931 $508 $540 forward @7 unknown #
vertex $-1 -1 $-1 $459 $541 #
ellipse-curve $-1 -1 $-1 -3.5442222658252432e-014 228.36758075688792 0 0 0 1 -1.5874999999999999 0 0 1 I I #
coedge $-1 -1 $-1 $462 $469 $460 $520 forward $394 $-1 #
edge $-1 -1 $-1 $471 2.8892880075502569 $464 3.1415926535897931 $460 $542 forward @7 unknown #
cone-surface $-1 -1 $-1 0 1445.2157093379815 0 0 0 1 201.56711123551912 1589.322308673213 0 1 I I 0 1 1602.0532766353881 forward I I I I #
ellipse-curve $-1 -1 $-1 -197.77212633625908 -114.18379037844389 0 0 0 -1 27.81140515879633 -11.674851148656094 0 1 F 1.2995021972361347 F 3.1415926535897931 #
point $-1 -1 $-1 -201.56711123551912 -144.10659933523135 0 #
ellipse-curve $-1 -1 $-1 197.77212633625908 -114.18379037844389 0 0 0 -1 -3.7949848992600121 29.922808956787268 0 1 F 1.2995021972361336 F 3.1415926535897936 #
point $-1 -1 $-1 201.56711123551912 -144.10659933523135 0 #
point $-1 -1 $-1 129.24999999999997 72.168783648703283 12.5 #
point $-1 -1 $-1 -31.250000000000004 97.8781129773148 4.879999999999999 #
ellipse-curve $-1 -1 $-1 0 0 12.5 -0 -0 -1 -105 0 0 1 I I #
edge $-1 -1 $-1 $485 -6.3427443225058999 $491 -3.0820336382634825 $514 $543 forward @7 unknown #
point $-1 -1 $-1 -12.477836076042726 104.25595238095238 12.5 #
ellipse-curve $-1 -1 $-1 -1.5258238722423095e-013 105 4.8799999999999963 -0 -0 -1 -12.5 0 0 1 I I #
point $-1 -1 $-1 12.477836076042424 104.25595238095241 12.5 #
straight-curve $-1 -1 $-1 31.250000000000004 97.8781129773148 12.5 0 0 10 F -1.7462510000000002 F 0.79375100000000032 #
point $-1 -1 $-1 31.250000000000004 97.8781129773148 4.879999999999999 #
straight-curve $-1 -1 $-1 31.249999999999993 33.17499999999999 10.594999999999999 0 0 -10 F -0.98425100000000043 F 1.5557510000000001 #
vertex $-1 -1 $-1 $510 $544 #
ellipse-curve $-1 -1 $-1 197.77212633625908 -114.18379037844389 0 0 0 1 -1.5874999999999999 0 0 1 I I #
point $-1 -1 $-1 -120.75000000000003 72.168783648703197 0 #
vertex $-1 -1 $-1 $516 $545 #
ellipse-curve $-1 -1 $-1 -197.77212633625908 -114.18379037844389 0 0 0 1 -1.5874999999999999 0 0 1 I I #
point $-1 -1 $-1 1.5874999999999644 228.36758075688792 0 #
ellipse-curve $-1 -1 $-1 0 1445.2157093379815 0 0 0 -1 201.56711123551912 1589.322308673213 0 1 F 2.8892880075502569 F 3.1415926535897931 #
ellipse-curve $-1 -1 $-1 -1.5258238722423095e-013 105 12.5 -0 -0 -1 -12.5 0 0 1 I I #
point $-1 -1 $-1 199.35962633625908 -114.18379037844389 0 #
point $-1 -1 $-1 -196.18462633625907 -114.18379037844389 0 #
End-of-ACIS-data 