700 0 1 0           
33 Autodesk Inventor 17.0.13800.0000 19 ASM 218.0.0.5119 NT 24 Tue Dec 10 11:02:30 2013 
1 9.9999999999999995e-007 1e-010 
body $-1 -1 $-1 $1 $-1 $-1 #
lump $-1 -1 $-1 $-1 $2 $0 #
shell $-1 -1 $-1 $-1 $-1 $3 $-1 $1 #
face $-1 -1 $-1 $4 $5 $2 $-1 $6 reversed single #
face $-1 -1 $-1 $7 $8 $2 $-1 $9 reversed single #
loop $-1 -1 $-1 $10 $11 $3 #
cone-surface $-1 -1 $-1 182.49999999999997 32.500000000000028 44.513002468278167 0 0 1 0.81050000000000011 0 0 1 I I 0.85716730070211233 0.51503807491005416 0.81050000000000011 reversed I I I I #
face $-1 -1 $-1 $12 $13 $2 $-1 $14 reversed single #
loop $-1 -1 $-1 $15 $16 $4 #
cone-surface $-1 -1 $-1 182.49999999999997 32.500000000000028 47.5 0 0 1 1.6210000000000002 0 0 1 I I -0 1 1.6210000000000002 reversed I I I I #
loop $-1 -1 $-1 $-1 $17 $3 #
coedge $-1 -1 $-1 $11 $11 $18 $19 forward $5 $-1 #
face $-1 -1 $-1 $20 $21 $2 $-1 $22 reversed single #
loop $-1 -1 $-1 $23 $24 $7 #
cone-surface $-1 -1 $-1 32.499999999999964 82.500000000000014 44.513002468278167 0 0 1 0.81050000000000011 0 0 1 I I 0.85716730070211233 0.51503807491005416 0.81050000000000011 reversed I I I I #
loop $-1 -1 $-1 $-1 $18 $4 #
coedge $-1 -1 $-1 $16 $16 $25 $26 reversed $8 $-1 #
coedge $-1 -1 $-1 $17 $17 $-1 $27 reversed $10 $-1 #
coedge $-1 -1 $-1 $18 $18 $11 $19 reversed $15 $-1 #
edge $-1 -1 $-1 $28 0 $28 6.2831853071795862 $18 $29 forward @7 unknown #
face $-1 -1 $-1 $30 $31 $2 $-1 $32 reversed single #
loop $-1 -1 $-1 $33 $34 $12 #
cone-surface $-1 -1 $-1 32.499999999999964 82.500000000000014 47.5 0 0 1 1.6210000000000002 0 0 1 I I -0 1 1.6210000000000002 reversed I I I I #
loop $-1 -1 $-1 $-1 $35 $7 #
coedge $-1 -1 $-1 $24 $24 $36 $37 forward $13 $-1 #
coedge $-1 -1 $-1 $25 $25 $16 $26 forward $38 $-1 #
edge $-1 -1 $-1 $39 0 $39 6.2831853071795862 $25 $40 forward @7 unknown #
edge $-1 -1 $-1 $41 1 $41 0 $17 $-1 forward @7 unknown #
vertex $-1 -1 $-1 $19 $42 #
ellipse-curve $-1 -1 $-1 182.49999999999997 32.500000000000028 45 0 0 1 1.6210000000000002 0 0 1 I I #
face $-1 -1 $-1 $43 $44 $2 $-1 $45 reversed single #
loop $-1 -1 $-1 $46 $47 $20 #
cone-surface $-1 -1 $-1 32.499999999999972 32.500000000000007 44.513002468278167 0 0 1 0.81050000000000011 0 0 1 I I 0.85716730070211233 0.51503807491005416 0.81050000000000011 reversed I I I I #
loop $-1 -1 $-1 $-1 $36 $12 #
coedge $-1 -1 $-1 $34 $34 $48 $49 reversed $21 $-1 #
coedge $-1 -1 $-1 $35 $35 $-1 $50 reversed $23 $-1 #
coedge $-1 -1 $-1 $36 $36 $24 $37 reversed $33 $-1 #
edge $-1 -1 $-1 $51 0 $51 6.2831853071795862 $36 $52 forward @7 unknown #
loop $-1 -1 $-1 $53 $25 $54 #
vertex $-1 -1 $-1 $26 $55 #
ellipse-curve $-1 -1 $-1 182.49999999999997 32.500000000000028 50 -0 -0 -1 1.6210000000000002 0 0 1 I I #
vertex $-1 -1 $-1 $27 $56 #
point $-1 -1 $-1 184.12099999999995 32.500000000000028 45 #
face $-1 -1 $-1 $57 $58 $2 $-1 $59 reversed single #
loop $-1 -1 $-1 $60 $61 $30 #
cone-surface $-1 -1 $-1 32.499999999999972 32.500000000000007 47.5 0 0 1 1.6210000000000002 0 0 1 I I -0 1 1.6210000000000002 reversed I I I I #
loop $-1 -1 $-1 $-1 $62 $20 #
coedge $-1 -1 $-1 $47 $47 $63 $64 forward $31 $-1 #
coedge $-1 -1 $-1 $48 $48 $34 $49 forward $53 $-1 #
edge $-1 -1 $-1 $65 0 $65 6.2831853071795862 $48 $66 forward @7 unknown #
edge $-1 -1 $-1 $67 1 $67 0 $35 $-1 forward @7 unknown #
vertex $-1 -1 $-1 $37 $68 #
ellipse-curve $-1 -1 $-1 32.499999999999964 82.500000000000014 45 0 0 1 1.6210000000000002 0 0 1 I I #
loop $-1 -1 $-1 $69 $48 $54 #
face $-1 -1 $-1 $70 $38 $2 $-1 $71 forward single #
point $-1 -1 $-1 184.12099999999995 32.500000000000028 50 #
point $-1 -1 $-1 182.49999999999997 32.500000000000028 44.026004936556326 #
face $-1 -1 $-1 $72 $73 $2 $-1 $74 reversed single #
loop $-1 -1 $-1 $75 $76 $43 #
cone-surface $-1 -1 $-1 182.49999999999997 82.500000000000028 44.513002468278167 0 0 1 0.81050000000000011 0 0 1 I I 0.85716730070211233 0.51503807491005416 0.81050000000000011 reversed I I I I #
loop $-1 -1 $-1 $-1 $63 $30 #
coedge $-1 -1 $-1 $61 $61 $77 $78 reversed $44 $-1 #
coedge $-1 -1 $-1 $62 $62 $-1 $79 reversed $46 $-1 #
coedge $-1 -1 $-1 $63 $63 $47 $64 reversed $60 $-1 #
edge $-1 -1 $-1 $80 0 $80 6.2831853071795862 $63 $81 forward @7 unknown #
vertex $-1 -1 $-1 $49 $82 #
ellipse-curve $-1 -1 $-1 32.499999999999964 82.500000000000014 50 -0 -0 -1 1.6210000000000002 0 0 1 I I #
vertex $-1 -1 $-1 $50 $83 #
point $-1 -1 $-1 34.120999999999967 82.500000000000014 45 #
loop $-1 -1 $-1 $84 $77 $54 #
face $-1 -1 $-1 $-1 $85 $2 $-1 $86 reversed single #
plane-surface $-1 -1 $-1 107.5 57.500000000000007 50 0 0 1 10 0 0 forward_v I I I I #
face $-1 -1 $-1 $87 $88 $2 $-1 $89 forward single #
loop $-1 -1 $-1 $90 $91 $57 #
cone-surface $-1 -1 $-1 182.49999999999997 82.500000000000028 47.5 0 0 1 1.6210000000000002 0 0 1 I I -0 1 1.6210000000000002 reversed I I I I #
loop $-1 -1 $-1 $-1 $92 $43 #
coedge $-1 -1 $-1 $76 $76 $93 $94 forward $58 $-1 #
coedge $-1 -1 $-1 $77 $77 $61 $78 forward $69 $-1 #
edge $-1 -1 $-1 $95 0 $95 6.2831853071795862 $77 $96 forward @7 unknown #
edge $-1 -1 $-1 $97 1 $97 0 $62 $-1 forward @7 unknown #
vertex $-1 -1 $-1 $64 $98 #
ellipse-curve $-1 -1 $-1 32.499999999999972 32.500000000000007 45 0 0 1 1.6210000000000002 0 0 1 I I #
point $-1 -1 $-1 34.120999999999967 82.500000000000014 50 #
point $-1 -1 $-1 32.499999999999964 82.500000000000014 44.026004936556326 #
loop $-1 -1 $-1 $99 $100 $54 #
loop $-1 -1 $-1 $-1 $101 $70 #
plane-surface $-1 -1 $-1 107.5 57.500000000000007 0 0 0 1 10 0 0 forward_v I I I I #
face $-1 -1 $-1 $102 $103 $2 $-1 $104 forward single #
loop $-1 -1 $-1 $-1 $105 $72 #
plane-surface $-1 -1 $-1 -3.5208595475486406e-014 115 0 -1 -3.0616169978683831e-016 0 3.061616997868383e-015 -10 0 forward_v I I I I #
loop $-1 -1 $-1 $-1 $93 $57 #
coedge $-1 -1 $-1 $91 $91 $100 $106 reversed $73 $-1 #
coedge $-1 -1 $-1 $92 $92 $-1 $107 reversed $75 $-1 #
coedge $-1 -1 $-1 $93 $93 $76 $94 reversed $90 $-1 #
edge $-1 -1 $-1 $108 0 $108 6.2831853071795862 $93 $109 forward @7 unknown #
vertex $-1 -1 $-1 $78 $110 #
ellipse-curve $-1 -1 $-1 32.499999999999972 32.500000000000007 50 -0 -0 -1 1.6210000000000002 0 0 1 I I #
vertex $-1 -1 $-1 $79 $111 #
point $-1 -1 $-1 34.120999999999967 32.500000000000007 45 #
loop $-1 -1 $-1 $-1 $112 $54 #
coedge $-1 -1 $-1 $100 $100 $91 $106 forward $84 $-1 #
coedge $-1 -1 $-1 $113 $114 $115 $116 reversed $85 $-1 #
face $-1 -1 $-1 $117 $118 $2 $-1 $119 forward single #
loop $-1 -1 $-1 $-1 $120 $87 #
plane-surface $-1 -1 $-1 214.99999999999997 115.00000000000003 0 -1.6524249668839539e-016 1 0 -10 -1.6524249668839539e-015 0 forward_v I I I I #
coedge $-1 -1 $-1 $121 $122 $113 $123 forward $88 $-1 #
edge $-1 -1 $-1 $124 0 $124 6.2831853071795862 $100 $125 forward @7 unknown #
edge $-1 -1 $-1 $126 1 $126 0 $92 $-1 forward @7 unknown #
vertex $-1 -1 $-1 $94 $127 #
ellipse-curve $-1 -1 $-1 182.49999999999997 82.500000000000028 45 0 0 1 1.6210000000000002 0 0 1 I I #
point $-1 -1 $-1 34.120999999999967 32.500000000000007 50 #
point $-1 -1 $-1 32.499999999999972 32.500000000000007 44.026004936556326 #
coedge $-1 -1 $-1 $128 $129 $130 $131 forward $99 $-1 #
coedge $-1 -1 $-1 $132 $101 $105 $123 reversed $85 $-1 #
coedge $-1 -1 $-1 $101 $132 $133 $134 reversed $85 $-1 #
coedge $-1 -1 $-1 $135 $136 $101 $116 forward $137 $-1 #
edge $-1 -1 $-1 $138 0 $139 21.5 $115 $140 forward @7 unknown #
face $-1 -1 $-1 $54 $137 $2 $-1 $141 forward single #
loop $-1 -1 $-1 $-1 $133 $102 #
plane-surface $-1 -1 $-1 215 0 0 1 3.0893162424352171e-016 0 -3.0893162424352169e-015 10 0 forward_v I I I I #
coedge $-1 -1 $-1 $142 $143 $132 $144 forward $103 $-1 #
coedge $-1 -1 $-1 $145 $105 $136 $146 forward $88 $-1 #
coedge $-1 -1 $-1 $105 $145 $142 $147 reversed $88 $-1 #
edge $-1 -1 $-1 $148 0 $138 11.5 $105 $149 forward @7 unknown #
vertex $-1 -1 $-1 $106 $150 #
ellipse-curve $-1 -1 $-1 182.49999999999997 82.500000000000028 50 -0 -0 -1 1.6210000000000002 0 0 1 I I #
vertex $-1 -1 $-1 $107 $151 #
point $-1 -1 $-1 184.12099999999995 82.500000000000028 45 #
coedge $-1 -1 $-1 $152 $112 $153 $154 forward $99 $-1 #
coedge $-1 -1 $-1 $112 $152 $145 $155 forward $99 $-1 #
coedge $-1 -1 $-1 $136 $135 $112 $131 reversed $137 $-1 #
edge $-1 -1 $-1 $156 0 $157 21.5 $130 $158 forward @7 unknown #
coedge $-1 -1 $-1 $114 $113 $120 $144 reversed $85 $-1 #
coedge $-1 -1 $-1 $159 $160 $114 $134 forward $118 $-1 #
edge $-1 -1 $-1 $139 0 $161 11.500000000000004 $133 $162 forward @7 unknown #
coedge $-1 -1 $-1 $130 $115 $160 $163 forward $137 $-1 #
coedge $-1 -1 $-1 $115 $130 $121 $146 reversed $137 $-1 #
loop $-1 -1 $-1 $-1 $115 $117 #
vertex $-1 -1 $-1 $116 $164 #
vertex $-1 -1 $-1 $116 $165 #
straight-curve $-1 -1 $-1 0 0 0 10 0 0 F 0 F 21.5 #
plane-surface $-1 -1 $-1 0 0 0 0 -1 0 10 0 0 forward_v I I I I #
coedge $-1 -1 $-1 $166 $120 $122 $147 forward $103 $-1 #
coedge $-1 -1 $-1 $120 $166 $159 $167 reversed $103 $-1 #
edge $-1 -1 $-1 $161 0 $148 21.5 $120 $168 forward @7 unknown #
coedge $-1 -1 $-1 $122 $121 $129 $155 reversed $88 $-1 #
edge $-1 -1 $-1 $138 0 $156 5 $136 $169 forward @7 unknown #
edge $-1 -1 $-1 $148 0 $170 5 $142 $171 forward @7 unknown #
vertex $-1 -1 $-1 $144 $172 #
straight-curve $-1 -1 $-1 -3.5208595475486406e-014 115 0 3.061616997868383e-015 -10 0 F 0 F 11.5 #
point $-1 -1 $-1 184.12099999999995 82.500000000000028 50 #
point $-1 -1 $-1 182.49999999999997 82.500000000000028 44.026004936556326 #
coedge $-1 -1 $-1 $129 $128 $166 $173 forward $99 $-1 #
coedge $-1 -1 $-1 $160 $159 $128 $154 reversed $118 $-1 #
edge $-1 -1 $-1 $157 0 $174 11.500000000000004 $153 $175 forward @7 unknown #
edge $-1 -1 $-1 $170 0 $156 11.5 $145 $176 forward @7 unknown #
vertex $-1 -1 $-1 $146 $177 #
vertex $-1 -1 $-1 $163 $178 #
straight-curve $-1 -1 $-1 0 0 50 10 0 0 I I #
coedge $-1 -1 $-1 $153 $133 $143 $167 forward $118 $-1 #
coedge $-1 -1 $-1 $133 $153 $135 $163 reversed $118 $-1 #
vertex $-1 -1 $-1 $134 $179 #
straight-curve $-1 -1 $-1 215 0 0 -3.0893162424352169e-015 10 0 F 0 F 11.500000000000004 #
edge $-1 -1 $-1 $139 0 $157 5 $135 $180 forward @7 unknown #
point $-1 -1 $-1 0 0 0 #
point $-1 -1 $-1 215 0 0 #
coedge $-1 -1 $-1 $143 $142 $152 $173 reversed $103 $-1 #
edge $-1 -1 $-1 $161 0 $174 5 $159 $181 forward @7 unknown #
straight-curve $-1 -1 $-1 214.99999999999997 115.00000000000003 0 -10 -1.6524249668839539e-015 0 F 0 F 21.5 #
straight-curve $-1 -1 $-1 0 0 0 0 0 10 I I #
vertex $-1 -1 $-1 $147 $182 #
straight-curve $-1 -1 $-1 -3.5208595475486406e-014 115 0 0 0 10 I I #
point $-1 -1 $-1 -3.5208595475486406e-014 115 0 #
edge $-1 -1 $-1 $174 0 $170 21.5 $166 $183 forward @7 unknown #
vertex $-1 -1 $-1 $167 $184 #
straight-curve $-1 -1 $-1 215 0 50 -3.0893162424352169e-015 10 0 I I #
straight-curve $-1 -1 $-1 -3.5208595475486406e-014 115 50 3.061616997868383e-015 -10 0 I I #
point $-1 -1 $-1 0 0 50 #
point $-1 -1 $-1 215 0 50 #
point $-1 -1 $-1 214.99999999999997 115.00000000000003 0 #
straight-curve $-1 -1 $-1 215 0 0 0 0 10 I I #
straight-curve $-1 -1 $-1 214.99999999999997 115.00000000000003 0 0 0 10 I I #
point $-1 -1 $-1 -3.5208595475486406e-014 115 50 #
straight-curve $-1 -1 $-1 214.99999999999997 115.00000000000003 50 -10 -1.6524249668839539e-015 0 I I #
point $-1 -1 $-1 214.99999999999997 115.00000000000003 50 #
End-of-ACIS-data 