700 0 1 0           
33 Autodesk Inventor 17.0.13800.0000 19 ASM 218.0.0.5119 NT 24 Tue Dec 10 11:02:33 2013 
1 9.9999999999999995e-007 1e-010 
body $-1 -1 $-1 $1 $-1 $-1 #
lump $-1 -1 $-1 $-1 $2 $0 #
shell $-1 -1 $-1 $-1 $-1 $3 $-1 $1 #
face $-1 -1 $-1 $4 $5 $2 $-1 $6 reversed single #
face $-1 -1 $-1 $7 $8 $2 $-1 $9 reversed single #
loop $-1 -1 $-1 $10 $11 $3 #
cone-surface $-1 -1 $-1 -15.499999999999996 -15.500000000000005 28.746620934452814 0 0 1 0.61475000000000002 0 0 1 I I 0.85716730070211244 0.51503807491005416 0.61475000000000002 reversed I I I I #
face $-1 -1 $-1 $12 $13 $2 $-1 $14 reversed single #
loop $-1 -1 $-1 $15 $16 $4 #
cone-surface $-1 -1 $-1 -15.499999999999996 -15.500000000000005 34.116000000000007 0 0 1 1.2295 0 0 1 I I -0 1 1.2295 reversed I I I I #
loop $-1 -1 $-1 $-1 $17 $3 #
coedge $-1 -1 $-1 $11 $11 $18 $19 forward $5 $-1 #
face $-1 -1 $-1 $20 $21 $2 $-1 $22 reversed single #
loop $-1 -1 $-1 $23 $24 $7 #
cone-surface $-1 -1 $-1 15.499999999999996 15.500000000000004 28.746620934452814 0 0 1 0.61475000000000002 0 0 1 I I 0.85716730070211244 0.51503807491005416 0.61475000000000002 reversed I I I I #
loop $-1 -1 $-1 $-1 $18 $4 #
coedge $-1 -1 $-1 $16 $16 $25 $26 reversed $8 $-1 #
coedge $-1 -1 $-1 $17 $17 $-1 $27 reversed $10 $-1 #
coedge $-1 -1 $-1 $18 $18 $11 $19 reversed $15 $-1 #
edge $-1 -1 $-1 $28 0 $28 6.2831853071795862 $18 $29 forward @7 unknown #
face $-1 -1 $-1 $30 $31 $2 $-1 $32 reversed single #
loop $-1 -1 $-1 $33 $34 $12 #
cone-surface $-1 -1 $-1 15.499999999999996 15.500000000000004 34.116000000000007 0 0 1 1.2295 0 0 1 I I -0 1 1.2295 reversed I I I I #
loop $-1 -1 $-1 $-1 $35 $7 #
coedge $-1 -1 $-1 $24 $24 $36 $37 forward $13 $-1 #
coedge $-1 -1 $-1 $25 $25 $16 $26 forward $38 $-1 #
edge $-1 -1 $-1 $39 0 $39 6.2831853071795862 $25 $40 forward @7 unknown #
edge $-1 -1 $-1 $41 1 $41 0 $17 $-1 forward @7 unknown #
vertex $-1 -1 $-1 $19 $42 #
ellipse-curve $-1 -1 $-1 -15.499999999999996 -15.500000000000005 29.116000000000007 0 0 1 1.2295 0 0 1 I I #
face $-1 -1 $-1 $43 $44 $2 $-1 $45 reversed single #
loop $-1 -1 $-1 $46 $47 $20 #
cone-surface $-1 -1 $-1 15.500000000000005 -15.499999999999996 28.746620934452814 0 0 1 0.61475000000000002 0 0 1 I I 0.85716730070211244 0.51503807491005416 0.61475000000000002 reversed I I I I #
loop $-1 -1 $-1 $-1 $36 $12 #
coedge $-1 -1 $-1 $34 $34 $48 $49 reversed $21 $-1 #
coedge $-1 -1 $-1 $35 $35 $-1 $50 reversed $23 $-1 #
coedge $-1 -1 $-1 $36 $36 $24 $37 reversed $33 $-1 #
edge $-1 -1 $-1 $51 0 $51 6.2831853071795862 $36 $52 forward @7 unknown #
loop $-1 -1 $-1 $53 $25 $54 #
vertex $-1 -1 $-1 $26 $55 #
ellipse-curve $-1 -1 $-1 -15.499999999999996 -15.500000000000005 39.116000000000007 -0 -0 -1 1.2295 0 0 1 I I #
vertex $-1 -1 $-1 $27 $56 #
point $-1 -1 $-1 -14.270499999999995 -15.500000000000005 29.116000000000007 #
face $-1 -1 $-1 $57 $58 $2 $-1 $59 reversed single #
loop $-1 -1 $-1 $60 $61 $30 #
cone-surface $-1 -1 $-1 15.500000000000005 -15.499999999999996 34.116000000000007 0 0 1 1.2295 0 0 1 I I -0 1 1.2295 reversed I I I I #
loop $-1 -1 $-1 $-1 $62 $20 #
coedge $-1 -1 $-1 $47 $47 $63 $64 forward $31 $-1 #
coedge $-1 -1 $-1 $48 $48 $34 $49 forward $53 $-1 #
edge $-1 -1 $-1 $65 0 $65 6.2831853071795862 $48 $66 forward @7 unknown #
edge $-1 -1 $-1 $67 1 $67 0 $35 $-1 forward @7 unknown #
vertex $-1 -1 $-1 $37 $68 #
ellipse-curve $-1 -1 $-1 15.499999999999996 15.500000000000004 29.116000000000007 0 0 1 1.2295 0 0 1 I I #
loop $-1 -1 $-1 $69 $48 $54 #
face $-1 -1 $-1 $70 $38 $2 $-1 $71 forward single #
point $-1 -1 $-1 -14.270499999999995 -15.500000000000005 39.116000000000007 #
point $-1 -1 $-1 -15.499999999999996 -15.500000000000005 28.377241868905621 #
face $-1 -1 $-1 $72 $73 $2 $-1 $74 reversed single #
loop $-1 -1 $-1 $75 $76 $43 #
cone-surface $-1 -1 $-1 -15.500000000000005 15.499999999999996 28.746620934452814 0 0 1 0.61475000000000002 0 0 1 I I 0.85716730070211244 0.51503807491005416 0.61475000000000002 reversed I I I I #
loop $-1 -1 $-1 $-1 $63 $30 #
coedge $-1 -1 $-1 $61 $61 $77 $78 reversed $44 $-1 #
coedge $-1 -1 $-1 $62 $62 $-1 $79 reversed $46 $-1 #
coedge $-1 -1 $-1 $63 $63 $47 $64 reversed $60 $-1 #
edge $-1 -1 $-1 $80 0 $80 6.2831853071795862 $63 $81 forward @7 unknown #
vertex $-1 -1 $-1 $49 $82 #
ellipse-curve $-1 -1 $-1 15.499999999999996 15.500000000000004 39.116000000000007 -0 -0 -1 1.2295 0 0 1 I I #
vertex $-1 -1 $-1 $50 $83 #
point $-1 -1 $-1 16.729499999999998 15.500000000000004 29.116000000000007 #
loop $-1 -1 $-1 $84 $77 $54 #
face $-1 -1 $-1 $85 $86 $2 $-1 $87 forward single #
plane-surface $-1 -1 $-1 -9.8030151670280073e-016 -4.0301284575559584e-015 39.116000000000007 0 0 1 10 0 0 forward_v I I I I #
face $-1 -1 $-1 $88 $89 $2 $-1 $90 reversed single #
loop $-1 -1 $-1 $91 $92 $57 #
cone-surface $-1 -1 $-1 -15.500000000000005 15.499999999999996 34.116000000000007 0 0 1 1.2295 0 0 1 I I -0 1 1.2295 reversed I I I I #
loop $-1 -1 $-1 $-1 $93 $43 #
coedge $-1 -1 $-1 $76 $76 $94 $95 forward $58 $-1 #
coedge $-1 -1 $-1 $77 $77 $61 $78 forward $69 $-1 #
edge $-1 -1 $-1 $96 0 $96 6.2831853071795862 $77 $97 forward @7 unknown #
edge $-1 -1 $-1 $98 1 $98 0 $62 $-1 forward @7 unknown #
vertex $-1 -1 $-1 $64 $99 #
ellipse-curve $-1 -1 $-1 15.500000000000005 -15.499999999999996 29.116000000000007 0 0 1 1.2295 0 0 1 I I #
point $-1 -1 $-1 16.729499999999998 15.500000000000004 39.116000000000007 #
point $-1 -1 $-1 15.499999999999996 15.500000000000004 28.377241868905621 #
loop $-1 -1 $-1 $100 $101 $54 #
face $-1 -1 $-1 $102 $103 $2 $-1 $104 forward single #
loop $-1 -1 $-1 $-1 $105 $70 #
cone-surface $-1 -1 $-1 0 0 11 0 0 1 21.009999999999998 13.549166025995849 0 1 I I 0 1 25.000000000000004 forward I I I I #
face $-1 -1 $-1 $106 $107 $2 $-1 $108 forward single #
loop $-1 -1 $-1 $-1 $109 $72 #
plane-surface $-1 -1 $-1 1.5 2 63.116000000000014 0 -1 0 -10 -0 -0 forward_v I I I I #
loop $-1 -1 $-1 $-1 $94 $57 #
coedge $-1 -1 $-1 $92 $92 $101 $110 reversed $73 $-1 #
coedge $-1 -1 $-1 $93 $93 $-1 $111 reversed $75 $-1 #
coedge $-1 -1 $-1 $94 $94 $76 $95 reversed $91 $-1 #
edge $-1 -1 $-1 $112 0 $112 6.2831853071795862 $94 $113 forward @7 unknown #
vertex $-1 -1 $-1 $78 $114 #
ellipse-curve $-1 -1 $-1 15.500000000000005 -15.499999999999996 39.116000000000007 -0 -0 -1 1.2295 0 0 1 I I #
vertex $-1 -1 $-1 $79 $115 #
point $-1 -1 $-1 16.729500000000005 -15.499999999999996 29.116000000000007 #
loop $-1 -1 $-1 $116 $117 $54 #
coedge $-1 -1 $-1 $101 $101 $92 $110 forward $84 $-1 #
face $-1 -1 $-1 $118 $119 $2 $-1 $120 forward single #
loop $-1 -1 $-1 $-1 $121 $85 #
cone-surface $-1 -1 $-1 0 0 11 0 0 1 13.549166025995831 -21.010000000000009 0 1 I I 0 1 25 forward I I I I #
coedge $-1 -1 $-1 $122 $123 $124 $125 forward $86 $-1 #
face $-1 -1 $-1 $126 $127 $2 $-1 $128 forward single #
loop $-1 -1 $-1 $-1 $129 $88 #
plane-surface $-1 -1 $-1 1.0195405130957293e-016 2.1475563842134369 48.116000000000021 0 0 1 10 0 0 forward_v I I I I #
coedge $-1 -1 $-1 $130 $131 $132 $133 reversed $89 $-1 #
edge $-1 -1 $-1 $134 0 $134 6.2831853071795862 $101 $135 forward @7 unknown #
edge $-1 -1 $-1 $136 1 $136 0 $93 $-1 forward @7 unknown #
vertex $-1 -1 $-1 $95 $137 #
ellipse-curve $-1 -1 $-1 -15.500000000000005 15.499999999999996 29.116000000000007 0 0 1 1.2295 0 0 1 I I #
point $-1 -1 $-1 16.729500000000005 -15.499999999999996 39.116000000000007 #
point $-1 -1 $-1 15.500000000000005 -15.499999999999996 28.377241868905621 #
loop $-1 -1 $-1 $-1 $138 $54 #
coedge $-1 -1 $-1 $117 $117 $139 $140 forward $100 $-1 #
face $-1 -1 $-1 $141 $142 $2 $-1 $120 forward single #
loop $-1 -1 $-1 $-1 $143 $102 #
plane-surface $-1 -1 $-1 1.1870934026864664e-016 -1.0683840624178197e-015 30.116000000000007 0 0 1 10 0 0 forward_v I I I I #
coedge $-1 -1 $-1 $144 $145 $146 $147 forward $103 $-1 #
coedge $-1 -1 $-1 $148 $105 $149 $150 forward $86 $-1 #
coedge $-1 -1 $-1 $105 $151 $152 $153 reversed $86 $-1 #
coedge $-1 -1 $-1 $154 $155 $105 $125 reversed $156 $-1 #
edge $-1 -1 $-1 $157 -1.9116000000000002 $158 -1.7116 $105 $159 forward @7 unknown #
face $-1 -1 $-1 $160 $161 $2 $-1 $162 forward single #
loop $-1 -1 $-1 $-1 $132 $106 #
plane-surface $-1 -1 $-1 -1.1803206036766622e-016 4.6259292692714852e-017 63.116000000000014 0 0 1 10 0 0 forward_v I I I I #
coedge $-1 -1 $-1 $163 $163 $164 $165 reversed $107 $-1 #
coedge $-1 -1 $-1 $164 $109 $166 $167 reversed $89 $-1 #
coedge $-1 -1 $-1 $109 $164 $168 $169 reversed $89 $-1 #
coedge $-1 -1 $-1 $170 $170 $109 $133 forward $127 $-1 #
edge $-1 -1 $-1 $171 -0.074999999999999997 $172 0.22499999999999998 $132 $173 forward @7 unknown #
vertex $-1 -1 $-1 $110 $174 #
ellipse-curve $-1 -1 $-1 -15.500000000000005 15.499999999999996 39.116000000000007 -0 -0 -1 1.2295 0 0 1 I I #
vertex $-1 -1 $-1 $111 $175 #
point $-1 -1 $-1 -14.270500000000004 15.499999999999996 29.116000000000007 #
coedge $-1 -1 $-1 $176 $177 $178 $179 forward $116 $-1 #
coedge $-1 -1 $-1 $139 $139 $117 $140 reversed $180 $-1 #
edge $-1 -1 $-1 $181 -3.1415926535897931 $181 3.1415926535897931 $117 $182 forward @7 unknown #
face $-1 -1 $-1 $183 $184 $2 $-1 $120 forward single #
loop $-1 -1 $-1 $-1 $185 $118 #
coedge $-1 -1 $-1 $186 $187 $188 $189 forward $119 $-1 #
coedge $-1 -1 $-1 $190 $121 $191 $192 forward $103 $-1 #
coedge $-1 -1 $-1 $121 $193 $194 $195 reversed $103 $-1 #
coedge $-1 -1 $-1 $196 $197 $121 $147 reversed $198 $-1 #
edge $-1 -1 $-1 $199 -1.9116000000000002 $200 -1.7116 $121 $201 forward @7 unknown #
coedge $-1 -1 $-1 $202 $122 $203 $204 forward $86 $-1 #
coedge $-1 -1 $-1 $205 $206 $122 $150 reversed $207 $-1 #
edge $-1 -1 $-1 $158 -0.42450774896761112 $208 -0.0007376310189085455 $122 $209 forward @7 unknown #
coedge $-1 -1 $-1 $123 $210 $211 $212 reversed $86 $-1 #
coedge $-1 -1 $-1 $213 $214 $123 $153 forward $215 $-1 #
edge $-1 -1 $-1 $157 0.42450774896761112 $216 0.42524537998651951 $123 $217 forward @7 unknown #
coedge $-1 -1 $-1 $218 $124 $214 $219 reversed $156 $-1 #
coedge $-1 -1 $-1 $124 $220 $205 $221 reversed $156 $-1 #
loop $-1 -1 $-1 $-1 $124 $222 #
vertex $-1 -1 $-1 $153 $223 #
vertex $-1 -1 $-1 $150 $224 #
straight-curve $-1 -1 $-1 13.564659966250545 21 11.000000000000004 -0 -0 -10 I I #
face $-1 -1 $-1 $225 $226 $2 $-1 $227 forward single #
loop $-1 -1 $-1 $228 $166 $126 #
cone-surface $-1 -1 $-1 0 0 41.116000000000014 0 0 1 -2.5 0 0 1 I I 0 1 2.5 forward I I I I #
coedge $-1 -1 $-1 $129 $129 $229 $230 reversed $107 $-1 #
coedge $-1 -1 $-1 $131 $130 $129 $165 forward $89 $-1 #
edge $-1 -1 $-1 $231 -0.29999999999999999 $232 -0 $164 $233 forward @7 unknown #
coedge $-1 -1 $-1 $234 $229 $130 $167 forward $161 $-1 #
edge $-1 -1 $-1 $231 0.70000000000000018 $171 2.2000000000000002 $166 $235 forward @7 unknown #
coedge $-1 -1 $-1 $229 $234 $131 $169 forward $161 $-1 #
edge $-1 -1 $-1 $172 -2.2000000000000002 $232 -0.70000000000000018 $168 $236 forward @7 unknown #
coedge $-1 -1 $-1 $132 $132 $234 $237 forward $127 $-1 #
vertex $-1 -1 $-1 $133 $238 #
vertex $-1 -1 $-1 $237 $239 #
straight-curve $-1 -1 $-1 0.75 2 63.116000000000014 -10 0 0 I I #
point $-1 -1 $-1 -14.270500000000004 15.499999999999996 39.116000000000007 #
point $-1 -1 $-1 -15.500000000000005 15.499999999999996 28.377241868905621 #
coedge $-1 -1 $-1 $240 $138 $241 $242 forward $116 $-1 #
coedge $-1 -1 $-1 $138 $243 $244 $245 forward $116 $-1 #
coedge $-1 -1 $-1 $246 $247 $138 $179 reversed $248 $-1 #
edge $-1 -1 $-1 $249 -3.3941125496954276 $250 -2.2204460492503131e-016 $178 $251 forward @7 unknown #
loop $-1 -1 $-1 $-1 $139 $160 #
vertex $-1 -1 $-1 $140 $252 #
ellipse-curve $-1 -1 $-1 0 0 39.116000000000007 -0 -0 -1 -11 0 0 1 I I #
face $-1 -1 $-1 $253 $254 $2 $-1 $255 forward single #
loop $-1 -1 $-1 $-1 $256 $141 #
coedge $-1 -1 $-1 $194 $257 $196 $258 forward $142 $-1 #
coedge $-1 -1 $-1 $259 $143 $260 $261 forward $119 $-1 #
coedge $-1 -1 $-1 $143 $259 $262 $263 forward $119 $-1 #
coedge $-1 -1 $-1 $264 $265 $143 $189 reversed $266 $-1 #
edge $-1 -1 $-1 $267 -2.2049941340489077 $268 0.50793785920119583 $143 $269 forward @7 unknown #
coedge $-1 -1 $-1 $262 $144 $264 $270 forward $103 $-1 #
coedge $-1 -1 $-1 $271 $272 $144 $192 reversed $273 $-1 #
edge $-1 -1 $-1 $200 -0.42450774896761223 $274 -0.00073763101890790637 $144 $275 forward @7 unknown #
coedge $-1 -1 $-1 $145 $276 $277 $278 forward $103 $-1 #
coedge $-1 -1 $-1 $279 $185 $145 $195 forward $142 $-1 #
edge $-1 -1 $-1 $199 0.42450774896761223 $280 0.42524537998652057 $145 $281 forward @7 unknown #
coedge $-1 -1 $-1 $203 $146 $185 $258 reversed $198 $-1 #
coedge $-1 -1 $-1 $146 $282 $271 $283 reversed $198 $-1 #
loop $-1 -1 $-1 $-1 $203 $284 #
vertex $-1 -1 $-1 $195 $285 #
vertex $-1 -1 $-1 $192 $286 #
straight-curve $-1 -1 $-1 21 -13.564659966250536 11.000000000000004 -0 -0 -10 I I #
coedge $-1 -1 $-1 $287 $148 $257 $288 reversed $86 $-1 #
coedge $-1 -1 $-1 $289 $196 $148 $204 reversed $198 $-1 #
edge $-1 -1 $-1 $208 1.7116 $290 1.9116000000000002 $148 $291 forward @7 unknown #
coedge $-1 -1 $-1 $292 $149 $155 $221 forward $207 $-1 #
coedge $-1 -1 $-1 $149 $292 $289 $293 forward $207 $-1 #
loop $-1 -1 $-1 $-1 $149 $294 #
vertex $-1 -1 $-1 $150 $295 #
ellipse-curve $-1 -1 $-1 0 0 28.116000000000007 -0 -0 -1 21.009999999999998 13.549166025995849 0 1 I I #
coedge $-1 -1 $-1 $151 $296 $297 $298 reversed $86 $-1 #
coedge $-1 -1 $-1 $299 $300 $151 $212 forward $301 $-1 #
edge $-1 -1 $-1 $216 -1.9116000000000004 $302 0.19999999999999996 $211 $303 forward @7 unknown #
coedge $-1 -1 $-1 $304 $152 $300 $305 forward $215 $-1 #
coedge $-1 -1 $-1 $152 $304 $154 $219 forward $215 $-1 #
loop $-1 -1 $-1 $-1 $214 $306 #
vertex $-1 -1 $-1 $212 $307 #
ellipse-curve $-1 -1 $-1 0 0 30.116000000000007 0 0 1 21.009999999999998 13.549166025995849 0 1 I I #
coedge $-1 -1 $-1 $308 $154 $309 $310 reversed $156 $-1 #
edge $-1 -1 $-1 $311 -2.2049941340489108 $157 0.50793785920119749 $214 $312 forward @7 unknown #
coedge $-1 -1 $-1 $155 $313 $314 $315 forward $156 $-1 #
edge $-1 -1 $-1 $158 3.0535222714727688 $316 3.3941125496954281 $155 $317 forward @7 unknown #
face $-1 -1 $-1 $318 $156 $2 $-1 $319 forward single #
point $-1 -1 $-1 13.564659966250545 21 30.116000000000007 #
point $-1 -1 $-1 13.564659966250545 21 28.116000000000003 #
face $-1 -1 $-1 $222 $320 $2 $-1 $321 forward single #
loop $-1 -1 $-1 $180 $322 $160 #
cone-surface $-1 -1 $-1 0 0 39.116000000000007 0 0 1 -11 0 0 1 I I 0 1 11 forward I I I I #
loop $-1 -1 $-1 $-1 $323 $126 #
coedge $-1 -1 $-1 $166 $168 $163 $230 forward $161 $-1 #
edge $-1 -1 $-1 $232 0.9272952180016123 $231 2.2142974355881808 $229 $324 forward @7 unknown #
vertex $-1 -1 $-1 $167 $325 #
vertex $-1 -1 $-1 $169 $326 #
straight-curve $-1 -1 $-1 -1.5 2 48.116000000000014 -10 -0 -0 I I #
coedge $-1 -1 $-1 $168 $166 $170 $237 reversed $161 $-1 #
straight-curve $-1 -1 $-1 1.4999999999999996 2 41.116000000000014 0 0 10 I I #
straight-curve $-1 -1 $-1 -1.4999999999999996 2 41.116000000000014 -0 -0 -10 I I #
edge $-1 -1 $-1 $172 -0.9272952180016123 $171 4.0688878715914054 $234 $327 forward @7 unknown #
point $-1 -1 $-1 1.5 2 63.116000000000014 #
point $-1 -1 $-1 -1.5 2 63.116000000000014 #
coedge $-1 -1 $-1 $328 $176 $329 $330 forward $116 $-1 #
coedge $-1 -1 $-1 $331 $332 $176 $242 reversed $333 $-1 #
edge $-1 -1 $-1 $250 -3.1415926535897931 $334 -2.9301439646113834 $241 $335 forward @7 unknown #
coedge $-1 -1 $-1 $177 $336 $313 $337 forward $116 $-1 #
coedge $-1 -1 $-1 $338 $339 $177 $245 reversed $340 $-1 #
edge $-1 -1 $-1 $341 -3.1415926535897931 $249 -2.9301439646113843 $244 $342 forward @7 unknown #
coedge $-1 -1 $-1 $343 $178 $339 $344 forward $248 $-1 #
coedge $-1 -1 $-1 $178 $345 $331 $346 forward $248 $-1 #
loop $-1 -1 $-1 $-1 $347 $318 #
vertex $-1 -1 $-1 $344 $348 #
vertex $-1 -1 $-1 $346 $349 #
straight-curve $-1 -1 $-1 -21.000000000000011 -16.970562748477136 39.116000000000007 -2.6168207644729589e-015 -10 0 I I #
point $-1 -1 $-1 11 1.3471114790620888e-015 39.116000000000007 #
face $-1 -1 $-1 $350 $351 $2 $-1 $352 reversed single #
loop $-1 -1 $-1 $-1 $309 $183 #
cone-surface $-1 -1 $-1 0 0 11 0 0 1 -13.549166025995852 21.009999999999994 0 1 I I 0 1 25 forward I I I I #
coedge $-1 -1 $-1 $353 $354 $355 $356 forward $184 $-1 #
coedge $-1 -1 $-1 $185 $279 $202 $288 forward $142 $-1 #
edge $-1 -1 $-1 $290 -2.2049941340489116 $199 0.50793785920119661 $185 $357 forward @7 unknown #
coedge $-1 -1 $-1 $187 $186 $358 $359 forward $119 $-1 #
coedge $-1 -1 $-1 $360 $361 $186 $261 reversed $362 $-1 #
edge $-1 -1 $-1 $268 0.42450774896761267 $363 0.42524537998652145 $260 $364 forward @7 unknown #
coedge $-1 -1 $-1 $365 $190 $187 $263 reversed $103 $-1 #
edge $-1 -1 $-1 $366 0 $267 0.00073763101890790637 $262 $281 forward @7 unknown #
coedge $-1 -1 $-1 $367 $188 $190 $270 reversed $266 $-1 #
coedge $-1 -1 $-1 $188 $368 $360 $369 reversed $266 $-1 #
loop $-1 -1 $-1 $-1 $264 $370 #
vertex $-1 -1 $-1 $189 $371 #
vertex $-1 -1 $-1 $261 $372 #
straight-curve $-1 -1 $-1 -8.4852813742385678 -21.000000000000014 30.116000000000007 -10 1.3084103822364803e-015 0 I I #
edge $-1 -1 $-1 $274 1.7116 $267 1.9116000000000002 $190 $373 forward @7 unknown #
coedge $-1 -1 $-1 $374 $191 $197 $283 forward $273 $-1 #
coedge $-1 -1 $-1 $191 $374 $367 $375 forward $273 $-1 #
loop $-1 -1 $-1 $-1 $191 $376 #
vertex $-1 -1 $-1 $192 $377 #
ellipse-curve $-1 -1 $-1 0 0 28.116000000000007 -0 -0 -1 13.549166025995831 -21.010000000000009 0 1 I I #
coedge $-1 -1 $-1 $193 $378 $379 $380 reversed $103 $-1 #
coedge $-1 -1 $-1 $381 $382 $193 $278 reversed $383 $-1 #
edge $-1 -1 $-1 $384 -0.19999999999999996 $280 1.9116000000000004 $193 $385 forward @7 unknown #
coedge $-1 -1 $-1 $257 $194 $382 $386 forward $142 $-1 #
vertex $-1 -1 $-1 $278 $387 #
ellipse-curve $-1 -1 $-1 0 0 30.116000000000007 0 0 1 13.549166025995831 -21.010000000000009 0 1 I I #
coedge $-1 -1 $-1 $197 $388 $389 $390 forward $198 $-1 #
edge $-1 -1 $-1 $200 3.0535222714727679 $391 3.3941125496954281 $197 $392 forward @7 unknown #
face $-1 -1 $-1 $393 $198 $2 $-1 $394 forward single #
point $-1 -1 $-1 21 -13.564659966250536 30.116000000000007 #
point $-1 -1 $-1 21 -13.564659966250536 28.116000000000003 #
coedge $-1 -1 $-1 $395 $202 $396 $397 reversed $86 $-1 #
edge $-1 -1 $-1 $398 0 $290 0.0007376310189085455 $202 $217 forward @7 unknown #
coedge $-1 -1 $-1 $399 $203 $206 $293 reversed $198 $-1 #
vertex $-1 -1 $-1 $258 $400 #
straight-curve $-1 -1 $-1 21 13.564659966250545 11.000000000000004 0 0 10 I I #
coedge $-1 -1 $-1 $206 $205 $401 $402 forward $207 $-1 #
edge $-1 -1 $-1 $403 -0 $208 0.34059027822265953 $289 $392 forward @7 unknown #
face $-1 -1 $-1 $404 $207 $2 $-1 $405 reversed single #
point $-1 -1 $-1 21 13.564659966250545 28.116000000000003 #
coedge $-1 -1 $-1 $210 $406 $407 $408 reversed $86 $-1 #
coedge $-1 -1 $-1 $409 $410 $210 $298 forward $411 $-1 #
edge $-1 -1 $-1 $302 -0.42524537998651951 $412 -0.42450774896761112 $210 $413 forward @7 unknown #
coedge $-1 -1 $-1 $414 $211 $410 $415 reversed $301 $-1 #
coedge $-1 -1 $-1 $211 $414 $213 $305 reversed $301 $-1 #
loop $-1 -1 $-1 $-1 $414 $416 #
vertex $-1 -1 $-1 $212 $417 #
straight-curve $-1 -1 $-1 13.549166025995847 21.009999999999994 11 0 0 -10 I I #
coedge $-1 -1 $-1 $214 $213 $418 $419 forward $215 $-1 #
edge $-1 -1 $-1 $216 0.3424931888179148 $420 3.0523263940170846 $300 $421 forward @7 unknown #
face $-1 -1 $-1 $422 $215 $2 $-1 $120 forward single #
point $-1 -1 $-1 13.549166025995847 21.009999999999994 30.116000000000007 #
coedge $-1 -1 $-1 $423 $218 $424 $425 reversed $156 $-1 #
coedge $-1 -1 $-1 $418 $426 $218 $310 forward $254 $-1 #
edge $-1 -1 $-1 $427 1.7116 $311 1.9116000000000002 $309 $428 forward @7 unknown #
vertex $-1 -1 $-1 $310 $429 #
straight-curve $-1 -1 $-1 8.4852813742385695 21 30.116000000000007 10 0 0 I I #
coedge $-1 -1 $-1 $220 $423 $243 $337 reversed $156 $-1 #
coedge $-1 -1 $-1 $430 $401 $220 $315 reversed $431 $-1 #
edge $-1 -1 $-1 $432 -0.89999999999999991 $316 0.20000000000000018 $220 $433 forward @7 unknown #
vertex $-1 -1 $-1 $315 $434 #
straight-curve $-1 -1 $-1 -16.970562748477139 21 28.116000000000003 10 0 0 I I #
face $-1 -1 $-1 $435 $248 $2 $-1 $436 forward single #
plane-surface $-1 -1 $-1 16.970562748477139 21 30.116000000000007 0 1 0 -10 0 0 forward_v I I I I #
loop $-1 -1 $-1 $437 $438 $225 #
plane-surface $-1 -1 $-1 -4.4869050950522142e-016 1.6821560979169036e-016 41.116000000000014 0 0 1 10 0 0 forward_v I I I I #
coedge $-1 -1 $-1 $322 $322 $439 $440 reversed $226 $-1 #
coedge $-1 -1 $-1 $323 $323 $438 $441 reversed $228 $-1 #
ellipse-curve $-1 -1 $-1 0 0 48.116000000000021 -0 -0 -1 -2.5 0 0 1 I I #
point $-1 -1 $-1 1.5 2 48.116000000000014 #
point $-1 -1 $-1 -1.5 2 48.116000000000014 #
ellipse-curve $-1 -1 $-1 0 0 63.116000000000014 0 0 1 -2.5 -0 -0 1 I I #
coedge $-1 -1 $-1 $442 $240 $443 $444 forward $116 $-1 #
coedge $-1 -1 $-1 $445 $446 $240 $330 reversed $266 $-1 #
edge $-1 -1 $-1 $334 -3.3941125496954259 $447 -2.2204460492503131e-016 $329 $448 forward @7 unknown #
coedge $-1 -1 $-1 $449 $241 $247 $346 reversed $333 $-1 #
coedge $-1 -1 $-1 $241 $449 $445 $450 reversed $333 $-1 #
loop $-1 -1 $-1 $-1 $332 $451 #
vertex $-1 -1 $-1 $450 $452 #
ellipse-curve $-1 -1 $-1 0 0 39.116000000000007 0 0 1 21.000000000000011 16.970562748477132 0 1 I I #
coedge $-1 -1 $-1 $243 $442 $430 $453 forward $116 $-1 #
edge $-1 -1 $-1 $432 -3.3941125496954281 $341 -0 $313 $454 forward @7 unknown #
coedge $-1 -1 $-1 $455 $244 $423 $456 forward $340 $-1 #
coedge $-1 -1 $-1 $244 $455 $246 $344 reversed $340 $-1 #
loop $-1 -1 $-1 $-1 $339 $404 #
vertex $-1 -1 $-1 $456 $457 #
ellipse-curve $-1 -1 $-1 0 0 39.116000000000007 0 0 1 16.970562748477139 -21 0 1 I I #
coedge $-1 -1 $-1 $347 $246 $458 $459 reversed $248 $-1 #
edge $-1 -1 $-1 $249 -0.89999999999999991 $460 0.20000000000000018 $246 $461 forward @7 unknown #
coedge $-1 -1 $-1 $247 $462 $463 $464 reversed $248 $-1 #
edge $-1 -1 $-1 $465 -0.20000000000000018 $250 0.89999999999999991 $247 $466 forward @7 unknown #
coedge $-1 -1 $-1 $355 $343 $467 $468 reversed $248 $-1 #
point $-1 -1 $-1 -21 16.970562748477146 39.116000000000007 #
point $-1 -1 $-1 -21.000000000000011 -16.970562748477132 39.116000000000007 #
face $-1 -1 $-1 $469 $411 $2 $-1 $352 reversed single #
loop $-1 -1 $-1 $-1 $470 $253 #
plane-surface $-1 -1 $-1 1.1870934026864664e-016 -1.0683840624178197e-015 9.0000000000000018 0 0 1 10 0 0 forward_v I I I I #
coedge $-1 -1 $-1 $471 $256 $472 $473 forward $184 $-1 #
coedge $-1 -1 $-1 $256 $471 $474 $475 forward $184 $-1 #
coedge $-1 -1 $-1 $462 $347 $256 $356 reversed $248 $-1 #
edge $-1 -1 $-1 $476 -2.2049941340489108 $477 0.50793785920119627 $256 $478 forward @7 unknown #
straight-curve $-1 -1 $-1 21 -8.4852813742385695 30.116000000000007 0 -10 0 I I #
coedge $-1 -1 $-1 $479 $480 $259 $359 reversed $481 $-1 #
edge $-1 -1 $-1 $363 0.34249318881791657 $366 3.0523263940170819 $358 $482 forward @7 unknown #
coedge $-1 -1 $-1 $483 $260 $265 $369 forward $362 $-1 #
coedge $-1 -1 $-1 $260 $484 $479 $485 forward $362 $-1 #
loop $-1 -1 $-1 $-1 $486 $487 #
vertex $-1 -1 $-1 $485 $488 #
ellipse-curve $-1 -1 $-1 0 0 30.116000000000007 0 0 1 -21.010000000000009 -13.549166025995838 0 1 I I #
coedge $-1 -1 $-1 $489 $262 $480 $490 reversed $103 $-1 #
vertex $-1 -1 $-1 $490 $491 #
coedge $-1 -1 $-1 $446 $264 $272 $375 reversed $266 $-1 #
coedge $-1 -1 $-1 $265 $445 $492 $493 reversed $266 $-1 #
edge $-1 -1 $-1 $268 -1.9116000000000002 $494 -1.7116 $360 $495 forward @7 unknown #
face $-1 -1 $-1 $451 $266 $2 $-1 $496 forward single #
point $-1 -1 $-1 13.56465996625051 -21.000000000000014 30.116000000000007 #
point $-1 -1 $-1 -13.564659966250526 -21.000000000000014 30.116000000000007 #
straight-curve $-1 -1 $-1 13.56465996625051 -21.000000000000014 11.000000000000004 0 0 10 I I #
coedge $-1 -1 $-1 $272 $271 $497 $498 forward $273 $-1 #
edge $-1 -1 $-1 $499 2.2204460492503131e-016 $274 0.34059027822266175 $367 $500 forward @7 unknown #
face $-1 -1 $-1 $294 $273 $2 $-1 $405 reversed single #
point $-1 -1 $-1 13.56465996625051 -21.000000000000014 28.116000000000003 #
coedge $-1 -1 $-1 $276 $501 $502 $503 reversed $103 $-1 #
coedge $-1 -1 $-1 $504 $505 $276 $380 forward $506 $-1 #
edge $-1 -1 $-1 $384 -0.42524537998652057 $507 -0.42450774896761223 $276 $508 forward @7 unknown #
coedge $-1 -1 $-1 $396 $277 $505 $509 reversed $383 $-1 #
coedge $-1 -1 $-1 $277 $396 $279 $386 reversed $383 $-1 #
loop $-1 -1 $-1 $-1 $396 $510 #
vertex $-1 -1 $-1 $278 $511 #
straight-curve $-1 -1 $-1 21.009999999999998 -13.549166025995842 11 0 0 10 I I #
edge $-1 -1 $-1 $280 0.34249318881791524 $398 3.0523263940170842 $382 $512 forward @7 unknown #
point $-1 -1 $-1 21.009999999999998 -13.549166025995842 30.116000000000007 #
coedge $-1 -1 $-1 $282 $399 $442 $513 reversed $198 $-1 #
coedge $-1 -1 $-1 $443 $497 $282 $390 reversed $514 $-1 #
edge $-1 -1 $-1 $515 -0.89999999999999991 $391 0.20000000000000018 $282 $516 forward @7 unknown #
vertex $-1 -1 $-1 $390 $517 #
straight-curve $-1 -1 $-1 21 16.970562748477139 28.116000000000003 -0 -10 -0 I I #
face $-1 -1 $-1 $370 $514 $2 $-1 $518 forward single #
plane-surface $-1 -1 $-1 21 -16.970562748477139 30.116000000000007 1 0 0 0 10 0 forward_v I I I I #
coedge $-1 -1 $-1 $519 $287 $520 $521 reversed $86 $-1 #
coedge $-1 -1 $-1 $382 $381 $287 $397 forward $383 $-1 #
edge $-1 -1 $-1 $522 -0.19999999999999996 $398 1.9116000000000004 $396 $523 forward @7 unknown #
vertex $-1 -1 $-1 $397 $524 #
coedge $-1 -1 $-1 $388 $289 $525 $526 reversed $198 $-1 #
point $-1 -1 $-1 21 13.564659966250545 30.116000000000007 #
coedge $-1 -1 $-1 $314 $525 $292 $402 reversed $431 $-1 #
edge $-1 -1 $-1 $316 2.9301439646113843 $403 3.1415926535897931 $401 $527 forward @7 unknown #
vertex $-1 -1 $-1 $526 $528 #
face $-1 -1 $-1 $529 $340 $2 $-1 $530 forward single #
plane-surface $-1 -1 $-1 -9.8030151670280073e-016 -4.0301284575559584e-015 28.116000000000007 0 0 1 10 0 0 forward_v I I I I #
coedge $-1 -1 $-1 $296 $519 $531 $532 reversed $86 $-1 #
coedge $-1 -1 $-1 $533 $534 $296 $408 forward $535 $-1 #
edge $-1 -1 $-1 $412 -0.19999999999999996 $536 0 $407 $537 forward @7 unknown #
coedge $-1 -1 $-1 $538 $297 $534 $539 reversed $411 $-1 #
coedge $-1 -1 $-1 $297 $538 $299 $415 forward $411 $-1 #
loop $-1 -1 $-1 $-1 $409 $350 #
vertex $-1 -1 $-1 $539 $540 #
ellipse-curve $-1 -1 $-1 0 0 9.0000000000000018 0 0 -1 21.009999999999998 13.549166025995849 0 1 I I #
coedge $-1 -1 $-1 $300 $299 $541 $542 forward $301 $-1 #
edge $-1 -1 $-1 $543 -3.0523263940170846 $302 -0.3424931888179148 $299 $544 forward @7 unknown #
face $-1 -1 $-1 $306 $301 $2 $-1 $545 forward single #
point $-1 -1 $-1 13.549166025995847 21.009999999999994 9.0000000000000018 #
coedge $-1 -1 $-1 $541 $309 $304 $419 reversed $254 $-1 #
edge $-1 -1 $-1 $420 0 $311 0.0007376310189080484 $418 $546 forward @7 unknown #
vertex $-1 -1 $-1 $542 $547 #
straight-curve $-1 -1 $-1 16.974097914174994 21.009999999999998 30.116000000000007 -10 -0 -0 I I #
face $-1 -1 $-1 $548 $549 $2 $-1 $550 forward single #
coedge $-1 -1 $-1 $313 $308 $338 $456 reversed $156 $-1 #
coedge $-1 -1 $-1 $551 $552 $308 $425 forward $553 $-1 #
edge $-1 -1 $-1 $554 0 $427 0.34059027822266041 $308 $317 forward @7 unknown #
coedge $-1 -1 $-1 $309 $467 $551 $555 forward $254 $-1 #
vertex $-1 -1 $-1 $555 $556 #
straight-curve $-1 -1 $-1 -13.564659966250536 21 11.000000000000004 0 0 10 I I #
point $-1 -1 $-1 -13.564659966250536 21 30.116000000000007 #
coedge $-1 -1 $-1 $525 $314 $336 $453 reversed $431 $-1 #
loop $-1 -1 $-1 $-1 $314 $529 #
vertex $-1 -1 $-1 $315 $557 #
straight-curve $-1 -1 $-1 16.970562748477139 21 30.116000000000007 0 0 -10 I I #
point $-1 -1 $-1 16.970562748477139 20.999999999999996 28.116000000000003 #
face $-1 -1 $-1 $558 $559 $2 $-1 $405 reversed single #
plane-surface $-1 -1 $-1 -21 16.970562748477143 30.116000000000007 -1 2.616820764472959e-016 0 -2.6168207644729589e-015 -10 0 forward_v I I I I #
loop $-1 -1 $-1 $-1 $439 $225 #
coedge $-1 -1 $-1 $438 $438 $323 $441 forward $320 $-1 #
coedge $-1 -1 $-1 $439 $439 $322 $440 forward $437 $-1 #
edge $-1 -1 $-1 $560 -3.1415926535897931 $560 3.1415926535897931 $322 $561 forward @7 unknown #
edge $-1 -1 $-1 $562 -3.1415926535897931 $562 3.1415926535897931 $438 $563 forward @7 unknown #
coedge $-1 -1 $-1 $336 $328 $388 $513 forward $116 $-1 #
coedge $-1 -1 $-1 $564 $389 $328 $444 reversed $514 $-1 #
edge $-1 -1 $-1 $447 -3.1415926535897931 $515 -2.9301439646113834 $443 $565 forward @7 unknown #
coedge $-1 -1 $-1 $368 $329 $332 $450 forward $266 $-1 #
coedge $-1 -1 $-1 $329 $367 $564 $566 reversed $266 $-1 #
vertex $-1 -1 $-1 $566 $567 #
straight-curve $-1 -1 $-1 16.970562748477128 -21.000000000000014 39.116000000000007 10 -1.3084103822364803e-015 0 I I #
coedge $-1 -1 $-1 $332 $331 $568 $569 reversed $333 $-1 #
edge $-1 -1 $-1 $334 -0.89999999999999991 $570 0.20000000000000018 $445 $571 forward @7 unknown #
face $-1 -1 $-1 $54 $333 $2 $-1 $572 forward single #
point $-1 -1 $-1 -16.970562748477132 -21.000000000000011 39.116000000000007 #
edge $-1 -1 $-1 $573 -3.1415926535897931 $432 -2.9301439646113843 $430 $574 forward @7 unknown #
straight-curve $-1 -1 $-1 -16.970562748477139 21 39.116000000000007 -10 0 0 I I #
coedge $-1 -1 $-1 $339 $338 $552 $575 reversed $340 $-1 #
edge $-1 -1 $-1 $341 -0.89999999999999991 $554 0.20000000000000018 $338 $576 forward @7 unknown #
point $-1 -1 $-1 -16.970562748477139 20.999999999999996 39.116000000000007 #
coedge $-1 -1 $-1 $552 $551 $343 $459 forward $553 $-1 #
edge $-1 -1 $-1 $577 3.0535222714727674 $460 3.3941125496954276 $343 $578 forward @7 unknown #
vertex $-1 -1 $-1 $344 $579 #
straight-curve $-1 -1 $-1 -21 16.970562748477143 30.116000000000007 0 0 -10 I I #
coedge $-1 -1 $-1 $345 $355 $486 $580 reversed $248 $-1 #
coedge $-1 -1 $-1 $581 $568 $345 $464 forward $559 $-1 #
edge $-1 -1 $-1 $465 2.2204460492503131e-016 $582 0.3405902782226593 $345 $578 forward @7 unknown #
vertex $-1 -1 $-1 $346 $583 #
straight-curve $-1 -1 $-1 -21.000000000000011 -16.970562748477132 30.116000000000007 0 0 10 I I #
coedge $-1 -1 $-1 $426 $472 $347 $468 forward $254 $-1 #
edge $-1 -1 $-1 $477 -1.9116000000000002 $577 -1.7116 $467 $584 forward @7 unknown #
face $-1 -1 $-1 $585 $586 $2 $-1 $352 reversed single #
coedge $-1 -1 $-1 $587 $588 $589 $590 reversed $351 $-1 #
coedge $-1 -1 $-1 $354 $353 $591 $592 forward $184 $-1 #
coedge $-1 -1 $-1 $467 $593 $353 $473 reversed $254 $-1 #
edge $-1 -1 $-1 $477 0.42450774896761118 $594 0.42524537998651962 $472 $546 forward @7 unknown #
coedge $-1 -1 $-1 $595 $486 $354 $475 reversed $362 $-1 #
edge $-1 -1 $-1 $596 7.1054273576010008e-017 $476 0.00073763101890847449 $474 $364 forward @7 unknown #
vertex $-1 -1 $-1 $580 $597 #
vertex $-1 -1 $-1 $473 $598 #
straight-curve $-1 -1 $-1 -21.000000000000007 8.4852813742385731 30.116000000000007 2.6168207644729589e-015 10 0 I I #
coedge $-1 -1 $-1 $599 $358 $361 $485 reversed $481 $-1 #
coedge $-1 -1 $-1 $358 $599 $365 $490 forward $481 $-1 #
loop $-1 -1 $-1 $-1 $480 $600 #
straight-curve $-1 -1 $-1 -16.974097914174987 -21.010000000000009 30.116000000000007 10 1.3081378818935813e-015 0 I I #
coedge $-1 -1 $-1 $486 $360 $581 $601 forward $362 $-1 #
coedge $-1 -1 $-1 $361 $602 $603 $604 reversed $362 $-1 #
edge $-1 -1 $-1 $605 -0.19999999999999996 $363 1.9116000000000004 $361 $606 forward @7 unknown #
coedge $-1 -1 $-1 $474 $483 $462 $580 forward $362 $-1 #
face $-1 -1 $-1 $607 $362 $2 $-1 $608 forward single #
point $-1 -1 $-1 -13.54916602599582 -21.010000000000012 30.116000000000007 #
coedge $-1 -1 $-1 $609 $365 $610 $611 reversed $103 $-1 #
edge $-1 -1 $-1 $612 -0.19999999999999996 $366 1.9116000000000004 $480 $613 forward @7 unknown #
point $-1 -1 $-1 13.549166025995831 -21.010000000000005 30.116000000000007 #
coedge $-1 -1 $-1 $568 $581 $368 $493 forward $559 $-1 #
edge $-1 -1 $-1 $494 3.0535222714727652 $570 3.3941125496954259 $368 $500 forward @7 unknown #
vertex $-1 -1 $-1 $601 $614 #
straight-curve $-1 -1 $-1 -13.564659966250526 -21.000000000000014 11.000000000000004 -0 -0 -10 I I #
plane-surface $-1 -1 $-1 -16.970562748477132 -21.000000000000011 30.116000000000007 -1.3084103822364803e-016 -1 0 10 -1.3084103822364803e-015 0 forward_v I I I I #
coedge $-1 -1 $-1 $389 $564 $374 $498 reversed $514 $-1 #
edge $-1 -1 $-1 $391 2.9301439646113834 $499 3.1415926535897931 $497 $615 forward @7 unknown #
vertex $-1 -1 $-1 $566 $616 #
straight-curve $-1 -1 $-1 16.970562748477128 -21.000000000000014 28.116000000000003 -10 1.3084103822364803e-015 0 I I #
coedge $-1 -1 $-1 $378 $609 $617 $618 reversed $103 $-1 #
coedge $-1 -1 $-1 $619 $620 $378 $503 forward $549 $-1 #
edge $-1 -1 $-1 $507 -0.19999999999999996 $621 0 $502 $622 forward @7 unknown #
coedge $-1 -1 $-1 $520 $379 $620 $623 reversed $506 $-1 #
coedge $-1 -1 $-1 $379 $520 $381 $509 forward $506 $-1 #
loop $-1 -1 $-1 $-1 $504 $585 #
vertex $-1 -1 $-1 $623 $624 #
ellipse-curve $-1 -1 $-1 0 0 9.0000000000000018 0 0 -1 13.549166025995831 -21.010000000000009 0 1 I I #
edge $-1 -1 $-1 $522 -3.0523263940170842 $384 -0.34249318881791524 $381 $625 forward @7 unknown #
face $-1 -1 $-1 $600 $383 $2 $-1 $626 forward single #
point $-1 -1 $-1 21.009999999999998 -13.549166025995842 9.0000000000000018 #
straight-curve $-1 -1 $-1 21.009999999999998 -16.974097914174994 30.116000000000007 0 10 0 I I #
edge $-1 -1 $-1 $515 -3.3941125496954281 $573 0 $388 $627 forward @7 unknown #
loop $-1 -1 $-1 $-1 $389 $393 #
vertex $-1 -1 $-1 $390 $628 #
straight-curve $-1 -1 $-1 21 -16.970562748477139 30.116000000000007 0 0 -10 I I #
point $-1 -1 $-1 21 -16.970562748477139 28.116000000000003 #
cone-surface $-1 -1 $-1 0 0 30.116000000000007 0 0 1 -16.970562748477125 21.000000000000014 0 1 I I 0 1 27 forward I I I I #
coedge $-1 -1 $-1 $406 $395 $629 $630 reversed $86 $-1 #
coedge $-1 -1 $-1 $505 $504 $395 $521 forward $506 $-1 #
edge $-1 -1 $-1 $631 -0.0007376310189085455 $522 -0 $395 $413 forward @7 unknown #
vertex $-1 -1 $-1 $397 $632 #
straight-curve $-1 -1 $-1 21.009999999999998 13.549166025995847 11 0 0 10 I I #
point $-1 -1 $-1 21.009999999999998 13.549166025995847 30.116000000000007 #
coedge $-1 -1 $-1 $401 $430 $399 $526 forward $431 $-1 #
edge $-1 -1 $-1 $573 -0.89999999999999991 $403 0.20000000000000018 $525 $633 forward @7 unknown #
ellipse-curve $-1 -1 $-1 0 0 28.116000000000003 0 0 -1 -21 -16.970562748477139 -0 1 I I #
point $-1 -1 $-1 21 16.970562748477139 28.116000000000003 #
face $-1 -1 $-1 $284 $431 $2 $-1 $634 forward single #
cone-surface $-1 -1 $-1 0 0 30.116000000000007 0 0 1 16.970562748477139 -21 0 1 I I 0 1 27 forward I I I I #
coedge $-1 -1 $-1 $635 $636 $406 $532 forward $637 $-1 #
edge $-1 -1 $-1 $536 -0.42450774896761112 $638 -0.0007376310189085455 $531 $639 forward @7 unknown #
coedge $-1 -1 $-1 $640 $407 $636 $641 reversed $535 $-1 #
coedge $-1 -1 $-1 $407 $642 $409 $539 forward $535 $-1 #
loop $-1 -1 $-1 $-1 $407 $643 #
vertex $-1 -1 $-1 $408 $644 #
straight-curve $-1 -1 $-1 13.564659966250545 21 11 0 0 10 I I #
coedge $-1 -1 $-1 $410 $409 $645 $646 forward $411 $-1 #
edge $-1 -1 $-1 $647 -2.2049941340489108 $412 0.50793785920119749 $534 $648 forward @7 unknown #
point $-1 -1 $-1 13.564659966250545 21 9.0000000000000018 #
coedge $-1 -1 $-1 $645 $418 $414 $542 reversed $254 $-1 #
edge $-1 -1 $-1 $543 -0.19999999999999996 $420 1.9116000000000004 $414 $649 forward @7 unknown #
vertex $-1 -1 $-1 $542 $650 #
straight-curve $-1 -1 $-1 16.974097914174994 21.009999999999998 9.0000000000000018 10 0 0 I I #
plane-surface $-1 -1 $-1 13.549166025995847 21.009999999999998 11 0 1 0 -10 -0 -0 forward_v I I I I #
ellipse-curve $-1 -1 $-1 0 0 30.116000000000007 0 0 1 -13.549166025995852 21.009999999999994 0 1 I I #
point $-1 -1 $-1 -13.549166025995852 21.009999999999994 30.116000000000007 #
face $-1 -1 $-1 $651 $652 $2 $-1 $653 forward single #
loop $-1 -1 $-1 $-1 $629 $422 #
plane-surface $-1 -1 $-1 21 -16.970562748477139 0 1 0 0 0 10 0 forward_v I I I I #
coedge $-1 -1 $-1 $458 $424 $426 $555 reversed $553 $-1 #
coedge $-1 -1 $-1 $424 $458 $455 $575 forward $553 $-1 #
loop $-1 -1 $-1 $-1 $551 $558 #
vertex $-1 -1 $-1 $456 $654 #
edge $-1 -1 $-1 $577 -0.42450774896761095 $427 -0.0007376310189080484 $426 $655 forward @7 unknown #
point $-1 -1 $-1 -13.564659966250536 21 28.116000000000003 #
point $-1 -1 $-1 16.970562748477139 20.999999999999996 39.116000000000007 #
face $-1 -1 $-1 $376 $553 $2 $-1 $405 reversed single #
loop $-1 -1 $-1 $-1 $581 $435 #
vertex $-1 -1 $-1 $440 $656 #
ellipse-curve $-1 -1 $-1 0 0 41.116000000000014 0 0 1 -11 -0 -0 1 I I #
vertex $-1 -1 $-1 $441 $657 #
ellipse-curve $-1 -1 $-1 0 0 41.116000000000014 -0 -0 -1 -2.5 0 0 1 I I #
coedge $-1 -1 $-1 $497 $443 $446 $566 forward $514 $-1 #
ellipse-curve $-1 -1 $-1 0 0 39.116000000000007 0 0 1 -16.970562748477125 21.000000000000014 0 1 I I #
edge $-1 -1 $-1 $447 -0.89999999999999991 $499 0.20000000000000018 $564 $658 forward @7 unknown #
point $-1 -1 $-1 16.970562748477125 -21.000000000000014 39.116000000000007 #
coedge $-1 -1 $-1 $463 $492 $449 $569 forward $559 $-1 #
edge $-1 -1 $-1 $570 2.9301439646113834 $465 3.1415926535897931 $449 $659 forward @7 unknown #
vertex $-1 -1 $-1 $450 $660 #
straight-curve $-1 -1 $-1 -16.970562748477132 -21.000000000000011 30.116000000000007 0 0 -10 I I #
cone-surface $-1 -1 $-1 0 0 30.116000000000007 0 0 1 21.000000000000011 16.970562748477132 0 1 I I 0 1 27 forward I I I I #
vertex $-1 -1 $-1 $526 $661 #
ellipse-curve $-1 -1 $-1 0 0 39.116000000000007 0 0 1 -21 -16.970562748477139 -0 1 I I #
edge $-1 -1 $-1 $460 2.9301439646113843 $554 3.1415926535897931 $455 $662 forward @7 unknown #
straight-curve $-1 -1 $-1 -16.970562748477139 21 30.116000000000007 0 0 -10 I I #
vertex $-1 -1 $-1 $555 $663 #
straight-curve $-1 -1 $-1 -21.000000000000011 -16.970562748477136 28.116000000000003 2.6168207644729589e-015 10 0 I I #
point $-1 -1 $-1 -21 16.970562748477146 28.116000000000003 #
edge $-1 -1 $-1 $582 1.7116 $476 1.9116000000000002 $486 $664 forward @7 unknown #
coedge $-1 -1 $-1 $492 $463 $483 $601 reversed $559 $-1 #
vertex $-1 -1 $-1 $601 $665 #
point $-1 -1 $-1 -21.000000000000011 -16.970562748477132 28.116000000000003 #
straight-curve $-1 -1 $-1 -21 13.564659966250536 11.000000000000004 -0 -0 -10 I I #
face $-1 -1 $-1 $510 $506 $2 $-1 $352 reversed single #
loop $-1 -1 $-1 $-1 $666 $469 #
coedge $-1 -1 $-1 $667 $470 $668 $669 forward $351 $-1 #
coedge $-1 -1 $-1 $470 $667 $670 $671 forward $351 $-1 #
coedge $-1 -1 $-1 $672 $673 $470 $590 forward $674 $-1 #
edge $-1 -1 $-1 $675 -2.2049941340489108 $676 0.50793785920119627 $589 $677 forward @7 unknown #
coedge $-1 -1 $-1 $678 $679 $471 $592 reversed $680 $-1 #
edge $-1 -1 $-1 $594 0.34249318881791546 $596 3.0523263940170828 $591 $681 forward @7 unknown #
coedge $-1 -1 $-1 $472 $670 $678 $682 forward $254 $-1 #
vertex $-1 -1 $-1 $682 $683 #
coedge $-1 -1 $-1 $668 $474 $679 $684 reversed $362 $-1 #
vertex $-1 -1 $-1 $684 $685 #
point $-1 -1 $-1 -21.000000000000011 -13.564659966250531 30.116000000000007 #
point $-1 -1 $-1 -21 13.564659966250536 30.116000000000007 #
coedge $-1 -1 $-1 $480 $479 $686 $687 reversed $481 $-1 #
face $-1 -1 $-1 $487 $481 $2 $-1 $688 forward single #
edge $-1 -1 $-1 $494 -0.42450774896761267 $582 -0.00073763101890882967 $483 $689 forward @7 unknown #
coedge $-1 -1 $-1 $484 $690 $691 $692 reversed $362 $-1 #
coedge $-1 -1 $-1 $666 $686 $484 $604 forward $586 $-1 #
edge $-1 -1 $-1 $605 -0.42524537998652145 $693 -0.42450774896761267 $484 $694 forward @7 unknown #
vertex $-1 -1 $-1 $485 $695 #
straight-curve $-1 -1 $-1 -13.549166025995822 -21.010000000000012 11 0 0 10 I I #
face $-1 -1 $-1 $416 $680 $2 $-1 $696 forward single #
cone-surface $-1 -1 $-1 0 0 11 0 0 1 -21.010000000000009 -13.549166025995838 0 1 I I 0 1 25.000000000000004 forward I I I I #
coedge $-1 -1 $-1 $501 $489 $697 $698 reversed $103 $-1 #
coedge $-1 -1 $-1 $686 $666 $489 $611 forward $586 $-1 #
edge $-1 -1 $-1 $699 -0.00073763101890790637 $612 -0 $489 $508 forward @7 unknown #
vertex $-1 -1 $-1 $490 $700 #
straight-curve $-1 -1 $-1 13.549166025995831 -21.010000000000009 11 0 0 10 I I #
point $-1 -1 $-1 -13.564659966250526 -21.000000000000014 28.116000000000003 #
ellipse-curve $-1 -1 $-1 0 0 28.116000000000003 0 0 -1 -16.970562748477125 21.000000000000014 0 1 I I #
point $-1 -1 $-1 16.970562748477125 -21.000000000000014 28.116000000000003 #
coedge $-1 -1 $-1 $701 $702 $501 $618 forward $703 $-1 #
edge $-1 -1 $-1 $621 -0.42450774896761223 $704 -0.00073763101890790637 $617 $705 forward @7 unknown #
coedge $-1 -1 $-1 $706 $502 $702 $707 reversed $549 $-1 #
coedge $-1 -1 $-1 $502 $629 $504 $623 forward $549 $-1 #
vertex $-1 -1 $-1 $618 $708 #
straight-curve $-1 -1 $-1 21 -13.564659966250536 11 0 0 10 I I #
edge $-1 -1 $-1 $631 -2.2049941340489116 $507 0.50793785920119661 $620 $709 forward @7 unknown #
point $-1 -1 $-1 21 -13.564659966250536 9.0000000000000018 #
straight-curve $-1 -1 $-1 21.009999999999998 -16.974097914174994 9.0000000000000018 0 -10 0 I I #
plane-surface $-1 -1 $-1 21.009999999999998 -13.549166025995842 11 1 0 0 0 10 0 forward_v I I I I #
straight-curve $-1 -1 $-1 21 16.970562748477139 39.116000000000007 0 10 0 I I #
point $-1 -1 $-1 21 -16.970562748477139 39.116000000000007 #
coedge $-1 -1 $-1 $620 $710 $519 $630 forward $549 $-1 #
edge $-1 -1 $-1 $638 -0 $631 0.19999999999999996 $629 $711 forward @7 unknown #
vertex $-1 -1 $-1 $623 $712 #
point $-1 -1 $-1 21.009999999999998 13.549166025995847 9.0000000000000018 #
straight-curve $-1 -1 $-1 21 16.970562748477139 30.116000000000007 0 0 -10 I I #
cone-surface $-1 -1 $-1 0 0 30.116000000000007 0 0 1 -21 -16.970562748477139 0 1 I I 0 1 27 forward I I I I #
coedge $-1 -1 $-1 $713 $531 $710 $714 forward $637 $-1 #
coedge $-1 -1 $-1 $531 $713 $533 $641 forward $637 $-1 #
loop $-1 -1 $-1 $-1 $531 $715 #
vertex $-1 -1 $-1 $714 $716 #
ellipse-curve $-1 -1 $-1 0 0 11 -0 -0 -1 21.009999999999998 13.549166025995849 0 1 I I #
coedge $-1 -1 $-1 $717 $533 $718 $719 reversed $535 $-1 #
edge $-1 -1 $-1 $720 0 $536 0.34059027822265953 $533 $721 forward @7 unknown #
coedge $-1 -1 $-1 $534 $722 $723 $724 forward $535 $-1 #
face $-1 -1 $-1 $725 $535 $2 $-1 $726 forward single #
point $-1 -1 $-1 13.564659966250545 21 11 #
coedge $-1 -1 $-1 $723 $541 $538 $646 reversed $254 $-1 #
edge $-1 -1 $-1 $647 -0.0007376310189080484 $543 -0 $645 $727 forward @7 unknown #
vertex $-1 -1 $-1 $539 $728 #
straight-curve $-1 -1 $-1 8.4852813742385695 21 9.0000000000000018 10 0 0 I I #
straight-curve $-1 -1 $-1 -13.549166025995852 21.009999999999994 11 0 0 10 I I #
point $-1 -1 $-1 -13.549166025995852 21.009999999999994 9.0000000000000018 #
face $-1 -1 $-1 $729 $730 $2 $-1 $731 forward single #
loop $-1 -1 $-1 $-1 $697 $548 #
plane-surface $-1 -1 $-1 -16.970562748477132 -21.000000000000011 0 -1.3084103822364803e-016 -1 0 10 -1.3084103822364803e-015 0 forward_v I I I I #
point $-1 -1 $-1 -16.970562748477139 20.999999999999996 28.116000000000003 #
ellipse-curve $-1 -1 $-1 0 0 28.116000000000007 -0 -0 -1 -13.549166025995852 21.009999999999994 0 1 I I #
point $-1 -1 $-1 11 1.3471114790620888e-015 41.116000000000014 #
point $-1 -1 $-1 2.5 3.0616169978683831e-016 41.116000000000014 #
straight-curve $-1 -1 $-1 16.970562748477125 -21.000000000000014 30.116000000000007 0 0 -10 I I #
ellipse-curve $-1 -1 $-1 0 0 28.116000000000003 0 0 -1 21.000000000000011 16.970562748477132 0 1 I I #
point $-1 -1 $-1 -16.970562748477132 -21.000000000000011 28.116000000000003 #
point $-1 -1 $-1 21 16.970562748477139 39.116000000000007 #
ellipse-curve $-1 -1 $-1 0 0 28.116000000000003 0 0 -1 16.970562748477139 -21 0 1 I I #
point $-1 -1 $-1 -20.999999999999996 13.564659966250542 28.116000000000003 #
straight-curve $-1 -1 $-1 -21.000000000000011 -13.564659966250531 11.000000000000004 0 0 10 I I #
point $-1 -1 $-1 -21.000000000000007 -13.564659966250542 28.116000000000003 #
coedge $-1 -1 $-1 $610 $603 $732 $733 reversed $586 $-1 #
coedge $-1 -1 $-1 $588 $587 $734 $735 forward $351 $-1 #
coedge $-1 -1 $-1 $736 $595 $587 $669 reversed $362 $-1 #
edge $-1 -1 $-1 $675 -0.00073763101890847449 $737 -7.1054273576010008e-017 $668 $694 forward @7 unknown #
coedge $-1 -1 $-1 $593 $738 $588 $671 reversed $254 $-1 #
edge $-1 -1 $-1 $739 -0.42524537998651962 $676 -0.42450774896761118 $670 $727 forward @7 unknown #
coedge $-1 -1 $-1 $740 $589 $738 $741 forward $674 $-1 #
coedge $-1 -1 $-1 $589 $742 $736 $743 forward $674 $-1 #
loop $-1 -1 $-1 $-1 $672 $744 #
vertex $-1 -1 $-1 $590 $745 #
vertex $-1 -1 $-1 $590 $746 #
straight-curve $-1 -1 $-1 -21.000000000000007 8.4852813742385731 9.0000000000000018 2.6168207644729589e-015 10 0 I I #
coedge $-1 -1 $-1 $734 $591 $593 $682 reversed $680 $-1 #
coedge $-1 -1 $-1 $591 $734 $595 $684 forward $680 $-1 #
loop $-1 -1 $-1 $-1 $679 $607 #
straight-curve $-1 -1 $-1 -21.009999999999998 16.974097914174994 30.116000000000007 -2.6162757637871626e-015 -10 -0 I I #
edge $-1 -1 $-1 $739 -0.19999999999999996 $594 1.9116000000000004 $593 $747 forward @7 unknown #
point $-1 -1 $-1 -21.010000000000005 13.54916602599584 30.116000000000007 #
edge $-1 -1 $-1 $737 -0.19999999999999996 $596 1.9116000000000004 $679 $748 forward @7 unknown #
point $-1 -1 $-1 -21.010000000000005 -13.549166025995834 30.116000000000007 #
coedge $-1 -1 $-1 $603 $610 $599 $687 forward $586 $-1 #
edge $-1 -1 $-1 $612 -3.0523263940170819 $605 -0.34249318881791657 $599 $749 forward @7 unknown #
plane-surface $-1 -1 $-1 -13.549166025995822 -21.010000000000009 11 1.3081378818935814e-016 -1 0 10 1.3081378818935813e-015 0 forward_v I I I I #
ellipse-curve $-1 -1 $-1 0 0 28.116000000000007 -0 -0 -1 -21.010000000000009 -13.549166025995838 0 1 I I #
coedge $-1 -1 $-1 $602 $736 $750 $751 reversed $362 $-1 #
coedge $-1 -1 $-1 $752 $732 $602 $692 forward $652 $-1 #
edge $-1 -1 $-1 $693 -0.19999999999999996 $753 0 $691 $754 forward @7 unknown #
vertex $-1 -1 $-1 $733 $755 #
ellipse-curve $-1 -1 $-1 0 0 9.0000000000000018 -0 -0 -1 -21.010000000000009 -13.549166025995838 0 1 I I #
point $-1 -1 $-1 -13.54916602599582 -21.010000000000012 9.0000000000000018 #
plane-surface $-1 -1 $-1 -21.009999999999998 13.54916602599584 11 -1 2.6162757637871628e-016 0 -2.6162757637871626e-015 -10 -0 forward_v I I I I #
coedge $-1 -1 $-1 $732 $756 $609 $698 forward $652 $-1 #
edge $-1 -1 $-1 $704 -0 $699 0.19999999999999996 $697 $757 forward @7 unknown #
vertex $-1 -1 $-1 $733 $758 #
point $-1 -1 $-1 13.549166025995831 -21.010000000000005 9.0000000000000018 #
coedge $-1 -1 $-1 $759 $617 $756 $760 forward $703 $-1 #
coedge $-1 -1 $-1 $617 $759 $619 $707 forward $703 $-1 #
loop $-1 -1 $-1 $-1 $617 $729 #
vertex $-1 -1 $-1 $760 $761 #
ellipse-curve $-1 -1 $-1 0 0 11 -0 -0 -1 13.549166025995831 -21.010000000000009 0 1 I I #
coedge $-1 -1 $-1 $762 $619 $763 $764 reversed $549 $-1 #
edge $-1 -1 $-1 $765 0 $621 0.34059027822266041 $619 $766 forward @7 unknown #
point $-1 -1 $-1 21 -13.564659966250536 11 #
straight-curve $-1 -1 $-1 21 -8.4852813742385695 9.0000000000000018 0 -10 0 I I #
coedge $-1 -1 $-1 $629 $767 $635 $714 reversed $549 $-1 #
straight-curve $-1 -1 $-1 21 13.564659966250545 11 -0 -0 -10 I I #
point $-1 -1 $-1 21 13.564659966250545 9.0000000000000018 #
coedge $-1 -1 $-1 $636 $635 $768 $769 forward $637 $-1 #
edge $-1 -1 $-1 $638 3.0535222714727688 $770 3.3941125496954281 $710 $766 forward @7 unknown #
face $-1 -1 $-1 $771 $637 $2 $-1 $731 forward single #
point $-1 -1 $-1 21 13.564659966250545 11 #
coedge $-1 -1 $-1 $772 $640 $773 $774 forward $535 $-1 #
coedge $-1 -1 $-1 $768 $775 $640 $719 forward $776 $-1 #
edge $-1 -1 $-1 $777 0 $720 1.1000000000000001 $718 $778 forward @7 unknown #
vertex $-1 -1 $-1 $719 $779 #
straight-curve $-1 -1 $-1 16.970562748477139 21 11 -10 0 0 I I #
coedge $-1 -1 $-1 $642 $772 $780 $781 reversed $535 $-1 #
coedge $-1 -1 $-1 $782 $645 $642 $724 reversed $254 $-1 #
edge $-1 -1 $-1 $783 -0 $647 0.19999999999999996 $642 $784 forward @7 unknown #
face $-1 -1 $-1 $785 $776 $2 $-1 $786 forward single #
plane-surface $-1 -1 $-1 16.970562748477139 21 0 0 1 0 -10 0 0 forward_v I I I I #
ellipse-curve $-1 -1 $-1 0 0 9.0000000000000018 -0 -0 -1 -13.549166025995852 21.009999999999994 0 1 I I #
point $-1 -1 $-1 -13.564659966250536 21 9.0000000000000018 #
face $-1 -1 $-1 $787 $703 $2 $-1 $731 forward single #
loop $-1 -1 $-1 $-1 $750 $651 #
plane-surface $-1 -1 $-1 -6.5353434446853376e-016 -2.831982159363646e-015 11 0 0 1 10 0 0 forward_v I I I I #
coedge $-1 -1 $-1 $691 $697 $666 $733 forward $652 $-1 #
edge $-1 -1 $-1 $699 -2.2049941340489077 $693 0.50793785920119583 $732 $788 forward @7 unknown #
coedge $-1 -1 $-1 $679 $678 $667 $735 reversed $680 $-1 #
edge $-1 -1 $-1 $737 -3.0523263940170828 $739 -0.34249318881791546 $734 $789 forward @7 unknown #
coedge $-1 -1 $-1 $690 $668 $673 $743 reversed $362 $-1 #
vertex $-1 -1 $-1 $684 $790 #
coedge $-1 -1 $-1 $670 $782 $672 $741 reversed $254 $-1 #
vertex $-1 -1 $-1 $682 $791 #
coedge $-1 -1 $-1 $792 $672 $793 $794 reversed $674 $-1 #
edge $-1 -1 $-1 $676 -0.19999999999999996 $795 0 $672 $796 forward @7 unknown #
coedge $-1 -1 $-1 $673 $797 $798 $799 reversed $674 $-1 #
edge $-1 -1 $-1 $800 -0 $675 0.19999999999999996 $673 $801 forward @7 unknown #
face $-1 -1 $-1 $715 $674 $2 $-1 $802 forward single #
point $-1 -1 $-1 -21.000000000000011 -13.564659966250531 9.0000000000000018 #
point $-1 -1 $-1 -21 13.564659966250536 9.0000000000000018 #
straight-curve $-1 -1 $-1 -21.010000000000005 13.54916602599584 11 0 0 10 I I #
straight-curve $-1 -1 $-1 -21.010000000000005 -13.549166025995836 11 0 0 10 I I #
straight-curve $-1 -1 $-1 -16.974097914174987 -21.010000000000009 9.0000000000000018 -10 -1.3081378818935813e-015 0 I I #
coedge $-1 -1 $-1 $798 $803 $690 $751 forward $730 $-1 #
edge $-1 -1 $-1 $753 -0.42450774896761267 $800 -0.00073763101890847449 $750 $804 forward @7 unknown #
coedge $-1 -1 $-1 $805 $691 $803 $806 reversed $652 $-1 #
vertex $-1 -1 $-1 $751 $807 #
straight-curve $-1 -1 $-1 -13.564659966250526 -21.000000000000014 11 0 0 10 I I #
point $-1 -1 $-1 -13.564659966250526 -21.000000000000014 9.0000000000000018 #
coedge $-1 -1 $-1 $697 $808 $701 $760 reversed $652 $-1 #
straight-curve $-1 -1 $-1 13.56465996625051 -21.000000000000014 11 -0 -0 -10 I I #
point $-1 -1 $-1 13.56465996625051 -21.000000000000014 9.0000000000000018 #
coedge $-1 -1 $-1 $702 $701 $809 $810 forward $703 $-1 #
edge $-1 -1 $-1 $704 3.0535222714727643 $811 3.3941125496954259 $756 $812 forward @7 unknown #
point $-1 -1 $-1 13.56465996625051 -21.000000000000014 11 #
coedge $-1 -1 $-1 $767 $706 $813 $814 forward $549 $-1 #
coedge $-1 -1 $-1 $809 $815 $706 $764 forward $816 $-1 #
edge $-1 -1 $-1 $817 0 $765 1.1000000000000001 $763 $818 forward @7 unknown #
vertex $-1 -1 $-1 $764 $819 #
straight-curve $-1 -1 $-1 21 -16.970562748477139 11 0 10 0 I I #
coedge $-1 -1 $-1 $710 $762 $820 $821 forward $549 $-1 #
coedge $-1 -1 $-1 $820 $718 $713 $769 reversed $776 $-1 #
edge $-1 -1 $-1 $770 0 $720 0.21144868897840888 $768 $822 forward @7 unknown #
vertex $-1 -1 $-1 $821 $823 #
face $-1 -1 $-1 $-1 $824 $2 $-1 $825 reversed single #
coedge $-1 -1 $-1 $722 $717 $826 $827 forward $535 $-1 #
coedge $-1 -1 $-1 $828 $829 $717 $774 reversed $824 $-1 #
edge $-1 -1 $-1 $777 0 $830 3.3941125496954281 $717 $831 forward @7 unknown #
coedge $-1 -1 $-1 $718 $820 $828 $832 forward $776 $-1 #
loop $-1 -1 $-1 $-1 $775 $725 #
vertex $-1 -1 $-1 $832 $833 #
straight-curve $-1 -1 $-1 16.970562748477139 21 0 0 0 10 I I #
point $-1 -1 $-1 16.970562748477139 21 11 #
coedge $-1 -1 $-1 $834 $835 $722 $781 forward $836 $-1 #
edge $-1 -1 $-1 $783 3.0535222714727679 $837 3.3941125496954281 $722 $721 forward @7 unknown #
coedge $-1 -1 $-1 $738 $723 $835 $838 reversed $254 $-1 #
vertex $-1 -1 $-1 $781 $839 #
straight-curve $-1 -1 $-1 -13.564659966250536 21 11 -0 -0 -10 I I #
face $-1 -1 $-1 $840 $816 $2 $-1 $841 forward single #
cone-surface $-1 -1 $-1 0 0 0 0 0 1 21 16.970562748477139 0 1 I I 0 1 27 forward I I I I #
face $-1 -1 $-1 $842 $836 $2 $-1 $731 forward single #
straight-curve $-1 -1 $-1 -8.4852813742385678 -21.000000000000014 9.0000000000000018 -10 1.3084103822364803e-015 0 I I #
straight-curve $-1 -1 $-1 -21.009999999999998 16.974097914174994 9.0000000000000018 2.6162757637871626e-015 10 0 I I #
point $-1 -1 $-1 -21.010000000000005 -13.549166025995834 9.0000000000000018 #
point $-1 -1 $-1 -21.010000000000005 13.54916602599584 9.0000000000000018 #
coedge $-1 -1 $-1 $843 $740 $844 $845 reversed $674 $-1 #
coedge $-1 -1 $-1 $835 $834 $740 $794 forward $836 $-1 #
edge $-1 -1 $-1 $846 0 $795 0.34059027822266064 $740 $847 forward @7 unknown #
vertex $-1 -1 $-1 $741 $848 #
straight-curve $-1 -1 $-1 -21 13.564659966250536 11 0 0 10 I I #
coedge $-1 -1 $-1 $742 $843 $849 $850 forward $674 $-1 #
coedge $-1 -1 $-1 $851 $750 $742 $799 forward $730 $-1 #
edge $-1 -1 $-1 $800 3.0535222714727674 $852 3.3941125496954276 $742 $847 forward @7 unknown #
vertex $-1 -1 $-1 $799 $853 #
straight-curve $-1 -1 $-1 -21.000000000000011 -13.564659966250531 11 -0 -0 -10 I I #
plane-surface $-1 -1 $-1 -21 16.970562748477143 0 -1 2.616820764472959e-016 0 -2.6168207644729589e-015 -10 0 forward_v I I I I #
coedge $-1 -1 $-1 $750 $851 $752 $806 forward $730 $-1 #
ellipse-curve $-1 -1 $-1 0 0 11 -0 -0 -1 -21.010000000000009 -13.549166025995838 0 1 I I #
coedge $-1 -1 $-1 $854 $752 $855 $856 reversed $652 $-1 #
edge $-1 -1 $-1 $857 0 $753 0.34059027822266064 $752 $812 forward @7 unknown #
point $-1 -1 $-1 -13.564659966250526 -21.000000000000014 11 #
coedge $-1 -1 $-1 $756 $854 $858 $859 forward $652 $-1 #
coedge $-1 -1 $-1 $858 $763 $759 $810 reversed $816 $-1 #
edge $-1 -1 $-1 $811 0 $765 0.21144868897840965 $809 $860 forward @7 unknown #
vertex $-1 -1 $-1 $859 $861 #
straight-curve $-1 -1 $-1 -16.970562748477132 -21.000000000000011 11 10 -1.3084103822364803e-015 0 I I #
coedge $-1 -1 $-1 $862 $828 $762 $814 reversed $824 $-1 #
edge $-1 -1 $-1 $817 0 $863 3.3941125496954281 $762 $864 forward @7 unknown #
coedge $-1 -1 $-1 $763 $858 $862 $865 forward $816 $-1 #
loop $-1 -1 $-1 $-1 $815 $785 #
vertex $-1 -1 $-1 $865 $866 #
straight-curve $-1 -1 $-1 21 -16.970562748477139 0 0 0 10 I I #
point $-1 -1 $-1 21 -16.970562748477143 11 #
coedge $-1 -1 $-1 $775 $768 $767 $821 reversed $776 $-1 #
edge $-1 -1 $-1 $863 0 $770 1.1000000000000001 $767 $867 forward @7 unknown #
ellipse-curve $-1 -1 $-1 0 0 11 0 0 1 21 16.970562748477139 0 1 I I #
point $-1 -1 $-1 21 16.970562748477139 11 #
loop $-1 -1 $-1 $-1 $868 $771 #
plane-surface $-1 -1 $-1 -6.5353434446853376e-016 -2.831982159363646e-015 0 0 0 1 10 0 0 forward_v I I I I #
coedge $-1 -1 $-1 $869 $870 $772 $827 reversed $871 $-1 #
edge $-1 -1 $-1 $830 0 $837 1.1000000000000001 $772 $872 forward @7 unknown #
coedge $-1 -1 $-1 $813 $773 $775 $832 reversed $824 $-1 #
coedge $-1 -1 $-1 $773 $868 $869 $873 reversed $824 $-1 #
vertex $-1 -1 $-1 $774 $874 #
straight-curve $-1 -1 $-1 16.970562748477139 21 0 -10 0 0 F 0 F 3.3941125496954281 #
edge $-1 -1 $-1 $863 0 $777 0.21144868897840888 $775 $875 forward @7 unknown #
point $-1 -1 $-1 16.970562748477139 21 0 #
coedge $-1 -1 $-1 $793 $780 $870 $876 forward $836 $-1 #
coedge $-1 -1 $-1 $780 $793 $782 $838 forward $836 $-1 #
loop $-1 -1 $-1 $-1 $835 $787 #
vertex $-1 -1 $-1 $827 $877 #
edge $-1 -1 $-1 $795 -0.42450774896761118 $783 -0.0007376310189080484 $835 $878 forward @7 unknown #
point $-1 -1 $-1 -13.564659966250536 21 11 #
face $-1 -1 $-1 $744 $879 $2 $-1 $880 forward single #
cone-surface $-1 -1 $-1 0 0 0 0 0 1 16.970562748477125 -21.000000000000014 0 1 I I 0 1 27 forward I I I I #
face $-1 -1 $-1 $643 $871 $2 $-1 $881 forward single #
coedge $-1 -1 $-1 $797 $792 $868 $882 forward $674 $-1 #
coedge $-1 -1 $-1 $870 $869 $792 $845 forward $871 $-1 #
edge $-1 -1 $-1 $883 0 $846 1.1000000000000001 $792 $884 forward @7 unknown #
vertex $-1 -1 $-1 $845 $885 #
straight-curve $-1 -1 $-1 -21 16.970562748477143 11 -2.6168207644729589e-015 -10 0 I I #
point $-1 -1 $-1 -21 13.564659966250536 11 #
coedge $-1 -1 $-1 $886 $887 $797 $850 reversed $879 $-1 #
edge $-1 -1 $-1 $888 0 $852 1.1000000000000001 $797 $889 forward @7 unknown #
coedge $-1 -1 $-1 $803 $798 $887 $890 forward $730 $-1 #
vertex $-1 -1 $-1 $850 $891 #
point $-1 -1 $-1 -21.000000000000011 -13.564659966250531 11 #
coedge $-1 -1 $-1 $808 $805 $892 $893 forward $652 $-1 #
coedge $-1 -1 $-1 $887 $886 $805 $856 forward $879 $-1 #
edge $-1 -1 $-1 $894 0 $857 1.1000000000000001 $855 $895 forward @7 unknown #
vertex $-1 -1 $-1 $856 $896 #
coedge $-1 -1 $-1 $815 $809 $808 $859 reversed $816 $-1 #
edge $-1 -1 $-1 $897 0 $811 1.1000000000000001 $808 $898 forward @7 unknown #
ellipse-curve $-1 -1 $-1 0 0 11 0 0 1 16.970562748477125 -21.000000000000014 0 1 I I #
point $-1 -1 $-1 16.970562748477125 -21.000000000000014 11 #
coedge $-1 -1 $-1 $892 $813 $815 $865 reversed $824 $-1 #
vertex $-1 -1 $-1 $814 $899 #
straight-curve $-1 -1 $-1 21 -16.970562748477139 0 0 10 0 F 0 F 3.3941125496954281 #
edge $-1 -1 $-1 $897 0 $817 0.21144868897840965 $815 $900 forward @7 unknown #
point $-1 -1 $-1 21 -16.970562748477139 0 #
straight-curve $-1 -1 $-1 21 16.970562748477139 0 0 0 10 I I #
coedge $-1 -1 $-1 $829 $901 $843 $882 reversed $824 $-1 #
coedge $-1 -1 $-1 $844 $826 $829 $873 forward $871 $-1 #
coedge $-1 -1 $-1 $826 $844 $834 $876 reversed $871 $-1 #
loop $-1 -1 $-1 $-1 $869 $842 #
straight-curve $-1 -1 $-1 -16.970562748477139 21 0 0 0 10 I I #
edge $-1 -1 $-1 $830 0 $883 0.21144868897840882 $869 $902 forward @7 unknown #
point $-1 -1 $-1 -16.970562748477139 21 0 #
ellipse-curve $-1 -1 $-1 0 0 0 0 0 1 21 16.970562748477139 0 1 F 0 F 0.21144868897840907 #
edge $-1 -1 $-1 $837 0 $846 0.21144868897840882 $870 $903 forward @7 unknown #
point $-1 -1 $-1 -16.970562748477139 21 11 #
ellipse-curve $-1 -1 $-1 0 0 11 -0 -0 -1 -13.549166025995852 21.009999999999994 0 1 I I #
loop $-1 -1 $-1 $-1 $886 $840 #
cone-surface $-1 -1 $-1 0 0 0 0 0 1 -21.000000000000011 -16.970562748477132 0 1 I I 0 1 27 forward I I I I #
cone-surface $-1 -1 $-1 0 0 0 0 0 1 -16.970562748477139 21 0 1 I I 0 1 27 forward I I I I #
edge $-1 -1 $-1 $883 0 $888 3.3941125496954276 $843 $904 forward @7 unknown #
vertex $-1 -1 $-1 $882 $905 #
straight-curve $-1 -1 $-1 -21 16.970562748477143 0 0 0 10 I I #
point $-1 -1 $-1 -21 16.970562748477143 11 #
coedge $-1 -1 $-1 $855 $849 $901 $906 forward $879 $-1 #
coedge $-1 -1 $-1 $849 $855 $851 $890 reversed $879 $-1 #
vertex $-1 -1 $-1 $882 $907 #
straight-curve $-1 -1 $-1 -21.000000000000011 -16.970562748477132 0 0 0 10 I I #
edge $-1 -1 $-1 $852 0 $857 0.21144868897840952 $887 $908 forward @7 unknown #
point $-1 -1 $-1 -21.000000000000011 -16.970562748477136 11 #
coedge $-1 -1 $-1 $901 $862 $854 $893 reversed $824 $-1 #
edge $-1 -1 $-1 $894 0 $897 3.3941125496954259 $854 $909 forward @7 unknown #
vertex $-1 -1 $-1 $906 $910 #
straight-curve $-1 -1 $-1 -16.970562748477132 -21.000000000000011 0 0 0 10 I I #
point $-1 -1 $-1 -16.970562748477132 -21.000000000000011 11 #
vertex $-1 -1 $-1 $893 $911 #
straight-curve $-1 -1 $-1 16.970562748477125 -21.000000000000014 0 0 0 10 I I #
point $-1 -1 $-1 21 16.970562748477139 0 #
ellipse-curve $-1 -1 $-1 0 0 0 0 0 1 16.970562748477125 -21.000000000000014 0 1 F 0 F 0.21144868897841024 #
coedge $-1 -1 $-1 $868 $892 $886 $906 reversed $824 $-1 #
ellipse-curve $-1 -1 $-1 0 0 0 0 0 1 -16.970562748477139 21 0 1 F 0 F 0.21144868897840907 #
ellipse-curve $-1 -1 $-1 0 0 11 0 0 1 -16.970562748477139 21 0 1 I I #
straight-curve $-1 -1 $-1 -21 16.970562748477143 0 -2.6168207644729589e-015 -10 0 F 0 F 3.3941125496954276 #
point $-1 -1 $-1 -21 16.970562748477143 0 #
edge $-1 -1 $-1 $888 0 $894 0.21144868897840952 $886 $912 forward @7 unknown #
point $-1 -1 $-1 -21.000000000000011 -16.970562748477132 0 #
ellipse-curve $-1 -1 $-1 0 0 11 0 0 1 -21.000000000000011 -16.970562748477132 0 1 I I #
straight-curve $-1 -1 $-1 -16.970562748477132 -21.000000000000011 0 10 -1.3084103822364803e-015 0 F 0 F 3.3941125496954259 #
point $-1 -1 $-1 -16.970562748477132 -21.000000000000011 0 #
point $-1 -1 $-1 16.970562748477125 -21.000000000000014 0 #
ellipse-curve $-1 -1 $-1 0 0 0 0 0 1 -21.000000000000011 -16.970562748477132 0 1 F 0 F 0.21144868897840952 #
End-of-ACIS-data 