700 0 1 0           
33 Autodesk Inventor 17.0.13800.0000 19 ASM 218.0.0.5119 NT 24 Tue Dec 10 11:02:33 2013 
25.399999999999999 9.9999999999999995e-007 1e-010 
body $-1 -1 $-1 $1 $-1 $-1 #
lump $-1 -1 $-1 $-1 $2 $0 #
shell $-1 -1 $-1 $-1 $-1 $3 $-1 $1 #
face $-1 -1 $-1 $4 $5 $2 $-1 $6 reversed single #
face $-1 -1 $-1 $7 $8 $2 $-1 $9 reversed single #
loop $-1 -1 $-1 $-1 $10 $3 #
plane-surface $-1 -1 $-1 0.59603982312842119 0.21653543307086615 0.25000000000000017 0.86602540378443926 0 -0.49999999999999906 -0.19685039370078702 -0 -0.34095488337970048 forward_v I I I I #
face $-1 -1 $-1 $11 $12 $2 $-1 $13 reversed single #
loop $-1 -1 $-1 $-1 $14 $4 #
plane-surface $-1 -1 $-1 0.5323949115642107 0.21653543307086615 0.36023622047244092 0.8660254037844386 0 0.50000000000000011 0.19685039370078744 0 -0.3409548833797002 forward_v I I I I #
coedge $-1 -1 $-1 $15 $16 $17 $18 reversed $5 $-1 #
face $-1 -1 $-1 $19 $20 $2 $-1 $21 reversed single #
loop $-1 -1 $-1 $-1 $22 $7 #
plane-surface $-1 -1 $-1 0.40510508843578918 0.21653543307086615 0.36023622047244086 -3.4338619399706511e-016 0 1 0.39370078740157477 0 1.3519141495947444e-016 forward_v I I I I #
coedge $-1 -1 $-1 $23 $24 $25 $26 reversed $8 $-1 #
coedge $-1 -1 $-1 $27 $10 $24 $28 forward $5 $-1 #
coedge $-1 -1 $-1 $10 $27 $29 $30 reversed $5 $-1 #
coedge $-1 -1 $-1 $31 $25 $10 $18 forward $32 $-1 #
edge $-1 -1 $-1 $33 -0.25657335338810711 $34 0.066742797358083153 $17 $35 forward @7 unknown #
face $-1 -1 $-1 $36 $37 $2 $-1 $38 reversed single #
loop $-1 -1 $-1 $-1 $39 $11 #
plane-surface $-1 -1 $-1 0.34146017687157859 0.21653543307086615 0.24999999999999994 -0.86602540378443893 0 0.4999999999999995 0.19685039370078719 0 0.34095488337970031 forward_v I I I I #
coedge $-1 -1 $-1 $40 $41 $42 $43 reversed $12 $-1 #
coedge $-1 -1 $-1 $44 $14 $41 $45 forward $8 $-1 #
coedge $-1 -1 $-1 $14 $44 $15 $28 reversed $8 $-1 #
coedge $-1 -1 $-1 $17 $42 $14 $26 forward $32 $-1 #
edge $-1 -1 $-1 $46 -0.45501085338810698 $33 -0.13169470264191679 $25 $47 forward @7 unknown #
coedge $-1 -1 $-1 $16 $15 $48 $49 reversed $5 $-1 #
edge $-1 -1 $-1 $33 0 $50 0.30000000000000004 $24 $51 forward @7 unknown #
coedge $-1 -1 $-1 $52 $53 $16 $30 forward $54 $-1 #
edge $-1 -1 $-1 $34 0 $55 0.30000000000000004 $29 $56 forward @7 unknown #
coedge $-1 -1 $-1 $57 $17 $53 $58 forward $32 $-1 #
loop $-1 -1 $-1 $59 $17 $60 #
vertex $-1 -1 $-1 $18 $61 #
vertex $-1 -1 $-1 $18 $62 #
straight-curve $-1 -1 $-1 0.54553325750084125 0.21653543307086615 0.1625200622172194 -0.19685039370078702 0 -0.34095488337970048 I I #
face $-1 -1 $-1 $63 $54 $2 $-1 $64 reversed single #
loop $-1 -1 $-1 $-1 $65 $19 #
plane-surface $-1 -1 $-1 0.40510508843578935 0.21653543307086615 0.13976377952755911 -0.86602540378443826 0 -0.50000000000000089 -0.19685039370078775 0 0.34095488337970009 forward_v I I I I #
coedge $-1 -1 $-1 $66 $67 $68 $69 reversed $20 $-1 #
coedge $-1 -1 $-1 $70 $22 $67 $71 forward $12 $-1 #
coedge $-1 -1 $-1 $22 $70 $23 $45 reversed $12 $-1 #
coedge $-1 -1 $-1 $25 $68 $22 $43 forward $32 $-1 #
edge $-1 -1 $-1 $72 -0.27926653768654752 $46 0.044049613059642834 $42 $73 forward @7 unknown #
coedge $-1 -1 $-1 $24 $23 $74 $75 reversed $8 $-1 #
edge $-1 -1 $-1 $46 0 $76 0.30000000000000004 $41 $77 forward @7 unknown #
vertex $-1 -1 $-1 $26 $78 #
straight-curve $-1 -1 $-1 0.62196397719179075 0.21653543307086615 0.20509804801900111 0.19685039370078744 0 -0.3409548833797002 I I #
coedge $-1 -1 $-1 $74 $79 $27 $49 forward $80 $-1 #
edge $-1 -1 $-1 $55 -0.038016146216669426 $50 0.28530000452952081 $48 $81 forward @7 unknown #
vertex $-1 -1 $-1 $49 $82 #
straight-curve $-1 -1 $-1 0.5960398231284213 0.21653543307086615 0.25000000000000011 0 0.39370078740157477 0 I I #
coedge $-1 -1 $-1 $83 $29 $79 $84 reversed $54 $-1 #
coedge $-1 -1 $-1 $29 $83 $31 $58 reversed $54 $-1 #
loop $-1 -1 $-1 $-1 $53 $36 #
vertex $-1 -1 $-1 $49 $85 #
straight-curve $-1 -1 $-1 0.5323949115642107 0.21653543307086615 0.13976377952755922 0 0.39370078740157477 0 I I #
coedge $-1 -1 $-1 $68 $31 $65 $86 forward $32 $-1 #
edge $-1 -1 $-1 $34 0.11760846231345212 $87 0.44092461305964226 $31 $88 forward @7 unknown #
loop $-1 -1 $-1 $-1 $89 $60 #
face $-1 -1 $-1 $90 $32 $2 $-1 $91 forward single #
point $-1 -1 $-1 0.5960398231284213 0.21653543307086615 0.25000000000000011 #
point $-1 -1 $-1 0.5323949115642107 0.21653543307086615 0.13976377952755922 #
face $-1 -1 $-1 $92 $93 $2 $-1 $94 forward single #
plane-surface $-1 -1 $-1 0.5323949115642107 0.21653543307086615 0.13976377952755922 6.8677238799413042e-016 0 -1 -0.39370078740157477 -0 -2.7038282991894898e-016 forward_v I I I I #
coedge $-1 -1 $-1 $95 $96 $57 $86 reversed $37 $-1 #
coedge $-1 -1 $-1 $97 $39 $96 $98 forward $20 $-1 #
coedge $-1 -1 $-1 $39 $97 $40 $71 reversed $20 $-1 #
coedge $-1 -1 $-1 $42 $57 $39 $69 forward $32 $-1 #
edge $-1 -1 $-1 $99 0.09491527801501197 $72 0.41823142876120228 $68 $100 forward @7 unknown #
coedge $-1 -1 $-1 $41 $40 $101 $102 reversed $12 $-1 #
edge $-1 -1 $-1 $72 0 $103 0.30000000000000004 $67 $104 forward @7 unknown #
vertex $-1 -1 $-1 $43 $105 #
straight-curve $-1 -1 $-1 0.51505254421789448 0.21653543307086615 0.36023622047244092 0.39370078740157477 0 1.3519141495947444e-016 I I #
coedge $-1 -1 $-1 $101 $48 $44 $75 forward $80 $-1 #
edge $-1 -1 $-1 $50 -0.44695807990261616 $76 -0.12364192915642602 $74 $106 forward @7 unknown #
vertex $-1 -1 $-1 $75 $107 #
straight-curve $-1 -1 $-1 0.53239491156421059 0.21653543307086615 0.36023622047244092 0 0.39370078740157477 0 I I #
point $-1 -1 $-1 0.53239491156421059 0.21653543307086615 0.36023622047244092 #
coedge $-1 -1 $-1 $48 $108 $52 $84 forward $80 $-1 #
loop $-1 -1 $-1 $-1 $48 $63 #
straight-curve $-1 -1 $-1 0.53987840491394867 0.3346456692913386 0.15272557022740937 0.19685039370078702 0 0.34095488337970048 I I #
point $-1 -1 $-1 0.5960398231284213 0.3346456692913386 0.25000000000000011 #
coedge $-1 -1 $-1 $53 $52 $95 $109 reversed $54 $-1 #
edge $-1 -1 $-1 $110 0.16645482062630468 $55 0.48977097137249481 $79 $111 forward @7 unknown #
point $-1 -1 $-1 0.5323949115642107 0.3346456692913386 0.13976377952755922 #
edge $-1 -1 $-1 $87 0.29335277801501181 $99 0.61666892876120216 $57 $112 forward @7 unknown #
vertex $-1 -1 $-1 $86 $113 #
straight-curve $-1 -1 $-1 0.57869745578210519 0.21653543307086615 0.13976377952755925 -0.39370078740157477 0 -2.7038282991894898e-016 I I #
coedge $-1 -1 $-1 $89 $89 $114 $115 forward $59 $-1 #
face $-1 -1 $-1 $116 $117 $2 $-1 $118 forward single #
plane-surface $-1 -1 $-1 0.62499999999999989 0.21653543307086615 0 0 1 0 -0.39370078740157477 0 0 forward_v I I I I #
face $-1 -1 $-1 $119 $120 $2 $-1 $121 reversed single #
loop $-1 -1 $-1 $80 $122 $63 #
plane-surface $-1 -1 $-1 0.14674847741263991 0.3346456692913386 0.25 0 1 0 0 0 0.39370078740157477 forward_v I I I I #
coedge $-1 -1 $-1 $123 $65 $83 $109 forward $37 $-1 #
coedge $-1 -1 $-1 $65 $123 $66 $98 reversed $37 $-1 #
coedge $-1 -1 $-1 $67 $66 $124 $125 reversed $20 $-1 #
edge $-1 -1 $-1 $99 0 $126 0.30000000000000004 $96 $127 forward @7 unknown #
vertex $-1 -1 $-1 $69 $128 #
straight-curve $-1 -1 $-1 0.32277606702610379 0.21653543307086615 0.21763817245343969 0.19685039370078719 0 0.34095488337970031 I I #
coedge $-1 -1 $-1 $124 $74 $70 $102 forward $80 $-1 #
edge $-1 -1 $-1 $76 -0.65142904674558999 $103 -0.32811289599939963 $101 $129 forward @7 unknown #
vertex $-1 -1 $-1 $102 $130 #
straight-curve $-1 -1 $-1 0.40510508843578918 0.21653543307086615 0.36023622047244086 0 0.39370078740157477 0 I I #
point $-1 -1 $-1 0.40510508843578918 0.21653543307086615 0.36023622047244086 #
straight-curve $-1 -1 $-1 0.50805594913184338 0.3346456692913386 0.40239254000881136 -0.19685039370078744 0 0.3409548833797002 I I #
point $-1 -1 $-1 0.53239491156421059 0.3346456692913386 0.36023622047244092 #
coedge $-1 -1 $-1 $79 $124 $123 $131 forward $80 $-1 #
edge $-1 -1 $-1 $87 0 $110 0.30000000000000004 $83 $132 forward @7 unknown #
vertex $-1 -1 $-1 $131 $133 #
straight-curve $-1 -1 $-1 0.33957169448842534 0.3346456692913386 0.13976377952755908 0.39370078740157477 0 2.7038282991894898e-016 I I #
straight-curve $-1 -1 $-1 0.46285169828126416 0.21653543307086615 0.039743717310339724 -0.19685039370078777 0 0.34095488337970009 I I #
point $-1 -1 $-1 0.40510508843578935 0.21653543307086615 0.13976377952755911 #
coedge $-1 -1 $-1 $114 $114 $89 $115 reversed $134 $-1 #
edge $-1 -1 $-1 $135 -3.1415926535897931 $135 3.1415926535897931 $89 $136 forward @7 unknown #
face $-1 -1 $-1 $137 $138 $2 $-1 $139 forward single #
loop $-1 -1 $-1 $-1 $140 $90 #
plane-surface $-1 -1 $-1 0.62499999999999989 0.01968503937007874 0 1 0 0 0 0.39370078740157477 0 forward_v I I I I #
face $-1 -1 $-1 $141 $142 $2 $-1 $143 forward single #
loop $-1 -1 $-1 $-1 $144 $92 #
plane-surface $-1 -1 $-1 -1.8251937971939993e-017 0.13867774144816378 0 0 0 1 0.39370078740157477 0 0 forward_v I I I I #
coedge $-1 -1 $-1 $145 $146 $147 $148 reversed $93 $-1 #
coedge $-1 -1 $-1 $96 $95 $108 $131 reversed $37 $-1 #
coedge $-1 -1 $-1 $108 $101 $97 $125 forward $80 $-1 #
edge $-1 -1 $-1 $103 -0.44695807990261616 $126 -0.12364192915642584 $124 $149 forward @7 unknown #
vertex $-1 -1 $-1 $125 $150 #
straight-curve $-1 -1 $-1 0.34146017687157859 0.21653543307086615 0.24999999999999994 0 0.39370078740157477 0 I I #
point $-1 -1 $-1 0.34146017687157859 0.21653543307086615 0.24999999999999994 #
straight-curve $-1 -1 $-1 0.27592678292421458 0.3346456692913386 0.36023622047244086 -0.39370078740157477 0 -1.3519141495947444e-016 I I #
point $-1 -1 $-1 0.40510508843578918 0.3346456692913386 0.36023622047244086 #
edge $-1 -1 $-1 $126 -0.038016146216668836 $110 0.28530000452952148 $108 $151 forward @7 unknown #
straight-curve $-1 -1 $-1 0.40510508843578935 0.21653543307086615 0.13976377952755911 0 0.39370078740157477 0 I I #
point $-1 -1 $-1 0.40510508843578935 0.3346456692913386 0.13976377952755911 #
loop $-1 -1 $-1 $-1 $114 $152 #
vertex $-1 -1 $-1 $115 $153 #
ellipse-curve $-1 -1 $-1 0.46875 0.21653543307086615 0.24999999999999997 0 -1 0 -0.062992125984251982 0 0 1 I I #
face $-1 -1 $-1 $154 $155 $2 $-1 $156 forward single #
loop $-1 -1 $-1 $157 $158 $116 #
plane-surface $-1 -1 $-1 0.098043353803297151 0.01968503937007874 0 0 -1 0 0.39370078740157477 0 0 forward_v I I I I #
coedge $-1 -1 $-1 $159 $160 $144 $161 forward $117 $-1 #
face $-1 -1 $-1 $162 $163 $2 $-1 $164 forward single #
loop $-1 -1 $-1 $-1 $165 $119 #
plane-surface $-1 -1 $-1 -1.8251937971939993e-017 0.13867774144816378 0.49999999999999994 0 0 1 0.39370078740157477 0 0 forward_v I I I I #
coedge $-1 -1 $-1 $166 $167 $140 $161 reversed $120 $-1 #
coedge $-1 -1 $-1 $168 $122 $169 $170 forward $93 $-1 #
coedge $-1 -1 $-1 $122 $168 $167 $171 forward $93 $-1 #
coedge $-1 -1 $-1 $172 $173 $122 $148 forward $163 $-1 #
edge $-1 -1 $-1 $174 -1.2700000000000002 $175 -0 $147 $176 forward @7 unknown #
straight-curve $-1 -1 $-1 0.31712121443921132 0.3346456692913386 0.20784368046362958 -0.19685039370078719 0 -0.34095488337970031 I I #
point $-1 -1 $-1 0.34146017687157859 0.3346456692913386 0.24999999999999994 #
straight-curve $-1 -1 $-1 0.34894367022131656 0.3346456692913386 0.23703820930014999 0.19685039370078777 0 -0.34095488337970009 I I #
face $-1 -1 $-1 $177 $178 $2 $-1 $179 reversed single #
point $-1 -1 $-1 0.53174212598425186 0.21653543307086615 0.24999999999999997 #
face $-1 -1 $-1 $-1 $180 $2 $-1 $181 forward single #
loop $-1 -1 $-1 $-1 $182 $137 #
cone-surface $-1 -1 $-1 0 -8.7419135797256413e-017 0 0 0 1 -0.098043353803296873 -0.019685039370078771 0 1 I I 0 -1 0.099999999999999992 forward I I I I #
loop $-1 -1 $-1 $-1 $183 $116 #
coedge $-1 -1 $-1 $158 $158 $184 $185 forward $138 $-1 #
coedge $-1 -1 $-1 $186 $140 $168 $187 reversed $117 $-1 #
coedge $-1 -1 $-1 $140 $186 $188 $189 reversed $117 $-1 #
edge $-1 -1 $-1 $190 0 $191 0.80000000000000004 $140 $192 forward @7 unknown #
face $-1 -1 $-1 $193 $194 $2 $-1 $195 forward single #
loop $-1 -1 $-1 $-1 $147 $141 #
cone-surface $-1 -1 $-1 0 -8.7419135797256413e-017 0 0 0 1 0.30616565160842651 0.21653543307086617 0 1 I I 0 1 0.375 forward I I I I #
coedge $-1 -1 $-1 $196 $169 $173 $197 forward $142 $-1 #
coedge $-1 -1 $-1 $198 $144 $183 $199 reversed $120 $-1 #
coedge $-1 -1 $-1 $144 $200 $146 $171 reversed $120 $-1 #
coedge $-1 -1 $-1 $146 $145 $159 $187 forward $93 $-1 #
coedge $-1 -1 $-1 $165 $201 $145 $170 reversed $142 $-1 #
edge $-1 -1 $-1 $174 0.46201130616596253 $202 1.6196784898291923 $169 $203 forward @7 unknown #
edge $-1 -1 $-1 $191 0 $175 1.15766718366323 $167 $204 forward @7 unknown #
coedge $-1 -1 $-1 $205 $147 $200 $206 forward $163 $-1 #
coedge $-1 -1 $-1 $147 $205 $165 $197 reversed $163 $-1 #
vertex $-1 -1 $-1 $197 $207 #
vertex $-1 -1 $-1 $206 $208 #
straight-curve $-1 -1 $-1 0.16922551824282284 0.3346456692913386 0 -0 -0 -0.39370078740157477 I I #
face $-1 -1 $-1 $209 $210 $2 $-1 $211 reversed single #
loop $-1 -1 $-1 $134 $184 $152 #
cone-surface $-1 -1 $-1 0.46875 0.21653543307086615 0.24999999999999997 0 -1 0 -0.062992125984251982 0 0 1 I I 0 1 0.062992125984251982 forward I I I I #
loop $-1 -1 $-1 $212 $213 $154 #
plane-surface $-1 -1 $-1 -0.62499999999999989 0.01968503937007874 0 0 -1 0 0.39370078740157477 0 0 forward_v I I I I #
coedge $-1 -1 $-1 $214 $215 $216 $217 forward $155 $-1 #
coedge $-1 -1 $-1 $188 $218 $166 $199 forward $157 $-1 #
coedge $-1 -1 $-1 $184 $184 $158 $185 reversed $178 $-1 #
edge $-1 -1 $-1 $219 -3.1415926535897931 $219 3.1415926535897931 $158 $220 forward @7 unknown #
coedge $-1 -1 $-1 $160 $159 $201 $221 reversed $117 $-1 #
edge $-1 -1 $-1 $202 -0 $191 1.27 $159 $222 forward @7 unknown #
coedge $-1 -1 $-1 $223 $183 $160 $189 forward $157 $-1 #
edge $-1 -1 $-1 $190 0 $224 1.27 $188 $225 forward @7 unknown #
vertex $-1 -1 $-1 $199 $226 #
vertex $-1 -1 $-1 $161 $227 #
straight-curve $-1 -1 $-1 0.62499999999999989 0.01968503937007874 0 0 0.39370078740157477 0 F 0 F 0.80000000000000004 #
face $-1 -1 $-1 $152 $228 $2 $-1 $229 reversed single #
loop $-1 -1 $-1 $-1 $230 $162 #
cone-surface $-1 -1 $-1 0 -8.7419135797256413e-017 0 0 0 -1 -0.31187938249425601 0.019685039370078827 0 1 I I 0 1 0.3125 forward I I I I #
coedge $-1 -1 $-1 $231 $165 $232 $233 forward $142 $-1 #
edge $-1 -1 $-1 $174 0.487035843347572 $234 1.910443266225669 $173 $235 forward @7 unknown #
coedge $-1 -1 $-1 $236 $166 $230 $237 forward $120 $-1 #
edge $-1 -1 $-1 $238 0.54314351287503571 $190 1.3384698813396252 $183 $239 forward @7 unknown #
coedge $-1 -1 $-1 $167 $240 $172 $206 reversed $120 $-1 #
coedge $-1 -1 $-1 $169 $241 $186 $221 forward $142 $-1 #
vertex $-1 -1 $-1 $221 $242 #
straight-curve $-1 -1 $-1 -0.01266869678314664 0.3346456692913386 0.50000000000000011 0.39370078740157477 0 -2.158925647187559e-016 I I #
straight-curve $-1 -1 $-1 0.62499999999999989 0.3346456692913386 0 -0.39370078740157477 0 0 I I #
coedge $-1 -1 $-1 $173 $172 $243 $244 forward $163 $-1 #
edge $-1 -1 $-1 $175 0.487035843347572 $245 1.910443266225669 $172 $246 forward @7 unknown #
point $-1 -1 $-1 0.16922551824282284 0.3346456692913386 0.5 #
point $-1 -1 $-1 0.16922551824282284 0.3346456692913386 0 #
face $-1 -1 $-1 $247 $248 $2 $-1 $249 forward single #
loop $-1 -1 $-1 $250 $251 $177 #
cone-surface $-1 -1 $-1 -0.46875 0.21653543307086615 0.24999999999999997 0 -1 0 -0.062992125984251982 0 0 1 I I 0 1 0.062992125984251982 forward I I I I #
loop $-1 -1 $-1 $-1 $252 $154 #
coedge $-1 -1 $-1 $213 $213 $251 $253 forward $180 $-1 #
coedge $-1 -1 $-1 $254 $182 $255 $256 reversed $155 $-1 #
coedge $-1 -1 $-1 $182 $254 $257 $258 reversed $155 $-1 #
coedge $-1 -1 $-1 $259 $223 $182 $217 reversed $157 $-1 #
edge $-1 -1 $-1 $260 -0.15875 $261 1.27 $182 $262 forward @7 unknown #
coedge $-1 -1 $-1 $183 $259 $263 $264 reversed $157 $-1 #
vertex $-1 -1 $-1 $185 $265 #
ellipse-curve $-1 -1 $-1 0.46875 0.019685039370078757 0.24999999999999997 0 1 0 -0.062992125984251982 0 0 1 I I #
edge $-1 -1 $-1 $224 0 $202 0.80000000000000004 $186 $266 forward @7 unknown #
straight-curve $-1 -1 $-1 0.62499999999999989 0.3346456692913386 0.49999999999999994 -0 -0 -0.39370078740157477 I I #
coedge $-1 -1 $-1 $216 $188 $241 $267 reversed $157 $-1 #
vertex $-1 -1 $-1 $189 $268 #
straight-curve $-1 -1 $-1 0.62499999999999989 0.01968503937007874 0 0 0 0.39370078740157477 I I #
point $-1 -1 $-1 0.62499999999999989 0.01968503937007874 0 #
point $-1 -1 $-1 0.62499999999999989 0.3346456692913386 0 #
loop $-1 -1 $-1 $-1 $269 $193 #
plane-surface $-1 -1 $-1 -6.976544511541001e-017 0.12632657347945142 -0.062499999999999993 0 0 1 0.39370078740157477 0 0 forward_v I I I I #
coedge $-1 -1 $-1 $263 $270 $198 $237 reversed $194 $-1 #
coedge $-1 -1 $-1 $271 $196 $272 $273 forward $142 $-1 #
coedge $-1 -1 $-1 $243 $274 $196 $233 reversed $275 $-1 #
edge $-1 -1 $-1 $234 -0 $276 0.80983924491459636 $232 $277 forward @7 unknown #
vertex $-1 -1 $-1 $244 $278 #
ellipse-curve $-1 -1 $-1 0 -8.7419135797256413e-017 0.49999999999999994 0 0 1 0.30616565160842651 0.21653543307086617 0 1 I I #
coedge $-1 -1 $-1 $279 $198 $252 $280 reversed $120 $-1 #
edge $-1 -1 $-1 $238 -3.0155249347445374 $281 1.1013434431150412e-017 $198 $282 forward @7 unknown #
vertex $-1 -1 $-1 $199 $283 #
straight-curve $-1 -1 $-1 0.098043353803297151 0.01968503937007874 0 0.39370078740157477 0 0 F 0 F 1.3384698813396252 #
coedge $-1 -1 $-1 $200 $279 $284 $285 reversed $120 $-1 #
coedge $-1 -1 $-1 $201 $255 $223 $267 forward $142 $-1 #
point $-1 -1 $-1 0.62499999999999989 0.3346456692913386 0.49999999999999994 #
coedge $-1 -1 $-1 $284 $232 $205 $244 reversed $275 $-1 #
edge $-1 -1 $-1 $245 0 $234 1.27 $205 $286 forward @7 unknown #
vertex $-1 -1 $-1 $206 $287 #
ellipse-curve $-1 -1 $-1 0 -8.7419135797256413e-017 0 0 0 1 0.30616565160842651 0.21653543307086617 0 1 F 0 F 1.910443266225669 #
face $-1 -1 $-1 $60 $288 $2 $-1 $289 forward single #
loop $-1 -1 $-1 $-1 $290 $209 #
plane-surface $-1 -1 $-1 -0.62499999999999989 0.21653543307086615 0 -1 0 0 -0 -0.39370078740157477 -0 forward_v I I I I #
loop $-1 -1 $-1 $-1 $291 $177 #
coedge $-1 -1 $-1 $251 $251 $213 $253 reversed $210 $-1 #
coedge $-1 -1 $-1 $292 $293 $236 $280 forward $212 $-1 #
edge $-1 -1 $-1 $294 -3.1415926535897931 $294 3.1415926535897931 $213 $295 forward @7 unknown #
coedge $-1 -1 $-1 $215 $214 $296 $297 reversed $155 $-1 #
coedge $-1 -1 $-1 $241 $271 $214 $256 forward $142 $-1 #
edge $-1 -1 $-1 $298 0.39628883149226496 $261 3.1415926535897931 $214 $299 forward @7 unknown #
coedge $-1 -1 $-1 $269 $300 $215 $258 forward $228 $-1 #
edge $-1 -1 $-1 $260 0.3962888314922649 $301 3.1415926535897931 $215 $302 forward @7 unknown #
coedge $-1 -1 $-1 $218 $216 $300 $303 reversed $157 $-1 #
vertex $-1 -1 $-1 $217 $304 #
vertex $-1 -1 $-1 $217 $305 #
straight-curve $-1 -1 $-1 0.098043353803297151 0.01968503937007874 0 0 0 0.39370078740157477 I I #
coedge $-1 -1 $-1 $306 $230 $218 $264 forward $194 $-1 #
edge $-1 -1 $-1 $238 0 $307 0.15875 $263 $308 forward @7 unknown #
point $-1 -1 $-1 0.53174212598425186 0.019685039370078757 0.24999999999999997 #
straight-curve $-1 -1 $-1 0.62499999999999989 0.01968503937007874 0.49999999999999994 0 0.39370078740157477 0 I I #
edge $-1 -1 $-1 $261 0 $224 1.3384698813396252 $223 $309 forward @7 unknown #
point $-1 -1 $-1 0.62499999999999989 0.01968503937007874 0.49999999999999994 #
coedge $-1 -1 $-1 $310 $257 $311 $312 forward $228 $-1 #
coedge $-1 -1 $-1 $230 $306 $292 $313 reversed $194 $-1 #
coedge $-1 -1 $-1 $255 $231 $314 $315 forward $142 $-1 #
coedge $-1 -1 $-1 $316 $317 $231 $273 reversed $248 $-1 #
edge $-1 -1 $-1 $276 -0 $318 0.5 $272 $319 forward @7 unknown #
coedge $-1 -1 $-1 $232 $284 $316 $320 forward $275 $-1 #
loop $-1 -1 $-1 $-1 $284 $247 #
vertex $-1 -1 $-1 $320 $321 #
straight-curve $-1 -1 $-1 -0.30616565160842657 0.21653543307086615 0.49999999999999994 -0.39370078740157477 -0 -0 I I #
point $-1 -1 $-1 -0.30616565160842657 0.21653543307086615 0.49999999999999994 #
coedge $-1 -1 $-1 $240 $236 $290 $322 reversed $120 $-1 #
edge $-1 -1 $-1 $323 0 $281 0.79532636846458948 $252 $324 forward @7 unknown #
vertex $-1 -1 $-1 $313 $325 #
ellipse-curve $-1 -1 $-1 0 -8.7419135797256413e-017 0 0 0 1 -0.31187938249425601 0.019685039370078827 0 1 I I #
point $-1 -1 $-1 0.31187938249425606 0.01968503937007874 0 #
coedge $-1 -1 $-1 $274 $243 $240 $285 forward $275 $-1 #
edge $-1 -1 $-1 $245 -0 $326 0.80983924491459636 $284 $327 forward @7 unknown #
straight-curve $-1 -1 $-1 -0.30616565160842657 0.21653543307086615 0 0 0 0.39370078740157477 I I #
point $-1 -1 $-1 -0.30616565160842657 0.21653543307086615 0 #
loop $-1 -1 $-1 $275 $328 $247 #
plane-surface $-1 -1 $-1 -0.30616565160842657 0.21653543307086615 0 0 1 0 -0.39370078740157477 -0 -0 forward_v I I I I #
coedge $-1 -1 $-1 $317 $316 $279 $322 forward $248 $-1 #
coedge $-1 -1 $-1 $291 $291 $328 $329 reversed $250 $-1 #
coedge $-1 -1 $-1 $311 $252 $270 $313 forward $212 $-1 #
coedge $-1 -1 $-1 $252 $314 $317 $330 reversed $212 $-1 #
vertex $-1 -1 $-1 $253 $331 #
ellipse-curve $-1 -1 $-1 -0.46875 0.019685039370078757 0.24999999999999997 0 1 0 -0.062992125984251982 0 0 1 I I #
coedge $-1 -1 $-1 $314 $311 $254 $297 forward $212 $-1 #
edge $-1 -1 $-1 $301 -0.15875 $298 1.27 $296 $332 forward @7 unknown #
vertex $-1 -1 $-1 $297 $333 #
ellipse-curve $-1 -1 $-1 0 -8.7419135797256413e-017 0.49999999999999994 0 0 -1 -0.098043353803296873 -0.019685039370078771 -0 1 I I #
coedge $-1 -1 $-1 $257 $310 $259 $303 forward $228 $-1 #
vertex $-1 -1 $-1 $297 $334 #
ellipse-curve $-1 -1 $-1 0 -8.7419135797256413e-017 -0.062499999999999993 0 0 1 0.098043353803296859 -0.019685039370078771 0 1 I I #
edge $-1 -1 $-1 $307 0.79532636846458948 $260 1.3384698813396252 $259 $335 forward @7 unknown #
point $-1 -1 $-1 0.098043353803297151 0.01968503937007874 -0.062499999999999993 #
point $-1 -1 $-1 0.098043353803297123 0.01968503937007874 0.49999999999999994 #
coedge $-1 -1 $-1 $270 $263 $310 $336 reversed $194 $-1 #
vertex $-1 -1 $-1 $264 $337 #
straight-curve $-1 -1 $-1 0.31187938249425606 0.01968503937007874 0 0 0 -0.39370078740157477 I I #
straight-curve $-1 -1 $-1 0.098043353803297151 0.01968503937007874 0.49999999999999994 0.39370078740157477 0 0 I I #
coedge $-1 -1 $-1 $300 $269 $306 $336 forward $228 $-1 #
coedge $-1 -1 $-1 $296 $292 $269 $312 reversed $212 $-1 #
edge $-1 -1 $-1 $301 5.5511151231257827e-017 $338 0.54314351287503571 $311 $339 forward @7 unknown #
edge $-1 -1 $-1 $281 0 $338 0.15875 $292 $340 forward @7 unknown #
coedge $-1 -1 $-1 $293 $296 $271 $315 reversed $212 $-1 #
edge $-1 -1 $-1 $318 0 $298 1.3384698813396252 $314 $341 forward @7 unknown #
coedge $-1 -1 $-1 $290 $272 $274 $320 reversed $248 $-1 #
coedge $-1 -1 $-1 $272 $290 $293 $330 forward $248 $-1 #
vertex $-1 -1 $-1 $330 $342 #
straight-curve $-1 -1 $-1 -0.62499999999999989 0.21653543307086615 0.49999999999999994 -0 -0.39370078740157477 -0 I I #
edge $-1 -1 $-1 $326 0 $276 1.27 $274 $343 forward @7 unknown #
point $-1 -1 $-1 -0.62499999999999989 0.21653543307086615 0.49999999999999994 #
edge $-1 -1 $-1 $326 -0 $323 0.5 $290 $344 forward @7 unknown #
vertex $-1 -1 $-1 $280 $345 #
straight-curve $-1 -1 $-1 -0.62499999999999989 0.01968503937007874 0 0.39370078740157477 0 0 F 0 F 1.3384698813396252 #
point $-1 -1 $-1 -0.31187938249425606 0.01968503937007874 0 #
vertex $-1 -1 $-1 $285 $346 #
straight-curve $-1 -1 $-1 -0.30616565160842657 0.21653543307086615 0 -0.39370078740157477 -0 -0 F -0 F 0.80983924491459636 #
coedge $-1 -1 $-1 $328 $328 $291 $329 forward $288 $-1 #
edge $-1 -1 $-1 $347 -3.1415926535897931 $347 3.1415926535897931 $328 $348 forward @7 unknown #
edge $-1 -1 $-1 $323 0 $318 1.27 $293 $349 forward @7 unknown #
point $-1 -1 $-1 -0.40575787401574803 0.019685039370078757 0.24999999999999997 #
straight-curve $-1 -1 $-1 -0.098043353803297151 0.01968503937007874 0 0 0 0.39370078740157477 I I #
point $-1 -1 $-1 -0.098043353803297123 0.01968503937007874 0.49999999999999994 #
point $-1 -1 $-1 -0.098043353803297151 0.01968503937007874 -0.062499999999999993 #
straight-curve $-1 -1 $-1 0.62499999999999989 0.01968503937007874 -0.062499999999999993 -0.39370078740157477 -0 -0 I I #
edge $-1 -1 $-1 $338 0 $307 3.0155249347445361 $306 $350 forward @7 unknown #
point $-1 -1 $-1 0.31187938249425606 0.01968503937007874 -0.062499999999999993 #
vertex $-1 -1 $-1 $313 $351 #
straight-curve $-1 -1 $-1 -0.098043353803297123 0.01968503937007874 -0.062499999999999993 -0.39370078740157477 -0 -0 I I #
straight-curve $-1 -1 $-1 -0.31187938249425606 0.01968503937007874 0 0 0 -0.39370078740157477 I I #
straight-curve $-1 -1 $-1 -0.62499999999999989 0.01968503937007874 0.49999999999999994 0.39370078740157477 0 0 I I #
point $-1 -1 $-1 -0.62499999999999989 0.01968503937007874 0.49999999999999994 #
straight-curve $-1 -1 $-1 -0.62499999999999989 0.21653543307086615 0 0 0 0.39370078740157477 I I #
straight-curve $-1 -1 $-1 -0.62499999999999989 0.21653543307086615 0 -0 -0.39370078740157477 -0 F -0 F 0.5 #
point $-1 -1 $-1 -0.62499999999999989 0.01968503937007874 0 #
point $-1 -1 $-1 -0.62499999999999989 0.21653543307086615 0 #
vertex $-1 -1 $-1 $329 $352 #
ellipse-curve $-1 -1 $-1 -0.46875 0.21653543307086615 0.24999999999999997 -0 -1 -0 -0.062992125984251982 0 0 1 I I #
straight-curve $-1 -1 $-1 -0.62499999999999989 0.01968503937007874 0 0 0 0.39370078740157477 I I #
ellipse-curve $-1 -1 $-1 0 -8.7419135797256413e-017 -0.062499999999999993 0 0 -1 -0.31187938249425601 0.019685039370078827 0 1 I I #
point $-1 -1 $-1 -0.31187938249425606 0.01968503937007874 -0.062499999999999993 #
point $-1 -1 $-1 -0.40575787401574803 0.21653543307086615 0.24999999999999997 #
End-of-ACIS-data 