700 0 1 0           
33 Autodesk Inventor 17.0.13800.0000 19 ASM 218.0.0.5119 NT 24 Tue Dec 10 11:02:35 2013 
1 9.9999999999999995e-007 1e-010 
body $-1 -1 $-1 $1 $-1 $-1 #
lump $-1 -1 $-1 $-1 $2 $0 #
shell $-1 -1 $-1 $-1 $-1 $3 $-1 $1 #
face $-1 -1 $-1 $4 $5 $2 $-1 $6 forward single #
face $-1 -1 $-1 $7 $8 $2 $-1 $9 forward single #
loop $-1 -1 $-1 $-1 $10 $3 #
torus-surface $-1 -1 $-1 197.77212633625908 -114.18379037844389 6.3499999999999996 -0 -0 -1 23.812500000000007 6.3499999999999996 -1 0 0 forward_v I I I I #
face $-1 -1 $-1 $11 $12 $2 $-1 $13 forward single #
loop $-1 -1 $-1 $-1 $14 $4 #
torus-surface $-1 -1 $-1 0 1445.2157093379815 6.3499999999999996 -0 -0 -1 1595.7032766353884 6.3499999999999996 -1 0 0 forward_v I I I I #
coedge $-1 -1 $-1 $15 $16 $17 $18 forward $5 $-1 #
face $-1 -1 $-1 $19 $20 $2 $-1 $21 forward single #
loop $-1 -1 $-1 $-1 $22 $7 #
torus-surface $-1 -1 $-1 -197.77212633625908 -114.18379037844389 6.3499999999999996 -0 -0 -1 23.812499999999996 6.3499999999999996 -1 0 0 forward_v I I I I #
coedge $-1 -1 $-1 $23 $24 $25 $26 forward $8 $-1 #
coedge $-1 -1 $-1 $27 $10 $28 $29 forward $5 $-1 #
coedge $-1 -1 $-1 $10 $27 $30 $31 forward $5 $-1 #
coedge $-1 -1 $-1 $32 $33 $10 $18 reversed $34 $-1 #
edge $-1 -1 $-1 $35 0 $36 1.5707963267948966 $10 $37 forward @7 tangent #
face $-1 -1 $-1 $38 $39 $2 $-1 $40 forward single #
loop $-1 -1 $-1 $-1 $41 $11 #
torus-surface $-1 -1 $-1 1251.5935182350399 -722.60785466899029 6.3499999999999996 -0 -0 -1 1595.7032766353884 6.3499999999999996 -1 0 0 forward_v I I I I #
coedge $-1 -1 $-1 $42 $43 $44 $45 forward $12 $-1 #
coedge $-1 -1 $-1 $46 $14 $47 $48 forward $8 $-1 #
coedge $-1 -1 $-1 $14 $46 $49 $50 forward $8 $-1 #
coedge $-1 -1 $-1 $43 $42 $14 $26 reversed $12 $-1 #
edge $-1 -1 $-1 $51 0 $52 1.5707963267948966 $14 $53 forward @7 tangent #
coedge $-1 -1 $-1 $16 $15 $46 $54 forward $5 $-1 #
coedge $-1 -1 $-1 $55 $56 $15 $29 reversed $57 $-1 #
edge $-1 -1 $-1 $36 -0.92104522817683021 $58 0.92104522817682977 $28 $59 forward @7 tangent #
coedge $-1 -1 $-1 $47 $60 $16 $31 reversed $61 $-1 #
edge $-1 -1 $-1 $62 -0.92104522817682899 $35 0.92104522817682988 $30 $63 forward @7 tangent #
coedge $-1 -1 $-1 $64 $17 $60 $65 forward $34 $-1 #
coedge $-1 -1 $-1 $17 $64 $66 $67 forward $34 $-1 #
loop $-1 -1 $-1 $-1 $17 $38 #
vertex $-1 -1 $-1 $31 $68 #
vertex $-1 -1 $-1 $69 $70 #
ellipse-curve $-1 -1 $-1 219.72849883004568 -104.96680262950483 6.3499999999999996 0.38706510231765245 -0.92205238819051127 0 0 0 -6.3499999999999996 1 F 0 F 1.5707963267948966 #
face $-1 -1 $-1 $71 $34 $2 $-1 $72 forward single #
loop $-1 -1 $-1 $-1 $73 $19 #
torus-surface $-1 -1 $-1 -3.5442222658252432e-014 228.36758075688792 6.3499999999999996 -0 -0 -1 23.812499999999996 6.3499999999999996 -1 0 0 forward_v I I I I #
coedge $-1 -1 $-1 $74 $75 $76 $77 forward $20 $-1 #
coedge $-1 -1 $-1 $25 $22 $78 $79 forward $12 $-1 #
coedge $-1 -1 $-1 $22 $25 $80 $81 forward $12 $-1 #
coedge $-1 -1 $-1 $75 $74 $22 $45 reversed $20 $-1 #
edge $-1 -1 $-1 $82 0 $83 1.5707963267948966 $22 $84 forward @7 tangent #
coedge $-1 -1 $-1 $24 $23 $27 $54 reversed $8 $-1 #
coedge $-1 -1 $-1 $78 $30 $23 $48 reversed $61 $-1 #
edge $-1 -1 $-1 $52 -0.12615232301976825 $62 0.12615232301976859 $47 $85 forward @7 tangent #
coedge $-1 -1 $-1 $86 $87 $24 $50 reversed $88 $-1 #
edge $-1 -1 $-1 $58 -0.12615232301976861 $51 0.12615232301976823 $49 $89 forward @7 tangent #
vertex $-1 -1 $-1 $90 $91 #
vertex $-1 -1 $-1 $48 $92 #
ellipse-curve $-1 -1 $-1 -200.76816704620128 -137.80706060748682 6.3499999999999996 0.99205334295192038 -0.12581798256974 0 -0.79894418931782951 -6.2995387277445403 0 1 F 0 F 1.5707963267948966 #
edge $-1 -1 $-1 $58 0 $62 1.5707963267948966 $27 $93 forward @7 tangent #
coedge $-1 -1 $-1 $94 $28 $95 $69 forward $57 $-1 #
coedge $-1 -1 $-1 $28 $94 $86 $96 reversed $57 $-1 #
loop $-1 -1 $-1 $-1 $28 $97 #
vertex $-1 -1 $-1 $96 $98 #
ellipse-curve $-1 -1 $-1 197.77212633625908 -114.18379037844389 6.3499999999999996 -0 -0 -1 26.121491241648123 -15.081249999999997 0 1 F -1.4240636511775497 F 1.1815654040871522 #
coedge $-1 -1 $-1 $30 $99 $32 $65 reversed $61 $-1 #
loop $-1 -1 $-1 $-1 $30 $100 #
vertex $-1 -1 $-1 $31 $101 #
ellipse-curve $-1 -1 $-1 197.77212633625908 -114.18379037844389 0 0 0 1 20.622229927616949 -11.906250000000004 0 1 F -1.1815654040871522 F 1.4240636511775497 #
coedge $-1 -1 $-1 $33 $32 $73 $102 reversed $34 $-1 #
edge $-1 -1 $-1 $35 -0.1261523230197687 $103 0.12615232301976842 $60 $104 forward @7 tangent #
coedge $-1 -1 $-1 $105 $95 $33 $67 reversed $106 $-1 #
edge $-1 -1 $-1 $107 -0.12615232301976834 $36 0.12615232301976864 $66 $108 forward @7 tangent #
point $-1 -1 $-1 219.72849883004568 -104.96680262950483 0 #
edge $-1 -1 $-1 $36 0.63500000000000001 $109 1.25 $55 $110 forward @7 tangent #
point $-1 -1 $-1 225.58353149505558 -102.50893922978767 6.3499999999999996 #
face $-1 -1 $-1 $111 $112 $2 $-1 $113 forward single #
torus-surface $-1 -1 $-1 -1251.5935182350395 -722.60785466899029 6.3499999999999996 -0 -0 -1 1595.7032766353882 6.3499999999999996 -1 0 0 forward_v I I I I #
coedge $-1 -1 $-1 $114 $115 $64 $102 forward $39 $-1 #
coedge $-1 -1 $-1 $44 $41 $116 $117 forward $20 $-1 #
coedge $-1 -1 $-1 $41 $44 $118 $119 forward $20 $-1 #
coedge $-1 -1 $-1 $115 $114 $41 $77 reversed $39 $-1 #
edge $-1 -1 $-1 $120 0 $121 1.5707963267948966 $41 $122 forward @7 tangent #
coedge $-1 -1 $-1 $116 $47 $42 $79 reversed $61 $-1 #
edge $-1 -1 $-1 $83 -0.92104522817682954 $52 0.92104522817682721 $78 $123 forward @7 tangent #
coedge $-1 -1 $-1 $124 $125 $43 $81 reversed $112 $-1 #
edge $-1 -1 $-1 $51 -0.92104522817682921 $82 0.9210452281768291 $80 $126 forward @7 tangent #
vertex $-1 -1 $-1 $127 $128 #
vertex $-1 -1 $-1 $79 $129 #
ellipse-curve $-1 -1 $-1 -219.72849883004562 -104.96680262950485 6.3499999999999996 -0.38706510231764746 -0.92205238819051338 -0 -5.8550326650096451 2.457863399717013 0 1 F 0 F 1.5707963267948966 #
ellipse-curve $-1 -1 $-1 0 1445.2157093379815 0 0 0 1 -3.1847687257342037e-013 -1595.7032766353884 0 1 F -0.13107101678474894 F 0.13107101678474933 #
coedge $-1 -1 $-1 $130 $49 $56 $96 forward $88 $-1 #
coedge $-1 -1 $-1 $49 $130 $124 $90 reversed $88 $-1 #
loop $-1 -1 $-1 $-1 $49 $111 #
ellipse-curve $-1 -1 $-1 0 1445.2157093379815 6.3499999999999996 -0 -0 -1 -3.1974423109204503e-013 -1602.0532766353881 0 1 F -0.13107101678474933 F 0.13107101678474894 #
edge $-1 -1 $-1 $51 0.63500000000000001 $131 1.25 $124 $132 forward @7 tangent #
point $-1 -1 $-1 -201.56711123551912 -144.10659933523135 6.3499999999999996 #
point $-1 -1 $-1 -200.76816704620128 -137.80706060748682 0 #
ellipse-curve $-1 -1 $-1 200.7681670462012 -137.80706060748648 6.3499999999999996 0.99205334295191983 0.12581798256974441 0 0.79894418931790057 -6.2995387277448778 0 1 F 0 F 1.5707963267948966 #
coedge $-1 -1 $-1 $56 $55 $133 $134 reversed $57 $-1 #
coedge $-1 -1 $-1 $66 $135 $55 $69 reversed $106 $-1 #
edge $-1 -1 $-1 $58 0.63500000000000001 $136 1.25 $86 $137 forward @7 tangent #
face $-1 -1 $-1 $100 $57 $2 $-1 $138 forward single #
point $-1 -1 $-1 201.56711123551912 -144.10659933523135 6.3499999999999996 #
coedge $-1 -1 $-1 $60 $116 $114 $139 reversed $61 $-1 #
face $-1 -1 $-1 $140 $141 $2 $-1 $142 reversed single #
point $-1 -1 $-1 200.7681670462012 -137.80706060748648 0 #
edge $-1 -1 $-1 $107 0 $103 1.5707963267948966 $73 $143 forward @7 tangent #
vertex $-1 -1 $-1 $139 $144 #
ellipse-curve $-1 -1 $-1 -1251.5935182350395 -722.60785466899029 0 0 0 1 1381.9195744683138 797.85163831769398 0 1 F -0.1261523230197687 F 0.12615232301976842 #
coedge $-1 -1 $-1 $135 $66 $145 $146 forward $106 $-1 #
loop $-1 -1 $-1 $-1 $66 $147 #
vertex $-1 -1 $-1 $146 $148 #
ellipse-curve $-1 -1 $-1 -1251.5935182350395 -722.60785466899029 6.3499999999999996 -0 -0 -1 1387.4188357823448 801.02663831769382 0 1 F -0.12615232301976842 F 0.1261523230197687 #
vertex $-1 -1 $-1 $69 $149 #
straight-curve $-1 -1 $-1 225.58353149505558 -102.50893922978767 0 0 0 10 I I #
face $-1 -1 $-1 $97 $88 $2 $-1 $150 forward single #
loop $-1 -1 $-1 $-1 $80 $71 #
cone-surface $-1 -1 $-1 -197.77212633625908 -114.18379037844389 0 0 0 1 27.81140515879633 -11.674851148656094 0 1 I I 0 1 30.162499999999994 forward I I I I #
coedge $-1 -1 $-1 $76 $73 $99 $139 forward $39 $-1 #
coedge $-1 -1 $-1 $73 $76 $151 $152 forward $39 $-1 #
coedge $-1 -1 $-1 $99 $78 $74 $117 reversed $61 $-1 #
edge $-1 -1 $-1 $121 -0.12615232301976809 $83 0.1261523230197687 $116 $153 forward @7 tangent #
coedge $-1 -1 $-1 $154 $155 $75 $119 reversed $156 $-1 #
edge $-1 -1 $-1 $82 -0.12615232301976881 $120 0.12615232301976814 $118 $157 forward @7 tangent #
vertex $-1 -1 $-1 $158 $159 #
vertex $-1 -1 $-1 $117 $160 #
ellipse-curve $-1 -1 $-1 -18.960331783844868 242.77386323699159 6.3499999999999996 -0.60498824063428047 -0.79623440562075565 -0 -5.0560884756916424 3.8416753280275628 0 1 F 0 F 1.5707963267948966 #
ellipse-curve $-1 -1 $-1 -197.77212633625908 -114.18379037844389 0 0 0 1 -20.622229927616935 -11.906250000000011 0 1 F -1.4240636511775409 F 1.1815654040871515 #
coedge $-1 -1 $-1 $161 $80 $87 $90 forward $112 $-1 #
coedge $-1 -1 $-1 $80 $161 $154 $127 reversed $112 $-1 #
ellipse-curve $-1 -1 $-1 -197.77212633625908 -114.18379037844389 6.3499999999999996 -0 -0 -1 -26.121491241648119 -15.081250000000015 0 1 F -1.1815654040871515 F 1.4240636511775409 #
edge $-1 -1 $-1 $82 0.63500000000000001 $162 1.25 $154 $163 forward @7 tangent #
point $-1 -1 $-1 -225.5835314950553 -102.50893922978784 6.3499999999999996 #
point $-1 -1 $-1 -219.72849883004562 -104.96680262950485 0 #
coedge $-1 -1 $-1 $87 $86 $164 $165 reversed $88 $-1 #
vertex $-1 -1 $-1 $90 $166 #
straight-curve $-1 -1 $-1 -201.56711123551912 -144.10659933523135 0 0 0 10 I I #
coedge $-1 -1 $-1 $167 $164 $94 $134 forward $168 $-1 #
edge $-1 -1 $-1 $136 -3.1415926535897931 $109 -1.2995021972361336 $94 $169 forward @7 unknown #
coedge $-1 -1 $-1 $95 $105 $167 $170 reversed $106 $-1 #
vertex $-1 -1 $-1 $96 $171 #
straight-curve $-1 -1 $-1 201.56711123551912 -144.10659933523135 0 0 0 10 I I #
cone-surface $-1 -1 $-1 197.77212633625908 -114.18379037844389 0 0 0 1 -3.7949848992600121 29.922808956787268 0 1 I I 0 1 30.162499999999994 forward I I I I #
edge $-1 -1 $-1 $103 -0.92104522817683032 $121 0.92104522817683454 $99 $172 forward @7 tangent #
face $-1 -1 $-1 $173 $174 $2 $-1 $175 forward single #
loop $-1 -1 $-1 $176 $177 $100 #
plane-surface $-1 -1 $-1 8.2423419267489979e-015 3.0496665128971291e-013 0 0 0 1 10 0 0 forward_v I I I I #
ellipse-curve $-1 -1 $-1 18.96033178384441 242.77386323699145 6.3499999999999996 -0.60498824063427059 0.79623440562076309 0 5.056088475692146 3.8416753280278471 0 1 F 0 F 1.5707963267948966 #
point $-1 -1 $-1 18.96033178384441 242.77386323699145 0 #
coedge $-1 -1 $-1 $151 $178 $105 $146 reversed $179 $-1 #
edge $-1 -1 $-1 $107 0.63500000000000001 $180 1.25 $145 $181 forward @7 tangent #
face $-1 -1 $-1 $182 $106 $2 $-1 $183 forward single #
point $-1 -1 $-1 24.016420259536556 246.61553856501928 6.3499999999999996 #
point $-1 -1 $-1 225.58353149505558 -102.50893922978764 12.5 #
cone-surface $-1 -1 $-1 0 1445.2157093379815 0 0 0 1 201.56711123551912 1589.322308673213 0 1 I I 0 1 1602.0532766353881 forward I I I I #
coedge $-1 -1 $-1 $184 $145 $115 $152 reversed $179 $-1 #
edge $-1 -1 $-1 $120 -0.92104522817683032 $107 0.92104522817682988 $151 $185 forward @7 tangent #
ellipse-curve $-1 -1 $-1 1251.5935182350399 -722.60785466899029 0 0 0 1 -1381.9195744683143 797.8516383176941 0 1 F -0.13137181741630513 F 0.12922726086931063 #
coedge $-1 -1 $-1 $186 $118 $125 $127 forward $156 $-1 #
coedge $-1 -1 $-1 $118 $186 $184 $158 reversed $156 $-1 #
loop $-1 -1 $-1 $-1 $118 $182 #
ellipse-curve $-1 -1 $-1 1251.5935182350399 -722.60785466899029 6.3499999999999996 -0 -0 -1 -1387.418835782345 801.02663831769394 0 1 F -0.12922726086931063 F 0.13137181741630513 #
edge $-1 -1 $-1 $120 0.63500000000000001 $187 1.25 $184 $188 forward @7 tangent #
point $-1 -1 $-1 -24.01642025953651 246.61553856501914 6.3499999999999996 #
point $-1 -1 $-1 -18.960331783844868 242.77386323699159 0 #
coedge $-1 -1 $-1 $125 $124 $189 $190 reversed $112 $-1 #
vertex $-1 -1 $-1 $127 $191 #
straight-curve $-1 -1 $-1 -225.5835314950553 -102.50893922978784 0 0 0 10 I I #
coedge $-1 -1 $-1 $133 $189 $130 $165 forward $168 $-1 #
edge $-1 -1 $-1 $131 -3.1415926535897931 $136 -2.8892880075502569 $130 $192 forward @7 unknown #
point $-1 -1 $-1 -201.56711123551912 -144.10659933523132 12.5 #
coedge $-1 -1 $-1 $193 $133 $135 $170 forward $168 $-1 #
loop $-1 -1 $-1 $194 $193 $195 #
ellipse-curve $-1 -1 $-1 197.77212633625908 -114.18379037844389 12.5 0 0 1 -3.7949848992600121 29.922808956787268 0 1 I I #
edge $-1 -1 $-1 $109 -3.1415926535897931 $180 -2.8892880075502561 $135 $196 forward @7 unknown #
point $-1 -1 $-1 201.56711123551912 -144.10659933523132 12.5 #
ellipse-curve $-1 -1 $-1 -3.5442222658252432e-014 228.36758075688792 0 0 0 1 -1.2337923532503751e-014 23.812499999999996 0 1 F -1.1111200138362538 F 1.1111200138362527 #
face $-1 -1 $-1 $197 $198 $2 $-1 $199 forward single #
loop $-1 -1 $-1 $-1 $200 $140 #
torus-surface $-1 -1 $-1 -50 -31.25 6.1500000000000004 0 0 1 25.096849612209194 6.3499999999999996 1 0 0 reverse_v F 1.5707963267948966 F 3.1100913809122277 I I #
loop $-1 -1 $-1 $201 $202 $100 #
coedge $-1 -1 $-1 $203 $204 $205 $206 reversed $141 $-1 #
coedge $-1 -1 $-1 $145 $184 $193 $207 reversed $179 $-1 #
loop $-1 -1 $-1 $-1 $151 $208 #
vertex $-1 -1 $-1 $146 $209 #
straight-curve $-1 -1 $-1 24.016420259536556 246.61553856501928 0 0 0 10 I I #
face $-1 -1 $-1 $208 $156 $2 $-1 $210 forward single #
cone-surface $-1 -1 $-1 -1251.5935182350395 -722.60785466899029 0 0 0 1 -1477.177049730095 -620.09891543920253 0 1 I I 0 1 1602.0532766353879 forward I I I I #
coedge $-1 -1 $-1 $178 $151 $155 $158 forward $179 $-1 #
ellipse-curve $-1 -1 $-1 -3.5442222658252432e-014 228.36758075688792 6.3499999999999996 -0 -0 -1 -1.562803647450475e-014 30.162499999999998 0 1 F -1.1111200138362527 F 1.1111200138362538 #
coedge $-1 -1 $-1 $155 $154 $211 $212 reversed $156 $-1 #
vertex $-1 -1 $-1 $158 $213 #
straight-curve $-1 -1 $-1 -24.01642025953651 246.61553856501914 0 0 0 10 I I #
coedge $-1 -1 $-1 $164 $211 $161 $190 forward $168 $-1 #
edge $-1 -1 $-1 $162 -3.1415926535897931 $131 -1.2995021972361349 $161 $214 forward @7 unknown #
point $-1 -1 $-1 -225.5835314950553 -102.50893922978787 12.5 #
ellipse-curve $-1 -1 $-1 0 1445.2157093379815 12.5 0 0 1 201.56711123551912 1589.322308673213 0 1 I I #
coedge $-1 -1 $-1 $211 $167 $178 $207 forward $168 $-1 #
loop $-1 -1 $-1 $-1 $215 $195 #
face $-1 -1 $-1 $216 $217 $2 $-1 $218 forward single #
ellipse-curve $-1 -1 $-1 -1251.5935182350395 -722.60785466899029 12.5 0 0 1 -1477.177049730095 -620.09891543920253 -0 1 I I #
face $-1 -1 $-1 $219 $220 $2 $-1 $221 forward single #
loop $-1 -1 $-1 $-1 $222 $173 #
cone-surface $-1 -1 $-1 -24.999999999999996 -56.346849612209198 6.1500000000000004 1 0 0 0 6.3468496122091977 0.20000000000000018 1 I I 0 1 6.3500000000000032 reversed I I F 0 F 1.5392950541173311 #
coedge $-1 -1 $-1 $223 $224 $225 $226 forward $174 $-1 #
loop $-1 -1 $-1 $227 $228 $100 #
coedge $-1 -1 $-1 $202 $202 $229 $230 forward $176 $-1 #
coedge $-1 -1 $-1 $231 $177 $232 $233 reversed $141 $-1 #
coedge $-1 -1 $-1 $177 $231 $234 $235 reversed $141 $-1 #
coedge $-1 -1 $-1 $236 $237 $177 $206 forward $238 $-1 #
edge $-1 -1 $-1 $239 -1.5707963267948966 $240 1.5707963267948966 $177 $241 forward @7 tangent #
edge $-1 -1 $-1 $180 -3.1415926535897931 $187 -1.2995021972361331 $178 $242 forward @7 unknown #
face $-1 -1 $-1 $-1 $179 $2 $-1 $243 forward single #
point $-1 -1 $-1 24.016420259536556 246.61553856501928 12.5 #
cone-surface $-1 -1 $-1 1251.5935182350399 -722.60785466899029 0 0 0 1 1275.6099384945762 -969.22339323400934 0 1 I I 0 1 1602.0532766353881 forward I I I I #
coedge $-1 -1 $-1 $189 $193 $186 $212 forward $168 $-1 #
edge $-1 -1 $-1 $187 -3.1415926535897931 $162 -2.8892880075502569 $186 $244 forward @7 unknown #
point $-1 -1 $-1 -24.01642025953651 246.61553856501914 12.5 #
ellipse-curve $-1 -1 $-1 -197.77212633625908 -114.18379037844389 12.5 0 0 1 27.81140515879633 -11.674851148656094 0 1 I I #
coedge $-1 -1 $-1 $245 $246 $224 $247 reversed $194 $-1 #
face $-1 -1 $-1 $248 $238 $2 $-1 $249 forward single #
loop $-1 -1 $-1 $250 $251 $195 #
plane-surface $-1 -1 $-1 8.2423419267489979e-015 3.0496665128971291e-013 12.5 0 0 1 10 0 0 forward_v I I I I #
face $-1 -1 $-1 $195 $252 $2 $-1 $253 forward single #
loop $-1 -1 $-1 $-1 $254 $197 #
cone-surface $-1 -1 $-1 25.000000000000004 -6.1531503877908058 6.1500000000000004 -1 0 0 0 -6.3468496122091942 0.20000000000000018 1 I I 0 1 6.3499999999999996 reversed I I F 0 F 1.5392950541173311 #
coedge $-1 -1 $-1 $255 $256 $257 $258 forward $198 $-1 #
coedge $-1 -1 $-1 $259 $200 $260 $261 reversed $174 $-1 #
coedge $-1 -1 $-1 $200 $259 $215 $247 forward $174 $-1 #
coedge $-1 -1 $-1 $256 $255 $200 $226 reversed $198 $-1 #
edge $-1 -1 $-1 $262 0 $263 1.5392950541173311 $200 $264 forward @7 tangent #
loop $-1 -1 $-1 $265 $266 $100 #
coedge $-1 -1 $-1 $228 $228 $267 $268 forward $201 $-1 #
coedge $-1 -1 $-1 $229 $229 $202 $230 reversed $269 $-1 #
edge $-1 -1 $-1 $270 -3.1415926535897931 $270 3.1415926535897931 $202 $271 forward @7 unknown #
coedge $-1 -1 $-1 $204 $203 $272 $273 reversed $141 $-1 #
coedge $-1 -1 $-1 $274 $275 $203 $233 forward $276 $-1 #
edge $-1 -1 $-1 $277 -7.5 $239 2.5000000000000004 $203 $278 forward @7 tangent #
coedge $-1 -1 $-1 $279 $280 $204 $235 forward $281 $-1 #
edge $-1 -1 $-1 $240 -7.5 $282 2.4999999999999996 $204 $283 forward @7 tangent #
coedge $-1 -1 $-1 $260 $205 $280 $284 forward $238 $-1 #
coedge $-1 -1 $-1 $205 $260 $274 $285 forward $238 $-1 #
loop $-1 -1 $-1 $-1 $236 $216 #
vertex $-1 -1 $-1 $206 $286 #
vertex $-1 -1 $-1 $206 $287 #
ellipse-curve $-1 -1 $-1 -50 -31.25 0 -0 -0 -1 -25.099999999999998 0 0 1 F -1.8528063706755571 F 1.8528063706755571 #
ellipse-curve $-1 -1 $-1 -3.5442222658252432e-014 228.36758075688792 12.5 0 0 1 -24.016420259536297 -18.247957808131147 -0 1 I I #
cone-surface $-1 -1 $-1 -3.5442222658252432e-014 228.36758075688792 0 0 0 1 -24.016420259536297 -18.247957808131147 0 1 I I 0 1 30.162499999999998 forward I I I I #
ellipse-curve $-1 -1 $-1 1251.5935182350399 -722.60785466899029 12.5 0 0 1 1275.6099384945762 -969.22339323400934 0 1 I I #
coedge $-1 -1 $-1 $288 $215 $289 $290 reversed $194 $-1 #
coedge $-1 -1 $-1 $215 $288 $256 $291 reversed $194 $-1 #
edge $-1 -1 $-1 $292 1.5707963267948966 $262 4.7123889803846897 $215 $293 forward @7 tangent #
face $-1 -1 $-1 $294 $276 $2 $-1 $295 forward single #
torus-surface $-1 -1 $-1 -50 -31.25 6.3499999999999996 0 0 1 25.099999999999998 6.3499999999999996 1 0 0 forward_v I I I I #
loop $-1 -1 $-1 $296 $297 $195 #
coedge $-1 -1 $-1 $298 $299 $300 $301 reversed $217 $-1 #
loop $-1 -1 $-1 $-1 $302 $219 #
torus-surface $-1 -1 $-1 50 -31.25 6.1500000000000004 0 0 1 25.096849612209194 6.3499999999999996 -2.1234021801717486e-015 1 0 reverse_v F 1.5707963267948966 F 3.1100913809122277 I I #
coedge $-1 -1 $-1 $289 $303 $302 $304 forward $220 $-1 #
coedge $-1 -1 $-1 $225 $222 $305 $306 reversed $198 $-1 #
coedge $-1 -1 $-1 $222 $225 $246 $291 forward $198 $-1 #
coedge $-1 -1 $-1 $307 $308 $222 $258 reversed $252 $-1 #
edge $-1 -1 $-1 $309 0 $310 1.5392950541173311 $222 $311 forward @7 tangent #
coedge $-1 -1 $-1 $224 $223 $312 $313 forward $174 $-1 #
coedge $-1 -1 $-1 $237 $236 $223 $261 forward $238 $-1 #
edge $-1 -1 $-1 $314 -1.5707963267948966 $263 1.5707963267948966 $260 $315 forward @7 unknown #
vertex $-1 -1 $-1 $247 $316 #
vertex $-1 -1 $-1 $261 $317 #
ellipse-curve $-1 -1 $-1 -50 -56.346849612209198 6.1500000000000004 -1 -0 -0 0 0 6.3499999999999996 1 F 0 F 1.5392950541173311 #
loop $-1 -1 $-1 $318 $319 $100 #
coedge $-1 -1 $-1 $266 $266 $320 $321 forward $227 $-1 #
coedge $-1 -1 $-1 $267 $267 $228 $268 reversed $322 $-1 #
edge $-1 -1 $-1 $323 -3.1415926535897931 $323 3.1415926535897931 $228 $324 forward @7 unknown #
loop $-1 -1 $-1 $-1 $229 $325 #
vertex $-1 -1 $-1 $230 $326 #
ellipse-curve $-1 -1 $-1 -3.5442222658252432e-014 228.36758075688792 0 0 0 1 -1.5874999999999999 0 0 1 I I #
coedge $-1 -1 $-1 $327 $328 $231 $273 forward $329 $-1 #
edge $-1 -1 $-1 $282 -1.5707963267948966 $277 1.5707963267948966 $231 $330 forward @7 tangent #
coedge $-1 -1 $-1 $305 $232 $237 $285 reversed $276 $-1 #
coedge $-1 -1 $-1 $232 $305 $327 $331 forward $276 $-1 #
loop $-1 -1 $-1 $-1 $275 $248 #
vertex $-1 -1 $-1 $233 $332 #
straight-curve $-1 -1 $-1 -24.999999999999996 -56.349999999999994 0 -10 -0 -0 F -8.1985010000000003 F 3.1985010000000007 #
coedge $-1 -1 $-1 $333 $234 $328 $334 reversed $281 $-1 #
coedge $-1 -1 $-1 $234 $333 $236 $284 reversed $281 $-1 #
loop $-1 -1 $-1 $-1 $280 $335 #
vertex $-1 -1 $-1 $273 $336 #
straight-curve $-1 -1 $-1 25.000000000000004 -6.1500000000000004 0 10 0 0 F -7.5 F 2.4999999999999996 #
edge $-1 -1 $-1 $240 0 $314 1.5707963267948966 $236 $337 forward @7 tangent #
edge $-1 -1 $-1 $263 0 $239 1.5707963267948966 $237 $338 forward @7 tangent #
point $-1 -1 $-1 -50 -56.349999999999994 0 #
point $-1 -1 $-1 -50 -6.1500000000000021 0 #
coedge $-1 -1 $-1 $246 $245 $307 $339 reversed $194 $-1 #
coedge $-1 -1 $-1 $312 $254 $245 $290 forward $220 $-1 #
edge $-1 -1 $-1 $340 -3.9370078740157473 $292 11.811023622047244 $245 $341 forward @7 tangent #
edge $-1 -1 $-1 $262 -3.9370078740157486 $309 11.811023622047244 $246 $342 forward @7 tangent #
vertex $-1 -1 $-1 $247 $343 #
ellipse-curve $-1 -1 $-1 -50 -31.25 12.5 0 0 1 25.096849612209194 0 0 1 F 1.5707963267948966 F 4.7123889803846897 #
face $-1 -1 $-1 $335 $329 $2 $-1 $344 forward single #
cone-surface $-1 -1 $-1 -24.999999999999996 -56.349999999999994 6.3499999999999996 1 0 0 0 4.4901280605345768 -4.4901280605345777 1 I I 0 1 6.3499999999999996 forward I I I I #
loop $-1 -1 $-1 $345 $346 $195 #
coedge $-1 -1 $-1 $297 $297 $347 $348 forward $250 $-1 #
coedge $-1 -1 $-1 $349 $251 $350 $351 reversed $217 $-1 #
coedge $-1 -1 $-1 $251 $349 $352 $353 reversed $217 $-1 #
coedge $-1 -1 $-1 $354 $355 $251 $301 forward $356 $-1 #
edge $-1 -1 $-1 $357 1.5707963267948966 $358 4.7123889803846897 $251 $359 forward @7 tangent #
coedge $-1 -1 $-1 $308 $307 $254 $304 reversed $252 $-1 #
coedge $-1 -1 $-1 $254 $312 $333 $360 reversed $220 $-1 #
edge $-1 -1 $-1 $361 0 $340 1.5392950541173311 $254 $362 forward @7 tangent #
coedge $-1 -1 $-1 $275 $274 $255 $306 forward $276 $-1 #
edge $-1 -1 $-1 $263 -2.5000000000000004 $310 7.5 $305 $363 forward @7 unknown #
coedge $-1 -1 $-1 $302 $257 $288 $339 forward $252 $-1 #
coedge $-1 -1 $-1 $257 $302 $364 $365 reversed $252 $-1 #
vertex $-1 -1 $-1 $291 $366 #
vertex $-1 -1 $-1 $306 $367 #
ellipse-curve $-1 -1 $-1 50.000000000000057 -56.346849612209198 6.1500000000000004 -1 -8.1319490657877905e-015 -8.3922370365366157e-015 -5.3290705182007514e-014 0 6.3499999999999996 1 F 0 F 1.5392950541173311 #
coedge $-1 -1 $-1 $303 $289 $259 $313 reversed $220 $-1 #
edge $-1 -1 $-1 $314 0 $292 1.5392950541173311 $259 $368 forward @7 tangent #
vertex $-1 -1 $-1 $261 $369 #
ellipse-curve $-1 -1 $-1 -50 -31.25 6.3499999999999996 0 0 1 -18.75 0 0 1 F -1.8528063706755571 F 1.8528063706755571 #
point $-1 -1 $-1 -50 -56.346849612209198 12.5 #
point $-1 -1 $-1 -50 -50 6.3499999999999996 #
loop $-1 -1 $-1 $370 $371 $100 #
coedge $-1 -1 $-1 $319 $319 $372 $373 forward $265 $-1 #
coedge $-1 -1 $-1 $320 $320 $266 $321 reversed $374 $-1 #
edge $-1 -1 $-1 $375 -3.1415926535897931 $375 3.1415926535897931 $266 $376 forward @7 unknown #
loop $-1 -1 $-1 $-1 $267 $377 #
vertex $-1 -1 $-1 $268 $378 #
ellipse-curve $-1 -1 $-1 -197.77212633625908 -114.18379037844389 0 0 0 1 -1.5874999999999999 0 0 1 I I #
face $-1 -1 $-1 $147 $379 $2 $-1 $380 reversed single #
point $-1 -1 $-1 1.5874999999999644 228.36758075688792 0 #
coedge $-1 -1 $-1 $364 $272 $275 $331 reversed $329 $-1 #
coedge $-1 -1 $-1 $272 $364 $279 $334 forward $329 $-1 #
loop $-1 -1 $-1 $-1 $328 $294 #
ellipse-curve $-1 -1 $-1 50 -31.25 0 -0 -0 -1 25.099999999999998 0 0 1 F -1.8528063706755571 F 1.8528063706755571 #
edge $-1 -1 $-1 $310 0 $277 1.5707963267948966 $275 $381 forward @7 tangent #
point $-1 -1 $-1 50 -56.349999999999994 0 #
coedge $-1 -1 $-1 $280 $279 $303 $360 forward $281 $-1 #
edge $-1 -1 $-1 $361 0 $282 1.5707963267948966 $328 $382 forward @7 tangent #
face $-1 -1 $-1 $383 $281 $2 $-1 $384 forward single #
point $-1 -1 $-1 50 -6.1500000000000021 0 #
ellipse-curve $-1 -1 $-1 -50 -6.1500000000000021 6.3499999999999996 -1 -0 -0 0 0 -6.3499999999999996 1 F 0 F 1.5707963267948966 #
ellipse-curve $-1 -1 $-1 -50 -56.349999999999994 6.3499999999999996 -1 0 0 0 6.3499999999999979 0 1 F 0 F 1.5707963267948966 #
edge $-1 -1 $-1 $309 -3.1415926535897931 $340 -2.123402180171749e-015 $288 $385 forward @7 tangent #
vertex $-1 -1 $-1 $290 $386 #
straight-curve $-1 -1 $-1 25.000000000000004 -6.1531503877908058 12.5 -6.3499999999999996 0 0 F -3.9370078740157473 F 11.811023622047244 #
straight-curve $-1 -1 $-1 -24.999999999999996 -56.346849612209198 12.5 6.3499999999999996 0 0 F -3.9370078740157486 F 11.811023622047244 #
point $-1 -1 $-1 -50 -6.1531503877908067 12.5 #
torus-surface $-1 -1 $-1 50 -31.25 6.3499999999999996 0 0 1 25.099999999999998 6.3499999999999996 1 0 0 forward_v I I I I #
loop $-1 -1 $-1 $387 $388 $195 #
coedge $-1 -1 $-1 $346 $346 $389 $390 forward $296 $-1 #
coedge $-1 -1 $-1 $347 $347 $297 $348 reversed $391 $-1 #
edge $-1 -1 $-1 $392 -3.1415926535897931 $392 3.1415926535897931 $297 $393 forward @7 unknown #
coedge $-1 -1 $-1 $299 $298 $394 $395 reversed $217 $-1 #
coedge $-1 -1 $-1 $396 $397 $298 $351 forward $398 $-1 #
edge $-1 -1 $-1 $399 -3.9370078740157473 $357 11.811023622047244 $298 $400 forward @7 tangent #
coedge $-1 -1 $-1 $401 $402 $299 $353 forward $403 $-1 #
edge $-1 -1 $-1 $358 -3.9370078740157486 $404 11.811023622047244 $299 $405 forward @7 tangent #
coedge $-1 -1 $-1 $406 $300 $402 $407 forward $356 $-1 #
coedge $-1 -1 $-1 $300 $406 $396 $408 forward $356 $-1 #
loop $-1 -1 $-1 $-1 $354 $383 #
vertex $-1 -1 $-1 $301 $409 #
vertex $-1 -1 $-1 $301 $410 #
ellipse-curve $-1 -1 $-1 -50 31.25 12.5 0 0 1 25.096849612209194 0 0 1 F 1.5707963267948966 F 4.7123889803846897 #
edge $-1 -1 $-1 $361 -2.4999999999999996 $314 7.5 $333 $411 forward @7 unknown #
vertex $-1 -1 $-1 $365 $412 #
ellipse-curve $-1 -1 $-1 50 -6.1531503877908058 6.1500000000000004 -1 0 0 0 -6.3468496122091942 0.20000000000000018 1 F 0 F 1.5392950541173311 #
straight-curve $-1 -1 $-1 -24.999999999999996 -50 6.3499999999999996 10 0 0 F -3.1985010000000007 F 8.1985010000000003 #
coedge $-1 -1 $-1 $328 $327 $308 $365 forward $329 $-1 #
edge $-1 -1 $-1 $310 -1.5707963267948966 $361 1.5707963267948966 $364 $413 forward @7 unknown #
point $-1 -1 $-1 50 -56.346849612209198 12.5 #
point $-1 -1 $-1 50 -50 6.3499999999999996 #
ellipse-curve $-1 -1 $-1 -50 -6.1531503877908067 6.1500000000000004 -1 0 0 0 -6.3468496122091933 0.20000000000000018 1 F 0 F 1.5392950541173311 #
point $-1 -1 $-1 -50 -12.5 6.3499999999999996 #
loop $-1 -1 $-1 $414 $415 $100 #
coedge $-1 -1 $-1 $371 $371 $416 $417 forward $318 $-1 #
coedge $-1 -1 $-1 $372 $372 $319 $373 reversed $418 $-1 #
edge $-1 -1 $-1 $419 -3.1415926535897931 $419 3.1415926535897931 $319 $420 forward @7 unknown #
loop $-1 -1 $-1 $-1 $320 $421 #
vertex $-1 -1 $-1 $321 $422 #
ellipse-curve $-1 -1 $-1 197.77212633625908 -114.18379037844389 0 0 0 1 -1.5874999999999999 0 0 1 I I #
face $-1 -1 $-1 $325 $423 $2 $-1 $424 reversed single #
point $-1 -1 $-1 -196.18462633625907 -114.18379037844389 0 #
loop $-1 -1 $-1 $269 $425 $325 #
cone-surface $-1 -1 $-1 -3.5442222658252432e-014 228.36758075688792 0 0 0 1 -1.5874999999999999 0 0 1 I I 0 1 1.5874999999999999 forward I I I I #
ellipse-curve $-1 -1 $-1 50 -56.349999999999994 6.3499999999999996 -1 0 0 0 6.3499999999999979 0 1 F 0 F 1.5707963267948966 #
ellipse-curve $-1 -1 $-1 50 -6.1500000000000021 6.3499999999999996 1 0 0 0 -6.3499999999999979 0 1 F 0 F 1.5707963267948966 #
face $-1 -1 $-1 $426 $356 $2 $-1 $427 forward single #
cone-surface $-1 -1 $-1 25.000000000000004 -6.1500000000000004 6.3499999999999996 -1 0 0 0 -4.4901280605345768 -4.4901280605345768 1 I I 0 1 6.3500000000000014 forward I I I I #
ellipse-curve $-1 -1 $-1 50 -31.25 12.5 0 0 1 -5.3290705182007514e-014 25.096849612209194 0 1 F -3.1415926535897931 F -1.8947806286936005e-015 #
point $-1 -1 $-1 50 -6.1531503877908058 12.5 #
loop $-1 -1 $-1 $428 $429 $195 #
coedge $-1 -1 $-1 $388 $388 $430 $431 forward $345 $-1 #
coedge $-1 -1 $-1 $389 $389 $346 $390 reversed $432 $-1 #
edge $-1 -1 $-1 $433 -3.1415926535897936 $433 3.1415926535897927 $346 $434 forward @7 unknown #
loop $-1 -1 $-1 $435 $347 $436 #
vertex $-1 -1 $-1 $348 $437 #
ellipse-curve $-1 -1 $-1 181.53415001530081 -104.8087903784439 12.5 -0 -0 -1 6.25 0 0 1 I I #
coedge $-1 -1 $-1 $438 $439 $349 $395 forward $440 $-1 #
edge $-1 -1 $-1 $404 -3.1415926535897931 $399 0 $349 $441 forward @7 tangent #
coedge $-1 -1 $-1 $442 $350 $355 $408 reversed $398 $-1 #
coedge $-1 -1 $-1 $350 $442 $438 $443 forward $398 $-1 #
loop $-1 -1 $-1 $-1 $397 $444 #
vertex $-1 -1 $-1 $351 $445 #
straight-curve $-1 -1 $-1 25.000000000000004 56.346849612209198 12.5 -6.3499999999999996 0 0 F -3.9370078740157473 F 11.811023622047244 #
coedge $-1 -1 $-1 $446 $352 $439 $447 forward $403 $-1 #
coedge $-1 -1 $-1 $352 $446 $354 $407 reversed $403 $-1 #
loop $-1 -1 $-1 $-1 $401 $426 #
vertex $-1 -1 $-1 $353 $448 #
straight-curve $-1 -1 $-1 -24.999999999999996 6.1531503877908031 12.5 6.3499999999999996 0 0 F -3.9370078740157486 F 11.811023622047244 #
coedge $-1 -1 $-1 $355 $354 $449 $450 reversed $356 $-1 #
edge $-1 -1 $-1 $358 0 $451 1.5392950541173311 $354 $452 forward @7 tangent #
edge $-1 -1 $-1 $453 0 $357 1.5392950541173311 $355 $454 forward @7 tangent #
point $-1 -1 $-1 -50 56.346849612209198 12.5 #
point $-1 -1 $-1 -50 6.1531503877908067 12.5 #
straight-curve $-1 -1 $-1 25.000000000000004 -12.5 6.3499999999999996 -10 0 0 F -2.4999999999999996 F 7.5 #
point $-1 -1 $-1 50 -12.5 6.3499999999999996 #
ellipse-curve $-1 -1 $-1 50 -31.25 6.3499999999999996 0 0 1 18.75 0 0 1 F -1.8528063706755571 F 1.8528063706755571 #
loop $-1 -1 $-1 $455 $456 $100 #
coedge $-1 -1 $-1 $415 $415 $457 $458 forward $370 $-1 #
coedge $-1 -1 $-1 $416 $416 $371 $417 reversed $459 $-1 #
edge $-1 -1 $-1 $460 -3.141592653589794 $460 3.1415926535897922 $371 $461 forward @7 unknown #
loop $-1 -1 $-1 $-1 $372 $462 #
vertex $-1 -1 $-1 $373 $463 #
ellipse-curve $-1 -1 $-1 3.3049062589308865e-014 173.20508075688775 0 0 0 1 11.500000000000002 0 0 1 I I #
face $-1 -1 $-1 $377 $464 $2 $-1 $465 reversed single #
point $-1 -1 $-1 199.35962633625908 -114.18379037844389 0 #
loop $-1 -1 $-1 $322 $466 $377 #
cone-surface $-1 -1 $-1 -197.77212633625908 -114.18379037844389 0 0 0 1 -1.5874999999999999 0 0 1 I I 0 1 1.5874999999999999 forward I I I I #
coedge $-1 -1 $-1 $425 $425 $467 $468 reversed $379 $-1 #
face $-1 -1 $-1 $444 $403 $2 $-1 $469 forward single #
torus-surface $-1 -1 $-1 -50 31.25 6.1500000000000004 0 0 1 25.096849612209194 6.3499999999999996 1 0 0 reverse_v F 1.5707963267948966 F 3.1100913809122277 I I #
loop $-1 -1 $-1 $470 $471 $195 #
coedge $-1 -1 $-1 $429 $429 $472 $473 forward $387 $-1 #
coedge $-1 -1 $-1 $430 $430 $388 $431 reversed $474 $-1 #
edge $-1 -1 $-1 $475 -3.1415926535897931 $475 3.1415926535897931 $388 $476 forward @7 unknown #
loop $-1 -1 $-1 $477 $389 $478 #
vertex $-1 -1 $-1 $390 $479 #
ellipse-curve $-1 -1 $-1 149.99999999999997 -86.60254037844399 12.5 -0 -0 -1 -3.7500000000000036 -6.4951905283832883 0 1 I I #
loop $-1 -1 $-1 $-1 $480 $436 #
face $-1 -1 $-1 $478 $391 $2 $-1 $481 reversed single #
point $-1 -1 $-1 175.28415001530081 -104.8087903784439 12.5 #
coedge $-1 -1 $-1 $482 $394 $397 $443 reversed $440 $-1 #
coedge $-1 -1 $-1 $394 $482 $401 $447 reversed $440 $-1 #
loop $-1 -1 $-1 $-1 $438 $483 #
ellipse-curve $-1 -1 $-1 50 31.25 12.5 0 0 1 0 25.096849612209198 0 1 F -3.1415926535897931 F -0 #
coedge $-1 -1 $-1 $397 $396 $484 $485 reversed $398 $-1 #
edge $-1 -1 $-1 $486 0 $399 1.5392950541173311 $397 $487 forward @7 tangent #
face $-1 -1 $-1 $483 $398 $2 $-1 $488 forward single #
point $-1 -1 $-1 50 56.346849612209198 12.5 #
coedge $-1 -1 $-1 $402 $401 $489 $490 reversed $403 $-1 #
edge $-1 -1 $-1 $404 0 $491 1.5392950541173311 $401 $492 forward @7 tangent #
point $-1 -1 $-1 50 6.1531503877908031 12.5 #
coedge $-1 -1 $-1 $493 $494 $406 $450 forward $495 $-1 #
edge $-1 -1 $-1 $453 -1.5707963267948966 $451 1.5707963267948966 $449 $496 forward @7 unknown #
vertex $-1 -1 $-1 $450 $497 #
ellipse-curve $-1 -1 $-1 -50 6.1531503877908067 6.1500000000000004 -1 -0 -0 0 0 6.3499999999999996 1 F 0 F 1.5392950541173311 #
vertex $-1 -1 $-1 $450 $498 #
ellipse-curve $-1 -1 $-1 -50 56.346849612209198 6.1500000000000004 -1 0 0 0 -6.3468496122091977 0.20000000000000018 1 F 0 F 1.5392950541173311 #
loop $-1 -1 $-1 $61 $499 $100 #
coedge $-1 -1 $-1 $456 $456 $480 $500 forward $414 $-1 #
coedge $-1 -1 $-1 $457 $457 $415 $458 reversed $501 $-1 #
edge $-1 -1 $-1 $502 -3.1415926535897931 $502 3.1415926535897931 $415 $503 forward @7 unknown #
loop $-1 -1 $-1 $-1 $416 $504 #
vertex $-1 -1 $-1 $417 $505 #
ellipse-curve $-1 -1 $-1 -150.00000000000006 -86.602540378443805 0 0 0 1 -5.7499999999999982 9.9592921435210471 0 1 I I #
face $-1 -1 $-1 $506 $507 $2 $-1 $508 reversed single #
point $-1 -1 $-1 -11.499999999999968 173.20508075688775 0 #
loop $-1 -1 $-1 $374 $509 $421 #
cone-surface $-1 -1 $-1 197.77212633625908 -114.18379037844389 0 0 0 1 -1.5874999999999999 0 0 1 I I 0 1 1.5874999999999999 forward I I I I #
coedge $-1 -1 $-1 $466 $466 $510 $511 reversed $423 $-1 #
coedge $-1 -1 $-1 $467 $467 $425 $468 forward $512 $-1 #
edge $-1 -1 $-1 $513 -3.1415926535897931 $513 3.1415926535897931 $467 $514 forward @7 unknown #
cone-surface $-1 -1 $-1 -24.999999999999996 6.1531503877908031 6.1500000000000004 1 0 0 0 6.3468496122091942 0.20000000000000018 1 I I 0 1 6.3499999999999996 reversed I I F 0 F 1.5392950541173311 #
loop $-1 -1 $-1 $512 $510 $195 #
coedge $-1 -1 $-1 $471 $471 $509 $515 forward $428 $-1 #
coedge $-1 -1 $-1 $472 $472 $429 $473 reversed $516 $-1 #
edge $-1 -1 $-1 $517 -3.1415926535897931 $517 3.1415926535897931 $429 $518 forward @7 unknown #
loop $-1 -1 $-1 $519 $430 $520 #
vertex $-1 -1 $-1 $431 $521 #
ellipse-curve $-1 -1 $-1 -150.00000000000006 -86.602540378443805 12.5 -0 -0 -1 -3.7499999999999991 6.4951905283832909 0 1 I I #
loop $-1 -1 $-1 $-1 $522 $478 #
face $-1 -1 $-1 $523 $432 $2 $-1 $524 reversed single #
point $-1 -1 $-1 153.74999999999997 -80.1073498500607 12.5 #
coedge $-1 -1 $-1 $480 $480 $456 $500 reversed $435 $-1 #
cone-surface $-1 -1 $-1 181.53415001530081 -104.8087903784439 0 0 0 1 6.25 0 0 1 I I 0 1 6.25 forward I I I I #
coedge $-1 -1 $-1 $439 $438 $525 $526 reversed $440 $-1 #
face $-1 -1 $-1 $527 $440 $2 $-1 $528 forward single #
coedge $-1 -1 $-1 $529 $530 $442 $485 forward $531 $-1 #
edge $-1 -1 $-1 $486 -2.4999999999999996 $453 7.5 $484 $532 forward @7 unknown #
vertex $-1 -1 $-1 $526 $533 #
ellipse-curve $-1 -1 $-1 50.000000000000014 56.346849612209198 6.1500000000000004 -1 2.7106496885959302e-015 -2.7974123455122052e-015 -1.7763568394002505e-014 -6.3468496122091977 0.20000000000000018 1 F 0 F 1.5392950541173311 #
cone-surface $-1 -1 $-1 25.000000000000004 56.346849612209198 6.1500000000000004 -1 0 0 0 -6.3468496122091977 0.20000000000000018 1 I I 0 1 6.3500000000000032 reversed I I F 0 F 1.5392950541173311 #
coedge $-1 -1 $-1 $534 $535 $446 $490 forward $536 $-1 #
edge $-1 -1 $-1 $451 -2.5000000000000004 $491 7.5 $489 $537 forward @7 unknown #
vertex $-1 -1 $-1 $490 $538 #
ellipse-curve $-1 -1 $-1 50 6.1531503877908031 6.1500000000000004 -1 -0 -0 0 0 6.3499999999999996 1 F 0 F 1.5392950541173311 #
coedge $-1 -1 $-1 $539 $449 $535 $540 forward $495 $-1 #
coedge $-1 -1 $-1 $449 $539 $529 $541 forward $495 $-1 #
loop $-1 -1 $-1 $-1 $494 $527 #
ellipse-curve $-1 -1 $-1 -50 31.25 6.3499999999999996 0 0 1 -18.749999999999996 0 0 1 F -1.8528063706755571 F 1.8528063706755571 #
point $-1 -1 $-1 -50 12.499999999999998 6.3499999999999996 #
point $-1 -1 $-1 -50 50 6.3499999999999996 #
coedge $-1 -1 $-1 $542 $543 $539 $544 reversed $455 $-1 #
edge $-1 -1 $-1 $545 -3.1415926535897931 $545 3.1415926535897931 $456 $546 forward @7 unknown #
loop $-1 -1 $-1 $-1 $457 $523 #
vertex $-1 -1 $-1 $458 $547 #
ellipse-curve $-1 -1 $-1 149.99999999999997 -86.60254037844399 0 0 0 1 -5.7500000000000062 -9.9592921435210435 0 1 I I #
face $-1 -1 $-1 $548 $549 $2 $-1 $550 reversed single #
point $-1 -1 $-1 -144.25000000000006 -96.56183252196486 0 #
face $-1 -1 $-1 $421 $551 $2 $-1 $552 reversed single #
loop $-1 -1 $-1 $418 $553 $462 #
cone-surface $-1 -1 $-1 3.3049062589308865e-014 173.20508075688775 0 0 0 1 11.500000000000002 0 0 1 I I 0 1 11.500000000000002 forward I I I I #
coedge $-1 -1 $-1 $509 $509 $471 $515 reversed $464 $-1 #
coedge $-1 -1 $-1 $510 $510 $466 $511 forward $470 $-1 #
edge $-1 -1 $-1 $554 -3.1415926535897931 $554 3.1415926535897931 $510 $555 forward @7 unknown #
loop $-1 -1 $-1 $168 $467 $195 #
vertex $-1 -1 $-1 $468 $556 #
ellipse-curve $-1 -1 $-1 -3.5442222658252432e-014 228.36758075688792 12.5 -0 -0 -1 -1.5874999999999999 0 0 1 I I #
edge $-1 -1 $-1 $557 -3.1415926535897931 $557 3.1415926535897931 $471 $558 forward @7 unknown #
loop $-1 -1 $-1 $559 $472 $560 #
vertex $-1 -1 $-1 $473 $561 #
ellipse-curve $-1 -1 $-1 3.3049062589308865e-014 173.20508075688775 12.5 -0 -0 -1 7.5 0 0 1 I I #
loop $-1 -1 $-1 $-1 $562 $520 #
face $-1 -1 $-1 $504 $474 $2 $-1 $563 reversed single #
point $-1 -1 $-1 -146.25000000000006 -93.097730906827096 12.5 #
coedge $-1 -1 $-1 $522 $522 $564 $565 forward $477 $-1 #
face $-1 -1 $-1 $566 $567 $2 $-1 $568 reversed single #
cone-surface $-1 -1 $-1 149.99999999999997 -86.60254037844399 7.9375 0 0 1 -3.7500000000000036 -6.4951905283832883 0 1 I I 0 1 7.5 forward I I I I #
coedge $-1 -1 $-1 $569 $570 $482 $526 forward $571 $-1 #
edge $-1 -1 $-1 $491 -1.5707963267948966 $486 1.5707963267948966 $525 $572 forward @7 unknown #
face $-1 -1 $-1 $573 $495 $2 $-1 $574 forward single #
torus-surface $-1 -1 $-1 50 31.25 6.1500000000000004 0 0 1 25.096849612209194 6.3499999999999996 0 1 0 reverse_v F 1.5707963267948959 F 3.1100913809122277 I I #
coedge $-1 -1 $-1 $575 $484 $494 $541 reversed $531 $-1 #
coedge $-1 -1 $-1 $484 $575 $569 $576 reversed $531 $-1 #
loop $-1 -1 $-1 $-1 $529 $577 #
straight-curve $-1 -1 $-1 25.000000000000004 50 6.3499999999999996 -10 0 0 F -2.4999999999999996 F 7.5 #
point $-1 -1 $-1 50 50 6.3499999999999996 #
coedge $-1 -1 $-1 $578 $489 $570 $579 forward $536 $-1 #
coedge $-1 -1 $-1 $489 $578 $493 $540 reversed $536 $-1 #
loop $-1 -1 $-1 $-1 $534 $573 #
straight-curve $-1 -1 $-1 -24.999999999999996 12.499999999999998 6.3499999999999996 10 0 0 F -3.1985010000000007 F 8.1985010000000003 #
point $-1 -1 $-1 50 12.499999999999998 6.3499999999999996 #
coedge $-1 -1 $-1 $494 $493 $499 $544 forward $495 $-1 #
edge $-1 -1 $-1 $451 0 $580 1.5707963267948966 $493 $581 forward @7 tangent #
edge $-1 -1 $-1 $582 0 $453 1.5707963267948966 $494 $583 forward @7 tangent #
coedge $-1 -1 $-1 $584 $499 $578 $585 reversed $455 $-1 #
coedge $-1 -1 $-1 $499 $584 $575 $586 reversed $455 $-1 #
edge $-1 -1 $-1 $580 -1.5707963267948966 $582 1.5707963267948966 $499 $587 forward @7 tangent #
vertex $-1 -1 $-1 $500 $588 #
ellipse-curve $-1 -1 $-1 181.53415001530081 -104.8087903784439 0 0 0 1 6.25 0 0 1 I I #
point $-1 -1 $-1 155.74999999999997 -76.64324823492295 0 #
face $-1 -1 $-1 $560 $589 $2 $-1 $590 reversed single #
loop $-1 -1 $-1 $459 $591 $504 #
cone-surface $-1 -1 $-1 -150.00000000000006 -86.602540378443805 0 0 0 1 -5.7499999999999982 9.9592921435210471 0 1 I I 0 1 11.500000000000002 forward I I I I #
loop $-1 -1 $-1 $592 $593 $506 #
plane-surface $-1 -1 $-1 3.3888069443065755e-014 173.20508075688775 7.9375 0 0 1 10 0 0 forward_v I I I I #
coedge $-1 -1 $-1 $553 $553 $594 $595 forward $507 $-1 #
vertex $-1 -1 $-1 $511 $596 #
ellipse-curve $-1 -1 $-1 -197.77212633625908 -114.18379037844389 12.5 -0 -0 -1 -1.5874999999999999 0 0 1 I I #
point $-1 -1 $-1 1.5874999999999644 228.36758075688792 12.5 #
vertex $-1 -1 $-1 $515 $597 #
ellipse-curve $-1 -1 $-1 197.77212633625908 -114.18379037844389 12.5 -0 -0 -1 -1.5874999999999999 0 0 1 I I #
loop $-1 -1 $-1 $-1 $598 $560 #
face $-1 -1 $-1 $462 $516 $2 $-1 $599 reversed single #
point $-1 -1 $-1 -7.4999999999999662 173.20508075688775 12.5 #
coedge $-1 -1 $-1 $562 $562 $600 $601 forward $519 $-1 #
cone-surface $-1 -1 $-1 -150.00000000000006 -86.602540378443805 7.9375 0 0 1 -3.7499999999999991 6.4951905283832909 0 1 I I 0 1 7.5 forward I I I I #
coedge $-1 -1 $-1 $564 $564 $522 $565 reversed $602 $-1 #
edge $-1 -1 $-1 $603 -3.1415926535897931 $603 3.1415926535897931 $564 $604 forward @7 unknown #
face $-1 -1 $-1 $520 $602 $2 $-1 $605 reversed single #
loop $-1 -1 $-1 $501 $606 $523 #
cone-surface $-1 -1 $-1 149.99999999999997 -86.60254037844399 0 0 0 1 -5.7500000000000062 -9.9592921435210435 0 1 I I 0 1 11.500000000000002 forward I I I I #
coedge $-1 -1 $-1 $607 $525 $530 $576 forward $571 $-1 #
coedge $-1 -1 $-1 $525 $607 $534 $579 reversed $571 $-1 #
loop $-1 -1 $-1 $-1 $569 $608 #
ellipse-curve $-1 -1 $-1 50 31.25 6.3499999999999996 0 0 1 18.75 0 0 1 F -1.8528063706755571 F 1.8528063706755571 #
face $-1 -1 $-1 $608 $536 $2 $-1 $609 forward single #
torus-surface $-1 -1 $-1 -50 31.25 6.3499999999999996 0 0 1 25.099999999999998 6.3499999999999996 1 0 0 forward_v I I I I #
coedge $-1 -1 $-1 $530 $529 $543 $586 forward $531 $-1 #
edge $-1 -1 $-1 $486 0 $610 1.5707963267948966 $569 $611 forward @7 tangent #
face $-1 -1 $-1 $436 $531 $2 $-1 $612 forward single #
coedge $-1 -1 $-1 $535 $534 $542 $585 forward $536 $-1 #
edge $-1 -1 $-1 $491 0 $613 1.5707963267948966 $534 $614 forward @7 tangent #
vertex $-1 -1 $-1 $544 $615 #
ellipse-curve $-1 -1 $-1 -50 6.1500000000000021 6.3499999999999996 -1 0 0 0 6.3499999999999961 0 1 F 0 F 1.5707963267948966 #
vertex $-1 -1 $-1 $544 $616 #
ellipse-curve $-1 -1 $-1 -50 56.349999999999994 6.3499999999999996 -1 -0 -0 0 0 -6.3499999999999996 1 F 0 F 1.5707963267948966 #
coedge $-1 -1 $-1 $543 $542 $607 $617 reversed $455 $-1 #
edge $-1 -1 $-1 $613 -7.5 $580 2.5000000000000004 $542 $618 forward @7 tangent #
edge $-1 -1 $-1 $582 -7.5 $610 2.4999999999999996 $543 $619 forward @7 tangent #
ellipse-curve $-1 -1 $-1 -50 31.25 0 -0 -0 -1 -25.099999999999998 0 0 1 F -1.8528063706755571 F 1.8528063706755571 #
point $-1 -1 $-1 175.28415001530081 -104.8087903784439 0 #
loop $-1 -1 $-1 $620 $600 $548 #
plane-surface $-1 -1 $-1 -150.00000000000006 -86.602540378443805 7.9375 0 0 1 -4.9999999999999982 8.6602540378443891 0 forward_v I I I I #
coedge $-1 -1 $-1 $591 $591 $621 $622 forward $549 $-1 #
loop $-1 -1 $-1 $-1 $594 $506 #
coedge $-1 -1 $-1 $593 $593 $598 $623 forward $551 $-1 #
coedge $-1 -1 $-1 $594 $594 $553 $595 reversed $592 $-1 #
edge $-1 -1 $-1 $624 -3.1415926535897931 $624 3.1415926535897931 $553 $625 forward @7 unknown #
point $-1 -1 $-1 -196.18462633625907 -114.18379037844389 12.5 #
point $-1 -1 $-1 199.35962633625908 -114.18379037844389 12.5 #
coedge $-1 -1 $-1 $598 $598 $593 $623 reversed $559 $-1 #
cone-surface $-1 -1 $-1 3.3049062589308865e-014 173.20508075688775 7.9375 0 0 1 7.5 0 0 1 I I 0 1 7.5 forward I I I I #
coedge $-1 -1 $-1 $600 $600 $562 $601 reversed $589 $-1 #
edge $-1 -1 $-1 $626 -3.1415926535897931 $626 3.1415926535897931 $600 $627 forward @7 unknown #
loop $-1 -1 $-1 $628 $564 $566 #
vertex $-1 -1 $-1 $565 $629 #
ellipse-curve $-1 -1 $-1 149.99999999999997 -86.60254037844399 7.9375 0 0 -1 -3.7500000000000036 -6.4951905283832883 0 1 I I #
plane-surface $-1 -1 $-1 149.99999999999997 -86.60254037844399 7.9375 0 0 1 -5.0000000000000053 -8.6602540378443855 0 forward_v I I I I #
coedge $-1 -1 $-1 $606 $606 $630 $631 forward $567 $-1 #
coedge $-1 -1 $-1 $570 $569 $584 $617 forward $571 $-1 #
face $-1 -1 $-1 $577 $571 $2 $-1 $632 forward single #
cone-surface $-1 -1 $-1 -24.999999999999996 6.1499999999999977 6.3499999999999996 1 0 0 0 4.4901280605345768 -4.4901280605345768 1 I I 0 1 6.3500000000000014 forward I I I I #
vertex $-1 -1 $-1 $617 $633 #
ellipse-curve $-1 -1 $-1 50 56.349999999999994 6.3499999999999996 1 0 0 0 -6.3499999999999979 0 1 F 0 F 1.5707963267948966 #
cone-surface $-1 -1 $-1 25.000000000000004 56.349999999999994 6.3499999999999996 -1 0 0 0 -4.4901280605345768 -4.4901280605345777 1 I I 0 1 6.3499999999999996 forward I I I I #
vertex $-1 -1 $-1 $585 $634 #
ellipse-curve $-1 -1 $-1 50 6.1499999999999977 6.3499999999999996 -1 0 0 0 6.3499999999999996 0 1 F 0 F 1.5707963267948966 #
point $-1 -1 $-1 -50 6.1500000000000021 0 #
point $-1 -1 $-1 -50 56.349999999999994 0 #
edge $-1 -1 $-1 $610 -1.5707963267948966 $613 1.5707963267948966 $584 $635 forward @7 tangent #
straight-curve $-1 -1 $-1 -24.999999999999996 6.1499999999999977 0 -10 -0 -0 F -8.1985010000000003 F 3.1985010000000007 #
straight-curve $-1 -1 $-1 25.000000000000004 56.349999999999994 0 10 0 0 F -7.5 F 2.4999999999999996 #
loop $-1 -1 $-1 $-1 $621 $548 #
coedge $-1 -1 $-1 $621 $621 $591 $622 reversed $620 $-1 #
edge $-1 -1 $-1 $636 -3.1415926535897931 $636 3.1415926535897931 $591 $637 forward @7 unknown #
edge $-1 -1 $-1 $638 -3.1415926535897931 $638 3.1415926535897931 $593 $639 forward @7 unknown #
vertex $-1 -1 $-1 $595 $640 #
ellipse-curve $-1 -1 $-1 3.3049062589308865e-014 173.20508075688775 7.9375 0 0 1 11.500000000000002 0 0 1 I I #
vertex $-1 -1 $-1 $601 $641 #
ellipse-curve $-1 -1 $-1 -150.00000000000006 -86.602540378443805 7.9375 0 0 -1 -3.7499999999999991 6.4951905283832909 0 1 I I #
loop $-1 -1 $-1 $-1 $630 $566 #
point $-1 -1 $-1 153.74999999999997 -80.1073498500607 7.9375 #
coedge $-1 -1 $-1 $630 $630 $606 $631 reversed $628 $-1 #
edge $-1 -1 $-1 $642 -3.1415926535897931 $642 3.1415926535897931 $606 $643 forward @7 unknown #
torus-surface $-1 -1 $-1 50 31.25 6.3499999999999996 0 0 1 25.099999999999998 6.3499999999999996 1 0 0 forward_v I I I I #
point $-1 -1 $-1 50 56.349999999999994 0 #
point $-1 -1 $-1 50 6.1499999999999977 0 #
ellipse-curve $-1 -1 $-1 50 31.25 0 -0 -0 -1 25.099999999999998 0 0 1 F -1.8528063706755571 F 1.8528063706755571 #
vertex $-1 -1 $-1 $622 $644 #
ellipse-curve $-1 -1 $-1 -150.00000000000006 -86.602540378443805 7.9375 0 0 1 -5.7499999999999982 9.9592921435210471 0 1 I I #
vertex $-1 -1 $-1 $623 $645 #
ellipse-curve $-1 -1 $-1 3.3049062589308865e-014 173.20508075688775 7.9375 0 0 1 7.5 0 0 1 I I #
point $-1 -1 $-1 -11.499999999999968 173.20508075688775 7.9375 #
point $-1 -1 $-1 -146.25000000000006 -93.097730906827096 7.9375 #
vertex $-1 -1 $-1 $631 $646 #
ellipse-curve $-1 -1 $-1 149.99999999999997 -86.60254037844399 7.9375 0 0 1 -5.7500000000000062 -9.9592921435210435 0 1 I I #
point $-1 -1 $-1 -144.25000000000006 -96.56183252196486 7.9375 #
point $-1 -1 $-1 -7.4999999999999662 173.20508075688775 7.9375 #
point $-1 -1 $-1 155.74999999999997 -76.64324823492295 7.9375 #
End-of-ACIS-data 