700 0 1 0           
33 Autodesk Inventor 17.0.13800.0000 19 ASM 218.0.0.5119 NT 24 Tue Dec 10 11:02:36 2013 
1 9.9999999999999995e-007 1e-010 
body $-1 -1 $-1 $1 $-1 $-1 #
lump $-1 -1 $-1 $-1 $2 $0 #
shell $-1 -1 $-1 $-1 $-1 $3 $-1 $1 #
face $-1 -1 $-1 $4 $5 $2 $-1 $6 forward single #
face $-1 -1 $-1 $7 $8 $2 $-1 $9 forward single #
loop $-1 -1 $-1 $10 $11 $3 #
cone-surface $-1 -1 $-1 5.832380380939276e-016 0 1.9050000000000014 3.0616169978683836e-016 0 1 7.9629000000000003 0 0 1 I I 0 1 7.9629000000000003 forward I I I I #
face $-1 -1 $-1 $12 $13 $2 $-1 $14 forward single #
loop $-1 -1 $-1 $15 $16 $4 #
cone-surface $-1 -1 $-1 1.3997712914254255e-015 0 4.572000000000001 3.0616169978683836e-016 0 1 6.9024500000000009 0 0 1 I I -0.81208738342860276 0.58353584437983397 6.9024500000000009 forward I I I I #
loop $-1 -1 $-1 $-1 $17 $3 #
coedge $-1 -1 $-1 $11 $11 $18 $19 reversed $5 $-1 #
face $-1 -1 $-1 $20 $21 $2 $-1 $22 forward single #
loop $-1 -1 $-1 $23 $24 $7 #
cone-surface $-1 -1 $-1 1.9246855257099537e-015 0 6.2864999999999815 3.0616169978683836e-016 0 1 5.8419999999999996 0 0 1 I I 0 1 5.8419999999999996 forward I I I I #
loop $-1 -1 $-1 $-1 $18 $4 #
coedge $-1 -1 $-1 $16 $16 $25 $26 reversed $8 $-1 #
coedge $-1 -1 $-1 $17 $17 $27 $28 forward $10 $-1 #
coedge $-1 -1 $-1 $18 $18 $11 $19 forward $15 $-1 #
edge $-1 -1 $-1 $29 0 $29 6.2831853071795862 $18 $30 forward @7 unknown #
face $-1 -1 $-1 $31 $32 $2 $-1 $33 forward single #
loop $-1 -1 $-1 $34 $35 $12 #
cone-surface $-1 -1 $-1 2.3329521523757029e-015 0 7.6199999999999823 3.0616169978683836e-016 0 1 6.90245 0 0 1 I I 0.941102737471194 0.33812074400164366 6.90245 forward I I I I #
loop $-1 -1 $-1 $-1 $25 $7 #
coedge $-1 -1 $-1 $24 $24 $36 $37 reversed $13 $-1 #
coedge $-1 -1 $-1 $25 $25 $16 $26 forward $23 $-1 #
edge $-1 -1 $-1 $38 0 $38 6.2831853071795862 $25 $39 forward @7 unknown #
coedge $-1 -1 $-1 $27 $27 $17 $28 reversed $40 $-1 #
edge $-1 -1 $-1 $41 0 $41 6.2831853071795862 $17 $42 forward @7 unknown #
vertex $-1 -1 $-1 $19 $43 #
ellipse-curve $-1 -1 $-1 1.1664760761878546e-015 0 3.8100000000000014 3.0616169978683836e-016 0 1 7.9629000000000003 0 0 1 I I #
face $-1 -1 $-1 $44 $45 $2 $-1 $46 forward single #
loop $-1 -1 $-1 $47 $48 $20 #
cone-surface $-1 -1 $-1 7.3876818158564117e-015 0 24.130000000000003 3.0616169978683836e-016 0 1 7.9628999999999985 0 0 1 I I 0 1 7.9628999999999985 forward I I I I #
loop $-1 -1 $-1 $-1 $36 $12 #
coedge $-1 -1 $-1 $35 $35 $49 $50 reversed $21 $-1 #
coedge $-1 -1 $-1 $36 $36 $24 $37 forward $34 $-1 #
edge $-1 -1 $-1 $51 0 $51 6.2831853071795862 $36 $52 forward @7 unknown #
vertex $-1 -1 $-1 $26 $53 #
ellipse-curve $-1 -1 $-1 1.6330665066629961e-015 0 5.3340000000000014 3.0616169978683836e-016 0 1 5.8420000000000005 0 0 1 I I #
loop $-1 -1 $-1 $-1 $27 $54 #
vertex $-1 -1 $-1 $28 $55 #
ellipse-curve $-1 -1 $-1 4.4784139400092927e-031 0 1.4627609995395694e-015 3.0616169978683836e-016 0 1 7.9629000000000003 0 0 1 I I #
point $-1 -1 $-1 7.9629000000000012 0 3.8099999999999987 #
face $-1 -1 $-1 $56 $57 $2 $-1 $58 forward single #
loop $-1 -1 $-1 $59 $60 $31 #
plane-surface $-1 -1 $-1 7.1691500000000108 0 40.259 3.0616169978683836e-016 0 1 10 0 -3.0616169978683834e-015 forward_v I I I I #
loop $-1 -1 $-1 $-1 $49 $20 #
coedge $-1 -1 $-1 $48 $48 $61 $62 reversed $32 $-1 #
coedge $-1 -1 $-1 $49 $49 $35 $50 forward $47 $-1 #
edge $-1 -1 $-1 $63 0 $63 6.2831853071795862 $49 $64 forward @7 unknown #
vertex $-1 -1 $-1 $37 $65 #
ellipse-curve $-1 -1 $-1 2.2163045447569118e-015 0 7.2389999999999635 3.0616169978683836e-016 0 1 5.8419999999999996 0 0 1 I I #
point $-1 -1 $-1 5.8420000000000014 0 5.3339999999999987 #
face $-1 -1 $-1 $-1 $40 $2 $-1 $66 forward single #
point $-1 -1 $-1 7.9629000000000003 0 -9.7517399969304603e-016 #
face $-1 -1 $-1 $67 $68 $2 $-1 $69 forward single #
loop $-1 -1 $-1 $70 $71 $44 #
cone-surface $-1 -1 $-1 1.667427034230073e-014 0 54.462300000000006 3.0616169978683836e-016 0 1 6.3753999999999991 0 0 1 I I 0 1 6.3753999999999991 forward I I I I #
loop $-1 -1 $-1 $-1 $61 $31 #
coedge $-1 -1 $-1 $60 $60 $72 $73 reversed $45 $-1 #
coedge $-1 -1 $-1 $61 $61 $48 $62 forward $59 $-1 #
edge $-1 -1 $-1 $74 0 $74 6.2831853071795862 $61 $75 forward @7 unknown #
vertex $-1 -1 $-1 $50 $76 #
ellipse-curve $-1 -1 $-1 2.4495997599944944e-015 0 8.0010000000000012 3.0616169978683836e-016 0 1 7.9629000000000003 0 0 1 I I #
point $-1 -1 $-1 5.8420000000000014 0 7.2389999999999608 #
plane-surface $-1 -1 $-1 3.9814500000000002 0 -4.8758699984652302e-016 -3.0616169978683836e-016 0 -1 -10 0 3.0616169978683834e-015 forward_v I I I I #
face $-1 -1 $-1 $54 $77 $2 $-1 $78 forward single #
loop $-1 -1 $-1 $79 $80 $56 #
cone-surface $-1 -1 $-1 2.184564761340022e-014 0 71.353300000000019 3.0616169978683836e-016 0 1 3.6876999999999986 0 0 1 I I -0.70710678118654802 0.70710678118654702 3.6876999999999986 forward I I I I #
loop $-1 -1 $-1 $-1 $72 $44 #
coedge $-1 -1 $-1 $71 $71 $81 $82 reversed $57 $-1 #
coedge $-1 -1 $-1 $72 $72 $60 $73 forward $70 $-1 #
edge $-1 -1 $-1 $83 0 $83 6.2831853071795862 $72 $84 forward @7 unknown #
vertex $-1 -1 $-1 $62 $85 #
ellipse-curve $-1 -1 $-1 1.2325763871718325e-014 0 40.259 3.0616169978683836e-016 0 1 7.9628999999999959 0 0 1 I I #
point $-1 -1 $-1 7.962900000000003 0 8.0009999999999994 #
loop $-1 -1 $-1 $-1 $86 $67 #
plane-surface $-1 -1 $-1 0.50000000000002265 0 74.041000000000011 3.0616169978683836e-016 0 1 10 0 -3.0616169978683834e-015 forward_v I I I I #
loop $-1 -1 $-1 $-1 $81 $56 #
coedge $-1 -1 $-1 $80 $80 $86 $87 reversed $68 $-1 #
coedge $-1 -1 $-1 $81 $81 $71 $82 forward $79 $-1 #
edge $-1 -1 $-1 $88 0 $88 6.2831853071795862 $81 $89 forward @7 unknown #
vertex $-1 -1 $-1 $73 $90 #
ellipse-curve $-1 -1 $-1 1.2325763871718325e-014 0 40.259 3.0616169978683836e-016 0 1 6.3754000000000008 0 0 1 I I #
point $-1 -1 $-1 7.9629000000000083 0 40.259 #
coedge $-1 -1 $-1 $86 $86 $80 $87 forward $77 $-1 #
edge $-1 -1 $-1 $91 0 $91 6.2831853071795862 $86 $92 forward @7 unknown #
vertex $-1 -1 $-1 $82 $93 #
ellipse-curve $-1 -1 $-1 2.1022776812883131e-014 0 68.665600000000012 3.0616169978683836e-016 0 1 6.3753999999999964 0 0 1 I I #
point $-1 -1 $-1 6.3754000000000133 0 40.259 #
vertex $-1 -1 $-1 $87 $94 #
ellipse-curve $-1 -1 $-1 2.26685184139173e-014 0 74.041000000000011 3.0616169978683836e-016 0 1 1 0 0 1 I I #
point $-1 -1 $-1 6.3754000000000177 0 68.665600000000012 #
point $-1 -1 $-1 1.0000000000000226 0 74.041000000000011 #
End-of-ACIS-data 