700 0 1 0           
33 Autodesk Inventor 17.0.13800.0000 19 ASM 218.0.0.5119 NT 24 Tue Dec 10 11:02:52 2013 
1 9.9999999999999995e-007 1e-010 
body $-1 -1 $-1 $1 $-1 $-1 #
lump $-1 -1 $-1 $-1 $2 $0 #
shell $-1 -1 $-1 $-1 $-1 $3 $-1 $1 #
face $-1 -1 $-1 $4 $5 $2 $-1 $6 reversed single #
face $-1 -1 $-1 $7 $8 $2 $-1 $9 reversed single #
loop $-1 -1 $-1 $-1 $10 $3 #
torus-surface $-1 -1 $-1 -150.00000000000006 -86.602540378443848 434.22905071638638 0 0 -1 75.000000000000014 200 0.49999999999999983 -0.86602540378443882 0 forward_v I I I I #
face $-1 -1 $-1 $11 $12 $2 $-1 $13 forward single #
loop $-1 -1 $-1 $-1 $14 $4 #
torus-surface $-1 -1 $-1 150.00000000000003 -86.602540378443976 434.22905071638638 0 0 -1 75.000000000000014 200 0.50000000000000056 0.86602540378443849 0 forward_v I I I I #
coedge $-1 -1 $-1 $15 $16 $17 $18 reversed $5 $-1 #
face $-1 -1 $-1 $19 $20 $2 $-1 $21 forward single #
loop $-1 -1 $-1 $-1 $22 $7 #
cone-surface $-1 -1 $-1 -150.00000000000003 -86.602540378443848 0 0 0 1 -59.999980718798895 0.048101390425703258 0 1 I I 0 -1 60 forward I I I I #
coedge $-1 -1 $-1 $23 $24 $25 $26 reversed $8 $-1 #
coedge $-1 -1 $-1 $27 $10 $24 $28 reversed $5 $-1 #
coedge $-1 -1 $-1 $10 $29 $22 $30 reversed $5 $-1 #
coedge $-1 -1 $-1 $31 $25 $10 $18 forward $32 $-1 #
edge $-1 -1 $-1 $33 2.5189778039637076 $34 11.89467993471894 $17 $35 forward @7 unknown #
face $-1 -1 $-1 $36 $37 $2 $-1 $38 reversed single #
loop $-1 -1 $-1 $-1 $39 $11 #
cone-surface $-1 -1 $-1 150 -86.602540378443891 0 0 0 1 -180.04164738546552 207.87016430148816 0 1 I I 0 1 275 forward I I I I #
coedge $-1 -1 $-1 $40 $41 $16 $30 forward $12 $-1 #
coedge $-1 -1 $-1 $42 $14 $43 $44 reversed $8 $-1 #
coedge $-1 -1 $-1 $14 $45 $15 $28 forward $8 $-1 #
coedge $-1 -1 $-1 $17 $46 $14 $26 forward $32 $-1 #
edge $-1 -1 $-1 $47 0 $33 9.4014646188903388 $25 $48 forward @7 unknown #
coedge $-1 -1 $-1 $29 $15 $49 $50 reversed $5 $-1 #
edge $-1 -1 $-1 $51 23.525714188455243 $33 32.360066348137664 $15 $52 forward @7 unknown #
coedge $-1 -1 $-1 $16 $27 $39 $53 reversed $5 $-1 #
edge $-1 -1 $-1 $34 -3.1415926535897931 $54 -2.0927917225405874 $22 $55 forward @7 unknown #
coedge $-1 -1 $-1 $56 $17 $41 $57 reversed $32 $-1 #
loop $-1 -1 $-1 $-1 $17 $58 #
vertex $-1 -1 $-1 $26 $59 #
vertex $-1 -1 $-1 $30 $60 #
intcurve-curve $-1 -1 $-1 forward { surfintcur full nubs 3 open 6 
	2.5189778039637076 3 4.9866060452698111 2 6.8380279571264069 2 8.2687682831263878 2 9.9377148210495143 2 
	11.89467993471894 3 
	-2.9319776442063437e-014 -101.79491924311222 249.13636754879633 
	-7.5891965393988547 -101.79491924311222 246.04555446545044 
	-15.361510271732083 -101.4802287565897 243.40854879127812 
	-29.203612023362048 -100.30471928046119 239.62892391095934 
	-35.185974440791284 -99.602375074336209 238.28532905499318 
	-45.842025690696467 -97.987804820270753 236.40091634500533 
	-50.492657051775602 -97.161353638246169 235.74913821277946 
	-60.564380709283753 -95.099960359527188 234.70331599596074 
	-65.962996607548092 -93.824590294989264 234.37250514819951 
	-77.638165573938238 -90.68862151316965 234.14240716720661 
	-83.84006213488469 -88.784118979035355 234.32891381268229 
	-90.000019281201162 -86.650641768869605 234.79234396459506 
	0.0024333448617044153 
	torus -150.00000000000006 -86.602540378443848 434.22905071638638 0 0 -1 75.000000000000014 200 0.49999999999999983 -0.86602540378443882 0 forward_v I I I I 
	cone 7.5415455247668813e-014 173.20508075688778 0 0 0 1 -90.000019281201219 -259.85572252575741 0 1 I I 0 1 275.00000000000006 forward I I I I 
	nullbs 
	nullbs 
	I I 
	0 
	0 
	0 
	} I I #
face $-1 -1 $-1 $61 $62 $2 $-1 $63 forward single #
loop $-1 -1 $-1 $-1 $49 $19 #
torus-surface $-1 -1 $-1 0 173.20508075688778 434.22905071638638 -0 -0 -1 75.000000000000014 200 -1 0 0 forward_v I I I I #
coedge $-1 -1 $-1 $64 $65 $29 $53 forward $20 $-1 #
coedge $-1 -1 $-1 $66 $22 $65 $67 reversed $12 $-1 #
coedge $-1 -1 $-1 $22 $66 $31 $57 forward $12 $-1 #
coedge $-1 -1 $-1 $45 $23 $68 $69 reversed $8 $-1 #
coedge $-1 -1 $-1 $70 $71 $23 $44 forward $72 $-1 #
edge $-1 -1 $-1 $73 -3.1415926535897936 $47 -2.0927917225405865 $43 $74 forward @7 unknown #
coedge $-1 -1 $-1 $24 $42 $75 $76 reversed $8 $-1 #
coedge $-1 -1 $-1 $25 $56 $70 $77 forward $32 $-1 #
vertex $-1 -1 $-1 $44 $78 #
intcurve-curve $-1 -1 $-1 forward { surfintcur full nubs 3 open 6 
	0 3 2.4890729405856376 2 4.0280017182603594 2 5.5028858070734028 2 7.6809682110262782 2 
	9.4014646188903388 3 
	90.000019281201133 -86.650641768869633 234.79234396459506 
	82.179756989925821 -89.359159211386455 234.2040045889209 
	74.306753629765439 -91.694635285248523 234.06399948325702 
	61.321961016943369 -94.919416381643074 234.66015725545651 
	56.345080336158986 -96.008633897089837 235.08030390456074 
	46.5741921022098 -97.866007291401075 236.28775798939532 
	41.795835560445752 -98.642755555725358 237.05725507352463 
	29.990530688600359 -100.24697965958325 239.4051428497643 
	23.004939003137352 -100.91811878982126 241.18872296642718 
	10.656880102960331 -101.64256564498569 245.05235307737223 
	5.2829422415460634 -101.79491924311222 246.98481080442127 
	-2.9319776442063437e-014 -101.79491924311222 249.13636754879633 
	0.0012380490727399484 
	torus 150.00000000000003 -86.602540378443976 434.22905071638638 0 0 -1 75.000000000000014 200 0.50000000000000056 0.86602540378443849 0 forward_v I I I I 
	cone 7.5415455247668813e-014 173.20508075688778 0 0 0 1 -90.000019281201219 -259.85572252575741 0 1 I I 0 1 275.00000000000006 forward I I I I 
	nullbs 
	nullbs 
	I I 
	0 
	0 
	0 
	} I I #
coedge $-1 -1 $-1 $75 $79 $27 $50 forward $37 $-1 #
edge $-1 -1 $-1 $80 -10.278080389400072 $51 -0.003108066143841562 $49 $81 forward @7 unknown #
vertex $-1 -1 $-1 $76 $82 #
intcurve-curve $-1 -1 $-1 forward { surfintcur full nubs 3 open 4 
	23.525714188455243 3 25.252664179228329 2 29.229126067768334 2 32.360066348137664 3 
	3.2963186539469535e-014 8.9768992842591844e-011 260.0000000000253 
	2.944812897553753e-014 -6.5140235462278291 258.16416893227586 
	-5.1993005897118297e-014 -13.088041107273254 256.5870556770368 
	-6.8833827526759706e-014 -34.927927264031624 252.15140471335587 
	4.4142467459096224e-011 -50.421809264711456 250.29047446423104 
	4.5230391344564289e-011 -77.679171130069605 248.73214517059301 
	-3.0313073929380428e-014 -89.830627801412405 248.64285471760465 
	-3.5527136788005009e-014 -101.79491924311223 249.13636754879633 
	0.0078955500717738537 
	torus 150.00000000000003 -86.602540378443976 434.22905071638638 0 0 -1 75.000000000000014 200 0.50000000000000056 0.86602540378443849 0 forward_v I I I I 
	torus -150.00000000000006 -86.602540378443848 434.22905071638638 0 0 -1 75.000000000000014 200 0.49999999999999983 -0.86602540378443882 0 forward_v I I I I 
	nullbs 
	nullbs 
	I I 
	0 
	0 
	0 
	} I I #
edge $-1 -1 $-1 $54 0 $80 9.4214854732993896 $39 $83 forward @7 unknown #
vertex $-1 -1 $-1 $53 $84 #
ellipse-curve $-1 -1 $-1 -150.00000000000006 -86.602540378443848 234.79234396459506 0 0 1 -59.999980718798895 0.048101390425703258 0 1 I I #
coedge $-1 -1 $-1 $46 $31 $85 $86 forward $32 $-1 #
edge $-1 -1 $-1 $87 0 $34 23.479234396459507 $41 $88 forward @7 unknown #
face $-1 -1 $-1 $89 $32 $2 $-1 $90 forward single #
point $-1 -1 $-1 -2.9319776442063437e-014 -101.79491924311222 249.13636754879633 #
point $-1 -1 $-1 -90.000019281201133 -86.650641768869562 234.79234396459506 #
face $-1 -1 $-1 $58 $72 $2 $-1 $91 forward single #
loop $-1 -1 $-1 $-1 $68 $36 #
cone-surface $-1 -1 $-1 -150.00000000000003 -86.602540378443848 0 0 0 1 270.04166666666669 51.985558224269198 0 1 I I 0 1 275.00000000000006 forward I I I I #
coedge $-1 -1 $-1 $92 $39 $79 $93 forward $20 $-1 #
coedge $-1 -1 $-1 $39 $94 $40 $67 forward $20 $-1 #
coedge $-1 -1 $-1 $41 $40 $95 $96 forward $12 $-1 #
edge $-1 -1 $-1 $97 0 $54 23.479234396459507 $65 $98 forward @7 unknown #
coedge $-1 -1 $-1 $99 $100 $42 $69 forward $62 $-1 #
edge $-1 -1 $-1 $101 2.5235206093334459 $73 11.916200369929463 $68 $102 forward @7 unknown #
coedge $-1 -1 $-1 $103 $43 $46 $77 reversed $72 $-1 #
coedge $-1 -1 $-1 $43 $103 $99 $104 forward $72 $-1 #
loop $-1 -1 $-1 $-1 $43 $61 #
vertex $-1 -1 $-1 $69 $105 #
ellipse-curve $-1 -1 $-1 150.00000000000003 -86.602540378443976 234.79234396459506 0 0 1 29.958333333333343 -51.985558224269255 0 1 I I #
coedge $-1 -1 $-1 $106 $49 $45 $76 forward $37 $-1 #
edge $-1 -1 $-1 $51 -13.084556330541316 $101 -2.8215058728824265 $75 $107 forward @7 unknown #
edge $-1 -1 $-1 $108 0 $47 23.479234396459507 $46 $109 forward @7 unknown #
point $-1 -1 $-1 90.000019281201105 -86.650641768869662 234.79234396459506 #
coedge $-1 -1 $-1 $49 $110 $64 $93 reversed $37 $-1 #
vertex $-1 -1 $-1 $93 $111 #
intcurve-curve $-1 -1 $-1 forward { surfintcur full nubs 3 open 4 
	-10.278080389400072 3 -7.5105027022811406 2 -4.2400866224443341 2 -0.003108066143841562 3 
	-88.156986044147317 50.897459615844269 249.13636754925 
	-80.188023542767723 46.296576970510728 248.75680564516847 
	-72.153713117231973 41.657965691029126 248.72362265343983 
	-54.773983910273962 31.623774354951696 249.40242450926971 
	-45.296560842818351 26.151981596027607 250.25710676008578 
	-23.827458012633702 13.756789297758182 253.44838183636961 
	-11.772525083955523 6.7968705263368934 256.16890974162163 
	5.3123667056853897e-015 7.354339359721962e-011 259.99999999999648 
	0.00024052081234598335 
	torus -150.00000000000006 -86.602540378443848 434.22905071638638 0 0 -1 75.000000000000014 200 0.49999999999999983 -0.86602540378443882 0 forward_v I I I I 
	torus 0 173.20508075688778 434.22905071638638 -0 -0 -1 75.000000000000014 -200 -1 0 0 forward_v I I I I 
	nullbs 
	nullbs 
	I I 
	0 
	0 
	0 
	} I I #
point $-1 -1 $-1 5.3123667056853897e-015 7.354339359721962e-011 259.99999999999648 #
intcurve-curve $-1 -1 $-1 forward { surfintcur full nubs 3 open 4 
	0 3 2.0400339005724852 2 6.3265932008818107 2 9.4214854732993896 3 
	-120.04166666666661 -34.616982154174579 234.79234396459506 
	-118.75942021179547 -27.956286730706449 234.31014344252657 
	-117.24020559140243 -21.381830278406522 234.12796436057991 
	-111.74654181440042 -1.0622222027951178 234.60894891270169 
	-107.00568351236738 12.213916939046134 236.41829826707888 
	-97.343524632966179 34.004531115927641 242.1302016483352 
	-92.892934053579779 42.694557041119943 245.27879712189372 
	-88.156986044147317 50.897459615844269 249.13636754925 
	0.0039322770758598736 
	torus -150.00000000000006 -86.602540378443848 434.22905071638638 0 0 -1 75.000000000000014 200 0.49999999999999983 -0.86602540378443882 0 forward_v I I I I 
	cone 150 -86.602540378443891 0 0 0 1 -180.04164738546552 207.87016430148816 0 1 I I 0 1 275 forward I I I I 
	nullbs 
	nullbs 
	I I 
	0 
	0 
	0 
	} I I #
point $-1 -1 $-1 -120.04166666666666 -34.616982154174593 234.79234396459506 #
coedge $-1 -1 $-1 $95 $112 $56 $86 reversed $113 $-1 #
edge $-1 -1 $-1 $87 0 $108 0.66683196881718965 $56 $114 forward @7 unknown #
vertex $-1 -1 $-1 $96 $115 #
straight-curve $-1 -1 $-1 -90.000019281201133 -86.650641768869562 0 0 0 10 I I #
face $-1 -1 $-1 $116 $117 $2 $-1 $118 forward single #
cone-surface $-1 -1 $-1 7.5415455247668813e-014 173.20508075688778 0 0 0 1 -90.000019281201219 -259.85572252575741 0 1 I I 0 1 275.00000000000006 forward I I I I #
cone-surface $-1 -1 $-1 150 -86.602540378443891 0 0 0 1 29.958333333333343 -51.985558224269255 0 1 I I 0 -1 60 forward I I I I #
coedge $-1 -1 $-1 $94 $64 $119 $120 reversed $20 $-1 #
edge $-1 -1 $-1 $80 2.5227091401679762 $121 11.915390082785244 $64 $122 forward @7 unknown #
coedge $-1 -1 $-1 $65 $92 $123 $124 forward $20 $-1 #
coedge $-1 -1 $-1 $123 $85 $66 $96 reversed $113 $-1 #
edge $-1 -1 $-1 $97 2.0927917225405865 $87 3.1415926535897931 $66 $125 forward @7 unknown #
vertex $-1 -1 $-1 $124 $126 #
straight-curve $-1 -1 $-1 -120.04166666666666 -34.616982154174593 0 0 0 10 I I #
coedge $-1 -1 $-1 $127 $68 $71 $104 reversed $62 $-1 #
coedge $-1 -1 $-1 $68 $128 $106 $129 forward $62 $-1 #
vertex $-1 -1 $-1 $76 $130 #
intcurve-curve $-1 -1 $-1 forward { surfintcur full nubs 3 open 4 
	2.5235206093334459 3 6.7649568495217647 2 10.021151978941107 2 11.916200369929463 3 
	88.156986041656054 50.89745961999688 249.13636754892019 
	94.659981912055727 39.633940370910629 243.83948411401002 
	100.61192882181882 27.469722190953298 239.88664688723503 
	109.66174419466495 4.5841477544272946 235.46486879901357 
	113.03935218750931 -5.6487798350077956 234.43212680729616 
	117.4453466980615 -22.275054773439862 234.15384191427992 
	118.84672722476814 -28.409807518020344 234.34297604430583 
	120.04166666666664 -34.616982154174664 234.79234396459506 
	0.008432903548914716 
	torus 150.00000000000003 -86.602540378443976 434.22905071638638 0 0 -1 75.000000000000014 200 0.50000000000000056 0.86602540378443849 0 forward_v I I I I 
	cone -150.00000000000003 -86.602540378443848 0 0 0 1 270.04166666666669 51.985558224269198 0 1 I I 0 1 275.00000000000006 forward I I I I 
	nullbs 
	nullbs 
	I I 
	0 
	0 
	0 
	} I I #
coedge $-1 -1 $-1 $71 $70 $112 $131 forward $72 $-1 #
edge $-1 -1 $-1 $132 0 $73 23.479234396459507 $99 $133 forward @7 unknown #
point $-1 -1 $-1 120.04166666666666 -34.61698215417465 234.79234396459506 #
coedge $-1 -1 $-1 $110 $75 $100 $129 reversed $37 $-1 #
intcurve-curve $-1 -1 $-1 forward { surfintcur full nubs 3 open 5 
	-13.084556330541316 3 -9.8226342129765172 2 -6.3600359807673579 2 -3.2745969333635117 2 -2.8215058728824265 3 
	5.3123667056853897e-015 7.354339359721962e-011 259.99999999999648 
	9.0714458535732572 5.2374017055731725 257.04791218611155 
	18.303546577718834 10.567557544830368 254.75681280082239 
	37.480520869837299 21.639388814673033 251.21021329205945 
	47.50346498150995 27.426138294514757 250.01548668733645 
	66.360369101514308 38.313176964282235 248.81294292617039 
	75.342510392178795 43.499018657068262 248.68137622714278 
	85.541646026881352 49.387492361261316 249.02121469366404 
	86.848913684261063 50.14224369233537 249.07406402640262 
	88.156986041656054 50.89745961999688 249.13636754892019 
	0.00014101797385170347 
	torus 150.00000000000003 -86.602540378443976 434.22905071638638 0 0 -1 75.000000000000014 200 0.50000000000000056 0.86602540378443849 0 forward_v I I I I 
	torus 0 173.20508075688778 434.22905071638638 -0 -0 -1 75.000000000000014 -200 -1 0 0 forward_v I I I I 
	nullbs 
	nullbs 
	I I 
	0 
	0 
	0 
	} I I #
vertex $-1 -1 $-1 $86 $134 #
straight-curve $-1 -1 $-1 90.000019281201105 -86.650641768869662 0 0 0 10 I I #
coedge $-1 -1 $-1 $79 $106 $135 $136 reversed $37 $-1 #
point $-1 -1 $-1 -88.156986044147317 50.897459615844269 249.13636754925 #
coedge $-1 -1 $-1 $85 $137 $103 $131 reversed $113 $-1 #
loop $-1 -1 $-1 $-1 $137 $116 #
ellipse-curve $-1 -1 $-1 7.5415455247668813e-014 173.20508075688778 0 0 0 1 -90.000019281201219 -259.85572252575741 0 1 F 0 F 0.66683196881718965 #
point $-1 -1 $-1 -90.000019281201133 -86.650641768869562 0 #
face $-1 -1 $-1 $-1 $113 $2 $-1 $138 reversed single #
loop $-1 -1 $-1 $-1 $135 $89 #
cone-surface $-1 -1 $-1 7.5415455247668813e-014 173.20508075688778 0 0 0 1 30.041647385465566 51.937456833843427 0 1 I I 0 -1 59.999999999999993 forward I I I I #
coedge $-1 -1 $-1 $135 $139 $92 $120 forward $117 $-1 #
edge $-1 -1 $-1 $140 0 $121 23.479234396459507 $119 $141 forward @7 unknown #
vertex $-1 -1 $-1 $93 $142 #
intcurve-curve $-1 -1 $-1 forward { surfintcur full nubs 3 open 4 
	2.5227091401679762 3 6.7649011201384672 2 10.020555422494358 2 11.915390082785244 3 
	-88.15698604460195 50.897459614833387 249.13636755195782 
	-81.652827284340674 62.162993048834501 243.83853690774174 
	-74.09274993538736 73.401619662784782 239.8852431510754 
	-58.797103419799384 92.682056796247679 235.46426295637252 
	-51.624959672498285 100.72217389180577 234.43195114766215 
	-39.430869929504169 112.84914645684495 234.15388418451977 
	-34.819208323871081 117.12965662636465 234.34302685446625 
	-30.041647385465527 121.26762392304431 234.79234396459506 
	0.0084327616721440856 
	torus 0 173.20508075688778 434.22905071638638 -0 -0 -1 75.000000000000014 200 -1 0 0 forward_v I I I I 
	cone 150 -86.602540378443891 0 0 0 1 -180.04164738546552 207.87016430148816 0 1 I I 0 1 275 forward I I I I 
	nullbs 
	nullbs 
	I I 
	0 
	0 
	0 
	} I I #
coedge $-1 -1 $-1 $143 $95 $94 $124 reversed $113 $-1 #
edge $-1 -1 $-1 $140 0 $97 0.66683196881718965 $94 $144 forward @7 unknown #
ellipse-curve $-1 -1 $-1 -150.00000000000003 -86.602540378443848 0 0 0 -1 -59.999980718798895 0.048101390425703258 0 1 F 2.0927917225405865 F 3.1415926535897931 #
point $-1 -1 $-1 -120.04166666666666 -34.616982154174593 0 #
coedge $-1 -1 $-1 $128 $99 $137 $145 forward $62 $-1 #
coedge $-1 -1 $-1 $100 $127 $146 $147 forward $62 $-1 #
edge $-1 -1 $-1 $148 0 $101 9.4214914126978684 $100 $149 forward @7 unknown #
point $-1 -1 $-1 88.156986041656054 50.89745961999688 249.13636754892019 #
edge $-1 -1 $-1 $108 2.0927917225405852 $132 3.1415926535897931 $103 $150 forward @7 unknown #
vertex $-1 -1 $-1 $145 $151 #
straight-curve $-1 -1 $-1 120.04166666666666 -34.61698215417465 0 0 0 10 I I #
point $-1 -1 $-1 90.000019281201105 -86.650641768869662 0 #
coedge $-1 -1 $-1 $146 $119 $110 $136 forward $117 $-1 #
edge $-1 -1 $-1 $121 -3.1415926535897922 $148 -2.0927917225405839 $135 $152 forward @7 unknown #
coedge $-1 -1 $-1 $112 $143 $127 $145 reversed $113 $-1 #
plane-surface $-1 -1 $-1 1.6347125060925193e-014 1.685735056384641e-005 0 0 0 1 10 0 0 forward_v I I I I #
coedge $-1 -1 $-1 $119 $146 $143 $153 forward $117 $-1 #
vertex $-1 -1 $-1 $153 $154 #
straight-curve $-1 -1 $-1 -30.041647385465531 121.26762392304428 0 0 0 10 I I #
point $-1 -1 $-1 -30.041647385465531 121.26762392304428 234.79234396459506 #
coedge $-1 -1 $-1 $137 $123 $139 $153 reversed $113 $-1 #
ellipse-curve $-1 -1 $-1 150 -86.602540378443891 0 0 0 1 -180.04164738546552 207.87016430148816 0 1 F 0 F 0.66683196881718965 #
edge $-1 -1 $-1 $132 0 $155 0.66683196881718976 $127 $156 forward @7 unknown #
coedge $-1 -1 $-1 $139 $135 $128 $147 reversed $117 $-1 #
edge $-1 -1 $-1 $155 0 $148 23.479234396459507 $128 $157 forward @7 unknown #
vertex $-1 -1 $-1 $136 $158 #
intcurve-curve $-1 -1 $-1 forward { surfintcur full nubs 3 open 4 
	0 3 2.0402453085073398 2 6.3290187644955687 2 9.4214914126978684 3 
	30.041647385465595 121.2676239230443 234.79234396459506 
	35.16938693225562 116.82635800847713 234.31009347227044 
	40.103914105040488 112.22296061019549 234.12792716401154 
	54.95994971200151 97.299681259142801 234.60930999585048 
	64.091087726714846 86.550010546047645 236.42051215758286 
	78.128779979853917 67.286973005367017 242.13509052060104 
	83.424716427769852 59.093991026447 245.28179328435164 
	88.156986041780172 50.897459619720905 249.13636754965935 
	0.003920628956702389 
	torus 0 173.20508075688778 434.22905071638638 -0 -0 -1 75.000000000000014 200 -1 0 0 forward_v I I I I 
	cone -150.00000000000003 -86.602540378443848 0 0 0 1 270.04166666666669 51.985558224269198 0 1 I I 0 1 275.00000000000006 forward I I I I 
	nullbs 
	nullbs 
	I I 
	0 
	0 
	0 
	} I I #
ellipse-curve $-1 -1 $-1 150 -86.602540378443891 0 0 0 -1 29.958333333333343 -51.985558224269255 0 1 F 2.0927917225405852 F 3.1415926535897931 #
point $-1 -1 $-1 120.04166666666666 -34.61698215417465 0 #
ellipse-curve $-1 -1 $-1 0 173.20508075688778 234.79234396459506 0 0 1 30.041647385465566 51.937456833843427 0 1 I I #
edge $-1 -1 $-1 $155 2.0927917225405852 $140 3.1415926535897931 $139 $159 forward @7 unknown #
point $-1 -1 $-1 -30.041647385465531 121.26762392304428 0 #
vertex $-1 -1 $-1 $145 $160 #
ellipse-curve $-1 -1 $-1 -150.00000000000003 -86.602540378443848 0 0 0 1 270.04166666666669 51.985558224269198 0 1 F 0 F 0.66683196881718987 #
straight-curve $-1 -1 $-1 30.041647385465602 121.26762392304428 0 0 0 10 I I #
point $-1 -1 $-1 30.041647385465602 121.26762392304428 234.79234396459506 #
ellipse-curve $-1 -1 $-1 7.5415455247668813e-014 173.20508075688778 0 0 0 -1 30.041647385465566 51.937456833843427 0 1 F 2.0927917225405852 F 3.1415926535897931 #
point $-1 -1 $-1 30.041647385465602 121.26762392304428 0 #
End-of-ACIS-data 