700 0 1 0           
33 Autodesk Inventor 17.0.13800.0000 19 ASM 218.0.0.5119 NT 24 Tue Dec 10 11:01:43 2013 
1 9.9999999999999995e-007 1e-010 
body $-1 -1 $-1 $1 $-1 $-1 #
lump $-1 -1 $-1 $-1 $2 $0 #
shell $-1 -1 $-1 $-1 $-1 $3 $-1 $1 #
face $-1 -1 $-1 $4 $5 $2 $-1 $6 forward single #
face $-1 -1 $-1 $7 $8 $2 $-1 $9 reversed single #
loop $-1 -1 $-1 $10 $11 $3 #
cone-surface $-1 -1 $-1 0 0 8.75 0 0 -1 9.2999999999999989 0 0 1 I I -0.70710678118654757 -0.70710678118654757 9.2999999999999989 forward I I I I #
face $-1 -1 $-1 $12 $13 $2 $-1 $14 forward single #
loop $-1 -1 $-1 $15 $16 $4 #
cone-surface $-1 -1 $-1 0 0 7.0000000000000009 0 0 1 7.5499999999999998 0 0 1 I I 0 1 7.5499999999999998 forward I I I I #
loop $-1 -1 $-1 $-1 $17 $3 #
coedge $-1 -1 $-1 $11 $11 $18 $19 forward $5 $-1 #
face $-1 -1 $-1 $20 $21 $2 $-1 $22 reversed single #
loop $-1 -1 $-1 $23 $24 $7 #
cone-surface $-1 -1 $-1 200 0 8.75 0 0 -1 9.300000000000006 0 0 1 I I -0.70710678118654891 -0.70710678118654613 9.300000000000006 forward I I I I #
loop $-1 -1 $-1 $-1 $18 $4 #
coedge $-1 -1 $-1 $16 $16 $25 $26 reversed $8 $-1 #
coedge $-1 -1 $-1 $17 $17 $27 $28 reversed $10 $-1 #
coedge $-1 -1 $-1 $18 $18 $11 $19 reversed $15 $-1 #
edge $-1 -1 $-1 $29 -3.1415926535897931 $29 3.1415926535897931 $18 $30 forward @7 unknown #
face $-1 -1 $-1 $31 $32 $2 $-1 $33 reversed single #
loop $-1 -1 $-1 $34 $35 $12 #
cone-surface $-1 -1 $-1 200 0 7.0000000000000009 0 0 1 7.5499999999999998 0 0 1 I I 0 1 7.5499999999999998 forward I I I I #
loop $-1 -1 $-1 $-1 $36 $7 #
coedge $-1 -1 $-1 $24 $24 $37 $38 forward $13 $-1 #
coedge $-1 -1 $-1 $25 $25 $16 $26 forward $39 $-1 #
edge $-1 -1 $-1 $40 -3.1415926535897931 $40 3.1415926535897931 $25 $41 forward @7 unknown #
coedge $-1 -1 $-1 $27 $27 $17 $28 forward $42 $-1 #
edge $-1 -1 $-1 $43 -3.1415926535897931 $43 3.1415926535897931 $27 $44 forward @7 unknown #
vertex $-1 -1 $-1 $19 $45 #
ellipse-curve $-1 -1 $-1 0 0 10.5 0 0 1 7.5499999999999998 0 0 1 I I #
face $-1 -1 $-1 $46 $42 $2 $-1 $47 reversed single #
loop $-1 -1 $-1 $48 $49 $20 #
cone-surface $-1 -1 $-1 200 0 0 0 0 1 11.050000000000002 0 0 1 I I 0 1 11.050000000000002 forward I I I I #
loop $-1 -1 $-1 $-1 $37 $12 #
coedge $-1 -1 $-1 $35 $35 $50 $51 reversed $21 $-1 #
coedge $-1 -1 $-1 $36 $36 $49 $52 reversed $23 $-1 #
coedge $-1 -1 $-1 $37 $37 $24 $38 reversed $34 $-1 #
edge $-1 -1 $-1 $53 -3.1415926535897931 $53 3.1415926535897931 $37 $54 forward @7 unknown #
loop $-1 -1 $-1 $55 $25 $56 #
vertex $-1 -1 $-1 $26 $57 #
ellipse-curve $-1 -1 $-1 0 0 17.999999999999993 -0 -0 -1 7.5499999999999998 0 0 1 I I #
loop $-1 -1 $-1 $58 $27 $31 #
vertex $-1 -1 $-1 $28 $59 #
ellipse-curve $-1 -1 $-1 0 0 7.0000000000000009 0 0 1 11.050000000000002 0 0 1 I I #
point $-1 -1 $-1 -7.5499999999999998 -9.2460833335625167e-016 10.5 #
face $-1 -1 $-1 $56 $60 $2 $-1 $61 reversed single #
cone-surface $-1 -1 $-1 0 0 0 0 0 1 11.050000000000002 0 0 1 I I 0 1 11.050000000000002 forward I I I I #
loop $-1 -1 $-1 $-1 $62 $20 #
coedge $-1 -1 $-1 $49 $49 $36 $52 forward $32 $-1 #
coedge $-1 -1 $-1 $50 $50 $35 $51 forward $63 $-1 #
edge $-1 -1 $-1 $64 -3.1415926535897931 $64 3.1415926535897931 $50 $65 forward @7 unknown #
edge $-1 -1 $-1 $66 -3.1415926535897931 $66 3.1415926535897931 $49 $67 forward @7 unknown #
vertex $-1 -1 $-1 $38 $68 #
ellipse-curve $-1 -1 $-1 200 0 10.5 0 0 1 7.5499999999999998 0 0 1 I I #
loop $-1 -1 $-1 $-1 $69 $56 #
face $-1 -1 $-1 $70 $39 $2 $-1 $71 forward single #
point $-1 -1 $-1 -7.5499999999999998 9.2460833335625167e-016 17.999999999999993 #
loop $-1 -1 $-1 $-1 $72 $31 #
point $-1 -1 $-1 -11.050000000000002 1.3532347130578257e-015 7.0000000000000009 #
loop $-1 -1 $-1 $73 $74 $46 #
cone-surface $-1 -1 $-1 0 0 25 0 0 -1 -11.050000000000002 0 0 1 I I 0 1 11.050000000000002 forward I I I I #
coedge $-1 -1 $-1 $62 $62 $75 $76 reversed $48 $-1 #
loop $-1 -1 $-1 $77 $50 $78 #
vertex $-1 -1 $-1 $51 $79 #
ellipse-curve $-1 -1 $-1 200 0 17.999999999999993 -0 -0 -1 7.5499999999999998 0 0 1 I I #
vertex $-1 -1 $-1 $52 $80 #
ellipse-curve $-1 -1 $-1 200 0 7.0000000000000009 0 0 1 11.050000000000002 0 0 1 I I #
point $-1 -1 $-1 192.45000000000002 -9.2460833335625167e-016 10.5 #
coedge $-1 -1 $-1 $69 $69 $74 $81 reversed $55 $-1 #
face $-1 -1 $-1 $78 $82 $2 $-1 $83 reversed single #
plane-surface $-1 -1 $-1 -4.4767846579408167e-016 -1.6745445318629807e-016 17.999999999999993 0 0 1 10 0 0 forward_v I I I I #
coedge $-1 -1 $-1 $72 $72 $84 $85 reversed $58 $-1 #
loop $-1 -1 $-1 $-1 $86 $46 #
coedge $-1 -1 $-1 $74 $74 $69 $81 forward $60 $-1 #
coedge $-1 -1 $-1 $75 $75 $62 $76 forward $87 $-1 #
edge $-1 -1 $-1 $88 -3.1415926535897931 $88 3.1415926535897931 $75 $89 forward @7 unknown #
loop $-1 -1 $-1 $-1 $90 $78 #
face $-1 -1 $-1 $91 $63 $2 $-1 $92 forward single #
point $-1 -1 $-1 192.45000000000002 9.2460833335625167e-016 17.999999999999993 #
point $-1 -1 $-1 188.94999999999999 1.3532347130578257e-015 7.0000000000000009 #
edge $-1 -1 $-1 $93 -3.1415926535897931 $93 3.1415926535897931 $74 $94 forward @7 unknown #
loop $-1 -1 $-1 $95 $96 $70 #
cone-surface $-1 -1 $-1 200 0 25 0 0 -1 -11.050000000000002 0 0 1 I I 0 1 11.050000000000002 forward I I I I #
coedge $-1 -1 $-1 $84 $84 $72 $85 forward $97 $-1 #
edge $-1 -1 $-1 $98 -3.1415926535897931 $98 3.1415926535897931 $84 $99 forward @7 unknown #
coedge $-1 -1 $-1 $86 $86 $100 $101 reversed $73 $-1 #
loop $-1 -1 $-1 $97 $75 $102 #
vertex $-1 -1 $-1 $76 $103 #
ellipse-curve $-1 -1 $-1 200 0 0 0 0 1 11.050000000000002 0 0 1 I I #
coedge $-1 -1 $-1 $90 $90 $96 $104 reversed $77 $-1 #
face $-1 -1 $-1 $105 $106 $2 $-1 $107 forward single #
plane-surface $-1 -1 $-1 199.99999999999997 -1.6745445318629807e-016 17.999999999999993 0 0 1 10 0 0 forward_v I I I I #
vertex $-1 -1 $-1 $81 $108 #
ellipse-curve $-1 -1 $-1 0 0 18 0 0 -1 -11.050000000000002 -0 -0 1 I I #
loop $-1 -1 $-1 $-1 $109 $70 #
coedge $-1 -1 $-1 $96 $96 $90 $104 forward $82 $-1 #
loop $-1 -1 $-1 $110 $84 $102 #
vertex $-1 -1 $-1 $85 $111 #
ellipse-curve $-1 -1 $-1 0 0 0 0 0 1 11.050000000000002 0 0 1 I I #
coedge $-1 -1 $-1 $100 $100 $86 $101 forward $112 $-1 #
edge $-1 -1 $-1 $113 -3.1415926535897931 $113 3.1415926535897931 $100 $114 forward @7 unknown #
face $-1 -1 $-1 $-1 $87 $2 $-1 $115 reversed single #
point $-1 -1 $-1 188.94999999999999 1.3532347130578257e-015 0 #
edge $-1 -1 $-1 $116 -3.1415926535897931 $116 3.1415926535897931 $96 $117 forward @7 unknown #
face $-1 -1 $-1 $118 $119 $2 $-1 $120 forward single #
loop $-1 -1 $-1 $-1 $121 $91 #
plane-surface $-1 -1 $-1 193.69523989354076 12.5 0 0 1 0 -10 -0 -0 forward_v I I I I #
point $-1 -1 $-1 11.050000000000002 1.3532347130578257e-015 18 #
coedge $-1 -1 $-1 $109 $109 $122 $123 reversed $95 $-1 #
loop $-1 -1 $-1 $-1 $124 $102 #
point $-1 -1 $-1 -11.050000000000002 1.3532347130578257e-015 0 #
loop $-1 -1 $-1 $125 $100 $126 #
vertex $-1 -1 $-1 $101 $127 #
ellipse-curve $-1 -1 $-1 0 0 25 -0 -0 -1 -11.050000000000002 0 0 1 I I #
plane-surface $-1 -1 $-1 100 0 0 0 0 1 10 0 0 forward_v I I I I #
vertex $-1 -1 $-1 $104 $128 #
ellipse-curve $-1 -1 $-1 200 0 18 0 0 -1 -11.050000000000002 -0 -0 1 I I #
face $-1 -1 $-1 $129 $130 $2 $-1 $131 forward single #
loop $-1 -1 $-1 $-1 $132 $105 #
cone-surface $-1 -1 $-1 200 0 0 0 0 1 -6.3047601064592484 -12.5 0 1 I I 0 1 14.000000000000002 forward I I I I #
coedge $-1 -1 $-1 $133 $134 $135 $136 forward $106 $-1 #
coedge $-1 -1 $-1 $122 $122 $109 $123 forward $125 $-1 #
edge $-1 -1 $-1 $137 -3.1415926535897931 $137 3.1415926535897931 $122 $138 forward @7 unknown #
coedge $-1 -1 $-1 $135 $139 $140 $141 reversed $110 $-1 #
loop $-1 -1 $-1 $142 $122 $126 #
face $-1 -1 $-1 $102 $112 $2 $-1 $143 forward single #
point $-1 -1 $-1 11.050000000000002 1.3532347130578257e-015 25 #
point $-1 -1 $-1 211.05000000000001 1.3532347130578257e-015 18 #
face $-1 -1 $-1 $126 $144 $2 $-1 $145 forward single #
loop $-1 -1 $-1 $-1 $146 $118 #
plane-surface $-1 -1 $-1 6.3047601064592484 -12.5 0 0 -1 0 10 0 0 forward_v I I I I #
coedge $-1 -1 $-1 $147 $148 $149 $150 forward $119 $-1 #
coedge $-1 -1 $-1 $151 $121 $152 $153 forward $106 $-1 #
coedge $-1 -1 $-1 $121 $151 $147 $154 reversed $106 $-1 #
coedge $-1 -1 $-1 $149 $124 $121 $136 reversed $110 $-1 #
edge $-1 -1 $-1 $155 -0 $156 18.73904797870815 $121 $157 forward @7 unknown #
vertex $-1 -1 $-1 $123 $158 #
ellipse-curve $-1 -1 $-1 200 0 25 -0 -0 -1 -11.050000000000002 0 0 1 I I #
coedge $-1 -1 $-1 $124 $149 $146 $159 reversed $110 $-1 #
coedge $-1 -1 $-1 $160 $152 $124 $141 forward $144 $-1 #
edge $-1 -1 $-1 $156 0 $161 4.0758848756074642 $140 $162 forward @7 unknown #
loop $-1 -1 $-1 $-1 $163 $126 #
plane-surface $-1 -1 $-1 100 0 25 0 0 1 10 0 0 forward_v I I I I #
loop $-1 -1 $-1 $-1 $140 $129 #
cone-surface $-1 -1 $-1 0 0 0 0 0 1 6.3047601064592484 12.5 0 1 I I 0 1 14.000000000000002 forward I I I I #
coedge $-1 -1 $-1 $164 $165 $139 $159 forward $130 $-1 #
coedge $-1 -1 $-1 $166 $132 $134 $154 forward $119 $-1 #
coedge $-1 -1 $-1 $132 $166 $164 $167 reversed $119 $-1 #
coedge $-1 -1 $-1 $139 $135 $132 $150 reversed $110 $-1 #
edge $-1 -1 $-1 $168 0 $155 4.0758848756074642 $132 $169 forward @7 unknown #
coedge $-1 -1 $-1 $134 $133 $170 $171 reversed $106 $-1 #
coedge $-1 -1 $-1 $140 $172 $133 $153 reversed $144 $-1 #
edge $-1 -1 $-1 $156 0 $173 2.5 $152 $174 forward @7 unknown #
edge $-1 -1 $-1 $155 0 $175 2.5 $147 $176 forward @7 unknown #
vertex $-1 -1 $-1 $150 $177 #
vertex $-1 -1 $-1 $141 $178 #
straight-curve $-1 -1 $-1 193.69523989354076 12.5 0 -10 -0 -0 F -0 F 18.73904797870815 #
point $-1 -1 $-1 211.05000000000001 1.3532347130578257e-015 25 #
edge $-1 -1 $-1 $161 0 $168 18.73904797870815 $146 $179 forward @7 unknown #
coedge $-1 -1 $-1 $172 $140 $165 $180 forward $144 $-1 #
vertex $-1 -1 $-1 $141 $181 #
ellipse-curve $-1 -1 $-1 0 0 0 0 0 1 6.3047601064592484 12.5 0 1 F 0 F 4.0758848756074642 #
coedge $-1 -1 $-1 $182 $170 $172 $183 forward $142 $-1 #
coedge $-1 -1 $-1 $184 $146 $148 $167 forward $130 $-1 #
coedge $-1 -1 $-1 $146 $184 $160 $180 reversed $130 $-1 #
coedge $-1 -1 $-1 $148 $147 $185 $186 reversed $119 $-1 #
edge $-1 -1 $-1 $168 0 $187 2.5 $164 $188 forward @7 unknown #
vertex $-1 -1 $-1 $159 $189 #
ellipse-curve $-1 -1 $-1 200 0 0 0 0 1 -6.3047601064592484 -12.5 0 1 F 0 F 4.0758848756074642 #
coedge $-1 -1 $-1 $163 $185 $151 $171 forward $142 $-1 #
edge $-1 -1 $-1 $175 -0 $173 18.73904797870815 $151 $190 forward @7 unknown #
coedge $-1 -1 $-1 $152 $160 $163 $183 reversed $144 $-1 #
vertex $-1 -1 $-1 $153 $191 #
straight-curve $-1 -1 $-1 6.3047601064592484 12.5 0 0 0 10 I I #
vertex $-1 -1 $-1 $154 $192 #
straight-curve $-1 -1 $-1 193.69523989354076 12.5 0 0 0 10 I I #
point $-1 -1 $-1 193.69523989354076 12.5 0 #
point $-1 -1 $-1 6.3047601064592484 12.5 0 #
straight-curve $-1 -1 $-1 6.3047601064592484 -12.5 0 10 0 0 F 0 F 18.73904797870815 #
edge $-1 -1 $-1 $161 0 $193 2.5 $160 $194 forward @7 unknown #
point $-1 -1 $-1 6.3047601064592484 -12.5 0 #
coedge $-1 -1 $-1 $185 $163 $184 $195 forward $142 $-1 #
edge $-1 -1 $-1 $173 0 $193 4.0758848756074642 $172 $196 forward @7 unknown #
coedge $-1 -1 $-1 $165 $164 $182 $195 reversed $130 $-1 #
coedge $-1 -1 $-1 $170 $182 $166 $186 forward $142 $-1 #
edge $-1 -1 $-1 $187 0 $175 4.0758848756074642 $166 $197 forward @7 unknown #
vertex $-1 -1 $-1 $167 $198 #
straight-curve $-1 -1 $-1 193.69523989354076 -12.5 0 0 0 10 I I #
point $-1 -1 $-1 193.69523989354076 -12.5 0 #
straight-curve $-1 -1 $-1 193.69523989354076 12.5 25 -10 -0 -0 I I #
point $-1 -1 $-1 6.3047601064592484 12.5 25 #
point $-1 -1 $-1 193.69523989354076 12.5 25 #
vertex $-1 -1 $-1 $180 $199 #
straight-curve $-1 -1 $-1 6.3047601064592484 -12.5 0 0 0 10 I I #
edge $-1 -1 $-1 $193 0 $187 18.73904797870815 $184 $200 forward @7 unknown #
ellipse-curve $-1 -1 $-1 0 0 25 0 0 1 6.3047601064592484 12.5 0 1 I I #
ellipse-curve $-1 -1 $-1 200 0 25 0 0 1 -6.3047601064592484 -12.5 0 1 I I #
point $-1 -1 $-1 193.69523989354076 -12.5 25 #
point $-1 -1 $-1 6.3047601064592484 -12.5 25 #
straight-curve $-1 -1 $-1 6.3047601064592484 -12.5 25 10 0 0 I I #
End-of-ACIS-data 