700 0 1 0           
33 Autodesk Inventor 17.0.13800.0000 19 ASM 218.0.0.5119 NT 24 Tue Dec 10 11:01:44 2013 
25.399999999999999 9.9999999999999995e-007 1e-010 
body $-1 -1 $-1 $1 $-1 $-1 #
lump $-1 -1 $-1 $-1 $2 $0 #
shell $-1 -1 $-1 $-1 $-1 $3 $-1 $1 #
face $-1 -1 $-1 $4 $5 $2 $-1 $6 forward single #
face $-1 -1 $-1 $7 $8 $2 $-1 $9 forward single #
loop $-1 -1 $-1 $-1 $10 $3 #
cone-surface $-1 -1 $-1 -0.37500000000000006 0.14433756729740616 0.75 7.5707192377305687e-016 -1 0 -0.08838834764831846 -6.1814663727707665e-017 0.088388347648318405 1 I I 0 1 0.12499999999999999 forward I I I I #
face $-1 -1 $-1 $11 $12 $2 $-1 $13 forward single #
loop $-1 -1 $-1 $-1 $14 $4 #
cone-surface $-1 -1 $-1 -0.0075377264818329605 0.4286607934788555 0.75 -0.86602540378443826 -0.50000000000000078 0 -0.044194173824159279 0.076546554461974323 0.088388347648318391 1 I I 0 1 0.12499999999999999 forward I I I I #
coedge $-1 -1 $-1 $15 $16 $17 $18 forward $5 $-1 #
face $-1 -1 $-1 $19 $20 $2 $-1 $21 forward single #
loop $-1 -1 $-1 $-1 $22 $7 #
cone-surface $-1 -1 $-1 0.36746227351816724 0.2208582593594734 0.75 -0.86602540378443893 0.49999999999999967 0 0.044194173824159147 0.07654655446197435 0.088388347648318433 1 I I 0 1 0.12499999999999999 forward I I I I #
coedge $-1 -1 $-1 $23 $24 $25 $26 forward $8 $-1 #
coedge $-1 -1 $-1 $27 $10 $24 $28 forward $5 $-1 #
coedge $-1 -1 $-1 $10 $27 $29 $30 reversed $5 $-1 #
coedge $-1 -1 $-1 $31 $25 $10 $18 reversed $32 $-1 #
edge $-1 -1 $-1 $33 -0.91654355233853035 $34 0.18330871046770608 $17 $35 forward @7 tangent #
face $-1 -1 $-1 $36 $37 $2 $-1 $38 forward single #
loop $-1 -1 $-1 $-1 $39 $11 #
cone-surface $-1 -1 $-1 0.37499999999999978 -0.14433756729740618 0.75 -3.0282876950922282e-016 1 0 0.088388347648318502 3.0907331863853826e-017 0.088388347648318363 1 I I 0 1 0.12499999999999999 forward I I I I #
coedge $-1 -1 $-1 $40 $41 $42 $43 forward $12 $-1 #
coedge $-1 -1 $-1 $44 $14 $41 $45 forward $8 $-1 #
coedge $-1 -1 $-1 $14 $44 $15 $28 reversed $8 $-1 #
coedge $-1 -1 $-1 $17 $42 $14 $26 reversed $32 $-1 #
edge $-1 -1 $-1 $34 -1.0777445680663491 $46 0.02210769473988769 $25 $47 forward @7 tangent #
coedge $-1 -1 $-1 $16 $15 $48 $49 forward $5 $-1 #
edge $-1 -1 $-1 $34 -1.5707963267948966 $50 -6.0565753901844583e-016 $15 $51 forward @7 unknown #
coedge $-1 -1 $-1 $52 $53 $16 $30 forward $54 $-1 #
edge $-1 -1 $-1 $33 -1.5707963267948963 $55 3.496765431890261e-016 $29 $56 forward @7 unknown #
coedge $-1 -1 $-1 $57 $17 $53 $58 reversed $32 $-1 #
loop $-1 -1 $-1 $-1 $17 $59 #
vertex $-1 -1 $-1 $18 $60 #
vertex $-1 -1 $-1 $18 $61 #
straight-curve $-1 -1 $-1 -0.37500000000000006 0.14433756729740616 0.875 -2.9805981250907746e-016 0.39370078740157477 0 F -2.1823381046770609 F 1.4491032628062379 #
face $-1 -1 $-1 $62 $54 $2 $-1 $63 forward single #
loop $-1 -1 $-1 $-1 $64 $19 #
cone-surface $-1 -1 $-1 0.11746227351816753 -0.36519582665687955 0.75 0.86602540378443837 0.50000000000000044 0 0.044194173824159293 -0.076546554461974239 0.088388347648318447 1 I I 0 1 0.12499999999999999 forward I I I I #
coedge $-1 -1 $-1 $65 $66 $67 $68 forward $20 $-1 #
coedge $-1 -1 $-1 $69 $22 $66 $70 forward $12 $-1 #
coedge $-1 -1 $-1 $22 $69 $23 $45 reversed $12 $-1 #
coedge $-1 -1 $-1 $25 $67 $22 $43 reversed $32 $-1 #
edge $-1 -1 $-1 $46 -1.07774456806635 $71 0.022107694739887784 $42 $72 forward @7 tangent #
coedge $-1 -1 $-1 $24 $23 $73 $74 forward $8 $-1 #
edge $-1 -1 $-1 $46 -1.5707963267948966 $75 1.0927391974657047e-016 $23 $76 forward @7 unknown #
vertex $-1 -1 $-1 $26 $77 #
straight-curve $-1 -1 $-1 -0.0075377264818329605 0.4286607934788555 0.875 0.34095488337970009 0.19685039370078766 0 F -2.4826423067312535 F 1.8918576962110312 #
coedge $-1 -1 $-1 $78 $79 $27 $49 reversed $80 $-1 #
edge $-1 -1 $-1 $50 -0.36661742093541244 $55 1.0998522628062366 $48 $81 forward @7 tangent #
vertex $-1 -1 $-1 $49 $82 #
ellipse-curve $-1 -1 $-1 -0.37500000000000011 0.21650635094610943 0.75 -0.49999999999999933 -0.86602540378443904 -3.0282876950922291e-016 -0.12500000000000006 0.072168783648703119 -7.5707192377305729e-017 0.8660254037844386 F -1.570796326794897 F -6.0565753901844583e-016 #
coedge $-1 -1 $-1 $83 $29 $84 $85 forward $54 $-1 #
coedge $-1 -1 $-1 $29 $83 $31 $58 forward $54 $-1 #
loop $-1 -1 $-1 $-1 $52 $36 #
vertex $-1 -1 $-1 $49 $86 #
ellipse-curve $-1 -1 $-1 -0.37499999999999978 -0.21650635094610973 0.75 0.50000000000000056 -0.86602540378443837 1.748382715945131e-016 -0.12499999999999997 -0.0721687836487033 4.3709567898628262e-017 0.8660254037844386 F -1.5707963267948963 F 3.496765431890261e-016 #
coedge $-1 -1 $-1 $67 $31 $87 $88 reversed $32 $-1 #
edge $-1 -1 $-1 $89 -0.75534253661071227 $33 0.34450972619552456 $31 $90 forward @7 tangent #
face $-1 -1 $-1 $91 $32 $2 $-1 $92 forward single #
point $-1 -1 $-1 -0.37499999999999978 -0.21650635094610973 0.875 #
point $-1 -1 $-1 -0.37500000000000017 0.21650635094610934 0.875 #
face $-1 -1 $-1 $93 $94 $2 $-1 $95 forward single #
cone-surface $-1 -1 $-1 -0.25753772648183221 -0.28432322618144912 0.75 0.86602540378443904 -0.49999999999999944 0 -0.044194173824159202 -0.07654655446197435 0.088388347648318405 1 I I 0 1 0.12499999999999999 forward I I I I #
coedge $-1 -1 $-1 $96 $97 $98 $99 forward $37 $-1 #
coedge $-1 -1 $-1 $100 $39 $96 $101 forward $20 $-1 #
coedge $-1 -1 $-1 $39 $100 $40 $70 reversed $20 $-1 #
coedge $-1 -1 $-1 $42 $57 $39 $68 reversed $32 $-1 #
edge $-1 -1 $-1 $71 -0.91654355233853035 $102 0.18330871046770603 $67 $103 forward @7 tangent #
coedge $-1 -1 $-1 $41 $40 $104 $105 forward $12 $-1 #
edge $-1 -1 $-1 $71 -1.5707963267948966 $106 0 $40 $107 forward @7 unknown #
vertex $-1 -1 $-1 $43 $108 #
straight-curve $-1 -1 $-1 0.36746227351816724 0.2208582593594734 0.875 0.34095488337970031 -0.19685039370078725 0 F -2.9474945695374895 F 1.4270054334047921 #
coedge $-1 -1 $-1 $109 $110 $44 $74 reversed $111 $-1 #
edge $-1 -1 $-1 $75 -0.20541640520759413 $50 1.2610532785340549 $73 $112 forward @7 tangent #
vertex $-1 -1 $-1 $74 $113 #
ellipse-curve $-1 -1 $-1 -5.3134443476769916e-016 0.4330127018922193 0.75 -1 -3.2140598786784191e-016 5.4636959873285283e-017 -4.6390958403664049e-017 0.14433756729740649 1.3659239968321307e-017 0.86602540378443837 F -1.5707963267948966 F 1.0927391974657047e-016 #
point $-1 -1 $-1 -5.6822438268216671e-016 0.4330127018922193 0.875 #
coedge $-1 -1 $-1 $114 $48 $110 $115 reversed $80 $-1 #
coedge $-1 -1 $-1 $48 $116 $117 $118 forward $80 $-1 #
loop $-1 -1 $-1 $-1 $48 $119 #
straight-curve $-1 -1 $-1 -0.5 0.14433756729740607 0.75 2.9805981250907746e-016 -0.39370078740157477 0 F -1.4491032628062379 F 2.1823381046770609 #
point $-1 -1 $-1 -0.50000000000000011 0.28867513459481253 0.75 #
coedge $-1 -1 $-1 $53 $52 $97 $120 reversed $54 $-1 #
coedge $-1 -1 $-1 $117 $121 $52 $85 reversed $122 $-1 #
edge $-1 -1 $-1 $55 -0.52781843666323081 $123 0.93865124707841818 $84 $124 forward @7 tangent #
point $-1 -1 $-1 -0.49999999999999972 -0.28867513459481303 0.75 #
coedge $-1 -1 $-1 $97 $96 $57 $88 forward $37 $-1 #
edge $-1 -1 $-1 $102 -0.75534253661071193 $89 0.34450972619552411 $57 $125 forward @7 tangent #
vertex $-1 -1 $-1 $88 $126 #
straight-curve $-1 -1 $-1 -0.25753772648183221 -0.28432322618144912 0.875 -0.34095488337970037 0.19685039370078716 0 F -2.6250925380818519 F 1.7494074648604281 #
face $-1 -1 $-1 $127 $128 $2 $-1 $129 reversed single #
plane-surface $-1 -1 $-1 0.14656606271511324 4.2896004694493896e-017 0.875 0 0 1 0.39370078740157477 0 0 forward_v I I I I #
face $-1 -1 $-1 $119 $122 $2 $-1 $130 forward single #
loop $-1 -1 $-1 $-1 $98 $62 #
plane-surface $-1 -1 $-1 2.6225740739176924e-016 -0.5773502691896254 0 0.50000000000000044 -0.86602540378443837 0 0.34095488337970009 0.19685039370078755 0 forward_v I I I I #
coedge $-1 -1 $-1 $87 $64 $65 $101 reversed $37 $-1 #
coedge $-1 -1 $-1 $64 $87 $83 $120 forward $37 $-1 #
coedge $-1 -1 $-1 $131 $132 $64 $99 reversed $94 $-1 #
edge $-1 -1 $-1 $123 -0.52781843666323036 $133 0.93865124707841829 $98 $134 forward @7 tangent #
coedge $-1 -1 $-1 $66 $65 $135 $136 forward $20 $-1 #
edge $-1 -1 $-1 $102 -1.5707963267948966 $133 0 $65 $137 forward @7 unknown #
vertex $-1 -1 $-1 $68 $138 #
straight-curve $-1 -1 $-1 0.37499999999999978 -0.14433756729740618 0.875 1.1922392500363103e-016 -0.39370078740157477 0 F -2.1823381046770614 F 1.4491032628062372 #
coedge $-1 -1 $-1 $139 $140 $69 $105 reversed $141 $-1 #
edge $-1 -1 $-1 $106 -0.20541640520759399 $75 1.2610532785340558 $104 $142 forward @7 tangent #
vertex $-1 -1 $-1 $105 $143 #
ellipse-curve $-1 -1 $-1 0.37499999999999967 0.21650635094610968 0.75 -0.50000000000000056 0.86602540378443837 0 0.12499999999999994 0.072168783648703286 0 0.86602540378443871 F -1.5707963267948966 F 0 #
point $-1 -1 $-1 0.37499999999999967 0.21650635094610968 0.875 #
coedge $-1 -1 $-1 $144 $73 $140 $145 reversed $111 $-1 #
coedge $-1 -1 $-1 $73 $146 $78 $115 forward $111 $-1 #
loop $-1 -1 $-1 $-1 $73 $147 #
straight-curve $-1 -1 $-1 -0.070037726481833068 0.53691396895191024 0.75 -0.34095488337970009 -0.19685039370078766 0 F -1.8918576962110312 F 2.4826423067312535 #
point $-1 -1 $-1 -5.7773539317136317e-016 0.57735026918962562 0.75 #
coedge $-1 -1 $-1 $116 $78 $148 $149 reversed $80 $-1 #
edge $-1 -1 $-1 $150 0.34029547438752678 $50 1.9050000000000002 $110 $151 forward @7 unknown #
coedge $-1 -1 $-1 $79 $114 $152 $153 reversed $80 $-1 #
coedge $-1 -1 $-1 $154 $84 $79 $118 reversed $122 $-1 #
edge $-1 -1 $-1 $155 0.34029547438752578 $55 1.9050000000000002 $79 $156 forward @7 unknown #
face $-1 -1 $-1 $59 $80 $2 $-1 $157 forward single #
edge $-1 -1 $-1 $89 -1.5707963267948974 $123 -3.4967654318902585e-016 $97 $158 forward @7 unknown #
coedge $-1 -1 $-1 $84 $159 $131 $160 forward $122 $-1 #
loop $-1 -1 $-1 $-1 $84 $93 #
vertex $-1 -1 $-1 $85 $161 #
straight-curve $-1 -1 $-1 -0.3200377264818321 -0.39257640165450397 0.75 0.34095488337970037 -0.19685039370078716 0 F -1.7494074648604281 F 2.6250925380818519 #
straight-curve $-1 -1 $-1 0.11746227351816753 -0.36519582665687955 0.875 -0.34095488337970009 -0.19685039370078752 0 F -2.1602402752756169 F 2.2142597276666676 #
point $-1 -1 $-1 2.1854783949314103e-016 -0.43301270189221902 0.875 #
face $-1 -1 $-1 $162 $163 $2 $-1 $164 reversed single #
loop $-1 -1 $-1 $165 $166 $91 #
cone-surface $-1 -1 $-1 0 0 0 0 0 1 0.171875 0 0 1 I I 0 1 0.171875 forward I I I I #
plane-surface $-1 -1 $-1 -0.49999999999999972 -0.28867513459481298 0 -0.49999999999999944 -0.86602540378443904 0 0.34095488337970037 -0.19685039370078716 0 forward_v I I I I #
coedge $-1 -1 $-1 $167 $98 $121 $160 reversed $94 $-1 #
coedge $-1 -1 $-1 $98 $168 $169 $170 forward $94 $-1 #
vertex $-1 -1 $-1 $99 $171 #
straight-curve $-1 -1 $-1 0.1799622735181676 -0.47344900212993429 0.75 0.34095488337970009 0.19685039370078752 0 F -2.2142597276666676 F 2.1602402752756169 #
coedge $-1 -1 $-1 $169 $172 $100 $136 reversed $173 $-1 #
edge $-1 -1 $-1 $133 -0.36661742093541205 $106 1.0998522628062366 $135 $174 forward @7 tangent #
ellipse-curve $-1 -1 $-1 0.37499999999999978 -0.21650635094610929 0.75 0.49999999999999956 0.86602540378443893 0 0.125 -0.072168783648703147 0 0.86602540378443871 F -1.5707963267948966 F 0 #
point $-1 -1 $-1 0.37499999999999972 -0.21650635094610934 0.875 #
coedge $-1 -1 $-1 $175 $104 $172 $176 reversed $141 $-1 #
coedge $-1 -1 $-1 $104 $177 $109 $145 forward $141 $-1 #
loop $-1 -1 $-1 $-1 $104 $178 #
straight-curve $-1 -1 $-1 0.42996227351816713 0.32911143483252825 0.75 -0.34095488337970031 0.19685039370078725 0 F -1.4270054334047921 F 2.9474945695374895 #
point $-1 -1 $-1 0.49999999999999961 0.28867513459481298 0.75 #
coedge $-1 -1 $-1 $146 $109 $179 $180 reversed $111 $-1 #
edge $-1 -1 $-1 $181 0.34029547438752644 $75 1.9050000000000002 $140 $182 forward @7 unknown #
coedge $-1 -1 $-1 $110 $144 $183 $184 reversed $111 $-1 #
face $-1 -1 $-1 $178 $111 $2 $-1 $185 forward single #
coedge $-1 -1 $-1 $183 $186 $114 $149 forward $187 $-1 #
edge $-1 -1 $-1 $188 3.1975938964268735 $150 4.5157878606510815 $114 $189 forward @7 unknown #
vertex $-1 -1 $-1 $115 $190 #
straight-curve $-1 -1 $-1 -0.50000000000000011 0.28867513459481253 0 0 0 0.39370078740157477 I I #
coedge $-1 -1 $-1 $191 $192 $116 $153 forward $193 $-1 #
edge $-1 -1 $-1 $155 1.8793999322026673 $188 3.1975938964268735 $116 $194 forward @7 unknown #
coedge $-1 -1 $-1 $159 $117 $192 $195 reversed $122 $-1 #
vertex $-1 -1 $-1 $118 $196 #
straight-curve $-1 -1 $-1 -0.49999999999999972 -0.28867513459481303 0 0 0 0.39370078740157477 I I #
plane-surface $-1 -1 $-1 -0.50000000000000011 0.28867513459481259 0 -1 -7.5707192377305687e-016 0 2.9805981250907746e-016 -0.39370078740157477 0 forward_v I I I I #
ellipse-curve $-1 -1 $-1 1.5298348764519871e-016 -0.43301270189221902 0.75 1 6.6211348159544731e-016 -1.748382715945129e-016 9.5567849208302928e-017 -0.14433756729740641 -4.3709567898628225e-017 0.86602540378443871 F -1.5707963267948974 F -3.4967654318902585e-016 #
coedge $-1 -1 $-1 $121 $154 $197 $198 reversed $122 $-1 #
edge $-1 -1 $-1 $199 0.34029547438752533 $123 1.9050000000000002 $121 $200 forward @7 unknown #
point $-1 -1 $-1 2.4855133685350164e-016 -0.5773502691896254 0.75 #
face $-1 -1 $-1 $201 $202 $2 $-1 $203 forward single #
loop $-1 -1 $-1 $-1 $204 $127 #
plane-surface $-1 -1 $-1 0.14656606271511324 4.2896004694493896e-017 0.62499999999999989 0 0 1 0.39370078740157477 0 0 forward_v I I I I #
loop $-1 -1 $-1 $-1 $205 $91 #
coedge $-1 -1 $-1 $166 $166 $206 $207 reversed $128 $-1 #
coedge $-1 -1 $-1 $168 $131 $208 $209 reversed $94 $-1 #
coedge $-1 -1 $-1 $132 $167 $210 $211 reversed $94 $-1 #
coedge $-1 -1 $-1 $212 $135 $132 $170 reversed $173 $-1 #
edge $-1 -1 $-1 $213 0.340295474387525 $133 1.9050000000000002 $132 $214 forward @7 unknown #
point $-1 -1 $-1 0.49999999999999978 -0.28867513459481242 0.75 #
coedge $-1 -1 $-1 $135 $215 $139 $176 forward $173 $-1 #
loop $-1 -1 $-1 $216 $135 $217 #
straight-curve $-1 -1 $-1 0.49999999999999978 -0.14433756729740613 0.75 -1.1922392500363103e-016 0.39370078740157477 0 F -1.4491032628062372 F 2.1823381046770614 #
coedge $-1 -1 $-1 $177 $139 $218 $219 reversed $141 $-1 #
edge $-1 -1 $-1 $220 0.34029547438752572 $106 1.9050000000000002 $139 $221 forward @7 unknown #
coedge $-1 -1 $-1 $140 $175 $222 $223 reversed $141 $-1 #
face $-1 -1 $-1 $224 $141 $2 $-1 $225 forward single #
coedge $-1 -1 $-1 $222 $226 $144 $180 forward $227 $-1 #
edge $-1 -1 $-1 $228 3.1975938964268735 $181 4.5157878606510815 $144 $229 forward @7 unknown #
vertex $-1 -1 $-1 $145 $230 #
straight-curve $-1 -1 $-1 -5.7773539317136317e-016 0.57735026918962562 0 0 0 0.39370078740157477 I I #
coedge $-1 -1 $-1 $186 $148 $146 $184 forward $187 $-1 #
edge $-1 -1 $-1 $150 1.8793999322026673 $228 3.1975938964268735 $146 $231 forward @7 unknown #
plane-surface $-1 -1 $-1 -5.2451481478353848e-016 0.57735026918962573 0 -0.50000000000000078 0.86602540378443826 0 -0.34095488337970009 -0.19685039370078769 -0 forward_v I I I I #
coedge $-1 -1 $-1 $148 $183 $232 $233 forward $187 $-1 #
loop $-1 -1 $-1 $-1 $148 $234 #
vertex $-1 -1 $-1 $233 $235 #
intcurve-curve $-1 -1 $-1 forward { exactcur full nurbs 2 open 2 
	3.1975938964268735 2 4.5157878606510815 2 
	-0.49999999999999989 -3.824587191129968e-016 1.5141438475461136e-016 1 
	-0.5 0.13397459621558677 3.7502809257023003e-014 1.0935213655811964 
	-0.50000000000000011 0.28867513459481259 0.13397459621556171 1.109935191163085 
	0 
	null_surface 
	null_surface 
	nullbs 
	nullbs 
	I I 
	0 
	0 
	0 
	F 1 F 0 } I I #
point $-1 -1 $-1 -0.50000000000000011 0.28867513459481259 0.13397459621556171 #
coedge $-1 -1 $-1 $192 $152 $236 $237 forward $193 $-1 #
coedge $-1 -1 $-1 $152 $191 $154 $195 forward $193 $-1 #
loop $-1 -1 $-1 $-1 $192 $238 #
intcurve-curve $-1 -1 $-1 forward { exactcur full nurbs 2 open 2 
	1.8793999322026673 2 3.1975938964268735 2 
	-0.49999999999999972 -0.28867513459481298 0.13397459621556132 1.109935191163085 
	-0.49999999999999978 -0.13397459621558735 3.7415390121225748e-014 1.0935213655811964 
	-0.49999999999999989 -3.824587191129968e-016 1.5141438475461136e-016 1 
	0 
	null_surface 
	null_surface 
	nullbs 
	nullbs 
	I I 
	0 
	0 
	0 
	F 1 F 0 } I I #
edge $-1 -1 $-1 $239 3.1975938964268744 $155 4.5157878606510824 $154 $240 forward @7 unknown #
point $-1 -1 $-1 -0.49999999999999972 -0.28867513459481298 0.13397459621556132 #
coedge $-1 -1 $-1 $241 $208 $159 $198 forward $242 $-1 #
edge $-1 -1 $-1 $199 1.8793999322026664 $239 3.1975938964268744 $159 $243 forward @7 unknown #
vertex $-1 -1 $-1 $160 $244 #
straight-curve $-1 -1 $-1 2.4855133685350164e-016 -0.5773502691896254 0 0 0 0.39370078740157477 I I #
face $-1 -1 $-1 $238 $242 $2 $-1 $203 forward single #
loop $-1 -1 $-1 $-1 $210 $162 #
cone-surface $-1 -1 $-1 0 0 0 0 0 1 0.49999999999999978 0 0 1 I I 0.49999999999999994 0.86602540378443871 0.49999999999999978 forward I I I I #
coedge $-1 -1 $-1 $245 $246 $247 $248 forward $163 $-1 #
coedge $-1 -1 $-1 $205 $205 $249 $250 reversed $165 $-1 #
coedge $-1 -1 $-1 $206 $206 $166 $207 forward $251 $-1 #
edge $-1 -1 $-1 $252 -3.1415926535897931 $252 3.1415926535897931 $206 $253 forward @7 unknown #
coedge $-1 -1 $-1 $197 $241 $167 $209 forward $242 $-1 #
edge $-1 -1 $-1 $254 3.1975938964268744 $199 4.5157878606510824 $167 $255 forward @7 unknown #
coedge $-1 -1 $-1 $256 $257 $168 $211 forward $202 $-1 #
edge $-1 -1 $-1 $213 1.8793999322026675 $254 3.1975938964268744 $168 $258 forward @7 unknown #
coedge $-1 -1 $-1 $215 $169 $257 $259 reversed $173 $-1 #
vertex $-1 -1 $-1 $170 $260 #
straight-curve $-1 -1 $-1 0.49999999999999978 -0.28867513459481242 0 0 0 0.39370078740157477 I I #
coedge $-1 -1 $-1 $172 $212 $261 $262 reversed $173 $-1 #
loop $-1 -1 $-1 $-1 $263 $217 #
face $-1 -1 $-1 $264 $173 $2 $-1 $265 forward single #
coedge $-1 -1 $-1 $261 $266 $175 $219 forward $267 $-1 #
edge $-1 -1 $-1 $268 3.1975938964268744 $220 4.5157878606510815 $175 $269 forward @7 unknown #
vertex $-1 -1 $-1 $176 $270 #
straight-curve $-1 -1 $-1 0.49999999999999961 0.28867513459481298 0 0 0 0.39370078740157477 I I #
coedge $-1 -1 $-1 $226 $179 $177 $223 forward $227 $-1 #
edge $-1 -1 $-1 $181 1.8793999322026671 $268 3.1975938964268744 $177 $271 forward @7 unknown #
face $-1 -1 $-1 $272 $273 $2 $-1 $274 forward single #
plane-surface $-1 -1 $-1 0.49999999999999972 0.28867513459481287 0 0.49999999999999967 0.86602540378443893 0 -0.34095488337970031 0.19685039370078725 0 forward_v I I I I #
coedge $-1 -1 $-1 $179 $222 $275 $276 forward $227 $-1 #
loop $-1 -1 $-1 $-1 $179 $277 #
vertex $-1 -1 $-1 $276 $278 #
intcurve-curve $-1 -1 $-1 forward { exactcur full nurbs 2 open 2 
	3.1975938964268735 2 4.5157878606510815 2 
	-0.25000000000000044 0.43301270189221908 3.3796459976907501e-016 1 
	-0.13397459621553934 0.50000000000001288 3.769950231256683e-014 1.0935213655811988 
	-5.7773539317136317e-016 0.57735026918962562 0.13397459621556157 1.1099351911630879 
	0 
	null_surface 
	null_surface 
	nullbs 
	nullbs 
	I I 
	0 
	0 
	0 
	F 1 F 0 } I I #
point $-1 -1 $-1 -5.7773539317136317e-016 0.57735026918962562 0.13397459621556157 #
intcurve-curve $-1 -1 $-1 forward { exactcur full nurbs 2 open 2 
	1.8793999322026673 2 3.1975938964268735 2 
	-0.50000000000000011 0.28867513459481259 0.13397459621556171 1.1099351911630853 
	-0.36602540378446136 0.3660254037844255 3.783063101626271e-014 1.0935213655811964 
	-0.25000000000000044 0.43301270189221908 3.3796459976907501e-016 1 
	0 
	null_surface 
	null_surface 
	nullbs 
	nullbs 
	I I 
	0 
	0 
	0 
	F 1 F 0 } I I #
coedge $-1 -1 $-1 $275 $236 $186 $233 reversed $279 $-1 #
edge $-1 -1 $-1 $228 2.0943951023931962 $188 3.1415926535897931 $232 $280 forward @7 unknown #
face $-1 -1 $-1 $277 $187 $2 $-1 $203 forward single #
point $-1 -1 $-1 -0.49999999999999978 6.1232339957367636e-017 0 #
coedge $-1 -1 $-1 $232 $281 $191 $237 reversed $279 $-1 #
edge $-1 -1 $-1 $188 -3.1415926535897931 $239 -2.0943951023931948 $236 $280 forward @7 unknown #
face $-1 -1 $-1 $234 $193 $2 $-1 $203 forward single #
vertex $-1 -1 $-1 $282 $283 #
intcurve-curve $-1 -1 $-1 forward { exactcur full nurbs 2 open 2 
	3.1975938964268744 2 4.5157878606510824 2 
	-0.24999999999999964 -0.4330127018922193 0 1 
	-0.36602540378446063 -0.36602540378442583 3.710942314593535e-014 1.0935213655811964 
	-0.49999999999999972 -0.28867513459481298 0.13397459621556132 1.109935191163085 
	0 
	null_surface 
	null_surface 
	nullbs 
	nullbs 
	I I 
	0 
	0 
	0 
	F 1 F 0 } I I #
coedge $-1 -1 $-1 $208 $197 $281 $282 forward $242 $-1 #
loop $-1 -1 $-1 $-1 $197 $201 #
intcurve-curve $-1 -1 $-1 forward { exactcur full nurbs 2 open 2 
	1.8793999322026664 2 3.1975938964268744 2 
	2.4855133685350164e-016 -0.5773502691896254 0.13397459621556115 1.1099351911630879 
	-0.13397459621553864 -0.50000000000001277 3.7284261417529861e-014 1.0935213655811988 
	-0.24999999999999964 -0.4330127018922193 0 1 
	0 
	null_surface 
	null_surface 
	nullbs 
	nullbs 
	I I 
	0 
	0 
	0 
	F 1 F 0 } I I #
point $-1 -1 $-1 2.4855133685350164e-016 -0.5773502691896254 0.13397459621556115 #
coedge $-1 -1 $-1 $284 $204 $285 $286 reversed $163 $-1 #
coedge $-1 -1 $-1 $204 $287 $288 $289 forward $163 $-1 #
coedge $-1 -1 $-1 $290 $291 $204 $248 reversed $292 $-1 #
edge $-1 -1 $-1 $293 0 $294 1.6476159435634741 $247 $295 forward @7 unknown #
coedge $-1 -1 $-1 $249 $249 $205 $250 forward $273 $-1 #
edge $-1 -1 $-1 $296 -3.1415926535897931 $296 3.1415926535897931 $249 $297 forward @7 unknown #
loop $-1 -1 $-1 $279 $206 $272 #
vertex $-1 -1 $-1 $207 $298 #
ellipse-curve $-1 -1 $-1 0 0 0 0 0 1 0.171875 0 0 1 I I #
vertex $-1 -1 $-1 $299 $300 #
intcurve-curve $-1 -1 $-1 forward { exactcur full nurbs 2 open 2 
	3.1975938964268744 2 4.5157878606510824 2 
	0.25000000000000011 -0.43301270189221891 -1.689822998845375e-016 1 
	0.13397459621553928 -0.50000000000001232 3.7022004010138089e-014 1.0935213655811962 
	2.4855133685350164e-016 -0.5773502691896254 0.13397459621556115 1.1099351911630848 
	0 
	null_surface 
	null_surface 
	nullbs 
	nullbs 
	I I 
	0 
	0 
	0 
	F 1 F 0 } I I #
coedge $-1 -1 $-1 $257 $210 $301 $299 forward $202 $-1 #
coedge $-1 -1 $-1 $210 $256 $212 $259 forward $202 $-1 #
intcurve-curve $-1 -1 $-1 forward { exactcur full nurbs 2 open 2 
	1.8793999322026675 2 3.1975938964268744 2 
	0.49999999999999978 -0.28867513459481248 0.13397459621556101 1.1099351911630853 
	0.36602540378446086 -0.36602540378442538 3.706571357803672e-014 1.0935213655811964 
	0.25000000000000011 -0.43301270189221891 -1.689822998845375e-016 1 
	0 
	null_surface 
	null_surface 
	nullbs 
	nullbs 
	I I 
	0 
	0 
	0 
	F 1 F 0 } I I #
edge $-1 -1 $-1 $302 3.1975938964268744 $213 4.5157878606510824 $212 $303 forward @7 unknown #
point $-1 -1 $-1 0.49999999999999978 -0.28867513459481248 0.13397459621556101 #
coedge $-1 -1 $-1 $266 $218 $215 $262 forward $267 $-1 #
edge $-1 -1 $-1 $220 1.879399932202666 $302 3.1975938964268744 $215 $304 forward @7 unknown #
coedge $-1 -1 $-1 $305 $285 $291 $306 reversed $216 $-1 #
face $-1 -1 $-1 $307 $292 $2 $-1 $308 forward single #
plane-surface $-1 -1 $-1 0.49999999999999978 -0.28867513459481242 0 1 3.0282876950922282e-016 0 -1.1922392500363103e-016 0.39370078740157477 0 forward_v I I I I #
coedge $-1 -1 $-1 $218 $261 $309 $310 forward $267 $-1 #
loop $-1 -1 $-1 $-1 $218 $311 #
vertex $-1 -1 $-1 $219 $312 #
intcurve-curve $-1 -1 $-1 forward { exactcur full nurbs 2 open 2 
	3.1975938964268744 2 4.5157878606510815 2 
	0.24999999999999972 0.43301270189221919 0 1 
	0.36602540378446063 0.36602540378442577 3.7284261417529861e-014 1.0935213655811964 
	0.49999999999999961 0.28867513459481298 0.13397459621556129 1.109935191163085 
	0 
	null_surface 
	null_surface 
	nullbs 
	nullbs 
	I I 
	0 
	0 
	0 
	F 1 F 0 } I I #
point $-1 -1 $-1 0.49999999999999961 0.28867513459481298 0.13397459621556129 #
intcurve-curve $-1 -1 $-1 forward { exactcur full nurbs 2 open 2 
	1.8793999322026671 2 3.1975938964268744 2 
	-5.7773539317136317e-016 0.57735026918962562 0.13397459621556157 1.1099351911630861 
	0.13397459621553831 0.50000000000001299 3.7721357096516145e-014 1.0935213655811973 
	0.24999999999999972 0.43301270189221919 0 1 
	0 
	null_surface 
	null_surface 
	nullbs 
	nullbs 
	I I 
	0 
	0 
	0 
	F 1 F 0 } I I #
face $-1 -1 $-1 $-1 $251 $2 $-1 $313 reversed single #
loop $-1 -1 $-1 $314 $249 $224 #
plane-surface $-1 -1 $-1 -1.2667542031635795e-016 1.19223925003631e-016 0.24999999999999997 0 0 1 0.39370078740157477 0 0 forward_v I I I I #
coedge $-1 -1 $-1 $309 $232 $226 $276 reversed $279 $-1 #
edge $-1 -1 $-1 $268 1.0471975511965983 $228 2.0943951023931962 $275 $280 forward @7 unknown #
face $-1 -1 $-1 $311 $227 $2 $-1 $203 forward single #
point $-1 -1 $-1 -0.25000000000000044 0.43301270189221919 0 #
loop $-1 -1 $-1 $-1 $301 $272 #
ellipse-curve $-1 -1 $-1 0 0 0 0 0 1 0.49999999999999978 0 0 1 I I #
coedge $-1 -1 $-1 $236 $301 $241 $282 reversed $279 $-1 #
edge $-1 -1 $-1 $239 -2.0943951023931948 $254 -1.0471975511965972 $281 $280 forward @7 unknown #
point $-1 -1 $-1 -0.24999999999999956 -0.43301270189221935 0 #
coedge $-1 -1 $-1 $287 $245 $315 $316 forward $163 $-1 #
coedge $-1 -1 $-1 $263 $317 $245 $286 forward $216 $-1 #
edge $-1 -1 $-1 $318 0 $294 1.3081000000000003 $285 $319 forward @7 unknown #
coedge $-1 -1 $-1 $246 $284 $320 $321 forward $163 $-1 #
coedge $-1 -1 $-1 $322 $323 $246 $289 reversed $324 $-1 #
edge $-1 -1 $-1 $325 0 $293 0.75523188712694944 $288 $326 forward @7 unknown #
coedge $-1 -1 $-1 $327 $247 $323 $328 reversed $292 $-1 #
coedge $-1 -1 $-1 $247 $327 $263 $306 forward $292 $-1 #
loop $-1 -1 $-1 $-1 $327 $264 #
vertex $-1 -1 $-1 $328 $329 #
vertex $-1 -1 $-1 $306 $330 #
straight-curve $-1 -1 $-1 -0.14866769431632867 0.25749999999999995 0.62499999999999989 0.39370078740157477 1.7362707524800624e-016 0 I I #
vertex $-1 -1 $-1 $250 $331 #
ellipse-curve $-1 -1 $-1 0 0 0.24999999999999997 -0 -0 -1 0.171875 0 0 1 I I #
point $-1 -1 $-1 -0.171875 2.1048616860345131e-017 0 #
edge $-1 -1 $-1 $254 -1.0471975511965972 $302 3.0596697529039757e-016 $301 $280 forward @7 unknown #
point $-1 -1 $-1 0.25000000000000006 -0.43301270189221891 0 #
coedge $-1 -1 $-1 $281 $309 $256 $299 reversed $279 $-1 #
vertex $-1 -1 $-1 $262 $332 #
intcurve-curve $-1 -1 $-1 forward { exactcur full nurbs 2 open 2 
	3.1975938964268744 2 4.5157878606510824 2 
	0.49999999999999978 1.5298348764519871e-016 0 1 
	0.49999999999999972 -0.13397459621558702 3.710942314593535e-014 1.0935213655811982 
	0.49999999999999978 -0.28867513459481248 0.13397459621556101 1.1099351911630873 
	0 
	null_surface 
	null_surface 
	nullbs 
	nullbs 
	I I 
	0 
	0 
	0 
	F 1 F 0 } I I #
intcurve-curve $-1 -1 $-1 forward { exactcur full nurbs 2 open 2 
	1.879399932202666 2 3.1975938964268744 2 
	0.49999999999999961 0.28867513459481298 0.13397459621556129 1.1099351911630853 
	0.49999999999999961 0.13397459621558713 3.706571357803672e-014 1.0935213655811966 
	0.49999999999999978 1.5298348764519871e-016 0 1 
	0 
	null_surface 
	null_surface 
	nullbs 
	nullbs 
	I I 
	0 
	0 
	0 
	F 1 F 0 } I I #
coedge $-1 -1 $-1 $317 $263 $333 $334 reversed $216 $-1 #
edge $-1 -1 $-1 $335 0 $294 0.9524999999999999 $291 $336 forward @7 unknown #
face $-1 -1 $-1 $337 $324 $2 $-1 $338 forward single #
plane-surface $-1 -1 $-1 -0.14866769431632867 0.25749999999999995 0.24999999999999997 4.410127711299359e-016 -1 0 0.39370078740157477 1.7362707524800624e-016 0 forward_v I I I I #
coedge $-1 -1 $-1 $301 $275 $266 $310 reversed $279 $-1 #
edge $-1 -1 $-1 $302 3.0596697529039757e-016 $268 1.0471975511965983 $309 $280 forward @7 unknown #
face $-1 -1 $-1 $217 $267 $2 $-1 $203 forward single #
point $-1 -1 $-1 0.24999999999999967 0.4330127018922193 0 #
plane-surface $-1 -1 $-1 -1.2667542031635795e-016 1.19223925003631e-016 0 0 0 1 0.39370078740157477 0 0 forward_v I I I I #
loop $-1 -1 $-1 $-1 $339 $224 #
coedge $-1 -1 $-1 $340 $341 $284 $316 reversed $342 $-1 #
edge $-1 -1 $-1 $318 -0 $343 1.6476159435634741 $315 $344 forward @7 unknown #
coedge $-1 -1 $-1 $285 $305 $340 $345 forward $216 $-1 #
vertex $-1 -1 $-1 $345 $346 #
straight-curve $-1 -1 $-1 0.49999999999999978 -0.2574999999999999 0.62499999999999989 -1.3365818484405839e-016 0.39370078740157477 0 F -0.079184841870824085 F 1.3872848418708248 #
coedge $-1 -1 $-1 $347 $348 $287 $321 reversed $349 $-1 #
edge $-1 -1 $-1 $343 0 $325 0.75523188712694944 $320 $350 forward @7 unknown #
coedge $-1 -1 $-1 $351 $288 $348 $352 reversed $324 $-1 #
coedge $-1 -1 $-1 $288 $351 $290 $328 forward $324 $-1 #
loop $-1 -1 $-1 $-1 $351 $307 #
vertex $-1 -1 $-1 $352 $353 #
straight-curve $-1 -1 $-1 -0.29733538863265718 -7.0738033442213272e-017 0.62499999999999989 0.19685039370078722 0.34095488337970031 0 I I #
coedge $-1 -1 $-1 $291 $290 $354 $355 reversed $292 $-1 #
edge $-1 -1 $-1 $356 0 $293 0.9524999999999999 $323 $357 forward @7 unknown #
point $-1 -1 $-1 -0.1486676943163287 0.25749999999999995 0.62499999999999989 #
point $-1 -1 $-1 0.49999999999999961 0.25750000000000017 0.62499999999999989 #
point $-1 -1 $-1 -0.171875 2.1048616860345131e-017 0.24999999999999997 #
point $-1 -1 $-1 0.49999999999999978 1.5298348764519871e-016 0 #
coedge $-1 -1 $-1 $354 $339 $305 $334 forward $314 $-1 #
edge $-1 -1 $-1 $358 -1.3872848418708248 $335 -0.079184841870824529 $305 $359 forward @7 unknown #
vertex $-1 -1 $-1 $334 $360 #
straight-curve $-1 -1 $-1 0.49999999999999961 0.25750000000000017 0.24999999999999997 0 0 0.39370078740157477 I I #
face $-1 -1 $-1 $361 $349 $2 $-1 $362 forward single #
plane-surface $-1 -1 $-1 -0.29733538863265718 -7.0738033442213272e-017 0.24999999999999997 0.86602540378443882 -0.49999999999999961 0 0.19685039370078722 0.34095488337970031 0 forward_v I I I I #
coedge $-1 -1 $-1 $333 $363 $364 $365 forward $314 $-1 #
coedge $-1 -1 $-1 $364 $315 $317 $345 reversed $342 $-1 #
coedge $-1 -1 $-1 $315 $364 $347 $366 forward $342 $-1 #
loop $-1 -1 $-1 $-1 $364 $361 #
vertex $-1 -1 $-1 $366 $367 #
straight-curve $-1 -1 $-1 0.49999999999999978 -0.2574999999999999 0.62499999999999989 -0.39370078740157477 -9.7961337572904663e-017 -0 I I #
edge $-1 -1 $-1 $358 0 $318 0.9524999999999999 $317 $368 forward @7 unknown #
point $-1 -1 $-1 0.49999999999999978 -0.2574999999999999 0.62499999999999989 #
coedge $-1 -1 $-1 $369 $320 $341 $366 reversed $349 $-1 #
coedge $-1 -1 $-1 $320 $369 $322 $352 forward $349 $-1 #
loop $-1 -1 $-1 $-1 $369 $337 #
straight-curve $-1 -1 $-1 -0.14866769431632854 -0.25750000000000001 0.62499999999999989 -0.19685039370078755 0.3409548833797002 0 I I #
coedge $-1 -1 $-1 $323 $322 $370 $371 reversed $324 $-1 #
edge $-1 -1 $-1 $372 0 $325 0.9524999999999999 $348 $373 forward @7 unknown #
point $-1 -1 $-1 -0.29733538863265724 -8.7419135797256413e-017 0.62499999999999989 #
coedge $-1 -1 $-1 $370 $333 $327 $355 forward $314 $-1 #
edge $-1 -1 $-1 $335 -1.4588079717817368 $356 0.18880797178173714 $354 $374 forward @7 unknown #
vertex $-1 -1 $-1 $355 $375 #
straight-curve $-1 -1 $-1 -0.14866769431632867 0.25749999999999995 0.24999999999999997 0 0 0.39370078740157477 I I #
vertex $-1 -1 $-1 $334 $376 #
straight-curve $-1 -1 $-1 0.49999999999999961 0.28867513459481298 0.24999999999999997 -1.1922392500363103e-016 0.39370078740157477 0 I I #
point $-1 -1 $-1 0.49999999999999961 0.25750000000000017 0.24999999999999997 #
face $-1 -1 $-1 $147 $342 $2 $-1 $377 forward single #
plane-surface $-1 -1 $-1 -0.14866769431632854 -0.25750000000000001 0.24999999999999997 0.8660254037844386 0.50000000000000033 0 -0.19685039370078752 0.3409548833797002 0 forward_v I I I I #
coedge $-1 -1 $-1 $339 $370 $369 $378 forward $314 $-1 #
coedge $-1 -1 $-1 $341 $340 $339 $365 reversed $342 $-1 #
edge $-1 -1 $-1 $379 -1.0126159435634743 $358 0.63499999999999979 $339 $380 forward @7 unknown #
edge $-1 -1 $-1 $379 0 $343 0.9524999999999999 $341 $381 forward @7 unknown #
point $-1 -1 $-1 -0.14866769431632854 -0.25750000000000001 0.62499999999999989 #
straight-curve $-1 -1 $-1 0.49999999999999978 -0.2574999999999999 0.24999999999999997 0 0 0.39370078740157477 I I #
coedge $-1 -1 $-1 $348 $347 $363 $378 reversed $349 $-1 #
coedge $-1 -1 $-1 $363 $354 $351 $371 forward $314 $-1 #
edge $-1 -1 $-1 $356 -0.56642391534521208 $372 0.1888079717817373 $370 $382 forward @7 unknown #
vertex $-1 -1 $-1 $371 $383 #
straight-curve $-1 -1 $-1 -0.29733538863265718 -7.0738033442213272e-017 0.24999999999999997 0 0 0.39370078740157477 I I #
straight-curve $-1 -1 $-1 -0.074333847158164462 0.25750000000000001 0.24999999999999997 -0.39370078740157477 -1.7362707524800624e-016 0 I I #
point $-1 -1 $-1 -0.14866769431632867 0.25749999999999995 0.24999999999999997 #
point $-1 -1 $-1 0.49999999999999978 -0.2574999999999999 0.24999999999999997 #
plane-surface $-1 -1 $-1 0.49999999999999978 -0.2574999999999999 0.24999999999999997 -2.4882179743517786e-016 1 0 -0.39370078740157477 -9.7961337572904663e-017 -0 forward_v I I I I #
edge $-1 -1 $-1 $372 -0.56642391534521197 $379 0.18880797178173755 $363 $384 forward @7 unknown #
vertex $-1 -1 $-1 $378 $385 #
straight-curve $-1 -1 $-1 0.24999999999999989 -0.25750000000000001 0.24999999999999997 0.39370078740157477 9.7961337572904663e-017 0 I I #
straight-curve $-1 -1 $-1 -0.14866769431632854 -0.25750000000000001 0.24999999999999997 0 0 0.39370078740157477 I I #
straight-curve $-1 -1 $-1 -0.26016846505357505 0.064374999999999905 0.24999999999999997 -0.19685039370078722 -0.34095488337970031 0 I I #
point $-1 -1 $-1 -0.29733538863265718 -7.0738033442213272e-017 0.24999999999999997 #
straight-curve $-1 -1 $-1 -0.18583461789541078 -0.19312499999999996 0.24999999999999997 0.19685039370078755 -0.3409548833797002 0 I I #
point $-1 -1 $-1 -0.14866769431632854 -0.25750000000000001 0.24999999999999997 #
End-of-ACIS-data 