700 0 1 0           
33 Autodesk Inventor 17.0.13800.0000 19 ASM 218.0.0.5119 NT 24 Tue Dec 10 11:01:46 2013 
1 9.9999999999999995e-007 1e-010 
body $-1 -1 $-1 $1 $-1 $-1 #
lump $-1 -1 $-1 $-1 $2 $0 #
shell $-1 -1 $-1 $-1 $-1 $3 $-1 $1 #
face $-1 -1 $-1 $4 $5 $2 $-1 $6 reversed single #
face $-1 -1 $-1 $7 $8 $2 $-1 $9 reversed single #
loop $-1 -1 $-1 $-1 $10 $3 #
plane-surface $-1 -1 $-1 3.3689854895393045 -47.662499999999994 12.175000000000002 -0.86602540378443871 0 -0.49999999999999989 -4.9999999999999991 0 8.6602540378443873 forward_v I I I I #
face $-1 -1 $-1 $11 $12 $2 $-1 $13 reversed single #
loop $-1 -1 $-1 $-1 $14 $4 #
plane-surface $-1 -1 $-1 6.631014510460691 -47.662499999999994 12.175000000000001 -6.8069475624196935e-016 0 -1 -10 0 6.8069475624196939e-015 forward_v I I I I #
coedge $-1 -1 $-1 $15 $16 $17 $18 reversed $5 $-1 #
face $-1 -1 $-1 $19 $20 $2 $-1 $21 reversed single #
loop $-1 -1 $-1 $-1 $22 $7 #
plane-surface $-1 -1 $-1 8.262029020921382 -47.662499999999994 15 0.86602540378443893 0 -0.49999999999999967 -4.9999999999999964 -0 -8.6602540378443891 forward_v I I I I #
coedge $-1 -1 $-1 $23 $24 $25 $26 reversed $8 $-1 #
coedge $-1 -1 $-1 $27 $10 $24 $28 forward $5 $-1 #
coedge $-1 -1 $-1 $10 $27 $29 $30 reversed $5 $-1 #
coedge $-1 -1 $-1 $31 $25 $10 $18 forward $32 $-1 #
edge $-1 -1 $-1 $33 0.44296832731529456 $34 0.76917122940743288 $17 $35 forward @7 unknown #
face $-1 -1 $-1 $36 $37 $2 $-1 $38 reversed single #
loop $-1 -1 $-1 $-1 $39 $11 #
plane-surface $-1 -1 $-1 6.6310145104606892 -47.662499999999994 17.824999999999999 0.8660254037844386 0 0.50000000000000011 5.0000000000000009 0 -8.6602540378443855 forward_v I I I I #
coedge $-1 -1 $-1 $40 $41 $42 $43 reversed $12 $-1 #
coedge $-1 -1 $-1 $44 $14 $41 $45 forward $8 $-1 #
coedge $-1 -1 $-1 $14 $44 $15 $28 reversed $8 $-1 #
coedge $-1 -1 $-1 $17 $42 $14 $26 forward $32 $-1 #
edge $-1 -1 $-1 $46 -0.33155072552303416 $33 -0.0053478234308955153 $25 $47 forward @7 unknown #
coedge $-1 -1 $-1 $16 $15 $48 $49 forward $5 $-1 #
edge $-1 -1 $-1 $33 0 $50 0.25 $24 $51 forward @7 unknown #
coedge $-1 -1 $-1 $52 $53 $16 $30 forward $54 $-1 #
edge $-1 -1 $-1 $34 0 $55 0.25 $29 $56 forward @7 unknown #
coedge $-1 -1 $-1 $57 $17 $53 $58 forward $32 $-1 #
loop $-1 -1 $-1 $59 $17 $60 #
vertex $-1 -1 $-1 $18 $61 #
vertex $-1 -1 $-1 $18 $62 #
straight-curve $-1 -1 $-1 5.5838271261157768 -47.662499999999994 8.3387817547305492 -4.9999999999999991 0 8.6602540378443873 I I #
face $-1 -1 $-1 $63 $54 $2 $-1 $64 reversed single #
loop $-1 -1 $-1 $-1 $65 $19 #
plane-surface $-1 -1 $-1 3.3689854895393045 -47.662499999999994 17.824999999999999 0 0 1 10 0 0 forward_v I I I I #
coedge $-1 -1 $-1 $66 $67 $68 $69 reversed $20 $-1 #
coedge $-1 -1 $-1 $70 $22 $67 $71 forward $12 $-1 #
coedge $-1 -1 $-1 $22 $70 $23 $45 reversed $12 $-1 #
coedge $-1 -1 $-1 $25 $68 $22 $43 forward $32 $-1 #
edge $-1 -1 $-1 $72 -0.85606977836136355 $46 -0.52986687626922513 $42 $73 forward @7 unknown #
coedge $-1 -1 $-1 $24 $23 $74 $75 forward $8 $-1 #
edge $-1 -1 $-1 $46 0 $76 0.25 $41 $77 forward @7 unknown #
vertex $-1 -1 $-1 $26 $78 #
straight-curve $-1 -1 $-1 3.3155072552303495 -47.662499999999994 12.175000000000002 -10 0 6.8069475624196939e-015 I I #
coedge $-1 -1 $-1 $74 $79 $27 $49 reversed $80 $-1 #
edge $-1 -1 $-1 $50 0 $55 0.32620290209213826 $27 $81 forward @7 unknown #
vertex $-1 -1 $-1 $28 $82 #
straight-curve $-1 -1 $-1 3.3689854895393045 -47.662499999999994 12.175000000000002 0 10 0 I I #
coedge $-1 -1 $-1 $83 $29 $79 $84 forward $54 $-1 #
coedge $-1 -1 $-1 $29 $83 $31 $58 reversed $54 $-1 #
loop $-1 -1 $-1 $-1 $53 $36 #
vertex $-1 -1 $-1 $30 $85 #
straight-curve $-1 -1 $-1 1.7379709790786135 -47.662499999999994 15 0 10 0 I I #
coedge $-1 -1 $-1 $68 $31 $65 $86 forward $32 $-1 #
edge $-1 -1 $-1 $34 0.69296832731529456 $87 1.0191712294074331 $31 $88 forward @7 unknown #
loop $-1 -1 $-1 $89 $90 $60 #
face $-1 -1 $-1 $91 $32 $2 $-1 $92 forward single #
point $-1 -1 $-1 3.3689854895393045 -47.662499999999994 12.175000000000002 #
point $-1 -1 $-1 1.7379709790786135 -47.662499999999994 15 #
face $-1 -1 $-1 $93 $94 $2 $-1 $95 reversed single #
plane-surface $-1 -1 $-1 1.7379709790786135 -47.662499999999994 15 -0.86602540378443893 0 0.49999999999999967 4.9999999999999964 0 8.6602540378443891 forward_v I I I I #
coedge $-1 -1 $-1 $96 $97 $57 $86 reversed $37 $-1 #
coedge $-1 -1 $-1 $98 $39 $97 $99 forward $20 $-1 #
coedge $-1 -1 $-1 $39 $98 $40 $71 reversed $20 $-1 #
coedge $-1 -1 $-1 $42 $57 $39 $69 forward $32 $-1 #
edge $-1 -1 $-1 $100 -0.60606977836136378 $72 -0.27986687626922518 $68 $101 forward @7 unknown #
coedge $-1 -1 $-1 $41 $40 $102 $103 forward $12 $-1 #
edge $-1 -1 $-1 $72 0 $104 0.25 $67 $105 forward @7 unknown #
vertex $-1 -1 $-1 $43 $106 #
straight-curve $-1 -1 $-1 3.9816801291145678 -47.662499999999994 7.5862182452694507 -4.9999999999999964 -0 -8.6602540378443891 I I #
coedge $-1 -1 $-1 $102 $48 $44 $75 reversed $80 $-1 #
edge $-1 -1 $-1 $76 0 $50 0.32620290209213865 $44 $107 forward @7 unknown #
vertex $-1 -1 $-1 $45 $108 #
straight-curve $-1 -1 $-1 6.631014510460691 -47.662499999999994 12.175000000000001 0 10 0 I I #
point $-1 -1 $-1 6.631014510460691 -47.662499999999994 12.175000000000001 #
coedge $-1 -1 $-1 $48 $109 $52 $84 reversed $80 $-1 #
loop $-1 -1 $-1 $-1 $79 $63 #
straight-curve $-1 -1 $-1 3.3689854895393045 -45.162499999999994 12.175000000000002 -4.9999999999999991 0 8.6602540378443873 I I #
point $-1 -1 $-1 3.3689854895393045 -45.162499999999994 12.175000000000002 #
coedge $-1 -1 $-1 $53 $52 $96 $110 reversed $54 $-1 #
edge $-1 -1 $-1 $55 0 $111 0.32620290209213848 $52 $112 forward @7 unknown #
point $-1 -1 $-1 1.7379709790786135 -45.162499999999994 15 #
edge $-1 -1 $-1 $87 0.16844927447696523 $100 0.49465217656910365 $57 $113 forward @7 unknown #
vertex $-1 -1 $-1 $86 $114 #
straight-curve $-1 -1 $-1 -1.7268706574978565 -47.662499999999994 8.9987182452694494 4.9999999999999964 0 8.6602540378443891 I I #
loop $-1 -1 $-1 $-1 $115 $60 #
coedge $-1 -1 $-1 $116 $117 $118 $119 forward $59 $-1 #
face $-1 -1 $-1 $120 $121 $2 $-1 $122 forward single #
plane-surface $-1 -1 $-1 0 -47.662499999999994 0 0 -1 0 10 0 0 forward_v I I I I #
face $-1 -1 $-1 $123 $124 $2 $-1 $125 reversed single #
loop $-1 -1 $-1 $80 $126 $63 #
plane-surface $-1 -1 $-1 4.9999999999999964 -45.162499999999994 15 0 1 0 0 0 10 forward_v I I I I #
coedge $-1 -1 $-1 $127 $65 $83 $110 forward $37 $-1 #
coedge $-1 -1 $-1 $65 $127 $66 $99 reversed $37 $-1 #
coedge $-1 -1 $-1 $67 $66 $128 $129 forward $20 $-1 #
edge $-1 -1 $-1 $100 0 $130 0.25 $97 $131 forward @7 unknown #
vertex $-1 -1 $-1 $69 $132 #
straight-curve $-1 -1 $-1 9.6613634022675079 -47.662499999999994 12.576281754730548 5.0000000000000009 0 -8.6602540378443855 I I #
coedge $-1 -1 $-1 $128 $74 $70 $103 reversed $80 $-1 #
edge $-1 -1 $-1 $104 -0 $76 0.32620290209213848 $70 $133 forward @7 unknown #
vertex $-1 -1 $-1 $71 $134 #
straight-curve $-1 -1 $-1 8.262029020921382 -47.662499999999994 15 0 10 0 I I #
point $-1 -1 $-1 8.262029020921382 -47.662499999999994 15 #
straight-curve $-1 -1 $-1 6.631014510460691 -45.162499999999994 12.175000000000001 -10 0 6.8069475624196939e-015 I I #
point $-1 -1 $-1 6.631014510460691 -45.162499999999994 12.175000000000001 #
coedge $-1 -1 $-1 $79 $128 $127 $135 reversed $80 $-1 #
edge $-1 -1 $-1 $87 0 $111 0.25 $83 $136 forward @7 unknown #
vertex $-1 -1 $-1 $110 $137 #
straight-curve $-1 -1 $-1 1.7379709790786135 -45.162499999999994 15 4.9999999999999964 0 8.6602540378443891 I I #
straight-curve $-1 -1 $-1 1.6844927447696523 -47.662499999999994 17.824999999999999 10 0 0 I I #
point $-1 -1 $-1 3.3689854895393045 -47.662499999999994 17.824999999999999 #
coedge $-1 -1 $-1 $138 $139 $140 $141 forward $89 $-1 #
coedge $-1 -1 $-1 $142 $90 $143 $144 forward $59 $-1 #
coedge $-1 -1 $-1 $90 $145 $146 $147 forward $59 $-1 #
coedge $-1 -1 $-1 $148 $149 $90 $119 reversed $124 $-1 #
edge $-1 -1 $-1 $150 0.0099556254230748712 $151 0.33615852751521352 $90 $152 forward @7 unknown #
face $-1 -1 $-1 $-1 $153 $2 $-1 $154 reversed single #
loop $-1 -1 $-1 $-1 $155 $91 #
plane-surface $-1 -1 $-1 5 -45.162499999999994 20 0 0 1 10 0 0 forward_v I I I I #
face $-1 -1 $-1 $156 $157 $2 $-1 $158 reversed single #
loop $-1 -1 $-1 $-1 $118 $93 #
plane-surface $-1 -1 $-1 3.368985489539309 -47.662499999999994 2.1750000000000016 -0.86602540378443826 0 -0.50000000000000089 -5.0000000000000089 0 8.660254037844382 forward_v I I I I #
coedge $-1 -1 $-1 $126 $126 $159 $160 reversed $94 $-1 #
coedge $-1 -1 $-1 $97 $96 $109 $135 forward $37 $-1 #
coedge $-1 -1 $-1 $109 $102 $98 $129 reversed $80 $-1 #
edge $-1 -1 $-1 $130 0 $104 0.32620290209213854 $98 $161 forward @7 unknown #
vertex $-1 -1 $-1 $99 $162 #
straight-curve $-1 -1 $-1 6.6310145104606892 -47.662499999999994 17.824999999999999 0 10 0 I I #
point $-1 -1 $-1 6.6310145104606892 -47.662499999999994 17.824999999999999 #
straight-curve $-1 -1 $-1 8.262029020921382 -45.162499999999994 15 -4.9999999999999964 -0 -8.6602540378443891 I I #
point $-1 -1 $-1 8.262029020921382 -45.162499999999994 15 #
edge $-1 -1 $-1 $111 0 $130 0.32620290209213842 $127 $163 forward @7 unknown #
straight-curve $-1 -1 $-1 3.3689854895393045 -47.662499999999994 17.824999999999999 0 10 0 I I #
point $-1 -1 $-1 3.3689854895393045 -45.162499999999994 17.824999999999999 #
coedge $-1 -1 $-1 $164 $115 $165 $166 forward $89 $-1 #
coedge $-1 -1 $-1 $115 $164 $167 $168 reversed $89 $-1 #
coedge $-1 -1 $-1 $169 $170 $115 $141 reversed $153 $-1 #
edge $-1 -1 $-1 $171 0 $172 1.4999999999999998 $115 $173 forward @7 unknown #
coedge $-1 -1 $-1 $174 $116 $175 $176 forward $59 $-1 #
coedge $-1 -1 $-1 $177 $178 $116 $144 reversed $179 $-1 #
edge $-1 -1 $-1 $151 0.25995562542307504 $180 0.58615852751521369 $116 $181 forward @7 unknown #
coedge $-1 -1 $-1 $117 $174 $182 $183 forward $59 $-1 #
coedge $-1 -1 $-1 $184 $185 $117 $147 reversed $157 $-1 #
edge $-1 -1 $-1 $186 -0.33155072552303461 $150 -0.0053478234308964034 $117 $187 forward @7 unknown #
coedge $-1 -1 $-1 $188 $118 $185 $189 forward $124 $-1 #
coedge $-1 -1 $-1 $118 $188 $177 $190 reversed $124 $-1 #
vertex $-1 -1 $-1 $119 $191 #
vertex $-1 -1 $-1 $119 $192 #
straight-curve $-1 -1 $-1 3.418763616654684 -47.662499999999994 2.0887817547305514 -5.0000000000000089 0 8.660254037844382 I I #
loop $-1 -1 $-1 $-1 $193 $120 #
plane-surface $-1 -1 $-1 5 -45.162499999999994 0 0 0 1 10 0 0 forward_v I I I I #
coedge $-1 -1 $-1 $194 $195 $164 $196 forward $121 $-1 #
face $-1 -1 $-1 $197 $198 $2 $-1 $199 reversed single #
loop $-1 -1 $-1 $-1 $146 $123 #
plane-surface $-1 -1 $-1 6.631014510460691 -47.662499999999994 2.1750000000000029 5.1052106718147765e-016 0 -1 -10 -0 -5.1052106718147767e-015 forward_v I I I I #
coedge $-1 -1 $-1 $159 $159 $126 $160 forward $200 $-1 #
edge $-1 -1 $-1 $201 -3.1415926535897931 $201 3.1415926535897931 $159 $202 forward @7 unknown #
straight-curve $-1 -1 $-1 6.6310145104606892 -45.162499999999994 17.824999999999999 5.0000000000000009 0 -8.6602540378443855 I I #
point $-1 -1 $-1 6.6310145104606892 -45.162499999999994 17.824999999999999 #
straight-curve $-1 -1 $-1 3.3689854895393045 -45.162499999999994 17.824999999999999 10 0 0 I I #
coedge $-1 -1 $-1 $139 $138 $155 $196 reversed $89 $-1 #
coedge $-1 -1 $-1 $203 $204 $138 $166 reversed $205 $-1 #
edge $-1 -1 $-1 $172 0 $206 2 $138 $207 forward @7 unknown #
coedge $-1 -1 $-1 $208 $209 $139 $168 forward $210 $-1 #
edge $-1 -1 $-1 $171 0 $211 2 $167 $212 forward @7 unknown #
coedge $-1 -1 $-1 $213 $140 $209 $214 reversed $153 $-1 #
coedge $-1 -1 $-1 $140 $193 $203 $215 reversed $153 $-1 #
vertex $-1 -1 $-1 $214 $216 #
vertex $-1 -1 $-1 $141 $217 #
straight-curve $-1 -1 $-1 -5 -47.662499999999994 0 10 0 0 F 0 F 1.4999999999999998 #
coedge $-1 -1 $-1 $145 $142 $218 $219 forward $59 $-1 #
coedge $-1 -1 $-1 $220 $221 $142 $176 reversed $222 $-1 #
edge $-1 -1 $-1 $180 0.1684492744769655 $223 0.49465217656910415 $142 $224 forward @7 unknown #
coedge $-1 -1 $-1 $225 $143 $149 $190 forward $179 $-1 #
coedge $-1 -1 $-1 $143 $225 $220 $226 reversed $179 $-1 #
loop $-1 -1 $-1 $-1 $143 $227 #
vertex $-1 -1 $-1 $176 $228 #
straight-curve $-1 -1 $-1 0.43819285196324009 -47.662499999999994 2.7487182452694503 4.9999999999999929 0 8.6602540378443909 I I #
coedge $-1 -1 $-1 $229 $230 $145 $183 reversed $198 $-1 #
edge $-1 -1 $-1 $231 -0.42305707646914426 $186 -0.096854174377005775 $145 $232 forward @7 unknown #
coedge $-1 -1 $-1 $233 $146 $230 $234 forward $157 $-1 #
coedge $-1 -1 $-1 $146 $233 $148 $189 reversed $157 $-1 #
vertex $-1 -1 $-1 $147 $235 #
straight-curve $-1 -1 $-1 3.3155072552303451 -47.662499999999994 2.1750000000000016 -10 -0 -5.1052106718147767e-015 I I #
coedge $-1 -1 $-1 $149 $148 $236 $237 forward $124 $-1 #
edge $-1 -1 $-1 $150 0 $238 0.25 $185 $239 forward @7 unknown #
edge $-1 -1 $-1 $151 0 $240 0.25 $177 $241 forward @7 unknown #
point $-1 -1 $-1 3.368985489539309 -47.662499999999994 2.1750000000000016 #
point $-1 -1 $-1 1.7379709790786135 -47.662499999999994 5 #
coedge $-1 -1 $-1 $170 $242 $243 $244 reversed $153 $-1 #
coedge $-1 -1 $-1 $245 $155 $204 $246 forward $121 $-1 #
coedge $-1 -1 $-1 $155 $247 $208 $248 forward $121 $-1 #
edge $-1 -1 $-1 $211 0 $206 1.4999999999999998 $164 $249 forward @7 unknown #
face $-1 -1 $-1 $250 $251 $2 $-1 $252 reversed single #
loop $-1 -1 $-1 $-1 $182 $156 #
plane-surface $-1 -1 $-1 8.262029020921382 -47.662499999999994 5.0000000000000036 0.86602540378443893 0 -0.49999999999999956 -4.9999999999999956 -0 -8.6602540378443891 forward_v I I I I #
loop $-1 -1 $-1 $253 $159 $254 #
vertex $-1 -1 $-1 $160 $255 #
ellipse-curve $-1 -1 $-1 4.9999999999999964 -45.162499999999994 15 -0 -1 -0 -1.6000000000000003 0 0 1 I I #
coedge $-1 -1 $-1 $256 $165 $170 $215 forward $205 $-1 #
coedge $-1 -1 $-1 $165 $256 $194 $246 reversed $205 $-1 #
loop $-1 -1 $-1 $-1 $203 $257 #
vertex $-1 -1 $-1 $166 $258 #
straight-curve $-1 -1 $-1 9.9999999999999982 -47.662499999999994 0 0 0 10 I I #
coedge $-1 -1 $-1 $259 $167 $195 $248 reversed $210 $-1 #
coedge $-1 -1 $-1 $167 $259 $169 $214 forward $210 $-1 #
loop $-1 -1 $-1 $-1 $209 $260 #
vertex $-1 -1 $-1 $168 $261 #
straight-curve $-1 -1 $-1 -5 -47.662499999999994 0 0 0 10 I I #
coedge $-1 -1 $-1 $262 $169 $263 $264 reversed $153 $-1 #
edge $-1 -1 $-1 $265 0 $171 3.2562440019138617 $209 $266 forward @7 unknown #
edge $-1 -1 $-1 $172 0 $267 0.5 $203 $268 forward @7 unknown #
point $-1 -1 $-1 -5 -47.662499999999994 0 #
point $-1 -1 $-1 9.9999999999999982 -47.662499999999994 0 #
coedge $-1 -1 $-1 $269 $270 $174 $219 reversed $251 $-1 #
edge $-1 -1 $-1 $223 -0.17305707646914492 $231 0.15314582562299367 $174 $271 forward @7 unknown #
coedge $-1 -1 $-1 $272 $175 $178 $226 forward $222 $-1 #
coedge $-1 -1 $-1 $175 $272 $269 $273 reversed $222 $-1 #
loop $-1 -1 $-1 $-1 $175 $250 #
vertex $-1 -1 $-1 $219 $274 #
straight-curve $-1 -1 $-1 1.6844927447696496 -47.662499999999994 7.8250000000000011 10 0 6.8069475624196939e-015 I I #
coedge $-1 -1 $-1 $178 $177 $275 $276 forward $179 $-1 #
edge $-1 -1 $-1 $180 0 $277 0.25 $178 $278 forward @7 unknown #
face $-1 -1 $-1 $279 $179 $2 $-1 $280 reversed single #
point $-1 -1 $-1 3.3689854895393045 -47.662499999999994 7.825000000000002 #
coedge $-1 -1 $-1 $281 $182 $270 $282 forward $198 $-1 #
coedge $-1 -1 $-1 $182 $281 $184 $234 reversed $198 $-1 #
vertex $-1 -1 $-1 $183 $283 #
straight-curve $-1 -1 $-1 6.1467436385756624 -47.662499999999994 1.3362182452694542 -4.9999999999999956 -0 -8.6602540378443891 I I #
coedge $-1 -1 $-1 $185 $184 $284 $285 forward $157 $-1 #
edge $-1 -1 $-1 $186 0 $286 0.25 $230 $287 forward @7 unknown #
point $-1 -1 $-1 6.631014510460691 -47.662499999999994 2.1750000000000029 #
coedge $-1 -1 $-1 $284 $275 $188 $237 reversed $288 $-1 #
edge $-1 -1 $-1 $238 0 $240 0.32620290209213859 $188 $289 forward @7 unknown #
vertex $-1 -1 $-1 $189 $290 #
straight-curve $-1 -1 $-1 3.368985489539309 -47.662499999999994 2.1750000000000016 0 10 0 I I #
vertex $-1 -1 $-1 $190 $291 #
straight-curve $-1 -1 $-1 1.7379709790786135 -47.662499999999994 5 0 10 0 I I #
coedge $-1 -1 $-1 $193 $292 $293 $294 reversed $153 $-1 #
coedge $-1 -1 $-1 $295 $296 $193 $244 forward $297 $-1 #
edge $-1 -1 $-1 $267 -0 $298 0.99999999999999978 $243 $299 forward @7 unknown #
coedge $-1 -1 $-1 $300 $194 $301 $302 forward $121 $-1 #
edge $-1 -1 $-1 $206 0 $303 0.5 $204 $304 forward @7 unknown #
coedge $-1 -1 $-1 $195 $305 $306 $307 forward $121 $-1 #
edge $-1 -1 $-1 $308 0 $211 3.2562440019138617 $208 $309 forward @7 unknown #
straight-curve $-1 -1 $-1 -5 -47.662499999999994 20 10 0 0 I I #
face $-1 -1 $-1 $227 $222 $2 $-1 $310 reversed single #
loop $-1 -1 $-1 $-1 $218 $197 #
plane-surface $-1 -1 $-1 6.631014510460691 -47.662499999999994 7.8250000000000046 0.86602540378443904 0 0.4999999999999995 4.9999999999999947 0 -8.6602540378443909 forward_v I I I I #
loop $-1 -1 $-1 $-1 $311 $254 #
face $-1 -1 $-1 $312 $200 $2 $-1 $313 reversed single #
point $-1 -1 $-1 6.599999999999997 -45.162499999999994 15 #
coedge $-1 -1 $-1 $204 $203 $296 $314 forward $205 $-1 #
face $-1 -1 $-1 $60 $205 $2 $-1 $315 forward single #
point $-1 -1 $-1 9.9999999999999982 -47.662499999999994 20 #
coedge $-1 -1 $-1 $209 $208 $316 $317 reversed $210 $-1 #
face $-1 -1 $-1 $318 $210 $2 $-1 $319 forward single #
point $-1 -1 $-1 -5 -47.662499999999994 20 #
coedge $-1 -1 $-1 $292 $213 $320 $321 reversed $153 $-1 #
coedge $-1 -1 $-1 $316 $322 $213 $264 forward $323 $-1 #
edge $-1 -1 $-1 $324 0 $265 1.2428475881374113 $263 $325 forward @7 unknown #
vertex $-1 -1 $-1 $264 $326 #
straight-curve $-1 -1 $-1 -26.452778232925048 -23.165749070765781 0 6.5881973894819161 -7.5230083847636164 0 F 0 F 3.2562440019138617 #
vertex $-1 -1 $-1 $215 $327 #
straight-curve $-1 -1 $-1 9.9999999999999982 -47.662499999999994 0 2.2204460492503131e-015 10 0 F 0 F 0.5 #
coedge $-1 -1 $-1 $328 $218 $221 $273 forward $251 $-1 #
coedge $-1 -1 $-1 $218 $328 $229 $282 reversed $251 $-1 #
straight-curve $-1 -1 $-1 7.4962998928064151 -47.662499999999994 6.3262817547305472 4.9999999999999947 0 -8.6602540378443909 I I #
coedge $-1 -1 $-1 $221 $220 $329 $330 forward $222 $-1 #
edge $-1 -1 $-1 $223 0 $331 0.25 $221 $332 forward @7 unknown #
point $-1 -1 $-1 6.631014510460691 -47.662499999999994 7.8250000000000046 #
coedge $-1 -1 $-1 $236 $329 $225 $276 reversed $288 $-1 #
edge $-1 -1 $-1 $240 0 $277 0.32620290209213865 $225 $333 forward @7 unknown #
vertex $-1 -1 $-1 $226 $334 #
straight-curve $-1 -1 $-1 3.3689854895393045 -47.662499999999994 7.825000000000002 0 10 0 I I #
face $-1 -1 $-1 $335 $336 $2 $-1 $337 forward single #
plane-surface $-1 -1 $-1 1.7379709790786135 -47.662499999999994 5 -0.86602540378443904 0 0.49999999999999933 4.9999999999999929 0 8.6602540378443909 forward_v I I I I #
coedge $-1 -1 $-1 $230 $229 $338 $339 forward $198 $-1 #
edge $-1 -1 $-1 $231 0 $340 0.25 $270 $341 forward @7 unknown #
point $-1 -1 $-1 8.262029020921382 -47.662499999999994 5.0000000000000036 #
coedge $-1 -1 $-1 $338 $236 $233 $285 reversed $288 $-1 #
edge $-1 -1 $-1 $286 -0 $238 0.3262029020921382 $233 $342 forward @7 unknown #
vertex $-1 -1 $-1 $234 $343 #
straight-curve $-1 -1 $-1 6.631014510460691 -47.662499999999994 2.1750000000000029 0 10 0 I I #
loop $-1 -1 $-1 $-1 $275 $279 #
straight-curve $-1 -1 $-1 3.368985489539309 -45.162499999999994 2.1750000000000016 -5.0000000000000089 0 8.660254037844382 I I #
point $-1 -1 $-1 3.368985489539309 -45.162499999999994 2.1750000000000016 #
point $-1 -1 $-1 1.7379709790786135 -45.162499999999994 5 #
coedge $-1 -1 $-1 $242 $262 $344 $345 reversed $153 $-1 #
coedge $-1 -1 $-1 $346 $347 $242 $294 forward $348 $-1 #
edge $-1 -1 $-1 $298 0 $349 1.2499999999999996 $293 $350 forward @7 unknown #
coedge $-1 -1 $-1 $301 $243 $347 $351 forward $297 $-1 #
coedge $-1 -1 $-1 $243 $301 $256 $314 reversed $297 $-1 #
loop $-1 -1 $-1 $-1 $243 $352 #
vertex $-1 -1 $-1 $244 $353 #
straight-curve $-1 -1 $-1 9.9999999999999982 -42.662499999999994 0 -10 -0 -0 F -0 F 0.99999999999999978 #
coedge $-1 -1 $-1 $354 $245 $355 $356 forward $121 $-1 #
coedge $-1 -1 $-1 $296 $295 $245 $302 reversed $297 $-1 #
edge $-1 -1 $-1 $303 -0 $357 0.99999999999999978 $301 $358 forward @7 unknown #
vertex $-1 -1 $-1 $314 $359 #
straight-curve $-1 -1 $-1 9.9999999999999982 -47.662499999999994 20 2.2204460492503131e-015 10 0 I I #
coedge $-1 -1 $-1 $247 $354 $360 $361 forward $121 $-1 #
coedge $-1 -1 $-1 $322 $316 $247 $307 reversed $323 $-1 #
edge $-1 -1 $-1 $362 0 $308 1.2428475881374113 $306 $363 forward @7 unknown #
vertex $-1 -1 $-1 $317 $364 #
straight-curve $-1 -1 $-1 -26.452778232925048 -23.165749070765781 20 6.5881973894819161 -7.5230083847636164 0 I I #
plane-surface $-1 -1 $-1 3.3689854895393045 -47.662499999999994 7.825000000000002 -6.8069475624196935e-016 0 1 10 0 6.8069475624196939e-015 forward_v I I I I #
coedge $-1 -1 $-1 $311 $311 $365 $366 reversed $253 $-1 #
face $-1 -1 $-1 $367 $323 $2 $-1 $368 forward single #
cone-surface $-1 -1 $-1 4.9999999999999964 -47.662499999999994 15 0 1 0 -1.6000000000000003 0 0 1 I I 0 1 1.6000000000000003 forward I I I I #
edge $-1 -1 $-1 $267 0 $303 2 $256 $369 forward @7 unknown #
plane-surface $-1 -1 $-1 9.9999999999999982 -47.662499999999994 0 1 -2.2204460492503131e-016 0 2.2204460492503131e-015 10 0 forward_v I I I I #
coedge $-1 -1 $-1 $306 $263 $259 $317 forward $323 $-1 #
edge $-1 -1 $-1 $265 0 $308 2 $259 $370 forward @7 tangent #
face $-1 -1 $-1 $352 $348 $2 $-1 $371 forward single #
plane-surface $-1 -1 $-1 -26.452778232925048 -23.165749070765781 0 -0.75230083847636164 -0.65881973894819157 0 6.5881973894819161 -7.5230083847636164 0 forward_v I I I I #
coedge $-1 -1 $-1 $372 $373 $262 $321 forward $374 $-1 #
edge $-1 -1 $-1 $375 3.0162499999999994 $324 3.5162499999999994 $320 $376 forward @7 unknown #
coedge $-1 -1 $-1 $263 $306 $372 $377 reversed $323 $-1 #
loop $-1 -1 $-1 $-1 $316 $312 #
vertex $-1 -1 $-1 $321 $378 #
ellipse-curve $-1 -1 $-1 0 0 0 0 0 1 -30.451618260570324 17.581249999999994 0 1 F 0 F 2.0943951023931953 #
point $-1 -1 $-1 -26.452778232925048 -23.165749070765781 0 #
point $-1 -1 $-1 9.9999999999999982 -42.662499999999994 0 #
coedge $-1 -1 $-1 $270 $269 $379 $380 forward $251 $-1 #
coedge $-1 -1 $-1 $275 $379 $272 $330 reversed $288 $-1 #
edge $-1 -1 $-1 $277 0 $331 0.32620290209213865 $272 $381 forward @7 unknown #
vertex $-1 -1 $-1 $273 $382 #
straight-curve $-1 -1 $-1 6.631014510460691 -47.662499999999994 7.8250000000000046 0 10 0 I I #
straight-curve $-1 -1 $-1 1.7379709790786135 -45.162499999999994 5 4.9999999999999929 0 8.6602540378443909 I I #
point $-1 -1 $-1 3.3689854895393045 -45.162499999999994 7.825000000000002 #
face $-1 -1 $-1 $254 $383 $2 $-1 $384 reversed single #
loop $-1 -1 $-1 $288 $385 $279 #
plane-surface $-1 -1 $-1 4.9999999999999973 -45.162499999999987 5.0000000000000018 0 -1 0 0 0 -10 forward_v I I I I #
coedge $-1 -1 $-1 $379 $284 $281 $339 reversed $288 $-1 #
edge $-1 -1 $-1 $340 -0 $286 0.32620290209213848 $281 $386 forward @7 unknown #
vertex $-1 -1 $-1 $282 $387 #
straight-curve $-1 -1 $-1 8.262029020921382 -47.662499999999994 5.0000000000000036 0 10 0 I I #
straight-curve $-1 -1 $-1 6.631014510460691 -45.162499999999994 2.1750000000000029 -10 -0 -5.1052106718147767e-015 I I #
point $-1 -1 $-1 6.631014510460691 -45.162499999999994 2.1750000000000029 #
coedge $-1 -1 $-1 $388 $389 $292 $345 forward $390 $-1 #
edge $-1 -1 $-1 $349 1.0471975511965981 $375 3.1415926535897931 $344 $391 forward @7 unknown #
coedge $-1 -1 $-1 $355 $293 $389 $392 forward $348 $-1 #
coedge $-1 -1 $-1 $293 $355 $295 $351 reversed $348 $-1 #
loop $-1 -1 $-1 $-1 $293 $318 #
vertex $-1 -1 $-1 $345 $393 #
straight-curve $-1 -1 $-1 1.196158212301441e-015 -42.662499999999994 0 -1.0207206231405688e-014 10 0 F 0 F 1.2499999999999996 #
edge $-1 -1 $-1 $298 0 $357 2 $295 $394 forward @7 unknown #
face $-1 -1 $-1 $257 $395 $2 $-1 $396 forward single #
point $-1 -1 $-1 1.196158212301441e-015 -42.662499999999994 0 #
coedge $-1 -1 $-1 $305 $300 $397 $398 forward $121 $-1 #
coedge $-1 -1 $-1 $347 $346 $300 $356 reversed $348 $-1 #
edge $-1 -1 $-1 $357 0 $399 1.2499999999999996 $355 $400 forward @7 unknown #
vertex $-1 -1 $-1 $351 $401 #
straight-curve $-1 -1 $-1 9.9999999999999982 -42.662499999999994 20 -10 -0 -0 I I #
point $-1 -1 $-1 9.9999999999999982 -42.662499999999994 20 #
coedge $-1 -1 $-1 $373 $372 $305 $361 reversed $374 $-1 #
edge $-1 -1 $-1 $402 3.0162499999999994 $362 3.5162499999999994 $360 $403 forward @7 unknown #
vertex $-1 -1 $-1 $377 $404 #
ellipse-curve $-1 -1 $-1 0 0 20 0 0 1 -30.451618260570324 17.581249999999994 0 1 I I #
point $-1 -1 $-1 -26.452778232925048 -23.165749070765781 20 #
coedge $-1 -1 $-1 $365 $365 $311 $366 forward $405 $-1 #
edge $-1 -1 $-1 $406 -3.1415926535897931 $406 3.1415926535897931 $365 $407 forward @7 unknown #
face $-1 -1 $-1 $408 $374 $2 $-1 $409 forward single #
cone-surface $-1 -1 $-1 0 0 0 0 0 1 -30.451618260570324 17.581249999999994 0 1 I I 0 1 35.162499999999994 forward I I I I #
straight-curve $-1 -1 $-1 9.9999999999999982 -42.662499999999994 0 0 0 10 I I #
straight-curve $-1 -1 $-1 -26.452778232925048 -23.165749070765781 0 0 0 10 I I #
plane-surface $-1 -1 $-1 1.196158212301441e-015 -42.662499999999994 0 1 1.0207206231405689e-015 0 -1.0207206231405688e-014 10 0 forward_v I I I I #
coedge $-1 -1 $-1 $360 $320 $322 $377 forward $374 $-1 #
coedge $-1 -1 $-1 $320 $360 $388 $410 reversed $374 $-1 #
loop $-1 -1 $-1 $-1 $320 $367 #
vertex $-1 -1 $-1 $345 $411 #
straight-curve $-1 -1 $-1 0 0 0 -8.6602540378443873 4.9999999999999982 0 F 0 F 3.5162499999999994 #
edge $-1 -1 $-1 $324 0 $362 2 $372 $412 forward @7 unknown #
point $-1 -1 $-1 -30.451618260570324 17.581249999999994 0 #
coedge $-1 -1 $-1 $329 $338 $328 $380 reversed $288 $-1 #
edge $-1 -1 $-1 $331 0 $340 0.32620290209213854 $328 $413 forward @7 unknown #
straight-curve $-1 -1 $-1 3.3689854895393045 -45.162499999999994 7.825000000000002 10 0 6.8069475624196939e-015 I I #
point $-1 -1 $-1 6.631014510460691 -45.162499999999994 7.8250000000000046 #
loop $-1 -1 $-1 $414 $415 $335 #
cone-surface $-1 -1 $-1 4.9999999999999991 -47.662499999999994 5 0 1 0 -1.6000000000000003 0 0 1 I I 0 1 1.6000000000000003 forward I I I I #
coedge $-1 -1 $-1 $385 $385 $415 $416 reversed $336 $-1 #
straight-curve $-1 -1 $-1 8.262029020921382 -45.162499999999994 5.0000000000000036 -4.9999999999999956 -0 -8.6602540378443891 I I #
point $-1 -1 $-1 8.262029020921382 -45.162499999999994 5.0000000000000036 #
coedge $-1 -1 $-1 $397 $344 $373 $410 forward $390 $-1 #
coedge $-1 -1 $-1 $344 $397 $346 $392 reversed $390 $-1 #
loop $-1 -1 $-1 $-1 $344 $408 #
ellipse-curve $-1 -1 $-1 0 0 0 0 0 -1 26.12149124164813 -15.081249999999997 0 1 F 1.0471975511965981 F 3.1415926535897931 #
edge $-1 -1 $-1 $349 0 $399 2 $389 $417 forward @7 unknown #
point $-1 -1 $-1 0 -30.162499999999998 0 #
straight-curve $-1 -1 $-1 1.196158212301441e-015 -42.662499999999994 0 0 0 10 I I #
loop $-1 -1 $-1 $405 $418 $352 #
plane-surface $-1 -1 $-1 9.9999999999999982 -42.662499999999994 0 0 1 0 -10 -0 -0 forward_v I I I I #
coedge $-1 -1 $-1 $389 $388 $354 $398 reversed $390 $-1 #
edge $-1 -1 $-1 $399 1.0471975511965981 $402 3.1415926535897931 $397 $419 forward @7 unknown #
vertex $-1 -1 $-1 $392 $420 #
straight-curve $-1 -1 $-1 1.196158212301441e-015 -42.662499999999994 20 -1.0207206231405688e-014 10 0 I I #
point $-1 -1 $-1 1.196158212301441e-015 -42.662499999999994 20 #
vertex $-1 -1 $-1 $410 $421 #
straight-curve $-1 -1 $-1 0 0 20 -8.6602540378443873 4.9999999999999982 0 I I #
point $-1 -1 $-1 -30.451618260570324 17.581249999999994 20 #
loop $-1 -1 $-1 $297 $365 $352 #
vertex $-1 -1 $-1 $366 $422 #
ellipse-curve $-1 -1 $-1 4.9999999999999964 -42.662499999999994 15 -0 -1 -0 -1.6000000000000003 0 0 1 I I #
face $-1 -1 $-1 $260 $390 $2 $-1 $423 forward single #
plane-surface $-1 -1 $-1 -26.121491241648126 15.081249999999994 0 0.49999999999999983 0.86602540378443871 0 -8.6602540378443873 4.9999999999999982 0 forward_v I I I I #
edge $-1 -1 $-1 $375 0 $402 2 $388 $424 forward @7 unknown #
point $-1 -1 $-1 -26.12149124164813 15.081249999999997 0 #
straight-curve $-1 -1 $-1 -30.451618260570324 17.581249999999994 0 0 0 10 I I #
straight-curve $-1 -1 $-1 6.631014510460691 -45.162499999999994 7.8250000000000046 4.9999999999999947 0 -8.6602540378443909 I I #
loop $-1 -1 $-1 $-1 $425 $335 #
coedge $-1 -1 $-1 $415 $415 $385 $416 forward $383 $-1 #
edge $-1 -1 $-1 $426 -3.1415926535897931 $426 3.1415926535897931 $415 $427 forward @7 unknown #
straight-curve $-1 -1 $-1 0 -30.162499999999998 0 0 0 10 I I #
coedge $-1 -1 $-1 $418 $418 $425 $428 forward $395 $-1 #
ellipse-curve $-1 -1 $-1 0 0 20 0 0 -1 26.12149124164813 -15.081249999999997 0 1 I I #
point $-1 -1 $-1 0 -30.162499999999998 20 #
point $-1 -1 $-1 -26.12149124164813 15.081249999999994 20 #
point $-1 -1 $-1 6.599999999999997 -42.662499999999994 15 #
cone-surface $-1 -1 $-1 0 0 0 0 0 1 26.12149124164813 -15.081249999999997 0 1 I I 0 -1 30.162499999999998 forward I I I I #
straight-curve $-1 -1 $-1 -26.12149124164813 15.081249999999997 0 0 0 10 I I #
coedge $-1 -1 $-1 $425 $425 $418 $428 reversed $414 $-1 #
vertex $-1 -1 $-1 $416 $429 #
ellipse-curve $-1 -1 $-1 4.9999999999999991 -45.162499999999987 5 0 -1 0 -1.6000000000000003 0 0 1 I I #
edge $-1 -1 $-1 $430 -3.1415926535897931 $430 3.1415926535897931 $418 $431 forward @7 unknown #
point $-1 -1 $-1 6.5999999999999996 -45.162499999999994 5 #
vertex $-1 -1 $-1 $428 $432 #
ellipse-curve $-1 -1 $-1 4.9999999999999991 -42.662499999999994 5 -0 -1 -0 -1.6000000000000003 0 0 1 I I #
point $-1 -1 $-1 6.5999999999999996 -42.662499999999994 5 #
End-of-ACIS-data 