700 0 1 0           
33 Autodesk Inventor 17.0.13800.0000 19 ASM 218.0.0.5119 NT 24 Tue Dec 10 11:01:49 2013 
25.399999999999999 9.9999999999999995e-007 1e-010 
body $-1 -1 $-1 $1 $-1 $-1 #
lump $-1 -1 $-1 $-1 $2 $0 #
shell $-1 -1 $-1 $-1 $-1 $3 $-1 $1 #
face $-1 -1 $-1 $4 $5 $2 $-1 $6 reversed single #
face $-1 -1 $-1 $7 $8 $2 $-1 $9 forward single #
loop $-1 -1 $-1 $-1 $10 $3 #
plane-surface $-1 -1 $-1 -0.40613097966856043 0.34813145823112362 0.71943704957554588 -0.50000000000000056 -0.86602540378443849 0 0 0 -0.39370078740157477 forward_v I I I I #
face $-1 -1 $-1 $11 $12 $2 $-1 $13 forward single #
loop $-1 -1 $-1 $-1 $14 $4 #
plane-surface $-1 -1 $-1 -0.50455617651895424 0.17765401654127344 0.71943704957554588 -0.50000000000000056 -0.86602540378443849 0 0 0 -0.39370078740157477 forward_v I I I I #
coedge $-1 -1 $-1 $15 $16 $17 $18 forward $5 $-1 #
face $-1 -1 $-1 $19 $20 $2 $-1 $21 reversed single #
loop $-1 -1 $-1 $-1 $22 $7 #
plane-surface $-1 -1 $-1 -0.37888611415569184 0.21875000000000022 1.3779527559055116 -0.8372166602652853 0.4833672641742025 0.25578184395884856 -0.087210068777633876 0.050350756684812759 -0.38060414501905671 forward_v I I I I #
coedge $-1 -1 $-1 $23 $24 $25 $26 forward $8 $-1 #
coedge $-1 -1 $-1 $27 $10 $28 $29 forward $5 $-1 #
coedge $-1 -1 $-1 $10 $30 $31 $32 reversed $5 $-1 #
coedge $-1 -1 $-1 $33 $34 $10 $18 reversed $35 $-1 #
edge $-1 -1 $-1 $36 0.49999999999999989 $37 0.56226939325975767 $10 $38 forward @7 unknown #
face $-1 -1 $-1 $39 $40 $2 $-1 $41 forward single #
loop $-1 -1 $-1 $-1 $42 $11 #
plane-surface $-1 -1 $-1 0.50455617651895435 0.17765401654127308 0.71943704957554588 -0.49999999999999983 0.86602540378443882 0 0 0 -0.39370078740157477 forward_v I I I I #
coedge $-1 -1 $-1 $43 $28 $34 $44 forward $12 $-1 #
coedge $-1 -1 $-1 $45 $14 $46 $47 reversed $8 $-1 #
coedge $-1 -1 $-1 $14 $48 $43 $49 forward $8 $-1 #
coedge $-1 -1 $-1 $34 $50 $14 $26 reversed $35 $-1 #
edge $-1 -1 $-1 $51 -0.56226939325975767 $52 -0.5 $14 $53 forward @7 unknown #
coedge $-1 -1 $-1 $30 $15 $54 $55 reversed $5 $-1 #
coedge $-1 -1 $-1 $22 $56 $15 $29 reversed $12 $-1 #
edge $-1 -1 $-1 $37 -3.0388183318114672 $57 -0 $28 $58 forward @7 unknown #
coedge $-1 -1 $-1 $16 $27 $59 $60 reversed $5 $-1 #
coedge $-1 -1 $-1 $61 $62 $16 $32 forward $63 $-1 #
edge $-1 -1 $-1 $36 -1.2207770034057455 $64 -0.41501583878260812 $31 $65 forward @7 unknown #
coedge $-1 -1 $-1 $66 $17 $62 $67 reversed $35 $-1 #
coedge $-1 -1 $-1 $17 $25 $22 $44 reversed $35 $-1 #
loop $-1 -1 $-1 $68 $69 $70 #
vertex $-1 -1 $-1 $67 $71 #
vertex $-1 -1 $-1 $29 $72 #
straight-curve $-1 -1 $-1 -0.59468907145050753 0.45699552327931303 0 0 0 0.39370078740157477 I I #
face $-1 -1 $-1 $73 $74 $2 $-1 $75 forward single #
loop $-1 -1 $-1 $-1 $76 $19 #
plane-surface $-1 -1 $-1 0.40613097966856065 0.34813145823112324 0.71943704957554588 -0.49999999999999983 0.86602540378443882 0 0 0 -0.39370078740157477 forward_v I I I I #
coedge $-1 -1 $-1 $77 $78 $79 $80 forward $20 $-1 #
coedge $-1 -1 $-1 $56 $22 $24 $49 reversed $12 $-1 #
edge $-1 -1 $-1 $37 3.0099794183767314 $51 3.2732058888028543 $22 $81 forward @7 unknown #
coedge $-1 -1 $-1 $48 $23 $82 $83 reversed $8 $-1 #
coedge $-1 -1 $-1 $84 $85 $23 $47 forward $86 $-1 #
edge $-1 -1 $-1 $87 0.41501583878260806 $52 1.2207770034057455 $46 $88 forward @7 unknown #
coedge $-1 -1 $-1 $24 $45 $89 $90 reversed $8 $-1 #
edge $-1 -1 $-1 $91 0 $51 3.0388183318114668 $43 $92 forward @7 unknown #
coedge $-1 -1 $-1 $25 $93 $84 $94 reversed $35 $-1 #
vertex $-1 -1 $-1 $26 $95 #
vertex $-1 -1 $-1 $94 $96 #
straight-curve $-1 -1 $-1 -0.69311426830090139 0.2865180815894629 0 0 0 -0.39370078740157477 I I #
coedge $-1 -1 $-1 $97 $98 $27 $55 forward $99 $-1 #
edge $-1 -1 $-1 $100 0 $57 0.028486608256448331 $27 $101 forward @7 unknown #
coedge $-1 -1 $-1 $28 $43 $97 $102 reversed $12 $-1 #
vertex $-1 -1 $-1 $102 $103 #
straight-curve $-1 -1 $-1 -0.32967351573049491 0.30398872084492523 1.3779527559055116 0.087210068777633876 -0.050350756684812759 0.38060414501905671 I I #
coedge $-1 -1 $-1 $104 $105 $30 $60 forward $106 $-1 #
edge $-1 -1 $-1 $64 0 $100 3 $59 $107 forward @7 unknown #
coedge $-1 -1 $-1 $108 $31 $105 $109 forward $63 $-1 #
coedge $-1 -1 $-1 $31 $108 $33 $67 forward $63 $-1 #
loop $-1 -1 $-1 $110 $31 $111 #
vertex $-1 -1 $-1 $109 $112 #
straight-curve $-1 -1 $-1 -0.17845919062168175 0.21668508953802437 0.19685039370078733 0.34095488337970015 -0.19685039370078758 0 I I #
coedge $-1 -1 $-1 $113 $33 $76 $114 reversed $35 $-1 #
edge $-1 -1 $-1 $115 3.7968046644011531 $36 5.627973296368225 $33 $116 forward @7 unknown #
loop $-1 -1 $-1 $-1 $117 $70 #
coedge $-1 -1 $-1 $118 $79 $119 $120 reversed $35 $-1 #
face $-1 -1 $-1 $121 $35 $2 $-1 $122 forward single #
point $-1 -1 $-1 -0.59468907145050742 0.45699552327931303 0.19685039370078733 #
point $-1 -1 $-1 -0.59468907145050753 0.45699552327931303 0.22136590285817229 #
face $-1 -1 $-1 $123 $124 $2 $-1 $125 forward single #
loop $-1 -1 $-1 $-1 $126 $39 #
plane-surface $-1 -1 $-1 0.37888611415569196 0.21874999999999992 1.3779527559055116 0.83721666026528552 0.48336726417420178 0.25578184395884851 0.087210068777633903 0.050350756684812682 -0.38060414501905671 forward_v I I I I #
coedge $-1 -1 $-1 $127 $128 $66 $114 forward $40 $-1 #
coedge $-1 -1 $-1 $129 $42 $130 $131 forward $20 $-1 #
coedge $-1 -1 $-1 $42 $132 $133 $134 reversed $20 $-1 #
coedge $-1 -1 $-1 $69 $113 $42 $80 reversed $35 $-1 #
edge $-1 -1 $-1 $135 0.49999999999999989 $136 0.56226939325975767 $42 $137 forward @7 unknown #
ellipse-curve $-1 -1 $-1 0 0 3.0314960629921259 -0.8372166602652853 0.4833672641742025 0.25578184395884856 0.64951905283832878 -0.37500000000000039 2.8346456692913393 0.25578184395884856 I I #
coedge $-1 -1 $-1 $138 $139 $45 $83 forward $140 $-1 #
edge $-1 -1 $-1 $141 -3 $87 -0 $82 $142 forward @7 unknown #
coedge $-1 -1 $-1 $143 $46 $50 $94 forward $86 $-1 #
coedge $-1 -1 $-1 $46 $143 $138 $144 forward $86 $-1 #
loop $-1 -1 $-1 $-1 $46 $145 #
vertex $-1 -1 $-1 $47 $146 #
straight-curve $-1 -1 $-1 -0.27688438747207555 0.046207647848174195 0.19685039370078733 -0.34095488337970015 0.19685039370078758 0 I I #
coedge $-1 -1 $-1 $147 $97 $48 $90 forward $99 $-1 #
edge $-1 -1 $-1 $91 0 $141 0.028486608256448553 $48 $148 forward @7 unknown #
vertex $-1 -1 $-1 $102 $149 #
straight-curve $-1 -1 $-1 -0.42809871258088866 0.13351127915507516 1.3779527559055116 -0.087210068777633876 0.050350756684812759 -0.38060414501905671 I I #
coedge $-1 -1 $-1 $50 $150 $151 $152 reversed $35 $-1 #
edge $-1 -1 $-1 $52 5.8911997667943483 $153 7.7223683987614216 $50 $116 forward @7 unknown #
point $-1 -1 $-1 -0.69311426830090128 0.2865180815894629 0.22136590285817229 #
point $-1 -1 $-1 -0.69311426830090128 0.28651808158946279 0.19685039370078738 #
coedge $-1 -1 $-1 $89 $54 $56 $102 forward $99 $-1 #
coedge $-1 -1 $-1 $54 $154 $104 $155 forward $99 $-1 #
loop $-1 -1 $-1 $-1 $147 $73 #
vertex $-1 -1 $-1 $55 $156 #
straight-curve $-1 -1 $-1 -0.31996086753453434 0.29838112079444323 1.3779527559055116 -0.34095488337970015 0.19685039370078758 0 F 0 F 0.028486608256448331 #
edge $-1 -1 $-1 $57 -0.25 $91 0.25 $56 $157 forward @7 unknown #
point $-1 -1 $-1 -0.32967351573049491 0.30398872084492523 1.3779527559055116 #
coedge $-1 -1 $-1 $158 $59 $98 $155 reversed $106 $-1 #
coedge $-1 -1 $-1 $59 $158 $61 $109 reversed $106 $-1 #
loop $-1 -1 $-1 $-1 $59 $159 #
straight-curve $-1 -1 $-1 -0.3199608675345344 0.29838112079444329 0.19685039370078738 0 0 0.39370078740157477 I I #
coedge $-1 -1 $-1 $62 $61 $127 $160 forward $63 $-1 #
edge $-1 -1 $-1 $64 -5.5326723568367289 $161 -3.8921056039326496 $61 $162 forward @7 unknown #
loop $-1 -1 $-1 $-1 $163 $111 #
face $-1 -1 $-1 $164 $63 $2 $-1 $165 forward single #
point $-1 -1 $-1 -0.31996086753453434 0.29838112079444323 0.19685039370078738 #
coedge $-1 -1 $-1 $79 $66 $126 $166 reversed $35 $-1 #
edge $-1 -1 $-1 $167 -0.56226939325975767 $115 -0.5 $76 $168 forward @7 unknown #
vertex $-1 -1 $-1 $67 $169 #
ellipse-curve $-1 -1 $-1 0 0 0.19685039370078738 0 0 1 -0.75 -0 -0 1 I I #
coedge $-1 -1 $-1 $117 $117 $170 $171 reversed $68 $-1 #
coedge $-1 -1 $-1 $150 $69 $172 $173 reversed $35 $-1 #
coedge $-1 -1 $-1 $133 $174 $69 $120 forward $175 $-1 #
edge $-1 -1 $-1 $176 1.702409562007958 $135 3.5335781939750301 $69 $116 forward @7 unknown #
face $-1 -1 $-1 $-1 $177 $2 $-1 $178 reversed single #
cone-surface $-1 -1 $-1 0 0 0 0 0 1 -0.75 0 0 1 I I 0 1 0.75 forward I I I I #
face $-1 -1 $-1 $179 $140 $2 $-1 $180 forward single #
loop $-1 -1 $-1 $99 $181 $73 #
plane-surface $-1 -1 $-1 -3.0687321053201897e-017 0 1.3779527559055116 0 0 1 0.39370078740157477 0 0 forward_v I I I I #
coedge $-1 -1 $-1 $182 $130 $113 $166 forward $74 $-1 #
coedge $-1 -1 $-1 $183 $76 $108 $160 reversed $40 $-1 #
coedge $-1 -1 $-1 $76 $184 $182 $185 forward $40 $-1 #
coedge $-1 -1 $-1 $132 $77 $186 $187 reversed $20 $-1 #
coedge $-1 -1 $-1 $126 $188 $77 $131 reversed $74 $-1 #
edge $-1 -1 $-1 $136 -3.0388183318114672 $189 -0 $130 $190 forward @7 unknown #
coedge $-1 -1 $-1 $78 $129 $191 $192 reversed $20 $-1 #
coedge $-1 -1 $-1 $193 $119 $78 $134 forward $175 $-1 #
edge $-1 -1 $-1 $135 -1.2207770034057455 $194 -0.41501583878260806 $133 $195 forward @7 unknown #
vertex $-1 -1 $-1 $120 $196 #
vertex $-1 -1 $-1 $131 $197 #
straight-curve $-1 -1 $-1 0.6931142683009015 0.28651808158946235 0 0 0 0.39370078740157477 I I #
coedge $-1 -1 $-1 $198 $82 $85 $144 reversed $140 $-1 #
coedge $-1 -1 $-1 $82 $198 $147 $199 reversed $140 $-1 #
loop $-1 -1 $-1 $-1 $82 $123 #
vertex $-1 -1 $-1 $199 $200 #
straight-curve $-1 -1 $-1 -0.41838606438492831 0.12790367910459288 0.19685039370078738 -0 -0 -0.39370078740157477 I I #
coedge $-1 -1 $-1 $85 $84 $201 $202 forward $86 $-1 #
edge $-1 -1 $-1 $203 -7.6270674592299246 $87 -5.9865007063258453 $85 $162 forward @7 unknown #
face $-1 -1 $-1 $204 $205 $2 $-1 $165 forward single #
point $-1 -1 $-1 -0.41838606438492815 0.12790367910459313 0.19685039370078738 #
coedge $-1 -1 $-1 $206 $89 $139 $199 forward $99 $-1 #
straight-curve $-1 -1 $-1 -0.42809871258088866 0.13351127915507516 1.3779527559055116 0.34095488337970054 -0.19685039370078691 0 F 0 F 0.028486608256448553 #
point $-1 -1 $-1 -0.42809871258088866 0.13351127915507516 1.3779527559055116 #
coedge $-1 -1 $-1 $93 $118 $207 $208 reversed $35 $-1 #
coedge $-1 -1 $-1 $209 $201 $93 $152 forward $210 $-1 #
edge $-1 -1 $-1 $153 0.5 $211 0.56226939325975767 $151 $212 forward @7 unknown #
vertex $-1 -1 $-1 $94 $213 #
coedge $-1 -1 $-1 $98 $214 $184 $215 forward $99 $-1 #
edge $-1 -1 $-1 $216 3.8921056039326496 $100 5.5326723568367289 $104 $217 forward @7 unknown #
point $-1 -1 $-1 -0.31996086753453434 0.29838112079444323 1.3779527559055116 #
straight-curve $-1 -1 $-1 -0.37888611415569184 0.21875000000000022 1.3779527559055116 -0.19685039370078758 -0.34095488337970015 0 I I #
coedge $-1 -1 $-1 $105 $104 $183 $218 forward $106 $-1 #
face $-1 -1 $-1 $111 $106 $2 $-1 $180 forward single #
edge $-1 -1 $-1 $161 0.41501583878260806 $115 1.2207770034057455 $108 $219 forward @7 unknown #
vertex $-1 -1 $-1 $160 $220 #
ellipse-curve $-1 -1 $-1 0 0 0.19685039370078738 -0 -0 -1 -0.4375 0 0 1 I I #
coedge $-1 -1 $-1 $163 $163 $221 $222 forward $110 $-1 #
face $-1 -1 $-1 $223 $210 $2 $-1 $224 reversed single #
plane-surface $-1 -1 $-1 -3.824691591453322e-017 1.5296436709931131e-017 0.19685039370078738 0 0 1 0.39370078740157477 0 0 forward_v I I I I #
edge $-1 -1 $-1 $136 3.0099794183767319 $167 3.2732058888028543 $126 $225 forward @7 unknown #
vertex $-1 -1 $-1 $114 $226 #
straight-curve $-1 -1 $-1 0.59468907145050787 0.45699552327931253 0 -0 -0 -0.39370078740157477 I I #
point $-1 -1 $-1 0.59468907145050776 0.45699552327931253 0.19685039370078738 #
coedge $-1 -1 $-1 $170 $170 $117 $171 forward $227 $-1 #
edge $-1 -1 $-1 $228 -3.1415926535897931 $228 3.1415926535897931 $117 $229 forward @7 unknown #
coedge $-1 -1 $-1 $230 $231 $118 $173 forward $232 $-1 #
edge $-1 -1 $-1 $233 -0.56226939325975767 $176 -0.5 $172 $234 forward @7 unknown #
coedge $-1 -1 $-1 $119 $193 $230 $235 forward $175 $-1 #
loop $-1 -1 $-1 $-1 $133 $204 #
vertex $-1 -1 $-1 $120 $236 #
loop $-1 -1 $-1 $237 $238 $121 #
plane-surface $-1 -1 $-1 -3.824691591453322e-017 1.5296436709931131e-017 0 0 0 1 0.39370078740157477 0 0 forward_v I I I I #
face $-1 -1 $-1 $145 $239 $2 $-1 $180 forward single #
cone-surface $-1 -1 $-1 0 0 0.19685039370078738 0 0 1 -0.4375 0 0 1 I I 0 1 0.4375 forward I I I I #
coedge $-1 -1 $-1 $181 $181 $240 $241 forward $124 $-1 #
coedge $-1 -1 $-1 $188 $126 $128 $185 reversed $74 $-1 #
coedge $-1 -1 $-1 $184 $127 $158 $218 reversed $40 $-1 #
coedge $-1 -1 $-1 $128 $183 $154 $215 reversed $40 $-1 #
edge $-1 -1 $-1 $242 0 $167 3.0388183318114668 $182 $243 forward @7 unknown #
coedge $-1 -1 $-1 $214 $244 $129 $187 forward $99 $-1 #
edge $-1 -1 $-1 $245 0 $189 0.028486608256448331 $129 $246 forward @7 unknown #
coedge $-1 -1 $-1 $130 $182 $214 $247 reversed $74 $-1 #
vertex $-1 -1 $-1 $247 $248 #
straight-curve $-1 -1 $-1 0.42809871258088877 0.13351127915507482 1.3779527559055116 -0.087210068777633903 -0.050350756684812682 0.38060414501905671 I I #
coedge $-1 -1 $-1 $249 $250 $132 $192 forward $239 $-1 #
edge $-1 -1 $-1 $194 0 $245 3 $191 $251 forward @7 unknown #
coedge $-1 -1 $-1 $174 $133 $250 $252 forward $175 $-1 #
vertex $-1 -1 $-1 $252 $253 #
straight-curve $-1 -1 $-1 0.27688438747207561 0.046207647848173994 0.19685039370078738 -0.34095488337970031 -0.19685039370078733 0 I I #
point $-1 -1 $-1 0.6931142683009015 0.28651808158946235 0.19685039370078733 #
point $-1 -1 $-1 0.69311426830090161 0.28651808158946235 0.22136590285817229 #
coedge $-1 -1 $-1 $139 $138 $254 $255 forward $140 $-1 #
edge $-1 -1 $-1 $141 5.9865007063258453 $256 7.6270674592299246 $139 $217 forward @7 unknown #
point $-1 -1 $-1 -0.41838606438492815 0.12790367910459313 1.3779527559055116 #
coedge $-1 -1 $-1 $151 $254 $143 $202 reversed $210 $-1 #
edge $-1 -1 $-1 $153 -1.2207770034057455 $203 -0.41501583878260817 $143 $257 forward @7 unknown #
vertex $-1 -1 $-1 $144 $258 #
face $-1 -1 $-1 $259 $260 $2 $-1 $165 forward single #
loop $-1 -1 $-1 $86 $261 $145 #
coedge $-1 -1 $-1 $262 $147 $263 $264 forward $99 $-1 #
coedge $-1 -1 $-1 $265 $266 $150 $208 forward $267 $-1 #
edge $-1 -1 $-1 $211 3.0099794183767319 $233 3.2732058888028543 $207 $268 forward @7 unknown #
coedge $-1 -1 $-1 $263 $151 $266 $269 forward $210 $-1 #
loop $-1 -1 $-1 $-1 $151 $164 #
vertex $-1 -1 $-1 $269 $270 #
straight-curve $-1 -1 $-1 -0.098425196850393692 -0.74351360486877516 0 0 0 0.39370078740157477 I I #
point $-1 -1 $-1 -0.098425196850393692 -0.74351360486877516 0.19685039370078738 #
coedge $-1 -1 $-1 $154 $186 $188 $247 forward $99 $-1 #
edge $-1 -1 $-1 $242 0 $216 0.028486608256448553 $184 $271 forward @7 unknown #
vertex $-1 -1 $-1 $155 $272 #
ellipse-curve $-1 -1 $-1 0 0 1.3779527559055116 0 0 1 -0.4375 -0 -0 1 I I #
edge $-1 -1 $-1 $216 -3 $161 0 $158 $273 forward @7 unknown #
straight-curve $-1 -1 $-1 0.17845919062168192 0.21668508953802415 0.19685039370078738 0.34095488337970031 0.19685039370078733 0 I I #
point $-1 -1 $-1 0.31996086753453451 0.29838112079444296 0.19685039370078738 #
coedge $-1 -1 $-1 $221 $221 $163 $222 reversed $274 $-1 #
edge $-1 -1 $-1 $275 -3.1415926535897931 $275 3.1415926535897931 $163 $276 forward @7 unknown #
face $-1 -1 $-1 $277 $278 $2 $-1 $279 reversed single #
plane-surface $-1 -1 $-1 -0.098425196850393692 -0.52578547477239646 0.71943704957554588 1 0 0 0 0 -0.39370078740157477 forward_v I I I I #
ellipse-curve $-1 -1 $-1 0 0 3.0314960629921259 0.83721666026528552 0.48336726417420178 0.25578184395884851 -0.64951905283832911 -0.37499999999999983 2.8346456692913393 0.25578184395884851 I I #
point $-1 -1 $-1 0.59468907145050787 0.45699552327931253 0.22136590285817229 #
loop $-1 -1 $-1 $-1 $170 $121 #
vertex $-1 -1 $-1 $171 $280 #
ellipse-curve $-1 -1 $-1 0 0 0 0 0 -1 -0.75 -0 -0 1 I I #
coedge $-1 -1 $-1 $281 $172 $174 $235 reversed $232 $-1 #
coedge $-1 -1 $-1 $172 $282 $265 $283 forward $232 $-1 #
loop $-1 -1 $-1 $-1 $172 $284 #
vertex $-1 -1 $-1 $173 $285 #
straight-curve $-1 -1 $-1 0.098425196850393692 -0.74351360486877516 0 0 0 -0.39370078740157477 I I #
edge $-1 -1 $-1 $286 0.54138169587177598 $176 1.3471428604949134 $174 $287 forward @7 unknown #
point $-1 -1 $-1 0.098425196850393692 -0.74351360486877516 0.19685039370078738 #
loop $-1 -1 $-1 $288 $289 $121 #
coedge $-1 -1 $-1 $238 $238 $290 $291 forward $177 $-1 #
loop $-1 -1 $-1 $-1 $191 $179 #
coedge $-1 -1 $-1 $240 $240 $181 $241 reversed $292 $-1 #
edge $-1 -1 $-1 $293 -3.1415926535897931 $293 3.1415926535897931 $181 $294 forward @7 unknown #
vertex $-1 -1 $-1 $247 $295 #
straight-curve $-1 -1 $-1 0.32967351573049514 0.30398872084492501 1.3779527559055116 0.087210068777633903 0.050350756684812682 -0.38060414501905671 I I #
coedge $-1 -1 $-1 $186 $296 $249 $297 forward $99 $-1 #
vertex $-1 -1 $-1 $187 $298 #
straight-curve $-1 -1 $-1 0.4183860643849282 0.12790367910459288 1.3779527559055116 0.34095488337970031 0.19685039370078733 0 F 0 F 0.028486608256448331 #
edge $-1 -1 $-1 $189 -0.25 $242 0.25 $188 $299 forward @7 unknown #
point $-1 -1 $-1 0.42809871258088877 0.13351127915507482 1.3779527559055116 #
coedge $-1 -1 $-1 $300 $191 $244 $297 reversed $239 $-1 #
coedge $-1 -1 $-1 $191 $300 $193 $252 reversed $239 $-1 #
straight-curve $-1 -1 $-1 0.4183860643849282 0.12790367910459294 0.19685039370078738 0 0 0.39370078740157477 I I #
edge $-1 -1 $-1 $194 -3.4382772544435336 $286 -1.7977105015394548 $193 $162 forward @7 unknown #
point $-1 -1 $-1 0.4183860643849282 0.12790367910459288 0.19685039370078738 #
coedge $-1 -1 $-1 $201 $263 $198 $255 reversed $210 $-1 #
edge $-1 -1 $-1 $203 0 $256 3 $198 $301 forward @7 unknown #
vertex $-1 -1 $-1 $264 $302 #
straight-curve $-1 -1 $-1 -0.098425196850393692 -0.26289273738619823 0.19685039370078738 0 0.39370078740157477 0 I I #
point $-1 -1 $-1 -0.098425196850393692 -0.42628479989903606 0.19685039370078738 #
face $-1 -1 $-1 $303 $304 $2 $-1 $305 reversed single #
loop $-1 -1 $-1 $175 $306 $204 #
coedge $-1 -1 $-1 $261 $261 $307 $308 forward $205 $-1 #
coedge $-1 -1 $-1 $296 $206 $309 $310 forward $99 $-1 #
coedge $-1 -1 $-1 $254 $209 $206 $264 reversed $210 $-1 #
edge $-1 -1 $-1 $256 0 $311 0.028486608256448331 $263 $312 forward @7 unknown #
coedge $-1 -1 $-1 $309 $207 $231 $283 reversed $267 $-1 #
coedge $-1 -1 $-1 $207 $309 $209 $269 reversed $267 $-1 #
loop $-1 -1 $-1 $-1 $207 $313 #
ellipse-curve $-1 -1 $-1 0 0 3.0314960629921259 0 -0.96673452834840412 0.25578184395884856 0 0.75 2.8346456692913389 0.25578184395884851 I I #
edge $-1 -1 $-1 $211 -3.0388183318114668 $311 -0 $266 $314 forward @7 unknown #
point $-1 -1 $-1 -0.098425196850393692 -0.74351360486877516 0.22136590285817229 #
straight-curve $-1 -1 $-1 0.32967351573049514 0.30398872084492501 1.3779527559055116 -0.34095488337969992 -0.19685039370078797 0 F 0 F 0.028486608256448553 #
point $-1 -1 $-1 0.31996086753453451 0.29838112079444296 1.3779527559055116 #
straight-curve $-1 -1 $-1 0.31996086753453434 0.29838112079444334 0.19685039370078738 -0 -0 -0.39370078740157477 I I #
loop $-1 -1 $-1 $-1 $221 $223 #
vertex $-1 -1 $-1 $222 $315 #
ellipse-curve $-1 -1 $-1 0 0.56249999999999989 0.19685039370078738 -0 -0 -1 -0.068897637795275593 0 0 1 I I #
face $-1 -1 $-1 $70 $292 $2 $-1 $316 reversed single #
loop $-1 -1 $-1 $274 $317 $223 #
cone-surface $-1 -1 $-1 0 0.56249999999999989 0.19685039370078738 0 0 -1 -0.068897637795275593 0 0 1 I I 0 1 0.068897637795275593 forward I I I I #
point $-1 -1 $-1 0.75 9.1848509936051484e-017 0 #
coedge $-1 -1 $-1 $282 $230 $300 $318 reversed $232 $-1 #
coedge $-1 -1 $-1 $231 $281 $296 $319 reversed $232 $-1 #
edge $-1 -1 $-1 $320 0 $233 3.0388183318114668 $265 $321 forward @7 unknown #
face $-1 -1 $-1 $313 $232 $2 $-1 $322 forward single #
point $-1 -1 $-1 0.098425196850393692 -0.74351360486877516 0.22136590285817229 #
vertex $-1 -1 $-1 $235 $323 #
straight-curve $-1 -1 $-1 0.098425196850393262 -0.21314239994951792 0.19685039370078738 7.6719501853530789e-016 -0.39370078740157477 0 I I #
loop $-1 -1 $-1 $324 $325 $121 #
coedge $-1 -1 $-1 $289 $289 $326 $327 forward $237 $-1 #
coedge $-1 -1 $-1 $290 $290 $238 $291 reversed $304 $-1 #
edge $-1 -1 $-1 $328 -3.1415926535897922 $328 3.141592653589794 $238 $329 forward @7 unknown #
loop $-1 -1 $-1 $330 $240 $277 #
vertex $-1 -1 $-1 $241 $331 #
ellipse-curve $-1 -1 $-1 0 0 1.3779527559055116 -0 -0 -1 -0.22071850393700787 0 0 1 I I #
point $-1 -1 $-1 0.32967351573049514 0.30398872084492501 1.3779527559055116 #
coedge $-1 -1 $-1 $244 $262 $282 $319 forward $99 $-1 #
edge $-1 -1 $-1 $332 1.7977105015394548 $245 3.4382772544435336 $249 $217 forward @7 unknown #
point $-1 -1 $-1 0.4183860643849282 0.12790367910459288 1.3779527559055116 #
straight-curve $-1 -1 $-1 0.37888611415569196 0.21874999999999992 1.3779527559055116 -0.19685039370078733 0.34095488337970031 0 I I #
coedge $-1 -1 $-1 $250 $249 $281 $318 forward $239 $-1 #
straight-curve $-1 -1 $-1 -0.098425196850393665 -0.42628479989903617 0.19685039370078738 0 0 0.39370078740157477 I I #
point $-1 -1 $-1 -0.098425196850393692 -0.42628479989903606 1.3779527559055116 #
face $-1 -1 $-1 $284 $333 $2 $-1 $334 reversed single #
loop $-1 -1 $-1 $335 $290 $259 #
cone-surface $-1 -1 $-1 0.48713928962874653 -0.28125000000000022 0.19685039370078738 0 0 -1 0.034448818897637831 0.059667104591447528 0 1 I I 0 1 0.068897637795275593 forward I I I I #
coedge $-1 -1 $-1 $306 $306 $336 $337 forward $260 $-1 #
coedge $-1 -1 $-1 $307 $307 $261 $308 reversed $338 $-1 #
edge $-1 -1 $-1 $339 -3.1415926535897927 $339 3.1415926535897936 $261 $340 forward @7 unknown #
coedge $-1 -1 $-1 $266 $265 $262 $310 reversed $267 $-1 #
edge $-1 -1 $-1 $311 -0.25 $320 0.25 $309 $341 forward @7 unknown #
vertex $-1 -1 $-1 $310 $342 #
straight-curve $-1 -1 $-1 -0.098425196850393692 -0.42628479989903606 1.3779527559055116 0 -0.39370078740157477 0 F 0 F 0.028486608256448331 #
face $-1 -1 $-1 $159 $267 $2 $-1 $343 forward single #
straight-curve $-1 -1 $-1 -0.098425196850393692 -0.4375 1.3779527559055116 0 0.10070151336962541 0.38060414501905671 I I #
point $-1 -1 $-1 0.068897637795275593 0.56249999999999989 0.19685039370078738 #
cone-surface $-1 -1 $-1 0 0 0 0 0 1 -0.22071850393700787 0 0 1 I I 0 1 0.22071850393700787 forward I I I I #
coedge $-1 -1 $-1 $317 $317 $325 $344 reversed $278 $-1 #
edge $-1 -1 $-1 $332 -3 $286 -0 $300 $345 forward @7 unknown #
edge $-1 -1 $-1 $320 0 $332 0.028486608256448553 $282 $346 forward @7 unknown #
vertex $-1 -1 $-1 $310 $347 #
straight-curve $-1 -1 $-1 0.098425196850393692 -0.4375 1.3779527559055116 0 -0.10070151336962541 -0.38060414501905671 I I #
plane-surface $-1 -1 $-1 0.098425196850393692 -0.52578547477239646 0.71943704957554588 1 0 0 0 0 -0.39370078740157477 forward_v I I I I #
point $-1 -1 $-1 0.098425196850393665 -0.426284799899036 0.19685039370078738 #
loop $-1 -1 $-1 $227 $348 $121 #
coedge $-1 -1 $-1 $325 $325 $317 $344 forward $288 $-1 #
coedge $-1 -1 $-1 $326 $326 $289 $327 reversed $333 $-1 #
edge $-1 -1 $-1 $349 -3.1415926535897936 $349 3.1415926535897927 $289 $350 forward @7 unknown #
vertex $-1 -1 $-1 $291 $351 #
ellipse-curve $-1 -1 $-1 0.48713928962874653 -0.28125000000000022 0 0 0 1 0.034448818897637831 0.059667104591447528 0 1 I I #
loop $-1 -1 $-1 $-1 $352 $277 #
point $-1 -1 $-1 0.22071850393700787 2.7030220935904919e-017 1.3779527559055116 #
vertex $-1 -1 $-1 $297 $353 #
loop $-1 -1 $-1 $338 $326 $303 #
cone-surface $-1 -1 $-1 -0.48713928962874681 -0.28124999999999989 0.19685039370078738 0 0 -1 0.034448818897637783 -0.059667104591447556 0 1 I I 0 1 0.068897637795275593 forward I I I I #
loop $-1 -1 $-1 $-1 $336 $259 #
coedge $-1 -1 $-1 $336 $336 $306 $337 reversed $335 $-1 #
edge $-1 -1 $-1 $354 -3.141592653589794 $354 3.1415926535897922 $306 $355 forward @7 unknown #
loop $-1 -1 $-1 $-1 $307 $303 #
vertex $-1 -1 $-1 $308 $356 #
ellipse-curve $-1 -1 $-1 -0.48713928962874681 -0.28124999999999989 0.19685039370078738 -0 -0 -1 0.034448818897637783 -0.059667104591447556 0 1 I I #
straight-curve $-1 -1 $-1 0 -0.4375 1.3779527559055116 0.39370078740157477 0 0 I I #
point $-1 -1 $-1 -0.098425196850393692 -0.4375 1.3779527559055116 #
plane-surface $-1 -1 $-1 0 -0.4375 1.3779527559055116 0 -0.96673452834840412 0.25578184395884856 0 -0.10070151336962541 -0.38060414501905671 forward_v I I I I #
edge $-1 -1 $-1 $357 -3.1415926535897931 $357 3.1415926535897931 $325 $358 forward @7 unknown #
straight-curve $-1 -1 $-1 0.098425196850393665 -0.42628479989903617 0.19685039370078738 -0 -0 -0.39370078740157477 I I #
straight-curve $-1 -1 $-1 0.098425196850393692 -0.4375 1.3779527559055116 -7.6719501853530789e-016 0.39370078740157477 0 F 0 F 0.028486608256448553 #
point $-1 -1 $-1 0.098425196850393692 -0.4375 1.3779527559055116 #
coedge $-1 -1 $-1 $348 $348 $352 $359 forward $324 $-1 #
vertex $-1 -1 $-1 $327 $360 #
ellipse-curve $-1 -1 $-1 -0.48713928962874681 -0.28124999999999989 0 0 0 1 0.034448818897637783 -0.059667104591447556 0 1 I I #
point $-1 -1 $-1 0.4526904707311088 -0.34091710459144781 0 #
coedge $-1 -1 $-1 $352 $352 $348 $359 reversed $330 $-1 #
point $-1 -1 $-1 0.098425196850393665 -0.426284799899036 1.3779527559055116 #
vertex $-1 -1 $-1 $337 $361 #
ellipse-curve $-1 -1 $-1 0.48713928962874653 -0.28125000000000022 0.19685039370078738 -0 -0 -1 0.034448818897637831 0.059667104591447528 0 1 I I #
point $-1 -1 $-1 -0.5215881085263846 -0.22158289540855231 0.19685039370078738 #
vertex $-1 -1 $-1 $344 $362 #
ellipse-curve $-1 -1 $-1 0 0.56249999999999989 0 0 0 1 -0.068897637795275593 0 0 1 I I #
edge $-1 -1 $-1 $363 -3.1415926535897931 $363 3.1415926535897931 $348 $364 forward @7 unknown #
point $-1 -1 $-1 -0.5215881085263846 -0.22158289540855231 0 #
point $-1 -1 $-1 0.4526904707311088 -0.34091710459144781 0.19685039370078738 #
point $-1 -1 $-1 0.068897637795275593 0.56249999999999989 0 #
vertex $-1 -1 $-1 $359 $365 #
ellipse-curve $-1 -1 $-1 0 0 0 0 0 1 -0.22071850393700787 0 0 1 I I #
point $-1 -1 $-1 0.22071850393700787 2.7030220935904919e-017 0 #
End-of-ACIS-data 