700 0 1 0           
33 Autodesk Inventor 17.0.13800.0000 19 ASM 218.0.0.5119 NT 24 Tue Dec 10 11:01:52 2013 
1 9.9999999999999995e-007 1e-010 
body $-1 -1 $-1 $1 $-1 $-1 #
lump $-1 -1 $-1 $-1 $2 $0 #
shell $-1 -1 $-1 $-1 $-1 $3 $-1 $1 #
face $-1 -1 $-1 $4 $5 $2 $-1 $6 reversed single #
face $-1 -1 $-1 $7 $8 $2 $-1 $9 forward single #
loop $-1 -1 $-1 $10 $11 $3 #
cone-surface $-1 -1 $-1 0 -62.5 -25.000000000000004 0 -1.1497455271199034e-016 1 8.5 0 0 1 I I 0 1 8.5 forward I I I I #
face $-1 -1 $-1 $12 $13 $2 $-1 $14 reversed single #
loop $-1 -1 $-1 $-1 $15 $4 #
cone-surface $-1 -1 $-1 0 -50 14.000000000000002 1 0 0 0 -10.825317547305481 -6.2500000000000018 1 I I 0 1 12.5 forward I I I I #
loop $-1 -1 $-1 $-1 $16 $3 #
coedge $-1 -1 $-1 $11 $11 $17 $18 reversed $5 $-1 #
face $-1 -1 $-1 $19 $20 $2 $-1 $21 reversed single #
loop $-1 -1 $-1 $-1 $22 $7 #
plane-surface $-1 -1 $-1 12.5 -46.189488223348476 20.599999999999994 0 0.86602540378443715 0.50000000000000278 0 5.0000000000000275 -8.6602540378443713 forward_v I I I I #
coedge $-1 -1 $-1 $23 $24 $25 $26 forward $8 $-1 #
coedge $-1 -1 $-1 $25 $25 $27 $28 reversed $10 $-1 #
coedge $-1 -1 $-1 $17 $17 $11 $18 forward $29 $-1 #
edge $-1 -1 $-1 $30 0 $30 0.46894992856379814 $17 $31 forward @7 unknown #
face $-1 -1 $-1 $32 $33 $2 $-1 $34 reversed single #
loop $-1 -1 $-1 $-1 $35 $12 #
plane-surface $-1 -1 $-1 12.5 -53.810511776651531 20.599999999999991 0 -5.8271596557077751e-016 1 0 10 5.8271596557077753e-015 forward_v I I I I #
coedge $-1 -1 $-1 $36 $37 $38 $39 reversed $13 $-1 #
coedge $-1 -1 $-1 $40 $15 $41 $42 reversed $8 $-1 #
coedge $-1 -1 $-1 $15 $43 $44 $45 reversed $8 $-1 #
coedge $-1 -1 $-1 $16 $16 $15 $26 reversed $10 $-1 #
edge $-1 -1 $-1 $46 -4.5055925012256539 $47 0.62983894453954081 $15 $48 forward @7 unknown #
coedge $-1 -1 $-1 $44 $41 $16 $28 forward $49 $-1 #
edge $-1 -1 $-1 $47 -1.3724774226076772 $46 1.3724774226076772 $27 $50 forward @7 unknown #
loop $-1 -1 $-1 $51 $17 $52 #
vertex $-1 -1 $-1 $18 $53 #
intcurve-curve $-1 -1 $-1 forward { surfintcur full nubs 3 periodic 17 
	0 3 0.021667962322110851 2 0.043335924644221702 2 0.068376661310142028 2 0.11723748214094927 2 
	0.1660983029717566 2 0.19113903963767692 2 0.21280700195978774 2 0.23447496428189857 2 0.25614292660400961 2 
	0.27781088892612071 2 0.30285162559204104 2 0.35171244642284838 2 0.40057326725365561 2 0.42561400391957593 2 
	0.44728196624168703 2 0.46894992856379814 3 
	-0.92059763197603273 -54.050000000000004 14 
	-0.92059763197603228 -54.050000000000004 13.927773458926296 
	-0.90168533327265499 -54.047887759461389 13.852755422856832 
	-0.83167961858354889 -54.040712359282438 13.717653935860852 
	-0.7808670889110586 -54.035770703770027 13.657418700423488 
	-0.66459035192544369 -54.025790058739396 13.554359267429053 
	-0.57937233995255943 -54.019426025773484 13.502109813803681 
	-0.35486593492106977 -54.006109219233437 13.401600084636735 
	-0.16286940276935749 -54 13.36557112297756 
	0.1628694027693578 -54 13.36557112297756 
	0.35486593492107055 -54.006109219233437 13.401600084636735 
	0.57937233995256043 -54.019426025773484 13.502109813803681 
	0.66459035192544469 -54.025790058739396 13.554359267429053 
	0.78086708891105938 -54.035770703770027 13.657418700423488 
	0.83167961858354778 -54.040712359282438 13.717653935860849 
	0.90168533327265576 -54.047887759461389 13.852755422856834 
	0.92059763197603228 -54.050000000000004 13.927773458926298 
	0.92059763197603317 -54.050000000000004 14.072226541073702 
	0.90168533327265543 -54.047887759461389 14.147244577143166 
	0.83167961858354866 -54.040712359282438 14.282346064139151 
	0.78086708891106005 -54.035770703770027 14.342581299576516 
	0.66459035192544469 -54.025790058739396 14.445640732570951 
	0.57937233995256043 -54.019426025773484 14.497890186196321 
	0.35486593492107055 -54.006109219233437 14.598399915363267 
	0.1628694027693578 -54 14.634428877022444 
	-0.16286940276935749 -54 14.634428877022444 
	-0.35486593492106977 -54.006109219233437 14.598399915363267 
	-0.57937233995255943 -54.019426025773484 14.497890186196321 
	-0.66459035192544369 -54.025790058739396 14.445640732570951 
	-0.78086708891105916 -54.035770703770027 14.342581299576516 
	-0.83167961858354855 -54.040712359282438 14.282346064139153 
	-0.90168533327265576 -54.047887759461389 14.147244577143169 
	-0.92059763197603317 -54.050000000000004 14.072226541073702 
	-0.92059763197603273 -54.050000000000004 14 
	0.0023684920904047981 
	cone 0 -62.5 -25.000000000000004 0 -1.1497455271199034e-016 1 8.5 0 0 1 I I 0 1 8.5 forward I I I I 
	cone 0 -50 14.000000000000002 1 0 0 0 -4.0500000000000007 0 1 I I -0 -1 4.0500000000000007 forward I I I I 
	nullbs 
	nullbs 
	I I 
	0 
	0 
	0 
	} I I #
face $-1 -1 $-1 $54 $55 $2 $-1 $56 reversed single #
loop $-1 -1 $-1 $-1 $57 $19 #
plane-surface $-1 -1 $-1 12.5 -57.621023553303061 13.999999999999986 0 -0.86602540378443882 0.49999999999999972 0 4.9999999999999973 8.6602540378443891 forward_v I I I I #
coedge $-1 -1 $-1 $58 $59 $60 $61 reversed $20 $-1 #
coedge $-1 -1 $-1 $62 $22 $59 $63 forward $13 $-1 #
coedge $-1 -1 $-1 $22 $62 $64 $65 reversed $13 $-1 #
coedge $-1 -1 $-1 $66 $60 $22 $39 forward $67 $-1 #
edge $-1 -1 $-1 $68 -1.4898002482739268 $69 -0.72769789294362119 $38 $70 forward @7 unknown #
coedge $-1 -1 $-1 $71 $23 $72 $73 reversed $8 $-1 #
coedge $-1 -1 $-1 $27 $74 $23 $42 forward $49 $-1 #
edge $-1 -1 $-1 $75 -1.25 $47 -0.83333929874113732 $41 $76 forward @7 tangent #
coedge $-1 -1 $-1 $24 $71 $77 $78 reversed $8 $-1 #
coedge $-1 -1 $-1 $79 $27 $24 $45 forward $49 $-1 #
edge $-1 -1 $-1 $46 0.83333929874113732 $80 1.25 $44 $76 forward @7 tangent #
vertex $-1 -1 $-1 $45 $81 #
vertex $-1 -1 $-1 $28 $82 #
intcurve-curve $-1 -1 $-1 forward { surfintcur full nubs 3 open 23 
	-4.5055925012256539 3 -4.3529666512143868 2 -4.1143601039454705 2 -3.8757535566765551 2 -3.6371470094076397 2 
	-3.3985404621387234 2 -3.1599339148698071 2 -2.9213273676008917 2 -2.733203761597375 2 -2.5450801555938574 2 
	-2.2414784669660675 2 -1.9378767783382775 2 -1.6342750897104867 2 -1.3306734010826968 2 -1.1425497950791801 2 
	-0.95442618907566334 2 -0.71581964180674795 2 -0.47721309453783167 2 -0.23860654726891539 2 0 3 
	0.23860654726891584 2 0.47721309453783167 2 0.62983894453954081 3 
	-8.3333929874113739 -60.825317547305474 7.7500000000000036 
	-8.3863681771002767 -61.088927566954268 8.206585947415947 
	-8.4211151063634624 -61.326192573850946 8.6846951990962769 
	-8.4816332707240498 -61.854264752626769 9.9474401611150132 
	-8.4921138282805515 -62.099889941465321 10.754724790175111 
	-8.5011836023294318 -62.422781623571851 12.383322997666022 
	-8.5 -62.5 13.204644842436945 
	-8.5 -62.5 14.795355157563051 
	-8.5011836023294318 -62.422781623571851 15.616677002333974 
	-8.4921138282805515 -62.099889941465321 17.245275209824882 
	-8.481633270724048 -61.854264752626769 18.052559838884982 
	-8.4078150984790145 -61.210138754051883 19.592816819457749 
	-8.3437592642867298 -60.811000822874306 20.327102742420834 
	-8.1065907879416521 -59.901111216934851 21.673197784724714 
	-7.9326694609860882 -59.390395750766771 22.284888772712456 
	-7.4813779770424738 -58.438644110494039 23.240829593580369 
	-7.2105054646782163 -57.961629567999495 23.654377828055544 
	-6.5252032605977419 -57.021868756545601 24.357987798185881 
	-6.1092563980249821 -56.561070485408479 24.649171025795233 
	-4.9676980182909514 -55.538128689305196 25.229715546532276 
	-4.0696590365101928 -54.962476197940653 25.480187368817113 
	-2.0913164230046029 -54.193206796033841 25.782948037114622 
	-1.0120056287593 -54 25.842719282327007 
	1.0120056287593027 -54 25.842719282327007 
	2.0913164230046015 -54.193206796033834 25.782948037114622 
	4.069659036510191 -54.962476197940653 25.480187368817113 
	4.9676980182909523 -55.538128689305196 25.229715546532276 
	6.1092563980249803 -56.5610704854085 24.64917102579523 
	6.5252032605977472 -57.021868756545608 24.357987798185881 
	7.210505464678219 -57.961629567999495 23.654377828055551 
	7.4813779770424738 -58.438644110494039 23.240829593580369 
	7.9326694609860873 -59.390395750766764 22.284888772712456 
	8.1065907879416521 -59.901111216934851 21.673197784724714 
	8.3437592642867315 -60.811000822874306 20.327102742420834 
	8.4078150984790145 -61.210138754051869 19.592816819457745 
	8.481633270724048 -61.854264752626769 18.052559838884982 
	8.4921138282805515 -62.099889941465321 17.245275209824882 
	8.5011836023294318 -62.422781623571851 15.616677002333974 
	8.5 -62.5 14.795355157563051 
	8.5 -62.5 14 
	8.5 -62.5 13.204644842436945 
	8.5011836023294318 -62.422781623571851 12.383322997666022 
	8.4921138282805515 -62.099889941465321 10.754724790175111 
	8.4816332707240498 -61.854264752626769 9.9474401611150132 
	8.4211151063649403 -61.326192573863842 8.6846951991271268 
	8.3863681770977507 -61.088927566941706 8.2065859473941831 
	8.3333929874113739 -60.825317547305474 7.7500000000000036 
	0.0038254576845998629 
	cone 0 -62.5 -25.000000000000004 0 -1.1497455271199034e-016 1 8.5 0 0 1 I I 0 1 8.5 forward I I I I 
	cone 0 -50 14.000000000000002 1 0 0 0 -10.825317547305481 -6.2500000000000018 1 I I 0 1 12.5 forward I I I I 
	nullbs 
	nullbs 
	I I 
	0 
	0 
	0 
	} I I #
loop $-1 -1 $-1 $-1 $27 $83 #
ellipse-curve $-1 -1 $-1 0 -62.5 10.650635094610994 0 0.86602540378443882 0.49999999999999983 0 8.5000000000000018 -14.722431864335467 0.49999999999999967 I I #
loop $-1 -1 $-1 $84 $85 $52 #
face $-1 -1 $-1 $83 $29 $2 $-1 $86 reversed single #
point $-1 -1 $-1 -0.92059763197603273 -54.050000000000004 14 #
face $-1 -1 $-1 $87 $88 $2 $-1 $89 reversed single #
loop $-1 -1 $-1 $-1 $90 $32 #
plane-surface $-1 -1 $-1 12.5 -53.810511776651524 7.3999999999999755 -0 -0.86602540378443849 -0.50000000000000033 0 -5.0000000000000036 8.6602540378443855 forward_v I I I I #
coedge $-1 -1 $-1 $91 $92 $93 $94 reversed $33 $-1 #
coedge $-1 -1 $-1 $95 $35 $92 $96 forward $20 $-1 #
coedge $-1 -1 $-1 $35 $95 $36 $63 reversed $20 $-1 #
coedge $-1 -1 $-1 $38 $93 $35 $61 forward $67 $-1 #
edge $-1 -1 $-1 $97 -1.1860847295371828 $68 -0.42398237420687757 $60 $98 forward @7 unknown #
coedge $-1 -1 $-1 $37 $36 $99 $100 forward $13 $-1 #
edge $-1 -1 $-1 $68 0 $101 0.55000000000000004 $59 $102 forward @7 unknown #
coedge $-1 -1 $-1 $103 $104 $37 $65 forward $105 $-1 #
edge $-1 -1 $-1 $69 0 $106 0.55000000000000004 $64 $107 forward @7 unknown #
coedge $-1 -1 $-1 $108 $38 $104 $109 forward $67 $-1 #
loop $-1 -1 $-1 $110 $38 $111 #
vertex $-1 -1 $-1 $39 $112 #
vertex $-1 -1 $-1 $39 $113 #
straight-curve $-1 -1 $-1 12.5 -38.740486981978805 7.6979513843041758 0 5.0000000000000275 -8.6602540378443713 I I #
coedge $-1 -1 $-1 $43 $40 $114 $115 forward $8 $-1 #
coedge $-1 -1 $-1 $116 $117 $40 $73 forward $110 $-1 #
edge $-1 -1 $-1 $118 -3.1415926535897931 $75 -1.4901161122793388e-008 $40 $119 forward @7 unknown #
coedge $-1 -1 $-1 $41 $120 $116 $121 reversed $49 $-1 #
vertex $-1 -1 $-1 $42 $122 #
straight-curve $-1 -1 $-1 0 -60.825317547305474 7.7500000000000027 -10 0 0 I I #
coedge $-1 -1 $-1 $123 $124 $43 $78 forward $125 $-1 #
edge $-1 -1 $-1 $80 1.4901161122793388e-008 $126 3.1415926535897931 $43 $127 forward @7 unknown #
coedge $-1 -1 $-1 $120 $44 $124 $128 reversed $49 $-1 #
vertex $-1 -1 $-1 $45 $129 #
point $-1 -1 $-1 -8.3333929874113739 -60.825317547305474 7.7500000000000036 #
point $-1 -1 $-1 8.3333929874113739 -60.825317547305474 7.7500000000000036 #
face $-1 -1 $-1 $130 $49 $2 $-1 $131 forward single #
loop $-1 -1 $-1 $-1 $132 $52 #
coedge $-1 -1 $-1 $85 $85 $133 $134 forward $51 $-1 #
cone-surface $-1 -1 $-1 0 -50 14.000000000000002 1 0 0 0 -4.0500000000000007 0 1 I I 0 1 4.0500000000000007 forward I I I I #
face $-1 -1 $-1 $135 $105 $2 $-1 $136 reversed single #
loop $-1 -1 $-1 $-1 $137 $54 #
plane-surface $-1 -1 $-1 12.5 -46.189488223348448 7.3999999999999932 0 2.3308638622831049e-015 -1 0 -10 -2.3308638622831051e-014 forward_v I I I I #
coedge $-1 -1 $-1 $138 $139 $140 $141 reversed $55 $-1 #
coedge $-1 -1 $-1 $142 $57 $139 $143 forward $33 $-1 #
coedge $-1 -1 $-1 $57 $142 $58 $96 reversed $33 $-1 #
coedge $-1 -1 $-1 $60 $140 $57 $94 forward $67 $-1 #
edge $-1 -1 $-1 $144 0.11318992990416653 $97 0.87529228523447311 $93 $145 forward @7 unknown #
coedge $-1 -1 $-1 $59 $58 $146 $147 forward $20 $-1 #
edge $-1 -1 $-1 $97 0 $148 0.55000000000000004 $92 $149 forward @7 unknown #
vertex $-1 -1 $-1 $61 $150 #
straight-curve $-1 -1 $-1 12.5 -41.949664481279704 20.600000000000001 0 10 5.8271596557077753e-015 I I #
coedge $-1 -1 $-1 $146 $151 $62 $100 reversed $152 $-1 #
edge $-1 -1 $-1 $101 0 $106 0.76210235533030568 $62 $153 forward @7 unknown #
vertex $-1 -1 $-1 $63 $154 #
straight-curve $-1 -1 $-1 12.5 -46.189488223348476 20.599999999999994 -10 0 0 I I #
coedge $-1 -1 $-1 $155 $64 $151 $156 forward $105 $-1 #
coedge $-1 -1 $-1 $64 $155 $66 $109 reversed $105 $-1 #
loop $-1 -1 $-1 $-1 $104 $87 #
vertex $-1 -1 $-1 $65 $157 #
straight-curve $-1 -1 $-1 12.5 -42.378976446696932 14.000000000000012 -10 0 0 I I #
coedge $-1 -1 $-1 $140 $66 $137 $158 forward $67 $-1 #
edge $-1 -1 $-1 $69 -0.49424110756932282 $159 0.26786124776098452 $66 $160 forward @7 unknown #
loop $-1 -1 $-1 $-1 $161 $111 #
face $-1 -1 $-1 $-1 $67 $2 $-1 $162 forward single #
point $-1 -1 $-1 12.5 -46.189488223348476 20.599999999999994 #
point $-1 -1 $-1 12.5 -42.378976446696932 14.000000000000012 #
coedge $-1 -1 $-1 $163 $164 $71 $115 reversed $165 $-1 #
edge $-1 -1 $-1 $118 -1.25 $126 1.25 $71 $166 forward @7 tangent #
coedge $-1 -1 $-1 $167 $72 $74 $121 forward $110 $-1 #
coedge $-1 -1 $-1 $72 $168 $163 $169 forward $110 $-1 #
vertex $-1 -1 $-1 $115 $170 #
ellipse-curve $-1 -1 $-1 12.5 -50 14.000000000000002 1 0 0 -0 -10.825317547305481 -6.2500000000000018 1 I I #
coedge $-1 -1 $-1 $74 $79 $171 $172 reversed $49 $-1 #
edge $-1 -1 $-1 $75 -3.7816442631920495 $173 -0 $74 $174 forward @7 unknown #
point $-1 -1 $-1 12.5 -60.825317547305474 7.7500000000000027 #
coedge $-1 -1 $-1 $175 $77 $164 $176 forward $125 $-1 #
coedge $-1 -1 $-1 $77 $177 $79 $128 forward $125 $-1 #
loop $-1 -1 $-1 $178 $179 $180 #
vertex $-1 -1 $-1 $115 $181 #
ellipse-curve $-1 -1 $-1 -12.5 -50 14.000000000000002 -1 0 0 -0 -10.825317547305481 -6.2500000000000018 1 I I #
edge $-1 -1 $-1 $182 0 $80 3.7816442631920495 $79 $183 forward @7 unknown #
point $-1 -1 $-1 -12.5 -60.825317547305474 7.7500000000000027 #
face $-1 -1 $-1 $111 $165 $2 $-1 $184 forward single #
plane-surface $-1 -1 $-1 0 -60.825317547305474 7.750000000000008 0 -0.86602540378443882 -0.49999999999999983 0 4.9999999999999982 -8.6602540378443891 forward_v I I I I #
coedge $-1 -1 $-1 $132 $132 $185 $186 reversed $84 $-1 #
coedge $-1 -1 $-1 $133 $133 $85 $134 reversed $187 $-1 #
edge $-1 -1 $-1 $188 -3.1415926535897931 $188 3.1415926535897931 $85 $189 forward @7 unknown #
face $-1 -1 $-1 $190 $187 $2 $-1 $191 forward single #
plane-surface $-1 -1 $-1 12.5 -42.378976446696932 14.000000000000012 0 0.86602540378443982 -0.49999999999999811 0 -4.9999999999999813 -8.660254037844398 forward_v I I I I #
coedge $-1 -1 $-1 $192 $193 $108 $158 reversed $88 $-1 #
coedge $-1 -1 $-1 $194 $90 $193 $195 forward $55 $-1 #
coedge $-1 -1 $-1 $90 $194 $91 $143 reversed $55 $-1 #
coedge $-1 -1 $-1 $93 $108 $90 $141 forward $67 $-1 #
edge $-1 -1 $-1 $196 1.1087490706087724 $144 1.8708514259390796 $140 $197 forward @7 unknown #
coedge $-1 -1 $-1 $92 $91 $198 $199 forward $33 $-1 #
edge $-1 -1 $-1 $144 0 $200 0.55000000000000004 $139 $201 forward @7 unknown #
vertex $-1 -1 $-1 $94 $202 #
straight-curve $-1 -1 $-1 12.5 -58.186973202823893 13.019746452504105 0 4.9999999999999973 8.6602540378443891 I I #
coedge $-1 -1 $-1 $198 $99 $95 $147 reversed $152 $-1 #
edge $-1 -1 $-1 $148 0 $101 0.76210235533030524 $95 $203 forward @7 unknown #
vertex $-1 -1 $-1 $96 $204 #
straight-curve $-1 -1 $-1 12.5 -53.810511776651531 20.599999999999991 -10 0 0 I I #
point $-1 -1 $-1 12.5 -53.810511776651531 20.599999999999991 #
coedge $-1 -1 $-1 $99 $205 $103 $156 reversed $152 $-1 #
loop $-1 -1 $-1 $-1 $151 $135 #
straight-curve $-1 -1 $-1 7 -46.189488223348476 20.599999999999994 0 5.0000000000000275 -8.6602540378443713 I I #
point $-1 -1 $-1 7 -46.189488223348476 20.599999999999994 #
coedge $-1 -1 $-1 $104 $103 $192 $206 reversed $105 $-1 #
edge $-1 -1 $-1 $106 0 $207 0.76210235533030724 $103 $208 forward @7 unknown #
point $-1 -1 $-1 7 -42.378976446696932 14.000000000000012 #
edge $-1 -1 $-1 $159 0.80503355187202796 $196 1.567135907202335 $108 $209 forward @7 unknown #
vertex $-1 -1 $-1 $158 $210 #
straight-curve $-1 -1 $-1 12.5 -44.850181984543539 9.7197464525040989 0 -4.9999999999999813 -8.660254037844398 I I #
coedge $-1 -1 $-1 $168 $167 $211 $212 forward $110 $-1 #
plane-surface $-1 -1 $-1 12.5 -30.088817185907864 -4.5097362175889639 1 0 0 0 0 -10 forward_v I I I I #
coedge $-1 -1 $-1 $213 $114 $117 $169 reversed $165 $-1 #
coedge $-1 -1 $-1 $114 $213 $123 $176 reversed $165 $-1 #
loop $-1 -1 $-1 $-1 $114 $130 #
straight-curve $-1 -1 $-1 0 -39.174682452694519 20.250000000000004 -10 0 0 I I #
coedge $-1 -1 $-1 $161 $116 $214 $215 forward $110 $-1 #
coedge $-1 -1 $-1 $117 $161 $216 $217 forward $110 $-1 #
edge $-1 -1 $-1 $218 -2.3382685902179854 $118 -0 $163 $219 forward @7 unknown #
point $-1 -1 $-1 12.5 -39.174682452694519 20.250000000000004 #
coedge $-1 -1 $-1 $220 $214 $120 $172 forward $221 $-1 #
edge $-1 -1 $-1 $173 -1.25 $182 1.25 $171 $222 forward @7 unknown #
vertex $-1 -1 $-1 $172 $223 #
straight-curve $-1 -1 $-1 12.5 -41.917096231345241 -25.000000000000004 0 4.9999999999999982 -8.6602540378443891 I I #
coedge $-1 -1 $-1 $179 $123 $224 $225 forward $125 $-1 #
edge $-1 -1 $-1 $126 0 $226 2.3382685902179854 $164 $227 forward @7 unknown #
coedge $-1 -1 $-1 $124 $179 $220 $228 forward $125 $-1 #
loop $-1 -1 $-1 $-1 $185 $180 #
coedge $-1 -1 $-1 $177 $175 $229 $230 forward $125 $-1 #
face $-1 -1 $-1 $231 $125 $2 $-1 $232 reversed single #
point $-1 -1 $-1 -12.5 -39.174682452694519 20.250000000000004 #
vertex $-1 -1 $-1 $172 $233 #
straight-curve $-1 -1 $-1 -12.5 -41.917096231345241 -25.000000000000004 0 -4.9999999999999982 8.6602540378443891 I I #
plane-surface $-1 -1 $-1 0 -27.48333950160459 -4.4408920985006262e-015 0 0.8660254037844386 0.50000000000000011 0 -5.0000000000000009 8.6602540378443855 forward_v I I I I #
coedge $-1 -1 $-1 $185 $185 $132 $186 forward $178 $-1 #
edge $-1 -1 $-1 $234 -3.1415926535897931 $234 3.1415926535897931 $185 $235 forward @7 unknown #
loop $-1 -1 $-1 $152 $133 $135 #
vertex $-1 -1 $-1 $134 $236 #
ellipse-curve $-1 -1 $-1 6.9999999999999973 -50 14.000000000000002 1 0 0 0 -4.0500000000000007 0 1 I I #
face $-1 -1 $-1 $180 $237 $2 $-1 $238 forward single #
plane-surface $-1 -1 $-1 6.9999999999999973 -49.999999999999993 13.999999999999988 1 0 0 0 0 -10 forward_v I I I I #
coedge $-1 -1 $-1 $239 $137 $155 $206 forward $88 $-1 #
coedge $-1 -1 $-1 $137 $239 $138 $195 reversed $88 $-1 #
coedge $-1 -1 $-1 $139 $138 $240 $241 forward $55 $-1 #
edge $-1 -1 $-1 $196 0 $242 0.55000000000000004 $193 $243 forward @7 unknown #
vertex $-1 -1 $-1 $141 $244 #
straight-curve $-1 -1 $-1 12.5 -48.266766423607656 -2.2020486156958539 0 -5.0000000000000036 8.6602540378443855 I I #
coedge $-1 -1 $-1 $240 $146 $142 $199 reversed $152 $-1 #
edge $-1 -1 $-1 $200 0 $148 0.76210235533030657 $142 $245 forward @7 unknown #
vertex $-1 -1 $-1 $143 $246 #
straight-curve $-1 -1 $-1 12.5 -57.621023553303061 13.999999999999986 -10 0 0 I I #
point $-1 -1 $-1 12.5 -57.621023553303061 13.999999999999986 #
straight-curve $-1 -1 $-1 7 -53.810511776651531 20.599999999999991 0 10 5.8271596557077753e-015 I I #
point $-1 -1 $-1 7 -53.810511776651531 20.599999999999991 #
coedge $-1 -1 $-1 $151 $240 $239 $247 reversed $152 $-1 #
edge $-1 -1 $-1 $159 0 $207 0.55000000000000004 $155 $248 forward @7 unknown #
vertex $-1 -1 $-1 $206 $249 #
straight-curve $-1 -1 $-1 7 -42.378976446696932 14.000000000000012 0 -4.9999999999999813 -8.660254037844398 I I #
straight-curve $-1 -1 $-1 12.5 -38.139152704628174 7.4000000000000119 0 -10 -2.3308638622831051e-014 I I #
point $-1 -1 $-1 12.5 -46.189488223348448 7.3999999999999932 #
coedge $-1 -1 $-1 $250 $251 $161 $212 reversed $237 $-1 #
edge $-1 -1 $-1 $252 -2.5 $253 -1.9172501239173197e-018 $161 $254 forward @7 unknown #
coedge $-1 -1 $-1 $164 $163 $255 $256 forward $165 $-1 #
coedge $-1 -1 $-1 $171 $257 $167 $215 reversed $221 $-1 #
edge $-1 -1 $-1 $173 -4.1917096231345239 $252 -0.52299617589424141 $214 $258 forward @7 unknown #
coedge $-1 -1 $-1 $259 $255 $168 $217 reversed $260 $-1 #
edge $-1 -1 $-1 $253 -2.2253377742662175 $218 -0 $216 $261 forward @7 unknown #
vertex $-1 -1 $-1 $256 $262 #
straight-curve $-1 -1 $-1 12.5 -39.174682452694519 20.250000000000004 0 -5.0000000000000009 8.6602540378443855 I I #
coedge $-1 -1 $-1 $257 $171 $177 $228 reversed $221 $-1 #
loop $-1 -1 $-1 $-1 $214 $231 #
straight-curve $-1 -1 $-1 0 -41.917096231345241 -25.000000000000004 -10 0 0 I I #
point $-1 -1 $-1 12.5 -41.917096231345241 -25.000000000000004 #
coedge $-1 -1 $-1 $255 $259 $175 $225 reversed $260 $-1 #
edge $-1 -1 $-1 $226 0 $263 2.2253377742662175 $224 $264 forward @7 unknown #
vertex $-1 -1 $-1 $256 $265 #
straight-curve $-1 -1 $-1 -12.5 -39.174682452694519 20.250000000000004 0 5.0000000000000009 -8.6602540378443855 I I #
edge $-1 -1 $-1 $266 0.52299617589424141 $182 4.1917096231345239 $220 $267 forward @7 unknown #
coedge $-1 -1 $-1 $251 $250 $179 $230 reversed $237 $-1 #
edge $-1 -1 $-1 $263 1.9172501239173197e-018 $266 2.5 $179 $268 forward @7 unknown #
face $-1 -1 $-1 $269 $270 $2 $-1 $271 forward single #
plane-surface $-1 -1 $-1 -12.5 -30.088817185907864 -4.5097362175889639 1 0 0 0 0 -10 forward_v I I I I #
point $-1 -1 $-1 -12.5 -41.917096231345241 -25.000000000000004 #
vertex $-1 -1 $-1 $186 $272 #
ellipse-curve $-1 -1 $-1 -12.5 -50 14.000000000000002 1 0 0 0 -4.0500000000000007 0 1 I I #
point $-1 -1 $-1 6.9999999999999973 -45.949999999999996 14.000000000000002 #
loop $-1 -1 $-1 $-1 $229 $190 #
cone-surface $-1 -1 $-1 0 0 0 0 1.8576536561968811e-016 -1 -13.550000000000002 0 0 1 I I 0 1 13.550000000000002 forward I I I I #
coedge $-1 -1 $-1 $193 $192 $205 $247 forward $88 $-1 #
coedge $-1 -1 $-1 $205 $198 $194 $241 reversed $152 $-1 #
edge $-1 -1 $-1 $242 0 $200 0.76210235533030735 $194 $273 forward @7 unknown #
vertex $-1 -1 $-1 $195 $274 #
straight-curve $-1 -1 $-1 12.5 -53.810511776651524 7.3999999999999755 -10 0 0 I I #
point $-1 -1 $-1 12.5 -53.810511776651524 7.3999999999999755 #
straight-curve $-1 -1 $-1 7 -57.621023553303061 13.999999999999986 0 4.9999999999999973 8.6602540378443891 I I #
point $-1 -1 $-1 7 -57.621023553303061 13.999999999999986 #
edge $-1 -1 $-1 $207 0 $242 0.76210235533030701 $239 $275 forward @7 unknown #
straight-curve $-1 -1 $-1 12.5 -46.189488223348448 7.3999999999999932 -10 0 0 I I #
point $-1 -1 $-1 7 -46.189488223348448 7.3999999999999932 #
coedge $-1 -1 $-1 $229 $211 $257 $276 forward $237 $-1 #
coedge $-1 -1 $-1 $211 $229 $259 $277 forward $237 $-1 #
vertex $-1 -1 $-1 $215 $278 #
vertex $-1 -1 $-1 $217 $279 #
straight-curve $-1 -1 $-1 12.5 -5.229961758942415 -9.5237325708775129e-016 0 -1.8576536561968809e-015 10 I I #
coedge $-1 -1 $-1 $216 $224 $213 $256 reversed $260 $-1 #
edge $-1 -1 $-1 $218 -1.25 $226 1.25 $213 $280 forward @7 unknown #
coedge $-1 -1 $-1 $214 $220 $250 $276 reversed $221 $-1 #
straight-curve $-1 -1 $-1 12.5 3.0616169978683826e-015 -25 0 10 1.059446502207795e-015 I I #
coedge $-1 -1 $-1 $224 $216 $251 $277 reversed $260 $-1 #
loop $-1 -1 $-1 $281 $224 $282 #
straight-curve $-1 -1 $-1 12.5 -27.48333950160459 -5.105452610965593e-015 0 -10 -1.8576536561968809e-015 I I #
point $-1 -1 $-1 12.5 -27.48333950160459 -5.105452610965593e-015 #
vertex $-1 -1 $-1 $225 $283 #
straight-curve $-1 -1 $-1 -12.5 -27.48333950160459 -5.105452610965593e-015 0 10 1.8576536561968809e-015 I I #
point $-1 -1 $-1 -12.5 -27.48333950160459 -5.105452610965593e-015 #
vertex $-1 -1 $-1 $228 $284 #
straight-curve $-1 -1 $-1 -12.5 3.0616169978683826e-015 -25 0 -10 -1.059446502207795e-015 I I #
straight-curve $-1 -1 $-1 -12.5 -5.229961758942415 -9.5237325708775129e-016 0 1.8576536561968809e-015 -10 I I #
face $-1 -1 $-1 $285 $286 $2 $-1 $287 forward single #
loop $-1 -1 $-1 $221 $288 $231 #
plane-surface $-1 -1 $-1 0 -41.917096231345241 -25.000000000000004 0 1.059446502207795e-016 -1 0 10 1.059446502207795e-015 forward_v I I I I #
point $-1 -1 $-1 -12.5 -45.949999999999996 14.000000000000002 #
straight-curve $-1 -1 $-1 7 -53.810511776651524 7.3999999999999755 0 -5.0000000000000036 8.6602540378443855 I I #
point $-1 -1 $-1 7 -53.810511776651524 7.3999999999999755 #
straight-curve $-1 -1 $-1 7 -46.189488223348448 7.3999999999999932 0 -10 -2.3308638622831051e-014 I I #
edge $-1 -1 $-1 $252 -3.5378571834582568 $266 0.39626452986846389 $250 $289 forward @7 unknown #
edge $-1 -1 $-1 $263 -6.6794498370480504 $253 -2.7453281237213294 $251 $290 forward @7 unknown #
point $-1 -1 $-1 12.5 -5.2299617589424106 -25 #
point $-1 -1 $-1 12.5 -5.229961758942415 -9.7154575832692439e-016 #
straight-curve $-1 -1 $-1 0 -27.48333950160459 -5.105452610965593e-015 -10 0 0 I I #
loop $-1 -1 $-1 $-1 $291 $282 #
face $-1 -1 $-1 $52 $260 $2 $-1 $292 forward single #
point $-1 -1 $-1 -12.5 -5.229961758942415 -9.7154575832692439e-016 #
point $-1 -1 $-1 -12.5 -5.2299617589424106 -25 #
face $-1 -1 $-1 $293 $294 $2 $-1 $295 reversed single #
loop $-1 -1 $-1 $296 $297 $269 #
cone-surface $-1 -1 $-1 0 3.7018831172495027e-015 -20.250000000000004 0 -1.0594465022077947e-016 1 9.8000000000000007 0 0 1 I I 0.70710678118654802 -0.70710678118654702 9.8000000000000007 forward I I I I #
coedge $-1 -1 $-1 $288 $288 $298 $299 forward $270 $-1 #
ellipse-curve $-1 -1 $-1 0 4.6441341404922019e-015 -25 0 -1.059446502207795e-016 1 -13.550000000000002 0 0 1 I I #
ellipse-curve $-1 -1 $-1 0 0 0 0 1.8576536561968811e-016 -1 -13.550000000000002 -0 -0 1 I I #
coedge $-1 -1 $-1 $291 $291 $300 $301 forward $281 $-1 #
plane-surface $-1 -1 $-1 0 0 0 0 -1.8576536561968811e-016 1 0 -10 -1.8576536561968809e-015 forward_v I I I I #
face $-1 -1 $-1 $302 $303 $2 $-1 $304 reversed single #
loop $-1 -1 $-1 $305 $306 $285 #
cone-surface $-1 -1 $-1 0 0 0 0 1.8576536561968811e-016 -1 -9.0500000000000007 0 0 1 I I 0 1 9.0500000000000007 forward I I I I #
loop $-1 -1 $-1 $-1 $307 $269 #
coedge $-1 -1 $-1 $297 $297 $308 $309 reversed $286 $-1 #
coedge $-1 -1 $-1 $298 $298 $288 $299 reversed $310 $-1 #
edge $-1 -1 $-1 $311 -6.2831853071795862 $311 3.1773760828357761e-016 $288 $312 forward @7 unknown #
coedge $-1 -1 $-1 $300 $300 $291 $301 reversed $313 $-1 #
edge $-1 -1 $-1 $314 -3.1415926535897931 $314 3.1415926535897931 $291 $315 forward @7 unknown #
face $-1 -1 $-1 $316 $317 $2 $-1 $318 reversed single #
loop $-1 -1 $-1 $310 $308 $293 #
cone-surface $-1 -1 $-1 0 0 -25 0 -1.0594465022077951e-016 1 10.550000000000001 0 0 1 I I 0 1 10.550000000000001 forward I I I I #
loop $-1 -1 $-1 $-1 $319 $285 #
coedge $-1 -1 $-1 $306 $306 $320 $321 forward $294 $-1 #
coedge $-1 -1 $-1 $307 $307 $319 $322 forward $296 $-1 #
coedge $-1 -1 $-1 $308 $308 $297 $309 forward $303 $-1 #
edge $-1 -1 $-1 $323 -3.1415926535897931 $323 3.1415926535897931 $308 $324 forward @7 unknown #
loop $-1 -1 $-1 $-1 $298 $293 #
vertex $-1 -1 $-1 $299 $325 #
ellipse-curve $-1 -1 $-1 0 0 -25 0 -1.059446502207795e-016 1 10.550000000000001 0 0 1 I I #
loop $-1 -1 $-1 $-1 $300 $302 #
vertex $-1 -1 $-1 $301 $326 #
ellipse-curve $-1 -1 $-1 0 0 0 0 1.8576536561968811e-016 -1 -10.550000000000001 0 0 1 I I #
face $-1 -1 $-1 $282 $327 $2 $-1 $328 reversed single #
loop $-1 -1 $-1 $313 $329 $302 #
cone-surface $-1 -1 $-1 0 0 0 0 1.8576536561968811e-016 -1 -10.550000000000001 0 0 1 I I 0 1 10.550000000000001 forward I I I I #
coedge $-1 -1 $-1 $319 $319 $307 $322 reversed $305 $-1 #
coedge $-1 -1 $-1 $320 $320 $306 $321 reversed $327 $-1 #
edge $-1 -1 $-1 $330 -3.1415926535897931 $330 3.1415926535897931 $306 $331 forward @7 unknown #
edge $-1 -1 $-1 $332 -3.1415926535897931 $332 3.1415926535897931 $319 $333 forward @7 unknown #
vertex $-1 -1 $-1 $309 $334 #
ellipse-curve $-1 -1 $-1 0 -4.2377860088311796e-016 -21 0 -1.059446502207795e-016 1 10.550000000000001 0 0 1 I I #
point $-1 -1 $-1 10.550000000000001 3.3521317673917442e-015 -25 #
point $-1 -1 $-1 10.550000000000001 1.2920023731004579e-015 2.4000929322051126e-031 #
loop $-1 -1 $-1 $335 $320 $316 #
plane-surface $-1 -1 $-1 -8.0922959720554782e-016 7.4306146247875245e-016 -4 0 1.8576536561968809e-016 -1 -10 0 0 forward_v I I I I #
coedge $-1 -1 $-1 $329 $329 $336 $337 forward $317 $-1 #
vertex $-1 -1 $-1 $321 $338 #
ellipse-curve $-1 -1 $-1 0 7.4306146247875245e-016 -4 0 -1.8576536561968809e-016 1 -9.0500000000000007 0 0 1 I I #
vertex $-1 -1 $-1 $322 $339 #
ellipse-curve $-1 -1 $-1 0 3.6224246295839186e-015 -19.5 0 -1.0594465022077951e-016 1 9.0500000000000007 0 0 1 I I #
point $-1 -1 $-1 -10.550000000000001 8.6822377221733994e-016 -21 #
loop $-1 -1 $-1 $-1 $336 $316 #
coedge $-1 -1 $-1 $336 $336 $329 $337 reversed $335 $-1 #
edge $-1 -1 $-1 $340 -3.1415926535897931 $340 3.1415926535897931 $329 $341 forward @7 unknown #
point $-1 -1 $-1 9.0500000000000007 1.851366815707107e-015 -4 #
point $-1 -1 $-1 -9.0500000000000007 2.5141192763555636e-015 -19.5 #
vertex $-1 -1 $-1 $337 $342 #
ellipse-curve $-1 -1 $-1 0 7.4306146247875245e-016 -4 0 1.8576536561968811e-016 -1 -10.550000000000001 -0 -0 1 I I #
point $-1 -1 $-1 10.550000000000001 2.0350638355792105e-015 -4 #
End-of-ACIS-data 