700 0 1 0           
33 Autodesk Inventor 17.0.13800.0000 19 ASM 218.0.0.5119 NT 24 Tue Dec 10 11:01:51 2013 
1 9.9999999999999995e-007 1e-010 
body $-1 -1 $-1 $1 $-1 $-1 #
lump $-1 -1 $-1 $-1 $2 $0 #
shell $-1 -1 $-1 $-1 $-1 $3 $-1 $1 #
face $-1 -1 $-1 $4 $5 $2 $-1 $6 forward single #
face $-1 -1 $-1 $7 $8 $2 $-1 $9 forward single #
loop $-1 -1 $-1 $-1 $10 $3 #
cone-surface $-1 -1 $-1 2.2204460492503131e-015 -12.5 12.5 0 1 0 0 0 -12.5 1 I I 0 -1 12.5 forward I I I I #
face $-1 -1 $-1 $11 $12 $2 $-1 $13 reversed single #
loop $-1 -1 $-1 $-1 $14 $4 #
plane-surface $-1 -1 $-1 -12.499999999999998 -12.5 0 -1 0 0 0 0 10 forward_v I I I I #
coedge $-1 -1 $-1 $15 $15 $16 $17 forward $5 $-1 #
face $-1 -1 $-1 $18 $19 $2 $-1 $20 reversed single #
loop $-1 -1 $-1 $-1 $21 $7 #
plane-surface $-1 -1 $-1 3.810511776651528 12.5 5.899999999999995 0.8660254037844386 0 -0.50000000000000033 5.0000000000000036 0 8.6602540378443855 forward_v I I I I #
coedge $-1 -1 $-1 $22 $23 $24 $25 forward $8 $-1 #
coedge $-1 -1 $-1 $10 $10 $26 $27 reversed $5 $-1 #
coedge $-1 -1 $-1 $28 $28 $10 $17 reversed $29 $-1 #
edge $-1 -1 $-1 $30 0 $31 3.875753556676556 $16 $32 forward @7 unknown #
face $-1 -1 $-1 $33 $34 $2 $-1 $35 reversed single #
loop $-1 -1 $-1 $-1 $36 $11 #
plane-surface $-1 -1 $-1 -3.8105117766515311 12.5 5.8999999999999986 -4.3703697417808277e-016 -0 -1 10 0 -4.3703697417808276e-015 forward_v I I I I #
coedge $-1 -1 $-1 $37 $38 $39 $40 reversed $12 $-1 #
coedge $-1 -1 $-1 $41 $14 $42 $43 reversed $8 $-1 #
coedge $-1 -1 $-1 $14 $26 $44 $45 forward $8 $-1 #
coedge $-1 -1 $-1 $46 $47 $14 $25 reversed $48 $-1 #
edge $-1 -1 $-1 $49 -0.93750000000000022 $50 0.31250000000000006 $14 $51 forward @7 unknown #
coedge $-1 -1 $-1 $23 $52 $15 $27 forward $8 $-1 #
edge $-1 -1 $-1 $30 0.39999999999999991 $31 2.1000000000000001 $15 $53 forward @5 knife #
coedge $-1 -1 $-1 $16 $16 $54 $55 reversed $29 $-1 #
loop $-1 -1 $-1 $-1 $16 $56 #
vertex $-1 -1 $-1 $17 $57 #
vertex $-1 -1 $-1 $55 $58 #
intcurve-curve $-1 -1 $-1 forward { surfintcur full nubs 3 open 17 
	0 3 0.23860654726891597 2 0.47721309453783195 2 0.71581964180674795 2 0.9544261890756639 2 
	1.1425497950791805 2 1.330673401082697 2 1.6342750897104872 2 1.9378767783382775 2 2.2414784669660679 2 
	2.5450801555938583 2 2.733203761597375 2 2.9213273676008917 2 3.159933914869808 2 3.3985404621387238 2 
	3.6371470094076397 2 3.875753556676556 3 
	-12.499999999999998 -8.5 12.5 
	-12.499999999999998 -8.5 11.704644842436947 
	-12.42278162357186 -8.5011836023294354 10.883322997666024 
	-12.099889941465324 -8.4921138282805551 9.2547247901751124 
	-11.854264752626772 -8.4816332707240516 8.4474401611150114 
	-11.21013875405187 -8.4078150984790163 6.9071831805422459 
	-10.811000822874306 -8.3437592642867315 6.172897257579157 
	-9.9011112169348561 -8.1065907879416557 4.8268022152752827 
	-9.3903957507667624 -7.9326694609860882 4.2151112272875446 
	-8.4386441104940317 -7.4813779770424738 3.2591704064196279 
	-7.961629567999486 -7.2105054646782216 2.8456221719444463 
	-7.0218687565455964 -6.5252032605977517 2.1420122018141177 
	-6.5610704854084929 -6.1092563980249821 1.8508289742047668 
	-5.5381286893051884 -4.967698018290954 1.2702844534677245 
	-4.9624761979406369 -4.069659036510199 1.0198126311828852 
	-4.1932067960338202 -2.0913164230046082 0.71705196288537132 
	-3.9999999999999969 -1.0120056287593013 0.65728071767298779 
	-3.9999999999999969 1.0120056287593009 0.65728071767298779 
	-4.1932067960338202 2.0913164230046064 0.71705196288537165 
	-4.9624761979406369 4.0696590365101972 1.0198126311828852 
	-5.5381286893051884 4.9676980182909531 1.2702844534677238 
	-6.5610704854084929 6.1092563980249839 1.850828974204767 
	-7.0218687565455955 6.5252032605977517 2.1420122018141177 
	-7.9616295679994842 7.2105054646782225 2.8456221719444477 
	-8.4386441104940317 7.4813779770424755 3.2591704064196279 
	-9.3903957507667624 7.9326694609860908 4.2151112272875455 
	-9.9011112169348596 8.1065907879416574 4.8268022152752863 
	-10.811000822874309 8.3437592642867333 6.1728972575791632 
	-11.21013875405187 8.4078150984790199 6.9071831805422468 
	-11.854264752626769 8.4816332707240516 8.4474401611150096 
	-12.099889941465324 8.4921138282805533 9.2547247901751089 
	-12.42278162357186 8.5011836023294336 10.883322997666021 
	-12.499999999999998 8.5 11.704644842436945 
	-12.499999999999998 8.5 12.5 
	0.0038254576845920224 
	cone -12.499999999999998 0 0 0 0 1 8.5 0 0 1 I I 0 1 8.5 forward I I I I 
	cone 2.2204460492503131e-015 -12.5 12.5 0 1 0 -12.5 0 0 1 I I 0 1 12.5 forward I I I I 
	nullbs 
	nullbs 
	I I 
	0 
	0 
	0 
	} I I #
face $-1 -1 $-1 $59 $60 $2 $-1 $61 reversed single #
loop $-1 -1 $-1 $-1 $62 $18 #
plane-surface $-1 -1 $-1 -7.6210235533030577 12.5 12.499999999999998 -0.86602540378443882 -0 -0.49999999999999961 4.9999999999999964 0 -8.6602540378443891 forward_v I I I I #
coedge $-1 -1 $-1 $63 $64 $65 $66 reversed $19 $-1 #
coedge $-1 -1 $-1 $67 $21 $64 $68 forward $12 $-1 #
coedge $-1 -1 $-1 $21 $67 $69 $70 reversed $12 $-1 #
coedge $-1 -1 $-1 $71 $65 $21 $40 forward $72 $-1 #
edge $-1 -1 $-1 $73 -0.89925971146730332 $74 -0.13715735613699664 $39 $75 forward @7 unknown #
coedge $-1 -1 $-1 $52 $22 $76 $77 reversed $8 $-1 #
coedge $-1 -1 $-1 $78 $79 $22 $43 forward $80 $-1 #
edge $-1 -1 $-1 $81 0 $50 2.5 $42 $82 forward @7 unknown #
coedge $-1 -1 $-1 $54 $83 $23 $45 reversed $84 $-1 #
edge $-1 -1 $-1 $31 2.1000000000000001 $49 2.5 $44 $85 forward @7 tangent #
coedge $-1 -1 $-1 $86 $24 $83 $87 reversed $48 $-1 #
coedge $-1 -1 $-1 $24 $88 $78 $89 reversed $48 $-1 #
loop $-1 -1 $-1 $-1 $88 $90 #
vertex $-1 -1 $-1 $87 $91 #
vertex $-1 -1 $-1 $25 $92 #
straight-curve $-1 -1 $-1 -12.499999999999998 12.5 3.1250000000000004 0 0 -10 I I #
coedge $-1 -1 $-1 $26 $41 $93 $94 forward $8 $-1 #
straight-curve $-1 -1 $-1 -12.499999999999998 -12.5 12.500000000000002 0 10 0 I I #
coedge $-1 -1 $-1 $93 $44 $28 $55 forward $84 $-1 #
edge $-1 -1 $-1 $31 3.875753556676556 $30 7.7515071133531128 $54 $95 forward @7 unknown #
face $-1 -1 $-1 $96 $97 $2 $-1 $98 reversed single #
point $-1 -1 $-1 -12.499999999999996 -8.5 12.499999999999998 #
point $-1 -1 $-1 -12.499999999999998 8.5 12.500000000000002 #
face $-1 -1 $-1 $99 $100 $2 $-1 $101 reversed single #
loop $-1 -1 $-1 $-1 $102 $33 #
plane-surface $-1 -1 $-1 -3.8105117766515271 12.5 19.099999999999998 -0.8660254037844386 0 0.50000000000000022 -5.0000000000000018 0 -8.6602540378443855 forward_v I I I I #
coedge $-1 -1 $-1 $103 $104 $105 $106 reversed $34 $-1 #
coedge $-1 -1 $-1 $107 $36 $104 $108 forward $19 $-1 #
coedge $-1 -1 $-1 $36 $107 $37 $68 reversed $19 $-1 #
coedge $-1 -1 $-1 $39 $105 $36 $66 forward $72 $-1 #
edge $-1 -1 $-1 $109 -2.6905255888325765 $73 -1.9284232335022706 $65 $110 forward @7 unknown #
coedge $-1 -1 $-1 $38 $37 $111 $112 forward $12 $-1 #
edge $-1 -1 $-1 $73 0 $113 0.55000000000000004 $64 $114 forward @7 unknown #
coedge $-1 -1 $-1 $115 $116 $38 $70 forward $117 $-1 #
edge $-1 -1 $-1 $74 0 $118 0.55000000000000004 $69 $119 forward @7 unknown #
coedge $-1 -1 $-1 $120 $39 $116 $121 forward $72 $-1 #
loop $-1 -1 $-1 $48 $39 $90 #
vertex $-1 -1 $-1 $40 $122 #
vertex $-1 -1 $-1 $40 $123 #
straight-curve $-1 -1 $-1 8.3068103339880466 12.5 13.687817547305485 5.0000000000000036 0 8.6602540378443855 I I #
coedge $-1 -1 $-1 $124 $125 $41 $77 forward $126 $-1 #
edge $-1 -1 $-1 $127 -0 $81 1.2500000000000002 $41 $128 forward @7 unknown #
coedge $-1 -1 $-1 $129 $42 $47 $89 forward $80 $-1 #
coedge $-1 -1 $-1 $42 $129 $124 $130 forward $80 $-1 #
loop $-1 -1 $-1 $-1 $129 $131 #
vertex $-1 -1 $-1 $77 $132 #
straight-curve $-1 -1 $-1 -12.499999999999998 -12.5 0 0 10 0 I I #
coedge $-1 -1 $-1 $44 $133 $46 $87 forward $84 $-1 #
loop $-1 -1 $-1 $-1 $93 $134 #
straight-curve $-1 -1 $-1 -12.499999999999998 -12.5 12.5 0 10 0 I I #
coedge $-1 -1 $-1 $88 $46 $135 $136 reversed $48 $-1 #
edge $-1 -1 $-1 $137 -1.5707963267948966 $49 -1.7763568394002506e-016 $83 $138 forward @7 unknown #
coedge $-1 -1 $-1 $47 $86 $139 $140 forward $48 $-1 #
edge $-1 -1 $-1 $50 -1.25 $141 4.4770038241057586 $47 $142 forward @7 unknown #
face $-1 -1 $-1 $131 $72 $2 $-1 $143 forward single #
point $-1 -1 $-1 -12.499999999999998 12.5 12.500000000000002 #
point $-1 -1 $-1 -12.499999999999998 12.5 0 #
coedge $-1 -1 $-1 $144 $54 $52 $94 reversed $84 $-1 #
edge $-1 -1 $-1 $127 0 $30 0.39999999999999991 $93 $85 forward @7 tangent #
intcurve-curve $-1 -1 $-1 forward { surfintcur full nubs 3 open 17 
	3.875753556676556 3 4.1143601039454722 2 4.3529666512143876 2 4.5915731984833039 2 4.8301797457522202 2 
	5.0183033517557369 2 5.2064269577592537 2 5.5100286463870436 2 5.8136303350148344 2 6.1172320236426252 2 
	6.4208337122704151 2 6.6089573182739318 2 6.7970809242774486 2 7.0356874715463649 2 7.2742940188152811 2 
	7.5129005660841965 2 7.7515071133531128 3 
	-12.499999999999998 8.5 12.5 
	-12.499999999999998 8.5 13.295355157563055 
	-12.422781623571861 8.5011836023294336 14.116677002333978 
	-12.099889941465324 8.4921138282805533 15.745275209824889 
	-11.854264752626772 8.4816332707240516 16.552559838884989 
	-11.210138754051876 8.4078150984790199 18.092816819457752 
	-10.811000822874306 8.3437592642867351 18.827102742420841 
	-9.9011112169348561 8.1065907879416592 20.173197784724721 
	-9.3903957507667624 7.9326694609860908 20.78488877271246 
	-8.4386441104940317 7.4813779770424755 21.740829593580372 
	-7.961629567999486 7.2105054646782225 22.154377828055551 
	-7.0218687565455964 6.5252032605977517 22.857987798185881 
	-6.561070485408492 6.1092563980249821 23.14917102579523 
	-5.5381286893051884 4.9676980182909549 23.729715546532269 
	-4.9624761979406387 4.0696590365102017 23.980187368817113 
	-4.1932067960338202 2.0913164230046108 24.282948037114625 
	-3.9999999999999969 1.0120056287593027 24.34271928232701 
	-3.9999999999999969 -1.0120056287593029 24.34271928232701 
	-4.1932067960338202 -2.0913164230046117 24.282948037114625 
	-4.9624761979406387 -4.0696590365102017 23.980187368817113 
	-5.5381286893051893 -4.9676980182909549 23.729715546532276 
	-6.561070485408492 -6.1092563980249821 23.14917102579523 
	-7.0218687565455955 -6.525203260597749 22.857987798185881 
	-7.9616295679994842 -7.2105054646782207 22.154377828055551 
	-8.4386441104940317 -7.4813779770424738 21.740829593580372 
	-9.3903957507667624 -7.9326694609860882 20.78488877271246 
	-9.9011112169348561 -8.1065907879416574 20.173197784724721 
	-10.811000822874306 -8.3437592642867351 18.827102742420841 
	-11.210138754051876 -8.4078150984790199 18.092816819457752 
	-11.854264752626772 -8.4816332707240516 16.552559838884989 
	-12.099889941465324 -8.4921138282805551 15.745275209824891 
	-12.42278162357186 -8.5011836023294336 14.116677002333981 
	-12.499999999999996 -8.5 13.295355157563053 
	-12.499999999999998 -8.5 12.5 
	0.0038254576845920224 
	cone -12.499999999999998 0 0 0 0 1 8.5 0 0 1 I I 0 1 8.5 forward I I I I 
	cone 2.2204460492503131e-015 -12.5 12.5 0 1 0 -12.5 0 0 1 I I 0 1 12.5 forward I I I I 
	nullbs 
	nullbs 
	I I 
	0 
	0 
	0 
	} I I #
face $-1 -1 $-1 $90 $145 $2 $-1 $146 forward single #
loop $-1 -1 $-1 $29 $147 $56 #
cone-surface $-1 -1 $-1 -12.499999999999998 0 0 0 0 1 8.5 0 0 1 I I 0 1 8.5 forward I I I I #
face $-1 -1 $-1 $148 $117 $2 $-1 $149 reversed single #
loop $-1 -1 $-1 $-1 $150 $59 #
plane-surface $-1 -1 $-1 3.8105117766515297 12.5 19.099999999999998 0 0 1 -10 0 0 forward_v I I I I #
coedge $-1 -1 $-1 $151 $152 $153 $154 reversed $60 $-1 #
coedge $-1 -1 $-1 $155 $62 $152 $156 forward $34 $-1 #
coedge $-1 -1 $-1 $62 $155 $63 $108 reversed $34 $-1 #
coedge $-1 -1 $-1 $65 $153 $62 $106 forward $72 $-1 #
edge $-1 -1 $-1 $157 -1.9817914661978493 $109 -1.2196891108675438 $105 $158 forward @7 unknown #
coedge $-1 -1 $-1 $64 $63 $159 $160 forward $19 $-1 #
edge $-1 -1 $-1 $109 0 $161 0.55000000000000004 $104 $162 forward @7 unknown #
vertex $-1 -1 $-1 $66 $163 #
straight-curve $-1 -1 $-1 23.094744111674235 12.5 5.8999999999999879 10 0 -4.3703697417808276e-015 I I #
coedge $-1 -1 $-1 $159 $164 $67 $112 reversed $165 $-1 #
edge $-1 -1 $-1 $113 0 $118 0.76210235533030679 $67 $166 forward @7 unknown #
vertex $-1 -1 $-1 $68 $167 #
straight-curve $-1 -1 $-1 3.810511776651528 12.5 5.899999999999995 0 -10 0 I I #
coedge $-1 -1 $-1 $168 $69 $164 $169 forward $117 $-1 #
coedge $-1 -1 $-1 $69 $168 $71 $121 reversed $117 $-1 #
loop $-1 -1 $-1 $-1 $116 $99 #
vertex $-1 -1 $-1 $70 $170 #
straight-curve $-1 -1 $-1 7.6210235533030621 12.5 12.5 0 -10 0 I I #
coedge $-1 -1 $-1 $153 $71 $150 $171 forward $72 $-1 #
edge $-1 -1 $-1 $74 1.6007402885326982 $172 2.3628426438630044 $71 $173 forward @7 unknown #
point $-1 -1 $-1 3.810511776651528 12.5 5.899999999999995 #
point $-1 -1 $-1 7.6210235533030621 12.5 12.5 #
coedge $-1 -1 $-1 $174 $76 $79 $130 reversed $126 $-1 #
coedge $-1 -1 $-1 $76 $175 $144 $176 reversed $126 $-1 #
loop $-1 -1 $-1 $177 $174 $178 #
vertex $-1 -1 $-1 $176 $179 #
straight-curve $-1 -1 $-1 -12.499999999999998 -12.5 12.500000000000002 -0 -0 -10 F -0 F 1.2500000000000002 #
coedge $-1 -1 $-1 $79 $78 $180 $181 forward $80 $-1 #
edge $-1 -1 $-1 $182 0.52299617589424141 $81 6.25 $124 $183 forward @7 unknown #
face $-1 -1 $-1 $184 $185 $2 $-1 $186 reversed single #
point $-1 -1 $-1 -12.499999999999998 -12.5 0 #
coedge $-1 -1 $-1 $83 $144 $187 $188 reversed $84 $-1 #
face $-1 -1 $-1 $178 $84 $2 $-1 $189 forward single #
coedge $-1 -1 $-1 $187 $190 $86 $136 forward $191 $-1 #
edge $-1 -1 $-1 $192 -4.4770038241057586 $137 -0 $86 $193 forward @7 unknown #
vertex $-1 -1 $-1 $136 $194 #
ellipse-curve $-1 -1 $-1 2.2204460492503131e-015 12.5 12.5 -0 -1 -0 -12.5 0 0 1 I I #
coedge $-1 -1 $-1 $195 $180 $88 $140 reversed $145 $-1 #
edge $-1 -1 $-1 $192 0 $141 2.5 $88 $196 forward @7 unknown #
vertex $-1 -1 $-1 $181 $197 #
straight-curve $-1 -1 $-1 2.2204460492503131e-015 12.5 0 10 0 0 F -1.25 F 4.4770038241057586 #
plane-surface $-1 -1 $-1 50 12.5 0 0 1 0 -10 -0 -0 forward_v I I I I #
coedge $-1 -1 $-1 $133 $93 $125 $176 forward $84 $-1 #
loop $-1 -1 $-1 $-1 $139 $96 #
cone-surface $-1 -1 $-1 50 7.589415207398531e-016 25 0 0 -1 -13.550000000000002 0 0 1 I I 0 1 13.550000000000002 forward I I I I #
coedge $-1 -1 $-1 $147 $147 $198 $199 reversed $97 $-1 #
face $-1 -1 $-1 $56 $200 $2 $-1 $201 forward single #
plane-surface $-1 -1 $-1 7.6210235533030621 12.5 12.5 0.86602540378443849 0 0.50000000000000044 -5.0000000000000044 0 8.6602540378443855 forward_v I I I I #
coedge $-1 -1 $-1 $202 $203 $120 $171 reversed $100 $-1 #
coedge $-1 -1 $-1 $204 $102 $203 $205 forward $60 $-1 #
coedge $-1 -1 $-1 $102 $204 $103 $156 reversed $60 $-1 #
coedge $-1 -1 $-1 $105 $120 $102 $154 forward $72 $-1 #
edge $-1 -1 $-1 $206 0.51820853380214993 $157 1.2803108891324559 $153 $207 forward @7 unknown #
coedge $-1 -1 $-1 $104 $103 $208 $209 forward $34 $-1 #
edge $-1 -1 $-1 $157 0 $210 0.55000000000000004 $152 $211 forward @7 unknown #
vertex $-1 -1 $-1 $106 $212 #
straight-curve $-1 -1 $-1 2.2879337776861797 12.5 -4.6628175473054814 4.9999999999999964 0 -8.6602540378443891 I I #
coedge $-1 -1 $-1 $208 $111 $107 $160 reversed $165 $-1 #
edge $-1 -1 $-1 $161 0 $113 0.7621023553303059 $107 $213 forward @7 unknown #
vertex $-1 -1 $-1 $108 $214 #
straight-curve $-1 -1 $-1 -3.8105117766515311 12.5 5.8999999999999986 0 -10 0 I I #
point $-1 -1 $-1 -3.8105117766515311 12.5 5.8999999999999986 #
coedge $-1 -1 $-1 $111 $215 $115 $169 reversed $165 $-1 #
loop $-1 -1 $-1 $-1 $164 $148 #
straight-curve $-1 -1 $-1 3.810511776651528 7 5.899999999999995 5.0000000000000036 0 8.6602540378443855 I I #
point $-1 -1 $-1 3.810511776651528 7 5.899999999999995 #
coedge $-1 -1 $-1 $116 $115 $202 $216 reversed $117 $-1 #
edge $-1 -1 $-1 $118 0 $217 0.7621023553303059 $115 $218 forward @7 unknown #
point $-1 -1 $-1 7.6210235533030621 7 12.5 #
edge $-1 -1 $-1 $172 2.3094744111674235 $206 3.0715767664977291 $120 $219 forward @7 unknown #
vertex $-1 -1 $-1 $171 $220 #
straight-curve $-1 -1 $-1 15.624724995966556 12.5 -1.3628175473054871 -5.0000000000000044 0 8.6602540378443855 I I #
coedge $-1 -1 $-1 $175 $124 $221 $222 forward $126 $-1 #
coedge $-1 -1 $-1 $125 $174 $223 $224 reversed $126 $-1 #
edge $-1 -1 $-1 $127 1.7763568394002506e-016 $225 1.5707963267948966 $144 $226 forward @7 unknown #
loop $-1 -1 $-1 $-1 $227 $178 #
face $-1 -1 $-1 $228 $126 $2 $-1 $229 forward single #
point $-1 -1 $-1 -12.499999999999998 -12.5 12.500000000000002 #
coedge $-1 -1 $-1 $139 $221 $129 $181 reversed $145 $-1 #
edge $-1 -1 $-1 $141 -5.1086535102531538 $182 -1.1745317969264328 $129 $230 forward @7 unknown #
vertex $-1 -1 $-1 $130 $231 #
straight-curve $-1 -1 $-1 50 -12.5 0 -10 0 0 F 0.52299617589424141 F 6.25 #
face $-1 -1 $-1 $232 $233 $2 $-1 $234 forward single #
loop $-1 -1 $-1 $80 $235 $131 #
plane-surface $-1 -1 $-1 27.238150088834718 -3.2346552102453559e-016 0 0 0 1 10 0 0 forward_v I I I I #
coedge $-1 -1 $-1 $223 $135 $133 $188 forward $191 $-1 #
edge $-1 -1 $-1 $137 -1.25 $225 1.25 $187 $236 forward @7 tangent #
cone-surface $-1 -1 $-1 2.2204460492503131e-015 -12.5 12.5 0 1 0 -12.5 0 0 1 I I 0 1 12.5 forward I I I I #
coedge $-1 -1 $-1 $135 $223 $195 $237 reversed $191 $-1 #
loop $-1 -1 $-1 $-1 $135 $228 #
vertex $-1 -1 $-1 $136 $238 #
straight-curve $-1 -1 $-1 2.2204460492503131e-015 12.5 25 -10 -0 -0 I I #
point $-1 -1 $-1 2.2204460492503131e-015 12.5 25 #
coedge $-1 -1 $-1 $221 $139 $190 $237 forward $145 $-1 #
straight-curve $-1 -1 $-1 44.770038241057584 12.5 25 0 0 -10 I I #
point $-1 -1 $-1 44.770038241057584 12.5 0 #
coedge $-1 -1 $-1 $198 $198 $147 $199 forward $239 $-1 #
edge $-1 -1 $-1 $240 0 $240 0.46894992856382428 $198 $241 forward @7 unknown #
loop $-1 -1 $-1 $165 $242 $148 #
plane-surface $-1 -1 $-1 1.4567899139269423e-015 7 12.499999999999998 0 1 0 0 0 10 forward_v I I I I #
coedge $-1 -1 $-1 $243 $150 $168 $216 forward $100 $-1 #
coedge $-1 -1 $-1 $150 $243 $151 $205 reversed $100 $-1 #
coedge $-1 -1 $-1 $152 $151 $244 $245 forward $60 $-1 #
edge $-1 -1 $-1 $206 0 $246 0.55000000000000004 $203 $247 forward @7 unknown #
vertex $-1 -1 $-1 $154 $248 #
straight-curve $-1 -1 $-1 -1.2194691076407826 12.5 23.587817547305487 -5.0000000000000018 0 -8.6602540378443855 I I #
coedge $-1 -1 $-1 $244 $159 $155 $209 reversed $165 $-1 #
edge $-1 -1 $-1 $210 0 $161 0.76210235533030579 $155 $249 forward @7 unknown #
vertex $-1 -1 $-1 $156 $250 #
straight-curve $-1 -1 $-1 -7.6210235533030577 12.5 12.499999999999998 0 -10 0 I I #
point $-1 -1 $-1 -7.6210235533030577 12.5 12.499999999999998 #
straight-curve $-1 -1 $-1 -3.8105117766515311 7 5.8999999999999986 10 0 -4.3703697417808276e-015 I I #
point $-1 -1 $-1 -3.8105117766515315 7 5.8999999999999986 #
coedge $-1 -1 $-1 $164 $244 $243 $251 reversed $165 $-1 #
edge $-1 -1 $-1 $172 0 $217 0.55000000000000004 $168 $252 forward @7 unknown #
vertex $-1 -1 $-1 $216 $253 #
straight-curve $-1 -1 $-1 7.6210235533030621 7 12.5 -5.0000000000000044 0 8.6602540378443855 I I #
straight-curve $-1 -1 $-1 26.905255888325765 12.5 19.099999999999998 -10 0 0 I I #
point $-1 -1 $-1 3.8105117766515297 12.5 19.099999999999998 #
coedge $-1 -1 $-1 $180 $195 $174 $222 reversed $145 $-1 #
edge $-1 -1 $-1 $182 -2.5 $254 0 $174 $255 forward @7 unknown #
coedge $-1 -1 $-1 $190 $187 $175 $224 forward $191 $-1 #
edge $-1 -1 $-1 $225 -5 $254 -0.52299617589424141 $175 $256 forward @7 unknown #
vertex $-1 -1 $-1 $176 $257 #
ellipse-curve $-1 -1 $-1 2.2204460492503131e-015 -12.5 12.5 0 1 0 -12.5 -0 -0 1 I I #
coedge $-1 -1 $-1 $227 $227 $258 $259 forward $177 $-1 #
face $-1 -1 $-1 $-1 $260 $2 $-1 $261 forward single #
plane-surface $-1 -1 $-1 0 -12.5 0 0 -1 0 10 0 0 forward_v I I I I #
ellipse-curve $-1 -1 $-1 50 7.589415207398531e-016 0 -0 -0 -1 -13.550000000000002 0 0 1 I I #
point $-1 -1 $-1 44.770038241057584 -12.5 0 #
face $-1 -1 $-1 $262 $263 $2 $-1 $264 reversed single #
loop $-1 -1 $-1 $265 $266 $184 #
cone-surface $-1 -1 $-1 50 7.589415207398531e-016 4.7499999999999991 0 0 1 9.8000000000000043 0 0 1 I I 0.70710678118654913 -0.70710678118654591 9.8000000000000043 forward I I I I #
coedge $-1 -1 $-1 $235 $235 $267 $268 forward $185 $-1 #
straight-curve $-1 -1 $-1 0 0 25 -1.7763568394002505e-015 -10 -0 I I #
edge $-1 -1 $-1 $192 -5.1086535102531538 $254 -1.1745317969264328 $195 $269 forward @7 unknown #
point $-1 -1 $-1 44.770038241057584 12.5 25 #
loop $-1 -1 $-1 $270 $198 $271 #
vertex $-1 -1 $-1 $199 $272 #
intcurve-curve $-1 -1 $-1 forward { surfintcur full nubs 3 periodic 17 
	0 3 0.021667962322107794 2 0.043335924644215588 2 0.068376661310142889 2 0.11723748214095604 2 
	0.1660983029717692 2 0.19113903963769652 2 0.21280700195980431 2 0.23447496428191211 2 0.25614292660401994 2 
	0.27781088892612771 2 0.30285162559205503 2 0.3517124464228682 2 0.40057326725368136 2 0.42561400391960869 2 
	0.44728196624171646 2 0.46894992856382428 3 
	-4.0500000000000007 0.92059763197612909 12.5 
	-4.0500000000000007 0.92059763197612909 12.427773458926307 
	-4.0478877594613998 0.90168533327278011 12.352755422856841 
	-4.040712359282443 0.83167961858369455 12.217653935860868 
	-4.0357707037700292 0.7808670889111291 12.157418700423557 
	-4.0257900587394033 0.66459035192551985 12.054359267429097 
	-4.0194260257734866 0.57937233995263393 12.002109813803676 
	-4.0061092192334309 0.35486593492110807 11.901600084636705 
	-3.9999999999999969 0.1628694027693772 11.865571122977503 
	-3.9999999999999969 -0.1628694027693772 11.865571122977503 
	-4.0061092192334309 -0.35486593492110807 11.901600084636705 
	-4.0194260257734866 -0.57937233995263393 12.002109813803676 
	-4.0257900587394033 -0.66459035192551985 12.054359267429097 
	-4.0357707037700292 -0.7808670889111291 12.157418700423557 
	-4.040712359282443 -0.83167961858369455 12.217653935860868 
	-4.0478877594613998 -0.90168533327278011 12.352755422856841 
	-4.0500000000000007 -0.92059763197612909 12.427773458926307 
	-4.0500000000000007 -0.92059763197612909 12.572226541073693 
	-4.0478877594613998 -0.90168533327277967 12.647244577143159 
	-4.040712359282443 -0.8316796185836941 12.782346064139132 
	-4.0357707037700292 -0.78086708891112899 12.842581299576443 
	-4.0257900587394033 -0.66459035192551985 12.945640732570903 
	-4.0194260257734866 -0.57937233995263393 12.997890186196324 
	-4.0061092192334309 -0.35486593492110807 13.098399915363295 
	-3.9999999999999969 -0.1628694027693772 13.134428877022497 
	-3.9999999999999969 0.1628694027693772 13.134428877022497 
	-4.0061092192334309 0.35486593492110807 13.098399915363295 
	-4.0194260257734866 0.57937233995263393 12.997890186196324 
	-4.0257900587394033 0.66459035192551985 12.945640732570903 
	-4.0357707037700292 0.78086708891112899 12.842581299576443 
	-4.040712359282443 0.8316796185836941 12.782346064139132 
	-4.0478877594613998 0.90168533327277967 12.647244577143159 
	-4.0500000000000007 0.92059763197612909 12.572226541073693 
	-4.0500000000000007 0.92059763197612909 12.5 
	0.0023684920903810345 
	cone -12.499999999999998 0 0 0 0 1 8.5 0 0 1 I I 0 1 8.5 forward I I I I 
	cone 0 -12.5 12.5 0 1 0 -4.0500000000000007 0 0 1 I I -0 -1 4.0500000000000007 forward I I I I 
	nullbs 
	nullbs 
	I I 
	0 
	0 
	0 
	} I I #
coedge $-1 -1 $-1 $242 $242 $273 $274 reversed $200 $-1 #
coedge $-1 -1 $-1 $203 $202 $215 $251 forward $100 $-1 #
coedge $-1 -1 $-1 $215 $208 $204 $245 reversed $165 $-1 #
edge $-1 -1 $-1 $246 0 $210 0.7621023553303059 $204 $275 forward @7 unknown #
vertex $-1 -1 $-1 $205 $276 #
straight-curve $-1 -1 $-1 -3.8105117766515271 12.5 19.099999999999998 0 -10 0 I I #
point $-1 -1 $-1 -3.8105117766515271 12.5 19.099999999999998 #
straight-curve $-1 -1 $-1 -7.6210235533030577 7 12.499999999999998 4.9999999999999964 0 -8.6602540378443891 I I #
point $-1 -1 $-1 -7.6210235533030577 7 12.499999999999998 #
edge $-1 -1 $-1 $217 0 $246 0.76210235533030568 $243 $277 forward @7 unknown #
straight-curve $-1 -1 $-1 3.8105117766515297 12.5 19.099999999999998 0 -10 0 I I #
point $-1 -1 $-1 3.8105117766515297 7 19.099999999999998 #
vertex $-1 -1 $-1 $237 $278 #
straight-curve $-1 -1 $-1 44.770038241057584 -12.5 25 0 0 10 I I #
straight-curve $-1 -1 $-1 50 -12.5 25 10 0 0 I I #
point $-1 -1 $-1 2.2204460492503131e-015 -12.5 25 #
coedge $-1 -1 $-1 $258 $258 $227 $259 reversed $270 $-1 #
edge $-1 -1 $-1 $279 -3.1415926535897931 $279 3.1415926535897931 $227 $280 forward @7 unknown #
loop $-1 -1 $-1 $191 $281 $228 #
plane-surface $-1 -1 $-1 27.238150088834718 -3.2346552102453559e-016 25 0 0 1 10 0 0 forward_v I I I I #
face $-1 -1 $-1 $282 $283 $2 $-1 $284 reversed single #
loop $-1 -1 $-1 $285 $286 $232 #
cone-surface $-1 -1 $-1 50 7.589415207398531e-016 25 0 0 -1 -9.0500000000000007 0 0 1 I I 0 1 9.0500000000000007 forward I I I I #
loop $-1 -1 $-1 $-1 $287 $184 #
coedge $-1 -1 $-1 $266 $266 $288 $289 reversed $233 $-1 #
coedge $-1 -1 $-1 $267 $267 $235 $268 reversed $290 $-1 #
edge $-1 -1 $-1 $291 -6.2831853071795862 $291 1.2246467991473542e-016 $235 $292 forward @7 unknown #
ellipse-curve $-1 -1 $-1 50 7.589415207398531e-016 25 0 0 -1 -13.550000000000002 -0 -0 1 I I #
loop $-1 -1 $-1 $-1 $258 $271 #
face $-1 -1 $-1 $134 $293 $2 $-1 $294 reversed single #
point $-1 -1 $-1 -4.0500000000000007 0.92059763197612909 12.5 #
coedge $-1 -1 $-1 $273 $273 $242 $274 forward $293 $-1 #
edge $-1 -1 $-1 $295 -3.1415926535897931 $295 3.1415926535897931 $273 $296 forward @7 unknown #
straight-curve $-1 -1 $-1 -3.8105117766515271 7 19.099999999999998 -5.0000000000000018 0 -8.6602540378443855 I I #
point $-1 -1 $-1 -3.8105117766515271 7 19.099999999999998 #
straight-curve $-1 -1 $-1 3.8105117766515297 7 19.099999999999998 -10 0 0 I I #
point $-1 -1 $-1 44.770038241057584 -12.5 25 #
vertex $-1 -1 $-1 $259 $297 #
ellipse-curve $-1 -1 $-1 0 -12.5 12.5 0 1 0 -4.0500000000000007 0 0 1 I I #
coedge $-1 -1 $-1 $281 $281 $298 $299 forward $260 $-1 #
face $-1 -1 $-1 $300 $301 $2 $-1 $302 reversed single #
loop $-1 -1 $-1 $290 $288 $262 #
cone-surface $-1 -1 $-1 50 7.589415207398531e-016 0 0 0 1 10.550000000000001 0 0 1 I I 0 1 10.550000000000001 forward I I I I #
loop $-1 -1 $-1 $-1 $303 $232 #
coedge $-1 -1 $-1 $286 $286 $304 $305 forward $263 $-1 #
coedge $-1 -1 $-1 $287 $287 $303 $306 forward $265 $-1 #
coedge $-1 -1 $-1 $288 $288 $266 $289 forward $283 $-1 #
edge $-1 -1 $-1 $307 -3.1415926535897931 $307 3.1415926535897931 $288 $308 forward @7 unknown #
loop $-1 -1 $-1 $-1 $267 $262 #
vertex $-1 -1 $-1 $268 $309 #
ellipse-curve $-1 -1 $-1 50 7.589415207398531e-016 0 0 0 1 10.550000000000001 0 0 1 I I #
loop $-1 -1 $-1 $239 $273 $271 #
cone-surface $-1 -1 $-1 0 -12.5 12.5 0 1 0 -4.0500000000000007 0 0 1 I I 0 1 4.0500000000000007 forward I I I I #
vertex $-1 -1 $-1 $274 $310 #
ellipse-curve $-1 -1 $-1 0 7 12.5 0 1 0 -4.0500000000000007 0 0 1 I I #
point $-1 -1 $-1 4.0500000000000007 -12.5 12.5 #
coedge $-1 -1 $-1 $298 $298 $281 $299 reversed $311 $-1 #
edge $-1 -1 $-1 $312 -3.1415926535897931 $312 3.1415926535897931 $281 $313 forward @7 unknown #
face $-1 -1 $-1 $271 $314 $2 $-1 $315 forward single #
loop $-1 -1 $-1 $311 $316 $282 #
cone-surface $-1 -1 $-1 50 7.589415207398531e-016 25 0 0 -1 -10.550000000000001 0 0 1 I I 0 1 10.550000000000001 forward I I I I #
coedge $-1 -1 $-1 $303 $303 $287 $306 reversed $285 $-1 #
coedge $-1 -1 $-1 $304 $304 $286 $305 reversed $314 $-1 #
edge $-1 -1 $-1 $317 -3.1415926535897931 $317 3.1415926535897931 $286 $318 forward @7 unknown #
edge $-1 -1 $-1 $319 -3.1415926535897931 $319 3.1415926535897931 $303 $320 forward @7 unknown #
vertex $-1 -1 $-1 $289 $321 #
ellipse-curve $-1 -1 $-1 50 7.589415207398531e-016 4 0 0 1 10.550000000000001 0 0 1 I I #
point $-1 -1 $-1 60.549999999999997 2.0509438938403108e-015 0 #
point $-1 -1 $-1 4.0500000000000007 7 12.5 #
loop $-1 -1 $-1 $-1 $298 $282 #
vertex $-1 -1 $-1 $299 $322 #
ellipse-curve $-1 -1 $-1 50 7.589415207398531e-016 25 -0 -0 -1 -10.550000000000001 0 0 1 I I #
loop $-1 -1 $-1 $323 $304 $300 #
plane-surface $-1 -1 $-1 50 8.2805298623715179e-016 21 0 0 1 10 0 0 forward_v I I I I #
coedge $-1 -1 $-1 $316 $316 $324 $325 forward $301 $-1 #
vertex $-1 -1 $-1 $305 $326 #
ellipse-curve $-1 -1 $-1 50 7.589415207398531e-016 21 0 0 1 -9.0500000000000007 0 0 1 I I #
vertex $-1 -1 $-1 $306 $327 #
ellipse-curve $-1 -1 $-1 50 7.589415207398531e-016 5.4999999999999982 0 0 1 9.0500000000000007 0 0 1 I I #
point $-1 -1 $-1 39.449999999999996 2.0509438938403108e-015 4 #
point $-1 -1 $-1 60.549999999999997 2.0509438938403108e-015 25 #
loop $-1 -1 $-1 $-1 $324 $300 #
coedge $-1 -1 $-1 $324 $324 $316 $325 reversed $323 $-1 #
edge $-1 -1 $-1 $328 -3.1415926535897931 $328 3.1415926535897931 $316 $329 forward @7 unknown #
point $-1 -1 $-1 59.050000000000004 1.8672468739682081e-015 21 #
point $-1 -1 $-1 40.949999999999996 -3.4936383248850168e-016 5.4999999999999982 #
vertex $-1 -1 $-1 $325 $330 #
ellipse-curve $-1 -1 $-1 50 7.589415207398531e-016 21 0 0 -1 -10.550000000000001 -0 -0 1 I I #
point $-1 -1 $-1 60.549999999999997 2.0509438938403108e-015 21 #
End-of-ACIS-data 