700 0 1 0           
33 Autodesk Inventor 17.0.13800.0000 19 ASM 218.0.0.5119 NT 24 Tue Dec 10 11:02:01 2013 
1 9.9999999999999995e-007 1e-010 
body $-1 -1 $-1 $1 $-1 $-1 #
lump $-1 -1 $-1 $-1 $2 $0 #
shell $-1 -1 $-1 $-1 $-1 $3 $-1 $1 #
face $-1 -1 $-1 $4 $5 $2 $-1 $6 forward single #
face $-1 -1 $-1 $7 $8 $2 $-1 $9 forward single #
loop $-1 -1 $-1 $10 $11 $3 #
torus-surface $-1 -1 $-1 0.10000000000000231 -1.1788290218520954e-016 0 1 3.3777335869687547e-018 0 1.6000000000000012 -0.10000000000000002 0 0 -1 forward_v I I I I #
face $-1 -1 $-1 $12 $13 $2 $-1 $14 forward single #
loop $-1 -1 $-1 $15 $16 $4 #
cone-surface $-1 -1 $-1 26 -3.0399602282718786e-017 0 1 3.3777335869687547e-018 0 0 1.5000000000000011 0 1 I I 0 1 1.5000000000000011 forward I I I I #
loop $-1 -1 $-1 $-1 $17 $3 #
coedge $-1 -1 $-1 $11 $11 $18 $19 forward $5 $-1 #
face $-1 -1 $-1 $20 $21 $2 $-1 $22 forward single #
loop $-1 -1 $-1 $23 $24 $7 #
plane-surface $-1 -1 $-1 2.2204460492503131e-015 2.1250000000000018 0 1 3.3777335869687547e-018 0 0 0 -10 forward_v I I I I #
loop $-1 -1 $-1 $-1 $25 $4 #
coedge $-1 -1 $-1 $16 $16 $26 $27 reversed $8 $-1 #
coedge $-1 -1 $-1 $17 $17 $25 $28 forward $10 $-1 #
coedge $-1 -1 $-1 $18 $18 $11 $19 reversed $23 $-1 #
edge $-1 -1 $-1 $29 -3.1415926535897931 $29 3.1415926535897931 $18 $30 forward @7 tangent #
face $-1 -1 $-1 $31 $32 $2 $-1 $33 forward single #
loop $-1 -1 $-1 $34 $26 $12 #
cone-surface $-1 -1 $-1 34.8466375 -5.1801766723149602e-019 0 1 3.3777335869687547e-018 0 2.015282522995074e-018 -1.3466375000000017 0 1 I I -0.70710678118654513 0.7071067811865499 1.3466375000000017 forward I I I I #
loop $-1 -1 $-1 $-1 $18 $7 #
coedge $-1 -1 $-1 $24 $24 $35 $36 forward $13 $-1 #
coedge $-1 -1 $-1 $25 $25 $17 $28 reversed $15 $-1 #
coedge $-1 -1 $-1 $26 $26 $16 $27 forward $21 $-1 #
edge $-1 -1 $-1 $37 -3.1415926535897931 $37 3.1415926535897931 $16 $38 forward @7 unknown #
edge $-1 -1 $-1 $39 -3.1415926535897931 $39 3.1415926535897931 $25 $40 forward @7 tangent #
vertex $-1 -1 $-1 $19 $41 #
ellipse-curve $-1 -1 $-1 2.2204460492503131e-015 -1.1822067554390641e-016 0 1 3.3777335869687547e-018 0 5.4043737391500114e-018 -1.6000000000000012 1.9594348786357667e-016 1 I I #
face $-1 -1 $-1 $42 $43 $2 $-1 $44 forward single #
loop $-1 -1 $-1 $-1 $45 $20 #
plane-surface $-1 -1 $-1 35 0.75000000000000089 0 1 3.3777335869687547e-018 0 0 0 -10 forward_v I I I I #
loop $-1 -1 $-1 $-1 $46 $12 #
coedge $-1 -1 $-1 $35 $35 $24 $36 reversed $47 $-1 #
edge $-1 -1 $-1 $48 0 $48 6.2831853071795862 $24 $49 forward @7 unknown #
vertex $-1 -1 $-1 $27 $50 #
ellipse-curve $-1 -1 $-1 34.693275 -1.0360353344629934e-018 0 1 3.3777335869687547e-018 0 -0 -1.5000000000000011 -0 1 I I #
vertex $-1 -1 $-1 $28 $51 #
ellipse-curve $-1 -1 $-1 0.10000000000000231 -1.1788290218520954e-016 0 -1 -3.3777335869687547e-018 -0 0 -1.5000000000000011 1.8369701987210309e-016 1 I I #
point $-1 -1 $-1 2.2150416755111632e-015 1.6000000000000012 0 #
face $-1 -1 $-1 $52 $53 $2 $-1 $54 forward single #
loop $-1 -1 $-1 $55 $56 $31 #
torus-surface $-1 -1 $-1 -2.6999999999999948 -1.2734055622872204e-016 0 1 3.3777335869687547e-018 0 2.4500000000000024 0.29999999999999999 0 0 -1 forward_v I I I I #
coedge $-1 -1 $-1 $45 $45 $46 $57 reversed $32 $-1 #
coedge $-1 -1 $-1 $46 $46 $45 $57 forward $34 $-1 #
loop $-1 -1 $-1 $58 $35 $52 #
vertex $-1 -1 $-1 $36 $59 #
ellipse-curve $-1 -1 $-1 0 -1.1822067554390641e-016 0 1 3.3777335869687547e-018 0 0 2.7500000000000027 0 1 I I #
point $-1 -1 $-1 34.693275 1.5000000000000011 1.8369701987210309e-016 #
point $-1 -1 $-1 0.10000000000000231 1.5000000000000011 -3.6739403974420618e-016 #
face $-1 -1 $-1 $60 $47 $2 $-1 $61 forward single #
loop $-1 -1 $-1 $62 $63 $42 #
plane-surface $-1 -1 $-1 -2.9999999999999947 2.0966878364870336 0 -1 -3.3777335869687547e-018 -0 0 0 10 forward_v I I I I #
loop $-1 -1 $-1 $-1 $64 $31 #
coedge $-1 -1 $-1 $56 $56 $65 $66 forward $43 $-1 #
edge $-1 -1 $-1 $67 -3.1415926535897931 $67 3.1415926535897931 $45 $68 forward @7 unknown #
loop $-1 -1 $-1 $-1 $69 $52 #
point $-1 -1 $-1 2.2204460492503131e-015 2.7500000000000027 0 #
face $-1 -1 $-1 $70 $71 $2 $-1 $72 reversed single #
cone-surface $-1 -1 $-1 -1.4999999999999947 -1.2328727592435952e-016 0 1 3.3777335869687547e-018 0 0 2.7500000000000027 0 1 I I 0 1 2.7500000000000027 forward I I I I #
loop $-1 -1 $-1 $-1 $65 $42 #
coedge $-1 -1 $-1 $73 $74 $75 $76 forward $53 $-1 #
coedge $-1 -1 $-1 $64 $64 $69 $77 forward $55 $-1 #
coedge $-1 -1 $-1 $65 $65 $56 $66 reversed $62 $-1 #
edge $-1 -1 $-1 $78 -3.1415926535897931 $78 3.1415926535897931 $65 $79 forward @7 tangent #
vertex $-1 -1 $-1 $57 $80 #
ellipse-curve $-1 -1 $-1 35 1.3240768367662246e-033 0 -1 -3.3777335869687547e-018 -0 4.0305650459901479e-018 -1.1932750000000021 0 1 I I #
coedge $-1 -1 $-1 $69 $69 $64 $77 reversed $58 $-1 #
face $-1 -1 $-1 $81 $82 $2 $-1 $83 reversed single #
loop $-1 -1 $-1 $-1 $84 $60 #
plane-surface $-1 -1 $-1 -2.9999999999999947 -3.0242630575516569e-016 -1.443375672974065 1.6888667934843781e-018 -0.50000000000000022 -0.8660254037844386 -10 0 -1.9501353956872516e-017 forward_v I I I I #
coedge $-1 -1 $-1 $85 $63 $86 $87 forward $53 $-1 #
coedge $-1 -1 $-1 $63 $88 $89 $90 forward $53 $-1 #
coedge $-1 -1 $-1 $91 $92 $63 $76 reversed $93 $-1 #
edge $-1 -1 $-1 $94 -0.10825317547305478 $95 0.036084391824351594 $63 $96 forward @7 unknown #
edge $-1 -1 $-1 $97 -3.1415926535897931 $97 3.1415926535897931 $69 $98 forward @7 tangent #
vertex $-1 -1 $-1 $66 $99 #
ellipse-curve $-1 -1 $-1 -2.9999999999999947 -1.2835387630481267e-016 0 1 3.3777335869687547e-018 0 8.2754472880734567e-018 -2.4500000000000024 3.0003846579110188e-016 1 I I #
point $-1 -1 $-1 35 1.1932750000000021 -1.4613404092525605e-016 #
face $-1 -1 $-1 $100 $93 $2 $-1 $101 reversed single #
loop $-1 -1 $-1 $-1 $102 $70 #
plane-surface $-1 -1 $-1 -2.9999999999999947 1.2499999999999993 -0.72168783648703327 -1.6888667934843768e-018 0.49999999999999983 -0.86602540378443871 -10 0 1.9501353956872498e-017 forward_v I I I I #
coedge $-1 -1 $-1 $103 $104 $105 $106 reversed $71 $-1 #
coedge $-1 -1 $-1 $107 $73 $108 $109 forward $53 $-1 #
coedge $-1 -1 $-1 $110 $111 $73 $87 reversed $112 $-1 #
edge $-1 -1 $-1 $95 -0.10825317547305499 $113 0.036084391824351678 $73 $114 forward @7 unknown #
coedge $-1 -1 $-1 $74 $107 $115 $116 forward $53 $-1 #
coedge $-1 -1 $-1 $117 $118 $74 $90 reversed $82 $-1 #
edge $-1 -1 $-1 $119 -0.1082531754730548 $94 0.036084391824351567 $74 $120 forward @7 unknown #
coedge $-1 -1 $-1 $121 $75 $118 $122 reversed $93 $-1 #
coedge $-1 -1 $-1 $75 $121 $110 $123 forward $93 $-1 #
loop $-1 -1 $-1 $-1 $121 $81 #
vertex $-1 -1 $-1 $76 $124 #
vertex $-1 -1 $-1 $87 $125 #
straight-curve $-1 -1 $-1 -2.9999999999999947 1.2500000000000004 0.36084391824351458 -3.8971533913712584e-032 1.1537776118301387e-014 10 I I #
vertex $-1 -1 $-1 $77 $126 #
ellipse-curve $-1 -1 $-1 -2.6999999999999948 -1.2734055622872204e-016 0 -1 -3.3777335869687547e-018 -0 0 -2.7500000000000027 3.3677786976552245e-016 1 I I #
point $-1 -1 $-1 -2.9999999999999947 2.4500000000000024 0 #
face $-1 -1 $-1 $127 $112 $2 $-1 $128 reversed single #
plane-surface $-1 -1 $-1 -2.9999999999999947 1.2500000000000011 0.7216878364870305 -3.3777335869687547e-018 1 -1.1537776118301388e-015 0 1.1537776118301387e-014 10 forward_v I I I I #
coedge $-1 -1 $-1 $118 $117 $129 $130 reversed $82 $-1 #
coedge $-1 -1 $-1 $115 $84 $117 $131 forward $71 $-1 #
coedge $-1 -1 $-1 $84 $115 $132 $133 reversed $71 $-1 #
coedge $-1 -1 $-1 $134 $129 $84 $106 forward $135 $-1 #
edge $-1 -1 $-1 $136 0 $137 0.14605451725974311 $105 $138 forward @7 unknown #
coedge $-1 -1 $-1 $88 $85 $139 $140 forward $53 $-1 #
coedge $-1 -1 $-1 $141 $142 $85 $109 reversed $143 $-1 #
edge $-1 -1 $-1 $113 -0.10825317547305485 $144 0.036084391824351636 $85 $145 forward @7 unknown #
coedge $-1 -1 $-1 $146 $86 $92 $123 reversed $112 $-1 #
coedge $-1 -1 $-1 $86 $146 $141 $147 reversed $112 $-1 #
loop $-1 -1 $-1 $-1 $146 $100 #
vertex $-1 -1 $-1 $109 $148 #
straight-curve $-1 -1 $-1 -2.9999999999999947 0.31250000000000044 1.2629537138523061 2.9252030935308746e-017 -8.660254037844382 5.0000000000000089 I I #
coedge $-1 -1 $-1 $104 $103 $88 $116 reversed $71 $-1 #
edge $-1 -1 $-1 $149 -0.10825317547305487 $119 0.036084391824351629 $88 $150 forward @7 unknown #
coedge $-1 -1 $-1 $102 $89 $103 $131 reversed $82 $-1 #
coedge $-1 -1 $-1 $89 $102 $91 $122 forward $82 $-1 #
vertex $-1 -1 $-1 $90 $151 #
straight-curve $-1 -1 $-1 -2.9999999999999947 0.93749999999999956 -0.90210979560879101 -2.9252030935308765e-017 8.6602540378443873 4.9999999999999982 I I #
coedge $-1 -1 $-1 $92 $91 $152 $153 reversed $93 $-1 #
edge $-1 -1 $-1 $154 -0.075000000000000178 $94 0.075000000000000289 $118 $155 forward @7 unknown #
edge $-1 -1 $-1 $156 -0.075000000000000205 $95 0.075000000000000289 $92 $157 forward @7 unknown #
point $-1 -1 $-1 -2.9999999999999947 1.2499999999999993 -0.72168783648703327 #
point $-1 -1 $-1 -2.9999999999999947 1.2500000000000011 0.7216878364870305 #
point $-1 -1 $-1 -2.6999999999999948 2.7500000000000027 -6.7355573953104489e-016 #
face $-1 -1 $-1 $158 $159 $2 $-1 $160 reversed single #
plane-surface $-1 -1 $-1 -2.9999999999999947 -1.0500345716011549e-017 1.443375672974065 -1.6888667934843804e-018 0.50000000000000089 0.86602540378443826 10 0 1.9501353956872553e-017 forward_v I I I I #
coedge $-1 -1 $-1 $105 $152 $102 $130 forward $135 $-1 #
edge $-1 -1 $-1 $154 0 $136 0.14605451725974306 $129 $161 forward @7 unknown #
edge $-1 -1 $-1 $136 -0.075000000000000178 $119 0.075000000000000289 $103 $162 forward @7 unknown #
coedge $-1 -1 $-1 $139 $163 $104 $133 forward $159 $-1 #
edge $-1 -1 $-1 $137 -0.075000000000000178 $149 0.075000000000000289 $132 $164 forward @7 unknown #
coedge $-1 -1 $-1 $165 $105 $163 $166 forward $135 $-1 #
loop $-1 -1 $-1 $167 $168 $169 #
vertex $-1 -1 $-1 $130 $170 #
vertex $-1 -1 $-1 $106 $171 #
intcurve-curve $-1 -1 $-1 forward { exactcur full nurbs 2 open 2 
	0 2 0.14605451725974311 2 
	-1.4999999999999947 1.3165593037280882e-014 -1.4433756729740725 1 
	-1.2916666666666543 -0.62500000000000067 -1.0825317547305484 1.1547005383792632 
	-1.4999999999999947 -1.2500000000000144 -0.72168783648702406 1 
	0 
	null_surface 
	null_surface 
	nullbs 
	nullbs 
	I I 
	0 
	0 
	0 
	F 1 F 0 } I I #
coedge $-1 -1 $-1 $172 $132 $107 $140 reversed $159 $-1 #
edge $-1 -1 $-1 $144 -0.10825317547305488 $149 0.036084391824351608 $107 $173 forward @7 unknown #
coedge $-1 -1 $-1 $174 $108 $111 $147 forward $143 $-1 #
coedge $-1 -1 $-1 $108 $174 $172 $175 forward $143 $-1 #
loop $-1 -1 $-1 $-1 $174 $158 #
vertex $-1 -1 $-1 $140 $176 #
straight-curve $-1 -1 $-1 -2.9999999999999947 -0.93750000000000022 0.90210979560879079 2.9252030935308765e-017 -8.6602540378443873 -4.9999999999999982 I I #
coedge $-1 -1 $-1 $111 $110 $168 $177 reversed $112 $-1 #
edge $-1 -1 $-1 $113 -0.075000000000000289 $178 0.075000000000000178 $141 $179 forward @7 unknown #
point $-1 -1 $-1 -2.9999999999999947 4.8408663482671877e-017 1.443375672974065 #
vertex $-1 -1 $-1 $116 $180 #
straight-curve $-1 -1 $-1 -2.9999999999999947 -0.31250000000000044 -1.2629537138523066 -2.9252030935308759e-017 8.6602540378443855 -5.0000000000000018 I I #
point $-1 -1 $-1 -2.9999999999999947 -3.0242630575516569e-016 -1.443375672974065 #
coedge $-1 -1 $-1 $129 $168 $121 $153 forward $135 $-1 #
edge $-1 -1 $-1 $156 0 $154 0.14605451725974286 $152 $181 forward @7 unknown #
vertex $-1 -1 $-1 $153 $182 #
straight-curve $-1 -1 $-1 -2.249999999999992 1.2499999999999991 -0.72168783648703405 -10 -3.3777335869687547e-017 -0 I I #
vertex $-1 -1 $-1 $177 $183 #
straight-curve $-1 -1 $-1 -2.249999999999992 1.2500000000000013 0.72168783648703028 -10 -3.3777335869687547e-017 0 I I #
face $-1 -1 $-1 $169 $143 $2 $-1 $184 reversed single #
loop $-1 -1 $-1 $-1 $163 $127 #
plane-surface $-1 -1 $-1 -2.9999999999999947 -1.2500000000000004 -0.72168783648703216 3.3777335869687547e-018 -1 0 0 0 -10 forward_v I I I I #
intcurve-curve $-1 -1 $-1 forward { exactcur full nurbs 2 open 2 
	0 2 0.14605451725974306 2 
	-1.4999999999999947 1.2500000000000138 -0.72168783648702484 1 
	-1.2916666666666543 0.62500000000000011 -1.0825317547305489 1.154700538379257 
	-1.4999999999999944 -1.3618537431801168e-014 -1.4433756729740725 1 
	0 
	null_surface 
	null_surface 
	nullbs 
	nullbs 
	I I 
	0 
	0 
	0 
	F 1 F 0 } I I #
straight-curve $-1 -1 $-1 -2.249999999999992 -1.3877787807814457e-016 -1.443375672974065 -10 -3.3777335869687547e-017 -0 I I #
coedge $-1 -1 $-1 $132 $172 $134 $166 reversed $159 $-1 #
straight-curve $-1 -1 $-1 -2.249999999999992 -1.25 -0.72168783648703261 -10 -3.3777335869687547e-017 -0 I I #
coedge $-1 -1 $-1 $168 $134 $174 $185 forward $135 $-1 #
edge $-1 -1 $-1 $137 0 $186 0.14605451725974308 $134 $187 forward @7 unknown #
loop $-1 -1 $-1 $-1 $188 $169 #
coedge $-1 -1 $-1 $152 $165 $146 $177 forward $135 $-1 #
face $-1 -1 $-1 $-1 $135 $2 $-1 $189 forward single #
point $-1 -1 $-1 -1.4999999999999902 -5.5004491193212513e-016 -1.443375672974065 #
point $-1 -1 $-1 -1.4999999999999902 -1.2500000000000004 -0.72168783648703227 #
coedge $-1 -1 $-1 $163 $139 $142 $175 reversed $159 $-1 #
straight-curve $-1 -1 $-1 -2.9999999999999947 -1.2500000000000004 -0.36084391824351608 0 0 -10 I I #
coedge $-1 -1 $-1 $142 $141 $165 $185 reversed $143 $-1 #
edge $-1 -1 $-1 $186 -0.075000000000000178 $144 0.075000000000000289 $142 $190 forward @7 unknown #
point $-1 -1 $-1 -2.9999999999999947 -1.2500000000000004 0.72168783648703272 #
edge $-1 -1 $-1 $178 0 $156 0.14605451725974333 $168 $191 forward @7 unknown #
vertex $-1 -1 $-1 $185 $192 #
straight-curve $-1 -1 $-1 -2.249999999999992 0 1.4433756729740645 10 3.3777335869687547e-017 0 I I #
point $-1 -1 $-1 -2.9999999999999947 -1.2500000000000004 -0.72168783648703216 #
intcurve-curve $-1 -1 $-1 forward { exactcur full nurbs 2 open 2 
	0 2 0.14605451725974286 2 
	-1.4999999999999944 1.2500000000000009 0.7216878364870456 1 
	-1.2916666666666543 1.25 -1.5959455978986625e-015 1.1547005383792546 
	-1.4999999999999944 1.2499999999999996 -0.72168783648704882 1 
	0 
	null_surface 
	null_surface 
	nullbs 
	nullbs 
	I I 
	0 
	0 
	0 
	F 1 F 0 } I I #
point $-1 -1 $-1 -1.4999999999999902 1.2499999999999989 -0.72168783648703483 #
point $-1 -1 $-1 -1.49999999999999 1.2500000000000018 0.72168783648702983 #
plane-surface $-1 -1 $-1 -2.9999999999999947 -1.2500000000000004 0.72168783648703272 1.6888667934843768e-018 -0.49999999999999983 0.86602540378443871 10 0 -1.9501353956872498e-017 forward_v I I I I #
edge $-1 -1 $-1 $186 0 $178 0.14605451725974311 $165 $193 forward @7 unknown #
vertex $-1 -1 $-1 $166 $194 #
intcurve-curve $-1 -1 $-1 forward { exactcur full nurbs 2 open 2 
	0 2 0.14605451725974308 2 
	-1.4999999999999947 -1.2500000000000004 -0.72168783648704815 1 
	-1.2916666666666543 -1.2500000000000004 0 1.154700538379257 
	-1.4999999999999947 -1.2500000000000004 0.72168783648704815 1 
	0 
	null_surface 
	null_surface 
	nullbs 
	nullbs 
	I I 
	0 
	0 
	0 
	F 1 F 0 } I I #
coedge $-1 -1 $-1 $188 $188 $-1 $195 forward $167 $-1 #
cone-surface $-1 -1 $-1 -1.083333333333325 -1.2187988692978919e-016 0 1 3.3777335869687547e-018 0 0 0.72168783648703227 0 1 I I 0.8660254037844396 -0.49999999999999839 0.72168783648703227 forward I I I I #
straight-curve $-1 -1 $-1 -2.249999999999992 -1.2500000000000004 0.72168783648703161 -10 -3.3777335869687547e-017 0 I I #
intcurve-curve $-1 -1 $-1 forward { exactcur full nurbs 2 open 2 
	0 2 0.14605451725974333 2 
	-1.4999999999999947 -1.3826704248918386e-014 1.4433756729740725 1 
	-1.2916666666666534 0.62500000000000011 1.0825317547305477 1.1547005383792597 
	-1.4999999999999947 1.2500000000000153 0.72168783648702228 1 
	0 
	null_surface 
	null_surface 
	nullbs 
	nullbs 
	I I 
	0 
	0 
	0 
	F 1 F 0 } I I #
point $-1 -1 $-1 -1.4999999999999902 -4.1126703385398056e-016 1.443375672974065 #
intcurve-curve $-1 -1 $-1 forward { exactcur full nurbs 2 open 2 
	0 2 0.14605451725974311 2 
	-1.4999999999999947 -1.2500000000000142 0.72168783648702473 1 
	-1.2916666666666543 -0.62500000000000011 1.0825317547305489 1.154700538379257 
	-1.4999999999999947 1.3859482427671611e-014 1.443375672974073 1 
	0 
	null_surface 
	null_surface 
	nullbs 
	nullbs 
	I I 
	0 
	0 
	0 
	F 1 F 0 } I I #
point $-1 -1 $-1 -1.4999999999999902 -1.2500000000000004 0.72168783648703227 #
edge $-1 -1 $-1 $196 1 $196 0 $188 $-1 forward @7 unknown #
vertex $-1 -1 $-1 $195 $197 #
point $-1 -1 $-1 -0.66666666666666008 -1.2047249793521888e-016 0 #
End-of-ACIS-data 