700 0 1 0           
33 Autodesk Inventor 17.0.13800.0000 19 ASM 218.0.0.5119 NT 24 Tue Dec 10 11:02:03 2013 
1 9.9999999999999995e-007 1e-010 
body $-1 -1 $-1 $1 $-1 $-1 #
lump $-1 -1 $-1 $-1 $2 $0 #
shell $-1 -1 $-1 $-1 $-1 $3 $-1 $1 #
face $-1 -1 $-1 $4 $5 $2 $-1 $6 forward single #
face $-1 -1 $-1 $7 $8 $2 $-1 $9 reversed single #
loop $-1 -1 $-1 $10 $11 $3 #
cone-surface $-1 -1 $-1 0.10937499999999989 0 0 -1 0 0 0 0 -1.8104430570778463 1 I I -0.86602540378443893 -0.49999999999999944 1.8104430570778463 forward I I I I #
face $-1 -1 $-1 $12 $13 $2 $-1 $14 reversed single #
loop $-1 -1 $-1 $15 $16 $4 #
cone-surface $-1 -1 $-1 -7.9612424636925461 0 0 1 0 0 0 0 -1.6210000000000002 1 I I -0 1 1.6210000000000002 reversed I I I I #
loop $-1 -1 $-1 $-1 $17 $3 #
coedge $-1 -1 $-1 $11 $11 $18 $19 forward $5 $-1 #
face $-1 -1 $-1 $20 $21 $2 $-1 $22 forward single #
loop $-1 -1 $-1 $23 $24 $7 #
plane-surface $-1 -1 $-1 0 6.9388939039072284e-017 -8.6736173798840355e-016 1 0 0 0 0 -10 forward_v I I I I #
loop $-1 -1 $-1 $-1 $18 $4 #
coedge $-1 -1 $-1 $16 $16 $25 $26 reversed $8 $-1 #
coedge $-1 -1 $-1 $17 $17 $27 $28 forward $10 $-1 #
coedge $-1 -1 $-1 $18 $18 $11 $19 reversed $15 $-1 #
edge $-1 -1 $-1 $29 -3.1415926535897931 $29 3.1415926535897931 $18 $30 forward @7 unknown #
face $-1 -1 $-1 $31 $32 $2 $-1 $33 forward single #
loop $-1 -1 $-1 $34 $25 $12 #
cone-surface $-1 -1 $-1 3.0906250000000011 0 0 1 0 0 0 0 1.8104430570778463 1 I I -0.86602540378444004 -0.49999999999999756 1.8104430570778463 forward I I I I #
loop $-1 -1 $-1 $-1 $27 $7 #
coedge $-1 -1 $-1 $24 $24 $35 $36 forward $13 $-1 #
coedge $-1 -1 $-1 $25 $25 $16 $26 forward $21 $-1 #
edge $-1 -1 $-1 $37 -3.1415926535897931 $37 3.1415926535897931 $16 $38 forward @7 unknown #
coedge $-1 -1 $-1 $27 $27 $17 $28 reversed $23 $-1 #
edge $-1 -1 $-1 $39 -3.1415926535897931 $39 3.1415926535897931 $27 $40 forward @7 unknown #
vertex $-1 -1 $-1 $19 $41 #
ellipse-curve $-1 -1 $-1 0.21874999999999978 0 0 1 0 0 0 0 -1.6210000000000002 1 I I #
face $-1 -1 $-1 $42 $43 $2 $-1 $44 reversed single #
loop $-1 -1 $-1 $45 $46 $20 #
plane-surface $-1 -1 $-1 3.2000000000000006 5.6772768304695516e-017 -7.6327832942979512e-016 1 0 0 0 0 -10 forward_v I I I I #
loop $-1 -1 $-1 $-1 $47 $12 #
coedge $-1 -1 $-1 $35 $35 $24 $36 reversed $48 $-1 #
edge $-1 -1 $-1 $49 0 $49 6.2831853071795862 $24 $50 forward @7 unknown #
vertex $-1 -1 $-1 $26 $51 #
ellipse-curve $-1 -1 $-1 2.981250000000002 0 0 -1 -0 -0 0 0 1.6210000000000002 1 I I #
vertex $-1 -1 $-1 $28 $52 #
ellipse-curve $-1 -1 $-1 0 0 0 -1 -0 -0 0 0 -1.9998861141556923 1 I I #
point $-1 -1 $-1 0.21874999999999978 -1.9851524614178597e-016 1.6210000000000002 #
face $-1 -1 $-1 $53 $54 $2 $-1 $55 reversed single #
loop $-1 -1 $-1 $48 $56 $31 #
cone-surface $-1 -1 $-1 0.31507501961196838 0 0 -1 -0 -0 0 3.4957259421636904 0 1 I I 0.86602540378443893 -0.49999999999999978 3.4957259421636904 forward I I I I #
loop $-1 -1 $-1 $-1 $57 $20 #
coedge $-1 -1 $-1 $46 $46 $58 $59 forward $32 $-1 #
coedge $-1 -1 $-1 $47 $47 $57 $60 forward $34 $-1 #
loop $-1 -1 $-1 $-1 $35 $31 #
vertex $-1 -1 $-1 $36 $61 #
ellipse-curve $-1 -1 $-1 0 0 0 -1 -0 -0 0 2.9500000000000002 0 1 I I #
point $-1 -1 $-1 2.981250000000002 -1.9851524614178597e-016 -1.6210000000000002 #
point $-1 -1 $-1 0 2.4491541283600069e-016 1.9998861141556923 #
face $-1 -1 $-1 $62 $63 $2 $-1 $64 forward single #
loop $-1 -1 $-1 $65 $66 $42 #
cone-surface $-1 -1 $-1 2.8849249803880324 0 0 -1 -0 -0 9.6062632120834623e-016 3.4957259421636904 0 1 I I -0.86602540378443893 -0.49999999999999978 3.4957259421636904 forward I I I I #
coedge $-1 -1 $-1 $67 $68 $69 $70 reversed $43 $-1 #
coedge $-1 -1 $-1 $57 $57 $47 $60 reversed $45 $-1 #
coedge $-1 -1 $-1 $58 $58 $46 $59 reversed $65 $-1 #
edge $-1 -1 $-1 $71 0 $71 6.2831853071795862 $46 $72 forward @7 unknown #
edge $-1 -1 $-1 $73 -3.1415926535897931 $73 3.1415926535897931 $57 $74 forward @7 unknown #
point $-1 -1 $-1 0 2.9500000000000002 0 #
face $-1 -1 $-1 $75 $76 $2 $-1 $77 forward single #
loop $-1 -1 $-1 $-1 $78 $53 #
plane-surface $-1 -1 $-1 0 4.0414518843273806 2.0964675341944669e-015 0 0.86602540378443948 -0.49999999999999867 0 4.9999999999999867 8.6602540378443944 forward_v I I I I #
loop $-1 -1 $-1 $-1 $58 $42 #
coedge $-1 -1 $-1 $79 $80 $81 $82 reversed $54 $-1 #
coedge $-1 -1 $-1 $83 $56 $84 $85 reversed $43 $-1 #
coedge $-1 -1 $-1 $56 $86 $87 $88 reversed $43 $-1 #
coedge $-1 -1 $-1 $89 $90 $56 $70 forward $91 $-1 #
edge $-1 -1 $-1 $92 0 $93 0.40895264832727141 $69 $94 forward @7 unknown #
vertex $-1 -1 $-1 $59 $95 #
ellipse-curve $-1 -1 $-1 3.2000000000000006 0 0 1 0 0 8.1066070236919169e-016 2.9500000000000002 0 1 I I #
vertex $-1 -1 $-1 $60 $96 #
ellipse-curve $-1 -1 $-1 3.2000000000000006 0 0 1 0 0 0 0 1.9998861141556923 1 I I #
face $-1 -1 $-1 $97 $98 $2 $-1 $99 forward single #
loop $-1 -1 $-1 $-1 $100 $62 #
plane-surface $-1 -1 $-1 0 2.0207259421636974 -3.4999999999999987 0 2.4723805967788699e-015 -1 -10 0 0 forward_v I I I I #
coedge $-1 -1 $-1 $101 $102 $83 $103 forward $63 $-1 #
coedge $-1 -1 $-1 $104 $66 $105 $106 reversed $54 $-1 #
coedge $-1 -1 $-1 $66 $107 $108 $109 reversed $54 $-1 #
coedge $-1 -1 $-1 $110 $111 $66 $82 forward $98 $-1 #
edge $-1 -1 $-1 $112 0 $113 0.40895264832727257 $81 $114 forward @7 unknown #
coedge $-1 -1 $-1 $115 $67 $78 $103 reversed $43 $-1 #
coedge $-1 -1 $-1 $111 $110 $67 $85 forward $98 $-1 #
edge $-1 -1 $-1 $116 0 $92 0.40895264832727141 $84 $117 forward @7 unknown #
coedge $-1 -1 $-1 $68 $115 $118 $119 reversed $43 $-1 #
coedge $-1 -1 $-1 $120 $121 $68 $88 forward $122 $-1 #
edge $-1 -1 $-1 $93 0 $123 0.40895264832727141 $87 $124 forward @7 unknown #
coedge $-1 -1 $-1 $105 $69 $121 $125 forward $91 $-1 #
coedge $-1 -1 $-1 $69 $105 $111 $126 reversed $91 $-1 #
loop $-1 -1 $-1 $-1 $69 $97 #
vertex $-1 -1 $-1 $126 $127 #
vertex $-1 -1 $-1 $125 $128 #
intcurve-curve $-1 -1 $-1 forward { exactcur full nurbs 2 open 2 
	0 2 0.40895264832727141 2 
	0.63015003922393675 2.0207259421636898 3.5000000000000004 1 
	0.046816705890603966 0 3.5000000000000004 1.1547005383792515 
	0.63015003922393675 -2.0207259421636898 3.5000000000000004 1 
	0 
	null_surface 
	null_surface 
	nullbs 
	nullbs 
	I I 
	0 
	0 
	0 
	F 1 F 0 } I I #
point $-1 -1 $-1 3.2000000000000006 2.9500000000000002 0 #
point $-1 -1 $-1 3.2000000000000006 2.4491541283600069e-016 -1.9998861141556923 #
face $-1 -1 $-1 $129 $91 $2 $-1 $130 forward single #
loop $-1 -1 $-1 $-1 $84 $75 #
plane-surface $-1 -1 $-1 0 2.0207259421636889 3.5000000000000004 0 0.86602540378443849 0.50000000000000044 10 0 0 forward_v I I I I #
coedge $-1 -1 $-1 $131 $132 $115 $133 forward $76 $-1 #
coedge $-1 -1 $-1 $108 $78 $110 $134 forward $63 $-1 #
coedge $-1 -1 $-1 $78 $108 $131 $135 reversed $63 $-1 #
edge $-1 -1 $-1 $136 0 $116 0.40895264832727074 $78 $137 forward @7 unknown #
coedge $-1 -1 $-1 $138 $79 $139 $140 reversed $54 $-1 #
coedge $-1 -1 $-1 $90 $89 $79 $106 forward $91 $-1 #
edge $-1 -1 $-1 $141 0 $112 0.40895264832727291 $105 $142 forward @7 unknown #
coedge $-1 -1 $-1 $80 $138 $143 $144 reversed $54 $-1 #
coedge $-1 -1 $-1 $102 $101 $80 $109 forward $63 $-1 #
edge $-1 -1 $-1 $113 0 $145 0.40895264832727168 $108 $146 forward @7 unknown #
coedge $-1 -1 $-1 $84 $81 $101 $134 reversed $98 $-1 #
coedge $-1 -1 $-1 $81 $84 $90 $126 forward $98 $-1 #
vertex $-1 -1 $-1 $106 $147 #
vertex $-1 -1 $-1 $82 $148 #
intcurve-curve $-1 -1 $-1 forward { exactcur full nurbs 2 open 2 
	0 2 0.40895264832727257 2 
	2.5698499607760628 2.0207259421636863 3.5000000000000062 1 
	3.1531832941093985 3.0310889132455348 1.7500000000000024 1.1547005383792499 
	2.5698499607760628 4.0414518843273832 -1.9253138013950534e-015 1 
	0 
	null_surface 
	null_surface 
	nullbs 
	nullbs 
	I I 
	0 
	0 
	0 
	F 1 F 0 } I I #
coedge $-1 -1 $-1 $86 $83 $100 $133 reversed $43 $-1 #
vertex $-1 -1 $-1 $134 $149 #
intcurve-curve $-1 -1 $-1 forward { exactcur full nurbs 2 open 2 
	0 2 0.40895264832727141 2 
	0.63015003922393675 4.0414518843273814 2.246199434960894e-015 1 
	0.046816705890604035 3.0310889132455356 1.7500000000000016 1.1547005383792488 
	0.63015003922393686 2.0207259421636889 3.5000000000000013 1 
	0 
	null_surface 
	null_surface 
	nullbs 
	nullbs 
	I I 
	0 
	0 
	0 
	F 1 F 0 } I I #
coedge $-1 -1 $-1 $150 $151 $86 $119 forward $152 $-1 #
edge $-1 -1 $-1 $123 0 $153 0.40895264832727229 $118 $154 forward @7 unknown #
coedge $-1 -1 $-1 $139 $87 $151 $155 forward $122 $-1 #
coedge $-1 -1 $-1 $87 $139 $89 $125 reversed $122 $-1 #
loop $-1 -1 $-1 $-1 $87 $156 #
vertex $-1 -1 $-1 $155 $157 #
intcurve-curve $-1 -1 $-1 forward { exactcur full nurbs 2 open 2 
	0 2 0.40895264832727141 2 
	0.63015003922393731 -2.0207259421636916 3.5000000000000004 1 
	0.046816705890604313 -3.031088913245537 1.7499999999999993 1.154700538379251 
	0.63015003922393675 -4.0414518843273814 0 1 
	0 
	null_surface 
	null_surface 
	nullbs 
	nullbs 
	I I 
	0 
	0 
	0 
	F 1 F 0 } I I #
edge $-1 -1 $-1 $93 0.063015003922393675 $141 0.25698499607760639 $89 $158 forward @7 unknown #
edge $-1 -1 $-1 $92 0.063015003922393675 $112 0.25698499607760639 $111 $159 forward @7 unknown #
point $-1 -1 $-1 0.63015003922393675 2.0207259421636903 3.5000000000000004 #
point $-1 -1 $-1 0.63015003922393675 -2.0207259421636903 3.5000000000000004 #
face $-1 -1 $-1 $156 $152 $2 $-1 $160 forward single #
plane-surface $-1 -1 $-1 0 -2.0207259421636916 3.5000000000000004 0 0 1 10 0 0 forward_v I I I I #
coedge $-1 -1 $-1 $143 $100 $102 $135 forward $76 $-1 #
coedge $-1 -1 $-1 $100 $143 $150 $161 reversed $76 $-1 #
edge $-1 -1 $-1 $153 0 $136 0.40895264832727019 $100 $162 forward @7 unknown #
edge $-1 -1 $-1 $116 0.063015003922393675 $113 0.25698499607760639 $101 $163 forward @7 unknown #
edge $-1 -1 $-1 $136 0.063015003922393675 $145 0.25698499607760639 $131 $164 forward @7 unknown #
vertex $-1 -1 $-1 $135 $165 #
intcurve-curve $-1 -1 $-1 forward { exactcur full nurbs 2 open 2 
	0 2 0.40895264832727074 2 
	0.63015003922393664 2.0207259421636992 -3.499999999999996 1 
	0.046816705890605631 3.0310889132455392 -1.7499999999999984 1.1547005383792479 
	0.63015003922393664 4.0414518843273814 1.6044281678292099e-015 1 
	0 
	null_surface 
	null_surface 
	nullbs 
	nullbs 
	I I 
	0 
	0 
	0 
	F 1 F 0 } I I #
coedge $-1 -1 $-1 $107 $104 $166 $167 reversed $54 $-1 #
coedge $-1 -1 $-1 $121 $120 $104 $140 forward $122 $-1 #
edge $-1 -1 $-1 $168 0 $141 0.40895264832727263 $139 $169 forward @7 unknown #
vertex $-1 -1 $-1 $106 $170 #
intcurve-curve $-1 -1 $-1 forward { exactcur full nurbs 2 open 2 
	0 2 0.40895264832727291 2 
	2.5698499607760628 -2.0207259421636974 3.5000000000000004 1 
	3.1531832941093989 0 3.5000000000000004 1.1547005383792519 
	2.5698499607760628 2.0207259421636974 3.5000000000000004 1 
	0 
	null_surface 
	null_surface 
	nullbs 
	nullbs 
	I I 
	0 
	0 
	0 
	F 1 F 0 } I I #
coedge $-1 -1 $-1 $132 $131 $107 $144 forward $76 $-1 #
edge $-1 -1 $-1 $145 0 $171 0.40895264832727168 $143 $172 forward @7 unknown #
vertex $-1 -1 $-1 $109 $173 #
intcurve-curve $-1 -1 $-1 forward { exactcur full nurbs 2 open 2 
	0 2 0.40895264832727168 2 
	2.5698499607760628 4.0414518843273832 5.7759414041851598e-015 1 
	3.1531832941093962 3.0310889132455401 -1.7499999999999984 1.1547005383792457 
	2.5698499607760628 2.0207259421636974 -3.5 1 
	0 
	null_surface 
	null_surface 
	nullbs 
	nullbs 
	I I 
	0 
	0 
	0 
	F 1 F 0 } I I #
point $-1 -1 $-1 2.5698499607760636 2.0207259421636903 3.5000000000000004 #
point $-1 -1 $-1 2.5698499607760636 4.0414518843273806 0 #
point $-1 -1 $-1 0.63015003922393675 4.0414518843273806 0 #
coedge $-1 -1 $-1 $166 $118 $132 $161 forward $152 $-1 #
coedge $-1 -1 $-1 $118 $166 $120 $155 reversed $152 $-1 #
loop $-1 -1 $-1 $-1 $118 $129 #
vertex $-1 -1 $-1 $161 $174 #
intcurve-curve $-1 -1 $-1 forward { exactcur full nurbs 2 open 2 
	0 2 0.40895264832727229 2 
	0.63015003922393698 -4.0414518843273806 9.6265690069752611e-016 1 
	0.04681670589060126 -3.0310889132455312 -1.7500000000000024 1.1547005383792504 
	0.63015003922393664 -2.0207259421636827 -3.5000000000000049 1 
	0 
	null_surface 
	null_surface 
	nullbs 
	nullbs 
	I I 
	0 
	0 
	0 
	F 1 F 0 } I I #
edge $-1 -1 $-1 $123 0.063015003922393675 $168 0.25698499607760639 $120 $175 forward @7 unknown #
face $-1 -1 $-1 $-1 $122 $2 $-1 $176 forward single #
point $-1 -1 $-1 0.63015003922393675 -4.0414518843273806 1.9428902930940239e-015 #
straight-curve $-1 -1 $-1 0 -2.0207259421636916 3.5000000000000004 10 0 0 I I #
straight-curve $-1 -1 $-1 0 2.0207259421636889 3.5000000000000004 10 0 0 I I #
plane-surface $-1 -1 $-1 0 -2.0207259421636801 -3.5000000000000089 0 -0.86602540378443826 -0.50000000000000089 -10 0 0 forward_v I I I I #
edge $-1 -1 $-1 $153 0.063015003922393675 $171 0.25698499607760639 $150 $177 forward @7 unknown #
intcurve-curve $-1 -1 $-1 forward { exactcur full nurbs 2 open 2 
	0 2 0.40895264832727019 2 
	0.63015003922393664 -2.0207259421636752 -3.5000000000000089 1 
	0.046816705890607227 8.7430063189231078e-015 -3.5000000000000036 1.1547005383792495 
	0.63015003922393664 2.0207259421636929 -3.4999999999999987 1 
	0 
	null_surface 
	null_surface 
	nullbs 
	nullbs 
	I I 
	0 
	0 
	0 
	F 1 F 0 } I I #
straight-curve $-1 -1 $-1 0 4.0414518843273806 2.0964675341944669e-015 10 0 0 I I #
straight-curve $-1 -1 $-1 0 2.0207259421636974 -3.4999999999999987 10 0 0 I I #
point $-1 -1 $-1 0.63015003922393675 2.0207259421636996 -3.4999999999999956 #
coedge $-1 -1 $-1 $151 $150 $138 $167 forward $152 $-1 #
edge $-1 -1 $-1 $171 0 $168 0.40895264832727352 $166 $178 forward @7 unknown #
vertex $-1 -1 $-1 $140 $179 #
intcurve-curve $-1 -1 $-1 forward { exactcur full nurbs 2 open 2 
	0 2 0.40895264832727263 2 
	2.5698499607760628 -4.0414518843273841 -5.1341701370534763e-015 1 
	3.1531832941093985 -3.0310889132455365 1.7500000000000002 1.1547005383792499 
	2.5698499607760628 -2.0207259421636885 3.5000000000000053 1 
	0 
	null_surface 
	null_surface 
	nullbs 
	nullbs 
	I I 
	0 
	0 
	0 
	F 1 F 0 } I I #
point $-1 -1 $-1 2.5698499607760636 -2.0207259421636903 3.5000000000000004 #
vertex $-1 -1 $-1 $167 $180 #
intcurve-curve $-1 -1 $-1 forward { exactcur full nurbs 2 open 2 
	0 2 0.40895264832727168 2 
	2.5698499607760628 2.0207259421637005 -3.4999999999999982 1 
	3.1531832941093958 8.7430063189231078e-015 -3.5000000000000031 1.154700538379253 
	2.5698499607760628 -2.0207259421636827 -3.5000000000000089 1 
	0 
	null_surface 
	null_surface 
	nullbs 
	nullbs 
	I I 
	0 
	0 
	0 
	F 1 F 0 } I I #
point $-1 -1 $-1 2.5698499607760636 2.0207259421636996 -3.4999999999999956 #
point $-1 -1 $-1 0.63015003922393675 -2.0207259421636765 -3.500000000000008 #
straight-curve $-1 -1 $-1 0 -4.0414518843273806 1.1990849472154713e-015 10 0 0 I I #
plane-surface $-1 -1 $-1 0 -4.0414518843273806 1.1990849472154713e-015 0 -0.86602540378443871 0.49999999999999989 0 -4.9999999999999991 -8.6602540378443873 forward_v I I I I #
straight-curve $-1 -1 $-1 0 -2.0207259421636801 -3.5000000000000089 10 0 0 I I #
intcurve-curve $-1 -1 $-1 forward { exactcur full nurbs 2 open 2 
	0 2 0.40895264832727352 2 
	2.5698499607760628 -2.0207259421636801 -3.5000000000000098 1 
	3.1531832941094007 -3.0310889132455316 -1.7500000000000022 1.1547005383792535 
	2.5698499607760628 -4.0414518843273832 5.7759414041851598e-015 1 
	0 
	null_surface 
	null_surface 
	nullbs 
	nullbs 
	I I 
	0 
	0 
	0 
	F 1 F 0 } I I #
point $-1 -1 $-1 2.5698499607760636 -4.0414518843273806 1.9428902930940239e-015 #
point $-1 -1 $-1 2.5698499607760636 -2.0207259421636765 -3.500000000000008 #
End-of-ACIS-data 