700 0 1 0           
33 Autodesk Inventor 17.0.13800.0000 19 ASM 218.0.0.5119 NT 24 Tue Dec 10 11:02:05 2013 
1 9.9999999999999995e-007 1e-010 
body $-1 -1 $-1 $1 $-1 $-1 #
lump $-1 -1 $-1 $-1 $2 $0 #
shell $-1 -1 $-1 $-1 $-1 $3 $-1 $1 #
face $-1 -1 $-1 $4 $5 $2 $-1 $6 forward single #
face $-1 -1 $-1 $7 $8 $2 $-1 $9 forward single #
loop $-1 -1 $-1 $10 $11 $3 #
torus-surface $-1 -1 $-1 0.10000000000000231 -1.1267721865705769e-016 0 1 7.0866175256011129e-018 0 2.0999999999999988 -0.10000000000000002 0 0 -1 forward_v I I I I #
face $-1 -1 $-1 $12 $13 $2 $-1 $14 forward single #
loop $-1 -1 $-1 $15 $16 $4 #
cone-surface $-1 -1 $-1 8.8750000000000036 -5.0492149869907928e-017 0 1 7.0866175256011129e-018 0 0 1.9999999999999984 0 1 I I 0 1 1.9999999999999984 forward I I I I #
loop $-1 -1 $-1 $-1 $17 $3 #
coedge $-1 -1 $-1 $11 $11 $18 $19 forward $5 $-1 #
face $-1 -1 $-1 $20 $21 $2 $-1 $22 forward single #
loop $-1 -1 $-1 $23 $24 $7 #
plane-surface $-1 -1 $-1 2.2204460492503131e-015 2.7500000000000018 0 1 7.0866175256011129e-018 0 0 0 -10 forward_v I I I I #
loop $-1 -1 $-1 $-1 $25 $4 #
coedge $-1 -1 $-1 $16 $16 $26 $27 reversed $8 $-1 #
coedge $-1 -1 $-1 $17 $17 $25 $28 forward $10 $-1 #
coedge $-1 -1 $-1 $18 $18 $11 $19 reversed $23 $-1 #
edge $-1 -1 $-1 $29 -3.1415926535897931 $29 3.1415926535897931 $18 $30 forward @7 tangent #
face $-1 -1 $-1 $31 $32 $2 $-1 $33 forward single #
loop $-1 -1 $-1 $34 $26 $12 #
cone-surface $-1 -1 $-1 15.785292500000006 -1.5215499323779814e-018 0 1 7.0866175256011129e-018 0 5.56506759322311e-018 -1.7852924999999993 0 1 I I -0.70710678118654691 0.70710678118654824 1.7852924999999993 forward I I I I #
loop $-1 -1 $-1 $-1 $18 $7 #
coedge $-1 -1 $-1 $24 $24 $35 $36 forward $13 $-1 #
coedge $-1 -1 $-1 $25 $25 $17 $28 reversed $15 $-1 #
coedge $-1 -1 $-1 $26 $26 $16 $27 forward $21 $-1 #
edge $-1 -1 $-1 $37 -3.1415926535897931 $37 3.1415926535897931 $16 $38 forward @7 unknown #
edge $-1 -1 $-1 $39 -3.1415926535897931 $39 3.1415926535897931 $25 $40 forward @7 tangent #
vertex $-1 -1 $-1 $19 $41 #
ellipse-curve $-1 -1 $-1 2.2377932840100812e-015 -1.1338588040961781e-016 0 1 7.0866175256011129e-018 0 1.4881896803762327e-017 -2.0999999999999988 2.57175827820944e-016 1 I I #
face $-1 -1 $-1 $42 $43 $2 $-1 $44 forward single #
loop $-1 -1 $-1 $-1 $45 $20 #
plane-surface $-1 -1 $-1 16.000000000000007 0.99999999999999978 0 1 7.0866175256011129e-018 0 0 0 -10 forward_v I I I I #
loop $-1 -1 $-1 $-1 $46 $12 #
coedge $-1 -1 $-1 $35 $35 $24 $36 reversed $47 $-1 #
edge $-1 -1 $-1 $48 0 $48 6.2831853071795862 $24 $49 forward @7 unknown #
vertex $-1 -1 $-1 $27 $50 #
ellipse-curve $-1 -1 $-1 15.570585000000005 -3.0430998647559812e-018 0 1 7.0866175256011129e-018 0 -0 -1.9999999999999984 -0 1 I I #
vertex $-1 -1 $-1 $28 $51 #
ellipse-curve $-1 -1 $-1 0.10000000000000231 -1.1267721865705769e-016 0 -1 -7.0866175256011129e-018 -0 1.7347234759768046e-017 -1.9999999999999984 2.4492935982947044e-016 1 I I #
point $-1 -1 $-1 2.2229113872063187e-015 2.0999999999999988 0 #
face $-1 -1 $-1 $52 $53 $2 $-1 $54 forward single #
loop $-1 -1 $-1 $55 $56 $31 #
torus-surface $-1 -1 $-1 -3.5999999999999943 -1.3889770350178178e-016 0 1 7.0866175256011129e-018 0 3.1000000000000014 0.40000000000000008 0 0 -1 forward_v I I I I #
coedge $-1 -1 $-1 $45 $45 $46 $57 reversed $32 $-1 #
coedge $-1 -1 $-1 $46 $46 $45 $57 forward $34 $-1 #
loop $-1 -1 $-1 $58 $35 $52 #
vertex $-1 -1 $-1 $36 $59 #
ellipse-curve $-1 -1 $-1 2.2204460492503131e-015 -1.1338588040961781e-016 0 1 7.0866175256011129e-018 0 0 3.5000000000000027 0 1 I I #
point $-1 -1 $-1 15.570585000000005 1.9999999999999984 2.4492935982947044e-016 #
point $-1 -1 $-1 0.1000000000000023 1.9999999999999984 -4.8985871965894089e-016 #
face $-1 -1 $-1 $60 $47 $2 $-1 $61 forward single #
loop $-1 -1 $-1 $62 $63 $42 #
plane-surface $-1 -1 $-1 -3.9999999999999942 2.6160254037844402 0 -1 -7.0866175256011129e-018 -0 0 0 10 forward_v I I I I #
loop $-1 -1 $-1 $-1 $64 $31 #
coedge $-1 -1 $-1 $56 $56 $65 $66 forward $43 $-1 #
edge $-1 -1 $-1 $67 -3.1415926535897931 $67 3.1415926535897931 $45 $68 forward @7 unknown #
loop $-1 -1 $-1 $-1 $69 $52 #
point $-1 -1 $-1 2.2204460492503131e-015 3.5000000000000027 0 #
face $-1 -1 $-1 $70 $71 $2 $-1 $72 reversed single #
cone-surface $-1 -1 $-1 -1.9999999999999973 -1.2755911546082003e-016 0 1 7.0866175256011129e-018 0 0 3.5000000000000018 0 1 I I 0 1 3.5000000000000018 forward I I I I #
loop $-1 -1 $-1 $-1 $65 $42 #
coedge $-1 -1 $-1 $73 $74 $75 $76 forward $53 $-1 #
coedge $-1 -1 $-1 $64 $64 $69 $77 forward $55 $-1 #
coedge $-1 -1 $-1 $65 $65 $56 $66 reversed $62 $-1 #
edge $-1 -1 $-1 $78 -3.1415926535897931 $78 3.1415926535897931 $65 $79 forward @7 tangent #
vertex $-1 -1 $-1 $57 $80 #
ellipse-curve $-1 -1 $-1 16.000000000000007 1.8296334471678741e-032 0 -1 -7.0866175256011129e-018 -0 1.113013518644622e-017 -1.5705849999999997 0 1 I I #
coedge $-1 -1 $-1 $69 $69 $64 $77 reversed $58 $-1 #
face $-1 -1 $-1 $81 $82 $2 $-1 $83 reversed single #
loop $-1 -1 $-1 $-1 $84 $60 #
plane-surface $-1 -1 $-1 -3.9999999999999942 -3.5061926585244581e-016 -1.7320508075688772 3.5433087628005588e-018 -0.50000000000000033 -0.8660254037844386 -10 0 -4.0914605360497248e-017 forward_v I I I I #
coedge $-1 -1 $-1 $85 $63 $86 $87 forward $53 $-1 #
coedge $-1 -1 $-1 $63 $88 $89 $90 forward $53 $-1 #
coedge $-1 -1 $-1 $91 $92 $63 $76 reversed $93 $-1 #
edge $-1 -1 $-1 $94 -0.1299038105676657 $95 0.043301270189221905 $63 $96 forward @7 unknown #
edge $-1 -1 $-1 $97 -3.1415926535897931 $97 3.1415926535897931 $69 $98 forward @7 tangent #
vertex $-1 -1 $-1 $66 $99 #
ellipse-curve $-1 -1 $-1 -3.9999999999999942 -1.4173235051202223e-016 0 1 7.0866175256011129e-018 0 2.1968514329363459e-017 -3.1000000000000014 3.7964050773567969e-016 1 I I #
point $-1 -1 $-1 16.000000000000007 1.5705849999999997 -1.923411893038845e-016 #
face $-1 -1 $-1 $100 $93 $2 $-1 $101 reversed single #
loop $-1 -1 $-1 $-1 $102 $70 #
plane-surface $-1 -1 $-1 -3.9999999999999942 1.4999999999999989 -0.86602540378443948 -3.5433087628005549e-018 0.49999999999999983 -0.86602540378443882 -10 0 4.0914605360497193e-017 forward_v I I I I #
coedge $-1 -1 $-1 $103 $104 $105 $106 reversed $71 $-1 #
coedge $-1 -1 $-1 $107 $73 $108 $109 forward $53 $-1 #
coedge $-1 -1 $-1 $110 $111 $73 $87 reversed $112 $-1 #
edge $-1 -1 $-1 $95 -0.12990381056766587 $113 0.043301270189221988 $73 $114 forward @7 unknown #
coedge $-1 -1 $-1 $74 $107 $115 $116 forward $53 $-1 #
coedge $-1 -1 $-1 $117 $118 $74 $90 reversed $82 $-1 #
edge $-1 -1 $-1 $119 -0.12990381056766573 $94 0.043301270189221891 $74 $120 forward @7 unknown #
coedge $-1 -1 $-1 $121 $75 $118 $122 reversed $93 $-1 #
coedge $-1 -1 $-1 $75 $121 $110 $123 forward $93 $-1 #
loop $-1 -1 $-1 $-1 $121 $81 #
vertex $-1 -1 $-1 $76 $124 #
vertex $-1 -1 $-1 $87 $125 #
straight-curve $-1 -1 $-1 -3.9999999999999942 1.5000000000000002 0.43301270189221763 -6.8136505372013844e-032 9.6148134319178273e-015 10 I I #
vertex $-1 -1 $-1 $77 $126 #
ellipse-curve $-1 -1 $-1 -3.5999999999999943 -1.3889770350178178e-016 0 -1 -7.0866175256011129e-018 -0 0 -3.5000000000000018 4.2862637970157386e-016 1 I I #
point $-1 -1 $-1 -3.9999999999999942 3.1000000000000014 0 #
face $-1 -1 $-1 $127 $112 $2 $-1 $128 reversed single #
plane-surface $-1 -1 $-1 -3.9999999999999942 1.5000000000000004 0.86602540378443671 -7.0866175256011129e-018 1 -9.6148134319178265e-016 0 9.6148134319178273e-015 10 forward_v I I I I #
coedge $-1 -1 $-1 $118 $117 $129 $130 reversed $82 $-1 #
coedge $-1 -1 $-1 $115 $84 $117 $131 forward $71 $-1 #
coedge $-1 -1 $-1 $84 $115 $132 $133 reversed $71 $-1 #
coedge $-1 -1 $-1 $134 $129 $84 $106 forward $135 $-1 #
edge $-1 -1 $-1 $136 0 $137 0.17526542071168913 $105 $138 forward @7 unknown #
coedge $-1 -1 $-1 $88 $85 $139 $140 forward $53 $-1 #
coedge $-1 -1 $-1 $141 $142 $85 $109 reversed $143 $-1 #
edge $-1 -1 $-1 $113 -0.12990381056766584 $144 0.043301270189221933 $85 $145 forward @7 unknown #
coedge $-1 -1 $-1 $146 $86 $92 $123 reversed $112 $-1 #
coedge $-1 -1 $-1 $86 $146 $141 $147 reversed $112 $-1 #
loop $-1 -1 $-1 $-1 $146 $100 #
vertex $-1 -1 $-1 $109 $148 #
straight-curve $-1 -1 $-1 -3.9999999999999942 0.37500000000000028 1.5155444566227672 6.1371908040745798e-017 -8.660254037844382 5.0000000000000071 I I #
coedge $-1 -1 $-1 $104 $103 $88 $116 reversed $71 $-1 #
edge $-1 -1 $-1 $149 -0.12990381056766584 $119 0.043301270189221953 $88 $150 forward @7 unknown #
coedge $-1 -1 $-1 $102 $89 $103 $131 reversed $82 $-1 #
coedge $-1 -1 $-1 $89 $102 $91 $122 forward $82 $-1 #
vertex $-1 -1 $-1 $90 $151 #
straight-curve $-1 -1 $-1 -3.9999999999999942 1.1249999999999991 -1.0825317547305489 -6.1371908040745835e-017 8.6602540378443891 4.9999999999999982 I I #
coedge $-1 -1 $-1 $92 $91 $152 $153 reversed $93 $-1 #
edge $-1 -1 $-1 $154 -0.10000000000000014 $94 0.10000000000000003 $118 $155 forward @7 unknown #
edge $-1 -1 $-1 $156 -0.10000000000000017 $95 0.10000000000000003 $92 $157 forward @7 unknown #
point $-1 -1 $-1 -3.9999999999999942 1.4999999999999989 -0.86602540378443948 #
point $-1 -1 $-1 -3.9999999999999942 1.5000000000000004 0.86602540378443671 #
point $-1 -1 $-1 -3.5999999999999943 3.5000000000000018 -8.5725275940314771e-016 #
face $-1 -1 $-1 $158 $159 $2 $-1 $160 reversed single #
plane-surface $-1 -1 $-1 -3.9999999999999942 -2.8346470102404415e-017 1.7320508075688772 -3.5433087628005611e-018 0.50000000000000067 0.86602540378443826 10 0 4.0914605360497297e-017 forward_v I I I I #
coedge $-1 -1 $-1 $105 $152 $102 $130 forward $135 $-1 #
edge $-1 -1 $-1 $154 0 $136 0.17526542071168899 $129 $161 forward @7 unknown #
edge $-1 -1 $-1 $136 -0.10000000000000014 $119 0.10000000000000003 $103 $162 forward @7 unknown #
coedge $-1 -1 $-1 $139 $163 $104 $133 forward $159 $-1 #
edge $-1 -1 $-1 $137 -0.10000000000000014 $149 0.10000000000000003 $132 $164 forward @7 unknown #
coedge $-1 -1 $-1 $165 $105 $163 $166 forward $135 $-1 #
loop $-1 -1 $-1 $167 $168 $169 #
vertex $-1 -1 $-1 $130 $170 #
vertex $-1 -1 $-1 $106 $171 #
intcurve-curve $-1 -1 $-1 forward { exactcur full nurbs 2 open 2 
	0 2 0.17526542071168913 2 
	-1.9999999999999938 4.9776982306702879e-015 -1.7320508075688803 1 
	-1.7499999999999907 -0.75000000000000067 -1.2990381056766576 1.1547005383792586 
	-1.9999999999999938 -1.5000000000000062 -0.86602540378443482 1 
	0 
	null_surface 
	null_surface 
	nullbs 
	nullbs 
	I I 
	0 
	0 
	0 
	F 1 F 0 } I I #
coedge $-1 -1 $-1 $172 $132 $107 $140 reversed $159 $-1 #
edge $-1 -1 $-1 $144 -0.12990381056766578 $149 0.043301270189221919 $107 $173 forward @7 unknown #
coedge $-1 -1 $-1 $174 $108 $111 $147 forward $143 $-1 #
coedge $-1 -1 $-1 $108 $174 $172 $175 forward $143 $-1 #
loop $-1 -1 $-1 $-1 $174 $158 #
vertex $-1 -1 $-1 $140 $176 #
straight-curve $-1 -1 $-1 -3.9999999999999942 -1.1250000000000002 1.0825317547305486 6.1371908040745835e-017 -8.6602540378443873 -4.9999999999999991 I I #
coedge $-1 -1 $-1 $111 $110 $168 $177 reversed $112 $-1 #
edge $-1 -1 $-1 $113 -0.10000000000000003 $178 0.10000000000000014 $141 $179 forward @7 unknown #
point $-1 -1 $-1 -3.9999999999999942 7.0382697232959162e-017 1.7320508075688776 #
vertex $-1 -1 $-1 $116 $180 #
straight-curve $-1 -1 $-1 -3.9999999999999942 -0.37500000000000056 -1.5155444566227678 -6.1371908040745823e-017 8.6602540378443855 -5.0000000000000036 I I #
point $-1 -1 $-1 -3.9999999999999942 -3.5061926585244581e-016 -1.7320508075688772 #
coedge $-1 -1 $-1 $129 $168 $121 $153 forward $135 $-1 #
edge $-1 -1 $-1 $156 0 $154 0.17526542071168918 $152 $181 forward @7 unknown #
vertex $-1 -1 $-1 $153 $182 #
straight-curve $-1 -1 $-1 -2.9999999999999938 1.4999999999999989 -0.86602540378444059 -10 -7.0866175256011129e-017 -0 I I #
vertex $-1 -1 $-1 $177 $183 #
straight-curve $-1 -1 $-1 -2.9999999999999938 1.5000000000000011 0.86602540378443671 -10 -7.0866175256011129e-017 0 I I #
face $-1 -1 $-1 $169 $143 $2 $-1 $184 reversed single #
loop $-1 -1 $-1 $-1 $163 $127 #
plane-surface $-1 -1 $-1 -3.9999999999999942 -1.5000000000000004 -0.86602540378443815 7.0866175256011129e-018 -1 1.602468905319637e-016 0 -1.602468905319637e-015 -10 forward_v I I I I #
intcurve-curve $-1 -1 $-1 forward { exactcur full nurbs 2 open 2 
	0 2 0.17526542071168899 2 
	-1.9999999999999933 1.5000000000000047 -0.86602540378443615 1 
	-1.7499999999999907 0.74999999999999944 -1.2990381056766584 1.154700538379251 
	-1.9999999999999933 -5.7081983813468627e-015 -1.7320508075688807 1 
	0 
	null_surface 
	null_surface 
	nullbs 
	nullbs 
	I I 
	0 
	0 
	0 
	F 1 F 0 } I I #
straight-curve $-1 -1 $-1 -2.9999999999999938 -5.5511151231257827e-016 -1.7320508075688772 -10 -7.0866175256011129e-017 -0 I I #
coedge $-1 -1 $-1 $132 $172 $134 $166 reversed $159 $-1 #
straight-curve $-1 -1 $-1 -2.9999999999999938 -1.5000000000000004 -0.86602540378443793 -10 -7.0866175256011129e-017 -0 I I #
coedge $-1 -1 $-1 $168 $134 $174 $185 forward $135 $-1 #
edge $-1 -1 $-1 $137 0 $186 0.1752654207116891 $134 $187 forward @7 unknown #
loop $-1 -1 $-1 $-1 $188 $169 #
coedge $-1 -1 $-1 $152 $165 $146 $177 forward $135 $-1 #
face $-1 -1 $-1 $-1 $135 $2 $-1 $189 forward single #
point $-1 -1 $-1 -1.9999999999999925 -1.2348276676520987e-015 -1.7320508075688772 #
point $-1 -1 $-1 -1.9999999999999925 -1.5000000000000009 -0.86602540378443782 #
coedge $-1 -1 $-1 $163 $139 $142 $175 reversed $159 $-1 #
straight-curve $-1 -1 $-1 -3.9999999999999942 -1.5000000000000004 -0.43301270189221891 1.1356084228668969e-032 -1.602468905319637e-015 -10 I I #
coedge $-1 -1 $-1 $142 $141 $165 $185 reversed $143 $-1 #
edge $-1 -1 $-1 $186 -0.10000000000000014 $144 0.10000000000000003 $142 $190 forward @7 unknown #
point $-1 -1 $-1 -3.9999999999999942 -1.5000000000000002 0.86602540378443893 #
edge $-1 -1 $-1 $178 0 $156 0.17526542071168921 $168 $191 forward @7 unknown #
vertex $-1 -1 $-1 $185 $192 #
straight-curve $-1 -1 $-1 -2.9999999999999938 0 1.7320508075688772 10 7.0866175256011129e-017 0 I I #
point $-1 -1 $-1 -3.9999999999999942 -1.5000000000000004 -0.86602540378443815 #
intcurve-curve $-1 -1 $-1 forward { exactcur full nurbs 2 open 2 
	0 2 0.17526542071168918 2 
	-1.9999999999999938 1.5000000000000004 0.86602540378444404 1 
	-1.7499999999999905 1.4999999999999996 -1.5265566588595902e-015 1.1547005383792561 
	-1.9999999999999938 1.4999999999999991 -0.86602540378444715 1 
	0 
	null_surface 
	null_surface 
	nullbs 
	nullbs 
	I I 
	0 
	0 
	0 
	F 1 F 0 } I I #
point $-1 -1 $-1 -1.9999999999999925 1.4999999999999991 -0.86602540378444059 #
point $-1 -1 $-1 -1.999999999999992 1.5000000000000013 0.86602540378443638 #
plane-surface $-1 -1 $-1 -3.9999999999999942 -1.5000000000000002 0.86602540378443893 3.5433087628005557e-018 -0.49999999999999989 0.86602540378443871 10 0 -4.0914605360497211e-017 forward_v I I I I #
edge $-1 -1 $-1 $186 0 $178 0.17526542071168921 $165 $193 forward @7 unknown #
vertex $-1 -1 $-1 $166 $194 #
intcurve-curve $-1 -1 $-1 forward { exactcur full nurbs 2 open 2 
	0 2 0.1752654207116891 2 
	-1.9999999999999933 -1.5000000000000002 -0.86602540378444481 1 
	-1.7499999999999905 -1.5000000000000002 -2.434531472846489e-017 1.1547005383792484 
	-1.9999999999999938 -1.5000000000000002 0.86602540378444559 1 
	0 
	null_surface 
	null_surface 
	nullbs 
	nullbs 
	I I 
	0 
	0 
	0 
	F 1 F 0 } I I #
coedge $-1 -1 $-1 $188 $188 $-1 $195 forward $167 $-1 #
cone-surface $-1 -1 $-1 -1.4999999999999925 -1.2401580669801946e-016 0 1 7.0866175256011129e-018 0 0 0.86602540378443882 0 1 I I 0.86602540378443893 -0.4999999999999995 0.86602540378443882 forward I I I I #
straight-curve $-1 -1 $-1 -2.9999999999999938 -1.5000000000000004 0.86602540378443782 -10 -7.0866175256011129e-017 0 I I #
intcurve-curve $-1 -1 $-1 forward { exactcur full nurbs 2 open 2 
	0 2 0.17526542071168921 2 
	-1.9999999999999933 -5.5694205032687165e-015 1.7320508075688803 1 
	-1.7499999999999902 0.75000000000000044 1.2990381056766571 1.154700538379251 
	-1.9999999999999933 1.5000000000000062 0.86602540378443338 1 
	0 
	null_surface 
	null_surface 
	nullbs 
	nullbs 
	I I 
	0 
	0 
	0 
	F 1 F 0 } I I #
point $-1 -1 $-1 -1.9999999999999925 -4.021603991832315e-016 1.7320508075688772 #
intcurve-curve $-1 -1 $-1 forward { exactcur full nurbs 2 open 2 
	0 2 0.17526542071168921 2 
	-1.9999999999999938 -1.5000000000000062 0.86602540378443527 1 
	-1.7499999999999905 -0.75000000000000078 1.2990381056766578 1.154700538379251 
	-1.9999999999999938 6.0879212552954476e-015 1.7320508075688807 1 
	0 
	null_surface 
	null_surface 
	nullbs 
	nullbs 
	I I 
	0 
	0 
	0 
	F 1 F 0 } I I #
point $-1 -1 $-1 -1.9999999999999925 -1.5000000000000002 0.86602540378443893 #
edge $-1 -1 $-1 $196 1 $196 0 $188 $-1 forward @7 unknown #
vertex $-1 -1 $-1 $195 $197 #
point $-1 -1 $-1 -0.99999999999999312 -1.2047249793521888e-016 0 #
End-of-ACIS-data 