700 0 1 0           
33 Autodesk Inventor 17.0.13800.0000 19 ASM 218.0.0.5119 NT 24 Tue Dec 10 11:02:09 2013 
1 9.9999999999999995e-007 1e-010 
body $-1 -1 $-1 $1 $-1 $-1 #
lump $-1 -1 $-1 $-1 $2 $0 #
shell $-1 -1 $-1 $-1 $-1 $3 $-1 $1 #
face $-1 -1 $-1 $4 $5 $2 $-1 $6 forward single #
face $-1 -1 $-1 $7 $8 $2 $-1 $9 forward single #
loop $-1 -1 $-1 $10 $11 $3 #
torus-surface $-1 -1 $-1 0.10000000000000009 6.3441315692866849e-018 0 1 6.3441315692866097e-017 -9.8655154798765252e-034 4.1000000000000005 -0.10000000000000002 -9.8655154798765252e-034 0 -1 forward_v I I I I #
face $-1 -1 $-1 $12 $13 $2 $-1 $14 forward single #
loop $-1 -1 $-1 $15 $16 $4 #
cone-surface $-1 -1 $-1 17.5 1.1102230246251565e-015 0 1 6.3441315692866085e-017 0 0 4 0 1 I I 0 1 4 forward I I I I #
loop $-1 -1 $-1 $-1 $17 $3 #
coedge $-1 -1 $-1 $11 $11 $18 $19 forward $5 $-1 #
face $-1 -1 $-1 $20 $21 $2 $-1 $22 forward single #
loop $-1 -1 $-1 $23 $24 $7 #
plane-surface $-1 -1 $-1 -9.3553792460791389e-017 0 4.8572257327350599e-016 1 6.3441315692866097e-017 -9.8655154798765252e-034 -9.8655154798765252e-033 0 -10 forward_v I I I I #
loop $-1 -1 $-1 $-1 $25 $4 #
coedge $-1 -1 $-1 $16 $16 $26 $27 reversed $8 $-1 #
coedge $-1 -1 $-1 $17 $17 $25 $28 forward $10 $-1 #
coedge $-1 -1 $-1 $18 $18 $11 $19 reversed $23 $-1 #
edge $-1 -1 $-1 $29 -3.1415926535897931 $29 3.1415926535897931 $18 $30 forward @7 tangent #
face $-1 -1 $-1 $31 $32 $2 $-1 $33 forward single #
loop $-1 -1 $-1 $34 $26 $12 #
cone-surface $-1 -1 $-1 34.616543750000005 2.1961190802396603e-015 0 1 6.3441315692866134e-017 0 1.0255883444086431e-016 -3.6165937500000012 0 1 I I -0.70706067580053322 0.70715288356655492 3.6165937500000012 forward I I I I #
loop $-1 -1 $-1 $-1 $18 $7 #
coedge $-1 -1 $-1 $35 $36 $37 $38 forward $13 $-1 #
coedge $-1 -1 $-1 $25 $25 $17 $28 reversed $15 $-1 #
coedge $-1 -1 $-1 $26 $26 $16 $27 forward $21 $-1 #
edge $-1 -1 $-1 $39 -3.1415926535897931 $39 3.1415926535897931 $16 $40 forward @7 unknown #
edge $-1 -1 $-1 $41 -3.1415926535897931 $41 3.1415926535897931 $25 $42 forward @7 tangent #
vertex $-1 -1 $-1 $19 $43 #
ellipse-curve $-1 -1 $-1 -8.6736173798840355e-017 6.4518653136972401e-032 9.8655154798765419e-035 1 6.3441315692866097e-017 -9.8655154798765252e-034 2.6010939434075102e-016 -4.1000000000000005 5.0210518765041484e-016 1 I I #
face $-1 -1 $-1 $44 $45 $2 $-1 $46 reversed single #
loop $-1 -1 $-1 $-1 $47 $20 #
plane-surface $-1 -1 $-1 35 2.0000000000000036 0 1 6.3441315692866085e-017 0 0 0 -10 forward_v I I I I #
loop $-1 -1 $-1 $-1 $48 $12 #
coedge $-1 -1 $-1 $49 $24 $50 $51 forward $13 $-1 #
coedge $-1 -1 $-1 $24 $52 $53 $54 forward $13 $-1 #
coedge $-1 -1 $-1 $55 $56 $24 $38 reversed $57 $-1 #
edge $-1 -1 $-1 $58 0 $59 0.75055534994651318 $24 $60 forward @7 unknown #
vertex $-1 -1 $-1 $27 $61 #
ellipse-curve $-1 -1 $-1 34.233087499999996 2.171792111229008e-015 0 1 6.3441315692866085e-017 0 -0 -4 -0 1 I I #
vertex $-1 -1 $-1 $28 $62 #
ellipse-curve $-1 -1 $-1 0.10000000000000009 6.3441315692866849e-018 0 -1 -6.3441315692866097e-017 9.8655154798765252e-034 2.6020852139652126e-016 -4 4.8985871965894128e-016 1 I I #
point $-1 -1 $-1 -3.4684556813959138e-016 4.1000000000000005 0 #
face $-1 -1 $-1 $63 $64 $2 $-1 $46 reversed single #
loop $-1 -1 $-1 $-1 $65 $31 #
cone-surface $-1 -1 $-1 -5.3047223250267486 2.2472682101543594e-015 0 -1 4.4318280662745927e-016 0 2.4418899492478297e-015 7.1499999999999986 0 1 I I 0.86602540378443926 -0.499999999999999 7.1499999999999986 forward I I I I #
coedge $-1 -1 $-1 $47 $47 $48 $66 reversed $32 $-1 #
coedge $-1 -1 $-1 $48 $48 $47 $66 forward $34 $-1 #
coedge $-1 -1 $-1 $67 $35 $68 $69 forward $13 $-1 #
coedge $-1 -1 $-1 $70 $71 $35 $51 reversed $72 $-1 #
edge $-1 -1 $-1 $59 0 $73 0.75055534994651307 $35 $74 forward @7 unknown #
coedge $-1 -1 $-1 $36 $67 $75 $76 forward $13 $-1 #
coedge $-1 -1 $-1 $77 $78 $36 $54 reversed $79 $-1 #
edge $-1 -1 $-1 $80 0 $58 0.75055534994651341 $36 $81 forward @7 unknown #
coedge $-1 -1 $-1 $82 $37 $78 $83 forward $57 $-1 #
coedge $-1 -1 $-1 $37 $84 $70 $85 reversed $57 $-1 #
loop $-1 -1 $-1 $-1 $84 $86 #
vertex $-1 -1 $-1 $38 $87 #
vertex $-1 -1 $-1 $38 $88 #
straight-curve $-1 -1 $-1 -5.6971598147005477e-016 7.5055534994651314 7.0776717819853729e-015 3.1720657846433099e-016 -5.0000000000000089 8.660254037844382 F 0 F 0.75055534994651318 #
point $-1 -1 $-1 34.233087499999996 4.0000000000000027 4.8985871965894128e-016 #
point $-1 -1 $-1 0.099999999999999825 4 -9.7971743931788257e-016 #
face $-1 -1 $-1 $89 $90 $2 $-1 $46 reversed single #
loop $-1 -1 $-1 $-1 $91 $44 #
coedge $-1 -1 $-1 $92 $93 $82 $94 reversed $45 $-1 #
edge $-1 -1 $-1 $95 -3.1415926535897931 $95 3.1415926535897931 $47 $96 forward @7 unknown #
coedge $-1 -1 $-1 $52 $49 $97 $98 forward $13 $-1 #
coedge $-1 -1 $-1 $99 $100 $49 $69 reversed $101 $-1 #
edge $-1 -1 $-1 $73 0 $102 0.75055534994651307 $49 $103 forward @7 unknown #
coedge $-1 -1 $-1 $104 $50 $56 $85 forward $72 $-1 #
coedge $-1 -1 $-1 $50 $105 $99 $106 reversed $72 $-1 #
loop $-1 -1 $-1 $-1 $105 $107 #
vertex $-1 -1 $-1 $51 $108 #
straight-curve $-1 -1 $-1 -3.3163488696542267e-016 3.7527767497325604 6.5 6.3441315692866099e-016 -10 -7.3960103322444804e-015 F 0 F 0.75055534994651307 #
coedge $-1 -1 $-1 $109 $110 $52 $76 reversed $111 $-1 #
edge $-1 -1 $-1 $112 0 $80 0.75055534994651318 $52 $113 forward @7 unknown #
coedge $-1 -1 $-1 $114 $53 $110 $115 forward $79 $-1 #
coedge $-1 -1 $-1 $53 $116 $55 $83 reversed $79 $-1 #
loop $-1 -1 $-1 $-1 $116 $117 #
vertex $-1 -1 $-1 $76 $118 #
straight-curve $-1 -1 $-1 -3.3163488696542317e-016 3.7527767497325684 -6.4999999999999947 -3.172065784643301e-016 4.9999999999999956 8.6602540378443891 F 0 F 0.75055534994651341 #
coedge $-1 -1 $-1 $84 $55 $65 $94 forward $57 $-1 #
edge $-1 -1 $-1 $58 0 $119 0.50994434163992375 $55 $120 forward @7 unknown #
coedge $-1 -1 $-1 $56 $82 $121 $122 forward $57 $-1 #
edge $-1 -1 $-1 $59 0 $123 0.50994434163992408 $70 $124 forward @7 unknown #
face $-1 -1 $-1 $125 $57 $2 $-1 $126 forward single #
point $-1 -1 $-1 -5.6971598147005477e-016 7.5055534994651314 7.0776717819853729e-015 #
point $-1 -1 $-1 -3.3163488696542267e-016 3.7527767497325604 6.5 #
face $-1 -1 $-1 $127 $128 $2 $-1 $46 reversed single #
loop $-1 -1 $-1 $-1 $129 $63 #
coedge $-1 -1 $-1 $121 $130 $104 $131 reversed $64 $-1 #
coedge $-1 -1 $-1 $93 $65 $116 $132 reversed $45 $-1 #
coedge $-1 -1 $-1 $65 $92 $133 $134 reversed $45 $-1 #
edge $-1 -1 $-1 $119 0.050974702959192743 $135 0.43900086820229389 $82 $136 forward @7 unknown #
vertex $-1 -1 $-1 $66 $137 #
ellipse-curve $-1 -1 $-1 35 2.2204460492503131e-015 0 -1 -6.3441315692866085e-017 0 2.0511766888172862e-016 -3.2331875000000028 0 1 I I #
coedge $-1 -1 $-1 $138 $139 $67 $98 reversed $140 $-1 #
edge $-1 -1 $-1 $102 0 $112 0.75055534994651307 $67 $141 forward @7 unknown #
coedge $-1 -1 $-1 $142 $68 $71 $106 forward $101 $-1 #
coedge $-1 -1 $-1 $68 $143 $138 $144 reversed $101 $-1 #
loop $-1 -1 $-1 $-1 $142 $145 #
vertex $-1 -1 $-1 $69 $146 #
straight-curve $-1 -1 $-1 1.4452730204384046e-016 -3.7527767497325701 6.4999999999999947 3.172065784643301e-016 -4.9999999999999947 -8.6602540378443891 F 0 F 0.75055534994651307 #
coedge $-1 -1 $-1 $105 $70 $91 $131 forward $72 $-1 #
coedge $-1 -1 $-1 $71 $104 $147 $148 forward $72 $-1 #
edge $-1 -1 $-1 $73 0 $149 0.50994434163992408 $99 $150 forward @7 unknown #
face $-1 -1 $-1 $117 $72 $2 $-1 $151 forward single #
point $-1 -1 $-1 1.4452730204384046e-016 -3.7527767497325701 6.4999999999999947 #
coedge $-1 -1 $-1 $152 $75 $139 $153 forward $111 $-1 #
coedge $-1 -1 $-1 $75 $154 $77 $115 reversed $111 $-1 #
loop $-1 -1 $-1 $-1 $152 $155 #
vertex $-1 -1 $-1 $98 $156 #
straight-curve $-1 -1 $-1 1.4452730204383999e-016 -3.752776749732563 -6.4999999999999982 -6.344131569286608e-016 10 4.4376061993466881e-015 F 0 F 0.75055534994651318 #
coedge $-1 -1 $-1 $116 $77 $157 $158 forward $79 $-1 #
edge $-1 -1 $-1 $80 0 $159 0.50994434163992408 $77 $160 forward @7 unknown #
coedge $-1 -1 $-1 $78 $114 $92 $132 forward $79 $-1 #
face $-1 -1 $-1 $86 $79 $2 $-1 $161 forward single #
point $-1 -1 $-1 -3.3163488696542317e-016 3.7527767497325684 -6.4999999999999947 #
vertex $-1 -1 $-1 $94 $162 #
straight-curve $-1 -1 $-1 -5.6971598147005477e-016 7.5055534994651314 7.0776717819853729e-015 -10 0 0 I I #
coedge $-1 -1 $-1 $130 $91 $84 $122 reversed $64 $-1 #
edge $-1 -1 $-1 $135 0.43900086820229389 $123 0.82702703344539397 $84 $163 forward @7 unknown #
vertex $-1 -1 $-1 $122 $164 #
straight-curve $-1 -1 $-1 -3.3163488696542267e-016 3.7527767497325604 6.5 -10 0 0 I I #
face $-1 -1 $-1 $-1 $165 $2 $-1 $166 reversed single #
plane-surface $-1 -1 $-1 -5.6971598147005477e-016 7.5055534994651314 7.0776717819853729e-015 0 0.86602540378443826 0.50000000000000089 10 0 0 forward_v I I I I #
face $-1 -1 $-1 $167 $168 $2 $-1 $46 reversed single #
loop $-1 -1 $-1 $-1 $169 $89 #
coedge $-1 -1 $-1 $147 $170 $142 $171 reversed $90 $-1 #
coedge $-1 -1 $-1 $91 $121 $172 $173 reversed $64 $-1 #
edge $-1 -1 $-1 $123 0.050974702959194512 $174 0.43900086820229522 $104 $175 forward @7 unknown #
edge $-1 -1 $-1 $176 0.43900086820229423 $119 0.82702703344539508 $116 $177 forward @7 unknown #
coedge $-1 -1 $-1 $178 $172 $93 $134 forward $165 $-1 #
edge $-1 -1 $-1 $135 -0.52359877559830004 $176 0.52359877559829837 $133 $179 forward @7 unknown #
vertex $-1 -1 $-1 $94 $180 #
intcurve-curve $-1 -1 $-1 forward { exactcur full nurbs 2 open 2 
	0.050974702959192743 2 0.43900086820229389 2 
	-5.0994434163992386 7.5055534994651314 7.0776717819853729e-015 1.0100187493574069 
	-5.6800000000000033 6.4999999999999893 1.7416697508023145 1.0431413957401943 
	-5.6800000000000015 5.6291651245988454 3.2500000000000036 1 
	0 
	null_surface 
	null_surface 
	nullbs 
	nullbs 
	I I 
	0 
	0 
	0 
	F 1 F 0 } I I #
point $-1 -1 $-1 35 3.233187500000005 -3.9595127229182362e-016 #
coedge $-1 -1 $-1 $181 $97 $100 $144 forward $140 $-1 #
coedge $-1 -1 $-1 $97 $182 $109 $153 reversed $140 $-1 #
loop $-1 -1 $-1 $-1 $181 $183 #
straight-curve $-1 -1 $-1 3.826083965484718e-016 -7.5055534994651314 -3.7470027081099033e-015 -3.1720657846433069e-016 5.0000000000000044 -8.6602540378443837 F 0 F 0.75055534994651307 #
coedge $-1 -1 $-1 $143 $99 $129 $171 forward $101 $-1 #
coedge $-1 -1 $-1 $100 $142 $169 $184 forward $101 $-1 #
edge $-1 -1 $-1 $102 0 $185 0.5099443416399243 $138 $186 forward @7 unknown #
face $-1 -1 $-1 $183 $101 $2 $-1 $187 forward single #
point $-1 -1 $-1 3.826083965484718e-016 -7.5055534994651314 -3.7470027081099033e-015 #
coedge $-1 -1 $-1 $170 $129 $105 $148 reversed $90 $-1 #
edge $-1 -1 $-1 $174 0.43900086820229522 $149 0.82702703344539552 $105 $188 forward @7 unknown #
vertex $-1 -1 $-1 $148 $189 #
straight-curve $-1 -1 $-1 1.4452730204384046e-016 -3.7527767497325701 6.4999999999999947 -10 0 0 I I #
plane-surface $-1 -1 $-1 -3.3163488696542267e-016 3.7527767497325604 6.5 0 -7.3960103322444808e-016 1 10 0 0 forward_v I I I I #
coedge $-1 -1 $-1 $154 $109 $190 $191 forward $111 $-1 #
edge $-1 -1 $-1 $112 0 $192 0.50994434163992419 $109 $193 forward @7 unknown #
coedge $-1 -1 $-1 $110 $152 $194 $195 forward $111 $-1 #
face $-1 -1 $-1 $107 $111 $2 $-1 $196 forward single #
point $-1 -1 $-1 1.4452730204383999e-016 -3.752776749732563 -6.4999999999999982 #
coedge $-1 -1 $-1 $194 $197 $114 $158 reversed $198 $-1 #
edge $-1 -1 $-1 $159 0.05097470295919395 $176 0.43900086820229423 $114 $199 forward @7 unknown #
vertex $-1 -1 $-1 $158 $200 #
straight-curve $-1 -1 $-1 -3.3163488696542317e-016 3.7527767497325684 -6.4999999999999947 -10 0 0 I I #
plane-surface $-1 -1 $-1 -3.3163488696542317e-016 3.7527767497325684 -6.4999999999999947 0 0.86602540378443893 -0.49999999999999956 0 4.9999999999999956 8.6602540378443891 forward_v I I I I #
point $-1 -1 $-1 -5.0994434163992386 7.5055534994651314 7.0776717819853729e-015 #
intcurve-curve $-1 -1 $-1 forward { exactcur full nurbs 2 open 2 
	0.43900086820229389 2 0.82702703344539397 2 
	-5.6800000000000015 5.6291651245988454 3.2500000000000036 1 
	-5.6800000000000042 4.7583302491977078 4.7583302491976838 1.0431413957401632 
	-5.0994434163992413 3.7527767497325604 6.5 1.0100187493573998 
	0 
	null_surface 
	null_surface 
	nullbs 
	nullbs 
	I I 
	0 
	0 
	0 
	F 1 F 0 } I I #
point $-1 -1 $-1 -5.0994434163992413 3.7527767497325604 6.5 #
loop $-1 -1 $-1 $-1 $178 $125 #
plane-surface $-1 -1 $-1 -5.6799999999999997 -3.3643121958338072e-016 5.5511151231257827e-016 1 6.3441315692866097e-017 -4.2581592506028316e-033 -4.2581592506028315e-032 0 -10 forward_v I I I I #
face $-1 -1 $-1 $145 $198 $2 $-1 $46 reversed single #
loop $-1 -1 $-1 $-1 $201 $127 #
coedge $-1 -1 $-1 $202 $203 $143 $184 reversed $128 $-1 #
coedge $-1 -1 $-1 $129 $147 $204 $205 reversed $90 $-1 #
edge $-1 -1 $-1 $149 0.050974702959193451 $206 0.43900086820229489 $142 $207 forward @7 unknown #
coedge $-1 -1 $-1 $133 $204 $130 $173 forward $165 $-1 #
edge $-1 -1 $-1 $174 -1.5707963267948974 $135 -0.52359877559830004 $172 $179 forward @7 unknown #
vertex $-1 -1 $-1 $131 $208 #
intcurve-curve $-1 -1 $-1 forward { exactcur full nurbs 2 open 2 
	0.050974702959194512 2 0.43900086820229522 2 
	-5.0994434163992413 3.7527767497325604 6.5 1.0100187493574044 
	-5.6800000000000059 1.741669750802276 6.4999999999999991 1.0431413957401821 
	-5.6800000000000042 -2.3048630312432815e-015 6.4999999999999982 1 
	0 
	null_surface 
	null_surface 
	nullbs 
	nullbs 
	I I 
	0 
	0 
	0 
	F 1 F 0 } I I #
vertex $-1 -1 $-1 $209 $210 #
intcurve-curve $-1 -1 $-1 forward { exactcur full nurbs 2 open 2 
	0.43900086820229423 2 0.82702703344539508 2 
	-5.6800000000000015 5.629165124598849 -3.2499999999999938 1 
	-5.6800000000000042 6.4999999999999911 -1.7416697508023016 1.0431413957401829 
	-5.0994434163992386 7.5055534994651314 7.0776717819853729e-015 1.0100187493574044 
	0 
	null_surface 
	null_surface 
	nullbs 
	nullbs 
	I I 
	0 
	0 
	0 
	F 1 F 0 } I I #
coedge $-1 -1 $-1 $211 $133 $197 $209 forward $165 $-1 #
ellipse-curve $-1 -1 $-1 -5.6799999999999997 2.4135848234136323e-015 0 -1 -6.3441315692866097e-017 4.2581592506028316e-033 2.2198999538616663e-015 6.5000000000000071 0 1 I I #
point $-1 -1 $-1 -5.6800000000000015 5.6291651245988454 3.2500000000000036 #
coedge $-1 -1 $-1 $182 $138 $203 $212 forward $140 $-1 #
coedge $-1 -1 $-1 $139 $181 $201 $213 forward $140 $-1 #
face $-1 -1 $-1 $155 $140 $2 $-1 $214 forward single #
edge $-1 -1 $-1 $206 0.43900086820229489 $185 0.82702703344539608 $143 $215 forward @7 unknown #
vertex $-1 -1 $-1 $212 $216 #
straight-curve $-1 -1 $-1 3.826083965484718e-016 -7.5055534994651314 -3.7470027081099033e-015 -10 0 0 I I #
plane-surface $-1 -1 $-1 1.4452730204384046e-016 -3.7527767497325701 6.4999999999999947 0 -0.86602540378443893 0.4999999999999995 0 -4.9999999999999947 -8.6602540378443891 forward_v I I I I #
intcurve-curve $-1 -1 $-1 forward { exactcur full nurbs 2 open 2 
	0.43900086820229522 2 0.82702703344539552 2 
	-5.6800000000000042 -2.3048630312432815e-015 6.4999999999999982 1 
	-5.6800000000000068 -1.7416697508022794 6.4999999999999956 1.0431413957401634 
	-5.0994434163992413 -3.7527767497325701 6.4999999999999947 1.0100187493574 
	0 
	null_surface 
	null_surface 
	nullbs 
	nullbs 
	I I 
	0 
	0 
	0 
	F 1 F 0 } I I #
point $-1 -1 $-1 -5.0994434163992413 -3.7527767497325701 6.4999999999999947 #
coedge $-1 -1 $-1 $201 $217 $152 $191 reversed $168 $-1 #
edge $-1 -1 $-1 $192 0.050974702959194644 $218 0.43900086820229478 $152 $219 forward @7 unknown #
vertex $-1 -1 $-1 $191 $220 #
straight-curve $-1 -1 $-1 1.4452730204383999e-016 -3.752776749732563 -6.4999999999999982 -10 0 0 I I #
coedge $-1 -1 $-1 $197 $157 $154 $195 reversed $198 $-1 #
edge $-1 -1 $-1 $218 0.43900086820229478 $159 0.82702703344539596 $154 $221 forward @7 unknown #
plane-surface $-1 -1 $-1 1.4452730204383999e-016 -3.752776749732563 -6.4999999999999982 0 4.4376061993466883e-016 -1 -10 0 0 forward_v I I I I #
coedge $-1 -1 $-1 $157 $194 $178 $209 reversed $198 $-1 #
loop $-1 -1 $-1 $-1 $194 $167 #
intcurve-curve $-1 -1 $-1 forward { exactcur full nurbs 2 open 2 
	0.05097470295919395 2 0.43900086820229423 2 
	-5.0994434163992413 3.7527767497325684 -6.4999999999999947 1.0100187493574004 
	-5.6800000000000059 4.758330249197714 -4.7583302491976758 1.0431413957401656 
	-5.6800000000000015 5.629165124598849 -3.2499999999999938 1 
	0 
	null_surface 
	null_surface 
	nullbs 
	nullbs 
	I I 
	0 
	0 
	0 
	F 1 F 0 } I I #
point $-1 -1 $-1 -5.0994434163992413 3.7527767497325684 -6.4999999999999947 #
coedge $-1 -1 $-1 $217 $190 $182 $213 reversed $168 $-1 #
coedge $-1 -1 $-1 $203 $169 $222 $223 reversed $128 $-1 #
coedge $-1 -1 $-1 $169 $202 $181 $212 reversed $128 $-1 #
coedge $-1 -1 $-1 $172 $222 $170 $205 forward $165 $-1 #
edge $-1 -1 $-1 $206 -2.6179938779914949 $174 -1.5707963267948974 $204 $179 forward @7 unknown #
vertex $-1 -1 $-1 $223 $224 #
intcurve-curve $-1 -1 $-1 forward { exactcur full nurbs 2 open 2 
	0.050974702959193451 2 0.43900086820229489 2 
	-5.0994434163992413 -3.7527767497325701 6.4999999999999947 1.0100187493574071 
	-5.6800000000000059 -4.7583302491977122 4.7583302491976811 1.0431413957401943 
	-5.6800000000000059 -5.629165124598849 3.2499999999999964 1 
	0 
	null_surface 
	null_surface 
	nullbs 
	nullbs 
	I I 
	0 
	0 
	0 
	F 1 F 0 } I I #
point $-1 -1 $-1 -5.6800000000000042 -2.3048630312432815e-015 6.4999999999999982 #
edge $-1 -1 $-1 $176 0.52359877559829837 $218 1.5707963267948961 $178 $179 forward @7 unknown #
point $-1 -1 $-1 -5.6800000000000015 5.629165124598849 -3.2499999999999938 #
coedge $-1 -1 $-1 $222 $178 $217 $225 forward $165 $-1 #
edge $-1 -1 $-1 $185 0.050974702959194818 $226 0.43900086820229545 $181 $227 forward @7 unknown #
edge $-1 -1 $-1 $226 0.43900086820229545 $192 0.82702703344539508 $182 $228 forward @7 unknown #
plane-surface $-1 -1 $-1 3.826083965484718e-016 -7.5055534994651314 -3.7470027081099033e-015 -0 -0.86602540378443837 -0.50000000000000044 -10 0 0 forward_v I I I I #
intcurve-curve $-1 -1 $-1 forward { exactcur full nurbs 2 open 2 
	0.43900086820229489 2 0.82702703344539608 2 
	-5.6800000000000059 -5.629165124598849 3.2499999999999964 1 
	-5.6800000000000068 -6.4999999999999876 1.7416697508023113 1.0431413957401849 
	-5.099443416399243 -7.5055534994651314 -3.7470027081099025e-015 1.0100187493574049 
	0 
	null_surface 
	null_surface 
	nullbs 
	nullbs 
	I I 
	0 
	0 
	0 
	F 1 F 0 } I I #
point $-1 -1 $-1 -5.099443416399243 -7.5055534994651314 -3.7470027081099025e-015 #
coedge $-1 -1 $-1 $190 $201 $211 $225 reversed $168 $-1 #
vertex $-1 -1 $-1 $209 $229 #
intcurve-curve $-1 -1 $-1 forward { exactcur full nurbs 2 open 2 
	0.050974702959194644 2 0.43900086820229478 2 
	-5.0994434163992421 -3.752776749732563 -6.4999999999999982 1.0100187493573989 
	-5.6800000000000068 -1.7416697508022685 -6.4999999999999964 1.0431413957401585 
	-5.6800000000000042 5.1891423849765252e-015 -6.4999999999999956 1 
	0 
	null_surface 
	null_surface 
	nullbs 
	nullbs 
	I I 
	0 
	0 
	0 
	F 1 F 0 } I I #
point $-1 -1 $-1 -5.0994434163992421 -3.752776749732563 -6.4999999999999982 #
intcurve-curve $-1 -1 $-1 forward { exactcur full nurbs 2 open 2 
	0.43900086820229478 2 0.82702703344539596 2 
	-5.6800000000000042 5.1891423849765252e-015 -6.4999999999999956 1 
	-5.6800000000000042 1.7416697508022914 -6.4999999999999947 1.0431413957401987 
	-5.0994434163992413 3.7527767497325684 -6.4999999999999947 1.010018749357408 
	0 
	null_surface 
	null_surface 
	nullbs 
	nullbs 
	I I 
	0 
	0 
	0 
	F 1 F 0 } I I #
coedge $-1 -1 $-1 $204 $211 $202 $223 forward $165 $-1 #
edge $-1 -1 $-1 $226 2.617993877991494 $206 3.6651914291880914 $222 $179 forward @7 unknown #
point $-1 -1 $-1 -5.6800000000000059 -5.629165124598849 3.2499999999999964 #
edge $-1 -1 $-1 $218 1.5707963267948961 $226 2.617993877991494 $211 $179 forward @7 unknown #
vertex $-1 -1 $-1 $225 $230 #
intcurve-curve $-1 -1 $-1 forward { exactcur full nurbs 2 open 2 
	0.050974702959194818 2 0.43900086820229545 2 
	-5.099443416399243 -7.5055534994651314 -3.7470027081099025e-015 1.0100187493574024 
	-5.680000000000005 -6.4999999999999902 -1.7416697508023087 1.0431413957401743 
	-5.6800000000000059 -5.6291651245988463 -3.2500000000000022 1 
	0 
	null_surface 
	null_surface 
	nullbs 
	nullbs 
	I I 
	0 
	0 
	0 
	F 1 F 0 } I I #
intcurve-curve $-1 -1 $-1 forward { exactcur full nurbs 2 open 2 
	0.43900086820229545 2 0.82702703344539508 2 
	-5.6800000000000059 -5.6291651245988463 -3.2500000000000022 1 
	-5.680000000000005 -4.7583302491977015 -4.7583302491976962 1.0431413957401696 
	-5.0994434163992421 -3.752776749732563 -6.4999999999999982 1.0100187493574015 
	0 
	null_surface 
	null_surface 
	nullbs 
	nullbs 
	I I 
	0 
	0 
	0 
	F 1 F 0 } I I #
point $-1 -1 $-1 -5.6800000000000042 5.1891423849765252e-015 -6.4999999999999956 #
point $-1 -1 $-1 -5.6800000000000059 -5.6291651245988463 -3.2500000000000022 #
End-of-ACIS-data 