700 0 1 0           
33 Autodesk Inventor 17.0.13800.0000 19 ASM 218.0.0.5119 NT 24 Tue Dec 10 11:02:12 2013 
1 9.9999999999999995e-007 1e-010 
body $-1 -1 $-1 $1 $-1 $-1 #
lump $-1 -1 $-1 $-1 $2 $0 #
shell $-1 -1 $-1 $-1 $-1 $3 $-1 $1 #
face $-1 -1 $-1 $4 $5 $2 $-1 $6 reversed single #
face $-1 -1 $-1 $7 $8 $2 $-1 $9 reversed single #
loop $-1 -1 $-1 $-1 $10 $3 #
plane-surface $-1 -1 $-1 9.9687500000000071 14.004352467030856 25 1 -5.5511151231257815e-017 0 -5.5511151231257827e-016 -10.000000000000002 0 forward_v I I I I #
face $-1 -1 $-1 $11 $12 $2 $-1 $13 reversed single #
loop $-1 -1 $-1 $-1 $14 $4 #
plane-surface $-1 -1 $-1 7.1437500000000087 15.63536697749155 25 0.50000000000000056 0.86602540378443849 0 8.6602540378443855 -5.0000000000000053 0 forward_v I I I I #
coedge $-1 -1 $-1 $15 $16 $17 $18 reversed $5 $-1 #
face $-1 -1 $-1 $19 $20 $2 $-1 $21 reversed single #
loop $-1 -1 $-1 $-1 $22 $7 #
plane-surface $-1 -1 $-1 4.3187500000000076 14.004352467030863 25 -0.49999999999999878 0.86602540378443937 0 8.6602540378443944 4.9999999999999876 0 forward_v I I I I #
coedge $-1 -1 $-1 $23 $24 $25 $26 reversed $8 $-1 #
coedge $-1 -1 $-1 $27 $10 $24 $28 forward $5 $-1 #
coedge $-1 -1 $-1 $10 $27 $29 $30 reversed $5 $-1 #
coedge $-1 -1 $-1 $31 $25 $10 $18 forward $32 $-1 #
edge $-1 -1 $-1 $33 -0.70021762335154281 $34 -0.37401472125940416 $17 $35 forward @7 unknown #
face $-1 -1 $-1 $36 $37 $2 $-1 $38 reversed single #
loop $-1 -1 $-1 $-1 $39 $11 #
plane-surface $-1 -1 $-1 4.3187500000000032 10.742323446109474 25 -1 1.27675647831893e-015 0 1.27675647831893e-014 10 0 forward_v I I I I #
coedge $-1 -1 $-1 $40 $41 $42 $43 reversed $12 $-1 #
coedge $-1 -1 $-1 $44 $14 $41 $45 forward $8 $-1 #
coedge $-1 -1 $-1 $14 $44 $15 $28 reversed $8 $-1 #
coedge $-1 -1 $-1 $17 $42 $14 $26 forward $32 $-1 #
edge $-1 -1 $-1 $46 -0.78712675697215029 $33 -0.46092385488001186 $25 $47 forward @7 unknown #
coedge $-1 -1 $-1 $16 $15 $48 $49 forward $5 $-1 #
edge $-1 -1 $-1 $33 0 $50 0.29999999999999982 $24 $51 forward @7 unknown #
coedge $-1 -1 $-1 $52 $53 $16 $30 forward $54 $-1 #
edge $-1 -1 $-1 $34 0 $55 0.29999999999999982 $29 $56 forward @7 unknown #
coedge $-1 -1 $-1 $57 $17 $53 $58 forward $32 $-1 #
loop $-1 -1 $-1 $59 $17 $60 #
vertex $-1 -1 $-1 $18 $61 #
vertex $-1 -1 $-1 $18 $62 #
straight-curve $-1 -1 $-1 9.9687500000000036 7.0021762335154278 25 -5.5511151231257817e-016 -10 0 I I #
face $-1 -1 $-1 $63 $54 $2 $-1 $64 reversed single #
loop $-1 -1 $-1 $-1 $65 $19 #
plane-surface $-1 -1 $-1 7.1437500000000025 9.1113089356487755 25 -0.50000000000000111 -0.86602540378443815 0 -8.660254037844382 5.0000000000000107 0 forward_v I I I I #
coedge $-1 -1 $-1 $66 $67 $68 $69 reversed $20 $-1 #
coedge $-1 -1 $-1 $70 $22 $67 $71 forward $12 $-1 #
coedge $-1 -1 $-1 $22 $70 $23 $45 reversed $12 $-1 #
coedge $-1 -1 $-1 $25 $68 $22 $43 forward $32 $-1 #
edge $-1 -1 $-1 $72 -0.16845985914364286 $46 0.1577430429484955 $42 $73 forward @7 unknown #
coedge $-1 -1 $-1 $24 $23 $74 $75 forward $8 $-1 #
edge $-1 -1 $-1 $46 0 $76 0.29999999999999982 $41 $77 forward @7 unknown #
vertex $-1 -1 $-1 $26 $78 #
straight-curve $-1 -1 $-1 13.960467675363429 11.699733192630797 25 8.6602540378443855 -5.0000000000000053 0 I I #
coedge $-1 -1 $-1 $74 $79 $27 $49 reversed $80 $-1 #
edge $-1 -1 $-1 $50 0 $55 0.32620290209213865 $27 $81 forward @7 unknown #
vertex $-1 -1 $-1 $28 $82 #
straight-curve $-1 -1 $-1 9.9687500000000071 14.004352467030856 25 0 0 -10 I I #
coedge $-1 -1 $-1 $83 $29 $79 $84 forward $54 $-1 #
coedge $-1 -1 $-1 $29 $83 $31 $58 reversed $54 $-1 #
loop $-1 -1 $-1 $-1 $53 $36 #
vertex $-1 -1 $-1 $30 $85 #
straight-curve $-1 -1 $-1 9.9687500000000089 10.74232344610947 25 0 0 -10 I I #
coedge $-1 -1 $-1 $68 $31 $65 $86 forward $32 $-1 #
edge $-1 -1 $-1 $34 0.0053584080975732258 $87 0.33156131018971235 $31 $88 forward @7 unknown #
loop $-1 -1 $-1 $89 $90 $60 #
face $-1 -1 $-1 $91 $32 $2 $-1 $92 forward single #
point $-1 -1 $-1 9.9687500000000071 14.004352467030856 25 #
point $-1 -1 $-1 9.9687500000000089 10.74232344610947 25 #
face $-1 -1 $-1 $93 $94 $2 $-1 $95 forward single #
plane-surface $-1 -1 $-1 9.9687500000000089 10.74232344610947 25 0.49999999999999922 -0.86602540378443915 0 -8.6602540378443909 -4.999999999999992 0 forward_v I I I I #
coedge $-1 -1 $-1 $96 $97 $57 $86 reversed $37 $-1 #
coedge $-1 -1 $-1 $98 $39 $97 $99 forward $20 $-1 #
coedge $-1 -1 $-1 $39 $98 $40 $71 reversed $20 $-1 #
coedge $-1 -1 $-1 $42 $57 $39 $69 forward $32 $-1 #
edge $-1 -1 $-1 $100 0.53711617230547293 $72 0.8633190743976118 $68 $101 forward @7 unknown #
coedge $-1 -1 $-1 $41 $40 $102 $103 forward $12 $-1 #
edge $-1 -1 $-1 $72 0 $104 0.29999999999999982 $67 $105 forward @7 unknown #
vertex $-1 -1 $-1 $43 $106 #
straight-curve $-1 -1 $-1 5.7776551753634386 14.846651762749074 25 8.6602540378443944 4.9999999999999876 0 I I #
coedge $-1 -1 $-1 $102 $48 $44 $75 reversed $80 $-1 #
edge $-1 -1 $-1 $76 0 $50 0.32620290209213837 $44 $107 forward @7 unknown #
vertex $-1 -1 $-1 $45 $108 #
straight-curve $-1 -1 $-1 7.1437500000000087 15.63536697749155 25 0 0 -10 I I #
point $-1 -1 $-1 7.1437500000000087 15.63536697749155 25 #
coedge $-1 -1 $-1 $48 $109 $52 $84 reversed $80 $-1 #
loop $-1 -1 $-1 $-1 $79 $63 #
straight-curve $-1 -1 $-1 9.9687500000000071 14.004352467030856 22 -5.5511151231257827e-016 -10.000000000000002 0 I I #
point $-1 -1 $-1 9.9687500000000071 14.004352467030856 22 #
coedge $-1 -1 $-1 $53 $52 $96 $110 reversed $54 $-1 #
edge $-1 -1 $-1 $55 0 $111 0.32620290209213887 $52 $112 forward @7 unknown #
point $-1 -1 $-1 9.9687500000000089 10.74232344610947 22 #
edge $-1 -1 $-1 $87 0.62402530592608119 $100 0.95022820801821994 $57 $113 forward @7 unknown #
vertex $-1 -1 $-1 $86 $114 #
straight-curve $-1 -1 $-1 10.015155175363436 10.769115486597336 25 -8.6602540378443909 -4.999999999999992 0 I I #
loop $-1 -1 $-1 $115 $116 $60 #
coedge $-1 -1 $-1 $117 $118 $119 $120 forward $59 $-1 #
face $-1 -1 $-1 $121 $122 $2 $-1 $123 reversed single #
plane-surface $-1 -1 $-1 16.294580467635793 8.5763010779805204e-016 25 0 0 1 10 0 0 forward_v I I I I #
face $-1 -1 $-1 $124 $125 $2 $-1 $126 reversed single #
loop $-1 -1 $-1 $80 $127 $63 #
plane-surface $-1 -1 $-1 7.143750000000006 12.373337956570163 22 0 0 1 -5.0000000000000053 -8.6602540378443855 0 forward_v I I I I #
coedge $-1 -1 $-1 $128 $65 $83 $110 forward $37 $-1 #
coedge $-1 -1 $-1 $65 $128 $66 $99 reversed $37 $-1 #
coedge $-1 -1 $-1 $67 $66 $129 $130 forward $20 $-1 #
edge $-1 -1 $-1 $100 0 $131 0.29999999999999982 $97 $132 forward @7 unknown #
vertex $-1 -1 $-1 $69 $133 #
straight-curve $-1 -1 $-1 4.3187499999999961 5.3711617230547448 25 1.27675647831893e-014 10 0 I I #
coedge $-1 -1 $-1 $129 $74 $70 $103 reversed $80 $-1 #
edge $-1 -1 $-1 $104 0 $76 0.32620290209213848 $70 $134 forward @7 unknown #
vertex $-1 -1 $-1 $71 $135 #
straight-curve $-1 -1 $-1 4.3187500000000076 14.004352467030863 25 0 0 -10 I I #
point $-1 -1 $-1 4.3187500000000076 14.004352467030863 25 #
straight-curve $-1 -1 $-1 7.1437500000000087 15.63536697749155 22 8.6602540378443855 -5.0000000000000053 0 I I #
point $-1 -1 $-1 7.1437500000000087 15.63536697749155 22 #
coedge $-1 -1 $-1 $79 $129 $128 $136 reversed $80 $-1 #
edge $-1 -1 $-1 $87 0 $111 0.29999999999999982 $83 $137 forward @7 unknown #
vertex $-1 -1 $-1 $110 $138 #
straight-curve $-1 -1 $-1 9.9687500000000089 10.74232344610947 22 -8.6602540378443909 -4.999999999999992 0 I I #
straight-curve $-1 -1 $-1 12.54796767536342 5.9911824060183649 25 -8.660254037844382 5.0000000000000107 0 I I #
point $-1 -1 $-1 7.1437500000000025 9.1113089356487755 25 #
loop $-1 -1 $-1 $139 $140 $60 #
coedge $-1 -1 $-1 $141 $142 $143 $144 forward $89 $-1 #
coedge $-1 -1 $-1 $145 $90 $146 $147 forward $59 $-1 #
coedge $-1 -1 $-1 $90 $148 $149 $150 forward $59 $-1 #
coedge $-1 -1 $-1 $151 $152 $90 $120 reversed $153 $-1 #
edge $-1 -1 $-1 $154 0.0053584080975729378 $155 0.33156131018971147 $90 $156 forward @7 unknown #
face $-1 -1 $-1 $157 $158 $2 $-1 $159 reversed single #
loop $-1 -1 $-1 $-1 $160 $91 #
plane-surface $-1 -1 $-1 33.689488223348476 12.500000000000009 19.100000000000005 -0.86602540378443826 0 0.50000000000000089 -5.0000000000000089 -1.1842378929335024e-015 -8.660254037844382 forward_v I I I I #
face $-1 -1 $-1 $161 $153 $2 $-1 $162 reversed single #
loop $-1 -1 $-1 $163 $164 $93 #
cone-surface $-1 -1 $-1 7.143750000000006 12.373337956570163 0 0 0 1 -0.80000000000000093 -1.3856406460551018 0 1 I I 0 1 1.6000000000000003 forward I I I I #
coedge $-1 -1 $-1 $127 $127 $164 $165 forward $94 $-1 #
coedge $-1 -1 $-1 $97 $96 $109 $136 forward $37 $-1 #
coedge $-1 -1 $-1 $109 $102 $98 $130 reversed $80 $-1 #
edge $-1 -1 $-1 $131 0 $104 0.32620290209213865 $98 $166 forward @7 unknown #
vertex $-1 -1 $-1 $99 $167 #
straight-curve $-1 -1 $-1 4.3187500000000032 10.742323446109474 25 0 0 -10 I I #
point $-1 -1 $-1 4.3187500000000032 10.742323446109474 25 #
straight-curve $-1 -1 $-1 4.3187500000000076 14.004352467030863 22 8.6602540378443944 4.9999999999999876 0 I I #
point $-1 -1 $-1 4.3187500000000076 14.004352467030863 22 #
edge $-1 -1 $-1 $111 0 $131 0.32620290209213865 $128 $168 forward @7 unknown #
straight-curve $-1 -1 $-1 7.1437500000000025 9.1113089356487755 25 0 0 -10 I I #
point $-1 -1 $-1 7.1437500000000025 9.1113089356487755 22 #
loop $-1 -1 $-1 $-1 $169 $60 #
coedge $-1 -1 $-1 $140 $140 $170 $171 forward $115 $-1 #
coedge $-1 -1 $-1 $172 $116 $173 $174 forward $89 $-1 #
coedge $-1 -1 $-1 $116 $175 $176 $177 forward $89 $-1 #
coedge $-1 -1 $-1 $178 $179 $116 $144 reversed $180 $-1 #
edge $-1 -1 $-1 $181 -1.4057936548006584 $182 -1.0795907527085198 $116 $183 forward @7 unknown #
coedge $-1 -1 $-1 $184 $117 $185 $186 forward $59 $-1 #
coedge $-1 -1 $-1 $187 $188 $117 $147 reversed $189 $-1 #
edge $-1 -1 $-1 $155 -0.70021762335154358 $190 -0.37401472125940449 $117 $191 forward @7 unknown #
coedge $-1 -1 $-1 $118 $184 $192 $193 forward $59 $-1 #
coedge $-1 -1 $-1 $194 $195 $118 $150 reversed $196 $-1 #
edge $-1 -1 $-1 $197 0.62402530592608119 $154 0.9502282080182195 $118 $198 forward @7 unknown #
coedge $-1 -1 $-1 $199 $119 $195 $200 forward $153 $-1 #
coedge $-1 -1 $-1 $119 $199 $187 $201 reversed $153 $-1 #
loop $-1 -1 $-1 $-1 $119 $124 #
vertex $-1 -1 $-1 $120 $202 #
vertex $-1 -1 $-1 $120 $203 #
straight-curve $-1 -1 $-1 7.1901551753634196 -15.66215901797942 25 -8.6602540378443891 4.9999999999999991 0 I I #
face $-1 -1 $-1 $204 $205 $2 $-1 $206 reversed single #
loop $-1 -1 $-1 $-1 $207 $121 #
plane-surface $-1 -1 $-1 41.310511776651538 12.500000000000011 19.100000000000001 5.8271596557077692e-016 0 1 -10 -2.3684757858670009e-015 5.827159655707769e-015 forward_v I I I I #
coedge $-1 -1 $-1 $208 $209 $210 $211 reversed $122 $-1 #
face $-1 -1 $-1 $212 $196 $2 $-1 $213 reversed single #
plane-surface $-1 -1 $-1 7.1437499999999963 -15.635366977491554 25 -0.49999999999999989 -0.86602540378443882 0 -8.6602540378443891 4.9999999999999991 0 forward_v I I I I #
loop $-1 -1 $-1 $-1 $214 $93 #
coedge $-1 -1 $-1 $164 $164 $127 $165 reversed $125 $-1 #
edge $-1 -1 $-1 $215 -1.2246467991473522e-016 $215 6.2831853071795862 $164 $216 forward @7 unknown #
straight-curve $-1 -1 $-1 4.3187500000000032 10.742323446109474 22 1.27675647831893e-014 10 0 I I #
point $-1 -1 $-1 4.3187500000000032 10.742323446109474 22 #
straight-curve $-1 -1 $-1 7.1437500000000025 9.1113089356487755 22 -8.660254037844382 5.0000000000000107 0 I I #
coedge $-1 -1 $-1 $217 $218 $219 $220 forward $139 $-1 #
coedge $-1 -1 $-1 $170 $170 $140 $171 reversed $221 $-1 #
edge $-1 -1 $-1 $222 -3.1415926535897931 $222 3.1415926535897931 $140 $223 forward @7 unknown #
coedge $-1 -1 $-1 $224 $141 $225 $226 forward $89 $-1 #
coedge $-1 -1 $-1 $227 $228 $141 $174 reversed $229 $-1 #
edge $-1 -1 $-1 $182 -1.4057936548006584 $230 -1.0795907527085196 $141 $231 forward @7 unknown #
coedge $-1 -1 $-1 $142 $224 $232 $233 forward $89 $-1 #
coedge $-1 -1 $-1 $234 $235 $142 $177 reversed $236 $-1 #
edge $-1 -1 $-1 $237 -0.08155072552303462 $181 0.24465217656910376 $142 $238 forward @7 unknown #
coedge $-1 -1 $-1 $239 $143 $235 $240 forward $180 $-1 #
coedge $-1 -1 $-1 $143 $239 $227 $241 reversed $180 $-1 #
loop $-1 -1 $-1 $-1 $143 $242 #
vertex $-1 -1 $-1 $144 $243 #
vertex $-1 -1 $-1 $144 $244 #
straight-curve $-1 -1 $-1 -4.9379698246365846 8.6599827844639918 25 8.6602540378443855 5.0000000000000044 0 I I #
coedge $-1 -1 $-1 $148 $145 $245 $246 forward $59 $-1 #
coedge $-1 -1 $-1 $247 $248 $145 $186 reversed $249 $-1 #
edge $-1 -1 $-1 $190 -0.78712675697215018 $250 -0.46092385488001164 $145 $251 forward @7 unknown #
coedge $-1 -1 $-1 $252 $146 $152 $201 forward $189 $-1 #
coedge $-1 -1 $-1 $146 $252 $247 $253 reversed $189 $-1 #
loop $-1 -1 $-1 $-1 $146 $254 #
vertex $-1 -1 $-1 $186 $255 #
straight-curve $-1 -1 $-1 4.3187500000000023 -7.002176233515427 25 7.2164496600635175e-015 10 0 I I #
coedge $-1 -1 $-1 $256 $257 $148 $193 reversed $258 $-1 #
edge $-1 -1 $-1 $259 0.53711617230547426 $197 0.86331907439761268 $148 $260 forward @7 unknown #
coedge $-1 -1 $-1 $261 $149 $257 $262 forward $196 $-1 #
coedge $-1 -1 $-1 $149 $261 $151 $200 reversed $196 $-1 #
loop $-1 -1 $-1 $-1 $149 $161 #
vertex $-1 -1 $-1 $150 $263 #
straight-curve $-1 -1 $-1 15.372967675363418 -10.884225937400458 25 -8.6602540378443891 -4.9999999999999982 0 I I #
coedge $-1 -1 $-1 $152 $151 $264 $265 forward $153 $-1 #
edge $-1 -1 $-1 $154 0 $266 0.29999999999999982 $195 $267 forward @7 unknown #
edge $-1 -1 $-1 $155 0 $268 0.29999999999999982 $187 $269 forward @7 unknown #
point $-1 -1 $-1 7.1437499999999963 -15.635366977491554 25 #
point $-1 -1 $-1 4.3187499999999961 -14.004352467030863 25 #
face $-1 -1 $-1 $270 $271 $2 $-1 $272 reversed single #
loop $-1 -1 $-1 $-1 $273 $157 #
plane-surface $-1 -1 $-1 45.121023553303061 12.500000000000011 12.5 0.86602540378443882 0 0.49999999999999961 -4.9999999999999964 -1.1842378929334997e-015 8.6602540378443891 forward_v I I I I #
coedge $-1 -1 $-1 $274 $275 $276 $277 reversed $158 $-1 #
coedge $-1 -1 $-1 $278 $160 $275 $279 forward $122 $-1 #
coedge $-1 -1 $-1 $160 $278 $280 $281 reversed $122 $-1 #
coedge $-1 -1 $-1 $282 $276 $160 $211 forward $283 $-1 #
edge $-1 -1 $-1 $284 -0.73179146619785074 $285 0.030310889132455127 $210 $286 forward @7 unknown #
face $-1 -1 $-1 $287 $258 $2 $-1 $288 reversed single #
plane-surface $-1 -1 $-1 9.9687499999999947 -14.004352467030863 25 0.49999999999999983 -0.86602540378443882 0 -8.6602540378443891 -4.9999999999999982 0 forward_v I I I I #
coedge $-1 -1 $-1 $214 $214 $289 $290 reversed $163 $-1 #
vertex $-1 -1 $-1 $165 $291 #
ellipse-curve $-1 -1 $-1 7.143750000000006 12.373337956570163 22 0 0 -1 -0.80000000000000093 -1.3856406460551018 0 1 I I #
coedge $-1 -1 $-1 $292 $169 $293 $294 forward $139 $-1 #
coedge $-1 -1 $-1 $169 $292 $295 $296 reversed $139 $-1 #
coedge $-1 -1 $-1 $297 $298 $169 $220 reversed $299 $-1 #
edge $-1 -1 $-1 $300 -2.3124586962455593 $301 0 $219 $302 forward @7 unknown #
loop $-1 -1 $-1 $303 $170 $304 #
vertex $-1 -1 $-1 $171 $305 #
ellipse-curve $-1 -1 $-1 0 0 25 -0 -0 -1 -9.625 0 0 1 I I #
coedge $-1 -1 $-1 $175 $172 $306 $307 forward $89 $-1 #
coedge $-1 -1 $-1 $308 $309 $172 $226 reversed $310 $-1 #
edge $-1 -1 $-1 $230 -0.081550725523033565 $311 0.2446521765691051 $172 $312 forward @7 unknown #
coedge $-1 -1 $-1 $313 $173 $179 $241 forward $229 $-1 #
coedge $-1 -1 $-1 $173 $313 $308 $314 reversed $229 $-1 #
loop $-1 -1 $-1 $-1 $173 $315 #
vertex $-1 -1 $-1 $226 $316 #
straight-curve $-1 -1 $-1 -2.1129698246365836 -3.7669392530819117 25 8.6602540378443855 -5.0000000000000044 0 I I #
coedge $-1 -1 $-1 $317 $318 $175 $233 reversed $319 $-1 #
edge $-1 -1 $-1 $320 1.2426922037545887 $237 1.5688951058467273 $175 $321 forward @7 unknown #
coedge $-1 -1 $-1 $322 $176 $318 $323 forward $236 $-1 #
coedge $-1 -1 $-1 $176 $322 $178 $240 reversed $236 $-1 #
loop $-1 -1 $-1 $-1 $176 $324 #
vertex $-1 -1 $-1 $177 $325 #
straight-curve $-1 -1 $-1 -17.112499999999997 -0.8155072552303454 25 0 10 0 I I #
coedge $-1 -1 $-1 $179 $178 $326 $327 forward $180 $-1 #
edge $-1 -1 $-1 $181 0 $328 0.29999999999999982 $235 $329 forward @7 unknown #
edge $-1 -1 $-1 $182 0 $330 0.29999999999999982 $227 $331 forward @7 unknown #
face $-1 -1 $-1 $324 $180 $2 $-1 $332 reversed single #
point $-1 -1 $-1 -17.112500000000001 1.6310145104606921 25 #
point $-1 -1 $-1 -14.2875 3.2620290209213865 25 #
coedge $-1 -1 $-1 $333 $334 $184 $246 reversed $335 $-1 #
edge $-1 -1 $-1 $250 -0.16845985914364142 $259 0.15774304294849731 $184 $336 forward @7 unknown #
coedge $-1 -1 $-1 $337 $185 $188 $253 forward $249 $-1 #
coedge $-1 -1 $-1 $185 $337 $333 $338 reversed $249 $-1 #
loop $-1 -1 $-1 $-1 $185 $339 #
vertex $-1 -1 $-1 $246 $340 #
straight-curve $-1 -1 $-1 11.135467675363422 -6.8066896612487273 25 8.6602540378443909 4.999999999999992 0 I I #
coedge $-1 -1 $-1 $188 $187 $341 $342 forward $189 $-1 #
edge $-1 -1 $-1 $190 0 $343 0.29999999999999982 $188 $344 forward @7 unknown #
face $-1 -1 $-1 $345 $189 $2 $-1 $346 reversed single #
point $-1 -1 $-1 4.3187499999999979 -10.742323446109472 25 #
coedge $-1 -1 $-1 $347 $192 $334 $348 forward $258 $-1 #
coedge $-1 -1 $-1 $192 $347 $194 $262 reversed $258 $-1 #
loop $-1 -1 $-1 $-1 $192 $212 #
vertex $-1 -1 $-1 $193 $349 #
straight-curve $-1 -1 $-1 9.9687500000000071 -5.3711617230547359 25 -1.2212453270876722e-014 -10 0 I I #
coedge $-1 -1 $-1 $195 $194 $350 $351 forward $196 $-1 #
edge $-1 -1 $-1 $197 0 $352 0.29999999999999982 $257 $353 forward @7 unknown #
point $-1 -1 $-1 9.9687499999999947 -14.004352467030863 25 #
coedge $-1 -1 $-1 $350 $341 $199 $265 reversed $354 $-1 #
edge $-1 -1 $-1 $266 0 $268 0.32620290209213865 $199 $355 forward @7 unknown #
vertex $-1 -1 $-1 $200 $356 #
straight-curve $-1 -1 $-1 7.1437499999999963 -15.635366977491554 25 0 0 -10 I I #
vertex $-1 -1 $-1 $201 $357 #
straight-curve $-1 -1 $-1 4.3187499999999961 -14.004352467030863 25 0 0 -10 I I #
face $-1 -1 $-1 $358 $359 $2 $-1 $360 reversed single #
loop $-1 -1 $-1 $-1 $361 $204 #
plane-surface $-1 -1 $-1 41.310511776651524 12.500000000000011 5.8999999999999968 0.86602540378443826 0 -0.50000000000000078 5.000000000000008 1.1842378929335024e-015 8.660254037844382 forward_v I I I I #
coedge $-1 -1 $-1 $362 $363 $364 $365 reversed $205 $-1 #
coedge $-1 -1 $-1 $366 $207 $363 $367 forward $158 $-1 #
coedge $-1 -1 $-1 $207 $366 $208 $279 reversed $158 $-1 #
coedge $-1 -1 $-1 $210 $364 $207 $277 forward $283 $-1 #
edge $-1 -1 $-1 $368 -0.19052558883257698 $284 0.57157676649772915 $276 $369 forward @7 unknown #
coedge $-1 -1 $-1 $209 $208 $370 $371 forward $122 $-1 #
edge $-1 -1 $-1 $284 0 $372 0.80000000000000004 $275 $373 forward @7 unknown #
coedge $-1 -1 $-1 $374 $375 $209 $281 forward $376 $-1 #
edge $-1 -1 $-1 $285 0 $377 0.80000000000000004 $280 $378 forward @7 unknown #
coedge $-1 -1 $-1 $379 $210 $375 $380 forward $283 $-1 #
loop $-1 -1 $-1 $-1 $210 $381 #
vertex $-1 -1 $-1 $211 $382 #
vertex $-1 -1 $-1 $211 $383 #
straight-curve $-1 -1 $-1 30.030530892359216 12.500000000000007 12.76250000000001 -5.0000000000000089 -1.1842378929335028e-015 -8.660254037844382 I I #
face $-1 -1 $-1 $339 $335 $2 $-1 $384 reversed single #
plane-surface $-1 -1 $-1 9.96875 -10.742323446109479 25 1 -1.2212453270876722e-015 0 -1.2212453270876722e-014 -10 0 forward_v I I I I #
coedge $-1 -1 $-1 $289 $289 $214 $290 forward $385 $-1 #
edge $-1 -1 $-1 $386 -3.1415926535897931 $386 3.1415926535897931 $289 $387 forward @7 unknown #
point $-1 -1 $-1 6.3437500000000053 10.987697310515061 22 #
coedge $-1 -1 $-1 $218 $217 $388 $389 forward $139 $-1 #
coedge $-1 -1 $-1 $390 $391 $217 $294 reversed $392 $-1 #
edge $-1 -1 $-1 $301 -2.5000000000000009 $393 -0 $217 $394 forward @7 tangent #
coedge $-1 -1 $-1 $395 $396 $218 $296 forward $397 $-1 #
edge $-1 -1 $-1 $300 -5.5674559446206864 $398 -0.71572936255890063 $295 $399 forward @7 unknown #
coedge $-1 -1 $-1 $400 $219 $396 $401 forward $299 $-1 #
coedge $-1 -1 $-1 $219 $402 $390 $403 forward $299 $-1 #
loop $-1 -1 $-1 $404 $297 $405 #
vertex $-1 -1 $-1 $220 $406 #
vertex $-1 -1 $-1 $220 $407 #
straight-curve $-1 -1 $-1 37.5 -12.5 25 10 0 0 I I #
loop $-1 -1 $-1 $-1 $408 $304 #
face $-1 -1 $-1 $405 $221 $2 $-1 $409 reversed single #
point $-1 -1 $-1 9.625 1.1787225441793274e-015 25 #
coedge $-1 -1 $-1 $410 $411 $224 $307 reversed $412 $-1 #
edge $-1 -1 $-1 $311 1.24269220375459 $320 1.5688951058467286 $224 $413 forward @7 unknown #
coedge $-1 -1 $-1 $414 $225 $228 $314 forward $310 $-1 #
coedge $-1 -1 $-1 $225 $414 $410 $415 reversed $310 $-1 #
loop $-1 -1 $-1 $-1 $225 $416 #
vertex $-1 -1 $-1 $307 $417 #
straight-curve $-1 -1 $-1 -11.462499999999999 0.81550725523035539 25 -6.8069475624196939e-015 -10 0 I I #
coedge $-1 -1 $-1 $228 $227 $418 $419 forward $229 $-1 #
edge $-1 -1 $-1 $230 0 $420 0.29999999999999982 $228 $421 forward @7 unknown #
face $-1 -1 $-1 $422 $229 $2 $-1 $423 reversed single #
point $-1 -1 $-1 -11.462499999999999 1.631014510460691 25 #
coedge $-1 -1 $-1 $424 $232 $411 $425 forward $319 $-1 #
coedge $-1 -1 $-1 $232 $424 $234 $323 reversed $319 $-1 #
loop $-1 -1 $-1 $-1 $232 $426 #
vertex $-1 -1 $-1 $233 $427 #
straight-curve $-1 -1 $-1 -3.525469824636593 -9.4754900396943409 25 -8.660254037844382 5.0000000000000089 0 I I #
coedge $-1 -1 $-1 $235 $234 $428 $429 forward $236 $-1 #
edge $-1 -1 $-1 $237 0 $430 0.29999999999999982 $318 $431 forward @7 unknown #
face $-1 -1 $-1 $426 $236 $2 $-1 $432 reversed single #
point $-1 -1 $-1 -17.112500000000001 -1.6310145104606915 25 #
coedge $-1 -1 $-1 $428 $418 $239 $327 reversed $433 $-1 #
edge $-1 -1 $-1 $328 0 $330 0.32620290209213865 $239 $434 forward @7 unknown #
vertex $-1 -1 $-1 $240 $435 #
straight-curve $-1 -1 $-1 -17.112500000000001 1.6310145104606921 25 0 0 -10 I I #
vertex $-1 -1 $-1 $241 $436 #
straight-curve $-1 -1 $-1 -14.2875 3.2620290209213865 25 0 0 -10 I I #
plane-surface $-1 -1 $-1 -17.112500000000001 1.6310145104606921 25 -0.50000000000000044 0.86602540378443849 0 8.6602540378443855 5.0000000000000044 0 forward_v I I I I #
coedge $-1 -1 $-1 $437 $245 $248 $338 forward $335 $-1 #
coedge $-1 -1 $-1 $245 $437 $256 $348 reversed $335 $-1 #
loop $-1 -1 $-1 $-1 $245 $287 #
straight-curve $-1 -1 $-1 8.6026551753634166 -9.9536082313669905 25 8.660254037844382 -5.0000000000000089 0 I I #
coedge $-1 -1 $-1 $248 $247 $438 $439 forward $249 $-1 #
edge $-1 -1 $-1 $250 0 $440 0.29999999999999982 $248 $441 forward @7 unknown #
face $-1 -1 $-1 $254 $249 $2 $-1 $442 reversed single #
point $-1 -1 $-1 7.1437499999999998 -9.1113089356487826 25 #
coedge $-1 -1 $-1 $264 $438 $252 $342 reversed $354 $-1 #
edge $-1 -1 $-1 $268 0 $343 0.32620290209213887 $252 $443 forward @7 unknown #
vertex $-1 -1 $-1 $253 $444 #
straight-curve $-1 -1 $-1 4.3187499999999979 -10.742323446109472 25 0 0 -10 I I #
face $-1 -1 $-1 $445 $446 $2 $-1 $447 forward single #
plane-surface $-1 -1 $-1 4.3187499999999961 -14.004352467030863 25 -1 7.2164496600635175e-016 0 7.2164496600635175e-015 10 0 forward_v I I I I #
coedge $-1 -1 $-1 $257 $256 $448 $449 forward $258 $-1 #
edge $-1 -1 $-1 $259 0 $450 0.29999999999999982 $334 $451 forward @7 unknown #
point $-1 -1 $-1 9.96875 -10.742323446109479 25 #
coedge $-1 -1 $-1 $448 $264 $261 $351 reversed $354 $-1 #
edge $-1 -1 $-1 $352 0 $266 0.32620290209213837 $261 $452 forward @7 unknown #
vertex $-1 -1 $-1 $262 $453 #
straight-curve $-1 -1 $-1 9.9687499999999947 -14.004352467030863 25 0 0 -10 I I #
loop $-1 -1 $-1 $-1 $341 $345 #
straight-curve $-1 -1 $-1 7.1437499999999963 -15.635366977491554 22 -8.6602540378443891 4.9999999999999991 0 I I #
point $-1 -1 $-1 7.1437499999999963 -15.635366977491554 22 #
point $-1 -1 $-1 4.3187499999999961 -14.004352467030863 22 #
face $-1 -1 $-1 $454 $376 $2 $-1 $455 reversed single #
loop $-1 -1 $-1 $-1 $456 $270 #
plane-surface $-1 -1 $-1 33.689488223348462 12.500000000000009 5.9000000000000057 -1.1654319311415538e-015 -0 -1 10 2.3684757858670009e-015 -1.1654319311415538e-014 forward_v I I I I #
coedge $-1 -1 $-1 $457 $458 $459 $460 reversed $271 $-1 #
coedge $-1 -1 $-1 $461 $273 $458 $462 forward $205 $-1 #
coedge $-1 -1 $-1 $273 $461 $274 $367 reversed $205 $-1 #
coedge $-1 -1 $-1 $276 $459 $273 $365 forward $283 $-1 #
edge $-1 -1 $-1 $463 0.35074028853269795 $368 1.1128426438630035 $364 $464 forward @7 unknown #
coedge $-1 -1 $-1 $275 $274 $465 $466 forward $158 $-1 #
edge $-1 -1 $-1 $368 0 $467 0.80000000000000004 $363 $468 forward @7 unknown #
vertex $-1 -1 $-1 $277 $469 #
straight-curve $-1 -1 $-1 39.405255888325769 12.500000000000009 19.100000000000001 -10 -2.3684757858670009e-015 5.827159655707769e-015 I I #
coedge $-1 -1 $-1 $465 $470 $278 $371 reversed $471 $-1 #
edge $-1 -1 $-1 $372 -0 $377 0.76210235533030568 $278 $472 forward @7 unknown #
vertex $-1 -1 $-1 $279 $473 #
straight-curve $-1 -1 $-1 33.689488223348476 12.500000000000009 19.100000000000005 0 -10 0 I I #
coedge $-1 -1 $-1 $474 $280 $470 $475 forward $376 $-1 #
coedge $-1 -1 $-1 $280 $474 $282 $380 reversed $376 $-1 #
loop $-1 -1 $-1 $-1 $375 $358 #
vertex $-1 -1 $-1 $281 $476 #
straight-curve $-1 -1 $-1 29.878976446696942 12.500000000000009 12.500000000000011 0 -10 0 I I #
coedge $-1 -1 $-1 $459 $282 $456 $477 forward $283 $-1 #
edge $-1 -1 $-1 $285 -0.73179146619785096 $478 0.030310889132455124 $282 $479 forward @7 unknown #
face $-1 -1 $-1 $60 $480 $2 $-1 $481 forward single #
point $-1 -1 $-1 33.689488223348476 12.500000000000009 19.100000000000005 #
point $-1 -1 $-1 29.878976446696942 12.500000000000009 12.500000000000011 #
plane-surface $-1 -1 $-1 7.1437499999999998 -9.1113089356487826 25 0.50000000000000089 0.86602540378443815 0 8.660254037844382 -5.0000000000000089 0 forward_v I I I I #
loop $-1 -1 $-1 $482 $289 $483 #
vertex $-1 -1 $-1 $290 $484 #
ellipse-curve $-1 -1 $-1 7.143750000000006 12.373337956570163 0 0 0 1 -0.80000000000000093 -1.3856406460551018 0 1 I I #
coedge $-1 -1 $-1 $485 $486 $292 $389 reversed $480 $-1 #
edge $-1 -1 $-1 $393 -3.7499999999999996 $398 -1.4375413037544404 $388 $487 forward @7 unknown #
coedge $-1 -1 $-1 $488 $293 $298 $403 reversed $392 $-1 #
coedge $-1 -1 $-1 $293 $488 $485 $489 forward $392 $-1 #
loop $-1 -1 $-1 $-1 $391 $490 #
vertex $-1 -1 $-1 $489 $491 #
straight-curve $-1 -1 $-1 37.499999999999993 12.500000000000009 25 -1.7763568394002499e-015 10 0 I I #
coedge $-1 -1 $-1 $492 $295 $486 $493 reversed $397 $-1 #
coedge $-1 -1 $-1 $295 $492 $297 $401 reversed $397 $-1 #
loop $-1 -1 $-1 $-1 $395 $494 #
vertex $-1 -1 $-1 $296 $495 #
ellipse-curve $-1 -1 $-1 0 0 25 -0 -0 -1 19.050000000000043 0 0 1 I I #
coedge $-1 -1 $-1 $402 $297 $496 $497 reversed $299 $-1 #
edge $-1 -1 $-1 $300 -2.5 $498 -0 $297 $499 forward @7 unknown #
coedge $-1 -1 $-1 $298 $400 $500 $501 forward $299 $-1 #
edge $-1 -1 $-1 $502 1.2621774483536189e-031 $301 1.5707963267948963 $390 $503 forward @7 unknown #
loop $-1 -1 $-1 $-1 $504 $405 #
face $-1 -1 $-1 $483 $299 $2 $-1 $505 forward single #
point $-1 -1 $-1 14.375413037544407 -12.5 25 #
point $-1 -1 $-1 37.5 -12.5 25 #
coedge $-1 -1 $-1 $408 $408 $506 $507 reversed $303 $-1 #
cone-surface $-1 -1 $-1 0 0 0 0 0 1 -9.625 0 0 1 I I 0 1 9.625 forward I I I I #
coedge $-1 -1 $-1 $508 $306 $309 $415 forward $412 $-1 #
coedge $-1 -1 $-1 $306 $508 $317 $425 reversed $412 $-1 #
loop $-1 -1 $-1 $-1 $306 $509 #
straight-curve $-1 -1 $-1 -0.70046982463656871 4.5824465083122474 25 -8.6602540378443909 -4.9999999999999929 0 I I #
coedge $-1 -1 $-1 $309 $308 $510 $511 forward $310 $-1 #
edge $-1 -1 $-1 $311 0 $512 0.29999999999999982 $309 $513 forward @7 unknown #
face $-1 -1 $-1 $315 $310 $2 $-1 $514 reversed single #
point $-1 -1 $-1 -11.4625 -1.6310145104606955 25 #
coedge $-1 -1 $-1 $326 $510 $313 $419 reversed $433 $-1 #
edge $-1 -1 $-1 $330 0 $420 0.32620290209213887 $313 $515 forward @7 unknown #
vertex $-1 -1 $-1 $314 $516 #
straight-curve $-1 -1 $-1 -11.462499999999999 1.631014510460691 25 0 0 -10 I I #
face $-1 -1 $-1 $517 $518 $2 $-1 $519 forward single #
plane-surface $-1 -1 $-1 -14.2875 3.2620290209213865 25 0.50000000000000044 0.86602540378443849 0 8.6602540378443855 -5.0000000000000044 0 forward_v I I I I #
coedge $-1 -1 $-1 $318 $317 $520 $521 forward $319 $-1 #
edge $-1 -1 $-1 $320 0 $522 0.29999999999999982 $411 $523 forward @7 unknown #
face $-1 -1 $-1 $509 $319 $2 $-1 $524 reversed single #
point $-1 -1 $-1 -14.287500000000001 -3.2620290209213865 25 #
coedge $-1 -1 $-1 $520 $326 $322 $429 reversed $433 $-1 #
edge $-1 -1 $-1 $430 0 $328 0.32620290209213837 $322 $525 forward @7 unknown #
vertex $-1 -1 $-1 $323 $526 #
straight-curve $-1 -1 $-1 -17.112500000000001 -1.6310145104606915 25 0 0 -10 I I #
plane-surface $-1 -1 $-1 -17.112500000000001 -1.6310145104606915 25 -1 0 0 0 10 0 forward_v I I I I #
loop $-1 -1 $-1 $-1 $418 $422 #
straight-curve $-1 -1 $-1 -17.112500000000001 1.6310145104606921 22 8.6602540378443855 5.0000000000000044 0 I I #
point $-1 -1 $-1 -17.112500000000001 1.6310145104606921 22 #
point $-1 -1 $-1 -14.2875 3.2620290209213865 22 #
coedge $-1 -1 $-1 $334 $333 $527 $528 forward $335 $-1 #
coedge $-1 -1 $-1 $341 $527 $337 $439 reversed $354 $-1 #
edge $-1 -1 $-1 $343 0 $440 0.32620290209213865 $337 $529 forward @7 unknown #
vertex $-1 -1 $-1 $338 $530 #
straight-curve $-1 -1 $-1 7.1437499999999998 -9.1113089356487826 25 0 0 -10 I I #
plane-surface $-1 -1 $-1 4.3187499999999979 -10.742323446109472 25 -0.49999999999999922 0.86602540378443915 0 8.6602540378443909 4.999999999999992 0 forward_v I I I I #
straight-curve $-1 -1 $-1 4.3187499999999961 -14.004352467030863 22 7.2164496600635175e-015 10 0 I I #
point $-1 -1 $-1 4.3187499999999979 -10.742323446109472 22 #
face $-1 -1 $-1 $242 $531 $2 $-1 $532 reversed single #
loop $-1 -1 $-1 $354 $533 $345 #
plane-surface $-1 -1 $-1 7.1437499999999972 -12.37333795657017 22 0 0 1 -4.9999999999999982 8.6602540378443891 0 forward_v I I I I #
coedge $-1 -1 $-1 $527 $350 $347 $449 reversed $354 $-1 #
edge $-1 -1 $-1 $450 0 $352 0.32620290209213848 $347 $534 forward @7 unknown #
vertex $-1 -1 $-1 $348 $535 #
straight-curve $-1 -1 $-1 9.96875 -10.742323446109479 25 0 0 -10 I I #
straight-curve $-1 -1 $-1 9.9687499999999947 -14.004352467030863 22 -8.6602540378443891 -4.9999999999999982 0 I I #
point $-1 -1 $-1 9.9687499999999947 -14.004352467030863 22 #
face $-1 -1 $-1 $536 $537 $2 $-1 $538 reversed single #
plane-surface $-1 -1 $-1 29.878976446696942 12.500000000000009 12.500000000000011 -0.86602540378443937 -0 -0.49999999999999883 4.9999999999999885 1.1842378929334981e-015 -8.6602540378443944 forward_v I I I I #
coedge $-1 -1 $-1 $539 $540 $379 $477 reversed $359 $-1 #
coedge $-1 -1 $-1 $541 $361 $540 $542 forward $271 $-1 #
coedge $-1 -1 $-1 $361 $541 $362 $462 reversed $271 $-1 #
coedge $-1 -1 $-1 $364 $379 $361 $460 forward $283 $-1 #
edge $-1 -1 $-1 $543 0.35074028853269745 $463 1.1128426438630044 $459 $544 forward @7 unknown #
coedge $-1 -1 $-1 $363 $362 $545 $546 forward $205 $-1 #
edge $-1 -1 $-1 $463 0 $547 0.80000000000000004 $458 $548 forward @7 unknown #
vertex $-1 -1 $-1 $365 $549 #
straight-curve $-1 -1 $-1 46.874724995966552 12.500000000000011 9.4624999999999986 -4.9999999999999964 -1.1842378929334997e-015 8.6602540378443891 I I #
coedge $-1 -1 $-1 $545 $370 $366 $466 reversed $471 $-1 #
edge $-1 -1 $-1 $467 0 $372 0.76210235533030612 $366 $550 forward @7 unknown #
vertex $-1 -1 $-1 $367 $551 #
straight-curve $-1 -1 $-1 41.310511776651538 12.500000000000011 19.100000000000001 0 -10 0 I I #
point $-1 -1 $-1 41.310511776651538 12.500000000000011 19.100000000000001 #
coedge $-1 -1 $-1 $370 $552 $374 $475 reversed $471 $-1 #
loop $-1 -1 $-1 $-1 $470 $454 #
straight-curve $-1 -1 $-1 33.689488223348476 4.5000000000000089 19.100000000000005 -5.0000000000000089 -1.1842378929335024e-015 -8.660254037844382 I I #
point $-1 -1 $-1 33.689488223348476 4.5000000000000089 19.100000000000005 #
coedge $-1 -1 $-1 $375 $374 $539 $553 reversed $376 $-1 #
edge $-1 -1 $-1 $377 0 $554 0.76210235533030612 $374 $555 forward @7 unknown #
point $-1 -1 $-1 29.878976446696942 4.5000000000000089 12.500000000000011 #
edge $-1 -1 $-1 $478 -0.19052558883257698 $543 0.57157676649772871 $379 $556 forward @7 unknown #
vertex $-1 -1 $-1 $477 $557 #
straight-curve $-1 -1 $-1 33.537933777686192 12.500000000000009 6.1625000000000041 4.9999999999999885 1.1842378929334979e-015 -8.6602540378443944 I I #
loop $-1 -1 $-1 $283 $486 $381 #
plane-surface $-1 -1 $-1 37.499999999999993 12.500000000000009 0 -2.3684757858670011e-016 1 0 -10 -2.3684757858670009e-015 0 forward_v I I I I #
loop $-1 -1 $-1 $558 $559 $483 #
face $-1 -1 $-1 $-1 $385 $2 $-1 $560 reversed single #
point $-1 -1 $-1 7.9437500000000094 13.758978602625266 0 #
coedge $-1 -1 $-1 $561 $388 $391 $489 reversed $480 $-1 #
coedge $-1 -1 $-1 $388 $562 $395 $493 forward $480 $-1 #
straight-curve $-1 -1 $-1 0 12.5 25 -10 -2.3684757858670009e-015 0 I I #
coedge $-1 -1 $-1 $391 $390 $563 $564 forward $392 $-1 #
edge $-1 -1 $-1 $565 -1.262177448353618e-031 $393 1.5707963267948963 $391 $566 forward @7 unknown #
face $-1 -1 $-1 $304 $392 $2 $-1 $567 forward single #
point $-1 -1 $-1 37.499999999999993 12.500000000000009 25 #
coedge $-1 -1 $-1 $396 $395 $568 $569 forward $397 $-1 #
edge $-1 -1 $-1 $570 0 $398 2.5 $486 $571 forward @7 unknown #
face $-1 -1 $-1 $381 $397 $2 $-1 $572 forward single #
point $-1 -1 $-1 14.375413037544405 12.500000000000004 25 #
coedge $-1 -1 $-1 $568 $573 $400 $497 forward $574 $-1 #
edge $-1 -1 $-1 $575 -1.25 $498 2.3124586962455593 $400 $576 forward @7 unknown #
vertex $-1 -1 $-1 $569 $577 #
straight-curve $-1 -1 $-1 14.375413037544407 -12.5 0 -0 -0 -10 I I #
coedge $-1 -1 $-1 $578 $563 $402 $501 reversed $579 $-1 #
edge $-1 -1 $-1 $575 0 $502 1.2500000000000007 $500 $580 forward @7 unknown #
vertex $-1 -1 $-1 $501 $581 #
ellipse-curve $-1 -1 $-1 37.5 -12.5 12.499999999999998 0 -1 0 12.5 0 4.4408920985006246e-015 1 F 1.2621774483536189e-031 F 1.5707963267948963 #
coedge $-1 -1 $-1 $504 $504 $582 $583 forward $404 $-1 #
plane-surface $-1 -1 $-1 -4.4408920985006262e-015 -12.5 0 0 -1 0 10 0 0 forward_v I I I I #
coedge $-1 -1 $-1 $506 $506 $408 $507 forward $584 $-1 #
edge $-1 -1 $-1 $585 -6.2831853071795862 $585 -1.2246467991473532e-016 $506 $586 forward @7 unknown #
coedge $-1 -1 $-1 $411 $410 $587 $588 forward $412 $-1 #
face $-1 -1 $-1 $416 $412 $2 $-1 $589 reversed single #
coedge $-1 -1 $-1 $418 $587 $414 $511 reversed $433 $-1 #
edge $-1 -1 $-1 $420 0 $512 0.32620290209213865 $414 $590 forward @7 unknown #
vertex $-1 -1 $-1 $415 $591 #
straight-curve $-1 -1 $-1 -11.4625 -1.6310145104606955 25 0 0 -10 I I #
plane-surface $-1 -1 $-1 -11.462499999999999 1.631014510460691 25 1 -6.8069475624196935e-016 0 -6.8069475624196939e-015 -10 0 forward_v I I I I #
straight-curve $-1 -1 $-1 -14.2875 3.2620290209213865 22 8.6602540378443855 -5.0000000000000044 0 I I #
point $-1 -1 $-1 -11.462499999999999 1.631014510460691 22 #
face $-1 -1 $-1 $494 $592 $2 $-1 $593 reversed single #
loop $-1 -1 $-1 $433 $594 $422 #
plane-surface $-1 -1 $-1 -14.2875 -5.3179277831403865e-017 22 0 0 1 10 0 0 forward_v I I I I #
coedge $-1 -1 $-1 $587 $428 $424 $521 reversed $433 $-1 #
edge $-1 -1 $-1 $522 0 $430 0.32620290209213848 $424 $595 forward @7 unknown #
vertex $-1 -1 $-1 $425 $596 #
straight-curve $-1 -1 $-1 -14.287500000000001 -3.2620290209213865 25 0 0 -10 I I #
plane-surface $-1 -1 $-1 -14.287500000000001 -3.2620290209213865 25 -0.50000000000000089 -0.86602540378443826 -0 -8.660254037844382 5.0000000000000089 0 forward_v I I I I #
straight-curve $-1 -1 $-1 -17.112500000000001 -1.6310145104606915 22 0 10 0 I I #
point $-1 -1 $-1 -17.112500000000001 -1.6310145104606915 22 #
coedge $-1 -1 $-1 $438 $448 $437 $528 reversed $354 $-1 #
edge $-1 -1 $-1 $440 0 $450 0.32620290209213865 $437 $597 forward @7 unknown #
straight-curve $-1 -1 $-1 4.3187499999999979 -10.742323446109472 22 8.6602540378443909 4.999999999999992 0 I I #
point $-1 -1 $-1 7.1437499999999998 -9.1113089356487826 22 #
loop $-1 -1 $-1 $598 $599 $445 #
cone-surface $-1 -1 $-1 7.1437499999999972 -12.37333795657017 0 0 0 1 -0.79999999999999982 1.3856406460551023 0 1 I I 0 1 1.6000000000000003 forward I I I I #
coedge $-1 -1 $-1 $533 $533 $599 $600 forward $446 $-1 #
straight-curve $-1 -1 $-1 9.96875 -10.742323446109479 22 -1.2212453270876722e-014 -10 0 I I #
point $-1 -1 $-1 9.96875 -10.742323446109479 22 #
face $-1 -1 $-1 $601 $602 $2 $-1 $603 reversed single #
loop $-1 -1 $-1 $471 $604 $454 #
plane-surface $-1 -1 $-1 37.500000000000007 4.5000000000000107 12.500000000000004 2.2204460492503131e-016 -1 0 0 0 -10 forward_v I I I I #
coedge $-1 -1 $-1 $605 $456 $474 $553 forward $359 $-1 #
coedge $-1 -1 $-1 $456 $605 $457 $542 reversed $359 $-1 #
coedge $-1 -1 $-1 $458 $457 $606 $607 forward $271 $-1 #
edge $-1 -1 $-1 $543 0 $608 0.80000000000000004 $540 $609 forward @7 unknown #
vertex $-1 -1 $-1 $460 $610 #
straight-curve $-1 -1 $-1 39.556810333988032 12.500000000000009 2.8624999999999998 5.000000000000008 1.1842378929335022e-015 8.660254037844382 I I #
coedge $-1 -1 $-1 $606 $465 $461 $546 reversed $471 $-1 #
edge $-1 -1 $-1 $547 0 $467 0.76210235533030568 $461 $611 forward @7 unknown #
vertex $-1 -1 $-1 $462 $612 #
straight-curve $-1 -1 $-1 45.121023553303061 12.500000000000011 12.5 0 -10 0 I I #
point $-1 -1 $-1 45.121023553303061 12.500000000000011 12.5 #
straight-curve $-1 -1 $-1 41.310511776651538 4.5000000000000107 19.100000000000001 -10 -2.3684757858670009e-015 5.827159655707769e-015 I I #
point $-1 -1 $-1 41.310511776651538 4.5000000000000107 19.100000000000001 #
coedge $-1 -1 $-1 $470 $606 $605 $613 reversed $471 $-1 #
edge $-1 -1 $-1 $478 0 $554 0.80000000000000004 $474 $614 forward @7 unknown #
vertex $-1 -1 $-1 $553 $615 #
straight-curve $-1 -1 $-1 29.878976446696942 4.5000000000000089 12.500000000000011 4.9999999999999885 1.1842378929334981e-015 -8.6602540378443944 I I #
straight-curve $-1 -1 $-1 35.594744111674231 12.500000000000009 5.900000000000003 10 2.3684757858670009e-015 -1.1654319311415538e-014 I I #
point $-1 -1 $-1 33.689488223348462 12.500000000000009 5.9000000000000057 #
loop $-1 -1 $-1 $574 $616 $483 #
coedge $-1 -1 $-1 $559 $559 $617 $618 forward $482 $-1 #
plane-surface $-1 -1 $-1 16.294580467635793 8.5763010779805204e-016 0 0 0 1 10 0 0 forward_v I I I I #
coedge $-1 -1 $-1 $562 $485 $619 $620 reversed $480 $-1 #
coedge $-1 -1 $-1 $486 $561 $621 $622 reversed $480 $-1 #
coedge $-1 -1 $-1 $500 $619 $488 $564 reversed $579 $-1 #
edge $-1 -1 $-1 $502 0 $565 2.5000000000000009 $488 $623 forward @7 tangent #
vertex $-1 -1 $-1 $620 $624 #
ellipse-curve $-1 -1 $-1 37.5 12.500000000000009 12.499999999999998 2.3684757858670011e-016 -1 0 12.5 0 4.4408920985006246e-015 1 I I #
cone-surface $-1 -1 $-1 37.5 -12.5 12.499999999999998 0 1 0 12.5 0 4.4408920985006246e-015 1 I I 0 1 12.5 forward I I I I #
coedge $-1 -1 $-1 $621 $496 $492 $569 reversed $574 $-1 #
edge $-1 -1 $-1 $570 -5.5674559446206855 $498 -0.71572936255890041 $492 $625 forward @7 unknown #
vertex $-1 -1 $-1 $622 $626 #
straight-curve $-1 -1 $-1 14.375413037544405 12.500000000000004 0 0 0 10 I I #
cone-surface $-1 -1 $-1 0 0 0 0 0 1 19.050000000000043 0 0 1 I I 0 1 19.050000000000043 forward I I I I #
coedge $-1 -1 $-1 $496 $621 $578 $627 reversed $574 $-1 #
loop $-1 -1 $-1 $584 $621 $483 #
vertex $-1 -1 $-1 $497 $628 #
straight-curve $-1 -1 $-1 37.5 -12.5 0 -10 -0 -0 F -1.25 F 3.7500000000000004 #
point $-1 -1 $-1 14.375413037544407 -12.5 0 #
coedge $-1 -1 $-1 $619 $500 $573 $627 forward $579 $-1 #
loop $-1 -1 $-1 $-1 $619 $601 #
straight-curve $-1 -1 $-1 50.000000000000007 -12.5 -5.0108319389655989e-015 0 0 10 F 0 F 1.2500000000000007 #
point $-1 -1 $-1 50.000000000000007 -12.5 12.500000000000002 #
coedge $-1 -1 $-1 $582 $582 $504 $583 reversed $629 $-1 #
edge $-1 -1 $-1 $630 -3.1415926535897931 $630 3.1415926535897931 $504 $631 forward @7 unknown #
loop $-1 -1 $-1 $-1 $506 $483 #
vertex $-1 -1 $-1 $507 $632 #
ellipse-curve $-1 -1 $-1 0 0 0 0 0 1 -9.625 0 0 1 I I #
coedge $-1 -1 $-1 $510 $520 $508 $588 reversed $433 $-1 #
edge $-1 -1 $-1 $512 0 $522 0.32620290209213865 $508 $633 forward @7 unknown #
plane-surface $-1 -1 $-1 -11.4625 -1.6310145104606955 25 0.49999999999999933 -0.86602540378443904 0 -8.6602540378443909 -4.9999999999999929 0 forward_v I I I I #
straight-curve $-1 -1 $-1 -11.462499999999999 1.631014510460691 22 -6.8069475624196939e-015 -10 0 I I #
point $-1 -1 $-1 -11.4625 -1.6310145104606955 22 #
loop $-1 -1 $-1 $634 $635 $517 #
cone-surface $-1 -1 $-1 -14.2875 0 0 0 0 1 1.6000000000000003 0 0 1 I I 0 1 1.6000000000000003 forward I I I I #
coedge $-1 -1 $-1 $594 $594 $635 $636 reversed $518 $-1 #
straight-curve $-1 -1 $-1 -14.287500000000001 -3.2620290209213865 22 -8.660254037844382 5.0000000000000089 0 I I #
point $-1 -1 $-1 -14.287500000000001 -3.2620290209213865 22 #
straight-curve $-1 -1 $-1 7.1437499999999998 -9.1113089356487826 22 8.660254037844382 -5.0000000000000089 0 I I #
loop $-1 -1 $-1 $-1 $617 $445 #
coedge $-1 -1 $-1 $599 $599 $533 $600 reversed $531 $-1 #
edge $-1 -1 $-1 $637 -1.2246467991473522e-016 $637 6.2831853071795862 $599 $638 forward @7 unknown #
face $-1 -1 $-1 $490 $579 $2 $-1 $639 forward single #
loop $-1 -1 $-1 $629 $640 $536 #
cone-surface $-1 -1 $-1 37.5 -12.5 12.499999999999998 0 1 0 -4.0999999999999996 0 -3.5172741341629159e-016 1 I I 0 1 4.0999999999999996 forward I I I I #
coedge $-1 -1 $-1 $604 $604 $640 $641 reversed $537 $-1 #
coedge $-1 -1 $-1 $540 $539 $552 $613 forward $359 $-1 #
coedge $-1 -1 $-1 $552 $545 $541 $607 reversed $471 $-1 #
edge $-1 -1 $-1 $608 0 $547 0.7621023553303069 $541 $642 forward @7 unknown #
vertex $-1 -1 $-1 $542 $643 #
straight-curve $-1 -1 $-1 41.310511776651524 12.500000000000011 5.8999999999999968 0 -10 0 I I #
point $-1 -1 $-1 41.310511776651524 12.500000000000011 5.8999999999999968 #
straight-curve $-1 -1 $-1 45.121023553303061 4.5000000000000107 12.5 -4.9999999999999964 -1.1842378929334997e-015 8.6602540378443891 I I #
point $-1 -1 $-1 45.121023553303061 4.5000000000000107 12.5 #
edge $-1 -1 $-1 $554 0 $608 0.76210235533030568 $605 $644 forward @7 unknown #
straight-curve $-1 -1 $-1 33.689488223348462 12.500000000000009 5.9000000000000057 0 -10 0 I I #
point $-1 -1 $-1 33.689488223348462 4.5000000000000089 5.9000000000000057 #
coedge $-1 -1 $-1 $616 $616 $645 $646 forward $558 $-1 #
coedge $-1 -1 $-1 $617 $617 $559 $618 reversed $598 $-1 #
edge $-1 -1 $-1 $647 -3.1415926535897931 $647 3.1415926535897931 $559 $648 forward @7 unknown #
coedge $-1 -1 $-1 $563 $578 $561 $620 forward $579 $-1 #
edge $-1 -1 $-1 $649 -1.2500000000000004 $565 2.2204460492503131e-016 $619 $650 forward @7 unknown #
coedge $-1 -1 $-1 $573 $568 $562 $622 forward $574 $-1 #
edge $-1 -1 $-1 $570 1.4375413037544404 $649 5 $562 $651 forward @7 unknown #
straight-curve $-1 -1 $-1 50.000000000000007 -12.5 12.500000000000002 0 10 0 I I #
point $-1 -1 $-1 50.000000000000007 12.500000000000009 12.500000000000002 #
ellipse-curve $-1 -1 $-1 0 0 0 0 0 1 19.050000000000043 0 0 1 I I #
point $-1 -1 $-1 14.375413037544405 12.500000000000004 0 #
edge $-1 -1 $-1 $575 0 $649 2.5000000000000009 $573 $652 forward @7 unknown #
point $-1 -1 $-1 50.000000000000007 -12.5 -5.0108319389655989e-015 #
loop $-1 -1 $-1 $-1 $582 $536 #
vertex $-1 -1 $-1 $583 $653 #
ellipse-curve $-1 -1 $-1 37.5 -12.5 12.499999999999998 0 1 0 -4.0999999999999996 0 -3.5172741341629159e-016 1 I I #
point $-1 -1 $-1 -9.625 1.1787225441793274e-015 0 #
straight-curve $-1 -1 $-1 -11.4625 -1.6310145104606955 22 -8.6602540378443909 -4.9999999999999929 0 I I #
loop $-1 -1 $-1 $-1 $645 $517 #
coedge $-1 -1 $-1 $635 $635 $594 $636 forward $592 $-1 #
edge $-1 -1 $-1 $654 1.2246467991473522e-016 $654 6.2831853071795862 $635 $655 forward @7 unknown #
vertex $-1 -1 $-1 $600 $656 #
ellipse-curve $-1 -1 $-1 7.1437499999999972 -12.37333795657017 22 0 0 -1 -0.79999999999999982 1.3856406460551023 0 1 I I #
plane-surface $-1 -1 $-1 50.000000000000007 -12.5 12.500000000000002 1 0 0 -0 -0 -10 forward_v I I I I #
coedge $-1 -1 $-1 $640 $640 $604 $641 forward $602 $-1 #
edge $-1 -1 $-1 $657 -3.1415926535897931 $657 3.1415926535897931 $640 $658 forward @7 unknown #
straight-curve $-1 -1 $-1 41.310511776651524 4.5000000000000107 5.8999999999999968 5.000000000000008 1.1842378929335024e-015 8.660254037844382 I I #
point $-1 -1 $-1 41.310511776651524 4.5000000000000107 5.8999999999999968 #
straight-curve $-1 -1 $-1 33.689488223348462 4.5000000000000089 5.9000000000000057 10 2.3684757858670009e-015 -1.1654319311415538e-014 I I #
coedge $-1 -1 $-1 $645 $645 $616 $646 reversed $634 $-1 #
edge $-1 -1 $-1 $659 -3.1415926535897931 $659 3.1415926535897931 $616 $660 forward @7 unknown #
vertex $-1 -1 $-1 $618 $661 #
ellipse-curve $-1 -1 $-1 7.1437499999999972 -12.37333795657017 0 0 0 1 -0.79999999999999982 1.3856406460551023 0 1 I I #
vertex $-1 -1 $-1 $620 $662 #
straight-curve $-1 -1 $-1 50 12.500000000000011 12.5 0 0 10 I I #
straight-curve $-1 -1 $-1 0 12.5 0 10 2.3684757858670009e-015 0 F 0 F 5 #
straight-curve $-1 -1 $-1 50.000000000000007 -12.5 -5.0108319389655989e-015 0 10 0 I I #
point $-1 -1 $-1 41.600000000000001 -12.5 12.499999999999998 #
vertex $-1 -1 $-1 $636 $663 #
ellipse-curve $-1 -1 $-1 -14.2875 0 22 0 0 1 1.6000000000000003 0 0 1 I I #
point $-1 -1 $-1 6.3437499999999964 -10.987697310515065 22 #
vertex $-1 -1 $-1 $641 $664 #
ellipse-curve $-1 -1 $-1 37.5 4.5000000000000107 12.499999999999998 -2.2204460492503131e-016 1 0 -4.0999999999999996 0 -3.5172741341629159e-016 1 I I #
vertex $-1 -1 $-1 $646 $665 #
ellipse-curve $-1 -1 $-1 -14.2875 0 0 0 0 1 1.6000000000000003 0 0 1 I I #
point $-1 -1 $-1 7.9437499999999979 -13.758978602625273 0 #
point $-1 -1 $-1 50.000000000000007 12.500000000000009 -5.0108319389655989e-015 #
point $-1 -1 $-1 -12.687499999999998 1.9594348786357655e-016 22 #
point $-1 -1 $-1 41.600000000000001 4.5000000000000107 12.499999999999998 #
point $-1 -1 $-1 -15.887500000000001 1.9594348786357655e-016 0 #
End-of-ACIS-data 