700 0 1 0           
33 Autodesk Inventor 17.0.13800.0000 19 ASM 218.0.0.5119 NT 24 Tue Dec 10 11:02:16 2013 
25.399999999999999 9.9999999999999995e-007 1e-010 
body $-1 -1 $-1 $1 $-1 $-1 #
lump $-1 -1 $-1 $-1 $2 $0 #
shell $-1 -1 $-1 $-1 $-1 $3 $-1 $1 #
face $-1 -1 $-1 $4 $5 $2 $-1 $6 forward single #
face $-1 -1 $-1 $7 $8 $2 $-1 $9 forward single #
loop $-1 -1 $-1 $-1 $10 $3 #
cone-surface $-1 -1 $-1 -0.37500000000000006 0.1443375672974061 0.49999999999999994 7.5707192377305687e-016 -1 0 -0.08838834764831846 -6.1814663727707665e-017 0.088388347648318405 1 I I 0 1 0.12499999999999999 forward I I I I #
face $-1 -1 $-1 $11 $12 $2 $-1 $13 forward single #
loop $-1 -1 $-1 $-1 $14 $4 #
cone-surface $-1 -1 $-1 0.065375837829800929 0.47075745946175263 0.49999999999999994 -0.86602540378443826 -0.50000000000000078 0 -0.044194173824159279 0.076546554461974239 0.088388347648318447 1 I I 0 1 0.12499999999999999 forward I I I I #
coedge $-1 -1 $-1 $15 $16 $17 $18 forward $5 $-1 #
face $-1 -1 $-1 $19 $20 $2 $-1 $21 forward single #
loop $-1 -1 $-1 $-1 $22 $7 #
cone-surface $-1 -1 $-1 0.44037583782980122 0.17876159337657643 0.49999999999999994 -0.86602540378443893 0.49999999999999967 0 0.044194173824159202 0.07654655446197435 0.088388347648318405 1 I I 0 1 0.12499999999999999 forward I I I I #
coedge $-1 -1 $-1 $23 $24 $25 $26 forward $8 $-1 #
coedge $-1 -1 $-1 $27 $10 $24 $28 forward $5 $-1 #
coedge $-1 -1 $-1 $10 $27 $29 $30 reversed $5 $-1 #
coedge $-1 -1 $-1 $31 $25 $10 $18 reversed $32 $-1 #
edge $-1 -1 $-1 $33 -0.91654355233853013 $34 0.18330871046770664 $17 $35 forward @7 tangent #
face $-1 -1 $-1 $36 $37 $2 $-1 $38 forward single #
loop $-1 -1 $-1 $-1 $39 $11 #
cone-surface $-1 -1 $-1 0.37499999999999978 -0.14433756729740621 0.49999999999999994 -3.0282876950922282e-016 1 0 0.088388347648318502 3.0907331863853826e-017 0.088388347648318363 1 I I 0 1 0.12499999999999999 forward I I I I #
coedge $-1 -1 $-1 $40 $41 $42 $43 forward $12 $-1 #
coedge $-1 -1 $-1 $44 $14 $41 $45 forward $8 $-1 #
coedge $-1 -1 $-1 $14 $44 $15 $28 reversed $8 $-1 #
coedge $-1 -1 $-1 $17 $42 $14 $26 reversed $32 $-1 #
edge $-1 -1 $-1 $34 -1.2915956312594652 $46 -0.19174336845322934 $25 $47 forward @7 tangent #
coedge $-1 -1 $-1 $16 $15 $48 $49 forward $5 $-1 #
edge $-1 -1 $-1 $34 -1.5707963267948966 $50 0 $15 $51 forward @7 unknown #
coedge $-1 -1 $-1 $52 $53 $16 $30 forward $54 $-1 #
edge $-1 -1 $-1 $33 -1.5707963267948952 $55 1.5609916212259169e-015 $29 $56 forward @7 unknown #
coedge $-1 -1 $-1 $57 $17 $53 $58 reversed $32 $-1 #
loop $-1 -1 $-1 $-1 $17 $59 #
vertex $-1 -1 $-1 $18 $60 #
vertex $-1 -1 $-1 $18 $61 #
straight-curve $-1 -1 $-1 -0.37500000000000006 0.1443375672974061 0.62499999999999989 -2.9805981250907746e-016 0.39370078740157477 0 F -2.1823381046770605 F 1.4491032628062379 #
face $-1 -1 $-1 $62 $54 $2 $-1 $63 forward single #
loop $-1 -1 $-1 $-1 $64 $19 #
cone-surface $-1 -1 $-1 0.19037583782980147 -0.32309916067398253 0.49999999999999994 0.86602540378443837 0.50000000000000044 0 0.044194173824159279 -0.076546554461974295 0.088388347648318433 1 I I 0 1 0.12499999999999999 forward I I I I #
coedge $-1 -1 $-1 $65 $66 $67 $68 forward $20 $-1 #
coedge $-1 -1 $-1 $69 $22 $66 $70 forward $12 $-1 #
coedge $-1 -1 $-1 $22 $69 $23 $45 reversed $12 $-1 #
coedge $-1 -1 $-1 $25 $67 $22 $43 reversed $32 $-1 #
edge $-1 -1 $-1 $46 -1.2915956312594672 $71 -0.1917433684532289 $42 $72 forward @7 tangent #
coedge $-1 -1 $-1 $24 $23 $73 $74 forward $8 $-1 #
edge $-1 -1 $-1 $46 -1.5707963267948963 $75 -5.245148147835372e-016 $23 $76 forward @7 unknown #
vertex $-1 -1 $-1 $26 $77 #
straight-curve $-1 -1 $-1 0.065375837829800929 0.47075745946175263 0.62499999999999989 0.34095488337970009 0.19685039370078766 0 F -2.6964933699243701 F 1.6780066330179144 #
coedge $-1 -1 $-1 $78 $79 $27 $49 reversed $80 $-1 #
edge $-1 -1 $-1 $50 -0.36661742093541255 $55 1.0998522628062364 $48 $81 forward @7 tangent #
vertex $-1 -1 $-1 $49 $82 #
ellipse-curve $-1 -1 $-1 -0.37500000000000011 0.21650635094610951 0.49999999999999994 -0.49999999999999889 -0.86602540378443926 0 -0.12500000000000003 0.072168783648703022 0 0.86602540378443904 F -1.5707963267948966 F 0 #
coedge $-1 -1 $-1 $83 $29 $84 $85 forward $54 $-1 #
coedge $-1 -1 $-1 $29 $83 $31 $58 forward $54 $-1 #
loop $-1 -1 $-1 $-1 $52 $36 #
vertex $-1 -1 $-1 $49 $86 #
ellipse-curve $-1 -1 $-1 -0.37499999999999978 -0.21650635094610973 0.49999999999999994 0.50000000000000056 -0.86602540378443837 7.8049581061295846e-016 -0.12499999999999997 -0.0721687836487033 1.9512395265323959e-016 0.8660254037844386 F -1.5707963267948952 F 1.5609916212259169e-015 #
coedge $-1 -1 $-1 $67 $31 $87 $88 reversed $32 $-1 #
edge $-1 -1 $-1 $89 -0.54149147341759574 $33 0.5583607893886412 $31 $90 forward @7 tangent #
face $-1 -1 $-1 $91 $92 $2 $-1 $93 forward single #
point $-1 -1 $-1 -0.37499999999999978 -0.21650635094610965 0.62499999999999989 #
point $-1 -1 $-1 -0.37500000000000011 0.21650635094610951 0.62499999999999989 #
face $-1 -1 $-1 $94 $95 $2 $-1 $96 forward single #
cone-surface $-1 -1 $-1 -0.18462416217019822 -0.32641989216434597 0.49999999999999994 0.86602540378443904 -0.49999999999999944 0 -0.044194173824159202 -0.07654655446197435 0.088388347648318405 1 I I 0 1 0.12499999999999999 forward I I I I #
coedge $-1 -1 $-1 $97 $98 $99 $100 forward $37 $-1 #
coedge $-1 -1 $-1 $101 $39 $97 $102 forward $20 $-1 #
coedge $-1 -1 $-1 $39 $101 $40 $70 reversed $20 $-1 #
coedge $-1 -1 $-1 $42 $57 $39 $68 reversed $32 $-1 #
edge $-1 -1 $-1 $71 -0.91654355233853035 $103 0.18330871046770597 $67 $104 forward @7 tangent #
coedge $-1 -1 $-1 $41 $40 $105 $106 forward $12 $-1 #
edge $-1 -1 $-1 $71 -1.5707963267948966 $107 0 $40 $108 forward @7 unknown #
vertex $-1 -1 $-1 $43 $109 #
straight-curve $-1 -1 $-1 0.44037583782980122 0.17876159337657643 0.62499999999999989 0.34095488337970031 -0.19685039370078725 0 F -3.1613456327306064 F 1.2131543702116754 #
coedge $-1 -1 $-1 $110 $111 $44 $74 reversed $112 $-1 #
edge $-1 -1 $-1 $75 0.0084346579855225316 $50 1.4749043417271714 $73 $113 forward @7 tangent #
vertex $-1 -1 $-1 $74 $114 #
ellipse-curve $-1 -1 $-1 -6.6657091045408011e-016 0.4330127018922193 0.49999999999999994 -1 6.154705178013159e-016 -2.6225740739176934e-016 8.8835517282717112e-017 0.14433756729740657 -6.5564351847942162e-017 0.86602540378443782 F -1.570796326794897 F -5.245148147835372e-016 #
point $-1 -1 $-1 -7.8677222217530777e-016 0.43301270189221935 0.62499999999999989 #
coedge $-1 -1 $-1 $115 $48 $111 $116 reversed $80 $-1 #
coedge $-1 -1 $-1 $48 $117 $118 $119 forward $80 $-1 #
loop $-1 -1 $-1 $-1 $48 $120 #
straight-curve $-1 -1 $-1 -0.5 0.14433756729740602 0.49999999999999994 2.9805981250907746e-016 -0.39370078740157477 0 F -1.4491032628062379 F 2.1823381046770605 #
point $-1 -1 $-1 -0.50000000000000011 0.28867513459481253 0.49999999999999994 #
coedge $-1 -1 $-1 $53 $52 $98 $121 reversed $54 $-1 #
coedge $-1 -1 $-1 $118 $122 $52 $85 reversed $123 $-1 #
edge $-1 -1 $-1 $55 -0.74166949985634723 $124 0.72480018388530176 $84 $125 forward @7 tangent #
point $-1 -1 $-1 -0.49999999999999972 -0.28867513459481303 0.49999999999999994 #
coedge $-1 -1 $-1 $98 $97 $57 $88 forward $37 $-1 #
edge $-1 -1 $-1 $103 -0.54149147341759551 $89 0.55836078938864064 $57 $126 forward @7 tangent #
vertex $-1 -1 $-1 $88 $127 #
straight-curve $-1 -1 $-1 -0.18462416217019822 -0.32641989216434597 0.62499999999999989 -0.34095488337970037 0.19685039370078716 0 F -2.411241474888735 F 1.9632585280535446 #
face $-1 -1 $-1 $128 $129 $2 $-1 $130 reversed single #
loop $-1 -1 $-1 $32 $131 $59 #
plane-surface $-1 -1 $-1 0.34100223421280379 7.4774718756272128e-017 0.62499999999999989 0 0 1 0.39370078740157477 0 0 forward_v I I I I #
face $-1 -1 $-1 $120 $123 $2 $-1 $132 forward single #
loop $-1 -1 $-1 $-1 $99 $62 #
plane-surface $-1 -1 $-1 2.6225740739176924e-016 -0.5773502691896254 0 0.50000000000000044 -0.86602540378443837 0 0.34095488337970009 0.19685039370078755 0 forward_v I I I I #
coedge $-1 -1 $-1 $87 $64 $65 $102 reversed $37 $-1 #
coedge $-1 -1 $-1 $64 $87 $83 $121 forward $37 $-1 #
coedge $-1 -1 $-1 $133 $134 $64 $100 reversed $95 $-1 #
edge $-1 -1 $-1 $124 -0.74166949985634667 $135 0.72480018388530199 $99 $136 forward @7 tangent #
coedge $-1 -1 $-1 $66 $65 $137 $138 forward $20 $-1 #
edge $-1 -1 $-1 $103 -1.5707963267948966 $135 0 $65 $139 forward @7 unknown #
vertex $-1 -1 $-1 $68 $140 #
straight-curve $-1 -1 $-1 0.37499999999999978 -0.14433756729740621 0.62499999999999989 1.1922392500363103e-016 -0.39370078740157477 0 F -2.1823381046770614 F 1.4491032628062372 #
coedge $-1 -1 $-1 $141 $142 $69 $106 reversed $143 $-1 #
edge $-1 -1 $-1 $107 0.008434657985522823 $75 1.4749043417271728 $105 $144 forward @7 tangent #
vertex $-1 -1 $-1 $106 $145 #
ellipse-curve $-1 -1 $-1 0.37499999999999967 0.21650635094610965 0.49999999999999994 -0.50000000000000078 0.86602540378443826 0 0.1249999999999999 0.072168783648703314 0 0.86602540378443882 F -1.5707963267948966 F 0 #
point $-1 -1 $-1 0.37499999999999967 0.21650635094610965 0.62499999999999989 #
coedge $-1 -1 $-1 $146 $73 $142 $147 reversed $112 $-1 #
coedge $-1 -1 $-1 $73 $148 $78 $116 forward $112 $-1 #
loop $-1 -1 $-1 $-1 $73 $149 #
straight-curve $-1 -1 $-1 0.0028758378298008847 0.57901063493480731 0.49999999999999994 -0.34095488337970009 -0.19685039370078766 0 F -1.6780066330179144 F 2.6964933699243701 #
point $-1 -1 $-1 -5.7773539317136317e-016 0.57735026918962562 0.49999999999999994 #
coedge $-1 -1 $-1 $117 $78 $150 $151 reversed $80 $-1 #
edge $-1 -1 $-1 $152 0.34029547438752678 $50 1.27 $111 $153 forward @7 unknown #
coedge $-1 -1 $-1 $79 $115 $154 $155 reversed $80 $-1 #
coedge $-1 -1 $-1 $156 $84 $79 $119 reversed $123 $-1 #
edge $-1 -1 $-1 $157 0.34029547438752578 $55 1.27 $79 $158 forward @7 unknown #
face $-1 -1 $-1 $59 $80 $2 $-1 $159 forward single #
edge $-1 -1 $-1 $89 -1.5707963267948966 $124 0 $98 $160 forward @7 unknown #
coedge $-1 -1 $-1 $84 $161 $133 $162 forward $123 $-1 #
loop $-1 -1 $-1 $-1 $84 $94 #
vertex $-1 -1 $-1 $85 $163 #
straight-curve $-1 -1 $-1 -0.24712416217019817 -0.43467306763740082 0.49999999999999994 0.34095488337970037 -0.19685039370078716 0 F -1.9632585280535446 F 2.411241474888735 #
straight-curve $-1 -1 $-1 0.19037583782980147 -0.32309916067398253 0.62499999999999989 -0.34095488337970009 -0.19685039370078752 0 F -1.9463892120825004 F 2.4281107908597841 #
point $-1 -1 $-1 1.9669305554382694e-016 -0.43301270189221902 0.62499999999999989 #
face $-1 -1 $-1 $164 $165 $2 $-1 $166 forward single #
loop $-1 -1 $-1 $167 $168 $91 #
cone-surface $-1 -1 $-1 0 0 0 0 0 1 0.171875 0 0 1 I I 0 1 0.171875 forward I I I I #
coedge $-1 -1 $-1 $169 $170 $171 $172 forward $92 $-1 #
plane-surface $-1 -1 $-1 -0.49999999999999972 -0.28867513459481298 0 -0.49999999999999944 -0.86602540378443904 0 0.34095488337970037 -0.19685039370078716 0 forward_v I I I I #
coedge $-1 -1 $-1 $173 $99 $122 $162 reversed $95 $-1 #
coedge $-1 -1 $-1 $99 $174 $175 $176 forward $95 $-1 #
vertex $-1 -1 $-1 $100 $177 #
straight-curve $-1 -1 $-1 0.2528758378298015 -0.43135233614703739 0.49999999999999994 0.34095488337970009 0.19685039370078752 0 F -2.4281107908597841 F 1.9463892120825004 #
coedge $-1 -1 $-1 $175 $178 $101 $138 reversed $179 $-1 #
edge $-1 -1 $-1 $135 -0.366617420935412 $107 1.0998522628062366 $137 $180 forward @7 tangent #
ellipse-curve $-1 -1 $-1 0.37499999999999978 -0.21650635094610929 0.49999999999999994 0.49999999999999956 0.86602540378443893 0 0.125 -0.072168783648703147 0 0.86602540378443871 F -1.5707963267948966 F 0 #
point $-1 -1 $-1 0.37499999999999978 -0.21650635094610934 0.62499999999999989 #
coedge $-1 -1 $-1 $181 $105 $178 $182 reversed $143 $-1 #
coedge $-1 -1 $-1 $105 $183 $110 $147 forward $143 $-1 #
loop $-1 -1 $-1 $-1 $105 $184 #
straight-curve $-1 -1 $-1 0.50287583782980116 0.28701476884963134 0.49999999999999994 -0.34095488337970031 0.19685039370078725 0 F -1.2131543702116754 F 3.1613456327306064 #
point $-1 -1 $-1 0.49999999999999961 0.28867513459481298 0.49999999999999994 #
coedge $-1 -1 $-1 $148 $110 $185 $186 reversed $112 $-1 #
edge $-1 -1 $-1 $187 0.34029547438752644 $75 1.27 $142 $188 forward @7 unknown #
coedge $-1 -1 $-1 $111 $146 $189 $190 reversed $112 $-1 #
face $-1 -1 $-1 $184 $112 $2 $-1 $191 forward single #
coedge $-1 -1 $-1 $189 $192 $115 $151 forward $193 $-1 #
edge $-1 -1 $-1 $194 2.43548202531198 $152 3.6090378288448068 $115 $195 forward @7 unknown #
vertex $-1 -1 $-1 $116 $196 #
straight-curve $-1 -1 $-1 -0.50000000000000011 0.28867513459481253 0 0 0 0.39370078740157477 I I #
coedge $-1 -1 $-1 $197 $198 $117 $155 forward $199 $-1 #
edge $-1 -1 $-1 $157 1.2619262217791538 $194 2.43548202531198 $117 $200 forward @7 unknown #
coedge $-1 -1 $-1 $161 $118 $198 $201 reversed $123 $-1 #
vertex $-1 -1 $-1 $119 $202 #
straight-curve $-1 -1 $-1 -0.49999999999999972 -0.28867513459481303 0 0 0 0.39370078740157477 I I #
plane-surface $-1 -1 $-1 -0.50000000000000011 0.28867513459481259 0 -1 -7.5707192377305687e-016 0 2.9805981250907746e-016 -0.39370078740157477 0 forward_v I I I I #
ellipse-curve $-1 -1 $-1 1.7483827159451283e-016 -0.43301270189221902 0.49999999999999994 1 5.1069909684083597e-016 0 7.371306525898885e-017 -0.14433756729740643 0 0.8660254037844386 F -1.5707963267948966 F 0 #
coedge $-1 -1 $-1 $122 $156 $203 $204 reversed $123 $-1 #
edge $-1 -1 $-1 $205 0.34029547438752533 $124 1.27 $122 $206 forward @7 unknown #
point $-1 -1 $-1 2.4855133685350164e-016 -0.5773502691896254 0.49999999999999994 #
face $-1 -1 $-1 $207 $208 $2 $-1 $166 forward single #
loop $-1 -1 $-1 $-1 $209 $128 #
cone-surface $-1 -1 $-1 0 0 0 0 0 1 0.49999999999999978 0 0 1 I I 0.49999999999999994 0.86602540378443871 0.49999999999999978 forward I I I I #
loop $-1 -1 $-1 $-1 $210 $91 #
coedge $-1 -1 $-1 $168 $168 $211 $212 reversed $129 $-1 #
coedge $-1 -1 $-1 $213 $131 $214 $215 forward $92 $-1 #
coedge $-1 -1 $-1 $131 $216 $217 $218 forward $92 $-1 #
coedge $-1 -1 $-1 $219 $220 $131 $172 reversed $221 $-1 #
edge $-1 -1 $-1 $222 0 $223 0.75523188712695 $171 $224 forward @7 unknown #
coedge $-1 -1 $-1 $174 $133 $225 $226 reversed $95 $-1 #
coedge $-1 -1 $-1 $134 $173 $209 $227 reversed $95 $-1 #
coedge $-1 -1 $-1 $228 $137 $134 $176 reversed $179 $-1 #
edge $-1 -1 $-1 $229 0.340295474387525 $135 1.27 $134 $230 forward @7 unknown #
point $-1 -1 $-1 0.49999999999999978 -0.28867513459481242 0.49999999999999994 #
coedge $-1 -1 $-1 $137 $231 $141 $182 forward $179 $-1 #
loop $-1 -1 $-1 $-1 $137 $232 #
straight-curve $-1 -1 $-1 0.49999999999999978 -0.14433756729740616 0.49999999999999994 -1.1922392500363103e-016 0.39370078740157477 0 F -1.4491032628062372 F 2.1823381046770614 #
coedge $-1 -1 $-1 $183 $141 $233 $234 reversed $143 $-1 #
edge $-1 -1 $-1 $235 0.34029547438752572 $107 1.27 $141 $236 forward @7 unknown #
coedge $-1 -1 $-1 $142 $181 $237 $238 reversed $143 $-1 #
face $-1 -1 $-1 $239 $143 $2 $-1 $240 forward single #
coedge $-1 -1 $-1 $237 $241 $146 $186 forward $242 $-1 #
edge $-1 -1 $-1 $243 2.4354820253119795 $187 3.6090378288448037 $146 $244 forward @7 unknown #
vertex $-1 -1 $-1 $147 $245 #
straight-curve $-1 -1 $-1 -5.7773539317136317e-016 0.57735026918962562 0 0 0 0.39370078740157477 I I #
coedge $-1 -1 $-1 $192 $150 $148 $190 forward $193 $-1 #
edge $-1 -1 $-1 $152 1.261926221779154 $243 2.4354820253119795 $148 $246 forward @7 unknown #
plane-surface $-1 -1 $-1 -5.2451481478353848e-016 0.57735026918962573 0 -0.50000000000000078 0.86602540378443826 0 -0.34095488337970009 -0.19685039370078769 -0 forward_v I I I I #
coedge $-1 -1 $-1 $150 $189 $247 $248 forward $193 $-1 #
loop $-1 -1 $-1 $-1 $150 $249 #
vertex $-1 -1 $-1 $248 $250 #
intcurve-curve $-1 -1 $-1 forward { exactcur full nurbs 2 open 2 
	2.43548202531198 2 3.6090378288448068 2 
	-0.49999999999999989 -3.824587191129968e-016 1.5141438475461136e-016 1 
	-0.49999999999999994 0.13397459621556104 1.7483827159451283e-016 1.0802544383319774 
	-0.50000000000000011 0.28867513459481259 0.13397459621556171 1.0831664361245346 
	0 
	null_surface 
	null_surface 
	nullbs 
	nullbs 
	I I 
	0 
	0 
	0 
	F 1 F 0 } I I #
point $-1 -1 $-1 -0.50000000000000011 0.28867513459481259 0.13397459621556171 #
coedge $-1 -1 $-1 $198 $154 $251 $252 forward $199 $-1 #
coedge $-1 -1 $-1 $154 $197 $156 $201 forward $199 $-1 #
loop $-1 -1 $-1 $-1 $198 $207 #
intcurve-curve $-1 -1 $-1 forward { exactcur full nurbs 2 open 2 
	1.2619262217791538 2 2.43548202531198 2 
	-0.49999999999999972 -0.28867513459481298 0.13397459621556132 1.083166436124535 
	-0.49999999999999972 -0.13397459621556157 -8.7419135797256413e-017 1.0802544383319779 
	-0.49999999999999989 -3.824587191129968e-016 1.5141438475461136e-016 1 
	0 
	null_surface 
	null_surface 
	nullbs 
	nullbs 
	I I 
	0 
	0 
	0 
	F 1 F 0 } I I #
edge $-1 -1 $-1 $253 2.4354820253119804 $157 3.6090378288448068 $156 $254 forward @7 unknown #
point $-1 -1 $-1 -0.49999999999999972 -0.28867513459481298 0.13397459621556132 #
coedge $-1 -1 $-1 $255 $225 $161 $204 forward $208 $-1 #
edge $-1 -1 $-1 $205 1.261926221779156 $253 2.4354820253119804 $161 $256 forward @7 unknown #
vertex $-1 -1 $-1 $162 $257 #
straight-curve $-1 -1 $-1 2.4855133685350164e-016 -0.5773502691896254 0 0 0 0.39370078740157477 I I #
face $-1 -1 $-1 $249 $199 $2 $-1 $166 forward single #
loop $-1 -1 $-1 $-1 $203 $164 #
coedge $-1 -1 $-1 $258 $259 $174 $227 forward $165 $-1 #
coedge $-1 -1 $-1 $210 $210 $260 $261 reversed $167 $-1 #
coedge $-1 -1 $-1 $211 $211 $168 $212 forward $262 $-1 #
edge $-1 -1 $-1 $263 -3.1415926535897931 $263 3.1415926535897931 $211 $264 forward @7 unknown #
coedge $-1 -1 $-1 $265 $169 $266 $267 forward $92 $-1 #
coedge $-1 -1 $-1 $268 $269 $169 $215 reversed $270 $-1 #
edge $-1 -1 $-1 $223 0 $271 0.75523188712694944 $214 $272 forward @7 unknown #
coedge $-1 -1 $-1 $170 $265 $273 $274 forward $92 $-1 #
coedge $-1 -1 $-1 $275 $276 $170 $218 reversed $277 $-1 #
edge $-1 -1 $-1 $278 0 $222 0.75523188712694944 $217 $279 forward @7 unknown #
coedge $-1 -1 $-1 $280 $171 $276 $281 reversed $221 $-1 #
coedge $-1 -1 $-1 $171 $280 $268 $282 forward $221 $-1 #
loop $-1 -1 $-1 $-1 $280 $283 #
vertex $-1 -1 $-1 $281 $284 #
vertex $-1 -1 $-1 $282 $285 #
straight-curve $-1 -1 $-1 0.14866769431632856 0.25750000000000006 0.62499999999999989 0.19685039370078736 -0.34095488337970026 0 I I #
coedge $-1 -1 $-1 $203 $255 $173 $226 forward $208 $-1 #
edge $-1 -1 $-1 $286 2.4354820253119813 $205 3.609037828844806 $173 $287 forward @7 unknown #
edge $-1 -1 $-1 $229 1.2619262217791558 $286 2.4354820253119813 $174 $288 forward @7 unknown #
coedge $-1 -1 $-1 $231 $175 $259 $289 reversed $179 $-1 #
vertex $-1 -1 $-1 $176 $290 #
straight-curve $-1 -1 $-1 0.49999999999999978 -0.28867513459481242 0 0 0 0.39370078740157477 I I #
coedge $-1 -1 $-1 $178 $228 $291 $292 reversed $179 $-1 #
face $-1 -1 $-1 $293 $179 $2 $-1 $294 forward single #
coedge $-1 -1 $-1 $291 $295 $181 $234 forward $296 $-1 #
edge $-1 -1 $-1 $297 2.4354820253119813 $235 3.6090378288448073 $181 $298 forward @7 unknown #
vertex $-1 -1 $-1 $182 $299 #
straight-curve $-1 -1 $-1 0.49999999999999961 0.28867513459481298 0 0 0 0.39370078740157477 I I #
coedge $-1 -1 $-1 $241 $185 $183 $238 forward $242 $-1 #
edge $-1 -1 $-1 $187 1.2619262217791554 $297 2.4354820253119813 $183 $300 forward @7 unknown #
face $-1 -1 $-1 $301 $262 $2 $-1 $302 forward single #
plane-surface $-1 -1 $-1 0.49999999999999972 0.28867513459481287 0 0.49999999999999967 0.86602540378443893 0 -0.34095488337970031 0.19685039370078725 0 forward_v I I I I #
coedge $-1 -1 $-1 $185 $237 $303 $304 forward $242 $-1 #
loop $-1 -1 $-1 $-1 $185 $305 #
vertex $-1 -1 $-1 $304 $306 #
intcurve-curve $-1 -1 $-1 forward { exactcur full nurbs 2 open 2 
	2.4354820253119795 2 3.6090378288448037 2 
	-0.25000000000000044 0.43301270189221908 3.3796459976907501e-016 1 
	-0.13397459621556199 0.49999999999999972 1.3112870369588462e-016 1.0802544383319739 
	-5.7773539317136317e-016 0.57735026918962562 0.13397459621556157 1.083166436124531 
	0 
	null_surface 
	null_surface 
	nullbs 
	nullbs 
	I I 
	0 
	0 
	0 
	F 1 F 0 } I I #
point $-1 -1 $-1 -5.7773539317136317e-016 0.57735026918962562 0.13397459621556157 #
intcurve-curve $-1 -1 $-1 forward { exactcur full nurbs 2 open 2 
	1.261926221779154 2 2.4354820253119795 2 
	-0.50000000000000011 0.28867513459481259 0.13397459621556171 1.0831664361245337 
	-0.36602540378443893 0.36602540378443849 2.1854783949314103e-016 1.0802544383319765 
	-0.25000000000000044 0.43301270189221908 3.3796459976907501e-016 1 
	0 
	null_surface 
	null_surface 
	nullbs 
	nullbs 
	I I 
	0 
	0 
	0 
	F 1 F 0 } I I #
coedge $-1 -1 $-1 $303 $251 $192 $248 reversed $307 $-1 #
edge $-1 -1 $-1 $243 2.0943951023931962 $194 3.1415926535897931 $247 $308 forward @7 unknown #
face $-1 -1 $-1 $305 $193 $2 $-1 $166 forward single #
point $-1 -1 $-1 -0.49999999999999978 6.1232339957367636e-017 0 #
coedge $-1 -1 $-1 $247 $309 $197 $252 reversed $307 $-1 #
edge $-1 -1 $-1 $194 -3.1415926535897931 $253 -2.0943951023931948 $251 $308 forward @7 unknown #
vertex $-1 -1 $-1 $310 $311 #
intcurve-curve $-1 -1 $-1 forward { exactcur full nurbs 2 open 2 
	2.4354820253119804 2 3.6090378288448068 2 
	-0.24999999999999964 -0.4330127018922193 0 1 
	-0.36602540378443832 -0.36602540378443865 -2.1854783949314103e-016 1.0802544383319772 
	-0.49999999999999972 -0.28867513459481298 0.13397459621556132 1.0831664361245343 
	0 
	null_surface 
	null_surface 
	nullbs 
	nullbs 
	I I 
	0 
	0 
	0 
	F 1 F 0 } I I #
coedge $-1 -1 $-1 $225 $203 $309 $310 forward $208 $-1 #
intcurve-curve $-1 -1 $-1 forward { exactcur full nurbs 2 open 2 
	1.261926221779156 2 2.4354820253119804 2 
	2.4855133685350164e-016 -0.5773502691896254 0.13397459621556115 1.0831664361245328 
	-0.13397459621556107 -0.49999999999999978 -6.556435184794231e-017 1.0802544383319757 
	-0.24999999999999964 -0.4330127018922193 0 1 
	0 
	null_surface 
	null_surface 
	nullbs 
	nullbs 
	I I 
	0 
	0 
	0 
	F 1 F 0 } I I #
point $-1 -1 $-1 2.4855133685350164e-016 -0.5773502691896254 0.13397459621556115 #
coedge $-1 -1 $-1 $259 $209 $312 $313 forward $165 $-1 #
coedge $-1 -1 $-1 $209 $258 $228 $289 forward $165 $-1 #
coedge $-1 -1 $-1 $260 $260 $210 $261 forward $314 $-1 #
edge $-1 -1 $-1 $315 -3.1415926535897931 $315 3.1415926535897931 $260 $316 forward @7 unknown #
loop $-1 -1 $-1 $317 $211 $239 #
vertex $-1 -1 $-1 $212 $318 #
ellipse-curve $-1 -1 $-1 0 0 0.24999999999999997 -0 -0 -1 0.171875 0 0 1 I I #
coedge $-1 -1 $-1 $216 $213 $319 $320 forward $92 $-1 #
coedge $-1 -1 $-1 $321 $322 $213 $267 reversed $323 $-1 #
edge $-1 -1 $-1 $271 0.89238405643652485 $324 1.6476159435634741 $266 $325 forward @7 unknown #
coedge $-1 -1 $-1 $326 $214 $220 $282 reversed $270 $-1 #
coedge $-1 -1 $-1 $214 $326 $321 $327 forward $270 $-1 #
loop $-1 -1 $-1 $-1 $326 $328 #
vertex $-1 -1 $-1 $327 $329 #
straight-curve $-1 -1 $-1 0.29733538863265729 -7.5457005085488432e-017 0.62499999999999989 -0.19685039370078755 -0.3409548833797002 0 I I #
coedge $-1 -1 $-1 $330 $331 $216 $274 reversed $332 $-1 #
edge $-1 -1 $-1 $333 0 $278 0.75523188712694944 $273 $334 forward @7 unknown #
coedge $-1 -1 $-1 $335 $217 $331 $336 reversed $277 $-1 #
coedge $-1 -1 $-1 $217 $335 $219 $281 forward $277 $-1 #
loop $-1 -1 $-1 $-1 $276 $293 #
vertex $-1 -1 $-1 $336 $337 #
straight-curve $-1 -1 $-1 -0.14866769431632867 0.25749999999999995 0.62499999999999989 0.39370078740157477 1.7362707524800624e-016 0 I I #
coedge $-1 -1 $-1 $220 $219 $338 $339 reversed $221 $-1 #
edge $-1 -1 $-1 $340 0 $222 0.9524999999999999 $219 $341 forward @7 unknown #
edge $-1 -1 $-1 $342 0 $223 0.9524999999999999 $268 $343 forward @7 unknown #
face $-1 -1 $-1 $328 $221 $2 $-1 $344 forward single #
point $-1 -1 $-1 0.14866769431632856 0.25750000000000006 0.62499999999999989 #
point $-1 -1 $-1 0.29733538863265729 -7.5457005085488432e-017 0.62499999999999989 #
vertex $-1 -1 $-1 $313 $345 #
intcurve-curve $-1 -1 $-1 forward { exactcur full nurbs 2 open 2 
	2.4354820253119813 2 3.609037828844806 2 
	0.25000000000000011 -0.43301270189221891 -1.689822998845375e-016 1 
	0.13397459621556168 -0.49999999999999944 -3.0596697529039742e-016 1.0802544383319743 
	2.4855133685350164e-016 -0.5773502691896254 0.13397459621556115 1.0831664361245315 
	0 
	null_surface 
	null_surface 
	nullbs 
	nullbs 
	I I 
	0 
	0 
	0 
	F 1 F 0 } I I #
intcurve-curve $-1 -1 $-1 forward { exactcur full nurbs 2 open 2 
	1.2619262217791558 2 2.4354820253119813 2 
	0.49999999999999978 -0.28867513459481248 0.13397459621556101 1.083166436124535 
	0.36602540378443871 -0.36602540378443821 -2.4040262344245512e-016 1.0802544383319779 
	0.25000000000000011 -0.43301270189221891 -1.689822998845375e-016 1 
	0 
	null_surface 
	null_surface 
	nullbs 
	nullbs 
	I I 
	0 
	0 
	0 
	F 1 F 0 } I I #
edge $-1 -1 $-1 $346 2.43548202531198 $229 3.6090378288448055 $228 $347 forward @7 unknown #
point $-1 -1 $-1 0.49999999999999978 -0.28867513459481248 0.13397459621556101 #
coedge $-1 -1 $-1 $295 $233 $231 $292 forward $296 $-1 #
edge $-1 -1 $-1 $235 1.2619262217791538 $346 2.43548202531198 $231 $348 forward @7 unknown #
face $-1 -1 $-1 $349 $277 $2 $-1 $350 forward single #
plane-surface $-1 -1 $-1 0.49999999999999978 -0.28867513459481242 0 1 3.0282876950922282e-016 0 -1.1922392500363103e-016 0.39370078740157477 0 forward_v I I I I #
coedge $-1 -1 $-1 $233 $291 $351 $352 forward $296 $-1 #
loop $-1 -1 $-1 $-1 $233 $353 #
vertex $-1 -1 $-1 $234 $354 #
intcurve-curve $-1 -1 $-1 forward { exactcur full nurbs 2 open 2 
	2.4354820253119813 2 3.6090378288448073 2 
	0.24999999999999972 0.43301270189221919 0 1 
	0.36602540378443849 0.36602540378443865 6.556435184794231e-017 1.0802544383319788 
	0.49999999999999961 0.28867513459481298 0.13397459621556129 1.0831664361245359 
	0 
	null_surface 
	null_surface 
	nullbs 
	nullbs 
	I I 
	0 
	0 
	0 
	F 1 F 0 } I I #
point $-1 -1 $-1 0.49999999999999961 0.28867513459481298 0.13397459621556129 #
intcurve-curve $-1 -1 $-1 forward { exactcur full nurbs 2 open 2 
	1.2619262217791554 2 2.4354820253119813 2 
	-5.7773539317136317e-016 0.57735026918962562 0.13397459621556157 1.0831664361245352 
	0.13397459621556071 0.50000000000000011 3.2782175923971154e-016 1.0802544383319781 
	0.24999999999999972 0.43301270189221919 0 1 
	0 
	null_surface 
	null_surface 
	nullbs 
	nullbs 
	I I 
	0 
	0 
	0 
	F 1 F 0 } I I #
face $-1 -1 $-1 $-1 $314 $2 $-1 $355 reversed single #
plane-surface $-1 -1 $-1 -1.2667542031635795e-016 1.19223925003631e-016 0.24999999999999997 0 0 1 0.39370078740157477 0 0 forward_v I I I I #
coedge $-1 -1 $-1 $351 $247 $241 $304 reversed $307 $-1 #
edge $-1 -1 $-1 $297 1.0471975511965983 $243 2.0943951023931962 $303 $308 forward @7 unknown #
face $-1 -1 $-1 $353 $242 $2 $-1 $166 forward single #
point $-1 -1 $-1 -0.25000000000000044 0.43301270189221919 0 #
loop $-1 -1 $-1 $-1 $312 $301 #
ellipse-curve $-1 -1 $-1 0 0 0 0 0 1 0.49999999999999978 0 0 1 I I #
coedge $-1 -1 $-1 $251 $312 $255 $310 reversed $307 $-1 #
edge $-1 -1 $-1 $253 -2.0943951023931948 $286 -1.0471975511965972 $309 $308 forward @7 unknown #
point $-1 -1 $-1 -0.24999999999999956 -0.43301270189221935 0 #
coedge $-1 -1 $-1 $309 $351 $258 $313 reversed $307 $-1 #
edge $-1 -1 $-1 $286 -1.0471975511965972 $346 3.0596697529039757e-016 $312 $308 forward @7 unknown #
loop $-1 -1 $-1 $307 $260 $301 #
vertex $-1 -1 $-1 $261 $356 #
ellipse-curve $-1 -1 $-1 0 0 0 0 0 1 0.171875 0 0 1 I I #
loop $-1 -1 $-1 $-1 $357 $239 #
point $-1 -1 $-1 -0.171875 2.1048616860345131e-017 0.24999999999999997 #
coedge $-1 -1 $-1 $358 $359 $265 $320 reversed $360 $-1 #
edge $-1 -1 $-1 $324 0 $333 0.75523188712694944 $319 $361 forward @7 unknown #
coedge $-1 -1 $-1 $362 $266 $269 $327 reversed $323 $-1 #
coedge $-1 -1 $-1 $266 $362 $358 $363 forward $323 $-1 #
loop $-1 -1 $-1 $-1 $321 $349 #
vertex $-1 -1 $-1 $363 $364 #
straight-curve $-1 -1 $-1 0.49999999999999978 -0.2574999999999999 0.62499999999999989 -0.39370078740157477 -9.7961337572904663e-017 -0 I I #
coedge $-1 -1 $-1 $269 $268 $365 $366 reversed $270 $-1 #
edge $-1 -1 $-1 $367 0 $271 0.9524999999999999 $269 $368 forward @7 unknown #
face $-1 -1 $-1 $149 $270 $2 $-1 $369 forward single #
point $-1 -1 $-1 0.14866769431632862 -0.25750000000000001 0.62499999999999989 #
coedge $-1 -1 $-1 $370 $273 $359 $371 reversed $332 $-1 #
coedge $-1 -1 $-1 $273 $370 $275 $336 forward $332 $-1 #
loop $-1 -1 $-1 $-1 $370 $372 #
vertex $-1 -1 $-1 $371 $373 #
straight-curve $-1 -1 $-1 -0.29733538863265718 -7.0738033442213272e-017 0.62499999999999989 0.19685039370078722 0.34095488337970031 0 I I #
coedge $-1 -1 $-1 $276 $275 $374 $375 reversed $277 $-1 #
edge $-1 -1 $-1 $376 0 $278 0.9524999999999999 $331 $377 forward @7 unknown #
point $-1 -1 $-1 -0.1486676943163287 0.25749999999999995 0.62499999999999989 #
coedge $-1 -1 $-1 $374 $365 $280 $339 forward $317 $-1 #
edge $-1 -1 $-1 $342 -0.56642391534521264 $340 0.18880797178173733 $338 $378 forward @7 unknown #
vertex $-1 -1 $-1 $375 $379 #
straight-curve $-1 -1 $-1 0.14866769431632856 0.25750000000000006 0.24999999999999997 0 0 0.39370078740157477 I I #
vertex $-1 -1 $-1 $339 $380 #
straight-curve $-1 -1 $-1 0.29733538863265729 -7.5457005085488432e-017 0.24999999999999997 0 0 0.39370078740157477 I I #
plane-surface $-1 -1 $-1 0.14866769431632856 0.25750000000000006 0.24999999999999997 -0.86602540378443871 -0.49999999999999994 0 0.19685039370078736 -0.34095488337970026 0 forward_v I I I I #
point $-1 -1 $-1 0.25000000000000006 -0.43301270189221891 0 #
vertex $-1 -1 $-1 $292 $381 #
intcurve-curve $-1 -1 $-1 forward { exactcur full nurbs 2 open 2 
	2.43548202531198 2 3.6090378288448055 2 
	0.49999999999999978 1.5298348764519871e-016 0 1 
	0.49999999999999972 -0.13397459621556126 -1.0927391974657052e-016 1.0802544383319781 
	0.49999999999999978 -0.28867513459481248 0.13397459621556101 1.0831664361245352 
	0 
	null_surface 
	null_surface 
	nullbs 
	nullbs 
	I I 
	0 
	0 
	0 
	F 1 F 0 } I I #
intcurve-curve $-1 -1 $-1 forward { exactcur full nurbs 2 open 2 
	1.2619262217791538 2 2.43548202531198 2 
	0.49999999999999961 0.28867513459481298 0.13397459621556129 1.0831664361245337 
	0.49999999999999972 0.13397459621556129 -3.0596697529039742e-016 1.0802544383319765 
	0.49999999999999978 1.5298348764519871e-016 0 1 
	0 
	null_surface 
	null_surface 
	nullbs 
	nullbs 
	I I 
	0 
	0 
	0 
	F 1 F 0 } I I #
face $-1 -1 $-1 $372 $323 $2 $-1 $382 forward single #
plane-surface $-1 -1 $-1 -0.14866769431632867 0.25749999999999995 0.24999999999999997 4.410127711299359e-016 -1 0 0.39370078740157477 1.7362707524800624e-016 0 forward_v I I I I #
coedge $-1 -1 $-1 $312 $303 $295 $352 reversed $307 $-1 #
edge $-1 -1 $-1 $346 3.0596697529039757e-016 $297 1.0471975511965983 $351 $308 forward @7 unknown #
face $-1 -1 $-1 $232 $296 $2 $-1 $166 forward single #
point $-1 -1 $-1 0.24999999999999967 0.4330127018922193 0 #
plane-surface $-1 -1 $-1 -1.2667542031635795e-016 1.19223925003631e-016 0 0 0 1 0.39370078740157477 0 0 forward_v I I I I #
point $-1 -1 $-1 -0.171875 2.1048616860345131e-017 0 #
coedge $-1 -1 $-1 $365 $383 $362 $384 forward $317 $-1 #
coedge $-1 -1 $-1 $385 $319 $322 $363 reversed $360 $-1 #
coedge $-1 -1 $-1 $319 $385 $330 $371 forward $360 $-1 #
loop $-1 -1 $-1 $-1 $385 $386 #
straight-curve $-1 -1 $-1 -0.14866769431632854 -0.25750000000000001 0.62499999999999989 -0.19685039370078755 0.3409548833797002 0 I I #
coedge $-1 -1 $-1 $322 $321 $357 $384 reversed $323 $-1 #
edge $-1 -1 $-1 $387 0 $324 0.9524999999999999 $322 $388 forward @7 unknown #
point $-1 -1 $-1 -0.14866769431632854 -0.25750000000000001 0.62499999999999989 #
coedge $-1 -1 $-1 $338 $357 $326 $366 forward $317 $-1 #
edge $-1 -1 $-1 $367 -0.56642391534521208 $342 0.18880797178173736 $365 $389 forward @7 unknown #
vertex $-1 -1 $-1 $384 $390 #
straight-curve $-1 -1 $-1 0.14866769431632862 -0.25750000000000001 0.24999999999999997 0 0 0.39370078740157477 I I #
plane-surface $-1 -1 $-1 0.29733538863265729 -7.5457005085488432e-017 0.24999999999999997 -0.8660254037844386 0.50000000000000033 0 -0.19685039370078752 -0.3409548833797002 0 forward_v I I I I #
coedge $-1 -1 $-1 $331 $330 $391 $392 reversed $332 $-1 #
edge $-1 -1 $-1 $393 0 $333 0.9524999999999999 $359 $394 forward @7 unknown #
face $-1 -1 $-1 $386 $332 $2 $-1 $395 forward single #
point $-1 -1 $-1 -0.29733538863265724 -8.7419135797256413e-017 0.62499999999999989 #
coedge $-1 -1 $-1 $391 $338 $335 $375 forward $317 $-1 #
edge $-1 -1 $-1 $340 -0.56642391534521241 $376 0.18880797178173714 $374 $396 forward @7 unknown #
vertex $-1 -1 $-1 $375 $397 #
straight-curve $-1 -1 $-1 -0.14866769431632867 0.25749999999999995 0.24999999999999997 0 0 0.39370078740157477 I I #
straight-curve $-1 -1 $-1 0.18583461789541073 0.1931250000000001 0.24999999999999997 -0.19685039370078736 0.34095488337970026 0 I I #
point $-1 -1 $-1 0.14866769431632856 0.25750000000000006 0.24999999999999997 #
point $-1 -1 $-1 0.29733538863265729 -7.5457005085488432e-017 0.24999999999999997 #
point $-1 -1 $-1 0.49999999999999978 1.5298348764519871e-016 0 #
plane-surface $-1 -1 $-1 0.49999999999999978 -0.2574999999999999 0.24999999999999997 -2.4882179743517786e-016 1 0 -0.39370078740157477 -9.7961337572904663e-017 -0 forward_v I I I I #
coedge $-1 -1 $-1 $357 $391 $385 $398 forward $317 $-1 #
edge $-1 -1 $-1 $387 -1.0126159435634743 $367 -0.25738405643652507 $357 $399 forward @7 unknown #
coedge $-1 -1 $-1 $359 $358 $383 $398 reversed $360 $-1 #
face $-1 -1 $-1 $283 $360 $2 $-1 $400 forward single #
vertex $-1 -1 $-1 $384 $401 #
straight-curve $-1 -1 $-1 -0.14866769431632854 -0.25750000000000001 0.24999999999999997 0 0 0.39370078740157477 I I #
straight-curve $-1 -1 $-1 0.26016846505357516 -0.064375000000000071 0.24999999999999997 0.19685039370078755 0.3409548833797002 0 I I #
point $-1 -1 $-1 0.14866769431632862 -0.25750000000000001 0.24999999999999997 #
coedge $-1 -1 $-1 $383 $374 $370 $392 forward $317 $-1 #
edge $-1 -1 $-1 $376 -0.56642391534521208 $393 0.1888079717817373 $391 $402 forward @7 unknown #
vertex $-1 -1 $-1 $392 $403 #
straight-curve $-1 -1 $-1 -0.29733538863265718 -7.0738033442213272e-017 0.24999999999999997 0 0 0.39370078740157477 I I #
plane-surface $-1 -1 $-1 -0.29733538863265718 -7.0738033442213272e-017 0.24999999999999997 0.86602540378443882 -0.49999999999999961 0 0.19685039370078722 0.34095488337970031 0 forward_v I I I I #
straight-curve $-1 -1 $-1 -0.074333847158164462 0.25750000000000001 0.24999999999999997 -0.39370078740157477 -1.7362707524800624e-016 0 I I #
point $-1 -1 $-1 -0.14866769431632867 0.25749999999999995 0.24999999999999997 #
edge $-1 -1 $-1 $393 -0.56642391534521197 $387 0.18880797178173755 $383 $404 forward @7 unknown #
straight-curve $-1 -1 $-1 0.24999999999999989 -0.25750000000000001 0.24999999999999997 0.39370078740157477 9.7961337572904663e-017 0 I I #
plane-surface $-1 -1 $-1 -0.14866769431632854 -0.25750000000000001 0.24999999999999997 0.8660254037844386 0.50000000000000033 0 -0.19685039370078752 0.3409548833797002 0 forward_v I I I I #
point $-1 -1 $-1 -0.14866769431632854 -0.25750000000000001 0.24999999999999997 #
straight-curve $-1 -1 $-1 -0.26016846505357505 0.064374999999999905 0.24999999999999997 -0.19685039370078722 -0.34095488337970031 0 I I #
point $-1 -1 $-1 -0.29733538863265718 -7.0738033442213272e-017 0.24999999999999997 #
straight-curve $-1 -1 $-1 -0.18583461789541078 -0.19312499999999996 0.24999999999999997 0.19685039370078755 -0.3409548833797002 0 I I #
End-of-ACIS-data 