  0
SECTION
  2
HEADER
  9
$ACADVER
  1
AC1014
  9
$HANDSEED
  5
FFFF
  9
$MEASUREMENT
 70
     1
  0
ENDSEC
  0
SECTION
  2
TABLES
  0
TABLE
  2
VPORT
  5
8
330
0
100
AcDbSymbolTable
 70
     4
  0
VPORT
  5
2E
330
8
100
AcDbSymbolTableRecord
100
AcDbViewportTableRecord
  2
*ACTIVE
 70
     0
 10
0.0
 20
0.0
 11
1.0
 21
1.0
 12
210.0
 22
148.5
 13
0.0
 23
0.0
 14
10.0
 24
10.0
 15
10.0
 25
10.0
 16
0.0
 26
0.0
 36
1.0
 17
0.0
 27
0.0
 37
0.0
 40
341.0
 41
1.24
 42
50.0
 43
0.0
 44
0.0
 50
0.0
 51
0.0
 71
     0
 72
   100
 73
     1
 74
     3
 75
     0
 76
     0
 77
     0
 78
     0
  0
ENDTAB
  0
TABLE
  2
LTYPE
  5
5
330
0
100
AcDbSymbolTable
 70
     1
  0
LTYPE
  5
14
330
5
100
AcDbSymbolTableRecord
100
AcDbLinetypeTableRecord
  2
BYBLOCK
 70
     0
  3

 72
    65
 73
     0
 40
0.0
  0
LTYPE
  5
15
330
5
100
AcDbSymbolTableRecord
100
AcDbLinetypeTableRecord
  2
BYLAYER
 70
     0
  3

 72
    65
 73
     0
 40
0.0
  0
LTYPE
  5
16
330
5
100
AcDbSymbolTableRecord
100
AcDbLinetypeTableRecord
  2
CONTINUOUS
 70
     0
  3
Solid line
 72
    65
 73
     0
 40
0.0
  0
ENDTAB
  0
TABLE
  2
LAYER
  5
2
100
AcDbSymbolTable
 70
3
  0
LAYER
  5
50
100
AcDbSymbolTableRecord
100
AcDbLayerTableRecord
  2
0
 70
0
  6
CONTINUOUS
  0
LAYER
  5
51
100
AcDbSymbolTableRecord
100
AcDbLayerTableRecord
  2
STRINGING_ILLUSTRATION
 70
0
  6
CONTINUOUS
  0
LAYER
  5
52
100
AcDbSymbolTableRecord
100
AcDbLayerTableRecord
  2
Layer1
 70
0
  6
CONTINUOUS
  0
ENDTAB
  0
TABLE
  2
STYLE
  5
3
330
0
100
AcDbSymbolTable
 70
     1
  0
STYLE
  5
11
330
3
100
AcDbSymbolTableRecord
100
AcDbTextStyleTableRecord
  2
STANDARD
 70
     0
 40
0.0
 41
1.0
 50
0.0
 71
     0
 42
2.5
  3
txt
  4

  0
ENDTAB
  0
TABLE
  2
VIEW
  5
6
330
0
100
AcDbSymbolTable
 70
     0
  0
ENDTAB
  0
TABLE
  2
UCS
  5
7
330
0
100
AcDbSymbolTable
 70
     0
  0
ENDTAB
  0
TABLE
  2
APPID
  5
9
330
0
100
AcDbSymbolTable
 70
     2
  0
APPID
  5
12
330
9
100
AcDbSymbolTableRecord
100
AcDbRegAppTableRecord
  2
ACAD
 70
     0
  0
ENDTAB
  0
TABLE
  2
DIMSTYLE
  5
A
330
0
100
AcDbSymbolTable
 70
     1
  0
DIMSTYLE
105
27
330
A
100
AcDbSymbolTableRecord
100
AcDbDimStyleTableRecord
  2
ISO-25
 70
     0
  3

  4

  5

  6

  7

 40
1.0
 41
2.5
 42
0.625
 43
3.75
 44
1.25
 45
0.0
 46
0.0
 47
0.0
 48
0.0
140
2.5
141
2.5
142
0.0
143
0.03937007874016
144
1.0
145
0.0
146
1.0
147
0.625
 71
     0
 72
     0
 73
     0
 74
     0
 75
     0
 76
     0
 77
     1
 78
     8
170
     0
171
     3
172
     1
173
     0
174
     0
175
     0
176
     0
177
     0
178
     0
270
     2
271
     2
272
     2
273
     2
274
     3
340
11
275
     0
280
     0
281
     0
282
     0
283
     0
284
     8
285
     0
286
     0
287
     3
288
     0
  0
ENDTAB
  0
TABLE
  2
BLOCK_RECORD
  5
1
330
0
100
AcDbSymbolTable
 70
     1
  0
BLOCK_RECORD
  5
1F
330
1
100
AcDbSymbolTableRecord
100
AcDbBlockTableRecord
  2
*MODEL_SPACE
  0
BLOCK_RECORD
  5
1B
330
1
100
AcDbSymbolTableRecord
100
AcDbBlockTableRecord
  2
*PAPER_SPACE
  0
ENDTAB
  0
ENDSEC
  0
SECTION
  2
BLOCKS
  0
BLOCK
  5
20
330
1F
100
AcDbEntity
  8
0
100
AcDbBlockBegin
  2
*MODEL_SPACE
 70
     0
 10
0.0
 20
0.0
 30
0.0
  3
*MODEL_SPACE
  1

  0
ENDBLK
  5
21
330
1F
100
AcDbEntity
  8
0
100
AcDbBlockEnd
  0
BLOCK
  5
1C
330
1B
100
AcDbEntity
 67
     1
  8
0
100
AcDbBlockBegin
  2
*PAPER_SPACE
  1

  0
ENDBLK
  5
1D
330
1B
100
AcDbEntity
 67
     1
  8
0
100
AcDbBlockEnd
  0
ENDSEC
  0
SECTION
  2
ENTITIES
  0
SPLINE
  5
100
100
AcDbEntity
  8
Layer1
 62
7
100
AcDbSpline
 70
8
 71
3
 72
8
 73
4
 74
0
 40
0
 40
0
 40
0
 40
0
 40
1
 40
1
 40
1
 40
1
 10
6.857405
 20
2.138439
 30
0.0
 10
6.855761
 20
2.058200
 30
0.0
 10
6.851894
 20
1.969173
 30
0.0
 10
6.870553
 20
1.891447
 30
0.0
  0
SPLINE
  5
101
100
AcDbEntity
  8
Layer1
 62
7
100
AcDbSpline
 70
8
 71
3
 72
8
 73
4
 74
0
 40
0
 40
0
 40
0
 40
0
 40
1
 40
1
 40
1
 40
1
 10
6.870553
 20
1.891447
 30
0.0
 10
6.989303
 20
1.868157
 30
0.0
 10
6.968017
 20
1.798663
 30
0.0
 10
6.969082
 20
1.709734
 30
0.0
  0
SPLINE
  5
102
100
AcDbEntity
  8
Layer1
 62
7
100
AcDbSpline
 70
8
 71
3
 72
8
 73
4
 74
0
 40
0
 40
0
 40
0
 40
0
 40
1
 40
1
 40
1
 40
1
 10
6.969082
 20
1.709734
 30
0.0
 10
6.971469
 20
1.502812
 30
0.0
 10
6.973301
 20
1.295884
 30
0.0
 10
6.975266
 20
1.088958
 30
0.0
  0
SPLINE
  5
103
100
AcDbEntity
  8
Layer1
 62
7
100
AcDbSpline
 70
8
 71
3
 72
8
 73
4
 74
0
 40
0
 40
0
 40
0
 40
0
 40
1
 40
1
 40
1
 40
1
 10
6.975266
 20
1.088958
 30
0.0
 10
6.941198
 20
1.039820
 30
0.0
 10
6.860210
 20
1.005702
 30
0.0
 10
6.856935
 20
0.941044
 30
0.0
  0
SPLINE
  5
104
100
AcDbEntity
  8
Layer1
 62
7
100
AcDbSpline
 70
8
 71
3
 72
8
 73
4
 74
0
 40
0
 40
0
 40
0
 40
0
 40
1
 40
1
 40
1
 40
1
 10
6.856935
 20
0.941044
 30
0.0
 10
6.858629
 20
0.886369
 30
0.0
 10
7.057855
 20
0.930171
 30
0.0
 10
7.155110
 20
0.919444
 30
0.0
  0
SPLINE
  5
105
100
AcDbEntity
  8
Layer1
 62
7
100
AcDbSpline
 70
8
 71
3
 72
8
 73
4
 74
0
 40
0
 40
0
 40
0
 40
0
 40
1
 40
1
 40
1
 40
1
 10
7.155110
 20
0.919444
 30
0.0
 10
7.368465
 20
0.920792
 30
0.0
 10
7.592364
 20
0.899234
 30
0.0
 10
7.804990
 20
0.917098
 30
0.0
  0
SPLINE
  5
106
100
AcDbEntity
  8
Layer1
 62
7
100
AcDbSpline
 70
8
 71
3
 72
8
 73
4
 74
0
 40
0
 40
0
 40
0
 40
0
 40
1
 40
1
 40
1
 40
1
 10
7.804990
 20
0.917098
 30
0.0
 10
7.849030
 20
0.966239
 30
0.0
 10
7.740361
 20
1.025453
 30
0.0
 10
7.715959
 20
1.064496
 30
0.0
  0
SPLINE
  5
107
100
AcDbEntity
  8
Layer1
 62
7
100
AcDbSpline
 70
8
 71
3
 72
8
 73
4
 74
0
 40
0
 40
0
 40
0
 40
0
 40
1
 40
1
 40
1
 40
1
 10
7.715959
 20
1.064496
 30
0.0
 10
7.637172
 20
1.125463
 30
0.0
 10
7.693578
 20
1.242276
 30
0.0
 10
7.678029
 20
1.329365
 30
0.0
  0
SPLINE
  5
108
100
AcDbEntity
  8
Layer1
 62
7
100
AcDbSpline
 70
8
 71
3
 72
8
 73
4
 74
0
 40
0
 40
0
 40
0
 40
0
 40
1
 40
1
 40
1
 40
1
 10
7.678029
 20
1.329365
 30
0.0
 10
7.679668
 20
1.511251
 30
0.0
 10
7.681861
 20
1.693130
 30
0.0
 10
7.683842
 20
1.875012
 30
0.0
  0
SPLINE
  5
109
100
AcDbEntity
  8
Layer1
 62
7
100
AcDbSpline
 70
8
 71
3
 72
8
 73
4
 74
0
 40
0
 40
0
 40
0
 40
0
 40
1
 40
1
 40
1
 40
1
 10
7.683842
 20
1.875012
 30
0.0
 10
7.785864
 20
1.859164
 30
0.0
 10
7.828859
 20
1.919437
 30
0.0
 10
7.808277
 20
2.015882
 30
0.0
  0
SPLINE
  5
10a
100
AcDbEntity
  8
Layer1
 62
7
100
AcDbSpline
 70
8
 71
3
 72
8
 73
4
 74
0
 40
0
 40
0
 40
0
 40
0
 40
1
 40
1
 40
1
 40
1
 10
7.808277
 20
2.015882
 30
0.0
 10
7.865016
 20
2.145290
 30
0.0
 10
7.791624
 20
2.182746
 30
0.0
 10
7.672572
 20
2.145952
 30
0.0
  0
SPLINE
  5
10b
100
AcDbEntity
  8
Layer1
 62
7
100
AcDbSpline
 70
8
 71
3
 72
8
 73
4
 74
0
 40
0
 40
0
 40
0
 40
0
 40
1
 40
1
 40
1
 40
1
 10
7.672572
 20
2.145952
 30
0.0
 10
7.401552
 20
2.140893
 30
0.0
 10
7.125567
 20
2.156020
 30
0.0
 10
6.857405
 20
2.138439
 30
0.0
  0
SPLINE
  5
10c
100
AcDbEntity
  8
Layer1
 62
7
100
AcDbSpline
 70
8
 71
3
 72
8
 73
4
 74
0
 40
0
 40
0
 40
0
 40
0
 40
1
 40
1
 40
1
 40
1
 10
0.624381
 20
8.223080
 30
0.0
 10
0.546299
 20
8.152981
 30
0.0
 10
0.567237
 20
8.035549
 30
0.0
 10
0.641285
 20
7.972801
 30
0.0
  0
SPLINE
  5
10d
100
AcDbEntity
  8
Layer1
 62
7
100
AcDbSpline
 70
8
 71
3
 72
8
 73
4
 74
0
 40
0
 40
0
 40
0
 40
0
 40
1
 40
1
 40
1
 40
1
 10
0.641285
 20
7.972801
 30
0.0
 10
0.721219
 20
7.920469
 30
0.0
 10
0.697981
 20
7.807914
 30
0.0
 10
0.664763
 20
7.735200
 30
0.0
  0
SPLINE
  5
10e
100
AcDbEntity
  8
Layer1
 62
7
100
AcDbSpline
 70
8
 71
3
 72
8
 73
4
 74
0
 40
0
 40
0
 40
0
 40
0
 40
1
 40
1
 40
1
 40
1
 10
0.664763
 20
7.735200
 30
0.0
 10
0.618979
 20
7.679468
 30
0.0
 10
0.523760
 20
7.683233
 30
0.0
 10
0.504172
 20
7.600904
 30
0.0
  0
SPLINE
  5
10f
100
AcDbEntity
  8
Layer1
 62
7
100
AcDbSpline
 70
8
 71
3
 72
8
 73
4
 74
0
 40
0
 40
0
 40
0
 40
0
 40
1
 40
1
 40
1
 40
1
 10
0.504172
 20
7.600904
 30
0.0
 10
0.454925
 20
7.509722
 30
0.0
 10
0.527157
 20
7.415081
 30
0.0
 10
0.607476
 20
7.371756
 30
0.0
  0
SPLINE
  5
110
100
AcDbEntity
  8
Layer1
 62
7
100
AcDbSpline
 70
8
 71
3
 72
8
 73
4
 74
0
 40
0
 40
0
 40
0
 40
0
 40
1
 40
1
 40
1
 40
1
 10
0.607476
 20
7.371756
 30
0.0
 10
0.704712
 20
7.290699
 30
0.0
 10
0.666646
 20
7.132648
 30
0.0
 10
0.565215
 20
7.070764
 30
0.0
  0
SPLINE
  5
111
100
AcDbEntity
  8
Layer1
 62
7
100
AcDbSpline
 70
8
 71
3
 72
8
 73
4
 74
0
 40
0
 40
0
 40
0
 40
0
 40
1
 40
1
 40
1
 40
1
 10
0.565215
 20
7.070764
 30
0.0
 10
0.462650
 20
6.989967
 30
0.0
 10
0.536522
 20
6.814421
 30
0.0
 10
0.656311
 20
6.801702
 30
0.0
  0
SPLINE
  5
112
100
AcDbEntity
  8
Layer1
 62
7
100
AcDbSpline
 70
8
 71
3
 72
8
 73
4
 74
0
 40
0
 40
0
 40
0
 40
0
 40
1
 40
1
 40
1
 40
1
 10
0.656311
 20
6.801702
 30
0.0
 10
0.774987
 20
6.752846
 30
0.0
 10
0.798650
 20
6.577544
 30
0.0
 10
0.696694
 20
6.500241
 30
0.0
  0
SPLINE
  5
113
100
AcDbEntity
  8
Layer1
 62
7
100
AcDbSpline
 70
8
 71
3
 72
8
 73
4
 74
0
 40
0
 40
0
 40
0
 40
0
 40
1
 40
1
 40
1
 40
1
 10
0.696694
 20
6.500241
 30
0.0
 10
0.618835
 20
6.405315
 30
0.0
 10
0.695080
 20
6.237397
 30
0.0
 10
0.821599
 20
6.251371
 30
0.0
  0
SPLINE
  5
114
100
AcDbEntity
  8
Layer1
 62
7
100
AcDbSpline
 70
8
 71
3
 72
8
 73
4
 74
0
 40
0
 40
0
 40
0
 40
0
 40
1
 40
1
 40
1
 40
1
 10
0.821599
 20
6.251371
 30
0.0
 10
0.959350
 20
6.239244
 30
0.0
 10
1.030008
 20
6.057080
 30
0.0
 10
0.934764
 20
5.956952
 30
0.0
  0
SPLINE
  5
115
100
AcDbEntity
  8
Layer1
 62
7
100
AcDbSpline
 70
8
 71
3
 72
8
 73
4
 74
0
 40
0
 40
0
 40
0
 40
0
 40
1
 40
1
 40
1
 40
1
 10
0.934764
 20
5.956952
 30
0.0
 10
0.885838
 20
5.851153
 30
0.0
 10
0.992850
 20
5.717267
 30
0.0
 10
1.108973
 20
5.737195
 30
0.0
  0
SPLINE
  5
116
100
AcDbEntity
  8
Layer1
 62
7
100
AcDbSpline
 70
8
 71
3
 72
8
 73
4
 74
0
 40
0
 40
0
 40
0
 40
0
 40
1
 40
1
 40
1
 40
1
 10
1.108973
 20
5.737195
 30
0.0
 10
1.181575
 20
5.747113
 30
0.0
 10
1.253427
 20
5.722742
 30
0.0
 10
1.285530
 20
5.653143
 30
0.0
  0
SPLINE
  5
117
100
AcDbEntity
  8
Layer1
 62
7
100
AcDbSpline
 70
8
 71
3
 72
8
 73
4
 74
0
 40
0
 40
0
 40
0
 40
0
 40
1
 40
1
 40
1
 40
1
 10
1.285530
 20
5.653143
 30
0.0
 10
1.325611
 20
5.597050
 30
0.0
 10
1.311769
 20
5.526186
 30
0.0
 10
1.283182
 20
5.469073
 30
0.0
  0
SPLINE
  5
118
100
AcDbEntity
  8
Layer1
 62
7
100
AcDbSpline
 70
8
 71
3
 72
8
 73
4
 74
0
 40
0
 40
0
 40
0
 40
0
 40
1
 40
1
 40
1
 40
1
 10
1.283182
 20
5.469073
 30
0.0
 10
1.277239
 20
5.371507
 30
0.0
 10
1.377808
 20
5.261706
 30
0.0
 10
1.478992
 20
5.301438
 30
0.0
  0
SPLINE
  5
119
100
AcDbEntity
  8
Layer1
 62
7
100
AcDbSpline
 70
8
 71
3
 72
8
 73
4
 74
0
 40
0
 40
0
 40
0
 40
0
 40
1
 40
1
 40
1
 40
1
 10
1.478992
 20
5.301438
 30
0.0
 10
1.576821
 20
5.322262
 30
0.0
 10
1.717207
 20
5.304334
 30
0.0
 10
1.731149
 20
5.183107
 30
0.0
  0
SPLINE
  5
11a
100
AcDbEntity
  8
Layer1
 62
7
100
AcDbSpline
 70
8
 71
3
 72
8
 73
4
 74
0
 40
0
 40
0
 40
0
 40
0
 40
1
 40
1
 40
1
 40
1
 10
1.731149
 20
5.183107
 30
0.0
 10
1.737285
 20
5.095421
 30
0.0
 10
1.726848
 20
4.977993
 30
0.0
 10
1.832106
 20
4.942689
 30
0.0
  0
SPLINE
  5
11b
100
AcDbEntity
  8
Layer1
 62
7
100
AcDbSpline
 70
8
 71
3
 72
8
 73
4
 74
0
 40
0
 40
0
 40
0
 40
0
 40
1
 40
1
 40
1
 40
1
 10
1.832106
 20
4.942689
 30
0.0
 10
1.940493
 20
4.894690
 30
0.0
 10
2.046698
 20
5.035340
 30
0.0
 10
2.151411
 20
4.964289
 30
0.0
  0
SPLINE
  5
11c
100
AcDbEntity
  8
Layer1
 62
7
100
AcDbSpline
 70
8
 71
3
 72
8
 73
4
 74
0
 40
0
 40
0
 40
0
 40
0
 40
1
 40
1
 40
1
 40
1
 10
2.151411
 20
4.964289
 30
0.0
 10
2.218321
 20
4.932519
 30
0.0
 10
2.250077
 20
4.863458
 30
0.0
 10
2.246263
 20
4.793367
 30
0.0
  0
SPLINE
  5
11d
100
AcDbEntity
  8
Layer1
 62
7
100
AcDbSpline
 70
8
 71
3
 72
8
 73
4
 74
0
 40
0
 40
0
 40
0
 40
0
 40
1
 40
1
 40
1
 40
1
 10
2.246263
 20
4.793367
 30
0.0
 10
2.273521
 20
4.658933
 30
0.0
 10
2.466685
 20
4.626935
 30
0.0
 10
2.541620
 20
4.737958
 30
0.0
  0
SPLINE
  5
11e
100
AcDbEntity
  8
Layer1
 62
7
100
AcDbSpline
 70
8
 71
3
 72
8
 73
4
 74
0
 40
0
 40
0
 40
0
 40
0
 40
1
 40
1
 40
1
 40
1
 10
2.541620
 20
4.737958
 30
0.0
 10
2.645464
 20
4.808176
 30
0.0
 10
2.796215
 20
4.735788
 30
0.0
 10
2.811621
 20
4.613523
 30
0.0
  0
SPLINE
  5
11f
100
AcDbEntity
  8
Layer1
 62
7
100
AcDbSpline
 70
8
 71
3
 72
8
 73
4
 74
0
 40
0
 40
0
 40
0
 40
0
 40
1
 40
1
 40
1
 40
1
 10
2.811621
 20
4.613523
 30
0.0
 10
2.857176
 20
4.499981
 30
0.0
 10
3.030413
 20
4.497299
 30
0.0
 10
3.093361
 20
4.597558
 30
0.0
  0
SPLINE
  5
120
100
AcDbEntity
  8
Layer1
 62
7
100
AcDbSpline
 70
8
 71
3
 72
8
 73
4
 74
0
 40
0
 40
0
 40
0
 40
0
 40
1
 40
1
 40
1
 40
1
 10
3.093361
 20
4.597558
 30
0.0
 10
3.166930
 20
4.690276
 30
0.0
 10
3.331187
 20
4.704213
 30
0.0
 10
3.385431
 20
4.584410
 30
0.0
  0
SPLINE
  5
121
100
AcDbEntity
  8
Layer1
 62
7
100
AcDbSpline
 70
8
 71
3
 72
8
 73
4
 74
0
 40
0
 40
0
 40
0
 40
0
 40
1
 40
1
 40
1
 40
1
 10
3.385431
 20
4.584410
 30
0.0
 10
3.430101
 20
4.476500
 30
0.0
 10
3.587360
 20
4.455315
 30
0.0
 10
3.655901
 20
4.550601
 30
0.0
  0
SPLINE
  5
122
100
AcDbEntity
  8
Layer1
 62
7
100
AcDbSpline
 70
8
 71
3
 72
8
 73
4
 74
0
 40
0
 40
0
 40
0
 40
0
 40
1
 40
1
 40
1
 40
1
 10
3.655901
 20
4.550601
 30
0.0
 10
3.687807
 20
4.619872
 30
0.0
 10
3.731995
 20
4.697753
 30
0.0
 10
3.819780
 20
4.700862
 30
0.0
  0
SPLINE
  5
123
100
AcDbEntity
  8
Layer1
 62
7
100
AcDbSpline
 70
8
 71
3
 72
8
 73
4
 74
0
 40
0
 40
0
 40
0
 40
0
 40
1
 40
1
 40
1
 40
1
 10
3.819780
 20
4.700862
 30
0.0
 10
3.944462
 20
4.732873
 30
0.0
 10
3.992917
 20
4.553587
 30
0.0
 10
4.118424
 20
4.586288
 30
0.0
  0
SPLINE
  5
124
100
AcDbEntity
  8
Layer1
 62
7
100
AcDbSpline
 70
8
 71
3
 72
8
 73
4
 74
0
 40
0
 40
0
 40
0
 40
0
 40
1
 40
1
 40
1
 40
1
 10
4.118424
 20
4.586288
 30
0.0
 10
4.203478
 20
4.592292
 30
0.0
 10
4.256752
 20
4.670383
 30
0.0
 10
4.265868
 20
4.748758
 30
0.0
  0
SPLINE
  5
125
100
AcDbEntity
  8
Layer1
 62
7
100
AcDbSpline
 70
8
 71
3
 72
8
 73
4
 74
0
 40
0
 40
0
 40
0
 40
0
 40
1
 40
1
 40
1
 40
1
 10
4.265868
 20
4.748758
 30
0.0
 10
4.299670
 20
4.841544
 30
0.0
 10
4.420593
 20
4.891059
 30
0.0
 10
4.510512
 20
4.839854
 30
0.0
  0
SPLINE
  5
126
100
AcDbEntity
  8
Layer1
 62
7
100
AcDbSpline
 70
8
 71
3
 72
8
 73
4
 74
0
 40
0
 40
0
 40
0
 40
0
 40
1
 40
1
 40
1
 40
1
 10
4.510512
 20
4.839854
 30
0.0
 10
4.560959
 20
4.788913
 30
0.0
 10
4.634729
 20
4.766287
 30
0.0
 10
4.702095
 20
4.801819
 30
0.0
  0
SPLINE
  5
127
100
AcDbEntity
  8
Layer1
 62
7
100
AcDbSpline
 70
8
 71
3
 72
8
 73
4
 74
0
 40
0
 40
0
 40
0
 40
0
 40
1
 40
1
 40
1
 40
1
 10
4.702095
 20
4.801819
 30
0.0
 10
4.810869
 20
4.838378
 30
0.0
 10
4.782101
 20
4.967594
 30
0.0
 10
4.816200
 20
5.049750
 30
0.0
  0
SPLINE
  5
128
100
AcDbEntity
  8
Layer1
 62
7
100
AcDbSpline
 70
8
 71
3
 72
8
 73
4
 74
0
 40
0
 40
0
 40
0
 40
0
 40
1
 40
1
 40
1
 40
1
 10
4.816200
 20
5.049750
 30
0.0
 10
4.859703
 20
5.124075
 30
0.0
 10
4.965459
 20
5.166213
 30
0.0
 10
5.043470
 20
5.115020
 30
0.0
  0
SPLINE
  5
129
100
AcDbEntity
  8
Layer1
 62
7
100
AcDbSpline
 70
8
 71
3
 72
8
 73
4
 74
0
 40
0
 40
0
 40
0
 40
0
 40
1
 40
1
 40
1
 40
1
 10
5.043470
 20
5.115020
 30
0.0
 10
5.159555
 20
5.052914
 30
0.0
 10
5.309992
 20
5.172669
 30
0.0
 10
5.272149
 20
5.300029
 30
0.0
  0
SPLINE
  5
12a
100
AcDbEntity
  8
Layer1
 62
7
100
AcDbSpline
 70
8
 71
3
 72
8
 73
4
 74
0
 40
0
 40
0
 40
0
 40
0
 40
1
 40
1
 40
1
 40
1
 10
5.272149
 20
5.300029
 30
0.0
 10
5.249711
 20
5.392687
 30
0.0
 10
5.302102
 20
5.506191
 30
0.0
 10
5.405036
 20
5.511334
 30
0.0
  0
SPLINE
  5
12b
100
AcDbEntity
  8
Layer1
 62
7
100
AcDbSpline
 70
8
 71
3
 72
8
 73
4
 74
0
 40
0
 40
0
 40
0
 40
0
 40
1
 40
1
 40
1
 40
1
 10
5.405036
 20
5.511334
 30
0.0
 10
5.491849
 20
5.510734
 30
0.0
 10
5.611997
 20
5.485388
 30
0.0
 10
5.656724
 20
5.585056
 30
0.0
  0
SPLINE
  5
12c
100
AcDbEntity
  8
Layer1
 62
7
100
AcDbSpline
 70
8
 71
3
 72
8
 73
4
 74
0
 40
0
 40
0
 40
0
 40
0
 40
1
 40
1
 40
1
 40
1
 10
5.656724
 20
5.585056
 30
0.0
 10
5.699449
 20
5.639822
 30
0.0
 10
5.684604
 20
5.704395
 30
0.0
 10
5.655315
 20
5.759735
 30
0.0
  0
SPLINE
  5
12d
100
AcDbEntity
  8
Layer1
 62
7
100
AcDbSpline
 70
8
 71
3
 72
8
 73
4
 74
0
 40
0
 40
0
 40
0
 40
0
 40
1
 40
1
 40
1
 40
1
 10
5.655315
 20
5.759735
 30
0.0
 10
5.622374
 20
5.866987
 30
0.0
 10
5.703684
 20
6.010644
 30
0.0
 10
5.829524
 20
5.982779
 30
0.0
  0
SPLINE
  5
12e
100
AcDbEntity
  8
Layer1
 62
7
100
AcDbSpline
 70
8
 71
3
 72
8
 73
4
 74
0
 40
0
 40
0
 40
0
 40
0
 40
1
 40
1
 40
1
 40
1
 10
5.829524
 20
5.982779
 30
0.0
 10
5.961036
 20
5.977869
 30
0.0
 10
6.041454
 20
6.141986
 30
0.0
 10
5.959594
 20
6.244327
 30
0.0
  0
SPLINE
  5
12f
100
AcDbEntity
  8
Layer1
 62
7
100
AcDbSpline
 70
8
 71
3
 72
8
 73
4
 74
0
 40
0
 40
0
 40
0
 40
0
 40
1
 40
1
 40
1
 40
1
 10
5.959594
 20
6.244327
 30
0.0
 10
5.863651
 20
6.346625
 30
0.0
 10
5.956812
 20
6.534801
 30
0.0
 10
6.093890
 20
6.527945
 30
0.0
  0
SPLINE
  5
130
100
AcDbEntity
  8
Layer1
 62
7
100
AcDbSpline
 70
8
 71
3
 72
8
 73
4
 74
0
 40
0
 40
0
 40
0
 40
0
 40
1
 40
1
 40
1
 40
1
 10
6.093890
 20
6.527945
 30
0.0
 10
6.155097
 20
6.555065
 30
0.0
 10
6.207610
 20
6.618957
 30
0.0
 10
6.203769
 20
6.688537
 30
0.0
  0
SPLINE
  5
131
100
AcDbEntity
  8
Layer1
 62
7
100
AcDbSpline
 70
8
 71
3
 72
8
 73
4
 74
0
 40
0
 40
0
 40
0
 40
0
 40
1
 40
1
 40
1
 40
1
 10
6.203769
 20
6.688537
 30
0.0
 10
7.253719
 20
6.688537
 30
0.0
 10
8.303669
 20
6.688537
 30
0.0
 10
9.353620
 20
6.688537
 30
0.0
  0
SPLINE
  5
132
100
AcDbEntity
  8
Layer1
 62
7
100
AcDbSpline
 70
8
 71
3
 72
8
 73
4
 74
0
 40
0
 40
0
 40
0
 40
0
 40
1
 40
1
 40
1
 40
1
 10
9.353620
 20
6.688537
 30
0.0
 10
9.611043
 20
6.568569
 30
0.0
 10
9.932728
 20
6.569933
 30
0.0
 10
10.165970
 20
6.742537
 30
0.0
  0
SPLINE
  5
133
100
AcDbEntity
  8
Layer1
 62
7
100
AcDbSpline
 70
8
 71
3
 72
8
 73
4
 74
0
 40
0
 40
0
 40
0
 40
0
 40
1
 40
1
 40
1
 40
1
 10
10.165970
 20
6.742537
 30
0.0
 10
10.454258
 20
6.935555
 30
0.0
 10
10.592308
 20
7.330789
 30
0.0
 10
10.463205
 20
7.658192
 30
0.0
  0
SPLINE
  5
134
100
AcDbEntity
  8
Layer1
 62
7
100
AcDbSpline
 70
8
 71
3
 72
8
 73
4
 74
0
 40
0
 40
0
 40
0
 40
0
 40
1
 40
1
 40
1
 40
1
 10
10.463205
 20
7.658192
 30
0.0
 10
10.381167
 20
7.892717
 30
0.0
 10
10.169359
 20
8.044518
 30
0.0
 10
10.010543
 20
8.225428
 30
0.0
  0
SPLINE
  5
135
100
AcDbEntity
  8
Layer1
 62
7
100
AcDbSpline
 70
8
 71
3
 72
8
 73
4
 74
0
 40
0
 40
0
 40
0
 40
0
 40
1
 40
1
 40
1
 40
1
 10
10.010543
 20
8.225428
 30
0.0
 10
9.597444
 20
8.239723
 30
0.0
 10
9.178994
 20
8.227424
 30
0.0
 10
8.763844
 20
8.231532
 30
0.0
  0
SPLINE
  5
136
100
AcDbEntity
  8
Layer1
 62
7
100
AcDbSpline
 70
8
 71
3
 72
8
 73
4
 74
0
 40
0
 40
0
 40
0
 40
0
 40
1
 40
1
 40
1
 40
1
 10
8.763844
 20
8.231532
 30
0.0
 10
6.056168
 20
8.231532
 30
0.0
 10
3.348492
 20
8.231532
 30
0.0
 10
0.640816
 20
8.231532
 30
0.0
  0
LWPOLYLINE
  5
137
100
AcDbEntity
  8
Layer1
 62
7
100
AcDbPolyline
 90
2
 70
0
 10
6.857405
 20
2.138439
 30
0.0
 10
6.857405
 20
2.138439
 30
0.0
  0
SPLINE
  5
138
100
AcDbEntity
  8
Layer1
 62
7
100
AcDbSpline
 70
8
 71
3
 72
8
 73
4
 74
0
 40
0
 40
0
 40
0
 40
0
 40
1
 40
1
 40
1
 40
1
 10
3.233761
 20
4.662358
 30
0.0
 10
3.150488
 20
4.657132
 30
0.0
 10
3.105267
 20
4.578675
 30
0.0
 10
3.072230
 20
4.511627
 30
0.0
  0
SPLINE
  5
139
100
AcDbEntity
  8
Layer1
 62
7
100
AcDbSpline
 70
8
 71
3
 72
8
 73
4
 74
0
 40
0
 40
0
 40
0
 40
0
 40
1
 40
1
 40
1
 40
1
 10
3.072230
 20
4.511627
 30
0.0
 10
2.997049
 20
4.413390
 30
0.0
 10
2.838502
 20
4.434071
 30
0.0
 10
2.781569
 20
4.538862
 30
0.0
  0
SPLINE
  5
13a
100
AcDbEntity
  8
Layer1
 62
7
100
AcDbSpline
 70
8
 71
3
 72
8
 73
4
 74
0
 40
0
 40
0
 40
0
 40
0
 40
1
 40
1
 40
1
 40
1
 10
2.781569
 20
4.538862
 30
0.0
 10
2.675371
 20
4.617150
 30
0.0
 10
2.504925
 20
4.527070
 30
0.0
 10
2.509220
 20
4.394705
 30
0.0
  0
SPLINE
  5
13b
100
AcDbEntity
  8
Layer1
 62
7
100
AcDbSpline
 70
8
 71
3
 72
8
 73
4
 74
0
 40
0
 40
0
 40
0
 40
0
 40
1
 40
1
 40
1
 40
1
 10
2.509220
 20
4.394705
 30
0.0
 10
2.460962
 20
4.277778
 30
0.0
 10
2.299949
 20
4.267319
 30
0.0
 10
2.213393
 20
4.348218
 30
0.0
  0
SPLINE
  5
13c
100
AcDbEntity
  8
Layer1
 62
7
100
AcDbSpline
 70
8
 71
3
 72
8
 73
4
 74
0
 40
0
 40
0
 40
0
 40
0
 40
1
 40
1
 40
1
 40
1
 10
2.213393
 20
4.348218
 30
0.0
 10
2.100532
 20
4.414365
 30
0.0
 10
1.957792
 20
4.288601
 30
0.0
 10
1.983306
 20
4.165557
 30
0.0
  0
SPLINE
  5
13d
100
AcDbEntity
  8
Layer1
 62
7
100
AcDbSpline
 70
8
 71
3
 72
8
 73
4
 74
0
 40
0
 40
0
 40
0
 40
0
 40
1
 40
1
 40
1
 40
1
 10
1.983306
 20
4.165557
 30
0.0
 10
1.971365
 20
4.042729
 30
0.0
 10
1.820901
 20
3.971912
 30
0.0
 10
1.718470
 20
4.039713
 30
0.0
  0
SPLINE
  5
13e
100
AcDbEntity
  8
Layer1
 62
7
100
AcDbSpline
 70
8
 71
3
 72
8
 73
4
 74
0
 40
0
 40
0
 40
0
 40
0
 40
1
 40
1
 40
1
 40
1
 10
1.718470
 20
4.039713
 30
0.0
 10
1.602482
 20
4.091250
 30
0.0
 10
1.466362
 20
3.965515
 30
0.0
 10
1.506342
 20
3.844854
 30
0.0
  0
SPLINE
  5
13f
100
AcDbEntity
  8
Layer1
 62
7
100
AcDbSpline
 70
8
 71
3
 72
8
 73
4
 74
0
 40
0
 40
0
 40
0
 40
0
 40
1
 40
1
 40
1
 40
1
 10
1.506342
 20
3.844854
 30
0.0
 10
1.533924
 20
3.743946
 30
0.0
 10
1.454671
 20
3.632829
 30
0.0
 10
1.348452
 20
3.635886
 30
0.0
  0
SPLINE
  5
140
100
AcDbEntity
  8
Layer1
 62
7
100
AcDbSpline
 70
8
 71
3
 72
8
 73
4
 74
0
 40
0
 40
0
 40
0
 40
0
 40
1
 40
1
 40
1
 40
1
 10
1.348452
 20
3.635886
 30
0.0
 10
1.258737
 20
3.654827
 30
0.0
 10
1.143022
 20
3.644789
 30
0.0
 10
1.107565
 20
3.544320
 30
0.0
  0
SPLINE
  5
141
100
AcDbEntity
  8
Layer1
 62
7
100
AcDbSpline
 70
8
 71
3
 72
8
 73
4
 74
0
 40
0
 40
0
 40
0
 40
0
 40
1
 40
1
 40
1
 40
1
 10
1.107565
 20
3.544320
 30
0.0
 10
1.052553
 20
3.461339
 30
0.0
 10
1.160498
 20
3.378166
 30
0.0
 10
1.120243
 20
3.289346
 30
0.0
  0
SPLINE
  5
142
100
AcDbEntity
  8
Layer1
 62
7
100
AcDbSpline
 70
8
 71
3
 72
8
 73
4
 74
0
 40
0
 40
0
 40
0
 40
0
 40
1
 40
1
 40
1
 40
1
 10
1.120243
 20
3.289346
 30
0.0
 10
1.103373
 20
3.192408
 30
0.0
 10
1.006986
 20
3.157211
 30
0.0
 10
0.918799
 20
3.165850
 30
0.0
  0
SPLINE
  5
143
100
AcDbEntity
  8
Layer1
 62
7
100
AcDbSpline
 70
8
 71
3
 72
8
 73
4
 74
0
 40
0
 40
0
 40
0
 40
0
 40
1
 40
1
 40
1
 40
1
 10
0.918799
 20
3.165850
 30
0.0
 10
0.799660
 20
3.145319
 30
0.0
 10
0.739142
 20
2.986346
 30
0.0
 10
0.825355
 20
2.895380
 30
0.0
  0
SPLINE
  5
144
100
AcDbEntity
  8
Layer1
 62
7
100
AcDbSpline
 70
8
 71
3
 72
8
 73
4
 74
0
 40
0
 40
0
 40
0
 40
0
 40
1
 40
1
 40
1
 40
1
 10
0.825355
 20
2.895380
 30
0.0
 10
0.913295
 20
2.787106
 30
0.0
 10
0.812751
 20
2.620184
 30
0.0
 10
0.681668
 20
2.620214
 30
0.0
  0
SPLINE
  5
145
100
AcDbEntity
  8
Layer1
 62
7
100
AcDbSpline
 70
8
 71
3
 72
8
 73
4
 74
0
 40
0
 40
0
 40
0
 40
0
 40
1
 40
1
 40
1
 40
1
 10
0.681668
 20
2.620214
 30
0.0
 10
0.580628
 20
2.583839
 30
0.0
 10
0.534952
 20
2.442686
 30
0.0
 10
0.618276
 20
2.363361
 30
0.0
  0
SPLINE
  5
146
100
AcDbEntity
  8
Layer1
 62
7
100
AcDbSpline
 70
8
 71
3
 72
8
 73
4
 74
0
 40
0
 40
0
 40
0
 40
0
 40
1
 40
1
 40
1
 40
1
 10
0.618276
 20
2.363361
 30
0.0
 10
0.665399
 20
2.321133
 30
0.0
 10
0.713209
 20
2.271668
 30
0.0
 10
0.691059
 20
2.202300
 30
0.0
  0
SPLINE
  5
147
100
AcDbEntity
  8
Layer1
 62
7
100
AcDbSpline
 70
8
 71
3
 72
8
 73
4
 74
0
 40
0
 40
0
 40
0
 40
0
 40
1
 40
1
 40
1
 40
1
 10
0.691059
 20
2.202300
 30
0.0
 10
0.697550
 20
2.125227
 30
0.0
 10
0.647347
 20
2.059007
 30
0.0
 10
0.571789
 20
2.044995
 30
0.0
  0
SPLINE
  5
148
100
AcDbEntity
  8
Layer1
 62
7
100
AcDbSpline
 70
8
 71
3
 72
8
 73
4
 74
0
 40
0
 40
0
 40
0
 40
0
 40
1
 40
1
 40
1
 40
1
 10
0.571789
 20
2.044995
 30
0.0
 10
0.450105
 20
1.984528
 30
0.0
 10
0.470217
 20
1.786995
 30
0.0
 10
0.599024
 20
1.750577
 30
0.0
  0
SPLINE
  5
149
100
AcDbEntity
  8
Layer1
 62
7
100
AcDbSpline
 70
8
 71
3
 72
8
 73
4
 74
0
 40
0
 40
0
 40
0
 40
0
 40
1
 40
1
 40
1
 40
1
 10
0.599024
 20
1.750577
 30
0.0
 10
0.697621
 20
1.670714
 30
0.0
 10
0.678536
 20
1.492850
 30
0.0
 10
0.561928
 20
1.443950
 30
0.0
  0
SPLINE
  5
14a
100
AcDbEntity
  8
Layer1
 62
7
100
AcDbSpline
 70
8
 71
3
 72
8
 73
4
 74
0
 40
0
 40
0
 40
0
 40
0
 40
1
 40
1
 40
1
 40
1
 10
0.561928
 20
1.443950
 30
0.0
 10
0.467439
 20
1.354020
 30
0.0
 10
0.536107
 20
1.183951
 30
0.0
 10
0.658190
 20
1.167375
 30
0.0
  0
SPLINE
  5
14b
100
AcDbEntity
  8
Layer1
 62
7
100
AcDbSpline
 70
8
 71
3
 72
8
 73
4
 74
0
 40
0
 40
0
 40
0
 40
0
 40
1
 40
1
 40
1
 40
1
 10
0.658190
 20
1.167375
 30
0.0
 10
0.729958
 20
1.134094
 30
0.0
 10
0.794054
 20
1.031928
 30
0.0
 10
0.719703
 20
0.968749
 30
0.0
  0
SPLINE
  5
14c
100
AcDbEntity
  8
Layer1
 62
7
100
AcDbSpline
 70
8
 71
3
 72
8
 73
4
 74
0
 40
0
 40
0
 40
0
 40
0
 40
1
 40
1
 40
1
 40
1
 10
0.719703
 20
0.968749
 30
0.0
 10
0.729465
 20
0.901558
 30
0.0
 10
0.835192
 20
0.940306
 30
0.0
 10
0.882173
 20
0.926018
 30
0.0
  0
SPLINE
  5
14d
100
AcDbEntity
  8
Layer1
 62
7
100
AcDbSpline
 70
8
 71
3
 72
8
 73
4
 74
0
 40
0
 40
0
 40
0
 40
0
 40
1
 40
1
 40
1
 40
1
 10
0.882173
 20
0.926018
 30
0.0
 10
2.389698
 20
0.911474
 30
0.0
 10
3.897431
 20
0.920740
 30
0.0
 10
5.405036
 20
0.919618
 30
0.0
  0
SPLINE
  5
14e
100
AcDbEntity
  8
Layer1
 62
7
100
AcDbSpline
 70
8
 71
3
 72
8
 73
4
 74
0
 40
0
 40
0
 40
0
 40
0
 40
1
 40
1
 40
1
 40
1
 10
5.405036
 20
0.919618
 30
0.0
 10
5.880672
 20
0.925155
 30
0.0
 10
6.365331
 20
0.890714
 30
0.0
 10
6.840031
 20
0.916158
 30
0.0
  0
SPLINE
  5
14f
100
AcDbEntity
  8
Layer1
 62
7
100
AcDbSpline
 70
8
 71
3
 72
8
 73
4
 74
0
 40
0
 40
0
 40
0
 40
0
 40
1
 40
1
 40
1
 40
1
 10
6.840031
 20
0.916158
 30
0.0
 10
6.859854
 20
0.982517
 30
0.0
 10
6.938211
 20
1.051911
 30
0.0
 10
6.985127
 20
1.110088
 30
0.0
  0
SPLINE
  5
150
100
AcDbEntity
  8
Layer1
 62
7
100
AcDbSpline
 70
8
 71
3
 72
8
 73
4
 74
0
 40
0
 40
0
 40
0
 40
0
 40
1
 40
1
 40
1
 40
1
 10
6.985127
 20
1.110088
 30
0.0
 10
6.980093
 20
1.363245
 30
0.0
 10
6.995162
 20
1.620896
 30
0.0
 10
6.977614
 20
1.871255
 30
0.0
  0
SPLINE
  5
151
100
AcDbEntity
  8
Layer1
 62
7
100
AcDbSpline
 70
8
 71
3
 72
8
 73
4
 74
0
 40
0
 40
0
 40
0
 40
0
 40
1
 40
1
 40
1
 40
1
 10
6.977614
 20
1.871255
 30
0.0
 10
6.928853
 20
1.870506
 30
0.0
 10
6.849311
 20
1.868385
 30
0.0
 10
6.854588
 20
1.938403
 30
0.0
  0
SPLINE
  5
152
100
AcDbEntity
  8
Layer1
 62
7
100
AcDbSpline
 70
8
 71
3
 72
8
 73
4
 74
0
 40
0
 40
0
 40
0
 40
0
 40
1
 40
1
 40
1
 40
1
 10
6.854588
 20
1.938403
 30
0.0
 10
6.846362
 20
2.008827
 30
0.0
 10
6.851222
 20
2.079928
 30
0.0
 10
6.849892
 20
2.150647
 30
0.0
  0
SPLINE
  5
153
100
AcDbEntity
  8
Layer1
 62
7
100
AcDbSpline
 70
8
 71
3
 72
8
 73
4
 74
0
 40
0
 40
0
 40
0
 40
0
 40
1
 40
1
 40
1
 40
1
 10
6.849892
 20
2.150647
 30
0.0
 10
7.172014
 20
2.150647
 30
0.0
 10
7.494137
 20
2.150647
 30
0.0
 10
7.816260
 20
2.150647
 30
0.0
  0
SPLINE
  5
154
100
AcDbEntity
  8
Layer1
 62
7
100
AcDbSpline
 70
8
 71
3
 72
8
 73
4
 74
0
 40
0
 40
0
 40
0
 40
0
 40
1
 40
1
 40
1
 40
1
 10
7.816260
 20
2.150647
 30
0.0
 10
7.804247
 20
2.065489
 30
0.0
 10
7.840368
 20
1.959081
 30
0.0
 10
7.789964
 20
1.884873
 30
0.0
  0
SPLINE
  5
155
100
AcDbEntity
  8
Layer1
 62
7
100
AcDbSpline
 70
8
 71
3
 72
8
 73
4
 74
0
 40
0
 40
0
 40
0
 40
0
 40
1
 40
1
 40
1
 40
1
 10
7.789964
 20
1.884873
 30
0.0
 10
7.744613
 20
1.861094
 30
0.0
 10
7.653893
 20
1.899509
 30
0.0
 10
7.681024
 20
1.810212
 30
0.0
  0
SPLINE
  5
156
100
AcDbEntity
  8
Layer1
 62
7
100
AcDbSpline
 70
8
 71
3
 72
8
 73
4
 74
0
 40
0
 40
0
 40
0
 40
0
 40
1
 40
1
 40
1
 40
1
 10
7.681024
 20
1.810212
 30
0.0
 10
7.685119
 20
1.572400
 30
0.0
 10
7.672866
 20
1.331298
 30
0.0
 10
7.687129
 20
1.095532
 30
0.0
  0
SPLINE
  5
157
100
AcDbEntity
  8
Layer1
 62
7
100
AcDbSpline
 70
8
 71
3
 72
8
 73
4
 74
0
 40
0
 40
0
 40
0
 40
0
 40
1
 40
1
 40
1
 40
1
 10
7.687129
 20
1.095532
 30
0.0
 10
7.746834
 20
1.051120
 30
0.0
 10
7.805377
 20
0.980903
 30
0.0
 10
7.820955
 20
0.916627
 30
0.0
  0
SPLINE
  5
158
100
AcDbEntity
  8
Layer1
 62
7
100
AcDbSpline
 70
8
 71
3
 72
8
 73
4
 74
0
 40
0
 40
0
 40
0
 40
0
 40
1
 40
1
 40
1
 40
1
 10
7.820955
 20
0.916627
 30
0.0
 10
8.288765
 20
0.888514
 30
0.0
 10
8.777814
 20
0.924387
 30
0.0
 10
9.246559
 20
0.918505
 30
0.0
  0
SPLINE
  5
159
100
AcDbEntity
  8
Layer1
 62
7
100
AcDbSpline
 70
8
 71
3
 72
8
 73
4
 74
0
 40
0
 40
0
 40
0
 40
0
 40
1
 40
1
 40
1
 40
1
 10
9.246559
 20
0.918505
 30
0.0
 10
9.460425
 20
0.922592
 30
0.0
 10
9.677577
 20
0.910342
 30
0.0
 10
9.889395
 20
0.924610
 30
0.0
  0
SPLINE
  5
15a
100
AcDbEntity
  8
Layer1
 62
7
100
AcDbSpline
 70
8
 71
3
 72
8
 73
4
 74
0
 40
0
 40
0
 40
0
 40
0
 40
1
 40
1
 40
1
 40
1
 10
9.889395
 20
0.924610
 30
0.0
 10
10.051158
 20
1.108781
 30
0.0
 10
10.264840
 20
1.261197
 30
0.0
 10
10.366475
 20
1.489968
 30
0.0
  0
SPLINE
  5
15b
100
AcDbEntity
  8
Layer1
 62
7
100
AcDbSpline
 70
8
 71
3
 72
8
 73
4
 74
0
 40
0
 40
0
 40
0
 40
0
 40
1
 40
1
 40
1
 40
1
 10
10.366475
 20
1.489968
 30
0.0
 10
10.472142
 20
1.726203
 30
0.0
 10
10.425736
 20
2.013070
 30
0.0
 10
10.257066
 20
2.207935
 30
0.0
  0
SPLINE
  5
15c
100
AcDbEntity
  8
Layer1
 62
7
100
AcDbSpline
 70
8
 71
3
 72
8
 73
4
 74
0
 40
0
 40
0
 40
0
 40
0
 40
1
 40
1
 40
1
 40
1
 10
10.257066
 20
2.207935
 30
0.0
 10
10.131453
 20
2.369860
 30
0.0
 10
9.928717
 20
2.461543
 30
0.0
 10
9.723651
 20
2.451332
 30
0.0
  0
SPLINE
  5
15d
100
AcDbEntity
  8
Layer1
 62
7
100
AcDbSpline
 70
8
 71
3
 72
8
 73
4
 74
0
 40
0
 40
0
 40
0
 40
0
 40
1
 40
1
 40
1
 40
1
 10
9.723651
 20
2.451332
 30
0.0
 10
8.520859
 20
2.476846
 30
0.0
 10
7.317417
 20
2.447554
 30
0.0
 10
6.114551
 20
2.469953
 30
0.0
  0
SPLINE
  5
15e
100
AcDbEntity
  8
Layer1
 62
7
100
AcDbSpline
 70
8
 71
3
 72
8
 73
4
 74
0
 40
0
 40
0
 40
0
 40
0
 40
1
 40
1
 40
1
 40
1
 10
6.114551
 20
2.469953
 30
0.0
 10
6.082398
 20
2.471804
 30
0.0
 10
6.013335
 20
2.465687
 30
0.0
 10
6.053977
 20
2.510805
 30
0.0
  0
SPLINE
  5
15f
100
AcDbEntity
  8
Layer1
 62
7
100
AcDbSpline
 70
8
 71
3
 72
8
 73
4
 74
0
 40
0
 40
0
 40
0
 40
0
 40
1
 40
1
 40
1
 40
1
 10
6.053977
 20
2.510805
 30
0.0
 10
6.082836
 20
2.548915
 30
0.0
 10
6.152731
 20
2.554889
 30
0.0
 10
6.143195
 20
2.617396
 30
0.0
  0
SPLINE
  5
160
100
AcDbEntity
  8
Layer1
 62
7
100
AcDbSpline
 70
8
 71
3
 72
8
 73
4
 74
0
 40
0
 40
0
 40
0
 40
0
 40
1
 40
1
 40
1
 40
1
 10
6.143195
 20
2.617396
 30
0.0
 10
6.157249
 20
2.735051
 30
0.0
 10
6.058154
 20
2.827213
 30
0.0
 10
5.951142
 20
2.852180
 30
0.0
  0
SPLINE
  5
161
100
AcDbEntity
  8
Layer1
 62
7
100
AcDbSpline
 70
8
 71
3
 72
8
 73
4
 74
0
 40
0
 40
0
 40
0
 40
0
 40
1
 40
1
 40
1
 40
1
 10
5.951142
 20
2.852180
 30
0.0
 10
5.840937
 20
2.897889
 30
0.0
 10
5.761862
 20
3.050948
 30
0.0
 10
5.855350
 20
3.148946
 30
0.0
  0
SPLINE
  5
162
100
AcDbEntity
  8
Layer1
 62
7
100
AcDbSpline
 70
8
 71
3
 72
8
 73
4
 74
0
 40
0
 40
0
 40
0
 40
0
 40
1
 40
1
 40
1
 40
1
 10
5.855350
 20
3.148946
 30
0.0
 10
5.912829
 20
3.251279
 30
0.0
 10
5.814409
 20
3.375908
 30
0.0
 10
5.716828
 20
3.402511
 30
0.0
  0
SPLINE
  5
163
100
AcDbEntity
  8
Layer1
 62
7
100
AcDbSpline
 70
8
 71
3
 72
8
 73
4
 74
0
 40
0
 40
0
 40
0
 40
0
 40
1
 40
1
 40
1
 40
1
 10
5.716828
 20
3.402511
 30
0.0
 10
5.619706
 20
3.378688
 30
0.0
 10
5.514332
 20
3.423841
 30
0.0
 10
5.479697
 20
3.521312
 30
0.0
  0
SPLINE
  5
164
100
AcDbEntity
  8
Layer1
 62
7
100
AcDbSpline
 70
8
 71
3
 72
8
 73
4
 74
0
 40
0
 40
0
 40
0
 40
0
 40
1
 40
1
 40
1
 40
1
 10
5.479697
 20
3.521312
 30
0.0
 10
5.441796
 20
3.606181
 30
0.0
 10
5.533874
 20
3.699327
 30
0.0
 10
5.467958
 20
3.780043
 30
0.0
  0
SPLINE
  5
165
100
AcDbEntity
  8
Layer1
 62
7
100
AcDbSpline
 70
8
 71
3
 72
8
 73
4
 74
0
 40
0
 40
0
 40
0
 40
0
 40
1
 40
1
 40
1
 40
1
 10
5.467958
 20
3.780043
 30
0.0
 10
5.422884
 20
3.856261
 30
0.0
 10
5.323028
 20
3.885225
 30
0.0
 10
5.245384
 20
3.841086
 30
0.0
  0
SPLINE
  5
166
100
AcDbEntity
  8
Layer1
 62
7
100
AcDbSpline
 70
8
 71
3
 72
8
 73
4
 74
0
 40
0
 40
0
 40
0
 40
0
 40
1
 40
1
 40
1
 40
1
 10
5.245384
 20
3.841086
 30
0.0
 10
5.120513
 20
3.807732
 30
0.0
 10
5.008794
 20
3.942934
 30
0.0
 10
5.044409
 20
4.063661
 30
0.0
  0
SPLINE
  5
167
100
AcDbEntity
  8
Layer1
 62
7
100
AcDbSpline
 70
8
 71
3
 72
8
 73
4
 74
0
 40
0
 40
0
 40
0
 40
0
 40
1
 40
1
 40
1
 40
1
 10
5.044409
 20
4.063661
 30
0.0
 10
5.052285
 20
4.194153
 30
0.0
 10
4.866080
 20
4.270381
 30
0.0
 10
4.774408
 20
4.182931
 30
0.0
  0
SPLINE
  5
168
100
AcDbEntity
  8
Layer1
 62
7
100
AcDbSpline
 70
8
 71
3
 72
8
 73
4
 74
0
 40
0
 40
0
 40
0
 40
0
 40
1
 40
1
 40
1
 40
1
 10
4.774408
 20
4.182931
 30
0.0
 10
4.667227
 20
4.130237
 30
0.0
 10
4.518767
 20
4.218382
 30
0.0
 10
4.533521
 20
4.343992
 30
0.0
  0
SPLINE
  5
169
100
AcDbEntity
  8
Layer1
 62
7
100
AcDbSpline
 70
8
 71
3
 72
8
 73
4
 74
0
 40
0
 40
0
 40
0
 40
0
 40
1
 40
1
 40
1
 40
1
 10
4.533521
 20
4.343992
 30
0.0
 10
4.519221
 20
4.471419
 30
0.0
 10
4.340963
 20
4.534253
 30
0.0
 10
4.258355
 20
4.428514
 30
0.0
  0
SPLINE
  5
16a
100
AcDbEntity
  8
Layer1
 62
7
100
AcDbSpline
 70
8
 71
3
 72
8
 73
4
 74
0
 40
0
 40
0
 40
0
 40
0
 40
1
 40
1
 40
1
 40
1
 10
4.258355
 20
4.428514
 30
0.0
 10
4.159719
 20
4.335457
 30
0.0
 10
3.973579
 20
4.405438
 30
0.0
 10
3.965346
 20
4.544027
 30
0.0
  0
SPLINE
  5
16b
100
AcDbEntity
  8
Layer1
 62
7
100
AcDbSpline
 70
8
 71
3
 72
8
 73
4
 74
0
 40
0
 40
0
 40
0
 40
0
 40
1
 40
1
 40
1
 40
1
 10
3.965346
 20
4.544027
 30
0.0
 10
3.906573
 20
4.657569
 30
0.0
 10
3.715328
 20
4.657791
 30
0.0
 10
3.664823
 20
4.534166
 30
0.0
  0
SPLINE
  5
16c
100
AcDbEntity
  8
Layer1
 62
7
100
AcDbSpline
 70
8
 71
3
 72
8
 73
4
 74
0
 40
0
 40
0
 40
0
 40
0
 40
1
 40
1
 40
1
 40
1
 10
3.664823
 20
4.534166
 30
0.0
 10
3.597877
 20
4.453879
 30
0.0
 10
3.440468
 20
4.465985
 30
0.0
 10
3.393414
 20
4.558584
 30
0.0
  0
SPLINE
  5
16d
100
AcDbEntity
  8
Layer1
 62
7
100
AcDbSpline
 70
8
 71
3
 72
8
 73
4
 74
0
 40
0
 40
0
 40
0
 40
0
 40
1
 40
1
 40
1
 40
1
 10
3.393414
 20
4.558584
 30
0.0
 10
3.371287
 20
4.617980
 30
0.0
 10
3.297615
 20
4.666837
 30
0.0
 10
3.233761
 20
4.662358
 30
0.0
  0
LWPOLYLINE
  5
16e
100
AcDbEntity
  8
Layer1
 62
7
100
AcDbPolyline
 90
4
 70
0
 10
0.640816
 20
8.231532
 30
0.0
 10
0.627453
 20
8.224660
 30
0.0
 10
0.624381
 20
8.223080
 30
0.0
 10
0.624381
 20
8.223080
 30
0.0
  0
SPLINE
  5
16f
100
AcDbEntity
  8
Layer1
 62
1
100
AcDbSpline
 70
8
 71
3
 72
8
 73
4
 74
0
 40
0
 40
0
 40
0
 40
0
 40
1
 40
1
 40
1
 40
1
 10
10.220848
 20
1.263854
 30
0.0
 10
10.421856
 20
1.464825
 30
0.0
 10
10.482017
 20
1.767088
 30
0.0
 10
10.373279
 20
2.029710
 30
0.0
  0
SPLINE
  5
170
100
AcDbEntity
  8
Layer1
 62
1
100
AcDbSpline
 70
8
 71
3
 72
8
 73
4
 74
0
 40
0
 40
0
 40
0
 40
0
 40
1
 40
1
 40
1
 40
1
 10
10.373279
 20
2.029710
 30
0.0
 10
10.264541
 20
2.292331
 30
0.0
 10
10.008316
 20
2.463595
 30
0.0
 10
9.724073
 20
2.463649
 30
0.0
  0
LWPOLYLINE
  5
171
100
AcDbEntity
  8
Layer1
 62
7
100
AcDbPolyline
 90
2
 70
0
 10
3.233761
 20
4.662358
 30
0.0
 10
3.233761
 20
4.662358
 30
0.0
  0
LWPOLYLINE
  5
172
100
AcDbEntity
  8
Layer1
 62
1
100
AcDbPolyline
 90
4
 70
0
 10
9.725730
 20
2.463651
 30
0.0
 10
8.259330
 20
2.463651
 30
0.0
 10
6.839425
 20
2.463651
 30
0.0
 10
6.149144
 20
2.463651
 30
0.0
  0
LWPOLYLINE
  5
173
100
AcDbEntity
  8
Layer1
 62
1
100
AcDbPolyline
 90
3
 70
0
 10
6.034693
 20
2.463651
 30
0.0
 10
6.131261
 20
2.463651
 30
0.0
 10
6.149144
 20
2.463651
 30
0.0
  0
LWPOLYLINE
  5
174
100
AcDbEntity
  8
Layer1
 62
1
100
AcDbPolyline
 90
2
 70
0
 10
0.605436
 20
0.914990
 30
0.0
 10
1.066815
 20
0.914990
 30
0.0
  0
LWPOLYLINE
  5
175
100
AcDbEntity
  8
Layer1
 62
1
100
AcDbPolyline
 90
2
 70
0
 10
0.605436
 20
0.914990
 30
0.0
 10
0.605436
 20
0.914990
 30
0.0
  0
LWPOLYLINE
  5
176
100
AcDbEntity
  8
Layer1
 62
1
100
AcDbPolyline
 90
12
 70
0
 10
0.719887
 20
1.126008
 30
0.0
 10
0.727040
 20
1.118855
 30
0.0
 10
0.755652
 20
1.065206
 30
0.0
 10
0.755652
 20
1.015134
 30
0.0
 10
0.730616
 20
0.982945
 30
0.0
 10
0.702004
 20
0.965061
 30
0.0
 10
0.687697
 20
0.961485
 30
0.0
 10
0.673391
 20
0.957908
 30
0.0
 10
0.644778
 20
0.947179
 30
0.0
 10
0.616166
 20
0.925719
 30
0.0
 10
0.605436
 20
0.914990
 30
0.0
 10
0.605436
 20
0.914990
 30
0.0
  0
LWPOLYLINE
  5
177
100
AcDbEntity
  8
Layer1
 62
1
100
AcDbPolyline
 90
3
 70
0
 10
5.387331
 20
3.858519
 30
0.0
 10
5.387331
 20
3.858519
 30
0.0
 10
5.448133
 20
3.815600
 30
0.0
  0
LWPOLYLINE
  5
178
100
AcDbEntity
  8
Layer1
 62
1
100
AcDbPolyline
 90
2
 70
0
 10
5.387331
 20
3.858519
 30
0.0
 10
5.387331
 20
3.858519
 30
0.0
  0
LWPOLYLINE
  5
179
100
AcDbEntity
  8
Layer1
 62
1
100
AcDbPolyline
 90
2
 70
0
 10
5.448133
 20
3.815600
 30
0.0
 10
5.448133
 20
3.815600
 30
0.0
  0
LWPOLYLINE
  5
17a
100
AcDbEntity
  8
Layer1
 62
1
100
AcDbPolyline
 90
2
 70
0
 10
0.605436
 20
0.914990
 30
0.0
 10
0.605436
 20
0.914990
 30
0.0
  0
LWPOLYLINE
  5
17b
100
AcDbEntity
  8
Layer1
 62
1
100
AcDbPolyline
 90
42
 70
0
 10
5.358718
 20
3.865389
 30
0.0
 10
5.387331
 20
3.858519
 30
0.0
 10
5.448133
 20
3.815600
 30
0.0
 10
5.487476
 20
3.754798
 30
0.0
 10
5.501782
 20
3.693996
 30
0.0
 10
5.491052
 20
3.654654
 30
0.0
 10
5.483899
 20
3.640348
 30
0.0
 10
5.476746
 20
3.629618
 30
0.0
 10
5.466016
 20
3.593852
 30
0.0
 10
5.473169
 20
3.533050
 30
0.0
 10
5.505358
 20
3.468672
 30
0.0
 10
5.562584
 20
3.422176
 30
0.0
 10
5.619809
 20
3.397140
 30
0.0
 10
5.662728
 20
3.397140
 30
0.0
 10
5.677035
 20
3.400716
 30
0.0
 10
5.691341
 20
3.404293
 30
0.0
 10
5.737837
 20
3.400716
 30
0.0
 10
5.798638
 20
3.368527
 30
0.0
 10
5.852287
 20
3.307725
 30
0.0
 10
5.880900
 20
3.236194
 30
0.0
 10
5.877323
 20
3.175392
 30
0.0
 10
5.859440
 20
3.139626
 30
0.0
 10
5.848711
 20
3.132472
 30
0.0
 10
5.837981
 20
3.121743
 30
0.0
 10
5.816521
 20
3.089553
 30
0.0
 10
5.809368
 20
3.032328
 30
0.0
 10
5.830828
 20
2.960796
 30
0.0
 10
5.877323
 20
2.899994
 30
0.0
 10
5.930972
 20
2.857075
 30
0.0
 10
5.973891
 20
2.842769
 30
0.0
 10
5.988198
 20
2.842769
 30
0.0
 10
6.006080
 20
2.839192
 30
0.0
 10
6.048999
 20
2.821309
 30
0.0
 10
6.102648
 20
2.771237
 30
0.0
 10
6.141991
 20
2.696129
 30
0.0
 10
6.152720
 20
2.621021
 30
0.0
 10
6.134837
 20
2.567372
 30
0.0
 10
6.109801
 20
2.542336
 30
0.0
 10
6.095495
 20
2.538759
 30
0.0
 10
6.081189
 20
2.535183
 30
0.0
 10
6.056153
 20
2.510147
 30
0.0
 10
6.034693
 20
2.463651
 30
0.0
  0
LWPOLYLINE
  5
17c
100
AcDbEntity
  8
Layer1
 62
1
100
AcDbPolyline
 90
2
 70
0
 10
6.116955
 20
2.463651
 30
0.0
 10
6.116955
 20
2.463651
 30
0.0
  0
LWPOLYLINE
  5
17d
100
AcDbEntity
  8
Layer1
 62
1
100
AcDbPolyline
 90
202
 70
0
 10
0.719887
 20
1.126008
 30
0.0
 10
0.684121
 20
1.158197
 30
0.0
 10
0.648355
 20
1.172503
 30
0.0
 10
0.634048
 20
1.172503
 30
0.0
 10
0.619742
 20
1.176080
 30
0.0
 10
0.580400
 20
1.190386
 30
0.0
 10
0.541057
 20
1.236882
 30
0.0
 10
0.516021
 20
1.304837
 30
0.0
 10
0.516021
 20
1.376369
 30
0.0
 10
0.544634
 20
1.433594
 30
0.0
 10
0.573246
 20
1.458630
 30
0.0
 10
0.587553
 20
1.465784
 30
0.0
 10
0.601859
 20
1.469360
 30
0.0
 10
0.630472
 20
1.494396
 30
0.0
 10
0.659085
 20
1.548045
 30
0.0
 10
0.669814
 20
1.616000
 30
0.0
 10
0.651931
 20
1.683955
 30
0.0
 10
0.619742
 20
1.734027
 30
0.0
 10
0.587553
 20
1.755487
 30
0.0
 10
0.573246
 20
1.759064
 30
0.0
 10
0.558940
 20
1.762640
 30
0.0
 10
0.526751
 20
1.787676
 30
0.0
 10
0.494562
 20
1.841325
 30
0.0
 10
0.483832
 20
1.912857
 30
0.0
 10
0.501715
 20
1.980812
 30
0.0
 10
0.537481
 20
2.030884
 30
0.0
 10
0.573246
 20
2.052344
 30
0.0
 10
0.587553
 20
2.052344
 30
0.0
 10
0.601859
 20
2.055920
 30
0.0
 10
0.637625
 20
2.073803
 30
0.0
 10
0.676967
 20
2.120299
 30
0.0
 10
0.698427
 20
2.184677
 30
0.0
 10
0.698427
 20
2.256209
 30
0.0
 10
0.673391
 20
2.309858
 30
0.0
 10
0.644778
 20
2.338470
 30
0.0
 10
0.634048
 20
2.345624
 30
0.0
 10
0.619742
 20
2.352777
 30
0.0
 10
0.594706
 20
2.381390
 30
0.0
 10
0.573246
 20
2.438615
 30
0.0
 10
0.576823
 20
2.513723
 30
0.0
 10
0.609012
 20
2.578102
 30
0.0
 10
0.655508
 20
2.617444
 30
0.0
 10
0.694850
 20
2.631751
 30
0.0
 10
0.709157
 20
2.628174
 30
0.0
 10
0.723463
 20
2.628174
 30
0.0
 10
0.762806
 20
2.638904
 30
0.0
 10
0.809301
 20
2.674670
 30
0.0
 10
0.848644
 20
2.735472
 30
0.0
 10
0.855797
 20
2.774814
 30
0.0
 10
0.859373
 20
2.803427
 30
0.0
 10
0.855797
 20
2.832039
 30
0.0
 10
0.848644
 20
2.864229
 30
0.0
 10
0.827184
 20
2.896418
 30
0.0
 10
0.816454
 20
2.903571
 30
0.0
 10
0.805725
 20
2.914301
 30
0.0
 10
0.784265
 20
2.950067
 30
0.0
 10
0.777112
 20
3.010869
 30
0.0
 10
0.794995
 20
3.082400
 30
0.0
 10
0.841490
 20
3.136049
 30
0.0
 10
0.855797
 20
3.143202
 30
0.0
 10
0.895139
 20
3.168238
 30
0.0
 10
0.934482
 20
3.171815
 30
0.0
 10
0.948788
 20
3.168238
 30
0.0
 10
0.963094
 20
3.164662
 30
0.0
 10
1.002437
 20
3.164662
 30
0.0
 10
1.056086
 20
3.189698
 30
0.0
 10
1.106158
 20
3.243347
 30
0.0
 10
1.131194
 20
3.307725
 30
0.0
 10
1.134770
 20
3.364951
 30
0.0
 10
1.120464
 20
3.404293
 30
0.0
 10
1.109734
 20
3.415023
 30
0.0
 10
1.102581
 20
3.425753
 30
0.0
 10
1.088275
 20
3.465095
 30
0.0
 10
1.091851
 20
3.525897
 30
0.0
 10
1.127617
 20
3.590276
 30
0.0
 10
1.181266
 20
3.636771
 30
0.0
 10
1.242068
 20
3.654654
 30
0.0
 10
1.281410
 20
3.651077
 30
0.0
 10
1.295717
 20
3.643924
 30
0.0
 10
1.306447
 20
3.636771
 30
0.0
 10
1.349366
 20
3.633195
 30
0.0
 10
1.406591
 20
3.643924
 30
0.0
 10
1.463816
 20
3.683267
 30
0.0
 10
1.503159
 20
3.744069
 30
0.0
 10
1.517465
 20
3.801294
 30
0.0
 10
1.510312
 20
3.840637
 30
0.0
 10
1.503159
 20
3.851366
 30
0.0
 10
1.496006
 20
3.865673
 30
0.0
 10
1.492429
 20
3.905015
 30
0.0
 10
1.510312
 20
3.965817
 30
0.0
 10
1.556808
 20
4.019466
 30
0.0
 10
1.621186
 20
4.055232
 30
0.0
 10
1.681988
 20
4.058808
 30
0.0
 10
1.721331
 20
4.048078
 30
0.0
 10
1.732060
 20
4.037349
 30
0.0
 10
1.742790
 20
4.030196
 30
0.0
 10
1.782133
 20
4.015889
 30
0.0
 10
1.839358
 20
4.015889
 30
0.0
 10
1.907313
 20
4.040925
 30
0.0
 10
1.957385
 20
4.090998
 30
0.0
 10
1.982421
 20
4.144646
 30
0.0
 10
1.985998
 20
4.183989
 30
0.0
 10
1.978845
 20
4.198295
 30
0.0
 10
1.975268
 20
4.212601
 30
0.0
 10
1.982421
 20
4.251944
 30
0.0
 10
2.011034
 20
4.305593
 30
0.0
 10
2.068259
 20
4.352088
 30
0.0
 10
2.136214
 20
4.373548
 30
0.0
 10
2.197016
 20
4.362818
 30
0.0
 10
2.232782
 20
4.344935
 30
0.0
 10
2.243512
 20
4.330629
 30
0.0
 10
2.250665
 20
4.319899
 30
0.0
 10
2.286431
 20
4.298439
 30
0.0
 10
2.343656
 20
4.287710
 30
0.0
 10
2.411612
 20
4.302016
 30
0.0
 10
2.472414
 20
4.337782
 30
0.0
 10
2.508179
 20
4.384278
 30
0.0
 10
2.518909
 20
4.423620
 30
0.0
 10
2.518909
 20
4.437926
 30
0.0
 10
2.518909
 20
4.452233
 30
0.0
 10
2.529639
 20
4.491575
 30
0.0
 10
2.568981
 20
4.538071
 30
0.0
 10
2.636937
 20
4.570260
 30
0.0
 10
2.708468
 20
4.573837
 30
0.0
 10
2.765694
 20
4.555954
 30
0.0
 10
2.797883
 20
4.527341
 30
0.0
 10
2.801460
 20
4.513035
 30
0.0
 10
2.808613
 20
4.502305
 30
0.0
 10
2.837225
 20
4.473692
 30
0.0
 10
2.890874
 20
4.452233
 30
0.0
 10
2.962406
 20
4.448656
 30
0.0
 10
3.030361
 20
4.473692
 30
0.0
 10
3.073280
 20
4.509458
 30
0.0
 10
3.091163
 20
4.545224
 30
0.0
 10
3.094740
 20
4.559530
 30
0.0
 10
3.098316
 20
4.573837
 30
0.0
 10
3.116199
 20
4.609602
 30
0.0
 10
3.166271
 20
4.648945
 30
0.0
 10
3.237803
 20
4.666828
 30
0.0
 10
3.309335
 20
4.656098
 30
0.0
 10
3.359407
 20
4.623909
 30
0.0
 10
3.384443
 20
4.588143
 30
0.0
 10
3.388020
 20
4.577413
 30
0.0
 10
3.391596
 20
4.563107
 30
0.0
 10
3.413056
 20
4.527341
 30
0.0
 10
3.463128
 20
4.495152
 30
0.0
 10
3.531083
 20
4.477269
 30
0.0
 10
3.599038
 20
4.487999
 30
0.0
 10
3.652687
 20
4.516611
 30
0.0
 10
3.677723
 20
4.548800
 30
0.0
 10
3.681300
 20
4.559530
 30
0.0
 10
3.688453
 20
4.573837
 30
0.0
 10
3.717066
 20
4.606026
 30
0.0
 10
3.770714
 20
4.631062
 30
0.0
 10
3.842246
 20
4.634639
 30
0.0
 10
3.910201
 20
4.609602
 30
0.0
 10
3.956697
 20
4.566683
 30
0.0
 10
3.974580
 20
4.527341
 30
0.0
 10
3.974580
 20
4.513035
 30
0.0
 10
3.974580
 20
4.498728
 30
0.0
 10
3.988886
 20
4.462962
 30
0.0
 10
4.028228
 20
4.420043
 30
0.0
 10
4.092607
 20
4.387854
 30
0.0
 10
4.164139
 20
4.384278
 30
0.0
 10
4.221364
 20
4.402161
 30
0.0
 10
4.249977
 20
4.427197
 30
0.0
 10
4.257130
 20
4.437926
 30
0.0
 10
4.267860
 20
4.448656
 30
0.0
 10
4.300049
 20
4.473692
 30
0.0
 10
4.360851
 20
4.487999
 30
0.0
 10
4.432383
 20
4.477269
 30
0.0
 10
4.493185
 20
4.437926
 30
0.0
 10
4.528950
 20
4.387854
 30
0.0
 10
4.536104
 20
4.344935
 30
0.0
 10
4.532527
 20
4.330629
 30
0.0
 10
4.532527
 20
4.319899
 30
0.0
 10
4.539680
 20
4.280557
 30
0.0
 10
4.568293
 20
4.226908
 30
0.0
 10
4.625518
 20
4.183989
 30
0.0
 10
4.693473
 20
4.166106
 30
0.0
 10
4.750699
 20
4.169682
 30
0.0
 10
4.786465
 20
4.187565
 30
0.0
 10
4.797194
 20
4.198295
 30
0.0
 10
4.807924
 20
4.209025
 30
0.0
 10
4.843690
 20
4.226908
 30
0.0
 10
4.904492
 20
4.226908
 30
0.0
 10
4.972447
 20
4.201872
 30
0.0
 10
5.026096
 20
4.148223
 30
0.0
 10
5.047555
 20
4.090998
 30
0.0
 10
5.047555
 20
4.051655
 30
0.0
 10
5.043979
 20
4.037349
 30
0.0
 10
5.040402
 20
4.026619
 30
0.0
 10
5.036826
 20
3.983700
 30
0.0
 10
5.054709
 20
3.930051
 30
0.0
 10
5.101204
 20
3.876402
 30
0.0
 10
5.162006
 20
3.840637
 30
0.0
 10
5.222808
 20
3.833483
 30
0.0
 10
5.262150
 20
3.844213
 30
0.0
 10
5.272880
 20
3.851366
 30
0.0
 10
5.283610
 20
3.858519
 30
0.0
 10
5.326529
 20
3.869249
 30
0.0
 10
5.358718
 20
3.865389
 30
0.0
  0
LWPOLYLINE
  5
17e
100
AcDbEntity
  8
Layer1
 62
1
100
AcDbPolyline
 90
2
 70
0
 10
3.384443
 20
4.588143
 30
0.0
 10
3.384443
 20
4.588143
 30
0.0
  0
SPLINE
  5
17f
100
AcDbEntity
  8
Layer1
 62
1
100
AcDbSpline
 70
8
 71
3
 72
8
 73
4
 74
0
 40
0
 40
0
 40
0
 40
0
 40
1
 40
1
 40
1
 40
1
 10
6.853731
 20
1.928957
 30
0.0
 10
6.853728
 20
1.898342
 30
0.0
 10
6.878543
 20
1.873520
 30
0.0
 10
6.909158
 20
1.873514
 30
0.0
  0
LWPOLYLINE
  5
180
100
AcDbEntity
  8
Layer1
 62
1
100
AcDbPolyline
 90
2
 70
0
 10
3.391596
 20
4.563107
 30
0.0
 10
3.391596
 20
4.563107
 30
0.0
  0
SPLINE
  5
181
100
AcDbEntity
  8
Layer1
 62
1
100
AcDbSpline
 70
8
 71
3
 72
8
 73
4
 74
0
 40
0
 40
0
 40
0
 40
0
 40
1
 40
1
 40
1
 40
1
 10
7.756815
 20
1.873514
 30
0.0
 10
7.787429
 20
1.873511
 30
0.0
 10
7.812251
 20
1.898326
 30
0.0
 10
7.812258
 20
1.928940
 30
0.0
  0
LWPOLYLINE
  5
182
100
AcDbEntity
  8
Layer1
 62
1
100
AcDbPolyline
 90
3
 70
0
 10
6.907380
 20
1.873514
 30
0.0
 10
6.978912
 20
1.873514
 30
0.0
 10
6.978912
 20
1.097395
 30
0.0
  0
LWPOLYLINE
  5
183
100
AcDbEntity
  8
Layer1
 62
1
100
AcDbPolyline
 90
4
 70
0
 10
7.808680
 20
0.972214
 30
0.0
 10
7.683499
 20
1.097395
 30
0.0
 10
7.683499
 20
1.873514
 30
0.0
 10
7.755031
 20
1.873514
 30
0.0
  0
LWPOLYLINE
  5
184
100
AcDbEntity
  8
Layer1
 62
1
100
AcDbPolyline
 90
2
 70
0
 10
7.189930
 20
0.914990
 30
0.0
 10
7.189930
 20
0.914990
 30
0.0
  0
SPLINE
  5
185
100
AcDbEntity
  8
Layer1
 62
1
100
AcDbSpline
 70
8
 71
3
 72
8
 73
4
 74
0
 40
0
 40
0
 40
0
 40
0
 40
1
 40
1
 40
1
 40
1
 10
9.381406
 20
6.679220
 30
0.0
 10
9.370001
 20
6.684733
 30
0.0
 10
9.357497
 20
6.687597
 30
0.0
 10
9.344830
 20
6.687599
 30
0.0
  0
SPLINE
  5
186
100
AcDbEntity
  8
Layer1
 62
1
100
AcDbSpline
 70
8
 71
3
 72
8
 73
4
 74
0
 40
0
 40
0
 40
0
 40
0
 40
1
 40
1
 40
1
 40
1
 10
9.379058
 20
6.677191
 30
0.0
 10
9.727045
 20
6.508918
 30
0.0
 10
10.145665
 20
6.616340
 30
0.0
 10
10.369628
 20
6.931382
 30
0.0
  0
SPLINE
  5
187
100
AcDbEntity
  8
Layer1
 62
1
100
AcDbSpline
 70
8
 71
3
 72
8
 73
4
 74
0
 40
0
 40
0
 40
0
 40
0
 40
1
 40
1
 40
1
 40
1
 10
10.369628
 20
6.931382
 30
0.0
 10
10.593590
 20
7.246423
 30
0.0
 10
10.557499
 20
7.677099
 30
0.0
 10
10.284229
 20
7.950473
 30
0.0
  0
LWPOLYLINE
  5
188
100
AcDbEntity
  8
Layer1
 62
1
100
AcDbPolyline
 90
2
 70
0
 10
7.472481
 20
0.914990
 30
0.0
 10
7.472481
 20
0.914990
 30
0.0
  0
LWPOLYLINE
  5
189
100
AcDbEntity
  8
Layer1
 62
1
100
AcDbPolyline
 90
4
 70
0
 10
10.283677
 20
7.950134
 30
0.0
 10
9.997550
 20
8.236521
 30
0.0
 10
9.875946
 20
8.236261
 30
0.0
 10
0.802148
 20
8.236261
 30
0.0
  0
LWPOLYLINE
  5
18a
100
AcDbEntity
  8
Layer1
 62
1
100
AcDbPolyline
 90
3
 70
0
 10
5.930972
 20
6.415778
 30
0.0
 10
5.966738
 20
6.476580
 30
0.0
 10
6.013234
 20
6.512346
 30
0.0
  0
LWPOLYLINE
  5
18b
100
AcDbEntity
  8
Layer1
 62
1
100
AcDbPolyline
 90
4
 70
0
 10
6.120531
 20
6.533806
 30
0.0
 10
6.167027
 20
6.573148
 30
0.0
 10
6.199216
 20
6.637527
 30
0.0
 10
6.202793
 20
6.687599
 30
0.0
  0
LWPOLYLINE
  5
18c
100
AcDbEntity
  8
Layer1
 62
1
100
AcDbPolyline
 90
236
 70
0
 10
0.802148
 20
8.236260
 30
0.0
 10
0.641202
 20
8.236260
 30
0.0
 10
0.609012
 20
8.211224
 30
0.0
 10
0.576823
 20
8.146846
 30
0.0
 10
0.573246
 20
8.071738
 30
0.0
 10
0.594706
 20
8.014512
 30
0.0
 10
0.619742
 20
7.985899
 30
0.0
 10
0.634048
 20
7.978746
 30
0.0
 10
0.644778
 20
7.971593
 30
0.0
 10
0.673391
 20
7.942980
 30
0.0
 10
0.698427
 20
7.889332
 30
0.0
 10
0.698427
 20
7.817800
 30
0.0
 10
0.676967
 20
7.753421
 30
0.0
 10
0.637625
 20
7.706926
 30
0.0
 10
0.601859
 20
7.689043
 30
0.0
 10
0.587553
 20
7.685466
 30
0.0
 10
0.573246
 20
7.685466
 30
0.0
 10
0.537481
 20
7.664007
 30
0.0
 10
0.501715
 20
7.613935
 30
0.0
 10
0.483832
 20
7.545980
 30
0.0
 10
0.494562
 20
7.470871
 30
0.0
 10
0.526751
 20
7.420799
 30
0.0
 10
0.558940
 20
7.395763
 30
0.0
 10
0.573246
 20
7.392186
 30
0.0
 10
0.587553
 20
7.388610
 30
0.0
 10
0.619742
 20
7.367150
 30
0.0
 10
0.651931
 20
7.317078
 30
0.0
 10
0.669814
 20
7.249123
 30
0.0
 10
0.659085
 20
7.181168
 30
0.0
 10
0.630472
 20
7.127519
 30
0.0
 10
0.601859
 20
7.102483
 30
0.0
 10
0.587553
 20
7.098906
 30
0.0
 10
0.573246
 20
7.091753
 30
0.0
 10
0.544634
 20
7.063140
 30
0.0
 10
0.516021
 20
7.009492
 30
0.0
 10
0.516021
 20
6.937960
 30
0.0
 10
0.541057
 20
6.870005
 30
0.0
 10
0.580400
 20
6.823509
 30
0.0
 10
0.619742
 20
6.805626
 30
0.0
 10
0.634048
 20
6.805626
 30
0.0
 10
0.648355
 20
6.805626
 30
0.0
 10
0.684121
 20
6.791320
 30
0.0
 10
0.727040
 20
6.751977
 30
0.0
 10
0.759229
 20
6.687599
 30
0.0
 10
0.762806
 20
6.616067
 30
0.0
 10
0.748499
 20
6.558842
 30
0.0
 10
0.723463
 20
6.530229
 30
0.0
 10
0.709157
 20
6.523076
 30
0.0
 10
0.698427
 20
6.512346
 30
0.0
 10
0.673391
 20
6.480157
 30
0.0
 10
0.659085
 20
6.419355
 30
0.0
 10
0.673391
 20
6.347823
 30
0.0
 10
0.709157
 20
6.287021
 30
0.0
 10
0.762806
 20
6.251255
 30
0.0
 10
0.802148
 20
6.244102
 30
0.0
 10
0.816454
 20
6.247679
 30
0.0
 10
0.830761
 20
6.247679
 30
0.0
 10
0.870103
 20
6.240526
 30
0.0
 10
0.920175
 20
6.211913
 30
0.0
 10
0.963094
 20
6.154688
 30
0.0
 10
0.980977
 20
6.090309
 30
0.0
 10
0.977401
 20
6.029507
 30
0.0
 10
0.959518
 20
5.993741
 30
0.0
 10
0.948788
 20
5.983011
 30
0.0
 10
0.938058
 20
5.972282
 30
0.0
 10
0.923752
 20
5.936516
 30
0.0
 10
0.920175
 20
5.875714
 30
0.0
 10
0.948788
 20
5.807759
 30
0.0
 10
0.998860
 20
5.754110
 30
0.0
 10
1.056086
 20
5.732650
 30
0.0
 10
1.095428
 20
5.732650
 30
0.0
 10
1.109734
 20
5.736227
 30
0.0
 10
1.124041
 20
5.743380
 30
0.0
 10
1.163383
 20
5.743380
 30
0.0
 10
1.220609
 20
5.725497
 30
0.0
 10
1.274257
 20
5.679002
 30
0.0
 10
1.306447
 20
5.618200
 30
0.0
 10
1.313600
 20
5.557398
 30
0.0
 10
1.302870
 20
5.518055
 30
0.0
 10
1.295717
 20
5.507326
 30
0.0
 10
1.288564
 20
5.496596
 30
0.0
 10
1.277834
 20
5.453677
 30
0.0
 10
1.292140
 20
5.396451
 30
0.0
 10
1.331483
 20
5.335649
 30
0.0
 10
1.392285
 20
5.292730
 30
0.0
 10
1.453087
 20
5.282001
 30
0.0
 10
1.492429
 20
5.292730
 30
0.0
 10
1.503159
 20
5.299884
 30
0.0
 10
1.517465
 20
5.307037
 30
0.0
 10
1.553231
 20
5.317766
 30
0.0
 10
1.614033
 20
5.310613
 30
0.0
 10
1.674835
 20
5.274847
 30
0.0
 10
1.721331
 20
5.221199
 30
0.0
 10
1.739213
 20
5.167550
 30
0.0
 10
1.739213
 20
5.128207
 30
0.0
 10
1.732060
 20
5.113901
 30
0.0
 10
1.728484
 20
5.099595
 30
0.0
 10
1.728484
 20
5.060252
 30
0.0
 10
1.753520
 20
5.003027
 30
0.0
 10
1.803592
 20
4.952955
 30
0.0
 10
1.871547
 20
4.924342
 30
0.0
 10
1.932349
 20
4.927919
 30
0.0
 10
1.971692
 20
4.942225
 30
0.0
 10
1.978845
 20
4.952955
 30
0.0
 10
1.989575
 20
4.963685
 30
0.0
 10
2.025340
 20
4.981567
 30
0.0
 10
2.086142
 20
4.985144
 30
0.0
 10
2.154097
 20
4.967261
 30
0.0
 10
2.207746
 20
4.924342
 30
0.0
 10
2.239936
 20
4.870693
 30
0.0
 10
2.247089
 20
4.831351
 30
0.0
 10
2.243512
 20
4.820621
 30
0.0
 10
2.239936
 20
4.806315
 30
0.0
 10
2.250665
 20
4.763396
 30
0.0
 10
2.282855
 20
4.713324
 30
0.0
 10
2.347233
 20
4.673981
 30
0.0
 10
2.418765
 20
4.663251
 30
0.0
 10
2.475990
 20
4.677558
 30
0.0
 10
2.511756
 20
4.702594
 30
0.0
 10
2.518909
 20
4.713324
 30
0.0
 10
2.526062
 20
4.724053
 30
0.0
 10
2.558252
 20
4.749089
 30
0.0
 10
2.615477
 20
4.766972
 30
0.0
 10
2.683432
 20
4.763396
 30
0.0
 10
2.747811
 20
4.731206
 30
0.0
 10
2.787153
 20
4.688287
 30
0.0
 10
2.801460
 20
4.652522
 30
0.0
 10
2.801460
 20
4.638215
 30
0.0
 10
2.805036
 20
4.623909
 30
0.0
 10
2.819342
 20
4.584566
 30
0.0
 10
2.865838
 20
4.541647
 30
0.0
 10
2.933793
 20
4.516611
 30
0.0
 10
3.005325
 20
4.520188
 30
0.0
 10
3.062550
 20
4.548800
 30
0.0
 10
3.087586
 20
4.577413
 30
0.0
 10
3.094740
 20
4.591720
 30
0.0
 10
3.098316
 20
4.606026
 30
0.0
 10
3.123352
 20
4.634639
 30
0.0
 10
3.177001
 20
4.663251
 30
0.0
 10
3.244956
 20
4.673981
 30
0.0
 10
3.312911
 20
4.656098
 30
0.0
 10
3.362983
 20
4.623909
 30
0.0
 10
3.384443
 20
4.588143
 30
0.0
 10
3.388020
 20
4.577413
 30
0.0
 10
3.391596
 20
4.563107
 30
0.0
 10
3.416632
 20
4.527341
 30
0.0
 10
3.470281
 20
4.495152
 30
0.0
 10
3.541813
 20
4.484422
 30
0.0
 10
3.609768
 20
4.502305
 30
0.0
 10
3.659840
 20
4.541647
 30
0.0
 10
3.681300
 20
4.577413
 30
0.0
 10
3.681300
 20
4.591720
 30
0.0
 10
3.684876
 20
4.606026
 30
0.0
 10
3.702759
 20
4.641792
 30
0.0
 10
3.749255
 20
4.681134
 30
0.0
 10
3.813633
 20
4.702594
 30
0.0
 10
3.885165
 20
4.702594
 30
0.0
 10
3.938814
 20
4.677558
 30
0.0
 10
3.967427
 20
4.648945
 30
0.0
 10
3.974580
 20
4.638215
 30
0.0
 10
3.981733
 20
4.623909
 30
0.0
 10
4.010346
 20
4.595296
 30
0.0
 10
4.071147
 20
4.577413
 30
0.0
 10
4.142679
 20
4.580990
 30
0.0
 10
4.207058
 20
4.613179
 30
0.0
 10
4.246400
 20
4.659675
 30
0.0
 10
4.260707
 20
4.699017
 30
0.0
 10
4.257130
 20
4.713324
 30
0.0
 10
4.257130
 20
4.727630
 30
0.0
 10
4.267860
 20
4.766972
 30
0.0
 10
4.303626
 20
4.813468
 30
0.0
 10
4.364428
 20
4.849234
 30
0.0
 10
4.432383
 20
4.863540
 30
0.0
 10
4.493185
 20
4.852810
 30
0.0
 10
4.525374
 20
4.831351
 30
0.0
 10
4.532527
 20
4.820621
 30
0.0
 10
4.543257
 20
4.806315
 30
0.0
 10
4.579023
 20
4.788432
 30
0.0
 10
4.639825
 20
4.781279
 30
0.0
 10
4.711356
 20
4.799161
 30
0.0
 10
4.765005
 20
4.845657
 30
0.0
 10
4.797194
 20
4.899306
 30
0.0
 10
4.800771
 20
4.938648
 30
0.0
 10
4.797194
 20
4.952955
 30
0.0
 10
4.793618
 20
4.967261
 30
0.0
 10
4.797194
 20
5.006604
 30
0.0
 10
4.822231
 20
5.060252
 30
0.0
 10
4.872303
 20
5.110324
 30
0.0
 10
4.936681
 20
5.135361
 30
0.0
 10
4.997483
 20
5.135361
 30
0.0
 10
5.033249
 20
5.121054
 30
0.0
 10
5.043979
 20
5.113901
 30
0.0
 10
5.054709
 20
5.103171
 30
0.0
 10
5.094051
 20
5.092442
 30
0.0
 10
5.154853
 20
5.096018
 30
0.0
 10
5.219232
 20
5.131784
 30
0.0
 10
5.265727
 20
5.185433
 30
0.0
 10
5.283610
 20
5.246235
 30
0.0
 10
5.280033
 20
5.285577
 30
0.0
 10
5.272880
 20
5.299884
 30
0.0
 10
5.265727
 20
5.310613
 30
0.0
 10
5.262150
 20
5.349956
 30
0.0
 10
5.272880
 20
5.407181
 30
0.0
 10
5.312223
 20
5.467983
 30
0.0
 10
5.373025
 20
5.507326
 30
0.0
 10
5.430250
 20
5.518055
 30
0.0
 10
5.469593
 20
5.514479
 30
0.0
 10
5.480322
 20
5.507326
 30
0.0
 10
5.494629
 20
5.500172
 30
0.0
 10
5.533971
 20
5.496596
 30
0.0
 10
5.594773
 20
5.514479
 30
0.0
 10
5.651998
 20
5.560974
 30
0.0
 10
5.684188
 20
5.625353
 30
0.0
 10
5.687764
 20
5.686155
 30
0.0
 10
5.677035
 20
5.725497
 30
0.0
 10
5.666305
 20
5.736227
 30
0.0
 10
5.659152
 20
5.746957
 30
0.0
 10
5.644845
 20
5.786299
 30
0.0
 10
5.644845
 20
5.843525
 30
0.0
 10
5.673458
 20
5.907903
 30
0.0
 10
5.719954
 20
5.961552
 30
0.0
 10
5.773602
 20
5.986588
 30
0.0
 10
5.812945
 20
5.986588
 30
0.0
 10
5.827251
 20
5.983011
 30
0.0
 10
5.841557
 20
5.979435
 30
0.0
 10
5.880900
 20
5.983011
 30
0.0
 10
5.938125
 20
6.015201
 30
0.0
 10
5.981044
 20
6.072426
 30
0.0
 10
6.002504
 20
6.140381
 30
0.0
 10
5.991774
 20
6.201183
 30
0.0
 10
5.973891
 20
6.236949
 30
0.0
 10
5.963161
 20
6.247679
 30
0.0
 10
5.948855
 20
6.254832
 30
0.0
 10
5.927396
 20
6.290598
 30
0.0
 10
5.916666
 20
6.347823
 30
0.0
 10
5.930972
 20
6.415778
 30
0.0
  0
LWPOLYLINE
  5
18d
100
AcDbEntity
  8
Layer1
 62
1
100
AcDbPolyline
 90
5
 70
0
 10
6.013234
 20
6.512346
 30
0.0
 10
6.052576
 20
6.523076
 30
0.0
 10
6.066882
 20
6.523076
 30
0.0
 10
6.081189
 20
6.519499
 30
0.0
 10
6.120531
 20
6.533806
 30
0.0
  0
LWPOLYLINE
  5
18e
100
AcDbEntity
  8
Layer1
 62
1
100
AcDbPolyline
 90
3
 70
0
 10
0.641202
 20
8.236260
 30
0.0
 10
0.619742
 20
8.236260
 30
0.0
 10
0.623319
 20
8.221954
 30
0.0
  0
LWPOLYLINE
  5
18f
100
AcDbEntity
  8
Layer1
 62
1
100
AcDbPolyline
 90
5
 70
0
 10
6.978912
 20
1.097395
 30
0.0
 10
6.853731
 20
0.972214
 30
0.0
 10
6.850155
 20
0.972214
 30
0.0
 10
6.850155
 20
0.914990
 30
0.0
 10
7.189930
 20
0.914990
 30
0.0
  0
LWPOLYLINE
  5
190
100
AcDbEntity
  8
Layer1
 62
1
100
AcDbPolyline
 90
3
 70
0
 10
7.189930
 20
2.152488
 30
0.0
 10
6.850155
 20
2.152488
 30
0.0
 10
6.850155
 20
1.927163
 30
0.0
  0
LWPOLYLINE
  5
191
100
AcDbEntity
  8
Layer1
 62
1
100
AcDbPolyline
 90
3
 70
0
 10
7.812256
 20
1.927163
 30
0.0
 10
7.812256
 20
2.152488
 30
0.0
 10
7.472481
 20
2.152488
 30
0.0
  0
LWPOLYLINE
  5
192
100
AcDbEntity
  8
Layer1
 62
1
100
AcDbPolyline
 90
4
 70
0
 10
7.472481
 20
0.914990
 30
0.0
 10
7.812256
 20
0.914990
 30
0.0
 10
7.812256
 20
0.972214
 30
0.0
 10
7.808680
 20
0.972214
 30
0.0
  0
LWPOLYLINE
  5
193
100
AcDbEntity
  8
Layer1
 62
1
100
AcDbPolyline
 90
3
 70
0
 10
8.177068
 20
0.914990
 30
0.0
 10
9.875946
 20
0.914990
 30
0.0
 10
10.222875
 20
1.261918
 30
0.0
  0
LWPOLYLINE
  5
194
100
AcDbEntity
  8
Layer1
 62
1
100
AcDbPolyline
 90
2
 70
0
 10
1.066815
 20
0.914990
 30
0.0
 10
6.485343
 20
0.914990
 30
0.0
  0
LWPOLYLINE
  5
195
100
AcDbEntity
  8
Layer1
 62
1
100
AcDbPolyline
 90
2
 70
0
 10
7.189930
 20
2.152488
 30
0.0
 10
7.472481
 20
2.152488
 30
0.0
  0
LWPOLYLINE
  5
196
100
AcDbEntity
  8
Layer1
 62
1
100
AcDbPolyline
 90
2
 70
0
 10
8.177068
 20
0.914990
 30
0.0
 10
6.485343
 20
0.914990
 30
0.0
  0
SPLINE
  5
197
100
AcDbEntity
  8
Layer1
 62
7
100
AcDbSpline
 70
8
 71
3
 72
8
 73
4
 74
0
 40
0
 40
0
 40
0
 40
0
 40
1
 40
1
 40
1
 40
1
 10
5.502840
 20
1.760852
 30
0.0
 10
5.502879
 20
1.811989
 30
0.0
 10
5.475619
 20
1.859258
 30
0.0
 10
5.431340
 20
1.884838
 30
0.0
  0
SPLINE
  5
198
100
AcDbEntity
  8
Layer1
 62
7
100
AcDbSpline
 70
8
 71
3
 72
8
 73
4
 74
0
 40
0
 40
0
 40
0
 40
0
 40
1
 40
1
 40
1
 40
1
 10
5.431340
 20
1.884838
 30
0.0
 10
5.387060
 20
1.910418
 30
0.0
 10
5.332494
 20
1.910418
 30
0.0
 10
5.288214
 20
1.884838
 30
0.0
  0
SPLINE
  5
199
100
AcDbEntity
  8
Layer1
 62
7
100
AcDbSpline
 70
8
 71
3
 72
8
 73
4
 74
0
 40
0
 40
0
 40
0
 40
0
 40
1
 40
1
 40
1
 40
1
 10
5.288214
 20
1.884838
 30
0.0
 10
5.243934
 20
1.859258
 30
0.0
 10
5.216675
 20
1.811989
 30
0.0
 10
5.216713
 20
1.760852
 30
0.0
  0
SPLINE
  5
19a
100
AcDbEntity
  8
Layer1
 62
7
100
AcDbSpline
 70
8
 71
3
 72
8
 73
4
 74
0
 40
0
 40
0
 40
0
 40
0
 40
1
 40
1
 40
1
 40
1
 10
5.216713
 20
1.760852
 30
0.0
 10
5.216675
 20
1.709715
 30
0.0
 10
5.243934
 20
1.662445
 30
0.0
 10
5.288214
 20
1.636866
 30
0.0
  0
SPLINE
  5
19b
100
AcDbEntity
  8
Layer1
 62
7
100
AcDbSpline
 70
8
 71
3
 72
8
 73
4
 74
0
 40
0
 40
0
 40
0
 40
0
 40
1
 40
1
 40
1
 40
1
 10
5.288214
 20
1.636866
 30
0.0
 10
5.332494
 20
1.611286
 30
0.0
 10
5.387060
 20
1.611286
 30
0.0
 10
5.431340
 20
1.636866
 30
0.0
  0
SPLINE
  5
19c
100
AcDbEntity
  8
Layer1
 62
7
100
AcDbSpline
 70
8
 71
3
 72
8
 73
4
 74
0
 40
0
 40
0
 40
0
 40
0
 40
1
 40
1
 40
1
 40
1
 10
5.431340
 20
1.636866
 30
0.0
 10
5.475619
 20
1.662445
 30
0.0
 10
5.502879
 20
1.709715
 30
0.0
 10
5.502840
 20
1.760852
 30
0.0
  0
LWPOLYLINE
  5
19d
100
AcDbEntity
  8
Layer1
 62
1
100
AcDbPolyline
 90
2
 70
0
 10
6.202793
 20
6.687599
 30
0.0
 10
9.344830
 20
6.687599
 30
0.0
  0
SPLINE
  5
19e
100
AcDbEntity
  8
Layer1
 62
7
100
AcDbSpline
 70
8
 71
3
 72
8
 73
4
 74
0
 40
0
 40
0
 40
0
 40
0
 40
1
 40
1
 40
1
 40
1
 10
5.500003
 20
7.390403
 30
0.0
 10
5.500003
 20
7.441515
 30
0.0
 10
5.472735
 20
7.488744
 30
0.0
 10
5.428471
 20
7.514300
 30
0.0
  0
SPLINE
  5
19f
100
AcDbEntity
  8
Layer1
 62
7
100
AcDbSpline
 70
8
 71
3
 72
8
 73
4
 74
0
 40
0
 40
0
 40
0
 40
0
 40
1
 40
1
 40
1
 40
1
 10
5.428471
 20
7.514300
 30
0.0
 10
5.384207
 20
7.539855
 30
0.0
 10
5.329672
 20
7.539855
 30
0.0
 10
5.285408
 20
7.514300
 30
0.0
  0
SPLINE
  5
1a0
100
AcDbEntity
  8
Layer1
 62
7
100
AcDbSpline
 70
8
 71
3
 72
8
 73
4
 74
0
 40
0
 40
0
 40
0
 40
0
 40
1
 40
1
 40
1
 40
1
 10
5.285408
 20
7.514300
 30
0.0
 10
5.241144
 20
7.488744
 30
0.0
 10
5.213876
 20
7.441515
 30
0.0
 10
5.213876
 20
7.390403
 30
0.0
  0
SPLINE
  5
1a1
100
AcDbEntity
  8
Layer1
 62
7
100
AcDbSpline
 70
8
 71
3
 72
8
 73
4
 74
0
 40
0
 40
0
 40
0
 40
0
 40
1
 40
1
 40
1
 40
1
 10
5.213876
 20
7.390403
 30
0.0
 10
5.213876
 20
7.339291
 30
0.0
 10
5.241144
 20
7.292062
 30
0.0
 10
5.285408
 20
7.266506
 30
0.0
  0
SPLINE
  5
1a2
100
AcDbEntity
  8
Layer1
 62
7
100
AcDbSpline
 70
8
 71
3
 72
8
 73
4
 74
0
 40
0
 40
0
 40
0
 40
0
 40
1
 40
1
 40
1
 40
1
 10
5.285408
 20
7.266506
 30
0.0
 10
5.329672
 20
7.240951
 30
0.0
 10
5.384207
 20
7.240951
 30
0.0
 10
5.428471
 20
7.266506
 30
0.0
  0
SPLINE
  5
1a3
100
AcDbEntity
  8
Layer1
 62
7
100
AcDbSpline
 70
8
 71
3
 72
8
 73
4
 74
0
 40
0
 40
0
 40
0
 40
0
 40
1
 40
1
 40
1
 40
1
 10
5.428471
 20
7.266506
 30
0.0
 10
5.472735
 20
7.292062
 30
0.0
 10
5.500003
 20
7.339291
 30
0.0
 10
5.500003
 20
7.390403
 30
0.0
  0
LWPOLYLINE
  5
1a4
100
AcDbEntity
  8
Layer1
 62
7
100
AcDbPolyline
 90
2
 70
0
 10
5.502840
 20
1.760852
 30
0.0
 10
5.502840
 20
1.760852
 30
0.0
  0
SPLINE
  5
1a5
100
AcDbEntity
  8
Layer1
 62
7
100
AcDbSpline
 70
8
 71
3
 72
8
 73
4
 74
0
 40
0
 40
0
 40
0
 40
0
 40
1
 40
1
 40
1
 40
1
 10
1.558605
 20
7.390403
 30
0.0
 10
1.558605
 20
7.441515
 30
0.0
 10
1.531337
 20
7.488744
 30
0.0
 10
1.487073
 20
7.514300
 30
0.0
  0
SPLINE
  5
1a6
100
AcDbEntity
  8
Layer1
 62
7
100
AcDbSpline
 70
8
 71
3
 72
8
 73
4
 74
0
 40
0
 40
0
 40
0
 40
0
 40
1
 40
1
 40
1
 40
1
 10
1.487073
 20
7.514300
 30
0.0
 10
1.442809
 20
7.539855
 30
0.0
 10
1.388274
 20
7.539855
 30
0.0
 10
1.344010
 20
7.514300
 30
0.0
  0
SPLINE
  5
1a7
100
AcDbEntity
  8
Layer1
 62
7
100
AcDbSpline
 70
8
 71
3
 72
8
 73
4
 74
0
 40
0
 40
0
 40
0
 40
0
 40
1
 40
1
 40
1
 40
1
 10
1.344010
 20
7.514300
 30
0.0
 10
1.299746
 20
7.488744
 30
0.0
 10
1.272478
 20
7.441515
 30
0.0
 10
1.272478
 20
7.390403
 30
0.0
  0
SPLINE
  5
1a8
100
AcDbEntity
  8
Layer1
 62
7
100
AcDbSpline
 70
8
 71
3
 72
8
 73
4
 74
0
 40
0
 40
0
 40
0
 40
0
 40
1
 40
1
 40
1
 40
1
 10
1.272478
 20
7.390403
 30
0.0
 10
1.272478
 20
7.339291
 30
0.0
 10
1.299746
 20
7.292062
 30
0.0
 10
1.344010
 20
7.266506
 30
0.0
  0
SPLINE
  5
1a9
100
AcDbEntity
  8
Layer1
 62
7
100
AcDbSpline
 70
8
 71
3
 72
8
 73
4
 74
0
 40
0
 40
0
 40
0
 40
0
 40
1
 40
1
 40
1
 40
1
 10
1.344010
 20
7.266506
 30
0.0
 10
1.388274
 20
7.240951
 30
0.0
 10
1.442809
 20
7.240951
 30
0.0
 10
1.487073
 20
7.266506
 30
0.0
  0
SPLINE
  5
1aa
100
AcDbEntity
  8
Layer1
 62
7
100
AcDbSpline
 70
8
 71
3
 72
8
 73
4
 74
0
 40
0
 40
0
 40
0
 40
0
 40
1
 40
1
 40
1
 40
1
 10
1.487073
 20
7.266506
 30
0.0
 10
1.531337
 20
7.292062
 30
0.0
 10
1.558605
 20
7.339291
 30
0.0
 10
1.558605
 20
7.390403
 30
0.0
  0
LWPOLYLINE
  5
1ab
100
AcDbEntity
  8
Layer1
 62
7
100
AcDbPolyline
 90
2
 70
0
 10
5.500003
 20
7.390403
 30
0.0
 10
5.500003
 20
7.390403
 30
0.0
  0
SPLINE
  5
1ac
100
AcDbEntity
  8
Layer1
 62
7
100
AcDbSpline
 70
8
 71
3
 72
8
 73
4
 74
0
 40
0
 40
0
 40
0
 40
0
 40
1
 40
1
 40
1
 40
1
 10
1.557855
 20
1.760852
 30
0.0
 10
1.557855
 20
1.811964
 30
0.0
 10
1.530587
 20
1.859193
 30
0.0
 10
1.486323
 20
1.884748
 30
0.0
  0
SPLINE
  5
1ad
100
AcDbEntity
  8
Layer1
 62
7
100
AcDbSpline
 70
8
 71
3
 72
8
 73
4
 74
0
 40
0
 40
0
 40
0
 40
0
 40
1
 40
1
 40
1
 40
1
 10
1.486323
 20
1.884748
 30
0.0
 10
1.442059
 20
1.910304
 30
0.0
 10
1.387523
 20
1.910304
 30
0.0
 10
1.343260
 20
1.884748
 30
0.0
  0
SPLINE
  5
1ae
100
AcDbEntity
  8
Layer1
 62
7
100
AcDbSpline
 70
8
 71
3
 72
8
 73
4
 74
0
 40
0
 40
0
 40
0
 40
0
 40
1
 40
1
 40
1
 40
1
 10
1.343260
 20
1.884748
 30
0.0
 10
1.298996
 20
1.859193
 30
0.0
 10
1.271728
 20
1.811964
 30
0.0
 10
1.271728
 20
1.760852
 30
0.0
  0
SPLINE
  5
1af
100
AcDbEntity
  8
Layer1
 62
7
100
AcDbSpline
 70
8
 71
3
 72
8
 73
4
 74
0
 40
0
 40
0
 40
0
 40
0
 40
1
 40
1
 40
1
 40
1
 10
1.271728
 20
1.760852
 30
0.0
 10
1.271728
 20
1.709740
 30
0.0
 10
1.298996
 20
1.662511
 30
0.0
 10
1.343260
 20
1.636955
 30
0.0
  0
SPLINE
  5
1b0
100
AcDbEntity
  8
Layer1
 62
7
100
AcDbSpline
 70
8
 71
3
 72
8
 73
4
 74
0
 40
0
 40
0
 40
0
 40
0
 40
1
 40
1
 40
1
 40
1
 10
1.343260
 20
1.636955
 30
0.0
 10
1.387523
 20
1.611400
 30
0.0
 10
1.442059
 20
1.611400
 30
0.0
 10
1.486323
 20
1.636955
 30
0.0
  0
SPLINE
  5
1b1
100
AcDbEntity
  8
Layer1
 62
7
100
AcDbSpline
 70
8
 71
3
 72
8
 73
4
 74
0
 40
0
 40
0
 40
0
 40
0
 40
1
 40
1
 40
1
 40
1
 10
1.486323
 20
1.636955
 30
0.0
 10
1.530587
 20
1.662511
 30
0.0
 10
1.557855
 20
1.709740
 30
0.0
 10
1.557855
 20
1.760852
 30
0.0
  0
LWPOLYLINE
  5
1b2
100
AcDbEntity
  8
Layer1
 62
7
100
AcDbPolyline
 90
2
 70
0
 10
1.558605
 20
7.390403
 30
0.0
 10
1.558605
 20
7.390403
 30
0.0
  0
LWPOLYLINE
  5
1b3
100
AcDbEntity
  8
Layer1
 62
7
100
AcDbPolyline
 90
2
 70
0
 10
1.557855
 20
1.760852
 30
0.0
 10
1.557855
 20
1.760852
 30
0.0
  0
SPLINE
  5
1b4
100
AcDbEntity
  8
Layer1
 62
7
100
AcDbSpline
 70
8
 71
3
 72
8
 73
4
 74
0
 40
0
 40
0
 40
0
 40
0
 40
1
 40
1
 40
1
 40
1
 10
5.643066
 20
7.390544
 30
0.0
 10
5.643014
 20
7.497568
 30
0.0
 10
5.583237
 20
7.595616
 30
0.0
 10
5.488124
 20
7.644684
 30
0.0
  0
SPLINE
  5
1b5
100
AcDbEntity
  8
Layer1
 62
7
100
AcDbSpline
 70
8
 71
3
 72
8
 73
4
 74
0
 40
0
 40
0
 40
0
 40
0
 40
1
 40
1
 40
1
 40
1
 10
5.488124
 20
7.644684
 30
0.0
 10
5.393011
 20
7.693753
 30
0.0
 10
5.278465
 20
7.685639
 30
0.0
 10
5.191219
 20
7.623652
 30
0.0
  0
SPLINE
  5
1b6
100
AcDbEntity
  8
Layer1
 62
7
100
AcDbSpline
 70
8
 71
3
 72
8
 73
4
 74
0
 40
0
 40
0
 40
0
 40
0
 40
1
 40
1
 40
1
 40
1
 10
5.191219
 20
7.623652
 30
0.0
 10
5.103973
 20
7.561665
 30
0.0
 10
5.058615
 20
7.456170
 30
0.0
 10
5.073650
 20
7.350207
 30
0.0
  0
LWPOLYLINE
  5
1b7
100
AcDbEntity
  8
Layer1
 62
7
100
AcDbPolyline
 90
2
 70
0
 10
5.359777
 20
1.474725
 30
0.0
 10
6.978912
 20
1.474725
 30
0.0
  0
LWPOLYLINE
  5
1b8
100
AcDbEntity
  8
Layer1
 62
7
100
AcDbPolyline
 90
2
 70
0
 10
5.073650
 20
1.760852
 30
0.0
 10
5.073650
 20
7.350207
 30
0.0
  0
LWPOLYLINE
  5
1b9
100
AcDbEntity
  8
Layer1
 62
7
100
AcDbPolyline
 90
2
 70
0
 10
5.500018
 20
1.188598
 30
0.0
 10
2.970173
 20
1.188598
 30
0.0
  0
SPLINE
  5
1ba
100
AcDbEntity
  8
Layer1
 62
7
100
AcDbSpline
 70
8
 71
3
 72
8
 73
4
 74
0
 40
0
 40
0
 40
0
 40
0
 40
1
 40
1
 40
1
 40
1
 10
5.500018
 20
1.188598
 30
0.0
 10
5.575952
 20
1.188598
 30
0.0
 10
5.648772
 20
1.218782
 30
0.0
 10
5.702440
 20
1.272502
 30
0.0
  0
SPLINE
  5
1bb
100
AcDbEntity
  8
Layer1
 62
7
100
AcDbSpline
 70
8
 71
3
 72
8
 73
4
 74
0
 40
0
 40
0
 40
0
 40
0
 40
1
 40
1
 40
1
 40
1
 10
5.702440
 20
1.272502
 30
0.0
 10
5.756107
 20
1.326222
 30
0.0
 10
5.786219
 20
1.399072
 30
0.0
 10
5.786145
 20
1.475006
 30
0.0
  0
SPLINE
  5
1bc
100
AcDbEntity
  8
Layer1
 62
7
100
AcDbSpline
 70
8
 71
3
 72
8
 73
4
 74
0
 40
0
 40
0
 40
0
 40
0
 40
1
 40
1
 40
1
 40
1
 10
5.073650
 20
1.760852
 30
0.0
 10
5.073650
 20
1.684966
 30
0.0
 10
5.103795
 20
1.612189
 30
0.0
 10
5.157455
 20
1.558530
 30
0.0
  0
SPLINE
  5
1bd
100
AcDbEntity
  8
Layer1
 62
7
100
AcDbSpline
 70
8
 71
3
 72
8
 73
4
 74
0
 40
0
 40
0
 40
0
 40
0
 40
1
 40
1
 40
1
 40
1
 10
5.157455
 20
1.558530
 30
0.0
 10
5.211114
 20
1.504870
 30
0.0
 10
5.283891
 20
1.474725
 30
0.0
 10
5.359777
 20
1.474725
 30
0.0
  0
SPLINE
  5
1be
100
AcDbEntity
  8
Layer1
 62
7
100
AcDbSpline
 70
8
 71
3
 72
8
 73
4
 74
0
 40
0
 40
0
 40
0
 40
0
 40
1
 40
1
 40
1
 40
1
 10
1.132252
 20
1.760852
 30
0.0
 10
1.132252
 20
1.684966
 30
0.0
 10
1.162398
 20
1.612189
 30
0.0
 10
1.216057
 20
1.558530
 30
0.0
  0
SPLINE
  5
1bf
100
AcDbEntity
  8
Layer1
 62
7
100
AcDbSpline
 70
8
 71
3
 72
8
 73
4
 74
0
 40
0
 40
0
 40
0
 40
0
 40
1
 40
1
 40
1
 40
1
 10
1.216057
 20
1.558530
 30
0.0
 10
1.269716
 20
1.504870
 30
0.0
 10
1.342494
 20
1.474725
 30
0.0
 10
1.418379
 20
1.474725
 30
0.0
  0
LWPOLYLINE
  5
1c0
100
AcDbEntity
  8
Layer1
 62
7
100
AcDbPolyline
 90
2
 70
0
 10
5.643066
 20
7.390547
 30
0.0
 10
5.649224
 20
1.616460
 30
0.0
  0
SPLINE
  5
1c1
100
AcDbEntity
  8
Layer1
 62
7
100
AcDbSpline
 70
8
 71
3
 72
8
 73
4
 74
0
 40
0
 40
0
 40
0
 40
0
 40
1
 40
1
 40
1
 40
1
 10
1.701669
 20
7.390544
 30
0.0
 10
1.701616
 20
7.497568
 30
0.0
 10
1.641839
 20
7.595616
 30
0.0
 10
1.546726
 20
7.644685
 30
0.0
  0
SPLINE
  5
1c2
100
AcDbEntity
  8
Layer1
 62
7
100
AcDbSpline
 70
8
 71
3
 72
8
 73
4
 74
0
 40
0
 40
0
 40
0
 40
0
 40
1
 40
1
 40
1
 40
1
 10
1.546726
 20
7.644685
 30
0.0
 10
1.451613
 20
7.693754
 30
0.0
 10
1.337067
 20
7.685640
 30
0.0
 10
1.249821
 20
7.623653
 30
0.0
  0
SPLINE
  5
1c3
100
AcDbEntity
  8
Layer1
 62
7
100
AcDbSpline
 70
8
 71
3
 72
8
 73
4
 74
0
 40
0
 40
0
 40
0
 40
0
 40
1
 40
1
 40
1
 40
1
 10
1.249821
 20
7.623653
 30
0.0
 10
1.162575
 20
7.561665
 30
0.0
 10
1.117217
 20
7.456170
 30
0.0
 10
1.132252
 20
7.350207
 30
0.0
  0
LWPOLYLINE
  5
1c4
100
AcDbEntity
  8
Layer1
 62
7
100
AcDbPolyline
 90
2
 70
0
 10
1.418379
 20
1.474725
 30
0.0
 10
3.710380
 20
1.474725
 30
0.0
  0
LWPOLYLINE
  5
1c5
100
AcDbEntity
  8
Layer1
 62
7
100
AcDbPolyline
 90
2
 70
0
 10
1.132252
 20
1.760852
 30
0.0
 10
1.132252
 20
7.350207
 30
0.0
  0
SPLINE
  5
1c6
100
AcDbEntity
  8
Layer1
 62
7
100
AcDbSpline
 70
8
 71
3
 72
8
 73
4
 74
0
 40
0
 40
0
 40
0
 40
0
 40
1
 40
1
 40
1
 40
1
 10
1.418379
 20
1.331662
 30
0.0
 10
1.494314
 20
1.331662
 30
0.0
 10
1.567134
 20
1.361846
 30
0.0
 10
1.620801
 20
1.415566
 30
0.0
  0
SPLINE
  5
1c7
100
AcDbEntity
  8
Layer1
 62
7
100
AcDbSpline
 70
8
 71
3
 72
8
 73
4
 74
0
 40
0
 40
0
 40
0
 40
0
 40
1
 40
1
 40
1
 40
1
 10
1.620801
 20
1.415566
 30
0.0
 10
1.674468
 20
1.469286
 30
0.0
 10
1.704581
 20
1.542135
 30
0.0
 10
1.704506
 20
1.618070
 30
0.0
  0
LWPOLYLINE
  5
1c8
100
AcDbEntity
  8
Layer1
 62
7
100
AcDbPolyline
 90
2
 70
0
 10
1.701669
 20
7.390547
 30
0.0
 10
1.704506
 20
1.617788
 30
0.0
  0
LWPOLYLINE
  5
1c9
100
AcDbEntity
  8
Layer1
 62
7
100
AcDbPolyline
 90
2
 70
0
 10
5.787240
 20
1.045535
 30
0.0
 10
4.419317
 20
1.045535
 30
0.0
  0
LWPOLYLINE
  5
1ca
100
AcDbEntity
  8
Layer1
 62
7
100
AcDbPolyline
 90
2
 70
0
 10
1.200196
 20
0.641381
 30
0.0
 10
3.387284
 20
0.641381
 30
0.0
  0
LWPOLYLINE
  5
1cb
100
AcDbEntity
  8
Layer1
 62
7
100
AcDbPolyline
 90
2
 70
0
 10
1.200196
 20
0.498317
 30
0.0
 10
3.387284
 20
0.498317
 30
0.0
  0
SPLINE
  5
1cc
100
AcDbEntity
  8
Layer1
 62
7
100
AcDbSpline
 70
8
 71
3
 72
8
 73
4
 74
0
 40
0
 40
0
 40
0
 40
0
 40
1
 40
1
 40
1
 40
1
 10
7.683499
 20
1.260130
 30
0.0
 10
7.696277
 20
1.260130
 30
0.0
 10
7.708084
 20
1.266947
 30
0.0
 10
7.714473
 20
1.278013
 30
0.0
  0
SPLINE
  5
1cd
100
AcDbEntity
  8
Layer1
 62
7
100
AcDbSpline
 70
8
 71
3
 72
8
 73
4
 74
0
 40
0
 40
0
 40
0
 40
0
 40
1
 40
1
 40
1
 40
1
 10
7.714473
 20
1.278013
 30
0.0
 10
7.720862
 20
1.289079
 30
0.0
 10
7.720862
 20
1.302713
 30
0.0
 10
7.714473
 20
1.313779
 30
0.0
  0
SPLINE
  5
1ce
100
AcDbEntity
  8
Layer1
 62
7
100
AcDbSpline
 70
8
 71
3
 72
8
 73
4
 74
0
 40
0
 40
0
 40
0
 40
0
 40
1
 40
1
 40
1
 40
1
 10
7.714473
 20
1.313779
 30
0.0
 10
7.708084
 20
1.324845
 30
0.0
 10
7.696277
 20
1.331662
 30
0.0
 10
7.683499
 20
1.331662
 30
0.0
  0
LWPOLYLINE
  5
1cf
100
AcDbEntity
  8
Layer1
 62
7
100
AcDbPolyline
 90
2
 70
0
 10
6.357705
 20
1.331662
 30
0.0
 10
6.978912
 20
1.331662
 30
0.0
  0
SPLINE
  5
1d0
100
AcDbEntity
  8
Layer1
 62
7
100
AcDbSpline
 70
8
 71
3
 72
8
 73
4
 74
0
 40
0
 40
0
 40
0
 40
0
 40
1
 40
1
 40
1
 40
1
 10
6.978912
 20
1.260130
 30
0.0
 10
6.966134
 20
1.260130
 30
0.0
 10
6.954327
 20
1.253313
 30
0.0
 10
6.947938
 20
1.242247
 30
0.0
  0
SPLINE
  5
1d1
100
AcDbEntity
  8
Layer1
 62
7
100
AcDbSpline
 70
8
 71
3
 72
8
 73
4
 74
0
 40
0
 40
0
 40
0
 40
0
 40
1
 40
1
 40
1
 40
1
 10
6.947938
 20
1.242247
 30
0.0
 10
6.941549
 20
1.231181
 30
0.0
 10
6.941549
 20
1.217547
 30
0.0
 10
6.947938
 20
1.206481
 30
0.0
  0
SPLINE
  5
1d2
100
AcDbEntity
  8
Layer1
 62
7
100
AcDbSpline
 70
8
 71
3
 72
8
 73
4
 74
0
 40
0
 40
0
 40
0
 40
0
 40
1
 40
1
 40
1
 40
1
 10
6.947938
 20
1.206481
 30
0.0
 10
6.954327
 20
1.195415
 30
0.0
 10
6.966134
 20
1.188598
 30
0.0
 10
6.978912
 20
1.188598
 30
0.0
  0
LWPOLYLINE
  5
1d3
100
AcDbEntity
  8
Layer1
 62
7
100
AcDbPolyline
 90
2
 70
0
 10
7.683499
 20
1.260130
 30
0.0
 10
6.978912
 20
1.260130
 30
0.0
  0
SPLINE
  5
1d4
100
AcDbEntity
  8
Layer1
 62
7
100
AcDbSpline
 70
8
 71
3
 72
8
 73
4
 74
0
 40
0
 40
0
 40
0
 40
0
 40
1
 40
1
 40
1
 40
1
 10
7.683499
 20
1.117066
 30
0.0
 10
7.696277
 20
1.117066
 30
0.0
 10
7.708084
 20
1.123883
 30
0.0
 10
7.714473
 20
1.134949
 30
0.0
  0
SPLINE
  5
1d5
100
AcDbEntity
  8
Layer1
 62
7
100
AcDbSpline
 70
8
 71
3
 72
8
 73
4
 74
0
 40
0
 40
0
 40
0
 40
0
 40
1
 40
1
 40
1
 40
1
 10
7.714473
 20
1.134949
 30
0.0
 10
7.720862
 20
1.146015
 30
0.0
 10
7.720862
 20
1.159649
 30
0.0
 10
7.714473
 20
1.170715
 30
0.0
  0
SPLINE
  5
1d6
100
AcDbEntity
  8
Layer1
 62
7
100
AcDbSpline
 70
8
 71
3
 72
8
 73
4
 74
0
 40
0
 40
0
 40
0
 40
0
 40
1
 40
1
 40
1
 40
1
 10
7.714473
 20
1.170715
 30
0.0
 10
7.708084
 20
1.181781
 30
0.0
 10
7.696277
 20
1.188598
 30
0.0
 10
7.683499
 20
1.188598
 30
0.0
  0
LWPOLYLINE
  5
1d7
100
AcDbEntity
  8
Layer1
 62
7
100
AcDbPolyline
 90
2
 70
0
 10
6.978912
 20
1.188598
 30
0.0
 10
7.683499
 20
1.188598
 30
0.0
  0
SPLINE
  5
1d8
100
AcDbEntity
  8
Layer1
 62
7
100
AcDbSpline
 70
8
 71
3
 72
8
 73
4
 74
0
 40
0
 40
0
 40
0
 40
0
 40
1
 40
1
 40
1
 40
1
 10
6.978912
 20
1.117066
 30
0.0
 10
6.959159
 20
1.117066
 30
0.0
 10
6.943146
 20
1.101053
 30
0.0
 10
6.943146
 20
1.081301
 30
0.0
  0
LWPOLYLINE
  5
1d9
100
AcDbEntity
  8
Layer1
 62
7
100
AcDbPolyline
 90
2
 70
0
 10
7.683499
 20
1.117066
 30
0.0
 10
6.978912
 20
1.117066
 30
0.0
  0
LWPOLYLINE
  5
1da
100
AcDbEntity
  8
Layer1
 62
7
100
AcDbPolyline
 90
2
 70
0
 10
6.943146
 20
1.081301
 30
0.0
 10
6.943146
 20
0.914990
 30
0.0
  0
LWPOLYLINE
  5
1db
100
AcDbEntity
  8
Layer1
 62
7
100
AcDbPolyline
 90
2
 70
0
 10
7.229273
 20
0.914990
 30
0.0
 10
7.229273
 20
2.152488
 30
0.0
  0
LWPOLYLINE
  5
1dc
100
AcDbEntity
  8
Layer1
 62
7
100
AcDbPolyline
 90
2
 70
0
 10
6.978912
 20
1.474725
 30
0.0
 10
7.683499
 20
1.474725
 30
0.0
  0
SPLINE
  5
1dd
100
AcDbEntity
  8
Layer1
 62
7
100
AcDbSpline
 70
8
 71
3
 72
8
 73
4
 74
0
 40
0
 40
0
 40
0
 40
0
 40
1
 40
1
 40
1
 40
1
 10
7.683499
 20
1.617788
 30
0.0
 10
7.696277
 20
1.617788
 30
0.0
 10
7.708084
 20
1.624605
 30
0.0
 10
7.714473
 20
1.635671
 30
0.0
  0
SPLINE
  5
1de
100
AcDbEntity
  8
Layer1
 62
7
100
AcDbSpline
 70
8
 71
3
 72
8
 73
4
 74
0
 40
0
 40
0
 40
0
 40
0
 40
1
 40
1
 40
1
 40
1
 10
7.714473
 20
1.635671
 30
0.0
 10
7.720862
 20
1.646737
 30
0.0
 10
7.720862
 20
1.660371
 30
0.0
 10
7.714473
 20
1.671437
 30
0.0
  0
SPLINE
  5
1df
100
AcDbEntity
  8
Layer1
 62
7
100
AcDbSpline
 70
8
 71
3
 72
8
 73
4
 74
0
 40
0
 40
0
 40
0
 40
0
 40
1
 40
1
 40
1
 40
1
 10
7.714473
 20
1.671437
 30
0.0
 10
7.708084
 20
1.682503
 30
0.0
 10
7.696277
 20
1.689320
 30
0.0
 10
7.683499
 20
1.689320
 30
0.0
  0
SPLINE
  5
1e0
100
AcDbEntity
  8
Layer1
 62
7
100
AcDbSpline
 70
8
 71
3
 72
8
 73
4
 74
0
 40
0
 40
0
 40
0
 40
0
 40
1
 40
1
 40
1
 40
1
 10
7.683499
 20
1.474725
 30
0.0
 10
7.696277
 20
1.474725
 30
0.0
 10
7.708084
 20
1.481542
 30
0.0
 10
7.714473
 20
1.492608
 30
0.0
  0
SPLINE
  5
1e1
100
AcDbEntity
  8
Layer1
 62
7
100
AcDbSpline
 70
8
 71
3
 72
8
 73
4
 74
0
 40
0
 40
0
 40
0
 40
0
 40
1
 40
1
 40
1
 40
1
 10
7.714473
 20
1.492608
 30
0.0
 10
7.720862
 20
1.503674
 30
0.0
 10
7.720862
 20
1.517308
 30
0.0
 10
7.714473
 20
1.528374
 30
0.0
  0
SPLINE
  5
1e2
100
AcDbEntity
  8
Layer1
 62
7
100
AcDbSpline
 70
8
 71
3
 72
8
 73
4
 74
0
 40
0
 40
0
 40
0
 40
0
 40
1
 40
1
 40
1
 40
1
 10
7.714473
 20
1.528374
 30
0.0
 10
7.708084
 20
1.539440
 30
0.0
 10
7.696277
 20
1.546257
 30
0.0
 10
7.683499
 20
1.546257
 30
0.0
  0
LWPOLYLINE
  5
1e3
100
AcDbEntity
  8
Layer1
 62
7
100
AcDbPolyline
 90
2
 70
0
 10
6.978912
 20
1.331662
 30
0.0
 10
7.683499
 20
1.331662
 30
0.0
  0
LWPOLYLINE
  5
1e4
100
AcDbEntity
  8
Layer1
 62
7
100
AcDbPolyline
 90
2
 70
0
 10
6.978912
 20
1.689320
 30
0.0
 10
7.683499
 20
1.689320
 30
0.0
  0
LWPOLYLINE
  5
1e5
100
AcDbEntity
  8
Layer1
 62
7
100
AcDbPolyline
 90
2
 70
0
 10
7.683499
 20
1.617788
 30
0.0
 10
6.978912
 20
1.617788
 30
0.0
  0
LWPOLYLINE
  5
1e6
100
AcDbEntity
  8
Layer1
 62
7
100
AcDbPolyline
 90
2
 70
0
 10
6.978912
 20
1.546257
 30
0.0
 10
7.683499
 20
1.546257
 30
0.0
  0
SPLINE
  5
1e7
100
AcDbEntity
  8
Layer1
 62
7
100
AcDbSpline
 70
8
 71
3
 72
8
 73
4
 74
0
 40
0
 40
0
 40
0
 40
0
 40
1
 40
1
 40
1
 40
1
 10
6.978912
 20
1.617788
 30
0.0
 10
6.966134
 20
1.617788
 30
0.0
 10
6.954327
 20
1.610972
 30
0.0
 10
6.947938
 20
1.599906
 30
0.0
  0
SPLINE
  5
1e8
100
AcDbEntity
  8
Layer1
 62
7
100
AcDbSpline
 70
8
 71
3
 72
8
 73
4
 74
0
 40
0
 40
0
 40
0
 40
0
 40
1
 40
1
 40
1
 40
1
 10
6.947938
 20
1.599906
 30
0.0
 10
6.941549
 20
1.588840
 30
0.0
 10
6.941549
 20
1.575206
 30
0.0
 10
6.947938
 20
1.564140
 30
0.0
  0
SPLINE
  5
1e9
100
AcDbEntity
  8
Layer1
 62
7
100
AcDbSpline
 70
8
 71
3
 72
8
 73
4
 74
0
 40
0
 40
0
 40
0
 40
0
 40
1
 40
1
 40
1
 40
1
 10
6.947938
 20
1.564140
 30
0.0
 10
6.954327
 20
1.553074
 30
0.0
 10
6.966134
 20
1.546257
 30
0.0
 10
6.978912
 20
1.546257
 30
0.0
  0
SPLINE
  5
1ea
100
AcDbEntity
  8
Layer1
 62
7
100
AcDbSpline
 70
8
 71
3
 72
8
 73
4
 74
0
 40
0
 40
0
 40
0
 40
0
 40
1
 40
1
 40
1
 40
1
 10
6.978912
 20
1.760852
 30
0.0
 10
6.966134
 20
1.760852
 30
0.0
 10
6.954327
 20
1.754035
 30
0.0
 10
6.947938
 20
1.742969
 30
0.0
  0
SPLINE
  5
1eb
100
AcDbEntity
  8
Layer1
 62
7
100
AcDbSpline
 70
8
 71
3
 72
8
 73
4
 74
0
 40
0
 40
0
 40
0
 40
0
 40
1
 40
1
 40
1
 40
1
 10
6.947938
 20
1.742969
 30
0.0
 10
6.941549
 20
1.731903
 30
0.0
 10
6.941549
 20
1.718269
 30
0.0
 10
6.947938
 20
1.707203
 30
0.0
  0
SPLINE
  5
1ec
100
AcDbEntity
  8
Layer1
 62
7
100
AcDbSpline
 70
8
 71
3
 72
8
 73
4
 74
0
 40
0
 40
0
 40
0
 40
0
 40
1
 40
1
 40
1
 40
1
 10
6.947938
 20
1.707203
 30
0.0
 10
6.954327
 20
1.696137
 30
0.0
 10
6.966134
 20
1.689320
 30
0.0
 10
6.978912
 20
1.689320
 30
0.0
  0
SPLINE
  5
1ed
100
AcDbEntity
  8
Layer1
 62
7
100
AcDbSpline
 70
8
 71
3
 72
8
 73
4
 74
0
 40
0
 40
0
 40
0
 40
0
 40
1
 40
1
 40
1
 40
1
 10
7.683499
 20
1.760852
 30
0.0
 10
7.703225
 20
1.760890
 30
0.0
 10
7.719196
 20
1.776892
 30
0.0
 10
7.719196
 20
1.796618
 30
0.0
  0
SPLINE
  5
1ee
100
AcDbEntity
  8
Layer1
 62
7
100
AcDbSpline
 70
8
 71
3
 72
8
 73
4
 74
0
 40
0
 40
0
 40
0
 40
0
 40
1
 40
1
 40
1
 40
1
 10
7.719196
 20
1.796618
 30
0.0
 10
7.719196
 20
1.816344
 30
0.0
 10
7.703225
 20
1.832345
 30
0.0
 10
7.683499
 20
1.832384
 30
0.0
  0
LWPOLYLINE
  5
1ef
100
AcDbEntity
  8
Layer1
 62
7
100
AcDbPolyline
 90
2
 70
0
 10
7.683499
 20
1.474725
 30
0.0
 10
6.978912
 20
1.474725
 30
0.0
  0
SPLINE
  5
1f0
100
AcDbEntity
  8
Layer1
 62
7
100
AcDbSpline
 70
8
 71
3
 72
8
 73
4
 74
0
 40
0
 40
0
 40
0
 40
0
 40
1
 40
1
 40
1
 40
1
 10
6.943146
 20
1.868149
 30
0.0
 10
6.943146
 20
1.848396
 30
0.0
 10
6.959159
 20
1.832384
 30
0.0
 10
6.978912
 20
1.832384
 30
0.0
  0
LWPOLYLINE
  5
1f1
100
AcDbEntity
  8
Layer1
 62
7
100
AcDbPolyline
 90
2
 70
0
 10
6.978912
 20
1.832384
 30
0.0
 10
7.683499
 20
1.832384
 30
0.0
  0
SPLINE
  5
1f2
100
AcDbEntity
  8
Layer1
 62
7
100
AcDbSpline
 70
8
 71
3
 72
8
 73
4
 74
0
 40
0
 40
0
 40
0
 40
0
 40
1
 40
1
 40
1
 40
1
 10
7.014678
 20
2.224020
 30
0.0
 10
6.995706
 20
2.224020
 30
0.0
 10
6.977512
 20
2.216483
 30
0.0
 10
6.964097
 20
2.203069
 30
0.0
  0
SPLINE
  5
1f3
100
AcDbEntity
  8
Layer1
 62
7
100
AcDbSpline
 70
8
 71
3
 72
8
 73
4
 74
0
 40
0
 40
0
 40
0
 40
0
 40
1
 40
1
 40
1
 40
1
 10
6.964097
 20
2.203069
 30
0.0
 10
6.950682
 20
2.189654
 30
0.0
 10
6.943146
 20
2.171459
 30
0.0
 10
6.943146
 20
2.152488
 30
0.0
  0
SPLINE
  5
1f4
100
AcDbEntity
  8
Layer1
 62
7
100
AcDbSpline
 70
8
 71
3
 72
8
 73
4
 74
0
 40
0
 40
0
 40
0
 40
0
 40
1
 40
1
 40
1
 40
1
 10
7.229273
 20
2.152488
 30
0.0
 10
7.229273
 20
2.191994
 30
0.0
 10
7.197247
 20
2.224020
 30
0.0
 10
7.157741
 20
2.224020
 30
0.0
  0
LWPOLYLINE
  5
1f5
100
AcDbEntity
  8
Layer1
 62
7
100
AcDbPolyline
 90
2
 70
0
 10
6.943146
 20
2.152488
 30
0.0
 10
6.943146
 20
1.868149
 30
0.0
  0
SPLINE
  5
1f6
100
AcDbEntity
  8
Layer1
 62
7
100
AcDbSpline
 70
8
 71
3
 72
8
 73
4
 74
0
 40
0
 40
0
 40
0
 40
0
 40
1
 40
1
 40
1
 40
1
 10
6.943146
 20
0.914990
 30
0.0
 10
6.943146
 20
0.896018
 30
0.0
 10
6.950682
 20
0.877824
 30
0.0
 10
6.964097
 20
0.864409
 30
0.0
  0
SPLINE
  5
1f7
100
AcDbEntity
  8
Layer1
 62
7
100
AcDbSpline
 70
8
 71
3
 72
8
 73
4
 74
0
 40
0
 40
0
 40
0
 40
0
 40
1
 40
1
 40
1
 40
1
 10
6.964097
 20
0.864409
 30
0.0
 10
6.977512
 20
0.850994
 30
0.0
 10
6.995706
 20
0.843457
 30
0.0
 10
7.014678
 20
0.843457
 30
0.0
  0
SPLINE
  5
1f8
100
AcDbEntity
  8
Layer1
 62
7
100
AcDbSpline
 70
8
 71
3
 72
8
 73
4
 74
0
 40
0
 40
0
 40
0
 40
0
 40
1
 40
1
 40
1
 40
1
 10
7.157741
 20
0.843457
 30
0.0
 10
7.176713
 20
0.843457
 30
0.0
 10
7.194907
 20
0.850994
 30
0.0
 10
7.208322
 20
0.864409
 30
0.0
  0
SPLINE
  5
1f9
100
AcDbEntity
  8
Layer1
 62
7
100
AcDbSpline
 70
8
 71
3
 72
8
 73
4
 74
0
 40
0
 40
0
 40
0
 40
0
 40
1
 40
1
 40
1
 40
1
 10
7.208322
 20
0.864409
 30
0.0
 10
7.221737
 20
0.877824
 30
0.0
 10
7.229273
 20
0.896018
 30
0.0
 10
7.229273
 20
0.914990
 30
0.0
  0
LWPOLYLINE
  5
1fa
100
AcDbEntity
  8
Layer1
 62
7
100
AcDbPolyline
 90
2
 70
0
 10
7.157741
 20
2.224020
 30
0.0
 10
7.014678
 20
2.224020
 30
0.0
  0
SPLINE
  5
1fb
100
AcDbEntity
  8
Layer1
 62
7
100
AcDbSpline
 70
8
 71
3
 72
8
 73
4
 74
0
 40
0
 40
0
 40
0
 40
0
 40
1
 40
1
 40
1
 40
1
 10
0.985586
 20
1.760909
 30
0.0
 10
0.985570
 20
1.643956
 30
0.0
 10
1.033281
 20
1.532061
 30
0.0
 10
1.117684
 20
1.451103
 30
0.0
  0
SPLINE
  5
1fc
100
AcDbEntity
  8
Layer1
 62
7
100
AcDbSpline
 70
8
 71
3
 72
8
 73
4
 74
0
 40
0
 40
0
 40
0
 40
0
 40
1
 40
1
 40
1
 40
1
 10
1.117684
 20
1.451103
 30
0.0
 10
1.202087
 20
1.370145
 30
0.0
 10
1.315871
 20
1.327135
 30
0.0
 10
1.432722
 20
1.332021
 30
0.0
  0
SPLINE
  5
1fd
100
AcDbEntity
  8
Layer1
 62
7
100
AcDbSpline
 70
8
 71
3
 72
8
 73
4
 74
0
 40
0
 40
0
 40
0
 40
0
 40
1
 40
1
 40
1
 40
1
 10
1.844747
 20
7.390403
 30
0.0
 10
1.844757
 20
7.543743
 30
0.0
 10
1.762960
 20
7.685441
 30
0.0
 10
1.630168
 20
7.762119
 30
0.0
  0
SPLINE
  5
1fe
100
AcDbEntity
  8
Layer1
 62
7
100
AcDbSpline
 70
8
 71
3
 72
8
 73
4
 74
0
 40
0
 40
0
 40
0
 40
0
 40
1
 40
1
 40
1
 40
1
 10
1.630168
 20
7.762119
 30
0.0
 10
1.497376
 20
7.838798
 30
0.0
 10
1.333764
 20
7.838808
 30
0.0
 10
1.200962
 20
7.762146
 30
0.0
  0
SPLINE
  5
1ff
100
AcDbEntity
  8
Layer1
 62
7
100
AcDbSpline
 70
8
 71
3
 72
8
 73
4
 74
0
 40
0
 40
0
 40
0
 40
0
 40
1
 40
1
 40
1
 40
1
 10
1.200962
 20
7.762146
 30
0.0
 10
1.068161
 20
7.685484
 30
0.0
 10
0.986346
 20
7.543797
 30
0.0
 10
0.986336
 20
7.390457
 30
0.0
  0
LWPOLYLINE
  5
200
100
AcDbEntity
  8
Layer1
 62
7
100
AcDbPolyline
 90
2
 70
0
 10
7.157741
 20
0.843457
 30
0.0
 10
7.014678
 20
0.843457
 30
0.0
  0
LWPOLYLINE
  5
201
100
AcDbEntity
  8
Layer1
 62
7
100
AcDbPolyline
 90
2
 70
0
 10
0.986336
 20
7.390460
 30
0.0
 10
0.985586
 20
1.760909
 30
0.0
  0
LWPOLYLINE
  5
202
100
AcDbEntity
  8
Layer1
 62
7
100
AcDbPolyline
 90
2
 70
0
 10
1.844747
 20
7.390403
 30
0.0
 10
1.844747
 20
1.474725
 30
0.0
  0
SPLINE
  5
203
100
AcDbEntity
  8
Layer1
 62
7
100
AcDbSpline
 70
8
 71
3
 72
8
 73
4
 74
0
 40
0
 40
0
 40
0
 40
0
 40
1
 40
1
 40
1
 40
1
 10
1.558620
 20
1.188598
 30
0.0
 10
1.634506
 20
1.188598
 30
0.0
 10
1.707283
 20
1.218743
 30
0.0
 10
1.760942
 20
1.272403
 30
0.0
  0
SPLINE
  5
204
100
AcDbEntity
  8
Layer1
 62
7
100
AcDbSpline
 70
8
 71
3
 72
8
 73
4
 74
0
 40
0
 40
0
 40
0
 40
0
 40
1
 40
1
 40
1
 40
1
 10
1.760942
 20
1.272403
 30
0.0
 10
1.814602
 20
1.326062
 30
0.0
 10
1.844747
 20
1.398839
 30
0.0
 10
1.844747
 20
1.474725
 30
0.0
  0
LWPOLYLINE
  5
205
100
AcDbEntity
  8
Layer1
 62
7
100
AcDbPolyline
 90
2
 70
0
 10
1.200196
 20
1.188598
 30
0.0
 10
1.558620
 20
1.188598
 30
0.0
  0
LWPOLYLINE
  5
206
100
AcDbEntity
  8
Layer1
 62
7
100
AcDbPolyline
 90
2
 70
0
 10
3.897694
 20
1.404890
 30
0.0
 10
4.232003
 20
1.115370
 30
0.0
  0
LWPOLYLINE
  5
207
100
AcDbEntity
  8
Layer1
 62
7
100
AcDbPolyline
 90
2
 70
0
 10
2.761504
 20
1.103411
 30
0.0
 10
2.797632
 20
1.130722
 30
0.0
  0
SPLINE
  5
208
100
AcDbEntity
  8
Layer1
 62
7
100
AcDbSpline
 70
8
 71
3
 72
8
 73
4
 74
0
 40
0
 40
0
 40
0
 40
0
 40
1
 40
1
 40
1
 40
1
 10
1.200196
 20
1.045535
 30
0.0
 10
1.088592
 20
1.045535
 30
0.0
 10
0.998119
 20
0.955062
 30
0.0
 10
0.998119
 20
0.843458
 30
0.0
  0
SPLINE
  5
209
100
AcDbEntity
  8
Layer1
 62
7
100
AcDbSpline
 70
8
 71
3
 72
8
 73
4
 74
0
 40
0
 40
0
 40
0
 40
0
 40
1
 40
1
 40
1
 40
1
 10
0.998119
 20
0.843458
 30
0.0
 10
0.998119
 20
0.731854
 30
0.0
 10
1.088592
 20
0.641381
 30
0.0
 10
1.200196
 20
0.641381
 30
0.0
  0
SPLINE
  5
20a
100
AcDbEntity
  8
Layer1
 62
7
100
AcDbSpline
 70
8
 71
3
 72
8
 73
4
 74
0
 40
0
 40
0
 40
0
 40
0
 40
1
 40
1
 40
1
 40
1
 10
1.200196
 20
1.188598
 30
0.0
 10
1.009664
 20
1.188479
 30
0.0
 10
0.855271
 20
1.033989
 30
0.0
 10
0.855271
 20
0.843458
 30
0.0
  0
SPLINE
  5
20b
100
AcDbEntity
  8
Layer1
 62
7
100
AcDbSpline
 70
8
 71
3
 72
8
 73
4
 74
0
 40
0
 40
0
 40
0
 40
0
 40
1
 40
1
 40
1
 40
1
 10
0.855271
 20
0.843458
 30
0.0
 10
0.855271
 20
0.652926
 30
0.0
 10
1.009664
 20
0.498436
 30
0.0
 10
1.200196
 20
0.498317
 30
0.0
  0
SPLINE
  5
20c
100
AcDbEntity
  8
Layer1
 62
7
100
AcDbSpline
 70
8
 71
3
 72
8
 73
4
 74
0
 40
0
 40
0
 40
0
 40
0
 40
1
 40
1
 40
1
 40
1
 10
5.363365
 20
1.331662
 30
0.0
 10
5.439299
 20
1.331662
 30
0.0
 10
5.512119
 20
1.361846
 30
0.0
 10
5.565787
 20
1.415566
 30
0.0
  0
SPLINE
  5
20d
100
AcDbEntity
  8
Layer1
 62
7
100
AcDbSpline
 70
8
 71
3
 72
8
 73
4
 74
0
 40
0
 40
0
 40
0
 40
0
 40
1
 40
1
 40
1
 40
1
 10
5.565787
 20
1.415566
 30
0.0
 10
5.619454
 20
1.469286
 30
0.0
 10
5.649566
 20
1.542135
 30
0.0
 10
5.649492
 20
1.618070
 30
0.0
  0
SPLINE
  5
20e
100
AcDbEntity
  8
Layer1
 62
7
100
AcDbSpline
 70
8
 71
3
 72
8
 73
4
 74
0
 40
0
 40
0
 40
0
 40
0
 40
1
 40
1
 40
1
 40
1
 10
4.930572
 20
1.760909
 30
0.0
 10
4.930556
 20
1.643956
 30
0.0
 10
4.978267
 20
1.532061
 30
0.0
 10
5.062670
 20
1.451103
 30
0.0
  0
SPLINE
  5
20f
100
AcDbEntity
  8
Layer1
 62
7
100
AcDbSpline
 70
8
 71
3
 72
8
 73
4
 74
0
 40
0
 40
0
 40
0
 40
0
 40
1
 40
1
 40
1
 40
1
 10
5.062670
 20
1.451103
 30
0.0
 10
5.147072
 20
1.370145
 30
0.0
 10
5.260857
 20
1.327135
 30
0.0
 10
5.377708
 20
1.332021
 30
0.0
  0
SPLINE
  5
210
100
AcDbEntity
  8
Layer1
 62
7
100
AcDbSpline
 70
8
 71
3
 72
8
 73
4
 74
0
 40
0
 40
0
 40
0
 40
0
 40
1
 40
1
 40
1
 40
1
 10
5.789733
 20
7.390403
 30
0.0
 10
5.789742
 20
7.543743
 30
0.0
 10
5.707945
 20
7.685441
 30
0.0
 10
5.575153
 20
7.762119
 30
0.0
  0
SPLINE
  5
211
100
AcDbEntity
  8
Layer1
 62
7
100
AcDbSpline
 70
8
 71
3
 72
8
 73
4
 74
0
 40
0
 40
0
 40
0
 40
0
 40
1
 40
1
 40
1
 40
1
 10
5.575153
 20
7.762119
 30
0.0
 10
5.442362
 20
7.838798
 30
0.0
 10
5.278750
 20
7.838808
 30
0.0
 10
5.145948
 20
7.762146
 30
0.0
  0
SPLINE
  5
212
100
AcDbEntity
  8
Layer1
 62
7
100
AcDbSpline
 70
8
 71
3
 72
8
 73
4
 74
0
 40
0
 40
0
 40
0
 40
0
 40
1
 40
1
 40
1
 40
1
 10
5.145948
 20
7.762146
 30
0.0
 10
5.013147
 20
7.685484
 30
0.0
 10
4.931332
 20
7.543797
 30
0.0
 10
4.931322
 20
7.390457
 30
0.0
  0
LWPOLYLINE
  5
213
100
AcDbEntity
  8
Layer1
 62
7
100
AcDbPolyline
 90
2
 70
0
 10
1.200196
 20
1.045535
 30
0.0
 10
2.588963
 20
1.045535
 30
0.0
  0
LWPOLYLINE
  5
214
100
AcDbEntity
  8
Layer1
 62
7
100
AcDbPolyline
 90
2
 70
0
 10
4.931322
 20
7.390460
 30
0.0
 10
4.930571
 20
1.760909
 30
0.0
  0
LWPOLYLINE
  5
215
100
AcDbEntity
  8
Layer1
 62
7
100
AcDbPolyline
 90
2
 70
0
 10
5.789733
 20
7.390403
 30
0.0
 10
5.789733
 20
1.474725
 30
0.0
  0
SPLINE
  5
216
100
AcDbEntity
  8
Layer1
 62
7
100
AcDbSpline
 70
8
 71
3
 72
8
 73
4
 74
0
 40
0
 40
0
 40
0
 40
0
 40
1
 40
1
 40
1
 40
1
 10
6.357705
 20
1.331662
 30
0.0
 10
6.295425
 20
1.331662
 30
0.0
 10
6.234846
 20
1.311341
 30
0.0
 10
6.185164
 20
1.273785
 30
0.0
  0
SPLINE
  5
217
100
AcDbEntity
  8
Layer1
 62
7
100
AcDbSpline
 70
8
 71
3
 72
8
 73
4
 74
0
 40
0
 40
0
 40
0
 40
0
 40
1
 40
1
 40
1
 40
1
 10
5.787240
 20
1.045535
 30
0.0
 10
5.849520
 20
1.045535
 30
0.0
 10
5.910099
 20
1.065855
 30
0.0
 10
5.959781
 20
1.103411
 30
0.0
  0
SPLINE
  5
218
100
AcDbEntity
  8
Layer1
 62
7
100
AcDbSpline
 70
8
 71
3
 72
8
 73
4
 74
0
 40
0
 40
0
 40
0
 40
0
 40
1
 40
1
 40
1
 40
1
 10
4.232003
 20
1.115370
 30
0.0
 10
4.284014
 20
1.070328
 30
0.0
 10
4.350513
 20
1.045535
 30
0.0
 10
4.419317
 20
1.045535
 30
0.0
  0
SPLINE
  5
219
100
AcDbEntity
  8
Layer1
 62
7
100
AcDbSpline
 70
8
 71
3
 72
8
 73
4
 74
0
 40
0
 40
0
 40
0
 40
0
 40
1
 40
1
 40
1
 40
1
 10
3.897694
 20
1.404890
 30
0.0
 10
3.845684
 20
1.449932
 30
0.0
 10
3.779184
 20
1.474725
 30
0.0
 10
3.710380
 20
1.474725
 30
0.0
  0
SPLINE
  5
21a
100
AcDbEntity
  8
Layer1
 62
7
100
AcDbSpline
 70
8
 71
3
 72
8
 73
4
 74
0
 40
0
 40
0
 40
0
 40
0
 40
1
 40
1
 40
1
 40
1
 10
2.970173
 20
1.188598
 30
0.0
 10
2.907894
 20
1.188598
 30
0.0
 10
2.847315
 20
1.168278
 30
0.0
 10
2.797632
 20
1.130722
 30
0.0
  0
SPLINE
  5
21b
100
AcDbEntity
  8
Layer1
 62
7
100
AcDbSpline
 70
8
 71
3
 72
8
 73
4
 74
0
 40
0
 40
0
 40
0
 40
0
 40
1
 40
1
 40
1
 40
1
 10
2.588963
 20
1.045535
 30
0.0
 10
2.651243
 20
1.045535
 30
0.0
 10
2.711822
 20
1.065855
 30
0.0
 10
2.761504
 20
1.103411
 30
0.0
  0
LWPOLYLINE
  5
21c
100
AcDbEntity
  8
Layer1
 62
7
100
AcDbPolyline
 90
2
 70
0
 10
5.959781
 20
1.103411
 30
0.0
 10
6.185164
 20
1.273785
 30
0.0
  0
LWPOLYLINE
  5
21d
100
AcDbEntity
  8
Layer1
 62
7
100
AcDbPolyline
 90
2
 70
0
 10
7.683499
 20
1.760852
 30
0.0
 10
6.978912
 20
1.760852
 30
0.0
  0
ENDSEC
  0
SECTION
  2
OBJECTS
  0
DICTIONARY
  5
C
330
0
100
AcDbDictionary
  3
ACAD_GROUP
350
D
  3
ACAD_MLINESTYLE
350
17
  0
DICTIONARY
  5
D
330
C
100
AcDbDictionary
  0
DICTIONARY
  5
1A
330
C
100
AcDbDictionary
  0
DICTIONARY
  5
17
330
C
100
AcDbDictionary
  3
STANDARD
350
18
  0
DICTIONARY
  5
19
330
C
100
AcDbDictionary
  0
ENDSEC
  0
EOF
