  0
SECTION
  2
HEADER
  9
$ACADVER
  1
AC1009
  9
$INSBASE
 10
0.0
 20
0.0
 30
0.0
  9
$EXTMIN
 10
0.0
 20
0.0
 30
0.0
  9
$EXTMAX
 10
47.571422426962307
 20
39.414061483377878
 30
0.0
  9
$LIMMIN
 10
0.0
 20
0.0
  9
$LIMMAX
 10
47.571422426962307
 20
39.414061483377878
  9
$ORTHOMODE
 70
     0
  9
$REGENMODE
 70
     1
  9
$FILLMODE
 70
     1
  9
$QTEXTMODE
 70
     0
  9
$MIRRTEXT
 70
     0
  9
$DRAGMODE
 70
     2
  9
$LTSCALE
 40
1.0
  9
$OSMODE
 70
     0
  9
$ATTMODE
 70
     1
  9
$TEXTSIZE
 40
0.2
  9
$TRACEWID
 40
0.05
  9
$TEXTSTYLE
  7
STANDARD
  9
$CLAYER
  8
0
  9
$CELTYPE
  6
BYLAYER
  9
$CECOLOR
 62
   256
  9
$DIMSCALE
 40
1.0
  9
$DIMASZ
 40
0.0708661417322835
  9
$DIMEXO
 40
0.0625
  9
$DIMDLI
 40
0.38
  9
$DIMRND
 40
0.0
  9
$DIMDLE
 40
0.0
  9
$DIMEXE
 40
0.18
  9
$DIMTP
 40
0.0
  9
$DIMTM
 40
0.0
  9
$DIMTXT
 40
0.0708661417322835
  9
$DIMCEN
 40
0.09
  9
$DIMTSZ
 40
0.0
  9
$DIMTOL
 70
     0
  9
$DIMLIM
 70
     0
  9
$DIMTIH
 70
     1
  9
$DIMTOH
 70
     1
  9
$DIMSE1
 70
     0
  9
$DIMSE2
 70
     0
  9
$DIMTAD
 70
     0
  9
$DIMZIN
 70
     0
  9
$DIMBLK
  1

  9
$DIMASO
 70
     1
  9
$DIMSHO
 70
     1
  9
$DIMPOST
  1

  9
$DIMAPOST
  1

  9
$DIMALT
 70
     0
  9
$DIMALTD
 70
     2
  9
$DIMALTF
 40
25.399999999999999
  9
$DIMLFAC
 40
1.0
  9
$DIMTOFL
 70
     0
  9
$DIMTVP
 40
0.0
  9
$DIMTIX
 70
     0
  9
$DIMSOXD
 70
     0
  9
$DIMSAH
 70
     0
  9
$DIMBLK1
  1

  9
$DIMBLK2
  1

  9
$DIMSTYLE
  2
STANDARD
  9
$DIMCLRD
 70
     0
  9
$DIMCLRE
 70
     0
  9
$DIMCLRT
 70
     0
  9
$DIMTFAC
 40
1.0
  9
$DIMGAP
 40
0.09
  9
$LUNITS
 70
     2
  9
$LUPREC
 70
     4
  9
$SKETCHINC
 40
0.1
  9
$FILLETRAD
 40
0.0
  9
$AUNITS
 70
     0
  9
$AUPREC
 70
     0
  9
$MENU
  1
.
  9
$ELEVATION
 40
0.0
  9
$PELEVATION
 40
0.0
  9
$THICKNESS
 40
0.0
  9
$LIMCHECK
 70
     0
  9
$BLIPMODE
 70
     0
  9
$CHAMFERA
 40
0.0
  9
$CHAMFERB
 40
0.0
  9
$SKPOLY
 70
     0
  9
$TDCREATE
 40
2456724.3868503589
  9
$TDUPDATE
 40
2456724.3868503589
  9
$TDINDWG
 40
0.0000159954
  9
$TDUSRTIMER
 40
0.0000159954
  9
$USRTIMER
 70
     1
  9
$ANGBASE
 50
0.0
  9
$ANGDIR
 70
     0
  9
$PDMODE
 70
     0
  9
$PDSIZE
 40
0.0
  9
$PLINEWID
 40
0.0
  9
$COORDS
 70
     0
  9
$SPLFRAME
 70
     0
  9
$SPLINETYPE
 70
     6
  9
$SPLINESEGS
 70
     8
  9
$ATTDIA
 70
     0
  9
$ATTREQ
 70
     1
  9
$HANDLING
 70
     1
  9
$HANDSEED
  5
8EF
  9
$SURFTAB1
 70
     6
  9
$SURFTAB2
 70
     6
  9
$SURFTYPE
 70
     6
  9
$SURFU
 70
     6
  9
$SURFV
 70
     6
  9
$UCSNAME
  2

  9
$UCSORG
 10
0.0
 20
0.0
 30
0.0
  9
$UCSXDIR
 10
1.0
 20
0.0
 30
0.0
  9
$UCSYDIR
 10
0.0
 20
1.0
 30
0.0
  9
$PUCSNAME
  2

  9
$PUCSORG
 10
0.0
 20
0.0
 30
0.0
  9
$PUCSXDIR
 10
1.0
 20
0.0
 30
0.0
  9
$PUCSYDIR
 10
0.0
 20
1.0
 30
0.0
  9
$USERI1
 70
     0
  9
$USERI2
 70
     0
  9
$USERI3
 70
     0
  9
$USERI4
 70
     0
  9
$USERI5
 70
     0
  9
$USERR1
 40
0.0
  9
$USERR2
 40
0.0
  9
$USERR3
 40
0.0
  9
$USERR4
 40
0.0
  9
$USERR5
 40
0.0
  9
$WORLDVIEW
 70
     1
  9
$SHADEDGE
 70
     3
  9
$SHADEDIF
 70
    70
  9
$TILEMODE
 70
     1
  9
$MAXACTVP
 70
    64
  9
$PLIMCHECK
 70
     0
  9
$PEXTMIN
 10
0.0
 20
0.0
 30
0.0
  9
$PEXTMAX
 10
47.571422426962307
 20
39.414061483377878
 30
0.0
  9
$PLIMMIN
 10
0.0
 20
0.0
  9
$PLIMMAX
 10
47.571422426962307
 20
39.414061483377878
  9
$UNITMODE
 70
     0
  9
$VISRETAIN
 70
     1
  9
$PLINEGEN
 70
     0
  9
$PSLTSCALE
 70
     1
  0
ENDSEC
  0
SECTION
  2
TABLES
  0
TABLE
  2
VPORT
 70
     1
  0
VPORT
  2
*ACTIVE
 70
     0
 10
0.0
 20
0.0
 11
1.0
 21
1.0
 12
10.93103700957114
 22
5.682909023674874
 13
0.0
 23
0.0
 14
1.0
 24
1.0
 15
0.0
 25
0.0
 16
0.0
 26
0.0
 36
1.0
 17
0.0
 27
0.0
 37
0.0
 40
39.414061483377878
 41
1.2069657537583289
 42
50.0
 43
0.0
 44
0.0
 50
0.0
 51
0.0
 71
     0
 72
   100
 73
     1
 74
     1
 75
     0
 76
     0
 77
     0
 78
     0
  0
ENDTAB
  0
TABLE
  2
LTYPE
 70
    59
  0
LTYPE
  2
CONTINUOUS
 70
     0
  3
Solid line
 72
    65
 73
     0
 40
0.0
  0
LTYPE
  2
PHANTOM2
 70
     0
  3
Phantom (.5x) ___ _ _ ___ _ _ ___ _ _ ___ _ _
 72
    65
 73
     6
 40
1.25
 49
0.625
 49
-0.125
 49
0.125
 49
-0.125
 49
0.125
 49
-0.125
  0
LTYPE
  2
BY_STANDARD
 70
     0
  3
By Standard ____________    ____    ____   _
 72
    65
 73
     6
 40
1.2402999999999991
 49
0.6614
 49
-0.0827
 49
0.1654
 49
-0.0827
 49
0.1654
 49
-0.0827
  0
LTYPE
  2
CHAIN
 70
     0
  3
Chain ____ _ ____ _ ____ _ ____ _ ____ _ ____
 72
    65
 73
     4
 40
0.7087
 49
0.4724000000000001
 49
-0.0591
 49
0.1181
 49
-0.0591
  0
LTYPE
  2
DASH_DOT
 70
     0
  3
Dash dot __ . __ . __ . __ . __ . __ . __ . __
 72
    65
 73
     4
 40
0.37
 49
0.24
 49
-0.06
 49
0.01
 49
-0.06
  0
LTYPE
  2
DOUBLE_DASH_DOT
 70
     0
  3
Double-Dash Dot __ __ . __ __ . __ __ . __ _
 72
    65
 73
     6
 40
0.4398
 49
0.24
 49
-0.06
 49
0.0098
 49
-0.06
 49
0.01
 49
-0.06
  0
LTYPE
  2
DASH_TRIPLE_DOT
 70
     0
  3
Dash Triple-Dot _ . . . _ . . . _ . . . _
 72
    65
 73
     8
 40
0.51
 49
0.24
 49
-0.06
 49
0.01
 49
-0.06
 49
0.01
 49
-0.06
 49
0.01
 49
-0.06
  0
LTYPE
  2
DASHED
 70
     0
  3
Dashed __ __ __ __ __ __ __ __ __ __ __ __ __ _
 72
    65
 73
     2
 40
0.2067
 49
0.1654
 49
-0.0413
  0
LTYPE
  2
DASH_DOUBLE_DOT
 70
     0
  3
Dash Double-Dot __ . . __ . . __ . . __ . .
 72
    65
 73
     6
 40
0.4398
 49
0.24
 49
-0.06
 49
0.0098
 49
-0.06
 49
0.01
 49
-0.06
  0
LTYPE
  2
DASHED_SPACE
 70
     0
  3
Dashed Space __ __ __ __ __ __ __ __ __ __ __ _
 72
    65
 73
     2
 40
0.2067
 49
0.1654
 49
-0.0413
  0
LTYPE
  2
DOTTED
 70
     0
  3
Dotted . . . . . . . . . . . . . . . . . . . . 
 72
    65
 73
     2
 40
0.0482
 49
0.0069
 49
-0.0413
  0
LTYPE
  2
DOUBLE_DASH_CHAIN
 70
     0
  3
Double-Dash Chain ______  __  __  ______  __  _
 72
    65
 73
     6
 40
1.2402999999999991
 49
0.6614
 49
-0.0827
 49
0.1654
 49
-0.0827
 49
0.1654
 49
-0.0827
  0
LTYPE
  2
DOUBLE_DASH_DOUBLE_DOT
 70
     0
  3
Double-Dash Double-dot _ _ . . _ _ . . _
 72
    65
 73
     8
 40
0.7400000000000001
 49
0.24
 49
-0.06
 49
0.24
 49
-0.06
 49
0.01
 49
-0.06
 49
0.01
 49
-0.06
  0
LTYPE
  2
DOUBLE_DASH_TRIPLE_DOT
 70
     0
  3
Double Dash Triple Dot __ __ . . . __ __ . .
 72
    65
 73
    10
 40
0.8100000000000001
 49
0.24
 49
-0.06
 49
0.24
 49
-0.06
 49
0.01
 49
-0.06
 49
0.01
 49
-0.06
 49
0.01
 49
-0.06
  0
LTYPE
  2
LONG_DASH_DOTTED
 70
     0
  3
Long Dash Dotted ____ . ____ . ____ . ____ . _
 72
    65
 73
     4
 40
0.3543
 49
0.2362
 49
-0.0295
 49
0.0591
 49
-0.0295
  0
LTYPE
  2
LONG_DASH_DOUBLE_DOT
 70
     0
  3
Long Dash Double Dot ________  .  .  ________  
 72
    65
 73
     6
 40
0.6799999999999999
 49
0.48
 49
-0.06
 49
0.01
 49
-0.06
 49
0.01
 49
-0.06
  0
LTYPE
  2
LONG_DASH_TRIPLE_DOT
 70
     0
  3
Long Dash Triple Dot ____ ... ____ ... ____
 72
    65
 73
     8
 40
0.3689
 49
0.2362
 49
-0.0295
 49
0.0049
 49
-0.0295
 49
0.0049
 49
-0.0295
 49
0.0049
 49
-0.0295
  0
LTYPE
  2
BORDER
 70
     0
  3
Border __ __ . __ __ . __ __ . __ __ . __ __ .
 72
    65
 73
     6
 40
1.75
 49
0.5
 49
-0.25
 49
0.5
 49
-0.25
 49
0.0
 49
-0.25
  0
LTYPE
  2
BORDER2
 70
     0
  3
Border (.5x) __.__.__.__.__.__.__.__.__.__.__.
 72
    65
 73
     6
 40
0.875
 49
0.25
 49
-0.125
 49
0.25
 49
-0.125
 49
0.0
 49
-0.125
  0
LTYPE
  2
BORDERX2
 70
     0
  3
Border (2x) ____  ____  .  ____  ____  .  ___
 72
    65
 73
     6
 40
3.5
 49
1.0
 49
-0.5
 49
1.0
 49
-0.5
 49
0.0
 49
-0.5
  0
LTYPE
  2
CENTER
 70
     0
  3
Center ____ _ ____ _ ____ _ ____ _ ____ _ ____
 72
    65
 73
     4
 40
2.0
 49
1.25
 49
-0.25
 49
0.25
 49
-0.25
  0
LTYPE
  2
CENTER2
 70
     0
  3
Center (.5x) ___ _ ___ _ ___ _ ___ _ ___ _ ___
 72
    65
 73
     4
 40
1.125
 49
0.75
 49
-0.125
 49
0.125
 49
-0.125
  0
LTYPE
  2
CENTERX2
 70
     0
  3
Center (2x) ________  __  ________  __  _____
 72
    65
 73
     4
 40
4.0
 49
2.5
 49
-0.5
 49
0.5
 49
-0.5
  0
LTYPE
  2
DASHDOT2
 70
     0
  3
Dash dot (.5x) _._._._._._._._._._._._._._._.
 72
    65
 73
     4
 40
0.5
 49
0.25
 49
-0.125
 49
0.0
 49
-0.125
  0
LTYPE
  2
DASHDOTX2
 70
     0
  3
Dash dot (2x) ____  .  ____  .  ____  .  ___
 72
    65
 73
     4
 40
2.0
 49
1.0
 49
-0.5
 49
0.0
 49
-0.5
  0
LTYPE
  2
DASHED2
 70
     0
  3
Dashed (.5x) _ _ _ _ _ _ _ _ _ _ _ _ _ _ _ _ _
 72
    65
 73
     2
 40
0.375
 49
0.25
 49
-0.125
  0
LTYPE
  2
DASHEDX2
 70
     0
  3
Dashed (2x) ____  ____  ____  ____  ____  ___
 72
    65
 73
     2
 40
1.5
 49
1.0
 49
-0.5
  0
LTYPE
  2
DIVIDE
 70
     0
  3
Divide ____ . . ____ . . ____ . . ____ . . ____
 72
    65
 73
     6
 40
1.25
 49
0.5
 49
-0.25
 49
0.0
 49
-0.25
 49
0.0
 49
-0.25
  0
LTYPE
  2
DIVIDE2
 70
     0
  3
Divide (.5x) __..__..__..__..__..__..__..__.._
 72
    65
 73
     6
 40
0.625
 49
0.25
 49
-0.125
 49
0.0
 49
-0.125
 49
0.0
 49
-0.125
  0
LTYPE
  2
DIVIDEX2
 70
     0
  3
Divide (2x) ________  .  .  ________  .  .  _
 72
    65
 73
     6
 40
2.5
 49
1.0
 49
-0.5
 49
0.0
 49
-0.5
 49
0.0
 49
-0.5
  0
LTYPE
  2
DOT
 70
     0
  3
Dot . . . . . . . . . . . . . . . . . . . . . .
 72
    65
 73
     2
 40
0.25
 49
0.0
 49
-0.25
  0
LTYPE
  2
DOT2
 70
     0
  3
Dot (.5x) .....................................
 72
    65
 73
     2
 40
0.125
 49
0.0
 49
-0.125
  0
LTYPE
  2
DOTX2
 70
     0
  3
Dot (2x) .  .  .  .  .  .  .  .  .  .  .  .  . 
 72
    65
 73
     2
 40
0.5
 49
0.0
 49
-0.5
  0
LTYPE
  2
HIDDEN
 70
     0
  3
Hidden __ __ __ __ __ __ __ __ __ __ __ __ __ _
 72
    65
 73
     2
 40
0.375
 49
0.25
 49
-0.125
  0
LTYPE
  2
HIDDEN2
 70
     0
  3
Hidden (.5x) _ _ _ _ _ _ _ _ _ _ _ _ _ _ _ _ _
 72
    65
 73
     2
 40
0.1875
 49
0.125
 49
-0.0625
  0
LTYPE
  2
HIDDENX2
 70
     0
  3
Hidden (2x) ____ ____ ____ ____ ____ ____ ____
 72
    65
 73
     2
 40
0.75
 49
0.5
 49
-0.25
  0
LTYPE
  2
PHANTOM
 70
     0
  3
Phantom ______  __  __  ______  __  __  ______
 72
    65
 73
     6
 40
2.5
 49
1.25
 49
-0.25
 49
0.25
 49
-0.25
 49
0.25
 49
-0.25
  0
LTYPE
  2
PHANTOMX2
 70
     0
  3
Phantom (2x) ____________    ____    ____   _
 72
    65
 73
     6
 40
5.0
 49
2.5
 49
-0.5
 49
0.5
 49
-0.5
 49
0.5
 49
-0.5
  0
LTYPE
  2
ACAD_ISO02W100
 70
     0
  3
ISO dash __ __ __ __ __ __ __ __ __ __ __ __ __
 72
    65
 73
     2
 40
0.59
 49
0.47
 49
-0.12
  0
LTYPE
  2
ACAD_ISO03W100
 70
     0
  3
ISO dash space __    __    __    __    __    __
 72
    65
 73
     2
 40
1.179999999999999
 49
0.47
 49
-0.71
  0
LTYPE
  2
ACAD_ISO04W100
 70
     0
  3
ISO long-dash dot ____ . ____ . ____ . ____ . _
 72
    65
 73
     4
 40
1.179999999999999
 49
0.9399999999999998
 49
-0.12
 49
0.0
 49
-0.12
  0
LTYPE
  2
ACAD_ISO05W100
 70
     0
  3
ISO long-dash double-dot ____ .. ____ .. ____ .
 72
    65
 73
     6
 40
1.2999999999999989
 49
0.9399999999999998
 49
-0.12
 49
0.0
 49
-0.12
 49
0.0
 49
-0.12
  0
LTYPE
  2
ACAD_ISO06W100
 70
     0
  3
ISO long-dash triple-dot ____ ... ____ ... ____
 72
    65
 73
     8
 40
1.419999999999999
 49
0.9399999999999998
 49
-0.12
 49
0.0
 49
-0.12
 49
0.0
 49
-0.12
 49
0.0
 49
-0.12
  0
LTYPE
  2
ACAD_ISO07W100
 70
     0
  3
ISO dot . . . . . . . . . . . . . . . . . . . .
 72
    65
 73
     2
 40
0.12
 49
0.0
 49
-0.12
  0
LTYPE
  2
ACAD_ISO08W100
 70
     0
  3
ISO long-dash short-dash ____ __ ____ __ ____ _
 72
    65
 73
     4
 40
0.95
 49
0.47
 49
-0.12
 49
0.24
 49
-0.12
  0
LTYPE
  2
ACAD_ISO09W100
 70
     0
  3
ISO long-dash double-short-dash ____ __ __ ____
 72
    65
 73
     6
 40
1.3100000000000001
 49
0.47
 49
-0.12
 49
0.24
 49
-0.12
 49
0.24
 49
-0.12
  0
LTYPE
  2
ACAD_ISO10W100
 70
     0
  3
ISO dash dot __ . __ . __ . __ . __ . __ . __ .
 72
    65
 73
     4
 40
0.71
 49
0.47
 49
-0.12
 49
0.0
 49
-0.12
  0
LTYPE
  2
ACAD_ISO11W100
 70
     0
  3
ISO double-dash dot __ __ . __ __ . __ __ . __ 
 72
    65
 73
     6
 40
1.2999999999999989
 49
0.47
 49
-0.12
 49
0.47
 49
-0.12
 49
0.0
 49
-0.12
  0
LTYPE
  2
ACAD_ISO12W100
 70
     0
  3
ISO dash double-dot __ . . __ . . __ . . __ . .
 72
    65
 73
     6
 40
0.8299999999999999
 49
0.47
 49
-0.12
 49
0.0
 49
-0.12
 49
0.0
 49
-0.12
  0
LTYPE
  2
ACAD_ISO13W100
 70
     0
  3
ISO double-dash double-dot __ __ . . __ __ . . 
 72
    65
 73
     8
 40
1.419999999999999
 49
0.47
 49
-0.12
 49
0.47
 49
-0.12
 49
0.0
 49
-0.12
 49
0.0
 49
-0.12
  0
LTYPE
  2
ACAD_ISO14W100
 70
     0
  3
ISO dash triple-dot __ . . . __ . . . __ . . . 
 72
    65
 73
     8
 40
0.95
 49
0.47
 49
-0.12
 49
0.0
 49
-0.12
 49
0.0
 49
-0.12
 49
0.0
 49
-0.12
  0
LTYPE
  2
ACAD_ISO15W100
 70
     0
  3
ISO double-dash triple-dot __ __ . . . __ __ . 
 72
    65
 73
    10
 40
1.5399999999999989
 49
0.47
 49
-0.12
 49
0.47
 49
-0.12
 49
0.0
 49
-0.12
 49
0.0
 49
-0.12
 49
0.0
 49
-0.12
  0
LTYPE
  2
FENCELINE1
 70
     0
  3
Fenceline circle ----0-----0----0-----0----0---
 72
    65
 73
     4
 40
1.45
 49
0.25
 49
-0.1
 49
-0.1
 49
1.0
  0
LTYPE
  2
FENCELINE2
 70
     0
  3
Fenceline square ----[]-----[]----[]-----[]----
 72
    65
 73
     4
 40
1.45
 49
0.25
 49
-0.1
 49
-0.1
 49
1.0
  0
LTYPE
  2
TRACKS
 70
     0
  3
Tracks -|-|-|-|-|-|-|-|-|-|-|-|-|-|-|-|-|-|-|-|
 72
    65
 73
     2
 40
0.3
 49
0.15
 49
0.15
  0
LTYPE
  2
BATTING
 70
     0
  3
Batting SSSSSSSSSSSSSSSSSSSSSSSSSSSSSSSSSSSSSSS
 72
    65
 73
     4
 40
0.4001000000000001
 49
0.0001
 49
-0.1
 49
-0.2
 49
-0.1
  0
LTYPE
  2
HOT_WATER_SUPPLY
 70
     0
  3
Hot water supply ---- HW ---- HW ---- HW ----
 72
    65
 73
     3
 40
0.9
 49
0.5
 49
-0.2
 49
-0.2
  0
LTYPE
  2
GAS_LINE
 70
     0
  3
Gas line ----GAS----GAS----GAS----GAS----GAS---
 72
    65
 73
     3
 40
0.95
 49
0.5
 49
-0.2
 49
-0.25
  0
LTYPE
  2
ZIGZAG
 70
     0
  3
Zig zag /\/\/\/\/\/\/\/\/\/\/\/\/\/\/\/\/\/\/\/
 72
    65
 73
     4
 40
0.8001000000000001
 49
0.0001
 49
-0.2
 49
-0.4
 49
-0.2
  0
ENDTAB
  0
TABLE
  2
LAYER
 70
     1
  0
LAYER
  2
0
 70
     0
 62
     7
  6
CONTINUOUS
  0
ENDTAB
  0
TABLE
  2
STYLE
 70
     3
  0
STYLE
  2
STANDARD
 70
     0
 40
0.0
 41
1.0
 50
0.0
 71
     0
 42
0.2
  3
txt
  4

  0
STYLE
  2
ANNOTATIVE
 70
     0
 40
0.0
 41
1.0
 50
0.0
 71
     0
 42
0.2
  3
txt
  4

  0
STYLE
  2

 70
     1
 40
0.0
 41
1.0
 50
0.0
 71
     0
 42
0.2
  3
ltypeshp.shx
  4

  0
ENDTAB
  0
TABLE
  2
VIEW
 70
     0
  0
ENDTAB
  0
TABLE
  2
UCS
 70
     0
  0
ENDTAB
  0
TABLE
  2
APPID
 70
     3
  0
APPID
  2
ACAD
 70
     0
  0
APPID
  2
ACADANNOTATIVE
 70
     0
  0
APPID
  2
ACAD_MLEADERVER
 70
     0
  0
ENDTAB
  0
TABLE
  2
DIMSTYLE
 70
     2
  0
DIMSTYLE
  2
STANDARD
 70
     0
  3

  4

  5

  6

  7

 40
1.0
 41
0.18
 42
0.0625
 43
0.38
 44
0.18
 45
0.0
 46
0.0
 47
0.0
 48
0.0
140
0.18
141
0.09
142
0.0
143
25.399999999999999
144
1.0
145
0.0
146
1.0
147
0.09
 71
     0
 72
     0
 73
     1
 74
     1
 75
     0
 76
     0
 77
     0
 78
     0
170
     0
171
     2
172
     0
173
     0
174
     0
175
     0
176
     0
177
     0
178
     0
  0
DIMSTYLE
  2
ANNOTATIVE
 70
     0
  3

  4

  5

  6

  7

 40
1.0
 41
0.18
 42
0.0625
 43
0.38
 44
0.18
 45
0.0
 46
0.0
 47
0.0
 48
0.0
140
0.18
141
0.09
142
0.0
143
25.399999999999999
144
1.0
145
0.0
146
1.0
147
0.09
 71
     0
 72
     0
 73
     1
 74
     1
 75
     0
 76
     0
 77
     0
 78
     0
170
     0
171
     2
172
     0
173
     0
174
     0
175
     0
176
     0
177
     0
178
     0
  0
ENDTAB
  0
ENDSEC
  0
SECTION
  2
BLOCKS
  0
BLOCK
  8
0
  2
$MODEL_SPACE
 70
     0
 10
0.0
 20
0.0
 30
0.0
  3
$MODEL_SPACE
  1

  0
ENDBLK
  5
73
  8
0
  0
BLOCK
 67
     1
  8
0
  2
$PAPER_SPACE
 70
     0
 10
0.0
 20
0.0
 30
0.0
  3
$PAPER_SPACE
  1

  0
ENDBLK
  5
6F
 67
     1
  8
0
  0
ENDSEC
  0
SECTION
  2
ENTITIES
  0
POLYLINE
  5
B7
  8
0
 66
     1
 10
0.0
 20
0.0
 30
0.0
 70
     1
  0
VERTEX
  5
B8
  8
0
 10
0.5314960629921252
 20
0.3646259842519684
 30
0.0
  0
VERTEX
  5
B9
  8
0
 10
0.5314960629921249
 20
0.2071456692913387
 30
0.0
  0
VERTEX
  5
BB
  8
0
 10
0.4724409448818892
 20
0.2071456692913376
 30
0.0
  0
VERTEX
  5
BC
  8
0
 10
0.4724409448818882
 20
0.3646259842519674
 30
0.0
  0
SEQEND
  5
BA
  8
0
  0
POLYLINE
  5
BE
  8
0
 66
     1
 10
0.0
 20
0.0
 30
0.0
 70
     1
  0
VERTEX
  5
BF
  8
0
 10
0.275590551181102
 20
0.2071456692913376
 30
0.0
  0
VERTEX
  5
C0
  8
0
 10
0.2165354330708662
 20
0.2071456692913376
 30
0.0
  0
VERTEX
  5
C2
  8
0
 10
0.2165354330708666
 20
0.3646259842519674
 30
0.0
  0
VERTEX
  5
C3
  8
0
 10
0.2755905511811024
 20
0.3646259842519684
 30
0.0
  0
SEQEND
  5
C1
  8
0
  0
POLYLINE
  5
C4
  8
0
 66
     1
 10
0.0
 20
0.0
 30
0.0
 70
     1
  0
VERTEX
  5
C5
  8
0
 10
1.8101181102362129
 20
-0.7377362204724426
 30
0.0
  0
VERTEX
  5
C6
  8
0
 10
1.8101181102362121
 20
-0.8952165354330725
 30
0.0
  0
VERTEX
  5
C8
  8
0
 10
1.7510629921259759
 20
-0.895216535433072
 30
0.0
  0
VERTEX
  5
C9
  8
0
 10
1.751062992125977
 20
-0.7377362204724423
 30
0.0
  0
SEQEND
  5
C7
  8
0
  0
POLYLINE
  5
CA
  8
0
 66
     1
 10
0.0
 20
0.0
 30
0.0
 70
     1
  0
VERTEX
  5
CB
  8
0
 10
-0.4921259842519678
 20
-0.895216535433072
 30
0.0
  0
VERTEX
  5
CC
  8
0
 10
-0.5511811023622038
 20
-0.895216535433072
 30
0.0
  0
VERTEX
  5
CE
  8
0
 10
-0.551181102362204
 20
-0.7377362204724423
 30
0.0
  0
VERTEX
  5
CF
  8
0
 10
-0.4921259842519682
 20
-0.7377362204724413
 30
0.0
  0
SEQEND
  5
CD
  8
0
  0
POLYLINE
  5
D0
  8
0
 66
     1
 10
0.0
 20
0.0
 30
0.0
 70
     1
  0
VERTEX
  5
D1
  8
0
 10
-7.7952755905511406
 20
8.8685629921259732
 30
0.0
  0
VERTEX
  5
D2
  8
0
 10
-7.9527559055117711
 20
8.8685629921259732
 30
0.0
  0
VERTEX
  5
D4
  8
0
 10
-7.9527559055117711
 20
8.9276181102362102
 30
0.0
  0
VERTEX
  5
D5
  8
0
 10
-7.7952755905511406
 20
8.9276181102362102
 30
0.0
  0
SEQEND
  5
D3
  8
0
  0
POLYLINE
  5
D6
  8
0
 66
     1
 10
0.0
 20
0.0
 30
0.0
 70
     1
  0
VERTEX
  5
D7
  8
0
 10
0.0787401574803308
 20
8.8685629921259732
 30
0.0
  0
VERTEX
  5
D8
  8
0
 10
-0.0787401574802988
 20
8.8685629921259732
 30
0.0
  0
VERTEX
  5
DA
  8
0
 10
-0.0787401574802992
 20
8.9276181102362102
 30
0.0
  0
VERTEX
  5
DB
  8
0
 10
0.078740157480331
 20
8.9276181102362102
 30
0.0
  0
SEQEND
  5
D9
  8
0
  0
POLYLINE
  5
DC
  8
0
 66
     1
 10
0.0
 20
0.0
 30
0.0
 70
     1
  0
VERTEX
  5
DD
  8
0
 10
7.9527559055118049
 20
8.8685629921259732
 30
0.0
  0
VERTEX
  5
DE
  8
0
 10
7.7952755905511752
 20
8.8685629921259732
 30
0.0
  0
VERTEX
  5
E0
  8
0
 10
7.7952755905511726
 20
8.9276181102362102
 30
0.0
  0
VERTEX
  5
E1
  8
0
 10
7.952755905511804
 20
8.9276181102362102
 30
0.0
  0
SEQEND
  5
DF
  8
0
  0
POLYLINE
  5
E2
  8
0
 66
     1
 10
0.0
 20
0.0
 30
0.0
 70
     1
  0
VERTEX
  5
E3
  8
0
 10
2.7362204724409378
 20
1.191397637795274
 30
0.0
  0
VERTEX
  5
E4
  8
0
 10
2.578740157480309
 20
1.191397637795274
 30
0.0
  0
VERTEX
  5
E6
  8
0
 10
2.578740157480309
 20
1.2504527559055101
 30
0.0
  0
VERTEX
  5
E7
  8
0
 10
2.7362204724409391
 20
1.2504527559055101
 30
0.0
  0
SEQEND
  5
E5
  8
0
  0
POLYLINE
  5
E8
  8
0
 66
     1
 10
0.0
 20
0.0
 30
0.0
 70
     1
  0
VERTEX
  5
E9
  8
0
 10
-2.5787401574803082
 20
1.191397637795274
 30
0.0
  0
VERTEX
  5
EA
  8
0
 10
-2.7362204724409369
 20
1.191397637795274
 30
0.0
  0
VERTEX
  5
EC
  8
0
 10
-2.7362204724409369
 20
1.2504527559055101
 30
0.0
  0
VERTEX
  5
ED
  8
0
 10
-2.5787401574803068
 20
1.2504527559055101
 30
0.0
  0
SEQEND
  5
EB
  8
0
  0
POLYLINE
  5
EE
  8
0
 66
     1
 10
0.0
 20
0.0
 30
0.0
 70
     1
  0
VERTEX
  5
EF
  8
0
 10
-2.5787401574803059
 20
1.7613582677165329
 30
0.0
  0
VERTEX
  5
F0
  8
0
 10
-2.5787401574803059
 20
1.7023031496062959
 30
0.0
  0
VERTEX
  5
F2
  8
0
 10
-2.736220472440936
 20
1.702303149606297
 30
0.0
  0
VERTEX
  5
F3
  8
0
 10
-2.736220472440936
 20
1.7613582677165329
 30
0.0
  0
SEQEND
  5
F1
  8
0
  0
POLYLINE
  5
F4
  8
0
 66
     1
 10
0.0
 20
0.0
 30
0.0
 70
     1
  0
VERTEX
  5
F5
  8
0
 10
2.7362204724409378
 20
1.702303149606297
 30
0.0
  0
VERTEX
  5
F6
  8
0
 10
2.578740157480309
 20
1.702303149606297
 30
0.0
  0
VERTEX
  5
F8
  8
0
 10
2.578740157480309
 20
1.7613582677165329
 30
0.0
  0
VERTEX
  5
F9
  8
0
 10
2.7362204724409391
 20
1.7613582677165329
 30
0.0
  0
SEQEND
  5
F7
  8
0
  0
POLYLINE
  5
FA
  8
0
 66
     1
 10
0.0
 20
0.0
 30
0.0
 70
     1
  0
VERTEX
  5
FB
  8
0
 10
7.9527559055118049
 20
9.379468503936998
 30
0.0
  0
VERTEX
  5
FC
  8
0
 10
7.7952755905511752
 20
9.379468503936998
 30
0.0
  0
VERTEX
  5
FE
  8
0
 10
7.7952755905511726
 20
9.4385236220472333
 30
0.0
  0
VERTEX
  5
FF
  8
0
 10
7.952755905511804
 20
9.4385236220472333
 30
0.0
  0
SEQEND
  5
FD
  8
0
  0
POLYLINE
  5
100
  8
0
 66
     1
 10
0.0
 20
0.0
 30
0.0
 70
     1
  0
VERTEX
  5
101
  8
0
 10
0.0787401574803315
 20
9.379468503936998
 30
0.0
  0
VERTEX
  5
102
  8
0
 10
-0.0787401574802981
 20
9.379468503936998
 30
0.0
  0
VERTEX
  5
104
  8
0
 10
-0.0787401574802978
 20
9.4385236220472351
 30
0.0
  0
VERTEX
  5
105
  8
0
 10
0.0787401574803317
 20
9.4385236220472351
 30
0.0
  0
SEQEND
  5
103
  8
0
  0
POLYLINE
  5
106
  8
0
 66
     1
 10
0.0
 20
0.0
 30
0.0
 70
     1
  0
VERTEX
  5
107
  8
0
 10
-7.7952755905511388
 20
9.379468503936998
 30
0.0
  0
VERTEX
  5
108
  8
0
 10
-7.9527559055117694
 20
9.379468503936998
 30
0.0
  0
VERTEX
  5
10A
  8
0
 10
-7.9527559055117694
 20
9.4385236220472333
 30
0.0
  0
VERTEX
  5
10B
  8
0
 10
-7.7952755905511388
 20
9.4385236220472333
 30
0.0
  0
SEQEND
  5
109
  8
0
  0
POLYLINE
  5
10C
  8
0
 66
     1
 10
0.0
 20
0.0
 30
0.0
 70
     1
  0
VERTEX
  5
10D
  8
0
 10
-1.00303149606299
 20
-0.895216535433072
 30
0.0
  0
VERTEX
  5
10E
  8
0
 10
-1.0620866141732259
 20
-0.895216535433072
 30
0.0
  0
VERTEX
  5
110
  8
0
 10
-1.0620866141732259
 20
-0.7377362204724423
 30
0.0
  0
VERTEX
  5
111
  8
0
 10
-1.00303149606299
 20
-0.7377362204724426
 30
0.0
  0
SEQEND
  5
10F
  8
0
  0
POLYLINE
  5
112
  8
0
 66
     1
 10
0.0
 20
0.0
 30
0.0
 70
     1
  0
VERTEX
  5
113
  8
0
 10
1.2401574803149551
 20
-0.8952165354330706
 30
0.0
  0
VERTEX
  5
114
  8
0
 10
1.2401574803149551
 20
-0.7377362204724407
 30
0.0
  0
VERTEX
  5
116
  8
0
 10
1.299212598425191
 20
-0.7377362204724413
 30
0.0
  0
VERTEX
  5
117
  8
0
 10
1.299212598425191
 20
-0.8952165354330711
 30
0.0
  0
SEQEND
  5
115
  8
0
  0
POLYLINE
  5
118
  8
0
 66
     1
 10
0.0
 20
0.0
 30
0.0
 70
     1
  0
VERTEX
  5
119
  8
0
 10
-0.6496062992125986
 20
-1.2101771653543301
 30
0.0
  0
VERTEX
  5
11A
  8
0
 10
-0.9046062992125978
 20
-1.2101771653543301
 30
0.0
  0
VERTEX
  5
11C
  8
0
 10
-0.9046062992125969
 20
-0.4227755905511818
 30
0.0
  0
VERTEX
  5
11D
  8
0
 10
-0.6496062992125972
 20
-0.4227755905511826
 30
0.0
  0
SEQEND
  5
11B
  8
0
  0
POLYLINE
  5
11E
  8
0
 66
     1
 10
0.0
 20
0.0
 30
0.0
 70
     1
  0
VERTEX
  5
11F
  8
0
 10
1.6526377952755831
 20
-1.2101771653543301
 30
0.0
  0
VERTEX
  5
120
  8
0
 10
1.3976377952755841
 20
-1.2101771653543301
 30
0.0
  0
VERTEX
  5
122
  8
0
 10
1.3976377952755861
 20
-0.4227755905511818
 30
0.0
  0
VERTEX
  5
123
  8
0
 10
1.652637795275586
 20
-0.4227755905511826
 30
0.0
  0
SEQEND
  5
121
  8
0
  0
POLYLINE
  5
124
  8
0
 66
     1
 10
0.0
 20
0.0
 30
0.0
 70
     1
  0
VERTEX
  5
125
  8
0
 10
2.1653543307086571
 20
1.3488779527559029
 30
0.0
  0
VERTEX
  5
126
  8
0
 10
2.1653543307086571
 20
1.6038779527559031
 30
0.0
  0
VERTEX
  5
128
  8
0
 10
3.1496062992125911
 20
1.6038779527559031
 30
0.0
  0
VERTEX
  5
129
  8
0
 10
3.1496062992125902
 20
1.3488779527559041
 30
0.0
  0
SEQEND
  5
127
  8
0
  0
POLYLINE
  5
12A
  8
0
 66
     1
 10
0.0
 20
0.0
 30
0.0
 70
     1
  0
VERTEX
  5
12B
  8
0
 10
-0.492125984251951
 20
9.0260433070866046
 30
0.0
  0
VERTEX
  5
12C
  8
0
 10
-0.4921259842519507
 20
9.2810433070866054
 30
0.0
  0
VERTEX
  5
12E
  8
0
 10
0.4921259842519838
 20
9.2810433070866054
 30
0.0
  0
VERTEX
  5
12F
  8
0
 10
0.4921259842519836
 20
9.0260433070866046
 30
0.0
  0
SEQEND
  5
12D
  8
0
  0
POLYLINE
  5
130
  8
0
 66
     1
 10
0.0
 20
0.0
 30
0.0
 70
     1
  0
VERTEX
  5
131
  8
0
 10
-8.3661417322834222
 20
9.0260433070866046
 30
0.0
  0
VERTEX
  5
132
  8
0
 10
-8.3661417322834222
 20
9.2810433070866054
 30
0.0
  0
VERTEX
  5
134
  8
0
 10
-7.3818897637794869
 20
9.2810433070866054
 30
0.0
  0
VERTEX
  5
135
  8
0
 10
-7.3818897637794887
 20
9.0260433070866046
 30
0.0
  0
SEQEND
  5
133
  8
0
  0
POLYLINE
  5
136
  8
0
 66
     1
 10
0.0
 20
0.0
 30
0.0
 70
     1
  0
VERTEX
  5
137
  8
0
 10
7.3818897637795242
 20
9.0260433070866046
 30
0.0
  0
VERTEX
  5
138
  8
0
 10
7.3818897637795242
 20
9.2810433070866054
 30
0.0
  0
VERTEX
  5
13A
  8
0
 10
8.3661417322834577
 20
9.2810433070866054
 30
0.0
  0
VERTEX
  5
13B
  8
0
 10
8.3661417322834577
 20
9.0260433070866046
 30
0.0
  0
SEQEND
  5
139
  8
0
  0
POLYLINE
  5
13C
  8
0
 66
     1
 10
0.0
 20
0.0
 30
0.0
 70
     1
  0
VERTEX
  5
13D
  8
0
 10
-3.1496062992125879
 20
1.3488779527559029
 30
0.0
  0
VERTEX
  5
13E
  8
0
 10
-3.1496062992125879
 20
1.6038779527559031
 30
0.0
  0
VERTEX
  5
140
  8
0
 10
-2.165354330708654
 20
1.6038779527559031
 30
0.0
  0
VERTEX
  5
141
  8
0
 10
-2.165354330708654
 20
1.3488779527559041
 30
0.0
  0
SEQEND
  5
13F
  8
0
  0
POLYLINE
  5
142
  8
0
 66
     1
 10
0.0
 20
0.0
 30
0.0
 70
     1
  0
VERTEX
  5
143
  8
0
 10
10.17716535433069
 20
7.9227755905511712
 30
0.0
  0
VERTEX
  5
144
  8
0
 10
10.17716535433069
 20
8.0802559055118017
 30
0.0
  0
VERTEX
  5
146
  8
0
 10
10.23622047244092
 20
8.0802559055118035
 30
0.0
  0
VERTEX
  5
147
  8
0
 10
10.23622047244092
 20
7.9227755905511712
 30
0.0
  0
SEQEND
  5
145
  8
0
  0
POLYLINE
  5
148
  8
0
 66
     1
 10
0.0
 20
0.0
 30
0.0
 70
     1
  0
VERTEX
  5
149
  8
0
 10
10.23622047244092
 20
3.0015157480314931
 30
0.0
  0
VERTEX
  5
14A
  8
0
 10
10.177165354330681
 20
3.0015157480314931
 30
0.0
  0
VERTEX
  5
14C
  8
0
 10
10.177165354330681
 20
3.1589960629921232
 30
0.0
  0
VERTEX
  5
14D
  8
0
 10
10.23622047244092
 20
3.1589960629921241
 30
0.0
  0
SEQEND
  5
14B
  8
0
  0
POLYLINE
  5
14E
  8
0
 66
     1
 10
0.0
 20
0.0
 30
0.0
 70
     1
  0
VERTEX
  5
14F
  8
0
 10
-10.2362204724409
 20
7.9227755905511712
 30
0.0
  0
VERTEX
  5
150
  8
0
 10
-10.2362204724409
 20
8.0802559055118035
 30
0.0
  0
VERTEX
  5
152
  8
0
 10
-10.177165354330659
 20
8.0802559055118017
 30
0.0
  0
VERTEX
  5
153
  8
0
 10
-10.17716535433067
 20
7.9227755905511694
 30
0.0
  0
SEQEND
  5
151
  8
0
  0
POLYLINE
  5
154
  8
0
 66
     1
 10
0.0
 20
0.0
 30
0.0
 70
     1
  0
VERTEX
  5
155
  8
0
 10
-10.236220472440911
 20
3.0015157480314931
 30
0.0
  0
VERTEX
  5
156
  8
0
 10
-10.236220472440911
 20
3.1589960629921232
 30
0.0
  0
VERTEX
  5
158
  8
0
 10
-10.17716535433067
 20
3.1589960629921219
 30
0.0
  0
VERTEX
  5
159
  8
0
 10
-10.17716535433067
 20
3.0015157480314931
 30
0.0
  0
SEQEND
  5
157
  8
0
  0
POLYLINE
  5
15A
  8
0
 66
     1
 10
0.0
 20
0.0
 30
0.0
 70
     1
  0
VERTEX
  5
15B
  8
0
 10
-4.2519685039369941
 20
-0.8361614173228334
 30
0.0
  0
VERTEX
  5
15C
  8
0
 10
-4.3110236220472311
 20
-0.8361614173228334
 30
0.0
  0
VERTEX
  5
15E
  8
0
 10
-4.3110236220472311
 20
-0.6786811023622037
 30
0.0
  0
VERTEX
  5
15F
  8
0
 10
-4.251968503936995
 20
-0.6786811023622028
 30
0.0
  0
SEQEND
  5
15D
  8
0
  0
POLYLINE
  5
160
  8
0
 66
     1
 10
0.0
 20
0.0
 30
0.0
 70
     1
  0
VERTEX
  5
161
  8
0
 10
-4.3110236220472311
 20
-1.2298622047244081
 30
0.0
  0
VERTEX
  5
162
  8
0
 10
-4.251968503936995
 20
-1.2298622047244081
 30
0.0
  0
VERTEX
  5
164
  8
0
 10
-4.251968503936995
 20
-1.387342519685038
 30
0.0
  0
VERTEX
  5
165
  8
0
 10
-4.311023622047232
 20
-1.3873425196850371
 30
0.0
  0
SEQEND
  5
163
  8
0
  0
POLYLINE
  5
166
  8
0
 66
     1
 10
0.0
 20
0.0
 30
0.0
 70
     1
  0
VERTEX
  5
167
  8
0
 10
-4.9015748031495896
 20
0.9748622047244081
 30
0.0
  0
VERTEX
  5
168
  8
0
 10
-4.9606299212598266
 20
0.9748622047244081
 30
0.0
  0
VERTEX
  5
16A
  8
0
 10
-4.9606299212598266
 20
1.1323425196850381
 30
0.0
  0
VERTEX
  5
16B
  8
0
 10
-4.9015748031495887
 20
1.1323425196850381
 30
0.0
  0
SEQEND
  5
169
  8
0
  0
POLYLINE
  5
16C
  8
0
 66
     1
 10
0.0
 20
0.0
 30
0.0
 70
     1
  0
VERTEX
  5
16D
  8
0
 10
-4.9606299212598266
 20
0.5811614173228348
 30
0.0
  0
VERTEX
  5
16E
  8
0
 10
-4.9015748031495896
 20
0.5811614173228348
 30
0.0
  0
VERTEX
  5
170
  8
0
 10
-4.9015748031495896
 20
0.4236811023622051
 30
0.0
  0
VERTEX
  5
171
  8
0
 10
-4.9606299212598284
 20
0.4236811023622039
 30
0.0
  0
SEQEND
  5
16F
  8
0
  0
POLYLINE
  5
172
  8
0
 66
     1
 10
0.0
 20
0.0
 30
0.0
 70
     1
  0
VERTEX
  5
173
  8
0
 10
4.9606299212598266
 20
-0.8361614173228334
 30
0.0
  0
VERTEX
  5
174
  8
0
 10
4.9015748031495896
 20
-0.8361614173228334
 30
0.0
  0
VERTEX
  5
176
  8
0
 10
4.9015748031495896
 20
-0.6786811023622041
 30
0.0
  0
VERTEX
  5
177
  8
0
 10
4.9606299212598284
 20
-0.6786811023622025
 30
0.0
  0
SEQEND
  5
175
  8
0
  0
POLYLINE
  5
178
  8
0
 66
     1
 10
0.0
 20
0.0
 30
0.0
 70
     1
  0
VERTEX
  5
179
  8
0
 10
4.9015748031495896
 20
-1.2298622047244061
 30
0.0
  0
VERTEX
  5
17A
  8
0
 10
4.9606299212598257
 20
-1.229862204724407
 30
0.0
  0
VERTEX
  5
17C
  8
0
 10
4.9606299212598266
 20
-1.387342519685036
 30
0.0
  0
VERTEX
  5
17D
  8
0
 10
4.9015748031495896
 20
-1.3873425196850371
 30
0.0
  0
SEQEND
  5
17B
  8
0
  0
POLYLINE
  5
17E
  8
0
 66
     1
 10
0.0
 20
0.0
 30
0.0
 70
     1
  0
VERTEX
  5
17F
  8
0
 10
4.3110236220472311
 20
0.9748622047244095
 30
0.0
  0
VERTEX
  5
180
  8
0
 10
4.2519685039369941
 20
0.9748622047244095
 30
0.0
  0
VERTEX
  5
182
  8
0
 10
4.2519685039369941
 20
1.132342519685039
 30
0.0
  0
VERTEX
  5
183
  8
0
 10
4.311023622047232
 20
1.1323425196850381
 30
0.0
  0
SEQEND
  5
181
  8
0
  0
POLYLINE
  5
184
  8
0
 66
     1
 10
0.0
 20
0.0
 30
0.0
 70
     1
  0
VERTEX
  5
185
  8
0
 10
4.2519685039369941
 20
0.5811614173228348
 30
0.0
  0
VERTEX
  5
186
  8
0
 10
4.3110236220472311
 20
0.5811614173228348
 30
0.0
  0
VERTEX
  5
188
  8
0
 10
4.3110236220472311
 20
0.4236811023622051
 30
0.0
  0
VERTEX
  5
189
  8
0
 10
4.2519685039369941
 20
0.4236811023622053
 30
0.0
  0
SEQEND
  5
187
  8
0
  0
POLYLINE
  5
18A
  8
0
 66
     1
 10
0.0
 20
0.0
 30
0.0
 70
     1
  0
VERTEX
  5
18B
  8
0
 10
4.9015748031495932
 20
0.5811614173228348
 30
0.0
  0
VERTEX
  5
18C
  8
0
 10
4.9606299212598293
 20
0.5811614173228348
 30
0.0
  0
VERTEX
  5
18E
  8
0
 10
4.9606299212598284
 20
0.423681102362205
 30
0.0
  0
VERTEX
  5
18F
  8
0
 10
4.9015748031495923
 20
0.4236811023622057
 30
0.0
  0
SEQEND
  5
18D
  8
0
  0
POLYLINE
  5
190
  8
0
 66
     1
 10
0.0
 20
0.0
 30
0.0
 70
     1
  0
VERTEX
  5
191
  8
0
 10
4.9606299212598284
 20
0.9748622047244095
 30
0.0
  0
VERTEX
  5
192
  8
0
 10
4.9015748031495923
 20
0.9748622047244095
 30
0.0
  0
VERTEX
  5
194
  8
0
 10
4.9015748031495932
 20
1.132342519685039
 30
0.0
  0
VERTEX
  5
195
  8
0
 10
4.960629921259831
 20
1.132342519685039
 30
0.0
  0
SEQEND
  5
193
  8
0
  0
POLYLINE
  5
196
  8
0
 66
     1
 10
0.0
 20
0.0
 30
0.0
 70
     1
  0
VERTEX
  5
197
  8
0
 10
4.3110236220472311
 20
-0.6786811023622043
 30
0.0
  0
VERTEX
  5
198
  8
0
 10
4.3110236220472311
 20
-0.8361614173228341
 30
0.0
  0
VERTEX
  5
19A
  8
0
 10
4.2519685039369932
 20
-0.8361614173228332
 30
0.0
  0
VERTEX
  5
19B
  8
0
 10
4.2519685039369941
 20
-0.6786811023622037
 30
0.0
  0
SEQEND
  5
199
  8
0
  0
POLYLINE
  5
19C
  8
0
 66
     1
 10
0.0
 20
0.0
 30
0.0
 70
     1
  0
VERTEX
  5
19D
  8
0
 10
4.2519685039369941
 20
-1.3873425196850371
 30
0.0
  0
VERTEX
  5
19E
  8
0
 10
4.2519685039369941
 20
-1.2298622047244081
 30
0.0
  0
VERTEX
  5
1A0
  8
0
 10
4.3110236220472302
 20
-1.2298622047244081
 30
0.0
  0
VERTEX
  5
1A1
  8
0
 10
4.3110236220472293
 20
-1.3873425196850371
 30
0.0
  0
SEQEND
  5
19F
  8
0
  0
POLYLINE
  5
1A2
  8
0
 66
     1
 10
0.0
 20
0.0
 30
0.0
 70
     1
  0
VERTEX
  5
1A3
  8
0
 10
-4.3110236220472302
 20
0.5811614173228348
 30
0.0
  0
VERTEX
  5
1A4
  8
0
 10
-4.2519685039369941
 20
0.581161417322835
 30
0.0
  0
VERTEX
  5
1A6
  8
0
 10
-4.2519685039369941
 20
0.423681102362205
 30
0.0
  0
VERTEX
  5
1A7
  8
0
 10
-4.3110236220472302
 20
0.4236811023622055
 30
0.0
  0
SEQEND
  5
1A5
  8
0
  0
POLYLINE
  5
1A8
  8
0
 66
     1
 10
0.0
 20
0.0
 30
0.0
 70
     1
  0
VERTEX
  5
1A9
  8
0
 10
-4.2519685039369941
 20
0.9748622047244095
 30
0.0
  0
VERTEX
  5
1AA
  8
0
 10
-4.3110236220472302
 20
0.9748622047244095
 30
0.0
  0
VERTEX
  5
1AC
  8
0
 10
-4.3110236220472293
 20
1.132342519685039
 30
0.0
  0
VERTEX
  5
1AD
  8
0
 10
-4.2519685039369932
 20
1.132342519685039
 30
0.0
  0
SEQEND
  5
1AB
  8
0
  0
POLYLINE
  5
1AE
  8
0
 66
     1
 10
0.0
 20
0.0
 30
0.0
 70
     1
  0
VERTEX
  5
1AF
  8
0
 10
-4.9015748031495932
 20
-0.6786811023622043
 30
0.0
  0
VERTEX
  5
1B0
  8
0
 10
-4.9015748031495932
 20
-0.8361614173228334
 30
0.0
  0
VERTEX
  5
1B2
  8
0
 10
-4.9606299212598293
 20
-0.8361614173228334
 30
0.0
  0
VERTEX
  5
1B3
  8
0
 10
-4.9606299212598293
 20
-0.6786811023622037
 30
0.0
  0
SEQEND
  5
1B1
  8
0
  0
POLYLINE
  5
1B4
  8
0
 66
     1
 10
0.0
 20
0.0
 30
0.0
 70
     1
  0
VERTEX
  5
1B5
  8
0
 10
-4.9606299212598302
 20
-1.3873425196850371
 30
0.0
  0
VERTEX
  5
1B6
  8
0
 10
-4.9606299212598293
 20
-1.229862204724407
 30
0.0
  0
VERTEX
  5
1B8
  8
0
 10
-4.9015748031495932
 20
-1.2298622047244081
 30
0.0
  0
VERTEX
  5
1B9
  8
0
 10
-4.901574803149594
 20
-1.387342519685038
 30
0.0
  0
SEQEND
  5
1B7
  8
0
  0
POLYLINE
  5
1BA
  8
0
 66
     1
 10
0.0
 20
0.0
 30
0.0
 70
     1
  0
VERTEX
  5
1BB
  8
0
 10
5.1181102362204562
 20
-1.407027559055116
 30
0.0
 42
-0.4142135623730948
  0
VERTEX
  5
1BC
  8
0
 10
4.9212598425196692
 20
-1.6038779527559031
 30
0.0
  0
VERTEX
  5
1BE
  8
0
 10
-4.921259842519671
 20
-1.6038779527559031
 30
0.0
 42
-0.4142135623730946
  0
VERTEX
  5
1BF
  8
0
 10
-5.1181102362204589
 20
-1.4070275590551169
 30
0.0
  0
VERTEX
  5
1C0
  8
0
 10
-5.1181102362204554
 20
1.6038779527559039
 30
0.0
  0
VERTEX
  5
1C1
  8
0
 10
-10.3346456692913
 20
1.6038779527559031
 30
0.0
  0
VERTEX
  5
1C2
  8
0
 10
-10.3346456692913
 20
2.5881299212598399
 30
0.0
  0
VERTEX
  5
1C3
  8
0
 10
-10.589645669291301
 20
2.5881299212598399
 30
0.0
  0
VERTEX
  5
1C4
  8
0
 10
-10.589645669291301
 20
3.5723818897637751
 30
0.0
  0
VERTEX
  5
1C5
  8
0
 10
-10.3346456692913
 20
3.572381889763776
 30
0.0
  0
VERTEX
  5
1C6
  8
0
 10
-10.3346456692913
 20
7.5093897637795202
 30
0.0
  0
VERTEX
  5
1C7
  8
0
 10
-10.58964566929129
 20
7.5093897637795184
 30
0.0
  0
VERTEX
  5
1C8
  8
0
 10
-10.58964566929129
 20
8.4936417322834554
 30
0.0
  0
VERTEX
  5
1C9
  8
0
 10
-10.3346456692913
 20
8.4936417322834554
 30
0.0
  0
VERTEX
  5
1CA
  8
0
 10
-10.334645669291289
 20
9.4778937007873925
 30
0.0
  0
VERTEX
  5
1CB
  8
0
 10
10.334645669291319
 20
9.4778937007873925
 30
0.0
  0
VERTEX
  5
1CC
  8
0
 10
10.334645669291319
 20
8.4936417322834554
 30
0.0
  0
VERTEX
  5
1CD
  8
0
 10
10.58964566929132
 20
8.4936417322834554
 30
0.0
  0
VERTEX
  5
1CE
  8
0
 10
10.58964566929132
 20
7.5093897637795184
 30
0.0
  0
VERTEX
  5
1CF
  8
0
 10
10.334645669291319
 20
7.5093897637795202
 30
0.0
  0
VERTEX
  5
1D0
  8
0
 10
10.33464566929131
 20
3.572381889763776
 30
0.0
  0
VERTEX
  5
1D1
  8
0
 10
10.589645669291309
 20
3.5723818897637751
 30
0.0
  0
VERTEX
  5
1D2
  8
0
 10
10.589645669291309
 20
2.588129921259839
 30
0.0
  0
VERTEX
  5
1D3
  8
0
 10
10.33464566929131
 20
2.5881299212598399
 30
0.0
  0
VERTEX
  5
1D4
  8
0
 10
10.33464566929131
 20
1.6038779527559039
 30
0.0
  0
VERTEX
  5
1D5
  8
0
 10
5.1181102362204589
 20
1.6038779527559051
 30
0.0
  0
SEQEND
  5
1BD
  8
0
  0
POLYLINE
  5
1D6
  8
0
 66
     1
 10
0.0
 20
0.0
 30
0.0
 70
     1
  0
VERTEX
  5
1D7
  8
0
 10
-5.8390677599468139
 20
21.366688551676649
 30
0.0
 42
-0.4142135623730951
  0
VERTEX
  5
1D8
  8
0
 10
-6.0265677599468139
 20
21.179188551676649
 30
0.0
  0
VERTEX
  5
1DA
  8
0
 10
-9.6515677599468042
 20
21.179188551676649
 30
0.0
  0
VERTEX
  5
1DB
  8
0
 10
-9.651567759946813
 20
13.17918855167667
 30
0.0
  0
VERTEX
  5
1DC
  8
0
 10
-1.651567759946831
 20
13.17918855167666
 30
0.0
  0
VERTEX
  5
1DD
  8
0
 10
-1.6515677599468239
 20
21.179188551676649
 30
0.0
  0
VERTEX
  5
1DE
  8
0
 10
-5.2765677599468157
 20
21.179188551676649
 30
0.0
 42
-0.4142135623730994
  0
VERTEX
  5
1DF
  8
0
 10
-5.4640677599468139
 20
21.36668855167666
 30
0.0
  0
VERTEX
  5
1E0
  8
0
 10
-5.464067759946813
 20
22.491688551676649
 30
0.0
 42
0.9999999999999998
  0
VERTEX
  5
1E1
  8
0
 10
-5.839067759946813
 20
22.491688551676649
 30
0.0
  0
SEQEND
  5
1D9
  8
0
  0
POLYLINE
  5
1E2
  8
0
 66
     1
 10
0.0
 20
0.0
 30
0.0
 70
     1
  0
VERTEX
  5
1E3
  8
0
 10
-3.9980244528602169
 20
23.045330283960102
 30
0.0
  0
VERTEX
  5
1E4
  8
0
 10
-2.620071696954708
 20
23.045330283960102
 30
0.0
  0
VERTEX
  5
1E6
  8
0
 10
-2.6200716969547102
 20
22.179188551676638
 30
0.0
  0
VERTEX
  5
1E7
  8
0
 10
-3.9980244528602178
 20
22.179188551676631
 30
0.0
  0
SEQEND
  5
1E5
  8
0
  0
POLYLINE
  5
1E8
  8
0
 66
     1
 10
0.0
 20
0.0
 30
0.0
 70
     1
  0
VERTEX
  5
1E9
  8
0
 10
-7.305111067033434
 20
11.313046819393209
 30
0.0
  0
VERTEX
  5
1EA
  8
0
 10
-8.6830638229389425
 20
11.313046819393209
 30
0.0
  0
VERTEX
  5
1EC
  8
0
 10
-8.6830638229389407
 20
12.17918855167667
 30
0.0
  0
VERTEX
  5
1ED
  8
0
 10
-7.3051110670334323
 20
12.17918855167667
 30
0.0
  0
SEQEND
  5
1EB
  8
0
  0
POLYLINE
  5
1EE
  8
0
 66
     1
 10
0.0
 20
0.0
 30
0.0
 70
     1
  0
VERTEX
  5
1EF
  8
0
 10
-3.9980244528602271
 20
11.3130468193932
 30
0.0
  0
VERTEX
  5
1F0
  8
0
 10
-3.9980244528602258
 20
12.17918855167667
 30
0.0
  0
VERTEX
  5
1F2
  8
0
 10
-2.6200716969547169
 20
12.17918855167666
 30
0.0
  0
VERTEX
  5
1F3
  8
0
 10
-2.6200716969547182
 20
11.3130468193932
 30
0.0
  0
SEQEND
  5
1F1
  8
0
  0
POLYLINE
  5
1F4
  8
0
 66
     1
 10
0.0
 20
0.0
 30
0.0
 70
     1
  0
VERTEX
  5
1F5
  8
0
 10
-7.3051110670334243
 20
23.045330283960109
 30
0.0
  0
VERTEX
  5
1F6
  8
0
 10
-7.3051110670334243
 20
22.179188551676638
 30
0.0
  0
VERTEX
  5
1F8
  8
0
 10
-8.6830638229389336
 20
22.179188551676638
 30
0.0
  0
VERTEX
  5
1F9
  8
0
 10
-8.6830638229389319
 20
23.045330283960109
 30
0.0
  0
SEQEND
  5
1F7
  8
0
  0
POLYLINE
  5
1FA
  8
0
 66
     1
 10
0.0
 20
0.0
 30
0.0
 70
     1
  0
VERTEX
  5
1FB
  8
0
 10
-10.061016578844439
 20
22.194936583172719
 30
0.0
  0
VERTEX
  5
1FC
  8
0
 10
-10.1003866575846
 20
22.194936583172719
 30
0.0
  0
VERTEX
  5
1FE
  8
0
 10
-10.1003866575846
 20
22.352416898133349
 30
0.0
  0
VERTEX
  5
1FF
  8
0
 10
-10.061016578844439
 20
22.352416898133349
 30
0.0
  0
SEQEND
  5
1FD
  8
0
  0
POLYLINE
  5
200
  8
0
 66
     1
 10
0.0
 20
0.0
 30
0.0
 70
     1
  0
VERTEX
  5
201
  8
0
 10
-10.454717366246021
 20
22.352416898133349
 30
0.0
  0
VERTEX
  5
202
  8
0
 10
-10.41534728750586
 20
22.352416898133349
 30
0.0
  0
VERTEX
  5
204
  8
0
 10
-10.41534728750586
 20
22.194936583172719
 30
0.0
  0
VERTEX
  5
205
  8
0
 10
-10.454717366246021
 20
22.194936583172719
 30
0.0
  0
SEQEND
  5
203
  8
0
  0
POLYLINE
  5
206
  8
0
 66
     1
 10
0.0
 20
0.0
 30
0.0
 70
     1
  0
VERTEX
  5
207
  8
0
 10
-0.8877882323877688
 20
22.352416898133342
 30
0.0
  0
VERTEX
  5
208
  8
0
 10
-0.8484181536476114
 20
22.352416898133342
 30
0.0
  0
VERTEX
  5
20A
  8
0
 10
-0.8484181536476118
 20
22.194936583172709
 30
0.0
  0
VERTEX
  5
20B
  8
0
 10
-0.8877882323877695
 20
22.194936583172709
 30
0.0
  0
SEQEND
  5
209
  8
0
  0
POLYLINE
  5
20C
  8
0
 66
     1
 10
0.0
 20
0.0
 30
0.0
 70
     1
  0
VERTEX
  5
20D
  8
0
 10
-1.2027488623090281
 20
22.352416898133342
 30
0.0
  0
VERTEX
  5
20E
  8
0
 10
-1.2027488623090281
 20
22.194936583172709
 30
0.0
  0
VERTEX
  5
210
  8
0
 10
-1.242118941049186
 20
22.194936583172709
 30
0.0
  0
VERTEX
  5
211
  8
0
 10
-1.242118941049186
 20
22.352416898133342
 30
0.0
  0
SEQEND
  5
20F
  8
0
  0
POLYLINE
  5
212
  8
0
 66
     1
 10
0.0
 20
0.0
 30
0.0
 70
     1
  0
VERTEX
  5
213
  8
0
 10
-10.41534728750587
 20
11.171314535928641
 30
0.0
  0
VERTEX
  5
214
  8
0
 10
-10.454717366246021
 20
11.171314535928641
 30
0.0
  0
VERTEX
  5
216
  8
0
 10
-10.454717366246021
 20
11.32879485088927
 30
0.0
  0
VERTEX
  5
217
  8
0
 10
-10.41534728750587
 20
11.32879485088927
 30
0.0
  0
SEQEND
  5
215
  8
0
  0
POLYLINE
  5
218
  8
0
 66
     1
 10
0.0
 20
0.0
 30
0.0
 70
     1
  0
VERTEX
  5
219
  8
0
 10
-10.100386657584609
 20
11.171314535928641
 30
0.0
  0
VERTEX
  5
21A
  8
0
 10
-10.100386657584609
 20
11.32879485088927
 30
0.0
  0
VERTEX
  5
21C
  8
0
 10
-10.06101657884445
 20
11.32879485088927
 30
0.0
  0
VERTEX
  5
21D
  8
0
 10
-10.06101657884445
 20
11.171314535928641
 30
0.0
  0
SEQEND
  5
21B
  8
0
  0
POLYLINE
  5
21E
  8
0
 66
     1
 10
0.0
 20
0.0
 30
0.0
 70
     1
  0
VERTEX
  5
21F
  8
0
 10
-0.8877882323877782
 20
11.32879485088926
 30
0.0
  0
VERTEX
  5
220
  8
0
 10
-0.8484181536476206
 20
11.32879485088926
 30
0.0
  0
VERTEX
  5
222
  8
0
 10
-0.8484181536476209
 20
11.17131453592863
 30
0.0
  0
VERTEX
  5
223
  8
0
 10
-0.8877882323877782
 20
11.17131453592863
 30
0.0
  0
SEQEND
  5
221
  8
0
  0
POLYLINE
  5
224
  8
0
 66
     1
 10
0.0
 20
0.0
 30
0.0
 70
     1
  0
VERTEX
  5
225
  8
0
 10
-1.242118941049194
 20
11.17131453592863
 30
0.0
  0
VERTEX
  5
226
  8
0
 10
-1.242118941049194
 20
11.32879485088926
 30
0.0
  0
VERTEX
  5
228
  8
0
 10
-1.202748862309037
 20
11.32879485088926
 30
0.0
  0
VERTEX
  5
229
  8
0
 10
-1.202748862309037
 20
11.17131453592863
 30
0.0
  0
SEQEND
  5
227
  8
0
  0
POLYLINE
  5
22A
  8
0
 66
     1
 10
0.0
 20
0.0
 30
0.0
 70
     1
  0
VERTEX
  5
22B
  8
0
 10
-0.6515677599468362
 20
10.26580272490501
 30
0.0
  0
VERTEX
  5
22C
  8
0
 10
-0.651567759946825
 20
23.25792870915696
 30
0.0
 42
0.4142135623730951
  0
VERTEX
  5
22E
  8
0
 10
-0.8484181536476123
 20
23.454779102857749
 30
0.0
  0
VERTEX
  5
22F
  8
0
 10
-10.45471736624601
 20
23.45477910285776
 30
0.0
 42
0.4142135623730951
  0
VERTEX
  5
230
  8
0
 10
-10.651567759946801
 20
23.257928709156971
 30
0.0
  0
VERTEX
  5
231
  8
0
 10
-10.651567759946809
 20
10.26580272490502
 30
0.0
 42
0.4142135623730951
  0
VERTEX
  5
232
  8
0
 10
-10.454717366246021
 20
10.06895233120423
 30
0.0
  0
VERTEX
  5
233
  8
0
 10
-0.8484181536476235
 20
10.06895233120423
 30
0.0
 42
0.4142135623730951
  0
SEQEND
  5
22D
  8
0
  0
POLYLINE
  5
234
  8
0
 66
     1
 10
0.0
 20
0.0
 30
0.0
 70
     1
  0
VERTEX
  5
235
  8
0
 10
-7.1520829514923223
 20
17.142908676986611
 30
0.0
  0
VERTEX
  5
236
  8
0
 10
-7.1520829514923214
 20
18.087790566750389
 30
0.0
  0
VERTEX
  5
238
  8
0
 10
-6.734500206697116
 20
18.087790566750389
 30
0.0
  0
VERTEX
  5
239
  8
0
 10
-6.7345002066971169
 20
17.142908676986611
 30
0.0
  0
SEQEND
  5
237
  8
0
  0
POLYLINE
  5
23A
  8
0
 66
     1
 10
0.0
 20
0.0
 30
0.0
 70
     1
  0
VERTEX
  5
23B
  8
0
 10
-7.2582522090159811
 20
15.23345985808897
 30
0.0
 42
-0.4142135623730951
  0
VERTEX
  5
23C
  8
0
 10
-7.4551026027167682
 20
15.430310251789759
 30
0.0
  0
VERTEX
  5
23E
  8
0
 10
-7.4551026027167673
 20
17.9893653699
 30
0.0
 42
-0.4142135623730951
  0
VERTEX
  5
23F
  8
0
 10
-7.2582522090159802
 20
18.186215763600789
 30
0.0
  0
VERTEX
  5
240
  8
0
 10
-6.628330949173459
 20
18.186215763600782
 30
0.0
 42
-0.4142135623730951
  0
VERTEX
  5
241
  8
0
 10
-6.4314805554726711
 20
17.9893653699
 30
0.0
  0
VERTEX
  5
242
  8
0
 10
-6.4314805554726737
 20
15.430310251789759
 30
0.0
 42
-0.4142135623730951
  0
VERTEX
  5
243
  8
0
 10
-6.6283309491734617
 20
15.23345985808897
 30
0.0
  0
SEQEND
  5
23D
  8
0
  0
POLYLINE
  5
244
  8
0
 66
     1
 10
0.0
 20
0.0
 30
0.0
 70
     1
  0
VERTEX
  5
245
  8
0
 10
-7.1520829514923241
 20
16.276766944703152
 30
0.0
  0
VERTEX
  5
246
  8
0
 10
-6.7345002066971169
 20
16.276766944703152
 30
0.0
  0
VERTEX
  5
248
  8
0
 10
-6.7345002066971187
 20
15.33188505493937
 30
0.0
  0
VERTEX
  5
249
  8
0
 10
-7.1520829514923241
 20
15.33188505493937
 30
0.0
  0
SEQEND
  5
247
  8
0
  0
POLYLINE
  5
24A
  8
0
 66
     1
 10
0.0
 20
0.0
 30
0.0
 70
     1
  0
VERTEX
  5
24B
  8
0
 10
-7.2976222877561367
 20
17.261018913207081
 30
0.0
  0
VERTEX
  5
24C
  8
0
 10
-7.2976222877561367
 20
17.418499228167711
 30
0.0
  0
VERTEX
  5
24E
  8
0
 10
-7.2385671696458997
 20
17.418499228167718
 30
0.0
  0
VERTEX
  5
24F
  8
0
 10
-7.2385671696458997
 20
17.261018913207089
 30
0.0
  0
SEQEND
  5
24D
  8
0
  0
POLYLINE
  5
250
  8
0
 66
     1
 10
0.0
 20
0.0
 30
0.0
 70
     1
  0
VERTEX
  5
251
  8
0
 10
-6.6480159885435377
 20
17.261018913207081
 30
0.0
  0
VERTEX
  5
252
  8
0
 10
-6.6480159885435377
 20
17.418499228167711
 30
0.0
  0
VERTEX
  5
254
  8
0
 10
-6.5889608704333034
 20
17.418499228167718
 30
0.0
  0
VERTEX
  5
255
  8
0
 10
-6.5889608704333034
 20
17.261018913207089
 30
0.0
  0
SEQEND
  5
253
  8
0
  0
POLYLINE
  5
256
  8
0
 66
     1
 10
0.0
 20
0.0
 30
0.0
 70
     1
  0
VERTEX
  5
257
  8
0
 10
-7.2385671696458997
 20
17.969680330529918
 30
0.0
  0
VERTEX
  5
258
  8
0
 10
-7.2385671696458997
 20
17.812200015569289
 30
0.0
  0
VERTEX
  5
25A
  8
0
 10
-7.2976222877561359
 20
17.812200015569289
 30
0.0
  0
VERTEX
  5
25B
  8
0
 10
-7.2976222877561359
 20
17.969680330529918
 30
0.0
  0
SEQEND
  5
259
  8
0
  0
POLYLINE
  5
25C
  8
0
 66
     1
 10
0.0
 20
0.0
 30
0.0
 70
     1
  0
VERTEX
  5
25D
  8
0
 10
-6.5889608704333034
 20
17.969680330529918
 30
0.0
  0
VERTEX
  5
25E
  8
0
 10
-6.5889608704333034
 20
17.812200015569289
 30
0.0
  0
VERTEX
  5
260
  8
0
 10
-6.6480159885435377
 20
17.812200015569289
 30
0.0
  0
VERTEX
  5
261
  8
0
 10
-6.6480159885435377
 20
17.969680330529918
 30
0.0
  0
SEQEND
  5
25F
  8
0
  0
POLYLINE
  5
262
  8
0
 66
     1
 10
0.0
 20
0.0
 30
0.0
 70
     1
  0
VERTEX
  5
263
  8
0
 10
-6.6480159885435413
 20
15.449995291159841
 30
0.0
  0
VERTEX
  5
264
  8
0
 10
-6.6480159885435413
 20
15.60747560612047
 30
0.0
  0
VERTEX
  5
266
  8
0
 10
-6.588960870433306
 20
15.60747560612047
 30
0.0
  0
VERTEX
  5
267
  8
0
 10
-6.5889608704333043
 20
15.449995291159841
 30
0.0
  0
SEQEND
  5
265
  8
0
  0
POLYLINE
  5
268
  8
0
 66
     1
 10
0.0
 20
0.0
 30
0.0
 70
     1
  0
VERTEX
  5
269
  8
0
 10
-7.2976222877561367
 20
16.158656708482681
 30
0.0
  0
VERTEX
  5
26A
  8
0
 10
-7.2385671696459024
 20
16.158656708482681
 30
0.0
  0
VERTEX
  5
26C
  8
0
 10
-7.2385671696459024
 20
16.001176393522051
 30
0.0
  0
VERTEX
  5
26D
  8
0
 10
-7.2976222877561367
 20
16.001176393522051
 30
0.0
  0
SEQEND
  5
26B
  8
0
  0
POLYLINE
  5
26E
  8
0
 66
     1
 10
0.0
 20
0.0
 30
0.0
 70
     1
  0
VERTEX
  5
26F
  8
0
 10
-6.5889608704333043
 20
16.158656708482681
 30
0.0
  0
VERTEX
  5
270
  8
0
 10
-6.5889608704333043
 20
16.001176393522051
 30
0.0
  0
VERTEX
  5
272
  8
0
 10
-6.6480159885435404
 20
16.001176393522051
 30
0.0
  0
VERTEX
  5
273
  8
0
 10
-6.6480159885435404
 20
16.158656708482681
 30
0.0
  0
SEQEND
  5
271
  8
0
  0
POLYLINE
  5
274
  8
0
 66
     1
 10
0.0
 20
0.0
 30
0.0
 70
     1
  0
VERTEX
  5
275
  8
0
 10
-7.2385671696459033
 20
15.449995291159841
 30
0.0
  0
VERTEX
  5
276
  8
0
 10
-7.2976222877561394
 20
15.449995291159841
 30
0.0
  0
VERTEX
  5
278
  8
0
 10
-7.2976222877561394
 20
15.60747560612047
 30
0.0
  0
VERTEX
  5
279
  8
0
 10
-7.2385671696459033
 20
15.60747560612047
 30
0.0
  0
SEQEND
  5
277
  8
0
  0
POLYLINE
  5
27A
  8
0
 66
     1
 10
0.0
 20
0.0
 30
0.0
 70
     1
  0
VERTEX
  5
27B
  8
0
 10
-4.3013040930811011
 20
16.340538528155541
 30
0.0
  0
VERTEX
  5
27C
  8
0
 10
-4.3013040930810993
 20
17.285420417919319
 30
0.0
  0
VERTEX
  5
27E
  8
0
 10
-3.8837213482858939
 20
17.285420417919319
 30
0.0
  0
VERTEX
  5
27F
  8
0
 10
-3.8837213482858961
 20
16.340538528155541
 30
0.0
  0
SEQEND
  5
27D
  8
0
  0
POLYLINE
  5
280
  8
0
 66
     1
 10
0.0
 20
0.0
 30
0.0
 70
     1
  0
VERTEX
  5
281
  8
0
 10
-4.4074733506047599
 20
14.4310897092579
 30
0.0
 42
-0.4142135623730951
  0
VERTEX
  5
282
  8
0
 10
-4.6043237443055469
 20
14.627940102958689
 30
0.0
  0
VERTEX
  5
284
  8
0
 10
-4.6043237443055443
 20
17.18699522106893
 30
0.0
 42
-0.4142135623730951
  0
VERTEX
  5
285
  8
0
 10
-4.4074733506047572
 20
17.383845614769719
 30
0.0
  0
VERTEX
  5
286
  8
0
 10
-3.7775520907622369
 20
17.383845614769719
 30
0.0
 42
-0.4142135623730951
  0
VERTEX
  5
287
  8
0
 10
-3.5807016970614498
 20
17.18699522106893
 30
0.0
  0
VERTEX
  5
288
  8
0
 10
-3.5807016970614529
 20
14.627940102958689
 30
0.0
 42
-0.4142135623730951
  0
VERTEX
  5
289
  8
0
 10
-3.77755209076224
 20
14.4310897092579
 30
0.0
  0
SEQEND
  5
283
  8
0
  0
POLYLINE
  5
28A
  8
0
 66
     1
 10
0.0
 20
0.0
 30
0.0
 70
     1
  0
VERTEX
  5
28B
  8
0
 10
-4.301304093081102
 20
15.47439679587208
 30
0.0
  0
VERTEX
  5
28C
  8
0
 10
-3.883721348285897
 20
15.47439679587208
 30
0.0
  0
VERTEX
  5
28E
  8
0
 10
-3.8837213482858979
 20
14.5295149061083
 30
0.0
  0
VERTEX
  5
28F
  8
0
 10
-4.301304093081102
 20
14.5295149061083
 30
0.0
  0
SEQEND
  5
28D
  8
0
  0
POLYLINE
  5
290
  8
0
 66
     1
 10
0.0
 20
0.0
 30
0.0
 70
     1
  0
VERTEX
  5
291
  8
0
 10
-4.4468434293449137
 20
16.458648764376012
 30
0.0
  0
VERTEX
  5
292
  8
0
 10
-4.4468434293449137
 20
16.616129079336641
 30
0.0
  0
VERTEX
  5
294
  8
0
 10
-4.3877883112346776
 20
16.616129079336648
 30
0.0
  0
VERTEX
  5
295
  8
0
 10
-4.3877883112346776
 20
16.458648764376019
 30
0.0
  0
SEQEND
  5
293
  8
0
  0
POLYLINE
  5
296
  8
0
 66
     1
 10
0.0
 20
0.0
 30
0.0
 70
     1
  0
VERTEX
  5
297
  8
0
 10
-3.7972371301323169
 20
16.458648764376012
 30
0.0
  0
VERTEX
  5
298
  8
0
 10
-3.7972371301323169
 20
16.616129079336641
 30
0.0
  0
VERTEX
  5
29A
  8
0
 10
-3.7381820120220799
 20
16.616129079336648
 30
0.0
  0
VERTEX
  5
29B
  8
0
 10
-3.7381820120220799
 20
16.458648764376019
 30
0.0
  0
SEQEND
  5
299
  8
0
  0
POLYLINE
  5
29C
  8
0
 66
     1
 10
0.0
 20
0.0
 30
0.0
 70
     1
  0
VERTEX
  5
29D
  8
0
 10
-4.3877883112346767
 20
17.167310181698848
 30
0.0
  0
VERTEX
  5
29E
  8
0
 10
-4.3877883112346767
 20
17.009829866738219
 30
0.0
  0
VERTEX
  5
2A0
  8
0
 10
-4.4468434293449137
 20
17.009829866738219
 30
0.0
  0
VERTEX
  5
2A1
  8
0
 10
-4.4468434293449137
 20
17.167310181698848
 30
0.0
  0
SEQEND
  5
29F
  8
0
  0
POLYLINE
  5
2A2
  8
0
 66
     1
 10
0.0
 20
0.0
 30
0.0
 70
     1
  0
VERTEX
  5
2A3
  8
0
 10
-3.738182012022079
 20
17.167310181698848
 30
0.0
  0
VERTEX
  5
2A4
  8
0
 10
-3.738182012022079
 20
17.009829866738219
 30
0.0
  0
VERTEX
  5
2A6
  8
0
 10
-3.797237130132316
 20
17.009829866738219
 30
0.0
  0
VERTEX
  5
2A7
  8
0
 10
-3.797237130132316
 20
17.167310181698848
 30
0.0
  0
SEQEND
  5
2A5
  8
0
  0
POLYLINE
  5
2A8
  8
0
 66
     1
 10
0.0
 20
0.0
 30
0.0
 70
     1
  0
VERTEX
  5
2A9
  8
0
 10
-3.79723713013232
 20
14.647625142328771
 30
0.0
  0
VERTEX
  5
2AA
  8
0
 10
-3.79723713013232
 20
14.8051054572894
 30
0.0
  0
VERTEX
  5
2AC
  8
0
 10
-3.738182012022083
 20
14.8051054572894
 30
0.0
  0
VERTEX
  5
2AD
  8
0
 10
-3.738182012022083
 20
14.647625142328771
 30
0.0
  0
SEQEND
  5
2AB
  8
0
  0
POLYLINE
  5
2AE
  8
0
 66
     1
 10
0.0
 20
0.0
 30
0.0
 70
     1
  0
VERTEX
  5
2AF
  8
0
 10
-4.4468434293449164
 20
15.3562865596516
 30
0.0
  0
VERTEX
  5
2B0
  8
0
 10
-4.3877883112346803
 20
15.3562865596516
 30
0.0
  0
VERTEX
  5
2B2
  8
0
 10
-4.3877883112346803
 20
15.19880624469098
 30
0.0
  0
VERTEX
  5
2B3
  8
0
 10
-4.4468434293449173
 20
15.19880624469098
 30
0.0
  0
SEQEND
  5
2B1
  8
0
  0
POLYLINE
  5
2B4
  8
0
 66
     1
 10
0.0
 20
0.0
 30
0.0
 70
     1
  0
VERTEX
  5
2B5
  8
0
 10
-3.738182012022083
 20
15.3562865596516
 30
0.0
  0
VERTEX
  5
2B6
  8
0
 10
-3.738182012022083
 20
15.19880624469098
 30
0.0
  0
VERTEX
  5
2B8
  8
0
 10
-3.7972371301323191
 20
15.198806244690971
 30
0.0
  0
VERTEX
  5
2B9
  8
0
 10
-3.7972371301323178
 20
15.3562865596516
 30
0.0
  0
SEQEND
  5
2B7
  8
0
  0
POLYLINE
  5
2BA
  8
0
 66
     1
 10
0.0
 20
0.0
 30
0.0
 70
     1
  0
VERTEX
  5
2BB
  8
0
 10
-4.387788311234682
 20
14.647625142328771
 30
0.0
  0
VERTEX
  5
2BC
  8
0
 10
-4.4468434293449182
 20
14.647625142328771
 30
0.0
  0
VERTEX
  5
2BE
  8
0
 10
-4.4468434293449182
 20
14.8051054572894
 30
0.0
  0
VERTEX
  5
2BF
  8
0
 10
-4.3877883112346812
 20
14.8051054572894
 30
0.0
  0
SEQEND
  5
2BD
  8
0
  0
POLYLINE
  5
2C0
  8
0
 66
     1
 10
0.0
 20
0.0
 30
0.0
 70
     1
  0
VERTEX
  5
2C1
  8
0
 10
7.0894687741608911
 20
12.87446426004751
 30
0.0
  0
VERTEX
  5
2C2
  8
0
 10
8.4674215300663995
 20
12.87446426004751
 30
0.0
  0
VERTEX
  5
2C4
  8
0
 10
8.4674215300663995
 20
11.22092095296089
 30
0.0
  0
VERTEX
  5
2C5
  8
0
 10
7.0894687741608857
 20
11.220920952960901
 30
0.0
  0
SEQEND
  5
2C3
  8
0
  0
POLYLINE
  5
2C6
  8
0
 66
     1
 10
0.0
 20
0.0
 30
0.0
 70
     1
  0
VERTEX
  5
2C7
  8
0
 10
8.4674215300664102
 20
21.299661110441178
 30
0.0
  0
VERTEX
  5
2C8
  8
0
 10
7.0894687741609008
 20
21.299661110441189
 30
0.0
  0
VERTEX
  5
2CA
  8
0
 10
7.0894687741609044
 20
22.95320441752779
 30
0.0
  0
VERTEX
  5
2CB
  8
0
 10
8.4674215300664155
 20
22.95320441752779
 30
0.0
  0
SEQEND
  5
2C9
  8
0
  0
POLYLINE
  5
2CC
  8
0
 66
     1
 10
0.0
 20
0.0
 30
0.0
 70
     1
  0
VERTEX
  5
2CD
  8
0
 10
2.404429404082169
 20
12.87446426004751
 30
0.0
  0
VERTEX
  5
2CE
  8
0
 10
3.7823821599876788
 20
12.87446426004751
 30
0.0
  0
VERTEX
  5
2D0
  8
0
 10
3.782382159987677
 20
11.220920952960901
 30
0.0
  0
VERTEX
  5
2D1
  8
0
 10
2.4044294040821659
 20
11.220920952960901
 30
0.0
  0
SEQEND
  5
2CF
  8
0
  0
POLYLINE
  5
2D2
  8
0
 66
     1
 10
0.0
 20
0.0
 30
0.0
 70
     1
  0
VERTEX
  5
2D3
  8
0
 10
3.7823821599876908
 20
21.299661110441189
 30
0.0
  0
VERTEX
  5
2D4
  8
0
 10
2.404429404082181
 20
21.299661110441189
 30
0.0
  0
VERTEX
  5
2D6
  8
0
 10
2.4044294040821819
 20
22.9532044175278
 30
0.0
  0
VERTEX
  5
2D7
  8
0
 10
3.7823821599876921
 20
22.9532044175278
 30
0.0
  0
SEQEND
  5
2D5
  8
0
  0
POLYLINE
  5
2D8
  8
0
 66
     1
 10
0.0
 20
0.0
 30
0.0
 70
     1
  0
VERTEX
  5
2D9
  8
0
 10
5.3768703489640641
 20
19.957141425401829
 30
0.0
 42
-0.9999999999999998
  0
VERTEX
  5
2DA
  8
0
 10
6.243012081247528
 20
19.957141425401829
 30
0.0
  0
VERTEX
  5
2DC
  8
0
 10
6.2430120812475218
 20
12.08312567737034
 30
0.0
 42
-0.9999999999999998
  0
VERTEX
  5
2DD
  8
0
 10
5.3768703489640544
 20
12.083125677370351
 30
0.0
  0
SEQEND
  5
2DB
  8
0
  0
POLYLINE
  5
2DE
  8
0
 66
     1
 10
0.0
 20
0.0
 30
0.0
 70
     1
  0
VERTEX
  5
2DF
  8
0
 10
10.239075073373501
 20
11.354779220677431
 30
0.0
 42
-0.4142135623730971
  0
VERTEX
  5
2E0
  8
0
 10
10.435925467074281
 20
11.15792882697664
 30
0.0
  0
VERTEX
  5
2E2
  8
0
 10
10.435925467074281
 20
10.17367685847271
 30
0.0
 42
-0.4142135623730951
  0
VERTEX
  5
2E3
  8
0
 10
10.239075073373501
 20
9.9768264647719214
 30
0.0
  0
VERTEX
  5
2E4
  8
0
 10
0.6327758607750819
 20
9.976826464771932
 30
0.0
 42
-0.4142135623730951
  0
VERTEX
  5
2E5
  8
0
 10
0.4359254670742949
 20
10.173676858472721
 30
0.0
  0
VERTEX
  5
2E6
  8
0
 10
0.4359254670742949
 20
11.157928826976651
 30
0.0
 42
-0.4142135623730951
  0
VERTEX
  5
2E7
  8
0
 10
0.6327758607750819
 20
11.35477922067744
 30
0.0
  0
VERTEX
  5
2E8
  8
0
 10
0.7182708558638146
 20
11.35477922067744
 30
0.0
  0
VERTEX
  5
2E9
  8
0
 10
0.7182708558638136
 20
10.961078433275871
 30
0.0
  0
VERTEX
  5
2EA
  8
0
 10
0.9409816530879211
 20
10.961078433275871
 30
0.0
  0
VERTEX
  5
2EB
  8
0
 10
0.9409816530879247
 20
11.35477922067744
 30
0.0
  0
VERTEX
  5
2EC
  8
0
 10
1.124901845027052
 20
11.35477922067744
 30
0.0
 42
0.4142135623730951
  0
VERTEX
  5
2ED
  8
0
 10
1.2233270418774449
 20
11.45320441752783
 30
0.0
  0
VERTEX
  5
2EE
  8
0
 10
1.2233270418774571
 20
21.886275283669551
 30
0.0
 42
0.4142135623730951
  0
VERTEX
  5
2EF
  8
0
 10
1.124901845027064
 20
21.98470048051994
 30
0.0
  0
VERTEX
  5
2F0
  8
0
 10
0.9409816530879378
 20
21.98470048051994
 30
0.0
  0
VERTEX
  5
2F1
  8
0
 10
0.9409816530879375
 20
22.378401267921522
 30
0.0
  0
VERTEX
  5
2F2
  8
0
 10
0.7182708558638316
 20
22.378401267921522
 30
0.0
  0
VERTEX
  5
2F3
  8
0
 10
0.7182708558638296
 20
21.98470048051994
 30
0.0
  0
VERTEX
  5
2F4
  8
0
 10
0.6327758607750971
 20
21.98470048051994
 30
0.0
 42
-0.4142135623730992
  0
VERTEX
  5
2F5
  8
0
 10
0.4359254670743102
 20
22.181550874220729
 30
0.0
  0
VERTEX
  5
2F6
  8
0
 10
0.4359254670743101
 20
23.165802842724659
 30
0.0
 42
-0.4142135623730951
  0
VERTEX
  5
2F7
  8
0
 10
0.6327758607750973
 20
23.362653236425459
 30
0.0
  0
VERTEX
  5
2F8
  8
0
 10
10.23907507337351
 20
23.362653236425441
 30
0.0
 42
-0.4142135623730992
  0
VERTEX
  5
2F9
  8
0
 10
10.4359254670743
 20
23.165802842724649
 30
0.0
  0
VERTEX
  5
2FA
  8
0
 10
10.43592546707429
 20
22.181550874220719
 30
0.0
 42
-0.4142135623730951
  0
VERTEX
  5
2FB
  8
0
 10
10.23907507337351
 20
21.98470048051993
 30
0.0
  0
VERTEX
  5
2FC
  8
0
 10
10.153580078284779
 20
21.98470048051993
 30
0.0
  0
VERTEX
  5
2FD
  8
0
 10
10.153580078284779
 20
22.378401267921511
 30
0.0
  0
VERTEX
  5
2FE
  8
0
 10
9.9308692810606711
 20
22.378401267921511
 30
0.0
  0
VERTEX
  5
2FF
  8
0
 10
9.9308692810606676
 20
21.98470048051993
 30
0.0
  0
VERTEX
  5
300
  8
0
 10
9.7469490891215411
 20
21.98470048051993
 30
0.0
 42
0.4142135623730951
  0
VERTEX
  5
301
  8
0
 10
9.6485238922711485
 20
21.886275283669541
 30
0.0
  0
VERTEX
  5
302
  8
0
 10
9.6485238922711378
 20
11.45320441752782
 30
0.0
 42
0.4142135623730951
  0
VERTEX
  5
303
  8
0
 10
9.7469490891215322
 20
11.354779220677431
 30
0.0
  0
VERTEX
  5
304
  8
0
 10
9.9308692810606551
 20
11.354779220677431
 30
0.0
  0
VERTEX
  5
305
  8
0
 10
9.9308692810606551
 20
10.96107843327586
 30
0.0
  0
VERTEX
  5
306
  8
0
 10
10.15358007828476
 20
10.96107843327586
 30
0.0
  0
VERTEX
  5
307
  8
0
 10
10.15358007828476
 20
11.354779220677431
 30
0.0
  0
SEQEND
  5
2E1
  8
0
  0
POLYLINE
  5
308
  8
0
 66
     1
 10
0.0
 20
0.0
 30
0.0
 70
     1
  0
VERTEX
  5
309
  8
0
 10
9.8847443647120805
 20
11.079188669496331
 30
0.0
  0
VERTEX
  5
30A
  8
0
 10
9.8453742859719231
 20
11.079188669496331
 30
0.0
  0
VERTEX
  5
30C
  8
0
 10
9.8453742859719249
 20
11.23666898445696
 30
0.0
  0
VERTEX
  5
30D
  8
0
 10
9.8847443647120823
 20
11.23666898445696
 30
0.0
  0
SEQEND
  5
30B
  8
0
  0
POLYLINE
  5
30E
  8
0
 66
     1
 10
0.0
 20
0.0
 30
0.0
 70
     1
  0
VERTEX
  5
30F
  8
0
 10
10.19970499463334
 20
11.079188669496331
 30
0.0
  0
VERTEX
  5
310
  8
0
 10
10.19970499463334
 20
11.23666898445696
 30
0.0
  0
VERTEX
  5
312
  8
0
 10
10.23907507337349
 20
11.23666898445696
 30
0.0
  0
VERTEX
  5
313
  8
0
 10
10.239075073373501
 20
11.079188669496331
 30
0.0
  0
SEQEND
  5
311
  8
0
  0
POLYLINE
  5
314
  8
0
 66
     1
 10
0.0
 20
0.0
 30
0.0
 70
     1
  0
VERTEX
  5
315
  8
0
 10
1.026476648176655
 20
11.07918866949634
 30
0.0
  0
VERTEX
  5
316
  8
0
 10
0.9871065694364979
 20
11.07918866949634
 30
0.0
  0
VERTEX
  5
318
  8
0
 10
0.9871065694364988
 20
11.236668984456969
 30
0.0
  0
VERTEX
  5
319
  8
0
 10
1.0264766481766561
 20
11.236668984456969
 30
0.0
  0
SEQEND
  5
317
  8
0
  0
POLYLINE
  5
31A
  8
0
 66
     1
 10
0.0
 20
0.0
 30
0.0
 70
     1
  0
VERTEX
  5
31B
  8
0
 10
0.6721459395152385
 20
11.236668984456969
 30
0.0
  0
VERTEX
  5
31C
  8
0
 10
0.6721459395152384
 20
11.07918866949634
 30
0.0
  0
VERTEX
  5
31E
  8
0
 10
0.6327758607750812
 20
11.07918866949634
 30
0.0
  0
VERTEX
  5
31F
  8
0
 10
0.6327758607750821
 20
11.236668984456969
 30
0.0
  0
SEQEND
  5
31D
  8
0
  0
POLYLINE
  5
320
  8
0
 66
     1
 10
0.0
 20
0.0
 30
0.0
 70
     1
  0
VERTEX
  5
321
  8
0
 10
9.8453742859719391
 20
22.260291031701041
 30
0.0
  0
VERTEX
  5
322
  8
0
 10
9.8847443647120965
 20
22.260291031701041
 30
0.0
  0
VERTEX
  5
324
  8
0
 10
9.8847443647120947
 20
22.102810716740411
 30
0.0
  0
VERTEX
  5
325
  8
0
 10
9.8453742859719373
 20
22.102810716740411
 30
0.0
  0
SEQEND
  5
323
  8
0
  0
POLYLINE
  5
326
  8
0
 66
     1
 10
0.0
 20
0.0
 30
0.0
 70
     1
  0
VERTEX
  5
327
  8
0
 10
10.19970499463335
 20
22.102810716740411
 30
0.0
  0
VERTEX
  5
328
  8
0
 10
10.19970499463335
 20
22.260291031701041
 30
0.0
  0
VERTEX
  5
32A
  8
0
 10
10.23907507337351
 20
22.260291031701041
 30
0.0
  0
VERTEX
  5
32B
  8
0
 10
10.23907507337351
 20
22.102810716740411
 30
0.0
  0
SEQEND
  5
329
  8
0
  0
POLYLINE
  5
32C
  8
0
 66
     1
 10
0.0
 20
0.0
 30
0.0
 70
     1
  0
VERTEX
  5
32D
  8
0
 10
0.6327758607750973
 20
22.102810716740411
 30
0.0
  0
VERTEX
  5
32E
  8
0
 10
0.6327758607750975
 20
22.260291031701041
 30
0.0
  0
VERTEX
  5
330
  8
0
 10
0.6721459395152546
 20
22.260291031701051
 30
0.0
  0
VERTEX
  5
331
  8
0
 10
0.6721459395152537
 20
22.102810716740422
 30
0.0
  0
SEQEND
  5
32F
  8
0
  0
POLYLINE
  5
332
  8
0
 66
     1
 10
0.0
 20
0.0
 30
0.0
 70
     1
  0
VERTEX
  5
333
  8
0
 10
1.0264766481766701
 20
22.260291031701051
 30
0.0
  0
VERTEX
  5
334
  8
0
 10
1.0264766481766701
 20
22.102810716740422
 30
0.0
  0
VERTEX
  5
336
  8
0
 10
0.9871065694365132
 20
22.102810716740411
 30
0.0
  0
VERTEX
  5
337
  8
0
 10
0.9871065694365142
 20
22.260291031701041
 30
0.0
  0
SEQEND
  5
335
  8
0
  0
POLYLINE
  5
338
  8
0
 66
     1
 10
0.0
 20
0.0
 30
0.0
 70
     1
  0
VERTEX
  5
339
  8
0
 10
30.330906895126638
 20
23.401541114544521
 30
0.0
  0
VERTEX
  5
33A
  8
0
 10
30.330906895126638
 20
23.146541114544519
 30
0.0
  0
VERTEX
  5
33C
  8
0
 10
29.346654926622708
 20
23.146541114544519
 30
0.0
  0
VERTEX
  5
33D
  8
0
 10
29.346654926622708
 20
23.401541114544521
 30
0.0
  0
SEQEND
  5
33B
  8
0
  0
POLYLINE
  5
33E
  8
0
 66
     1
 10
0.0
 20
0.0
 30
0.0
 70
     1
  0
VERTEX
  5
33F
  8
0
 10
14.58287539906374
 20
23.401541114544511
 30
0.0
  0
VERTEX
  5
340
  8
0
 10
14.58287539906374
 20
23.146541114544512
 30
0.0
  0
VERTEX
  5
342
  8
0
 10
13.59862343055981
 20
23.146541114544512
 30
0.0
  0
VERTEX
  5
343
  8
0
 10
13.59862343055981
 20
23.401541114544511
 30
0.0
  0
SEQEND
  5
341
  8
0
  0
POLYLINE
  5
344
  8
0
 66
     1
 10
0.0
 20
0.0
 30
0.0
 70
     1
  0
VERTEX
  5
345
  8
0
 10
23.362402958118778
 20
4.9960293035209959
 30
0.0
  0
VERTEX
  5
346
  8
0
 10
23.61740295811877
 20
4.9960293035209959
 30
0.0
  0
VERTEX
  5
348
  8
0
 10
23.61740295811877
 20
4.2086277287178513
 30
0.0
  0
VERTEX
  5
349
  8
0
 10
23.362402958118778
 20
4.2086277287178486
 30
0.0
  0
SEQEND
  5
347
  8
0
  0
POLYLINE
  5
34A
  8
0
 66
     1
 10
0.0
 20
0.0
 30
0.0
 70
     1
  0
VERTEX
  5
34B
  8
0
 10
20.961733666780209
 20
4.5235883586390528
 30
0.0
  0
VERTEX
  5
34C
  8
0
 10
20.902678548669972
 20
4.5235883586390528
 30
0.0
  0
VERTEX
  5
34E
  8
0
 10
20.902678548669972
 20
4.6810686735996807
 30
0.0
  0
VERTEX
  5
34F
  8
0
 10
20.961733666780209
 20
4.6810686735996807
 30
0.0
  0
SEQEND
  5
34D
  8
0
  0
POLYLINE
  5
350
  8
0
 66
     1
 10
0.0
 20
0.0
 30
0.0
 70
     1
  0
VERTEX
  5
351
  8
0
 10
23.263977761268379
 20
4.5235883586391079
 30
0.0
  0
VERTEX
  5
352
  8
0
 10
23.204922643158149
 20
4.5235883586391079
 30
0.0
  0
VERTEX
  5
354
  8
0
 10
23.204922643158149
 20
4.6810686735997367
 30
0.0
  0
VERTEX
  5
355
  8
0
 10
23.263977761268379
 20
4.6810686735997358
 30
0.0
  0
SEQEND
  5
353
  8
0
  0
POLYLINE
  5
356
  8
0
 66
     1
 10
0.0
 20
0.0
 30
0.0
 70
     1
  0
VERTEX
  5
357
  8
0
 10
14.01200925733146
 20
23.048115917693739
 30
0.0
  0
VERTEX
  5
358
  8
0
 10
14.16948957229209
 20
23.048115917693739
 30
0.0
  0
VERTEX
  5
35A
  8
0
 10
14.169489572292081
 20
22.989060799583509
 30
0.0
  0
VERTEX
  5
35B
  8
0
 10
14.012009257331449
 20
22.989060799583509
 30
0.0
  0
SEQEND
  5
359
  8
0
  0
POLYLINE
  5
35C
  8
0
 66
     1
 10
0.0
 20
0.0
 30
0.0
 70
     1
  0
VERTEX
  5
35D
  8
0
 10
21.88602500536291
 20
23.048115917693941
 30
0.0
  0
VERTEX
  5
35E
  8
0
 10
22.04350532032354
 20
23.048115917693941
 30
0.0
  0
VERTEX
  5
360
  8
0
 10
22.043505320323529
 20
22.989060799583701
 30
0.0
  0
VERTEX
  5
361
  8
0
 10
21.88602500536291
 20
22.989060799583701
 30
0.0
  0
SEQEND
  5
35F
  8
0
  0
POLYLINE
  5
362
  8
0
 66
     1
 10
0.0
 20
0.0
 30
0.0
 70
     1
  0
VERTEX
  5
363
  8
0
 10
29.917521068354979
 20
22.989060799583889
 30
0.0
  0
VERTEX
  5
364
  8
0
 10
29.76004075339436
 20
22.989060799583889
 30
0.0
  0
VERTEX
  5
366
  8
0
 10
29.76004075339436
 20
23.04811591769413
 30
0.0
  0
VERTEX
  5
367
  8
0
 10
29.917521068354979
 20
23.04811591769413
 30
0.0
  0
SEQEND
  5
365
  8
0
  0
POLYLINE
  5
368
  8
0
 66
     1
 10
0.0
 20
0.0
 30
0.0
 70
     1
  0
VERTEX
  5
369
  8
0
 10
29.917521068354979
 20
23.49996631139491
 30
0.0
  0
VERTEX
  5
36A
  8
0
 10
29.76004075339436
 20
23.49996631139491
 30
0.0
  0
VERTEX
  5
36C
  8
0
 10
29.76004075339436
 20
23.559021429505151
 30
0.0
  0
VERTEX
  5
36D
  8
0
 10
29.917521068354979
 20
23.559021429505151
 30
0.0
  0
SEQEND
  5
36B
  8
0
  0
POLYLINE
  5
36E
  8
0
 66
     1
 10
0.0
 20
0.0
 30
0.0
 70
     1
  0
VERTEX
  5
36F
  8
0
 10
21.88602500536291
 20
23.559021429504959
 30
0.0
  0
VERTEX
  5
370
  8
0
 10
22.04350532032354
 20
23.559021429504959
 30
0.0
  0
VERTEX
  5
372
  8
0
 10
22.043505320323529
 20
23.499966311394719
 30
0.0
  0
VERTEX
  5
373
  8
0
 10
21.88602500536291
 20
23.499966311394719
 30
0.0
  0
SEQEND
  5
371
  8
0
  0
POLYLINE
  5
374
  8
0
 66
     1
 10
0.0
 20
0.0
 30
0.0
 70
     1
  0
VERTEX
  5
375
  8
0
 10
14.01200925733146
 20
23.55902142950476
 30
0.0
  0
VERTEX
  5
376
  8
0
 10
14.16948957229209
 20
23.55902142950476
 30
0.0
  0
VERTEX
  5
378
  8
0
 10
14.169489572292081
 20
23.49996631139453
 30
0.0
  0
VERTEX
  5
379
  8
0
 10
14.012009257331449
 20
23.49996631139453
 30
0.0
  0
SEQEND
  5
377
  8
0
  0
POLYLINE
  5
37A
  8
0
 66
     1
 10
0.0
 20
0.0
 30
0.0
 70
     1
  0
VERTEX
  5
37B
  8
0
 10
23.7748832730794
 20
4.5235883586391088
 30
0.0
  0
VERTEX
  5
37C
  8
0
 10
23.71582815496917
 20
4.5235883586391088
 30
0.0
  0
VERTEX
  5
37E
  8
0
 10
23.71582815496917
 20
4.6810686735997384
 30
0.0
  0
VERTEX
  5
37F
  8
0
 10
23.7748832730794
 20
4.6810686735997367
 30
0.0
  0
SEQEND
  5
37D
  8
0
  0
POLYLINE
  5
380
  8
0
 66
     1
 10
0.0
 20
0.0
 30
0.0
 70
     1
  0
VERTEX
  5
381
  8
0
 10
21.413584060480989
 20
4.6810686735996798
 30
0.0
  0
VERTEX
  5
382
  8
0
 10
21.47263917859123
 20
4.6810686735996798
 30
0.0
  0
VERTEX
  5
384
  8
0
 10
21.47263917859123
 20
4.5235883586390511
 30
0.0
  0
VERTEX
  5
385
  8
0
 10
21.413584060480989
 20
4.523588358639052
 30
0.0
  0
SEQEND
  5
383
  8
0
  0
POLYLINE
  5
386
  8
0
 66
     1
 10
0.0
 20
0.0
 30
0.0
 70
     1
  0
VERTEX
  5
387
  8
0
 10
21.060158863630601
 20
4.9960293035209942
 30
0.0
  0
VERTEX
  5
388
  8
0
 10
21.3151588636306
 20
4.9960293035209942
 30
0.0
  0
VERTEX
  5
38A
  8
0
 10
21.3151588636306
 20
4.2086277287178477
 30
0.0
  0
VERTEX
  5
38B
  8
0
 10
21.060158863630601
 20
4.2086277287178477
 30
0.0
  0
SEQEND
  5
389
  8
0
  0
POLYLINE
  5
38C
  8
0
 66
     1
 10
0.0
 20
0.0
 30
0.0
 70
     1
  0
VERTEX
  5
38D
  8
0
 10
22.456891147095192
 20
23.401541114544521
 30
0.0
  0
VERTEX
  5
38E
  8
0
 10
22.456891147095192
 20
23.146541114544512
 30
0.0
  0
VERTEX
  5
390
  8
0
 10
21.472639178591258
 20
23.146541114544512
 30
0.0
  0
VERTEX
  5
391
  8
0
 10
21.472639178591258
 20
23.401541114544511
 30
0.0
  0
SEQEND
  5
38F
  8
0
  0
POLYLINE
  5
392
  8
0
 66
     1
 10
0.0
 20
0.0
 30
0.0
 70
     1
  0
VERTEX
  5
393
  8
0
 10
32.14193051717384
 20
5.2125647365918661
 30
0.0
  0
VERTEX
  5
394
  8
0
 10
32.14193051717384
 20
5.3700450515524949
 30
0.0
  0
VERTEX
  5
396
  8
0
 10
32.200985635284077
 20
5.3700450515524958
 30
0.0
  0
VERTEX
  5
397
  8
0
 10
32.200985635284077
 20
5.212564736591867
 30
0.0
  0
SEQEND
  5
395
  8
0
  0
POLYLINE
  5
398
  8
0
 66
     1
 10
0.0
 20
0.0
 30
0.0
 70
     1
  0
VERTEX
  5
399
  8
0
 10
24.543505320323501
 20
6.6102025318674453
 30
0.0
  0
VERTEX
  5
39A
  8
0
 10
24.543505320323501
 20
6.6692576499776823
 30
0.0
  0
VERTEX
  5
39C
  8
0
 10
24.70098563528412
 20
6.6692576499776806
 30
0.0
  0
VERTEX
  5
39D
  8
0
 10
24.70098563528412
 20
6.6102025318674418
 30
0.0
  0
SEQEND
  5
39B
  8
0
  0
POLYLINE
  5
39E
  8
0
 66
     1
 10
0.0
 20
0.0
 30
0.0
 70
     1
  0
VERTEX
  5
39F
  8
0
 10
32.200985635284077
 20
10.822800957064279
 30
0.0
  0
VERTEX
  5
3A0
  8
0
 10
32.141930517173861
 20
10.822800957064279
 30
0.0
  0
VERTEX
  5
3A2
  8
0
 10
32.141930517173861
 20
10.9802812720249
 30
0.0
  0
VERTEX
  5
3A3
  8
0
 10
32.200985635284077
 20
10.9802812720249
 30
0.0
  0
SEQEND
  5
3A1
  8
0
  0
POLYLINE
  5
3A4
  8
0
 66
     1
 10
0.0
 20
0.0
 30
0.0
 70
     1
  0
VERTEX
  5
3A5
  8
0
 10
32.141930517173869
 20
22.043273398009099
 30
0.0
  0
VERTEX
  5
3A6
  8
0
 10
32.141930517173869
 20
22.200753712969721
 30
0.0
  0
VERTEX
  5
3A8
  8
0
 10
32.200985635284113
 20
22.200753712969728
 30
0.0
  0
VERTEX
  5
3A9
  8
0
 10
32.20098563528412
 20
22.043273398009099
 30
0.0
  0
SEQEND
  5
3A7
  8
0
  0
POLYLINE
  5
3AA
  8
0
 66
     1
 10
0.0
 20
0.0
 30
0.0
 70
     1
  0
VERTEX
  5
3AB
  8
0
 10
32.200985635284098
 20
16.433037177536679
 30
0.0
  0
VERTEX
  5
3AC
  8
0
 10
32.141930517173869
 20
16.433037177536679
 30
0.0
  0
VERTEX
  5
3AE
  8
0
 10
32.141930517173861
 20
16.590517492497309
 30
0.0
  0
VERTEX
  5
3AF
  8
0
 10
32.200985635284098
 20
16.590517492497309
 30
0.0
  0
SEQEND
  5
3AD
  8
0
  0
POLYLINE
  5
3B0
  8
0
 66
     1
 10
0.0
 20
0.0
 30
0.0
 70
     1
  0
VERTEX
  5
3B1
  8
0
 10
11.7285446904023
 20
5.2125647365918502
 30
0.0
  0
VERTEX
  5
3B2
  8
0
 10
11.7285446904023
 20
5.370045051552478
 30
0.0
  0
VERTEX
  5
3B4
  8
0
 10
11.787599808512541
 20
5.370045051552478
 30
0.0
  0
VERTEX
  5
3B5
  8
0
 10
11.787599808512541
 20
5.2125647365918493
 30
0.0
  0
SEQEND
  5
3B3
  8
0
  0
POLYLINE
  5
3B6
  8
0
 66
     1
 10
0.0
 20
0.0
 30
0.0
 70
     1
  0
VERTEX
  5
3B7
  8
0
 10
11.72854469040232
 20
16.433037177536669
 30
0.0
  0
VERTEX
  5
3B8
  8
0
 10
11.72854469040232
 20
16.590517492497298
 30
0.0
  0
VERTEX
  5
3BA
  8
0
 10
11.78759980851256
 20
16.590517492497298
 30
0.0
  0
VERTEX
  5
3BB
  8
0
 10
11.78759980851256
 20
16.433037177536669
 30
0.0
  0
SEQEND
  5
3B9
  8
0
  0
POLYLINE
  5
3BC
  8
0
 66
     1
 10
0.0
 20
0.0
 30
0.0
 70
     1
  0
VERTEX
  5
3BD
  8
0
 10
11.72854469040233
 20
22.043273398009081
 30
0.0
  0
VERTEX
  5
3BE
  8
0
 10
11.72854469040233
 20
22.200753712969711
 30
0.0
  0
VERTEX
  5
3C0
  8
0
 10
11.78759980851256
 20
22.200753712969711
 30
0.0
  0
VERTEX
  5
3C1
  8
0
 10
11.78759980851256
 20
22.043273398009081
 30
0.0
  0
SEQEND
  5
3BF
  8
0
  0
POLYLINE
  5
3C2
  8
0
 66
     1
 10
0.0
 20
0.0
 30
0.0
 70
     1
  0
VERTEX
  5
3C3
  8
0
 10
11.728544690402311
 20
10.82280095706426
 30
0.0
  0
VERTEX
  5
3C4
  8
0
 10
11.728544690402311
 20
10.980281272024889
 30
0.0
  0
VERTEX
  5
3C6
  8
0
 10
11.78759980851255
 20
10.980281272024889
 30
0.0
  0
VERTEX
  5
3C7
  8
0
 10
11.78759980851255
 20
10.82280095706426
 30
0.0
  0
SEQEND
  5
3C5
  8
0
  0
POLYLINE
  5
3C8
  8
0
 66
     1
 10
0.0
 20
0.0
 30
0.0
 70
     1
  0
VERTEX
  5
3C9
  8
0
 10
19.228544690402259
 20
6.61020253186744
 30
0.0
  0
VERTEX
  5
3CA
  8
0
 10
19.228544690402259
 20
6.669257649977677
 30
0.0
  0
VERTEX
  5
3CC
  8
0
 10
19.386025005362889
 20
6.6692576499776752
 30
0.0
  0
VERTEX
  5
3CD
  8
0
 10
19.386025005362889
 20
6.6102025318674382
 30
0.0
  0
SEQEND
  5
3CB
  8
0
  0
POLYLINE
  5
3CE
  8
0
 66
     1
 10
0.0
 20
0.0
 30
0.0
 70
     1
  0
VERTEX
  5
3CF
  8
0
 10
27.082875399063639
 20
9.2283127680879051
 30
0.0
 42
-0.4103709024279303
  0
VERTEX
  5
3D0
  8
0
 10
28.05419716580592
 20
10.2124798003473
 30
0.0
  0
VERTEX
  5
3D2
  8
0
 10
28.05419716580591
 20
9.8188639491902645
 30
0.0
  0
VERTEX
  5
3D3
  8
0
 10
28.27690796303003
 20
9.8188639491902645
 30
0.0
  0
VERTEX
  5
3D4
  8
0
 10
28.27690796303003
 20
10.21256473659183
 30
0.0
  0
VERTEX
  5
3D5
  8
0
 10
29.346654926622691
 20
10.21256473659184
 30
0.0
 42
0.4142135623730909
  0
VERTEX
  5
3D6
  8
0
 10
29.543505320323469
 20
10.40941513029262
 30
0.0
  0
VERTEX
  5
3D7
  8
0
 10
29.54350532032349
 20
20.64563560273352
 30
0.0
 42
0.4142135623730951
  0
VERTEX
  5
3D8
  8
0
 10
29.346654926622701
 20
20.842485996434299
 30
0.0
  0
VERTEX
  5
3D9
  8
0
 10
28.276907963030041
 20
20.842485996434299
 30
0.0
  0
VERTEX
  5
3DA
  8
0
 10
28.276907963030041
 20
21.236186783835869
 30
0.0
  0
VERTEX
  5
3DB
  8
0
 10
28.054197165805931
 20
21.236186783835869
 30
0.0
  0
VERTEX
  5
3DC
  8
0
 10
28.054197165805931
 20
20.842485996434299
 30
0.0
  0
VERTEX
  5
3DD
  8
0
 10
15.875333159880499
 20
20.842485996434291
 30
0.0
  0
VERTEX
  5
3DE
  8
0
 10
15.875333159880499
 20
21.236186783835858
 30
0.0
  0
VERTEX
  5
3DF
  8
0
 10
15.6526223626564
 20
21.236186783835858
 30
0.0
  0
VERTEX
  5
3E0
  8
0
 10
15.652622362656389
 20
20.842485996434281
 30
0.0
  0
VERTEX
  5
3E1
  8
0
 10
14.582875399063729
 20
20.842485996434281
 30
0.0
 42
0.4142135623730868
  0
VERTEX
  5
3E2
  8
0
 10
14.38602500536294
 20
20.645635602733499
 30
0.0
  0
VERTEX
  5
3E3
  8
0
 10
14.38602500536293
 20
10.40941513029261
 30
0.0
 42
0.414213562373093
  0
VERTEX
  5
3E4
  8
0
 10
14.58287539906371
 20
10.212564736591821
 30
0.0
  0
VERTEX
  5
3E5
  8
0
 10
15.652622362656381
 20
10.212564736591821
 30
0.0
  0
VERTEX
  5
3E6
  8
0
 10
15.652622362656381
 20
9.8188639491902538
 30
0.0
  0
VERTEX
  5
3E7
  8
0
 10
15.87533315988048
 20
9.8188639491902538
 30
0.0
  0
VERTEX
  5
3E8
  8
0
 10
15.87533315988048
 20
10.212479800347291
 30
0.0
 42
-0.410370902427929
  0
VERTEX
  5
3E9
  8
0
 10
16.846654926622762
 20
9.228312768087898
 30
0.0
  0
VERTEX
  5
3EA
  8
0
 10
16.846654926622751
 20
6.767682846828067
 30
0.0
  0
VERTEX
  5
3EB
  8
0
 10
18.815158863630611
 20
6.7676828468280679
 30
0.0
  0
VERTEX
  5
3EC
  8
0
 10
18.815158863630611
 20
7.0226828468280686
 30
0.0
  0
VERTEX
  5
3ED
  8
0
 10
19.799410832134541
 20
7.0226828468280704
 30
0.0
  0
VERTEX
  5
3EE
  8
0
 10
19.799410832134541
 20
6.7676828468280679
 30
0.0
  0
VERTEX
  5
3EF
  8
0
 10
24.130119493551842
 20
6.7676828468280723
 30
0.0
  0
VERTEX
  5
3F0
  8
0
 10
24.130119493551842
 20
7.0226828468280722
 30
0.0
  0
VERTEX
  5
3F1
  8
0
 10
25.114371462055779
 20
7.022682846828074
 30
0.0
  0
VERTEX
  5
3F2
  8
0
 10
25.114371462055779
 20
6.7676828468280741
 30
0.0
  0
VERTEX
  5
3F3
  8
0
 10
27.082875399063639
 20
6.7676828468280767
 30
0.0
  0
SEQEND
  5
3D1
  8
0
  0
POLYLINE
  5
3F4
  8
0
 66
     1
 10
0.0
 20
0.0
 30
0.0
 70
     1
  0
VERTEX
  5
3F5
  8
0
 10
28.323032879378601
 20
9.9369741854107367
 30
0.0
  0
VERTEX
  5
3F6
  8
0
 10
28.323032879378601
 20
10.094454500371359
 30
0.0
  0
VERTEX
  5
3F8
  8
0
 10
28.382087997488831
 20
10.094454500371359
 30
0.0
  0
VERTEX
  5
3F9
  8
0
 10
28.382087997488831
 20
9.9369741854107385
 30
0.0
  0
SEQEND
  5
3F7
  8
0
  0
POLYLINE
  5
3FA
  8
0
 66
     1
 10
0.0
 20
0.0
 30
0.0
 70
     1
  0
VERTEX
  5
3FB
  8
0
 10
28.008072249457339
 20
9.9369741854107367
 30
0.0
  0
VERTEX
  5
3FC
  8
0
 10
27.949017131347102
 20
9.9369741854107367
 30
0.0
  0
VERTEX
  5
3FE
  8
0
 10
27.949017131347102
 20
10.094454500371359
 30
0.0
  0
VERTEX
  5
3FF
  8
0
 10
28.008072249457339
 20
10.094454500371359
 30
0.0
  0
SEQEND
  5
3FD
  8
0
  0
POLYLINE
  5
400
  8
0
 66
     1
 10
0.0
 20
0.0
 30
0.0
 70
     1
  0
VERTEX
  5
401
  8
0
 10
28.323032879378609
 20
20.960596232654769
 30
0.0
  0
VERTEX
  5
402
  8
0
 10
28.323032879378609
 20
21.118076547615399
 30
0.0
  0
VERTEX
  5
404
  8
0
 10
28.382087997488849
 20
21.118076547615399
 30
0.0
  0
VERTEX
  5
405
  8
0
 10
28.382087997488849
 20
20.960596232654769
 30
0.0
  0
SEQEND
  5
403
  8
0
  0
POLYLINE
  5
406
  8
0
 66
     1
 10
0.0
 20
0.0
 30
0.0
 70
     1
  0
VERTEX
  5
407
  8
0
 10
27.949017131347119
 20
21.118076547615399
 30
0.0
  0
VERTEX
  5
408
  8
0
 10
28.008072249457349
 20
21.118076547615399
 30
0.0
  0
VERTEX
  5
40A
  8
0
 10
28.008072249457349
 20
20.960596232654769
 30
0.0
  0
VERTEX
  5
40B
  8
0
 10
27.949017131347119
 20
20.960596232654769
 30
0.0
  0
SEQEND
  5
409
  8
0
  0
POLYLINE
  5
40C
  8
0
 66
     1
 10
0.0
 20
0.0
 30
0.0
 70
     1
  0
VERTEX
  5
40D
  8
0
 10
15.606497446307801
 20
10.09445450037135
 30
0.0
  0
VERTEX
  5
40E
  8
0
 10
15.606497446307801
 20
9.9369741854107279
 30
0.0
  0
VERTEX
  5
410
  8
0
 10
15.54744232819756
 20
9.9369741854107261
 30
0.0
  0
VERTEX
  5
411
  8
0
 10
15.54744232819756
 20
10.09445450037135
 30
0.0
  0
SEQEND
  5
40F
  8
0
  0
POLYLINE
  5
412
  8
0
 66
     1
 10
0.0
 20
0.0
 30
0.0
 70
     1
  0
VERTEX
  5
413
  8
0
 10
15.9805131943393
 20
9.9369741854107261
 30
0.0
  0
VERTEX
  5
414
  8
0
 10
15.92145807622906
 20
9.9369741854107261
 30
0.0
  0
VERTEX
  5
416
  8
0
 10
15.92145807622906
 20
10.09445450037135
 30
0.0
  0
VERTEX
  5
417
  8
0
 10
15.9805131943393
 20
10.09445450037135
 30
0.0
  0
SEQEND
  5
415
  8
0
  0
POLYLINE
  5
418
  8
0
 66
     1
 10
0.0
 20
0.0
 30
0.0
 70
     1
  0
VERTEX
  5
419
  8
0
 10
15.54744232819758
 20
20.960596232654758
 30
0.0
  0
VERTEX
  5
41A
  8
0
 10
15.54744232819758
 20
21.118076547615392
 30
0.0
  0
VERTEX
  5
41C
  8
0
 10
15.60649744630782
 20
21.118076547615392
 30
0.0
  0
VERTEX
  5
41D
  8
0
 10
15.60649744630782
 20
20.960596232654758
 30
0.0
  0
SEQEND
  5
41B
  8
0
  0
POLYLINE
  5
41E
  8
0
 66
     1
 10
0.0
 20
0.0
 30
0.0
 70
     1
  0
VERTEX
  5
41F
  8
0
 10
15.980513194339309
 20
21.118076547615392
 30
0.0
  0
VERTEX
  5
420
  8
0
 10
15.980513194339309
 20
20.960596232654758
 30
0.0
  0
VERTEX
  5
422
  8
0
 10
15.921458076229079
 20
20.960596232654758
 30
0.0
  0
VERTEX
  5
423
  8
0
 10
15.92145807622907
 20
21.118076547615392
 30
0.0
  0
SEQEND
  5
421
  8
0
  0
POLYLINE
  5
424
  8
0
 66
     1
 10
0.0
 20
0.0
 30
0.0
  0
VERTEX
  5
425
  8
0
 10
32.29941083213447
 20
3.814926941316287
 30
0.0
  0
VERTEX
  5
426
  8
0
 10
32.29941083213447
 20
4.7991789098202151
 30
0.0
  0
VERTEX
  5
428
  8
0
 10
32.554410832134472
 20
4.7991789098202151
 30
0.0
  0
VERTEX
  5
429
  8
0
 10
32.554410832134472
 20
5.7834308783241459
 30
0.0
  0
VERTEX
  5
42A
  8
0
 10
32.29941083213447
 20
5.7834308783241468
 30
0.0
  0
VERTEX
  5
42B
  8
0
 10
32.299410832134477
 20
10.40941513029262
 30
0.0
  0
VERTEX
  5
42C
  8
0
 10
32.554410832134472
 20
10.40941513029262
 30
0.0
  0
VERTEX
  5
42D
  8
0
 10
32.554410832134479
 20
11.393667098796559
 30
0.0
  0
VERTEX
  5
42E
  8
0
 10
32.299410832134491
 20
11.39366709879655
 30
0.0
  0
VERTEX
  5
42F
  8
0
 10
32.299410832134491
 20
16.019651350765031
 30
0.0
  0
VERTEX
  5
430
  8
0
 10
32.554410832134486
 20
16.019651350765031
 30
0.0
  0
VERTEX
  5
431
  8
0
 10
32.554410832134501
 20
17.003903319268961
 30
0.0
  0
VERTEX
  5
432
  8
0
 10
32.299410832134491
 20
17.003903319268961
 30
0.0
  0
VERTEX
  5
433
  8
0
 10
32.299410832134498
 20
21.62988757123744
 30
0.0
  0
VERTEX
  5
434
  8
0
 10
32.554410832134501
 20
21.62988757123745
 30
0.0
  0
VERTEX
  5
435
  8
0
 10
32.554410832134501
 20
22.61413953974138
 30
0.0
  0
VERTEX
  5
436
  8
0
 10
32.299410832134498
 20
22.61413953974138
 30
0.0
  0
VERTEX
  5
437
  8
0
 10
32.299410832134498
 20
23.59839150824531
 30
0.0
  0
VERTEX
  5
438
  8
0
 10
11.630119493551939
 20
23.598391508245289
 30
0.0
  0
VERTEX
  5
439
  8
0
 10
11.630119493551939
 20
22.614139539741359
 30
0.0
  0
VERTEX
  5
43A
  8
0
 10
11.37511949355194
 20
22.614139539741359
 30
0.0
  0
VERTEX
  5
43B
  8
0
 10
11.37511949355194
 20
21.629887571237429
 30
0.0
  0
VERTEX
  5
43C
  8
0
 10
11.630119493551939
 20
21.629887571237429
 30
0.0
  0
VERTEX
  5
43D
  8
0
 10
11.630119493551931
 20
17.00390331926895
 30
0.0
  0
VERTEX
  5
43E
  8
0
 10
11.37511949355193
 20
17.00390331926895
 30
0.0
  0
VERTEX
  5
43F
  8
0
 10
11.37511949355193
 20
16.01965135076502
 30
0.0
  0
VERTEX
  5
440
  8
0
 10
11.630119493551931
 20
16.01965135076502
 30
0.0
  0
VERTEX
  5
441
  8
0
 10
11.63011949355192
 20
11.39366709879654
 30
0.0
  0
VERTEX
  5
442
  8
0
 10
11.375119493551921
 20
11.39366709879654
 30
0.0
  0
VERTEX
  5
443
  8
0
 10
11.375119493551921
 20
10.40941513029261
 30
0.0
  0
VERTEX
  5
444
  8
0
 10
11.63011949355192
 20
10.40941513029261
 30
0.0
  0
VERTEX
  5
445
  8
0
 10
11.630119493551909
 20
5.7834308783241299
 30
0.0
  0
VERTEX
  5
446
  8
0
 10
11.37511949355191
 20
5.7834308783241299
 30
0.0
  0
VERTEX
  5
447
  8
0
 10
11.37511949355191
 20
4.7991789098201991
 30
0.0
  0
VERTEX
  5
448
  8
0
 10
11.630119493551909
 20
4.7991789098201991
 30
0.0
  0
VERTEX
  5
449
  8
0
 10
11.630119493551909
 20
3.8149269413162679
 30
0.0
  0
VERTEX
  5
44A
  8
0
 10
32.29941083213447
 20
3.814926941316287
 30
0.0
  0
VERTEX
  5
44B
  8
0
 10
11.630119493551909
 20
3.8149269413162679
 30
0.0
  0
SEQEND
  5
427
  8
0
  0
POLYLINE
  5
44C
  8
0
 66
     1
 10
0.0
 20
0.0
 30
0.0
 70
     1
  0
VERTEX
  5
44D
  8
0
 10
14.28783033734476
 20
-0.5388276251397628
 30
0.0
  0
VERTEX
  5
44E
  8
0
 10
11.080074431832969
 20
-0.5388276251397741
 30
0.0
  0
VERTEX
  5
450
  8
0
 10
11.08007443183299
 20
-1.523079593643734
 30
0.0
 42
-0.1857849724728613
  0
VERTEX
  5
451
  8
0
 10
11.08007443183303
 20
-7.8804417983681541
 30
0.0
  0
VERTEX
  5
452
  8
0
 10
11.08007443183299
 20
-8.8646937668720422
 30
0.0
  0
VERTEX
  5
453
  8
0
 10
30.863538998761971
 20
-8.8646937668719747
 30
0.0
  0
VERTEX
  5
454
  8
0
 10
30.863538998761971
 20
-5.460087467659382
 30
0.0
  0
SEQEND
  5
44F
  8
0
  0
POLYLINE
  5
455
  8
0
 66
     1
 10
0.0
 20
0.0
 30
0.0
 70
     1
  0
VERTEX
  5
456
  8
0
 10
27.555316343945641
 20
18.056018794191559
 30
0.0
  0
VERTEX
  5
457
  8
0
 10
27.397836028985012
 20
18.056018794191559
 30
0.0
  0
VERTEX
  5
459
  8
0
 10
27.397836028985012
 20
18.115073912301799
 30
0.0
  0
VERTEX
  5
45A
  8
0
 10
27.555316343945641
 20
18.115073912301799
 30
0.0
  0
SEQEND
  5
458
  8
0
  0
POLYLINE
  5
45B
  8
0
 66
     1
 10
0.0
 20
0.0
 30
0.0
 70
     1
  0
VERTEX
  5
45C
  8
0
 10
27.555316343945641
 20
18.489089660333288
 30
0.0
  0
VERTEX
  5
45D
  8
0
 10
27.555316343945641
 20
18.430034542223058
 30
0.0
  0
VERTEX
  5
45F
  8
0
 10
27.397836028985012
 20
18.430034542223058
 30
0.0
  0
VERTEX
  5
460
  8
0
 10
27.397836028985012
 20
18.489089660333288
 30
0.0
  0
SEQEND
  5
45E
  8
0
  0
POLYLINE
  5
461
  8
0
 66
     1
 10
0.0
 20
0.0
 30
0.0
 70
     1
  0
VERTEX
  5
462
  8
0
 10
28.46082815496926
 20
18.804050290254551
 30
0.0
  0
VERTEX
  5
463
  8
0
 10
28.5198832730795
 20
18.804050290254551
 30
0.0
  0
VERTEX
  5
465
  8
0
 10
28.5198832730795
 20
18.646569975293922
 30
0.0
  0
VERTEX
  5
466
  8
0
 10
28.46082815496926
 20
18.646569975293922
 30
0.0
  0
SEQEND
  5
464
  8
0
  0
POLYLINE
  5
467
  8
0
 66
     1
 10
0.0
 20
0.0
 30
0.0
 70
     1
  0
VERTEX
  5
468
  8
0
 10
27.870276973866901
 20
18.804050290254551
 30
0.0
  0
VERTEX
  5
469
  8
0
 10
27.870276973866901
 20
18.646569975293922
 30
0.0
  0
VERTEX
  5
46B
  8
0
 10
27.81122185575666
 20
18.646569975293922
 30
0.0
  0
VERTEX
  5
46C
  8
0
 10
27.811221855756671
 20
18.804050290254551
 30
0.0
  0
SEQEND
  5
46A
  8
0
  0
POLYLINE
  5
46D
  8
0
 66
     1
 10
0.0
 20
0.0
 30
0.0
 70
     1
  0
VERTEX
  5
46E
  8
0
 10
28.5198832730795
 20
18.095388872931721
 30
0.0
  0
VERTEX
  5
46F
  8
0
 10
28.46082815496926
 20
18.095388872931721
 30
0.0
  0
VERTEX
  5
471
  8
0
 10
28.46082815496926
 20
18.252869187892351
 30
0.0
  0
VERTEX
  5
472
  8
0
 10
28.5198832730795
 20
18.252869187892351
 30
0.0
  0
SEQEND
  5
470
  8
0
  0
POLYLINE
  5
473
  8
0
 66
     1
 10
0.0
 20
0.0
 30
0.0
 70
     1
  0
VERTEX
  5
474
  8
0
 10
27.81122185575666
 20
18.095388872931721
 30
0.0
  0
VERTEX
  5
475
  8
0
 10
27.81122185575666
 20
18.252869187892351
 30
0.0
  0
VERTEX
  5
477
  8
0
 10
27.870276973866901
 20
18.252869187892351
 30
0.0
  0
VERTEX
  5
478
  8
0
 10
27.870276973866901
 20
18.095388872931721
 30
0.0
  0
SEQEND
  5
476
  8
0
  0
POLYLINE
  5
479
  8
0
 66
     1
 10
0.0
 20
0.0
 30
0.0
 70
     1
  0
VERTEX
  5
47A
  8
0
 10
27.397836028985012
 20
20.45759359734117
 30
0.0
  0
VERTEX
  5
47B
  8
0
 10
27.555316343945648
 20
20.45759359734117
 30
0.0
  0
VERTEX
  5
47D
  8
0
 10
27.555316343945641
 20
20.398538479230929
 30
0.0
  0
VERTEX
  5
47E
  8
0
 10
27.397836028985012
 20
20.398538479230929
 30
0.0
  0
SEQEND
  5
47C
  8
0
  0
POLYLINE
  5
47F
  8
0
 66
     1
 10
0.0
 20
0.0
 30
0.0
 70
     1
  0
VERTEX
  5
480
  8
0
 10
27.811221855756671
 20
20.41822351860101
 30
0.0
  0
VERTEX
  5
481
  8
0
 10
27.870276973866911
 20
20.41822351860101
 30
0.0
  0
VERTEX
  5
483
  8
0
 10
27.870276973866901
 20
20.260743203640381
 30
0.0
  0
VERTEX
  5
484
  8
0
 10
27.81122185575666
 20
20.260743203640381
 30
0.0
  0
SEQEND
  5
482
  8
0
  0
POLYLINE
  5
485
  8
0
 66
     1
 10
0.0
 20
0.0
 30
0.0
 70
     1
  0
VERTEX
  5
486
  8
0
 10
28.46082815496926
 20
20.41822351860101
 30
0.0
  0
VERTEX
  5
487
  8
0
 10
28.5198832730795
 20
20.41822351860101
 30
0.0
  0
VERTEX
  5
489
  8
0
 10
28.5198832730795
 20
20.260743203640381
 30
0.0
  0
VERTEX
  5
48A
  8
0
 10
28.46082815496926
 20
20.26074320364037
 30
0.0
  0
SEQEND
  5
488
  8
0
  0
POLYLINE
  5
48B
  8
0
 66
     1
 10
0.0
 20
0.0
 30
0.0
 70
     1
  0
VERTEX
  5
48C
  8
0
 10
27.870276973866901
 20
19.70956210127817
 30
0.0
  0
VERTEX
  5
48D
  8
0
 10
27.81122185575666
 20
19.70956210127817
 30
0.0
  0
VERTEX
  5
48F
  8
0
 10
27.811221855756671
 20
19.8670424162388
 30
0.0
  0
VERTEX
  5
490
  8
0
 10
27.870276973866911
 20
19.86704241623881
 30
0.0
  0
SEQEND
  5
48E
  8
0
  0
POLYLINE
  5
491
  8
0
 66
     1
 10
0.0
 20
0.0
 30
0.0
 70
     1
  0
VERTEX
  5
492
  8
0
 10
28.5198832730795
 20
19.70956210127817
 30
0.0
  0
VERTEX
  5
493
  8
0
 10
28.46082815496926
 20
19.70956210127817
 30
0.0
  0
VERTEX
  5
495
  8
0
 10
28.46082815496926
 20
19.8670424162388
 30
0.0
  0
VERTEX
  5
496
  8
0
 10
28.5198832730795
 20
19.8670424162388
 30
0.0
  0
SEQEND
  5
494
  8
0
  0
POLYLINE
  5
497
  8
0
 66
     1
 10
0.0
 20
0.0
 30
0.0
 70
     1
  0
VERTEX
  5
498
  8
0
 10
27.555316343945641
 20
20.02452273119944
 30
0.0
  0
VERTEX
  5
499
  8
0
 10
27.397836028985012
 20
20.02452273119944
 30
0.0
  0
VERTEX
  5
49B
  8
0
 10
27.397836028985012
 20
20.08357784930967
 30
0.0
  0
VERTEX
  5
49C
  8
0
 10
27.555316343945648
 20
20.08357784930967
 30
0.0
  0
SEQEND
  5
49A
  8
0
  0
POLYLINE
  5
49D
  8
0
 66
     1
 10
0.0
 20
0.0
 30
0.0
 70
     1
  0
VERTEX
  5
49E
  8
0
 10
16.37421398174093
 20
20.45759359734118
 30
0.0
  0
VERTEX
  5
49F
  8
0
 10
16.531694296701559
 20
20.45759359734118
 30
0.0
  0
VERTEX
  5
4A1
  8
0
 10
16.531694296701559
 20
20.39853847923094
 30
0.0
  0
VERTEX
  5
4A2
  8
0
 10
16.37421398174093
 20
20.39853847923094
 30
0.0
  0
SEQEND
  5
4A0
  8
0
  0
POLYLINE
  5
4A3
  8
0
 66
     1
 10
0.0
 20
0.0
 30
0.0
 70
     1
  0
VERTEX
  5
4A4
  8
0
 10
16.37421398174093
 20
20.02452273119945
 30
0.0
  0
VERTEX
  5
4A5
  8
0
 10
16.37421398174093
 20
20.08357784930968
 30
0.0
  0
VERTEX
  5
4A7
  8
0
 10
16.531694296701559
 20
20.08357784930968
 30
0.0
  0
VERTEX
  5
4A8
  8
0
 10
16.531694296701559
 20
20.02452273119945
 30
0.0
  0
SEQEND
  5
4A6
  8
0
  0
POLYLINE
  5
4A9
  8
0
 66
     1
 10
0.0
 20
0.0
 30
0.0
 70
     1
  0
VERTEX
  5
4AA
  8
0
 10
15.468702170717309
 20
19.709562101278191
 30
0.0
  0
VERTEX
  5
4AB
  8
0
 10
15.40964705260707
 20
19.709562101278191
 30
0.0
  0
VERTEX
  5
4AD
  8
0
 10
15.40964705260707
 20
19.867042416238821
 30
0.0
  0
VERTEX
  5
4AE
  8
0
 10
15.468702170717309
 20
19.867042416238821
 30
0.0
  0
SEQEND
  5
4AC
  8
0
  0
POLYLINE
  5
4AF
  8
0
 66
     1
 10
0.0
 20
0.0
 30
0.0
 70
     1
  0
VERTEX
  5
4B0
  8
0
 10
16.05925335181967
 20
19.709562101278191
 30
0.0
  0
VERTEX
  5
4B1
  8
0
 10
16.05925335181967
 20
19.867042416238821
 30
0.0
  0
VERTEX
  5
4B3
  8
0
 10
16.1183084699299
 20
19.867042416238821
 30
0.0
  0
VERTEX
  5
4B4
  8
0
 10
16.1183084699299
 20
19.709562101278191
 30
0.0
  0
SEQEND
  5
4B2
  8
0
  0
POLYLINE
  5
4B5
  8
0
 66
     1
 10
0.0
 20
0.0
 30
0.0
 70
     1
  0
VERTEX
  5
4B6
  8
0
 10
15.40964705260707
 20
20.418223518601032
 30
0.0
  0
VERTEX
  5
4B7
  8
0
 10
15.468702170717309
 20
20.418223518601032
 30
0.0
  0
VERTEX
  5
4B9
  8
0
 10
15.468702170717309
 20
20.260743203640398
 30
0.0
  0
VERTEX
  5
4BA
  8
0
 10
15.40964705260707
 20
20.260743203640398
 30
0.0
  0
SEQEND
  5
4B8
  8
0
  0
POLYLINE
  5
4BB
  8
0
 66
     1
 10
0.0
 20
0.0
 30
0.0
 70
     1
  0
VERTEX
  5
4BC
  8
0
 10
16.1183084699299
 20
20.418223518601032
 30
0.0
  0
VERTEX
  5
4BD
  8
0
 10
16.1183084699299
 20
20.260743203640398
 30
0.0
  0
VERTEX
  5
4BF
  8
0
 10
16.05925335181967
 20
20.260743203640391
 30
0.0
  0
VERTEX
  5
4C0
  8
0
 10
16.05925335181967
 20
20.418223518601021
 30
0.0
  0
SEQEND
  5
4BE
  8
0
  0
POLYLINE
  5
4C1
  8
0
 66
     1
 10
0.0
 20
0.0
 30
0.0
 70
     1
  0
VERTEX
  5
4C2
  8
0
 10
16.531694296701559
 20
18.05601879419158
 30
0.0
  0
VERTEX
  5
4C3
  8
0
 10
16.37421398174093
 20
18.05601879419158
 30
0.0
  0
VERTEX
  5
4C5
  8
0
 10
16.374213981740919
 20
18.115073912301821
 30
0.0
  0
VERTEX
  5
4C6
  8
0
 10
16.531694296701559
 20
18.115073912301821
 30
0.0
  0
SEQEND
  5
4C4
  8
0
  0
POLYLINE
  5
4C7
  8
0
 66
     1
 10
0.0
 20
0.0
 30
0.0
 70
     1
  0
VERTEX
  5
4C8
  8
0
 10
16.1183084699299
 20
18.095388872931739
 30
0.0
  0
VERTEX
  5
4C9
  8
0
 10
16.05925335181967
 20
18.095388872931739
 30
0.0
  0
VERTEX
  5
4CB
  8
0
 10
16.05925335181966
 20
18.252869187892369
 30
0.0
  0
VERTEX
  5
4CC
  8
0
 10
16.1183084699299
 20
18.252869187892369
 30
0.0
  0
SEQEND
  5
4CA
  8
0
  0
POLYLINE
  5
4CD
  8
0
 66
     1
 10
0.0
 20
0.0
 30
0.0
 70
     1
  0
VERTEX
  5
4CE
  8
0
 10
15.468702170717309
 20
18.095388872931739
 30
0.0
  0
VERTEX
  5
4CF
  8
0
 10
15.40964705260707
 20
18.095388872931739
 30
0.0
  0
VERTEX
  5
4D1
  8
0
 10
15.40964705260707
 20
18.252869187892369
 30
0.0
  0
VERTEX
  5
4D2
  8
0
 10
15.468702170717309
 20
18.252869187892369
 30
0.0
  0
SEQEND
  5
4D0
  8
0
  0
POLYLINE
  5
4D3
  8
0
 66
     1
 10
0.0
 20
0.0
 30
0.0
 70
     1
  0
VERTEX
  5
4D4
  8
0
 10
16.05925335181967
 20
18.804050290254569
 30
0.0
  0
VERTEX
  5
4D5
  8
0
 10
16.1183084699299
 20
18.804050290254569
 30
0.0
  0
VERTEX
  5
4D7
  8
0
 10
16.1183084699299
 20
18.646569975293939
 30
0.0
  0
VERTEX
  5
4D8
  8
0
 10
16.05925335181967
 20
18.646569975293939
 30
0.0
  0
SEQEND
  5
4D6
  8
0
  0
POLYLINE
  5
4D9
  8
0
 66
     1
 10
0.0
 20
0.0
 30
0.0
 70
     1
  0
VERTEX
  5
4DA
  8
0
 10
15.40964705260707
 20
18.804050290254569
 30
0.0
  0
VERTEX
  5
4DB
  8
0
 10
15.468702170717309
 20
18.804050290254569
 30
0.0
  0
VERTEX
  5
4DD
  8
0
 10
15.468702170717309
 20
18.646569975293939
 30
0.0
  0
VERTEX
  5
4DE
  8
0
 10
15.40964705260707
 20
18.646569975293939
 30
0.0
  0
SEQEND
  5
4DC
  8
0
  0
POLYLINE
  5
4DF
  8
0
 66
     1
 10
0.0
 20
0.0
 30
0.0
 70
     1
  0
VERTEX
  5
4E0
  8
0
 10
16.374213981740919
 20
18.48908966033331
 30
0.0
  0
VERTEX
  5
4E1
  8
0
 10
16.531694296701549
 20
18.48908966033331
 30
0.0
  0
VERTEX
  5
4E3
  8
0
 10
16.531694296701559
 20
18.430034542223069
 30
0.0
  0
VERTEX
  5
4E4
  8
0
 10
16.374213981740919
 20
18.430034542223069
 30
0.0
  0
SEQEND
  5
4E2
  8
0
  0
POLYLINE
  5
4E5
  8
0
 66
     1
 10
0.0
 20
0.0
 30
0.0
 70
     1
  0
VERTEX
  5
4E6
  8
0
 10
29.248229729772412
 20
20.63475895167187
 30
0.0
  0
VERTEX
  5
4E7
  8
0
 10
14.68130059591415
 20
20.634758951671891
 30
0.0
 42
0.4142135623730951
  0
VERTEX
  5
4E9
  8
0
 10
14.48445020221337
 20
20.437908557971099
 30
0.0
  0
VERTEX
  5
4EA
  8
0
 10
14.48445020221337
 20
18.075703833561661
 30
0.0
 42
0.4142135623730951
  0
VERTEX
  5
4EB
  8
0
 10
14.68130059591415
 20
17.878853439860869
 30
0.0
  0
VERTEX
  5
4EC
  8
0
 10
29.248229729772412
 20
17.878853439860851
 30
0.0
 42
0.4142135623730951
  0
VERTEX
  5
4ED
  8
0
 10
29.4450801234732
 20
18.07570383356164
 30
0.0
  0
VERTEX
  5
4EE
  8
0
 10
29.4450801234732
 20
20.437908557971081
 30
0.0
 42
0.4142135623730992
  0
SEQEND
  5
4E8
  8
0
  0
POLYLINE
  5
4EF
  8
0
 66
     1
 10
0.0
 20
0.0
 30
0.0
 70
     1
  0
VERTEX
  5
4F0
  8
0
 10
17.367209071449029
 20
14.359755022726061
 30
0.0
 42
-0.4142135623730951
  0
VERTEX
  5
4F1
  8
0
 10
17.170358677748251
 20
14.556605416426841
 30
0.0
  0
VERTEX
  5
4F3
  8
0
 10
17.170358677748251
 20
15.81644793611188
 30
0.0
 42
-0.4142135623730951
  0
VERTEX
  5
4F4
  8
0
 10
17.367209071449029
 20
16.01329832981267
 30
0.0
  0
VERTEX
  5
4F5
  8
0
 10
18.62705159113408
 20
16.01329832981267
 30
0.0
 42
-0.4142135623730951
  0
VERTEX
  5
4F6
  8
0
 10
18.823901984834858
 20
15.81644793611188
 30
0.0
  0
VERTEX
  5
4F7
  8
0
 10
18.823901984834858
 20
14.556605416426841
 30
0.0
 42
-0.4142135623730951
  0
VERTEX
  5
4F8
  8
0
 10
18.62705159113408
 20
14.35975502272605
 30
0.0
  0
SEQEND
  5
4F2
  8
0
  0
POLYLINE
  5
4F9
  8
0
 66
     1
 10
0.0
 20
0.0
 30
0.0
 70
     1
  0
VERTEX
  5
4FA
  8
0
 10
19.710860136798569
 20
12.634870454124121
 30
0.0
 42
-0.4142135623730951
  0
VERTEX
  5
4FB
  8
0
 10
19.514009743097791
 20
12.831720847824901
 30
0.0
  0
VERTEX
  5
4FD
  8
0
 10
19.514009743097791
 20
14.09156336750994
 30
0.0
 42
-0.4142135623730951
  0
VERTEX
  5
4FE
  8
0
 10
19.71086013679858
 20
14.28841376121073
 30
0.0
  0
VERTEX
  5
4FF
  8
0
 10
20.970702656483621
 20
14.28841376121073
 30
0.0
 42
-0.4142135623730992
  0
VERTEX
  5
500
  8
0
 10
21.167553050184409
 20
14.09156336750994
 30
0.0
  0
VERTEX
  5
501
  8
0
 10
21.167553050184399
 20
12.831720847824901
 30
0.0
 42
-0.4142135623730951
  0
VERTEX
  5
502
  8
0
 10
20.97070265648361
 20
12.634870454124121
 30
0.0
  0
SEQEND
  5
4FC
  8
0
  0
POLYLINE
  5
503
  8
0
 66
     1
 10
0.0
 20
0.0
 30
0.0
 70
     1
  0
VERTEX
  5
504
  8
0
 10
15.481672038923231
 20
13.84423452311283
 30
0.0
  0
VERTEX
  5
505
  8
0
 10
15.481672038923231
 20
13.90328964122307
 30
0.0
  0
VERTEX
  5
507
  8
0
 10
15.63915235388386
 20
13.90328964122307
 30
0.0
  0
VERTEX
  5
508
  8
0
 10
15.63915235388386
 20
13.84423452311283
 30
0.0
  0
SEQEND
  5
506
  8
0
  0
POLYLINE
  5
509
  8
0
 66
     1
 10
0.0
 20
0.0
 30
0.0
 70
     1
  0
VERTEX
  5
50A
  8
0
 10
17.6273413302618
 20
11.91510066484512
 30
0.0
  0
VERTEX
  5
50B
  8
0
 10
17.6273413302618
 20
11.75762034988449
 30
0.0
  0
VERTEX
  5
50D
  8
0
 10
17.568286212151559
 20
11.75762034988449
 30
0.0
  0
VERTEX
  5
50E
  8
0
 10
17.568286212151559
 20
11.91510066484512
 30
0.0
  0
SEQEND
  5
50C
  8
0
  0
POLYLINE
  5
50F
  8
0
 66
     1
 10
0.0
 20
0.0
 30
0.0
 70
     1
  0
VERTEX
  5
510
  8
0
 10
14.77301062160039
 20
14.001714838073459
 30
0.0
  0
VERTEX
  5
511
  8
0
 10
14.77301062160039
 20
11.048958932561661
 30
0.0
  0
VERTEX
  5
513
  8
0
 10
17.725766527112189
 20
11.048958932561661
 30
0.0
  0
VERTEX
  5
514
  8
0
 10
17.725766527112189
 20
11.442659719963229
 30
0.0
  0
VERTEX
  5
515
  8
0
 10
17.980766527112191
 20
11.442659719963229
 30
0.0
  0
VERTEX
  5
516
  8
0
 10
17.980766527112191
 20
12.230061294766379
 30
0.0
  0
VERTEX
  5
517
  8
0
 10
17.725766527112189
 20
12.230061294766379
 30
0.0
  0
VERTEX
  5
518
  8
0
 10
17.725766527112189
 20
12.62376208216795
 30
0.0
  0
VERTEX
  5
519
  8
0
 10
16.347813771206692
 20
12.62376208216795
 30
0.0
  0
VERTEX
  5
51A
  8
0
 10
16.347813771206692
 20
14.001714838073459
 30
0.0
  0
VERTEX
  5
51B
  8
0
 10
15.954112983805111
 20
14.001714838073459
 30
0.0
  0
VERTEX
  5
51C
  8
0
 10
15.954112983805111
 20
14.25671483807346
 30
0.0
  0
VERTEX
  5
51D
  8
0
 10
15.166711409001969
 20
14.25671483807346
 30
0.0
  0
VERTEX
  5
51E
  8
0
 10
15.166711409001969
 20
14.001714838073459
 30
0.0
  0
SEQEND
  5
512
  8
0
  0
POLYLINE
  5
51F
  8
0
 66
     1
 10
0.0
 20
0.0
 30
0.0
 70
     1
  0
VERTEX
  5
520
  8
0
 10
23.771319034170169
 20
10.91763253806258
 30
0.0
  0
VERTEX
  5
521
  8
0
 10
22.826437144406391
 20
10.91763253806258
 30
0.0
  0
VERTEX
  5
523
  8
0
 10
22.826437144406391
 20
11.33521528285778
 30
0.0
  0
VERTEX
  5
524
  8
0
 10
23.771319034170169
 20
11.33521528285778
 30
0.0
  0
SEQEND
  5
522
  8
0
  0
POLYLINE
  5
525
  8
0
 66
     1
 10
0.0
 20
0.0
 30
0.0
 70
     1
  0
VERTEX
  5
526
  8
0
 10
24.637460766453628
 20
12.88613647507044
 30
0.0
  0
VERTEX
  5
527
  8
0
 10
24.637460766453628
 20
13.30371921986565
 30
0.0
  0
VERTEX
  5
529
  8
0
 10
25.582342656217399
 20
13.30371921986565
 30
0.0
  0
VERTEX
  5
52A
  8
0
 10
25.582342656217399
 20
12.88613647507044
 30
0.0
  0
SEQEND
  5
528
  8
0
  0
POLYLINE
  5
52B
  8
0
 66
     1
 10
0.0
 20
0.0
 30
0.0
 70
     1
  0
VERTEX
  5
52C
  8
0
 10
24.637460766453628
 20
10.91763253806258
 30
0.0
  0
VERTEX
  5
52D
  8
0
 10
24.637460766453628
 20
11.33521528285778
 30
0.0
  0
VERTEX
  5
52F
  8
0
 10
25.582342656217399
 20
11.33521528285778
 30
0.0
  0
VERTEX
  5
530
  8
0
 10
25.582342656217399
 20
10.91763253806258
 30
0.0
  0
SEQEND
  5
52E
  8
0
  0
POLYLINE
  5
531
  8
0
 66
     1
 10
0.0
 20
0.0
 30
0.0
 70
     1
  0
VERTEX
  5
532
  8
0
 10
23.771319034170169
 20
12.88613647507044
 30
0.0
  0
VERTEX
  5
533
  8
0
 10
22.826437144406391
 20
12.88613647507044
 30
0.0
  0
VERTEX
  5
535
  8
0
 10
22.826437144406391
 20
13.30371921986565
 30
0.0
  0
VERTEX
  5
536
  8
0
 10
23.771319034170169
 20
13.30371921986565
 30
0.0
  0
SEQEND
  5
534
  8
0
  0
POLYLINE
  5
537
  8
0
 66
     1
 10
0.0
 20
0.0
 30
0.0
 70
     1
  0
VERTEX
  5
538
  8
0
 10
22.944547380626862
 20
12.740597138806629
 30
0.0
  0
VERTEX
  5
539
  8
0
 10
22.944547380626862
 20
12.799652256916859
 30
0.0
  0
VERTEX
  5
53B
  8
0
 10
23.102027695587491
 20
12.799652256916859
 30
0.0
  0
VERTEX
  5
53C
  8
0
 10
23.102027695587491
 20
12.740597138806629
 30
0.0
  0
SEQEND
  5
53A
  8
0
  0
POLYLINE
  5
53D
  8
0
 66
     1
 10
0.0
 20
0.0
 30
0.0
 70
     1
  0
VERTEX
  5
53E
  8
0
 10
23.495728482989058
 20
12.740597138806629
 30
0.0
  0
VERTEX
  5
53F
  8
0
 10
23.495728482989058
 20
12.799652256916859
 30
0.0
  0
VERTEX
  5
541
  8
0
 10
23.653208797949691
 20
12.799652256916859
 30
0.0
  0
VERTEX
  5
542
  8
0
 10
23.653208797949691
 20
12.740597138806629
 30
0.0
  0
SEQEND
  5
540
  8
0
  0
POLYLINE
  5
543
  8
0
 66
     1
 10
0.0
 20
0.0
 30
0.0
 70
     1
  0
VERTEX
  5
544
  8
0
 10
23.102027695587491
 20
13.449258556129459
 30
0.0
  0
VERTEX
  5
545
  8
0
 10
23.102027695587491
 20
13.390203438019229
 30
0.0
  0
VERTEX
  5
547
  8
0
 10
22.944547380626862
 20
13.390203438019221
 30
0.0
  0
VERTEX
  5
548
  8
0
 10
22.944547380626862
 20
13.449258556129459
 30
0.0
  0
SEQEND
  5
546
  8
0
  0
POLYLINE
  5
549
  8
0
 66
     1
 10
0.0
 20
0.0
 30
0.0
 70
     1
  0
VERTEX
  5
54A
  8
0
 10
23.653208797949691
 20
13.449258556129459
 30
0.0
  0
VERTEX
  5
54B
  8
0
 10
23.653208797949691
 20
13.390203438019229
 30
0.0
  0
VERTEX
  5
54D
  8
0
 10
23.495728482989058
 20
13.390203438019221
 30
0.0
  0
VERTEX
  5
54E
  8
0
 10
23.495728482989058
 20
13.449258556129459
 30
0.0
  0
SEQEND
  5
54C
  8
0
  0
POLYLINE
  5
54F
  8
0
 66
     1
 10
0.0
 20
0.0
 30
0.0
 70
     1
  0
VERTEX
  5
550
  8
0
 10
25.306752105036299
 20
13.449258556129459
 30
0.0
  0
VERTEX
  5
551
  8
0
 10
25.464232419996929
 20
13.449258556129459
 30
0.0
  0
VERTEX
  5
553
  8
0
 10
25.464232419996929
 20
13.390203438019221
 30
0.0
  0
VERTEX
  5
554
  8
0
 10
25.306752105036299
 20
13.390203438019221
 30
0.0
  0
SEQEND
  5
552
  8
0
  0
POLYLINE
  5
555
  8
0
 66
     1
 10
0.0
 20
0.0
 30
0.0
 70
     1
  0
VERTEX
  5
556
  8
0
 10
24.755571002674099
 20
12.740597138806629
 30
0.0
  0
VERTEX
  5
557
  8
0
 10
24.755571002674099
 20
12.799652256916859
 30
0.0
  0
VERTEX
  5
559
  8
0
 10
24.913051317634729
 20
12.799652256916859
 30
0.0
  0
VERTEX
  5
55A
  8
0
 10
24.913051317634739
 20
12.740597138806629
 30
0.0
  0
SEQEND
  5
558
  8
0
  0
POLYLINE
  5
55B
  8
0
 66
     1
 10
0.0
 20
0.0
 30
0.0
 70
     1
  0
VERTEX
  5
55C
  8
0
 10
25.464232419996929
 20
12.740597138806629
 30
0.0
  0
VERTEX
  5
55D
  8
0
 10
25.306752105036299
 20
12.740597138806629
 30
0.0
  0
VERTEX
  5
55F
  8
0
 10
25.306752105036299
 20
12.799652256916859
 30
0.0
  0
VERTEX
  5
560
  8
0
 10
25.464232419996929
 20
12.799652256916859
 30
0.0
  0
SEQEND
  5
55E
  8
0
  0
POLYLINE
  5
561
  8
0
 66
     1
 10
0.0
 20
0.0
 30
0.0
 70
     1
  0
VERTEX
  5
562
  8
0
 10
24.913051317634739
 20
13.449258556129459
 30
0.0
  0
VERTEX
  5
563
  8
0
 10
24.913051317634739
 20
13.390203438019221
 30
0.0
  0
VERTEX
  5
565
  8
0
 10
24.75557100267411
 20
13.390203438019221
 30
0.0
  0
VERTEX
  5
566
  8
0
 10
24.755571002674099
 20
13.449258556129459
 30
0.0
  0
SEQEND
  5
564
  8
0
  0
POLYLINE
  5
567
  8
0
 66
     1
 10
0.0
 20
0.0
 30
0.0
 70
     1
  0
VERTEX
  5
568
  8
0
 10
23.102027695587491
 20
10.772093201798761
 30
0.0
  0
VERTEX
  5
569
  8
0
 10
22.944547380626862
 20
10.772093201798761
 30
0.0
  0
VERTEX
  5
56B
  8
0
 10
22.944547380626862
 20
10.831148319909
 30
0.0
  0
VERTEX
  5
56C
  8
0
 10
23.102027695587491
 20
10.831148319909
 30
0.0
  0
SEQEND
  5
56A
  8
0
  0
POLYLINE
  5
56D
  8
0
 66
     1
 10
0.0
 20
0.0
 30
0.0
 70
     1
  0
VERTEX
  5
56E
  8
0
 10
23.653208797949691
 20
11.480754619121591
 30
0.0
  0
VERTEX
  5
56F
  8
0
 10
23.653208797949691
 20
11.421699501011361
 30
0.0
  0
VERTEX
  5
571
  8
0
 10
23.495728482989058
 20
11.421699501011361
 30
0.0
  0
VERTEX
  5
572
  8
0
 10
23.495728482989058
 20
11.480754619121591
 30
0.0
  0
SEQEND
  5
570
  8
0
  0
POLYLINE
  5
573
  8
0
 66
     1
 10
0.0
 20
0.0
 30
0.0
 70
     1
  0
VERTEX
  5
574
  8
0
 10
22.944547380626862
 20
11.480754619121591
 30
0.0
  0
VERTEX
  5
575
  8
0
 10
23.102027695587491
 20
11.480754619121591
 30
0.0
  0
VERTEX
  5
577
  8
0
 10
23.102027695587491
 20
11.421699501011361
 30
0.0
  0
VERTEX
  5
578
  8
0
 10
22.944547380626862
 20
11.421699501011361
 30
0.0
  0
SEQEND
  5
576
  8
0
  0
POLYLINE
  5
579
  8
0
 66
     1
 10
0.0
 20
0.0
 30
0.0
 70
     1
  0
VERTEX
  5
57A
  8
0
 10
23.495728482989058
 20
10.772093201798761
 30
0.0
  0
VERTEX
  5
57B
  8
0
 10
23.495728482989058
 20
10.831148319909
 30
0.0
  0
VERTEX
  5
57D
  8
0
 10
23.653208797949691
 20
10.831148319909
 30
0.0
  0
VERTEX
  5
57E
  8
0
 10
23.653208797949691
 20
10.772093201798761
 30
0.0
  0
SEQEND
  5
57C
  8
0
  0
POLYLINE
  5
57F
  8
0
 66
     1
 10
0.0
 20
0.0
 30
0.0
 70
     1
  0
VERTEX
  5
580
  8
0
 10
25.464232419996929
 20
10.772093201798761
 30
0.0
  0
VERTEX
  5
581
  8
0
 10
25.306752105036299
 20
10.772093201798761
 30
0.0
  0
VERTEX
  5
583
  8
0
 10
25.30675210503631
 20
10.831148319909
 30
0.0
  0
VERTEX
  5
584
  8
0
 10
25.464232419996939
 20
10.831148319909
 30
0.0
  0
SEQEND
  5
582
  8
0
  0
POLYLINE
  5
585
  8
0
 66
     1
 10
0.0
 20
0.0
 30
0.0
 70
     1
  0
VERTEX
  5
586
  8
0
 10
24.755571002674099
 20
11.421699501011361
 30
0.0
  0
VERTEX
  5
587
  8
0
 10
24.755571002674099
 20
11.480754619121591
 30
0.0
  0
VERTEX
  5
589
  8
0
 10
24.913051317634729
 20
11.480754619121591
 30
0.0
  0
VERTEX
  5
58A
  8
0
 10
24.913051317634739
 20
11.421699501011361
 30
0.0
  0
SEQEND
  5
588
  8
0
  0
POLYLINE
  5
58B
  8
0
 66
     1
 10
0.0
 20
0.0
 30
0.0
 70
     1
  0
VERTEX
  5
58C
  8
0
 10
25.30675210503631
 20
11.480754619121591
 30
0.0
  0
VERTEX
  5
58D
  8
0
 10
25.464232419996939
 20
11.480754619121591
 30
0.0
  0
VERTEX
  5
58F
  8
0
 10
25.464232419996929
 20
11.421699501011361
 30
0.0
  0
VERTEX
  5
590
  8
0
 10
25.306752105036299
 20
11.421699501011361
 30
0.0
  0
SEQEND
  5
58E
  8
0
  0
POLYLINE
  5
591
  8
0
 66
     1
 10
0.0
 20
0.0
 30
0.0
 70
     1
  0
VERTEX
  5
592
  8
0
 10
24.913051317634739
 20
10.831148319909
 30
0.0
  0
VERTEX
  5
593
  8
0
 10
24.913051317634739
 20
10.772093201798761
 30
0.0
  0
VERTEX
  5
595
  8
0
 10
24.75557100267411
 20
10.772093201798761
 30
0.0
  0
VERTEX
  5
596
  8
0
 10
24.755571002674099
 20
10.831148319909
 30
0.0
  0
SEQEND
  5
594
  8
0
  0
POLYLINE
  5
597
  8
0
 66
     1
 10
0.0
 20
0.0
 30
0.0
 70
     1
  0
VERTEX
  5
598
  8
0
 10
25.48391745936701
 20
11.815400288412929
 30
0.0
 42
-0.4142135623730971
  0
VERTEX
  5
599
  8
0
 10
25.680767853067799
 20
11.618549894712141
 30
0.0
  0
VERTEX
  5
59B
  8
0
 10
25.680767853067799
 20
10.73272312305861
 30
0.0
 42
-0.4142135623730971
  0
VERTEX
  5
59C
  8
0
 10
25.48391745936701
 20
10.53587272935782
 30
0.0
  0
VERTEX
  5
59D
  8
0
 10
22.924862341256791
 20
10.53587272935782
 30
0.0
 42
-0.4142135623730951
  0
VERTEX
  5
59E
  8
0
 10
22.728011947555999
 20
10.7327231230586
 30
0.0
  0
VERTEX
  5
59F
  8
0
 10
22.728011947555999
 20
11.618549894712141
 30
0.0
 42
-0.4142135623730971
  0
VERTEX
  5
5A0
  8
0
 10
22.924862341256791
 20
11.815400288412929
 30
0.0
  0
VERTEX
  5
5A1
  8
0
 10
23.318563128658361
 20
11.815400288412929
 30
0.0
 42
0.9999999999999998
  0
VERTEX
  5
5A2
  8
0
 10
23.318563128658361
 20
12.405951469515291
 30
0.0
  0
VERTEX
  5
5A3
  8
0
 10
22.924862341256791
 20
12.405951469515291
 30
0.0
 42
-0.4142135623730909
  0
VERTEX
  5
5A4
  8
0
 10
22.728011947555999
 20
12.602801863216079
 30
0.0
  0
VERTEX
  5
5A5
  8
0
 10
22.728011947555999
 20
13.48862863486962
 30
0.0
 42
-0.4142135623730951
  0
VERTEX
  5
5A6
  8
0
 10
22.924862341256791
 20
13.685479028570411
 30
0.0
  0
VERTEX
  5
5A7
  8
0
 10
25.48391745936701
 20
13.685479028570411
 30
0.0
 42
-0.4142135623730951
  0
VERTEX
  5
5A8
  8
0
 10
25.680767853067799
 20
13.48862863486962
 30
0.0
  0
VERTEX
  5
5A9
  8
0
 10
25.680767853067799
 20
12.602801863216079
 30
0.0
 42
-0.4142135623730951
  0
VERTEX
  5
5AA
  8
0
 10
25.48391745936701
 20
12.405951469515291
 30
0.0
  0
VERTEX
  5
5AB
  8
0
 10
25.09021667196544
 20
12.405951469515291
 30
0.0
 42
0.9999999999999998
  0
VERTEX
  5
5AC
  8
0
 10
25.09021667196544
 20
11.815400288412929
 30
0.0
  0
SEQEND
  5
59A
  8
0
  0
POLYLINE
  5
5AD
  8
0
 66
     1
 10
0.0
 20
0.0
 30
0.0
 70
     1
  0
VERTEX
  5
5AE
  8
0
 10
23.918148763858401
 20
15.93006615824871
 30
0.0
  0
VERTEX
  5
5AF
  8
0
 10
23.918148763858401
 20
14.985184268484931
 30
0.0
  0
VERTEX
  5
5B1
  8
0
 10
23.500566019063179
 20
14.985184268484931
 30
0.0
  0
VERTEX
  5
5B2
  8
0
 10
23.500566019063179
 20
15.93006615824871
 30
0.0
  0
SEQEND
  5
5B0
  8
0
  0
POLYLINE
  5
5B3
  8
0
 66
     1
 10
0.0
 20
0.0
 30
0.0
 70
     1
  0
VERTEX
  5
5B4
  8
0
 10
23.91814876385839
 20
16.599357496831381
 30
0.0
  0
VERTEX
  5
5B5
  8
0
 10
23.500566019063179
 20
16.599357496831381
 30
0.0
  0
VERTEX
  5
5B7
  8
0
 10
23.500566019063179
 20
17.544239386595159
 30
0.0
  0
VERTEX
  5
5B8
  8
0
 10
23.91814876385839
 20
17.544239386595159
 30
0.0
  0
SEQEND
  5
5B6
  8
0
  0
POLYLINE
  5
5B9
  8
0
 66
     1
 10
0.0
 20
0.0
 30
0.0
 70
     1
  0
VERTEX
  5
5BA
  8
0
 10
24.398333769413551
 20
17.642664583445551
 30
0.0
 42
-0.4142135623730951
  0
VERTEX
  5
5BB
  8
0
 10
24.595184163114329
 20
17.44581418974477
 30
0.0
  0
VERTEX
  5
5BD
  8
0
 10
24.595184163114329
 20
17.360319194656039
 30
0.0
  0
VERTEX
  5
5BE
  8
0
 10
24.201483375712758
 20
17.360319194656039
 30
0.0
  0
VERTEX
  5
5BF
  8
0
 10
24.201483375712758
 20
17.137608397431919
 30
0.0
  0
VERTEX
  5
5C0
  8
0
 10
24.595184163114329
 20
17.137608397431929
 30
0.0
  0
VERTEX
  5
5C1
  8
0
 10
24.595184163114329
 20
15.39181525764816
 30
0.0
  0
VERTEX
  5
5C2
  8
0
 10
24.201483375712758
 20
15.39181525764816
 30
0.0
  0
VERTEX
  5
5C3
  8
0
 10
24.201483375712758
 20
15.169104460424061
 30
0.0
  0
VERTEX
  5
5C4
  8
0
 10
24.595184163114329
 20
15.169104460424061
 30
0.0
  0
VERTEX
  5
5C5
  8
0
 10
24.595184163114329
 20
15.08360946533532
 30
0.0
 42
-0.4142135623730951
  0
VERTEX
  5
5C6
  8
0
 10
24.398333769413551
 20
14.88675907163454
 30
0.0
  0
VERTEX
  5
5C7
  8
0
 10
22.626680226106458
 20
14.88675907163454
 30
0.0
 42
-0.4142135623730951
  0
VERTEX
  5
5C8
  8
0
 10
22.42982983240567
 20
15.08360946533532
 30
0.0
  0
VERTEX
  5
5C9
  8
0
 10
22.42982983240567
 20
17.44581418974477
 30
0.0
 42
-0.4142135623730951
  0
VERTEX
  5
5CA
  8
0
 10
22.626680226106458
 20
17.642664583445558
 30
0.0
  0
SEQEND
  5
5BC
  8
0
  0
POLYLINE
  5
5CB
  8
0
 66
     1
 10
0.0
 20
0.0
 30
0.0
 70
     1
  0
VERTEX
  5
5CC
  8
0
 10
24.319593611933229
 20
15.06392442596524
 30
0.0
  0
VERTEX
  5
5CD
  8
0
 10
24.319593611933229
 20
15.122979544075481
 30
0.0
  0
VERTEX
  5
5CF
  8
0
 10
24.477073926893858
 20
15.122979544075481
 30
0.0
  0
VERTEX
  5
5D0
  8
0
 10
24.477073926893858
 20
15.06392442596524
 30
0.0
  0
SEQEND
  5
5CE
  8
0
  0
POLYLINE
  5
5D1
  8
0
 66
     1
 10
0.0
 20
0.0
 30
0.0
 70
     1
  0
VERTEX
  5
5D2
  8
0
 10
24.319593611933229
 20
15.49699529210698
 30
0.0
  0
VERTEX
  5
5D3
  8
0
 10
24.477073926893858
 20
15.49699529210698
 30
0.0
  0
VERTEX
  5
5D5
  8
0
 10
24.477073926893858
 20
15.43794017399674
 30
0.0
  0
VERTEX
  5
5D6
  8
0
 10
24.319593611933229
 20
15.43794017399674
 30
0.0
  0
SEQEND
  5
5D4
  8
0
  0
POLYLINE
  5
5D7
  8
0
 66
     1
 10
0.0
 20
0.0
 30
0.0
 70
     1
  0
VERTEX
  5
5D8
  8
0
 10
23.41408180090961
 20
15.811955922028231
 30
0.0
  0
VERTEX
  5
5D9
  8
0
 10
23.41408180090961
 20
15.65447560706761
 30
0.0
  0
VERTEX
  5
5DB
  8
0
 10
23.35502668279938
 20
15.65447560706761
 30
0.0
  0
VERTEX
  5
5DC
  8
0
 10
23.35502668279937
 20
15.811955922028231
 30
0.0
  0
SEQEND
  5
5DA
  8
0
  0
POLYLINE
  5
5DD
  8
0
 66
     1
 10
0.0
 20
0.0
 30
0.0
 70
     1
  0
VERTEX
  5
5DE
  8
0
 10
24.004632982011969
 20
15.811955922028231
 30
0.0
  0
VERTEX
  5
5DF
  8
0
 10
24.06368810012221
 20
15.811955922028231
 30
0.0
  0
VERTEX
  5
5E1
  8
0
 10
24.063688100122199
 20
15.65447560706761
 30
0.0
  0
VERTEX
  5
5E2
  8
0
 10
24.004632982011969
 20
15.65447560706761
 30
0.0
  0
SEQEND
  5
5E0
  8
0
  0
POLYLINE
  5
5E3
  8
0
 66
     1
 10
0.0
 20
0.0
 30
0.0
 70
     1
  0
VERTEX
  5
5E4
  8
0
 10
23.35502668279937
 20
15.103294504705399
 30
0.0
  0
VERTEX
  5
5E5
  8
0
 10
23.35502668279937
 20
15.260774819666031
 30
0.0
  0
VERTEX
  5
5E7
  8
0
 10
23.414081800909599
 20
15.260774819666031
 30
0.0
  0
VERTEX
  5
5E8
  8
0
 10
23.41408180090961
 20
15.103294504705399
 30
0.0
  0
SEQEND
  5
5E6
  8
0
  0
POLYLINE
  5
5E9
  8
0
 66
     1
 10
0.0
 20
0.0
 30
0.0
 70
     1
  0
VERTEX
  5
5EA
  8
0
 10
24.063688100122199
 20
15.103294504705399
 30
0.0
  0
VERTEX
  5
5EB
  8
0
 10
24.004632982011969
 20
15.103294504705399
 30
0.0
  0
VERTEX
  5
5ED
  8
0
 10
24.004632982011969
 20
15.260774819666031
 30
0.0
  0
VERTEX
  5
5EE
  8
0
 10
24.06368810012221
 20
15.260774819666031
 30
0.0
  0
SEQEND
  5
5EC
  8
0
  0
POLYLINE
  5
5EF
  8
0
 66
     1
 10
0.0
 20
0.0
 30
0.0
 70
     1
  0
VERTEX
  5
5F0
  8
0
 10
24.477073926893858
 20
17.465499229114851
 30
0.0
  0
VERTEX
  5
5F1
  8
0
 10
24.477073926893858
 20
17.40644411100461
 30
0.0
  0
VERTEX
  5
5F3
  8
0
 10
24.319593611933229
 20
17.40644411100461
 30
0.0
  0
VERTEX
  5
5F4
  8
0
 10
24.319593611933229
 20
17.465499229114851
 30
0.0
  0
SEQEND
  5
5F2
  8
0
  0
POLYLINE
  5
5F5
  8
0
 66
     1
 10
0.0
 20
0.0
 30
0.0
 70
     1
  0
VERTEX
  5
5F6
  8
0
 10
24.063688100122199
 20
17.426129150374688
 30
0.0
  0
VERTEX
  5
5F7
  8
0
 10
24.063688100122199
 20
17.268648835414059
 30
0.0
  0
VERTEX
  5
5F9
  8
0
 10
24.004632982011969
 20
17.268648835414059
 30
0.0
  0
VERTEX
  5
5FA
  8
0
 10
24.004632982011969
 20
17.426129150374688
 30
0.0
  0
SEQEND
  5
5F8
  8
0
  0
POLYLINE
  5
5FB
  8
0
 66
     1
 10
0.0
 20
0.0
 30
0.0
 70
     1
  0
VERTEX
  5
5FC
  8
0
 10
23.41408180090961
 20
17.426129150374688
 30
0.0
  0
VERTEX
  5
5FD
  8
0
 10
23.41408180090961
 20
17.268648835414059
 30
0.0
  0
VERTEX
  5
5FF
  8
0
 10
23.35502668279938
 20
17.268648835414059
 30
0.0
  0
VERTEX
  5
600
  8
0
 10
23.35502668279937
 20
17.426129150374688
 30
0.0
  0
SEQEND
  5
5FE
  8
0
  0
POLYLINE
  5
601
  8
0
 66
     1
 10
0.0
 20
0.0
 30
0.0
 70
     1
  0
VERTEX
  5
602
  8
0
 10
24.004632982011969
 20
16.717467733051858
 30
0.0
  0
VERTEX
  5
603
  8
0
 10
24.004632982011969
 20
16.874948048012481
 30
0.0
  0
VERTEX
  5
605
  8
0
 10
24.06368810012221
 20
16.874948048012481
 30
0.0
  0
VERTEX
  5
606
  8
0
 10
24.063688100122199
 20
16.717467733051858
 30
0.0
  0
SEQEND
  5
604
  8
0
  0
POLYLINE
  5
607
  8
0
 66
     1
 10
0.0
 20
0.0
 30
0.0
 70
     1
  0
VERTEX
  5
608
  8
0
 10
23.35502668279937
 20
16.717467733051858
 30
0.0
  0
VERTEX
  5
609
  8
0
 10
23.35502668279937
 20
16.874948048012481
 30
0.0
  0
VERTEX
  5
60B
  8
0
 10
23.414081800909599
 20
16.874948048012481
 30
0.0
  0
VERTEX
  5
60C
  8
0
 10
23.41408180090961
 20
16.717467733051858
 30
0.0
  0
SEQEND
  5
60A
  8
0
  0
POLYLINE
  5
60D
  8
0
 66
     1
 10
0.0
 20
0.0
 30
0.0
 70
     1
  0
VERTEX
  5
60E
  8
0
 10
24.319593611933229
 20
17.032428362973111
 30
0.0
  0
VERTEX
  5
60F
  8
0
 10
24.319593611933229
 20
17.091483481083351
 30
0.0
  0
VERTEX
  5
611
  8
0
 10
24.477073926893858
 20
17.091483481083351
 30
0.0
  0
VERTEX
  5
612
  8
0
 10
24.477073926893858
 20
17.032428362973111
 30
0.0
  0
SEQEND
  5
610
  8
0
  0
POLYLINE
  5
613
  8
0
 66
     1
 10
0.0
 20
0.0
 30
0.0
 70
     1
  0
VERTEX
  5
614
  8
0
 10
27.045946127104649
 20
15.00183069716579
 30
0.0
  0
VERTEX
  5
615
  8
0
 10
27.045946127104649
 20
14.056948807402019
 30
0.0
  0
VERTEX
  5
617
  8
0
 10
26.628363382309448
 20
14.056948807402019
 30
0.0
  0
VERTEX
  5
618
  8
0
 10
26.628363382309448
 20
15.00183069716579
 30
0.0
  0
SEQEND
  5
616
  8
0
  0
POLYLINE
  5
619
  8
0
 66
     1
 10
0.0
 20
0.0
 30
0.0
 70
     1
  0
VERTEX
  5
61A
  8
0
 10
27.045946127104649
 20
15.67112203574847
 30
0.0
  0
VERTEX
  5
61B
  8
0
 10
26.628363382309448
 20
15.67112203574847
 30
0.0
  0
VERTEX
  5
61D
  8
0
 10
26.628363382309448
 20
16.616003925512238
 30
0.0
  0
VERTEX
  5
61E
  8
0
 10
27.045946127104639
 20
16.616003925512238
 30
0.0
  0
SEQEND
  5
61C
  8
0
  0
POLYLINE
  5
61F
  8
0
 66
     1
 10
0.0
 20
0.0
 30
0.0
 70
     1
  0
VERTEX
  5
620
  8
0
 10
27.526131132659799
 20
16.714429122362638
 30
0.0
 42
-0.4142135623730951
  0
VERTEX
  5
621
  8
0
 10
27.722981526360591
 20
16.517578728661849
 30
0.0
  0
VERTEX
  5
623
  8
0
 10
27.722981526360591
 20
16.432083733573119
 30
0.0
  0
VERTEX
  5
624
  8
0
 10
27.32928073895901
 20
16.432083733573119
 30
0.0
  0
VERTEX
  5
625
  8
0
 10
27.32928073895901
 20
16.209372936349009
 30
0.0
  0
VERTEX
  5
626
  8
0
 10
27.722981526360591
 20
16.209372936349009
 30
0.0
  0
VERTEX
  5
627
  8
0
 10
27.722981526360591
 20
14.46357979656525
 30
0.0
  0
VERTEX
  5
628
  8
0
 10
27.32928073895901
 20
14.46357979656525
 30
0.0
  0
VERTEX
  5
629
  8
0
 10
27.32928073895901
 20
14.24086899934114
 30
0.0
  0
VERTEX
  5
62A
  8
0
 10
27.722981526360591
 20
14.24086899934114
 30
0.0
  0
VERTEX
  5
62B
  8
0
 10
27.722981526360591
 20
14.15537400425241
 30
0.0
 42
-0.4142135623730951
  0
VERTEX
  5
62C
  8
0
 10
27.526131132659799
 20
13.958523610551619
 30
0.0
  0
VERTEX
  5
62D
  8
0
 10
25.754477589352721
 20
13.958523610551619
 30
0.0
 42
-0.4142135623730951
  0
VERTEX
  5
62E
  8
0
 10
25.557627195651929
 20
14.15537400425241
 30
0.0
  0
VERTEX
  5
62F
  8
0
 10
25.557627195651929
 20
16.517578728661849
 30
0.0
 42
-0.4142135623730951
  0
VERTEX
  5
630
  8
0
 10
25.754477589352721
 20
16.714429122362638
 30
0.0
  0
SEQEND
  5
622
  8
0
  0
POLYLINE
  5
631
  8
0
 66
     1
 10
0.0
 20
0.0
 30
0.0
 70
     1
  0
VERTEX
  5
632
  8
0
 10
27.447390975179481
 20
14.135688964882331
 30
0.0
  0
VERTEX
  5
633
  8
0
 10
27.447390975179481
 20
14.194744082992569
 30
0.0
  0
VERTEX
  5
635
  8
0
 10
27.60487129014011
 20
14.19474408299256
 30
0.0
  0
VERTEX
  5
636
  8
0
 10
27.60487129014011
 20
14.135688964882331
 30
0.0
  0
SEQEND
  5
634
  8
0
  0
POLYLINE
  5
637
  8
0
 66
     1
 10
0.0
 20
0.0
 30
0.0
 70
     1
  0
VERTEX
  5
638
  8
0
 10
27.447390975179481
 20
14.56875983102406
 30
0.0
  0
VERTEX
  5
639
  8
0
 10
27.60487129014011
 20
14.56875983102406
 30
0.0
  0
VERTEX
  5
63B
  8
0
 10
27.60487129014011
 20
14.50970471291383
 30
0.0
  0
VERTEX
  5
63C
  8
0
 10
27.447390975179481
 20
14.50970471291382
 30
0.0
  0
SEQEND
  5
63A
  8
0
  0
POLYLINE
  5
63D
  8
0
 66
     1
 10
0.0
 20
0.0
 30
0.0
 70
     1
  0
VERTEX
  5
63E
  8
0
 10
26.541879164155869
 20
14.88372046094532
 30
0.0
  0
VERTEX
  5
63F
  8
0
 10
26.541879164155869
 20
14.72624014598469
 30
0.0
  0
VERTEX
  5
641
  8
0
 10
26.482824046045629
 20
14.72624014598469
 30
0.0
  0
VERTEX
  5
642
  8
0
 10
26.482824046045629
 20
14.88372046094532
 30
0.0
  0
SEQEND
  5
640
  8
0
  0
POLYLINE
  5
643
  8
0
 66
     1
 10
0.0
 20
0.0
 30
0.0
 70
     1
  0
VERTEX
  5
644
  8
0
 10
27.132430345258221
 20
14.88372046094532
 30
0.0
  0
VERTEX
  5
645
  8
0
 10
27.191485463368458
 20
14.88372046094532
 30
0.0
  0
VERTEX
  5
647
  8
0
 10
27.191485463368458
 20
14.72624014598469
 30
0.0
  0
VERTEX
  5
648
  8
0
 10
27.132430345258221
 20
14.72624014598469
 30
0.0
  0
SEQEND
  5
646
  8
0
  0
POLYLINE
  5
649
  8
0
 66
     1
 10
0.0
 20
0.0
 30
0.0
 70
     1
  0
VERTEX
  5
64A
  8
0
 10
26.482824046045629
 20
14.17505904362249
 30
0.0
  0
VERTEX
  5
64B
  8
0
 10
26.482824046045629
 20
14.332539358583119
 30
0.0
  0
VERTEX
  5
64D
  8
0
 10
26.541879164155869
 20
14.332539358583119
 30
0.0
  0
VERTEX
  5
64E
  8
0
 10
26.541879164155869
 20
14.17505904362249
 30
0.0
  0
SEQEND
  5
64C
  8
0
  0
POLYLINE
  5
64F
  8
0
 66
     1
 10
0.0
 20
0.0
 30
0.0
 70
     1
  0
VERTEX
  5
650
  8
0
 10
27.191485463368458
 20
14.17505904362249
 30
0.0
  0
VERTEX
  5
651
  8
0
 10
27.132430345258221
 20
14.17505904362249
 30
0.0
  0
VERTEX
  5
653
  8
0
 10
27.132430345258221
 20
14.332539358583119
 30
0.0
  0
VERTEX
  5
654
  8
0
 10
27.191485463368458
 20
14.332539358583119
 30
0.0
  0
SEQEND
  5
652
  8
0
  0
POLYLINE
  5
655
  8
0
 66
     1
 10
0.0
 20
0.0
 30
0.0
 70
     1
  0
VERTEX
  5
656
  8
0
 10
27.60487129014011
 20
16.537263768031931
 30
0.0
  0
VERTEX
  5
657
  8
0
 10
27.60487129014011
 20
16.47820864992169
 30
0.0
  0
VERTEX
  5
659
  8
0
 10
27.447390975179481
 20
16.47820864992169
 30
0.0
  0
VERTEX
  5
65A
  8
0
 10
27.447390975179481
 20
16.537263768031931
 30
0.0
  0
SEQEND
  5
658
  8
0
  0
POLYLINE
  5
65B
  8
0
 66
     1
 10
0.0
 20
0.0
 30
0.0
 70
     1
  0
VERTEX
  5
65C
  8
0
 10
27.191485463368458
 20
16.497893689291772
 30
0.0
  0
VERTEX
  5
65D
  8
0
 10
27.191485463368458
 20
16.340413374331138
 30
0.0
  0
VERTEX
  5
65F
  8
0
 10
27.132430345258221
 20
16.340413374331138
 30
0.0
  0
VERTEX
  5
660
  8
0
 10
27.132430345258221
 20
16.497893689291772
 30
0.0
  0
SEQEND
  5
65E
  8
0
  0
POLYLINE
  5
661
  8
0
 66
     1
 10
0.0
 20
0.0
 30
0.0
 70
     1
  0
VERTEX
  5
662
  8
0
 10
26.541879164155858
 20
16.497893689291772
 30
0.0
  0
VERTEX
  5
663
  8
0
 10
26.541879164155858
 20
16.340413374331138
 30
0.0
  0
VERTEX
  5
665
  8
0
 10
26.482824046045621
 20
16.340413374331138
 30
0.0
  0
VERTEX
  5
666
  8
0
 10
26.482824046045629
 20
16.497893689291772
 30
0.0
  0
SEQEND
  5
664
  8
0
  0
POLYLINE
  5
667
  8
0
 66
     1
 10
0.0
 20
0.0
 30
0.0
 70
     1
  0
VERTEX
  5
668
  8
0
 10
27.132430345258221
 20
15.78923227196894
 30
0.0
  0
VERTEX
  5
669
  8
0
 10
27.132430345258221
 20
15.94671258692957
 30
0.0
  0
VERTEX
  5
66B
  8
0
 10
27.191485463368458
 20
15.94671258692957
 30
0.0
  0
VERTEX
  5
66C
  8
0
 10
27.191485463368458
 20
15.78923227196894
 30
0.0
  0
SEQEND
  5
66A
  8
0
  0
POLYLINE
  5
66D
  8
0
 66
     1
 10
0.0
 20
0.0
 30
0.0
 70
     1
  0
VERTEX
  5
66E
  8
0
 10
26.482824046045629
 20
15.78923227196894
 30
0.0
  0
VERTEX
  5
66F
  8
0
 10
26.482824046045629
 20
15.94671258692957
 30
0.0
  0
VERTEX
  5
671
  8
0
 10
26.541879164155869
 20
15.94671258692957
 30
0.0
  0
VERTEX
  5
672
  8
0
 10
26.541879164155858
 20
15.78923227196894
 30
0.0
  0
SEQEND
  5
670
  8
0
  0
POLYLINE
  5
673
  8
0
 66
     1
 10
0.0
 20
0.0
 30
0.0
 70
     1
  0
VERTEX
  5
674
  8
0
 10
27.447390975179481
 20
16.104192901890201
 30
0.0
  0
VERTEX
  5
675
  8
0
 10
27.447390975179481
 20
16.163248020000431
 30
0.0
  0
VERTEX
  5
677
  8
0
 10
27.60487129014011
 20
16.163248020000431
 30
0.0
  0
VERTEX
  5
678
  8
0
 10
27.60487129014011
 20
16.104192901890201
 30
0.0
  0
SEQEND
  5
676
  8
0
  0
POLYLINE
  5
679
  8
0
 66
     1
 10
0.0
 20
0.0
 30
0.0
 70
     1
  0
VERTEX
  5
67A
  8
0
 10
20.29750481117815
 20
10.40557422306575
 30
0.0
  0
VERTEX
  5
67B
  8
0
 10
20.29750481117815
 20
10.46462934117598
 30
0.0
  0
VERTEX
  5
67D
  8
0
 10
20.45498512613878
 20
10.46462934117598
 30
0.0
  0
VERTEX
  5
67E
  8
0
 10
20.45498512613878
 20
10.40557422306575
 30
0.0
  0
SEQEND
  5
67C
  8
0
  0
POLYLINE
  5
67F
  8
0
 66
     1
 10
0.0
 20
0.0
 30
0.0
 70
     1
  0
VERTEX
  5
680
  8
0
 10
22.443174102516739
 20
8.4764403647980302
 30
0.0
  0
VERTEX
  5
681
  8
0
 10
22.443174102516739
 20
8.3189600498374023
 30
0.0
  0
VERTEX
  5
683
  8
0
 10
22.384118984406498
 20
8.3189600498374023
 30
0.0
  0
VERTEX
  5
684
  8
0
 10
22.384118984406498
 20
8.4764403647980302
 30
0.0
  0
SEQEND
  5
682
  8
0
  0
POLYLINE
  5
685
  8
0
 66
     1
 10
0.0
 20
0.0
 30
0.0
 70
     1
  0
VERTEX
  5
686
  8
0
 10
19.588843393855321
 20
10.56305453802638
 30
0.0
  0
VERTEX
  5
687
  8
0
 10
19.588843393855321
 20
7.610298632514569
 30
0.0
  0
VERTEX
  5
689
  8
0
 10
22.541599299367132
 20
7.6102986325145672
 30
0.0
  0
VERTEX
  5
68A
  8
0
 10
22.541599299367132
 20
8.0039994199161431
 30
0.0
  0
VERTEX
  5
68B
  8
0
 10
22.796599299367131
 20
8.0039994199161431
 30
0.0
  0
VERTEX
  5
68C
  8
0
 10
22.796599299367131
 20
8.7914009947192913
 30
0.0
  0
VERTEX
  5
68D
  8
0
 10
22.541599299367132
 20
8.7914009947192913
 30
0.0
  0
VERTEX
  5
68E
  8
0
 10
22.541599299367132
 20
9.1851017821208671
 30
0.0
  0
VERTEX
  5
68F
  8
0
 10
21.163646543461621
 20
9.1851017821208671
 30
0.0
  0
VERTEX
  5
690
  8
0
 10
21.163646543461621
 20
10.56305453802638
 30
0.0
  0
VERTEX
  5
691
  8
0
 10
20.769945756060039
 20
10.56305453802638
 30
0.0
  0
VERTEX
  5
692
  8
0
 10
20.769945756060039
 20
10.818054538026381
 30
0.0
  0
VERTEX
  5
693
  8
0
 10
19.982544181256891
 20
10.818054538026381
 30
0.0
  0
VERTEX
  5
694
  8
0
 10
19.982544181256891
 20
10.56305453802638
 30
0.0
  0
SEQEND
  5
688
  8
0
  0
POLYLINE
  5
695
  8
0
 66
     1
 10
0.0
 20
0.0
 30
0.0
 70
     1
  0
VERTEX
  5
696
  8
0
 10
15.16482196778302
 20
2.6347300909225821
 30
0.0
 42
-0.9999999999999998
  0
VERTEX
  5
697
  8
0
 10
15.16482196778302
 20
2.044178909820221
 30
0.0
  0
VERTEX
  5
699
  8
0
 10
14.180569999279101
 20
2.0441789098202201
 30
0.0
 42
-0.9999999999999998
  0
VERTEX
  5
69A
  8
0
 10
14.18056999927909
 20
2.634730090922579
 30
0.0
  0
SEQEND
  5
698
  8
0
  0
POLYLINE
  5
69B
  8
0
 66
     1
 10
0.0
 20
0.0
 30
0.0
 70
     1
  0
VERTEX
  5
69C
  8
0
 10
28.020058188255401
 20
1.8079584373791999
 30
0.0
  0
VERTEX
  5
69D
  8
0
 10
28.020058188255401
 20
1.9654387523398289
 30
0.0
  0
VERTEX
  5
69F
  8
0
 10
28.079113306365631
 20
1.9654387523398289
 30
0.0
  0
VERTEX
  5
6A0
  8
0
 10
28.079113306365642
 20
1.8079584373791999
 30
0.0
  0
SEQEND
  5
69E
  8
0
  0
POLYLINE
  5
6A1
  8
0
 66
     1
 10
0.0
 20
0.0
 30
0.0
 70
     1
  0
VERTEX
  5
6A2
  8
0
 10
28.020058188255419
 20
-3.1133014051403851
 30
0.0
  0
VERTEX
  5
6A3
  8
0
 10
28.020058188255419
 20
-2.955821090179755
 30
0.0
  0
VERTEX
  5
6A5
  8
0
 10
28.079113306365659
 20
-2.955821090179755
 30
0.0
  0
VERTEX
  5
6A6
  8
0
 10
28.079113306365659
 20
-3.1133014051403851
 30
0.0
  0
SEQEND
  5
6A4
  8
0
  0
POLYLINE
  5
6A7
  8
0
 66
     1
 10
0.0
 20
0.0
 30
0.0
 70
     1
  0
VERTEX
  5
6A8
  8
0
 10
11.641199920538959
 20
1.9654387523399031
 30
0.0
  0
VERTEX
  5
6A9
  8
0
 10
11.7002550386492
 20
1.9654387523399039
 30
0.0
  0
VERTEX
  5
6AB
  8
0
 10
11.7002550386492
 20
1.807958437379275
 30
0.0
  0
VERTEX
  5
6AC
  8
0
 10
11.641199920538959
 20
1.807958437379275
 30
0.0
  0
SEQEND
  5
6AA
  8
0
  0
POLYLINE
  5
6AD
  8
0
 66
     1
 10
0.0
 20
0.0
 30
0.0
 70
     1
  0
VERTEX
  5
6AE
  8
0
 10
12.64604244022399
 20
3.2646513507650901
 30
0.0
  0
VERTEX
  5
6AF
  8
0
 10
12.64604244022399
 20
3.2055962326548539
 30
0.0
  0
VERTEX
  5
6B1
  8
0
 10
12.488562125263361
 20
3.2055962326548548
 30
0.0
  0
VERTEX
  5
6B2
  8
0
 10
12.488562125263361
 20
3.2646513507650901
 30
0.0
  0
SEQEND
  5
6B0
  8
0
  0
POLYLINE
  5
6B3
  8
0
 66
     1
 10
0.0
 20
0.0
 30
0.0
 70
     1
  0
VERTEX
  5
6B4
  8
0
 10
18.256278660696399
 20
3.2646513507650949
 30
0.0
  0
VERTEX
  5
6B5
  8
0
 10
18.256278660696399
 20
3.2055962326548579
 30
0.0
  0
VERTEX
  5
6B7
  8
0
 10
18.098798345735769
 20
3.2055962326548588
 30
0.0
  0
VERTEX
  5
6B8
  8
0
 10
18.098798345735769
 20
3.2646513507650949
 30
0.0
  0
SEQEND
  5
6B6
  8
0
  0
POLYLINE
  5
6B9
  8
0
 66
     1
 10
0.0
 20
0.0
 30
0.0
 70
     1
  0
VERTEX
  5
6BA
  8
0
 10
23.866514881168801
 20
3.264651350765102
 30
0.0
  0
VERTEX
  5
6BB
  8
0
 10
23.866514881168801
 20
3.205596232654865
 30
0.0
  0
VERTEX
  5
6BD
  8
0
 10
23.709034566208171
 20
3.205596232654865
 30
0.0
  0
VERTEX
  5
6BE
  8
0
 10
23.709034566208171
 20
3.2646513507651012
 30
0.0
  0
SEQEND
  5
6BC
  8
0
  0
POLYLINE
  5
6BF
  8
0
 66
     1
 10
0.0
 20
0.0
 30
0.0
 70
     1
  0
VERTEX
  5
6C0
  8
0
 10
29.476751101641209
 20
3.2646513507651052
 30
0.0
  0
VERTEX
  5
6C1
  8
0
 10
29.476751101641209
 20
3.2055962326548681
 30
0.0
  0
VERTEX
  5
6C3
  8
0
 10
29.31927078668058
 20
3.205596232654869
 30
0.0
  0
VERTEX
  5
6C4
  8
0
 10
29.31927078668058
 20
3.2646513507651069
 30
0.0
  0
SEQEND
  5
6C2
  8
0
  0
POLYLINE
  5
6C5
  8
0
 66
     1
 10
0.0
 20
0.0
 30
0.0
 70
     1
  0
VERTEX
  5
6C6
  8
0
 10
29.476751101641241
 20
-4.4715691216758131
 30
0.0
  0
VERTEX
  5
6C7
  8
0
 10
29.319270786680619
 20
-4.4715691216758131
 30
0.0
  0
VERTEX
  5
6C9
  8
0
 10
29.319270786680619
 20
-4.4125140035655761
 30
0.0
  0
VERTEX
  5
6CA
  8
0
 10
29.476751101641241
 20
-4.412514003565577
 30
0.0
  0
SEQEND
  5
6C8
  8
0
  0
POLYLINE
  5
6CB
  8
0
 66
     1
 10
0.0
 20
0.0
 30
0.0
 70
     1
  0
VERTEX
  5
6CC
  8
0
 10
29.319270786680612
 20
-3.9016084917545539
 30
0.0
  0
VERTEX
  5
6CD
  8
0
 10
29.476751101641231
 20
-3.9016084917545539
 30
0.0
  0
VERTEX
  5
6CF
  8
0
 10
29.476751101641241
 20
-3.96066360986479
 30
0.0
  0
VERTEX
  5
6D0
  8
0
 10
29.319270786680619
 20
-3.96066360986479
 30
0.0
  0
SEQEND
  5
6CE
  8
0
  0
POLYLINE
  5
6D1
  8
0
 66
     1
 10
0.0
 20
0.0
 30
0.0
 70
     1
  0
VERTEX
  5
6D2
  8
0
 10
29.31927078668058
 20
3.7755568625761282
 30
0.0
  0
VERTEX
  5
6D3
  8
0
 10
29.476751101641199
 20
3.7755568625761282
 30
0.0
  0
VERTEX
  5
6D5
  8
0
 10
29.476751101641199
 20
3.7165017444658912
 30
0.0
  0
VERTEX
  5
6D6
  8
0
 10
29.31927078668058
 20
3.7165017444658921
 30
0.0
  0
SEQEND
  5
6D4
  8
0
  0
POLYLINE
  5
6D7
  8
0
 66
     1
 10
0.0
 20
0.0
 30
0.0
 70
     1
  0
VERTEX
  5
6D8
  8
0
 10
23.709034566208171
 20
3.775556862576122
 30
0.0
  0
VERTEX
  5
6D9
  8
0
 10
23.866514881168801
 20
3.775556862576122
 30
0.0
  0
VERTEX
  5
6DB
  8
0
 10
23.866514881168801
 20
3.7165017444658872
 30
0.0
  0
VERTEX
  5
6DC
  8
0
 10
23.709034566208171
 20
3.7165017444658872
 30
0.0
  0
SEQEND
  5
6DA
  8
0
  0
POLYLINE
  5
6DD
  8
0
 66
     1
 10
0.0
 20
0.0
 30
0.0
 70
     1
  0
VERTEX
  5
6DE
  8
0
 10
18.098798345735759
 20
3.7755568625761171
 30
0.0
  0
VERTEX
  5
6DF
  8
0
 10
18.256278660696388
 20
3.7755568625761171
 30
0.0
  0
VERTEX
  5
6E1
  8
0
 10
18.256278660696388
 20
3.716501744465881
 30
0.0
  0
VERTEX
  5
6E2
  8
0
 10
18.098798345735759
 20
3.7165017444658819
 30
0.0
  0
SEQEND
  5
6E0
  8
0
  0
POLYLINE
  5
6E3
  8
0
 66
     1
 10
0.0
 20
0.0
 30
0.0
 70
     1
  0
VERTEX
  5
6E4
  8
0
 10
12.488562125263361
 20
3.7755568625761109
 30
0.0
  0
VERTEX
  5
6E5
  8
0
 10
12.64604244022399
 20
3.7755568625761109
 30
0.0
  0
VERTEX
  5
6E7
  8
0
 10
12.64604244022399
 20
3.7165017444658748
 30
0.0
  0
VERTEX
  5
6E8
  8
0
 10
12.488562125263361
 20
3.7165017444658761
 30
0.0
  0
SEQEND
  5
6E6
  8
0
  0
POLYLINE
  5
6E9
  8
0
 66
     1
 10
0.0
 20
0.0
 30
0.0
 70
     1
  0
VERTEX
  5
6EA
  8
0
 10
11.13029440872794
 20
1.8079584373792741
 30
0.0
  0
VERTEX
  5
6EB
  8
0
 10
11.13029440872794
 20
1.9654387523399039
 30
0.0
  0
VERTEX
  5
6ED
  8
0
 10
11.18934952683818
 20
1.9654387523399031
 30
0.0
  0
VERTEX
  5
6EE
  8
0
 10
11.18934952683818
 20
1.807958437379273
 30
0.0
  0
SEQEND
  5
6EC
  8
0
  0
POLYLINE
  5
6EF
  8
0
 66
     1
 10
0.0
 20
0.0
 30
0.0
 70
     1
  0
VERTEX
  5
6F0
  8
0
 10
27.509152676444401
 20
-3.1133014051403869
 30
0.0
  0
VERTEX
  5
6F1
  8
0
 10
27.509152676444401
 20
-2.9558210901797581
 30
0.0
  0
VERTEX
  5
6F3
  8
0
 10
27.568207794554631
 20
-2.9558210901797581
 30
0.0
  0
VERTEX
  5
6F4
  8
0
 10
27.568207794554631
 20
-3.1133014051403869
 30
0.0
  0
SEQEND
  5
6F2
  8
0
  0
POLYLINE
  5
6F5
  8
0
 66
     1
 10
0.0
 20
0.0
 30
0.0
 70
     1
  0
VERTEX
  5
6F6
  8
0
 10
27.50915267644438
 20
1.8079584373791999
 30
0.0
  0
VERTEX
  5
6F7
  8
0
 10
27.50915267644438
 20
1.96543875233983
 30
0.0
  0
VERTEX
  5
6F9
  8
0
 10
27.56820779455461
 20
1.9654387523398289
 30
0.0
  0
VERTEX
  5
6FA
  8
0
 10
27.56820779455461
 20
1.807958437379199
 30
0.0
  0
SEQEND
  5
6F8
  8
0
  0
POLYLINE
  5
6FB
  8
0
 66
     1
 10
0.0
 20
0.0
 30
0.0
 70
     1
  0
VERTEX
  5
6FC
  8
0
 10
27.66663299140502
 20
-2.5424352634081049
 30
0.0
  0
VERTEX
  5
6FD
  8
0
 10
27.92163299140503
 20
-2.5424352634081071
 30
0.0
  0
VERTEX
  5
6FF
  8
0
 10
27.92163299140503
 20
-3.5266872319120379
 30
0.0
  0
VERTEX
  5
700
  8
0
 10
27.666632991405031
 20
-3.5266872319120401
 30
0.0
  0
SEQEND
  5
6FE
  8
0
  0
POLYLINE
  5
701
  8
0
 66
     1
 10
0.0
 20
0.0
 30
0.0
 70
     1
  0
VERTEX
  5
702
  8
0
 10
13.05942826699564
 20
3.6180765476154839
 30
0.0
  0
VERTEX
  5
703
  8
0
 10
13.05942826699564
 20
3.3630765476154849
 30
0.0
  0
VERTEX
  5
705
  8
0
 10
12.07517629849171
 20
3.363076547615484
 30
0.0
  0
VERTEX
  5
706
  8
0
 10
12.07517629849171
 20
3.6180765476154839
 30
0.0
  0
SEQEND
  5
704
  8
0
  0
POLYLINE
  5
707
  8
0
 66
     1
 10
0.0
 20
0.0
 30
0.0
 70
     1
  0
VERTEX
  5
708
  8
0
 10
24.27990070794046
 20
3.6180765476154941
 30
0.0
  0
VERTEX
  5
709
  8
0
 10
24.27990070794046
 20
3.3630765476154951
 30
0.0
  0
VERTEX
  5
70B
  8
0
 10
23.295648739436519
 20
3.3630765476154929
 30
0.0
  0
VERTEX
  5
70C
  8
0
 10
23.295648739436519
 20
3.6180765476154941
 30
0.0
  0
SEQEND
  5
70A
  8
0
  0
POLYLINE
  5
70D
  8
0
 66
     1
 10
0.0
 20
0.0
 30
0.0
 70
     1
  0
VERTEX
  5
70E
  8
0
 10
29.8901369284129
 20
-4.0590888067151827
 30
0.0
  0
VERTEX
  5
70F
  8
0
 10
29.8901369284129
 20
-4.3140888067151826
 30
0.0
  0
VERTEX
  5
711
  8
0
 10
28.90588495990896
 20
-4.3140888067151844
 30
0.0
  0
VERTEX
  5
712
  8
0
 10
28.90588495990896
 20
-4.0590888067151836
 30
0.0
  0
SEQEND
  5
710
  8
0
  0
POLYLINE
  5
713
  8
0
 66
     1
 10
0.0
 20
0.0
 30
0.0
 70
     1
  0
VERTEX
  5
714
  8
0
 10
29.890136928412861
 20
3.618076547615499
 30
0.0
  0
VERTEX
  5
715
  8
0
 10
29.890136928412861
 20
3.3630765476154991
 30
0.0
  0
VERTEX
  5
717
  8
0
 10
28.905884959908931
 20
3.3630765476154991
 30
0.0
  0
VERTEX
  5
718
  8
0
 10
28.905884959908931
 20
3.618076547615499
 30
0.0
  0
SEQEND
  5
716
  8
0
  0
POLYLINE
  5
719
  8
0
 66
     1
 10
0.0
 20
0.0
 30
0.0
 70
     1
  0
VERTEX
  5
71A
  8
0
 10
18.66966448746804
 20
3.6180765476154888
 30
0.0
  0
VERTEX
  5
71B
  8
0
 10
18.66966448746804
 20
3.3630765476154889
 30
0.0
  0
VERTEX
  5
71D
  8
0
 10
17.685412518964121
 20
3.3630765476154889
 30
0.0
  0
VERTEX
  5
71E
  8
0
 10
17.685412518964121
 20
3.6180765476154879
 30
0.0
  0
SEQEND
  5
71C
  8
0
  0
POLYLINE
  5
71F
  8
0
 66
     1
 10
0.0
 20
0.0
 30
0.0
 70
     1
  0
VERTEX
  5
720
  8
0
 10
11.54277472368857
 20
1.3945726106076219
 30
0.0
  0
VERTEX
  5
721
  8
0
 10
11.287774723688569
 20
1.3945726106076211
 30
0.0
  0
VERTEX
  5
723
  8
0
 10
11.287774723688569
 20
2.3788245791115541
 30
0.0
  0
VERTEX
  5
724
  8
0
 10
11.54277472368857
 20
2.378824579111555
 30
0.0
  0
SEQEND
  5
722
  8
0
  0
POLYLINE
  5
725
  8
0
 66
     1
 10
0.0
 20
0.0
 30
0.0
 70
     1
  0
VERTEX
  5
726
  8
0
 10
27.666632991404999
 20
2.3788245791115639
 30
0.0
  0
VERTEX
  5
727
  8
0
 10
27.921632991405001
 20
2.3788245791115652
 30
0.0
  0
VERTEX
  5
729
  8
0
 10
27.921632991405009
 20
1.394572610607629
 30
0.0
  0
VERTEX
  5
72A
  8
0
 10
27.66663299140501
 20
1.394572610607629
 30
0.0
  0
SEQEND
  5
728
  8
0
  0
ARC
  5
72B
  8
0
 10
39.133844779134598
 20
-0.3480061295498342
 30
0.0
 40
8.8500070633201684
 50
158.95060142255119
 51
201.0493985774483
  0
LINE
  5
72C
  8
0
 10
30.874388896916809
 20
2.830674972812397
 30
0.0
 11
30.874388896916791
 21
3.814926941316287
 31
0.0
  0
LINE
  5
72D
  8
0
 10
11.09092432998777
 20
3.8149269413162679
 30
0.0
 11
30.874388896916791
 21
3.814926941316287
 31
0.0
  0
LINE
  5
72E
  8
0
 10
11.090924329987789
 20
0.410320642103681
 30
0.0
 11
11.09092432998777
 21
3.8149269413162679
 31
0.0
  0
LINE
  5
72F
  8
0
 10
11.090924329987789
 20
0.410320642103681
 30
0.0
 11
27.666632991405042
 21
-4.5109392004159732
 31
0.0
  0
LINE
  5
730
  8
0
 10
11.090924329987789
 20
0.410320642103681
 30
0.0
 11
27.666632991405042
 21
-4.5109392004159732
 31
0.0
  0
LINE
  5
731
  8
0
 10
27.666632991405042
 20
-4.5109392004159732
 30
0.0
 11
30.87438889691683
 21
-4.5109392004159714
 31
0.0
  0
LINE
  5
732
  8
0
 10
30.87438889691683
 20
-4.5109392004159714
 30
0.0
 11
30.874388896916798
 21
-3.5266872319119948
 31
0.0
  0
POLYLINE
  5
733
  8
0
 66
     1
 10
0.0
 20
0.0
 30
0.0
 70
     1
  0
VERTEX
  5
734
  8
0
 10
26.78964136096673
 20
-7.6844969164782917
 30
0.0
 42
-0.9999999999999998
  0
VERTEX
  5
735
  8
0
 10
26.78964136096673
 20
-7.0939457353759297
 30
0.0
  0
VERTEX
  5
737
  8
0
 10
27.77389332947066
 20
-7.0939457353759297
 30
0.0
 42
-0.9999999999999998
  0
VERTEX
  5
738
  8
0
 10
27.77389332947066
 20
-7.6844969164782899
 30
0.0
  0
SEQEND
  5
736
  8
0
  0
POLYLINE
  5
739
  8
0
 66
     1
 10
0.0
 20
0.0
 30
0.0
 70
     1
  0
VERTEX
  5
73A
  8
0
 10
13.934405140494381
 20
-6.8577252629349461
 30
0.0
  0
VERTEX
  5
73B
  8
0
 10
13.934405140494381
 20
-7.015205577895574
 30
0.0
  0
VERTEX
  5
73D
  8
0
 10
13.875350022384151
 20
-7.0152055778955758
 30
0.0
  0
VERTEX
  5
73E
  8
0
 10
13.875350022384151
 20
-6.8577252629349461
 30
0.0
  0
SEQEND
  5
73C
  8
0
  0
POLYLINE
  5
73F
  8
0
 66
     1
 10
0.0
 20
0.0
 30
0.0
 70
     1
  0
VERTEX
  5
740
  8
0
 10
13.93440514049437
 20
-1.9364654204153531
 30
0.0
  0
VERTEX
  5
741
  8
0
 10
13.93440514049437
 20
-2.0939457353759829
 30
0.0
  0
VERTEX
  5
743
  8
0
 10
13.87535002238414
 20
-2.0939457353759798
 30
0.0
  0
VERTEX
  5
744
  8
0
 10
13.87535002238414
 20
-1.9364654204153531
 30
0.0
  0
SEQEND
  5
742
  8
0
  0
POLYLINE
  5
745
  8
0
 66
     1
 10
0.0
 20
0.0
 30
0.0
 70
     1
  0
VERTEX
  5
746
  8
0
 10
30.31326340821078
 20
-7.0152055778956051
 30
0.0
  0
VERTEX
  5
747
  8
0
 10
30.25420829010055
 20
-7.0152055778956068
 30
0.0
  0
VERTEX
  5
749
  8
0
 10
30.25420829010055
 20
-6.8577252629349763
 30
0.0
  0
VERTEX
  5
74A
  8
0
 10
30.31326340821078
 20
-6.8577252629349763
 30
0.0
  0
SEQEND
  5
748
  8
0
  0
POLYLINE
  5
74B
  8
0
 66
     1
 10
0.0
 20
0.0
 30
0.0
 70
     1
  0
VERTEX
  5
74C
  8
0
 10
29.30842088852576
 20
-8.3144181763207996
 30
0.0
  0
VERTEX
  5
74D
  8
0
 10
29.30842088852576
 20
-8.2553630582105626
 30
0.0
  0
VERTEX
  5
74F
  8
0
 10
29.465901203486379
 20
-8.2553630582105626
 30
0.0
  0
VERTEX
  5
750
  8
0
 10
29.465901203486379
 20
-8.3144181763207961
 30
0.0
  0
SEQEND
  5
74E
  8
0
  0
POLYLINE
  5
751
  8
0
 66
     1
 10
0.0
 20
0.0
 30
0.0
 70
     1
  0
VERTEX
  5
752
  8
0
 10
23.698184668053361
 20
-8.3144181763208191
 30
0.0
  0
VERTEX
  5
753
  8
0
 10
23.698184668053361
 20
-8.2553630582105857
 30
0.0
  0
VERTEX
  5
755
  8
0
 10
23.855664983013991
 20
-8.2553630582105821
 30
0.0
  0
VERTEX
  5
756
  8
0
 10
23.855664983013991
 20
-8.3144181763208191
 30
0.0
  0
SEQEND
  5
754
  8
0
  0
POLYLINE
  5
757
  8
0
 66
     1
 10
0.0
 20
0.0
 30
0.0
 70
     1
  0
VERTEX
  5
758
  8
0
 10
18.08794844758097
 20
-8.3144181763208387
 30
0.0
  0
VERTEX
  5
759
  8
0
 10
18.08794844758097
 20
-8.2553630582106017
 30
0.0
  0
VERTEX
  5
75B
  8
0
 10
18.2454287625416
 20
-8.2553630582106017
 30
0.0
  0
VERTEX
  5
75C
  8
0
 10
18.2454287625416
 20
-8.3144181763208351
 30
0.0
  0
SEQEND
  5
75A
  8
0
  0
POLYLINE
  5
75D
  8
0
 66
     1
 10
0.0
 20
0.0
 30
0.0
 70
     1
  0
VERTEX
  5
75E
  8
0
 10
12.477712227108571
 20
-8.3144181763208582
 30
0.0
  0
VERTEX
  5
75F
  8
0
 10
12.477712227108571
 20
-8.2553630582106212
 30
0.0
  0
VERTEX
  5
761
  8
0
 10
12.6351925420692
 20
-8.2553630582106212
 30
0.0
  0
VERTEX
  5
762
  8
0
 10
12.6351925420692
 20
-8.3144181763208547
 30
0.0
  0
SEQEND
  5
760
  8
0
  0
POLYLINE
  5
763
  8
0
 66
     1
 10
0.0
 20
0.0
 30
0.0
 70
     1
  0
VERTEX
  5
764
  8
0
 10
12.47771222710856
 20
-0.5781977038799264
 30
0.0
  0
VERTEX
  5
765
  8
0
 10
12.63519254206919
 20
-0.5781977038799261
 30
0.0
  0
VERTEX
  5
767
  8
0
 10
12.63519254206919
 20
-0.6372528219901614
 30
0.0
  0
VERTEX
  5
768
  8
0
 10
12.47771222710856
 20
-0.6372528219901628
 30
0.0
  0
SEQEND
  5
766
  8
0
  0
POLYLINE
  5
769
  8
0
 66
     1
 10
0.0
 20
0.0
 30
0.0
 70
     1
  0
VERTEX
  5
76A
  8
0
 10
12.63519254206919
 20
-1.1481583338011849
 30
0.0
  0
VERTEX
  5
76B
  8
0
 10
12.47771222710856
 20
-1.1481583338011849
 30
0.0
  0
VERTEX
  5
76D
  8
0
 10
12.47771222710856
 20
-1.0891032156909499
 30
0.0
  0
VERTEX
  5
76E
  8
0
 10
12.63519254206919
 20
-1.089103215690949
 30
0.0
  0
SEQEND
  5
76C
  8
0
  0
POLYLINE
  5
76F
  8
0
 66
     1
 10
0.0
 20
0.0
 30
0.0
 70
     1
  0
VERTEX
  5
770
  8
0
 10
12.6351925420692
 20
-8.8253236881318777
 30
0.0
  0
VERTEX
  5
771
  8
0
 10
12.477712227108571
 20
-8.8253236881318777
 30
0.0
  0
VERTEX
  5
773
  8
0
 10
12.477712227108571
 20
-8.7662685700216443
 30
0.0
  0
VERTEX
  5
774
  8
0
 10
12.6351925420692
 20
-8.7662685700216425
 30
0.0
  0
SEQEND
  5
772
  8
0
  0
POLYLINE
  5
775
  8
0
 66
     1
 10
0.0
 20
0.0
 30
0.0
 70
     1
  0
VERTEX
  5
776
  8
0
 10
18.2454287625416
 20
-8.8253236881318582
 30
0.0
  0
VERTEX
  5
777
  8
0
 10
18.08794844758097
 20
-8.8253236881318582
 30
0.0
  0
VERTEX
  5
779
  8
0
 10
18.08794844758097
 20
-8.7662685700216247
 30
0.0
  0
VERTEX
  5
77A
  8
0
 10
18.2454287625416
 20
-8.7662685700216247
 30
0.0
  0
SEQEND
  5
778
  8
0
  0
POLYLINE
  5
77B
  8
0
 66
     1
 10
0.0
 20
0.0
 30
0.0
 70
     1
  0
VERTEX
  5
77C
  8
0
 10
23.855664983013991
 20
-8.8253236881318422
 30
0.0
  0
VERTEX
  5
77D
  8
0
 10
23.698184668053361
 20
-8.8253236881318422
 30
0.0
  0
VERTEX
  5
77F
  8
0
 10
23.698184668053361
 20
-8.7662685700216052
 30
0.0
  0
VERTEX
  5
780
  8
0
 10
23.855664983013991
 20
-8.7662685700216052
 30
0.0
  0
SEQEND
  5
77E
  8
0
  0
POLYLINE
  5
781
  8
0
 66
     1
 10
0.0
 20
0.0
 30
0.0
 70
     1
  0
VERTEX
  5
782
  8
0
 10
29.465901203486389
 20
-8.8253236881318227
 30
0.0
  0
VERTEX
  5
783
  8
0
 10
29.30842088852576
 20
-8.8253236881318227
 30
0.0
  0
VERTEX
  5
785
  8
0
 10
29.30842088852576
 20
-8.7662685700215857
 30
0.0
  0
VERTEX
  5
786
  8
0
 10
29.465901203486379
 20
-8.7662685700215839
 30
0.0
  0
SEQEND
  5
784
  8
0
  0
POLYLINE
  5
787
  8
0
 66
     1
 10
0.0
 20
0.0
 30
0.0
 70
     1
  0
VERTEX
  5
788
  8
0
 10
30.824168920021808
 20
-6.8577252629349763
 30
0.0
  0
VERTEX
  5
789
  8
0
 10
30.824168920021808
 20
-7.0152055778956051
 30
0.0
  0
VERTEX
  5
78B
  8
0
 10
30.765113801911571
 20
-7.0152055778956051
 30
0.0
  0
VERTEX
  5
78C
  8
0
 10
30.765113801911571
 20
-6.8577252629349763
 30
0.0
  0
SEQEND
  5
78A
  8
0
  0
POLYLINE
  5
78D
  8
0
 66
     1
 10
0.0
 20
0.0
 30
0.0
 70
     1
  0
VERTEX
  5
78E
  8
0
 10
14.445310652305389
 20
-1.93646542041535
 30
0.0
  0
VERTEX
  5
78F
  8
0
 10
14.445310652305389
 20
-2.0939457353759798
 30
0.0
  0
VERTEX
  5
791
  8
0
 10
14.386255534195159
 20
-2.0939457353759798
 30
0.0
  0
VERTEX
  5
792
  8
0
 10
14.386255534195159
 20
-1.93646542041535
 30
0.0
  0
SEQEND
  5
790
  8
0
  0
POLYLINE
  5
793
  8
0
 66
     1
 10
0.0
 20
0.0
 30
0.0
 70
     1
  0
VERTEX
  5
794
  8
0
 10
14.4453106523054
 20
-6.8577252629349426
 30
0.0
  0
VERTEX
  5
795
  8
0
 10
14.4453106523054
 20
-7.0152055778955722
 30
0.0
  0
VERTEX
  5
797
  8
0
 10
14.386255534195159
 20
-7.0152055778955722
 30
0.0
  0
VERTEX
  5
798
  8
0
 10
14.386255534195159
 20
-6.8577252629349426
 30
0.0
  0
SEQEND
  5
796
  8
0
  0
POLYLINE
  5
799
  8
0
 66
     1
 10
0.0
 20
0.0
 30
0.0
 70
     1
  0
VERTEX
  5
79A
  8
0
 10
14.28783033734476
 20
-2.5073315621476322
 30
0.0
  0
VERTEX
  5
79B
  8
0
 10
14.032830337344761
 20
-2.5073315621476322
 30
0.0
  0
VERTEX
  5
79D
  8
0
 10
14.032830337344761
 20
-1.523079593643698
 30
0.0
  0
VERTEX
  5
79E
  8
0
 10
14.28783033734476
 20
-1.523079593643698
 30
0.0
  0
SEQEND
  5
79C
  8
0
  0
POLYLINE
  5
79F
  8
0
 66
     1
 10
0.0
 20
0.0
 30
0.0
 70
     1
  0
VERTEX
  5
7A0
  8
0
 10
28.895035061754111
 20
-8.667843373171193
 30
0.0
  0
VERTEX
  5
7A1
  8
0
 10
28.895035061754111
 20
-8.4128433731711922
 30
0.0
  0
VERTEX
  5
7A3
  8
0
 10
29.879287030258041
 20
-8.4128433731711922
 30
0.0
  0
VERTEX
  5
7A4
  8
0
 10
29.87928703025803
 20
-8.6678433731711895
 30
0.0
  0
SEQEND
  5
7A2
  8
0
  0
POLYLINE
  5
7A5
  8
0
 66
     1
 10
0.0
 20
0.0
 30
0.0
 70
     1
  0
VERTEX
  5
7A6
  8
0
 10
17.674562620809311
 20
-8.6678433731712321
 30
0.0
  0
VERTEX
  5
7A7
  8
0
 10
17.674562620809311
 20
-8.4128433731712313
 30
0.0
  0
VERTEX
  5
7A9
  8
0
 10
18.658814589313241
 20
-8.4128433731712313
 30
0.0
  0
VERTEX
  5
7AA
  8
0
 10
18.658814589313241
 20
-8.6678433731712285
 30
0.0
  0
SEQEND
  5
7A8
  8
0
  0
POLYLINE
  5
7AB
  8
0
 66
     1
 10
0.0
 20
0.0
 30
0.0
 70
     1
  0
VERTEX
  5
7AC
  8
0
 10
12.06432640033691
 20
-0.990678018840556
 30
0.0
  0
VERTEX
  5
7AD
  8
0
 10
12.06432640033691
 20
-0.7356780188405563
 30
0.0
  0
VERTEX
  5
7AF
  8
0
 10
13.04857836884084
 20
-0.735678018840554
 30
0.0
  0
VERTEX
  5
7B0
  8
0
 10
13.04857836884084
 20
-0.9906780188405541
 30
0.0
  0
SEQEND
  5
7AE
  8
0
  0
POLYLINE
  5
7B1
  8
0
 66
     1
 10
0.0
 20
0.0
 30
0.0
 70
     1
  0
VERTEX
  5
7B2
  8
0
 10
12.06432640033692
 20
-8.6678433731712516
 30
0.0
  0
VERTEX
  5
7B3
  8
0
 10
12.06432640033692
 20
-8.4128433731712509
 30
0.0
  0
VERTEX
  5
7B5
  8
0
 10
13.04857836884085
 20
-8.4128433731712491
 30
0.0
  0
VERTEX
  5
7B6
  8
0
 10
13.04857836884085
 20
-8.6678433731712516
 30
0.0
  0
SEQEND
  5
7B4
  8
0
  0
POLYLINE
  5
7B7
  8
0
 66
     1
 10
0.0
 20
0.0
 30
0.0
 70
     1
  0
VERTEX
  5
7B8
  8
0
 10
23.28479884128171
 20
-8.6678433731712126
 30
0.0
  0
VERTEX
  5
7B9
  8
0
 10
23.28479884128171
 20
-8.4128433731712118
 30
0.0
  0
VERTEX
  5
7BB
  8
0
 10
24.269050809785639
 20
-8.41284337317121
 30
0.0
  0
VERTEX
  5
7BC
  8
0
 10
24.269050809785639
 20
-8.667843373171209
 30
0.0
  0
SEQEND
  5
7BA
  8
0
  0
POLYLINE
  5
7BD
  8
0
 66
     1
 10
0.0
 20
0.0
 30
0.0
 70
     1
  0
VERTEX
  5
7BE
  8
0
 10
30.41168860506119
 20
-6.4443394361633244
 30
0.0
  0
VERTEX
  5
7BF
  8
0
 10
30.666688605061179
 20
-6.4443394361633217
 30
0.0
  0
VERTEX
  5
7C1
  8
0
 10
30.666688605061179
 20
-7.4285914046672588
 30
0.0
  0
VERTEX
  5
7C2
  8
0
 10
30.411688605061169
 20
-7.4285914046672623
 30
0.0
  0
SEQEND
  5
7C0
  8
0
  0
POLYLINE
  5
7C3
  8
0
 66
     1
 10
0.0
 20
0.0
 30
0.0
 70
     1
  0
VERTEX
  5
7C4
  8
0
 10
14.28783033734477
 20
-7.4285914046673076
 30
0.0
  0
VERTEX
  5
7C5
  8
0
 10
14.03283033734478
 20
-7.4285914046673103
 30
0.0
  0
VERTEX
  5
7C7
  8
0
 10
14.03283033734477
 20
-6.444339436163375
 30
0.0
  0
VERTEX
  5
7C8
  8
0
 10
14.28783033734477
 20
-6.4443394361633732
 30
0.0
  0
SEQEND
  5
7C6
  8
0
  0
POLYLINE
  5
7C9
  8
0
 66
     1
 10
0.0
 20
0.0
 30
0.0
 70
     1
  0
VERTEX
  5
7CA
  8
0
 10
-9.1316579193802685
 20
-8.6117700441262635
 30
0.0
 42
-0.0631578947368424
  0
VERTEX
  5
7CB
  8
0
 10
9.5691294821944801
 20
-8.6117700441262635
 30
0.0
  0
VERTEX
  5
7CD
  8
0
 10
10.55338145069843
 20
-8.6117700441262812
 30
0.0
  0
VERTEX
  5
7CE
  8
0
 10
10.55338145069843
 20
-7.627518075622346
 30
0.0
  0
VERTEX
  5
7CF
  8
0
 10
10.80838145069843
 20
-7.627518075622346
 30
0.0
  0
VERTEX
  5
7D0
  8
0
 10
10.80838145069843
 20
-6.6432661071184116
 30
0.0
  0
VERTEX
  5
7D1
  8
0
 10
10.55338145069843
 20
-6.6432661071184116
 30
0.0
  0
VERTEX
  5
7D2
  8
0
 10
10.55338145069843
 20
-5.6590141386144781
 30
0.0
  0
VERTEX
  5
7D3
  8
0
 10
8.5848775136905662
 20
-5.6590141386144808
 30
0.0
  0
VERTEX
  5
7D4
  8
0
 10
8.5848775136905662
 20
-5.40401413861448
 30
0.0
  0
VERTEX
  5
7D5
  8
0
 10
7.6006255451866291
 20
-5.40401413861448
 30
0.0
  0
VERTEX
  5
7D6
  8
0
 10
7.6006255451866291
 20
-5.6590141386144799
 30
0.0
  0
VERTEX
  5
7D7
  8
0
 10
0.7108617656590832
 20
-5.6590141386144737
 30
0.0
  0
VERTEX
  5
7D8
  8
0
 10
0.7108617656590877
 20
-5.4040141386144791
 30
0.0
  0
VERTEX
  5
7D9
  8
0
 10
-0.2733902028448478
 20
-5.4040141386144773
 30
0.0
  0
VERTEX
  5
7DA
  8
0
 10
-0.2733902028448497
 20
-5.6590141386144737
 30
0.0
  0
VERTEX
  5
7DB
  8
0
 10
-7.1631539823723944
 20
-5.6590141386144781
 30
0.0
  0
VERTEX
  5
7DC
  8
0
 10
-7.1631539823723918
 20
-5.4040141386144791
 30
0.0
  0
VERTEX
  5
7DD
  8
0
 10
-8.1474059508763261
 20
-5.4040141386144773
 30
0.0
  0
VERTEX
  5
7DE
  8
0
 10
-8.1474059508763261
 20
-5.6590141386144737
 30
0.0
  0
VERTEX
  5
7DF
  8
0
 10
-10.1159098878842
 20
-5.6590141386144763
 30
0.0
  0
VERTEX
  5
7E0
  8
0
 10
-10.1159098878842
 20
-6.6432661071184071
 30
0.0
  0
VERTEX
  5
7E1
  8
0
 10
-10.370909887884199
 20
-6.6432661071184071
 30
0.0
  0
VERTEX
  5
7E2
  8
0
 10
-10.370909887884199
 20
-7.6275180756223371
 30
0.0
  0
VERTEX
  5
7E3
  8
0
 10
-10.1159098878842
 20
-7.6275180756223397
 30
0.0
  0
VERTEX
  5
7E4
  8
0
 10
-10.1159098878842
 20
-8.6117700441262812
 30
0.0
  0
SEQEND
  5
7CC
  8
0
  0
POLYLINE
  5
7E5
  8
0
 66
     1
 10
0.0
 20
0.0
 30
0.0
 70
     1
  0
VERTEX
  5
7E6
  8
0
 10
0.1399956239268055
 20
-5.8164944535750882
 30
0.0
  0
VERTEX
  5
7E7
  8
0
 10
0.1399956239268053
 20
-5.7574393354648521
 30
0.0
  0
VERTEX
  5
7E9
  8
0
 10
0.2974759388874346
 20
-5.7574393354648521
 30
0.0
  0
VERTEX
  5
7EA
  8
0
 10
0.297475938887435
 20
-5.8164944535750891
 30
0.0
  0
SEQEND
  5
7E8
  8
0
  0
POLYLINE
  5
7EB
  8
0
 66
     1
 10
0.0
 20
0.0
 30
0.0
 70
     1
  0
VERTEX
  5
7EC
  8
0
 10
-10.0174846910338
 20
-7.2141322488506878
 30
0.0
  0
VERTEX
  5
7ED
  8
0
 10
-10.0174846910338
 20
-7.0566519338900582
 30
0.0
  0
VERTEX
  5
7EF
  8
0
 10
-9.9584295729235652
 20
-7.0566519338900582
 30
0.0
  0
VERTEX
  5
7F0
  8
0
 10
-9.9584295729235652
 20
-7.214132248850686
 30
0.0
  0
SEQEND
  5
7EE
  8
0
  0
POLYLINE
  5
7F1
  8
0
 66
     1
 10
0.0
 20
0.0
 30
0.0
 70
     1
  0
VERTEX
  5
7F2
  8
0
 10
-7.7340201241046751
 20
-5.8164944535751069
 30
0.0
  0
VERTEX
  5
7F3
  8
0
 10
-7.7340201241046751
 20
-5.7574393354648716
 30
0.0
  0
VERTEX
  5
7F5
  8
0
 10
-7.5765398091440463
 20
-5.7574393354648716
 30
0.0
  0
VERTEX
  5
7F6
  8
0
 10
-7.5765398091440463
 20
-5.8164944535751069
 30
0.0
  0
SEQEND
  5
7F4
  8
0
  0
POLYLINE
  5
7F7
  8
0
 66
     1
 10
0.0
 20
0.0
 30
0.0
 70
     1
  0
VERTEX
  5
7F8
  8
0
 10
10.454956253848041
 20
-7.2141322488506958
 30
0.0
  0
VERTEX
  5
7F9
  8
0
 10
10.3959011357378
 20
-7.2141322488506949
 30
0.0
  0
VERTEX
  5
7FB
  8
0
 10
10.3959011357378
 20
-7.0566519338900653
 30
0.0
  0
VERTEX
  5
7FC
  8
0
 10
10.454956253848041
 20
-7.0566519338900626
 30
0.0
  0
SEQEND
  5
7FA
  8
0
  0
POLYLINE
  5
7FD
  8
0
 66
     1
 10
0.0
 20
0.0
 30
0.0
 70
     1
  0
VERTEX
  5
7FE
  8
0
 10
8.0140113719582811
 20
-5.8164944535751104
 30
0.0
  0
VERTEX
  5
7FF
  8
0
 10
8.0140113719582811
 20
-5.7574393354648752
 30
0.0
  0
VERTEX
  5
801
  8
0
 10
8.1714916869189107
 20
-5.7574393354648752
 30
0.0
  0
VERTEX
  5
802
  8
0
 10
8.1714916869189143
 20
-5.8164944535751104
 30
0.0
  0
SEQEND
  5
800
  8
0
  0
POLYLINE
  5
803
  8
0
 66
     1
 10
0.0
 20
0.0
 30
0.0
 70
     1
  0
VERTEX
  5
804
  8
0
 10
-9.2466126892340021
 20
-5.2474828093988144
 30
0.0
 42
-0.0631578947368428
  0
VERTEX
  5
805
  8
0
 10
9.4541747123408477
 20
-5.2474828093988251
 30
0.0
  0
VERTEX
  5
807
  8
0
 10
10.438426680844611
 20
-5.2474828093993144
 30
0.0
  0
VERTEX
  5
808
  8
0
 10
10.438426680844611
 20
-4.2632308408953907
 30
0.0
  0
VERTEX
  5
809
  8
0
 10
10.69342668084461
 20
-4.263230840895389
 30
0.0
  0
VERTEX
  5
80A
  8
0
 10
10.69342668084461
 20
-3.278978872391463
 30
0.0
  0
VERTEX
  5
80B
  8
0
 10
10.438426680844611
 20
-3.278978872391463
 30
0.0
  0
VERTEX
  5
80C
  8
0
 10
10.438426680844611
 20
-2.2947269038875362
 30
0.0
  0
VERTEX
  5
80D
  8
0
 10
8.4699227438367437
 20
-2.2947269038875402
 30
0.0
  0
VERTEX
  5
80E
  8
0
 10
8.4699227438367455
 20
-2.039726903887543
 30
0.0
  0
VERTEX
  5
80F
  8
0
 10
7.4856707753328111
 20
-2.039726903887543
 30
0.0
  0
VERTEX
  5
810
  8
0
 10
7.4856707753328111
 20
-2.2947269038875411
 30
0.0
  0
VERTEX
  5
811
  8
0
 10
0.5959069958052706
 20
-2.2947269038875371
 30
0.0
  0
VERTEX
  5
812
  8
0
 10
0.5959069958052733
 20
-2.039726903887543
 30
0.0
  0
VERTEX
  5
813
  8
0
 10
-0.3883449726986612
 20
-2.039726903887543
 30
0.0
  0
VERTEX
  5
814
  8
0
 10
-0.3883449726986641
 20
-2.2947269038875371
 30
0.0
  0
VERTEX
  5
815
  8
0
 10
-7.2781087522262018
 20
-2.2947269038875429
 30
0.0
  0
VERTEX
  5
816
  8
0
 10
-7.2781087522262027
 20
-2.0397269038875461
 30
0.0
  0
VERTEX
  5
817
  8
0
 10
-8.2623607207301362
 20
-2.0397269038875461
 30
0.0
  0
VERTEX
  5
818
  8
0
 10
-8.2623607207301362
 20
-2.2947269038875411
 30
0.0
  0
VERTEX
  5
819
  8
0
 10
-10.23086465773801
 20
-2.2947269038875429
 30
0.0
  0
VERTEX
  5
81A
  8
0
 10
-10.230864657738
 20
-3.2789788723914639
 30
0.0
  0
VERTEX
  5
81B
  8
0
 10
-10.485864657738
 20
-3.2789788723914661
 30
0.0
  0
VERTEX
  5
81C
  8
0
 10
-10.485864657738
 20
-4.2632308408953943
 30
0.0
  0
VERTEX
  5
81D
  8
0
 10
-10.230864657738
 20
-4.2632308408953916
 30
0.0
  0
VERTEX
  5
81E
  8
0
 10
-10.23086465773801
 20
-5.2474828093993251
 30
0.0
  0
SEQEND
  5
806
  8
0
  0
POLYLINE
  5
81F
  8
0
 66
     1
 10
0.0
 20
0.0
 30
0.0
 70
     1
  0
VERTEX
  5
820
  8
0
 10
0.0250408540729916
 20
-2.4522072188481481
 30
0.0
  0
VERTEX
  5
821
  8
0
 10
0.0250408540729914
 20
-2.393152100737912
 30
0.0
  0
VERTEX
  5
823
  8
0
 10
0.1825211690336206
 20
-2.3931521007379111
 30
0.0
  0
VERTEX
  5
824
  8
0
 10
0.1825211690336225
 20
-2.4522072188481481
 30
0.0
  0
SEQEND
  5
822
  8
0
  0
POLYLINE
  5
825
  8
0
 66
     1
 10
0.0
 20
0.0
 30
0.0
 70
     1
  0
VERTEX
  5
826
  8
0
 10
-10.13243946088761
 20
-3.8498450141237419
 30
0.0
  0
VERTEX
  5
827
  8
0
 10
-10.13243946088761
 20
-3.6923646991631118
 30
0.0
  0
VERTEX
  5
829
  8
0
 10
-10.07338434277737
 20
-3.6923646991631141
 30
0.0
  0
VERTEX
  5
82A
  8
0
 10
-10.07338434277737
 20
-3.849845014123745
 30
0.0
  0
SEQEND
  5
828
  8
0
  0
POLYLINE
  5
82B
  8
0
 66
     1
 10
0.0
 20
0.0
 30
0.0
 70
     1
  0
VERTEX
  5
82C
  8
0
 10
-7.8489748939584842
 20
-2.4522072188481729
 30
0.0
  0
VERTEX
  5
82D
  8
0
 10
-7.8489748939584842
 20
-2.3931521007379368
 30
0.0
  0
VERTEX
  5
82F
  8
0
 10
-7.6914945789978537
 20
-2.3931521007379368
 30
0.0
  0
VERTEX
  5
830
  8
0
 10
-7.6914945789978564
 20
-2.4522072188481721
 30
0.0
  0
SEQEND
  5
82E
  8
0
  0
POLYLINE
  5
831
  8
0
 66
     1
 10
0.0
 20
0.0
 30
0.0
 70
     1
  0
VERTEX
  5
832
  8
0
 10
10.34000148399422
 20
-3.8498450141237419
 30
0.0
  0
VERTEX
  5
833
  8
0
 10
10.280946365883979
 20
-3.8498450141237419
 30
0.0
  0
VERTEX
  5
835
  8
0
 10
10.280946365883979
 20
-3.6923646991631141
 30
0.0
  0
VERTEX
  5
836
  8
0
 10
10.34000148399422
 20
-3.6923646991631118
 30
0.0
  0
SEQEND
  5
834
  8
0
  0
POLYLINE
  5
837
  8
0
 66
     1
 10
0.0
 20
0.0
 30
0.0
 70
     1
  0
VERTEX
  5
838
  8
0
 10
7.8990566021044639
 20
-2.4522072188481698
 30
0.0
  0
VERTEX
  5
839
  8
0
 10
7.8990566021044639
 20
-2.3931521007379351
 30
0.0
  0
VERTEX
  5
83B
  8
0
 10
8.0565369170650936
 20
-2.3931521007379342
 30
0.0
  0
VERTEX
  5
83C
  8
0
 10
8.0565369170650918
 20
-2.4522072188481689
 30
0.0
  0
SEQEND
  5
83A
  8
0
  0
POLYLINE
  5
83D
  8
0
 66
     1
 10
0.0
 20
0.0
 30
0.0
 70
     1
  0
VERTEX
  5
83E
  8
0
 10
15.294379773511031
 20
15.32919616069214
 30
0.0
 42
-0.4142135623730951
  0
VERTEX
  5
83F
  8
0
 10
15.491230167211819
 20
15.526046554392931
 30
0.0
  0
VERTEX
  5
841
  8
0
 10
16.08178134831418
 20
15.52604655439292
 30
0.0
 42
-0.4142135623730951
  0
VERTEX
  5
842
  8
0
 10
16.278631742014969
 20
15.32919616069214
 30
0.0
  0
VERTEX
  5
843
  8
0
 10
16.278631742014959
 20
14.93549537329057
 30
0.0
 42
-0.4142135623730951
  0
VERTEX
  5
844
  8
0
 10
16.08178134831418
 20
14.738644979589781
 30
0.0
  0
VERTEX
  5
845
  8
0
 10
15.49123016721181
 20
14.738644979589781
 30
0.0
 42
-0.4142135623730951
  0
VERTEX
  5
846
  8
0
 10
15.294379773511031
 20
14.93549537329057
 30
0.0
  0
SEQEND
  5
840
  8
0
  0
POLYLINE
  5
847
  8
0
 66
     1
 10
0.0
 20
0.0
 30
0.0
 70
     1
  0
VERTEX
  5
848
  8
0
 10
30.874388896916809
 20
2.8306749728123992
 30
0.0
 42
0.1857849724728606
  0
VERTEX
  5
849
  8
0
 10
30.874388896916781
 20
-3.5266872319120002
 30
0.0
  0
VERTEX
  5
84B
  8
0
 10
30.87438889691683
 20
-4.5109392004159714
 30
0.0
  0
VERTEX
  5
84C
  8
0
 10
27.666632991405042
 20
-4.5109392004159732
 30
0.0
  0
VERTEX
  5
84D
  8
0
 10
11.090924329987789
 20
0.410320642103681
 30
0.0
  0
VERTEX
  5
84E
  8
0
 10
11.09092432998777
 20
3.8149269413162679
 30
0.0
  0
VERTEX
  5
84F
  8
0
 10
30.874388896916791
 20
3.814926941316287
 30
0.0
  0
SEQEND
  5
84A
  8
0
  0
POLYLINE
  5
850
  8
0
 66
     1
 10
0.0
 20
0.0
 30
0.0
 70
     1
  0
VERTEX
  5
851
  8
0
 10
30.863538998761971
 20
-5.460087467659382
 30
0.0
  0
VERTEX
  5
852
  8
0
 10
30.863538998761971
 20
-8.8646937668719747
 30
0.0
  0
VERTEX
  5
854
  8
0
 10
11.08007443183299
 20
-8.8646937668720422
 30
0.0
  0
VERTEX
  5
855
  8
0
 10
11.08007443183298
 20
-7.8804417983681354
 30
0.0
 42
0.1857849724728613
  0
VERTEX
  5
856
  8
0
 10
11.08007443183303
 20
-1.523079593643716
 30
0.0
  0
VERTEX
  5
857
  8
0
 10
11.080074431832969
 20
-0.5388276251397741
 30
0.0
  0
VERTEX
  5
858
  8
0
 10
14.28783033734476
 20
-0.5388276251397628
 30
0.0
  0
SEQEND
  5
853
  8
0
  0
CIRCLE
  5
859
  8
0
 10
15.786505757763001
 20
15.03864497958978
 30
0.0
 40
0.1999999999999987
  0
CIRCLE
  5
85A
  8
0
 10
16.087026139767278
 20
15.339165361594061
 30
0.0
 40
0.0196850393700787
  0
CIRCLE
  5
85B
  8
0
 10
15.48598537575872
 20
15.339165361594061
 30
0.0
 40
0.0196850393700787
  0
CIRCLE
  5
85C
  8
0
 10
20.193342148368352
 20
-3.491583530651547
 30
0.0
 40
0.1574803149606298
  0
CIRCLE
  5
85D
  8
0
 10
28.777830337344671
 20
-6.7789851054546633
 30
0.0
 40
0.0590551181102362
  0
CIRCLE
  5
85E
  8
0
 10
29.998302778289531
 20
-7.9994575463995421
 30
0.0
 40
0.0590551181102362
  0
CIRCLE
  5
85F
  8
0
 10
29.998302778289538
 20
-6.7789851054546597
 30
0.0
 40
0.0590551181102362
  0
CIRCLE
  5
860
  8
0
 10
28.777830337344671
 20
-7.9994575463995483
 30
0.0
 40
0.0590551181102362
  0
CIRCLE
  5
861
  8
0
 10
29.388066557817101
 20
-7.3892213259271031
 30
0.0
 40
0.4330708661417317
  0
CIRCLE
  5
862
  8
0
 10
21.761121180381441
 20
-1.5581832949041781
 30
0.0
 40
0.1574803149606295
  0
CIRCLE
  5
863
  8
0
 10
13.176632991405089
 20
1.7292182798989579
 30
0.0
 40
0.0590551181102361
  0
CIRCLE
  5
864
  8
0
 10
11.95616055046021
 20
2.9496907208438361
 30
0.0
 40
0.0590551181102361
  0
CIRCLE
  5
865
  8
0
 10
11.95616055046021
 20
1.729218279898959
 30
0.0
 40
0.0590551181102361
  0
CIRCLE
  5
866
  8
0
 10
13.176632991405089
 20
2.9496907208438392
 30
0.0
 40
0.0590551181102361
  0
CIRCLE
  5
867
  8
0
 10
12.56639677093265
 20
2.339454500371398
 30
0.0
 40
0.4330708661417311
  0
CIRCLE
  5
868
  8
0
 10
25.990698061793658
 20
15.828602350709099
 30
0.0
 40
0.1574803149606294
  0
CIRCLE
  5
869
  8
0
 10
25.990698061793658
 20
14.84435038220516
 30
0.0
 40
0.1574803149606294
  0
CIRCLE
  5
86A
  8
0
 10
22.862900698547399
 20
16.756837811792021
 30
0.0
 40
0.1574803149606299
  0
CIRCLE
  5
86B
  8
0
 10
22.862900698547399
 20
15.772585843288081
 30
0.0
 40
0.1574803149606299
  0
CIRCLE
  5
86C
  8
0
 10
15.786505757763001
 20
15.03864497958978
 30
0.0
 40
0.1999999999999987
  0
CIRCLE
  5
86D
  8
0
 10
20.951017617113539
 20
14.07187832813986
 30
0.0
 40
0.0590551181102362
  0
CIRCLE
  5
86E
  8
0
 10
19.730545176168661
 20
14.071878328139871
 30
0.0
 40
0.0590551181102362
  0
CIRCLE
  5
86F
  8
0
 10
19.730545176168651
 20
12.85140588719498
 30
0.0
 40
0.0590551181102362
  0
CIRCLE
  5
870
  8
0
 10
20.951017617113539
 20
12.85140588719498
 30
0.0
 40
0.0590551181102362
  0
CIRCLE
  5
871
  8
0
 10
20.340781396641098
 20
13.461642107667419
 30
0.0
 40
0.4330708661417321
  0
CIRCLE
  5
872
  8
0
 10
18.607366551763999
 20
15.7967628967418
 30
0.0
 40
0.0590551181102362
  0
CIRCLE
  5
873
  8
0
 10
17.38689411081911
 20
15.7967628967418
 30
0.0
 40
0.0590551181102362
  0
CIRCLE
  5
874
  8
0
 10
17.38689411081911
 20
14.57629045579692
 30
0.0
 40
0.0590551181102362
  0
CIRCLE
  5
875
  8
0
 10
18.607366551763992
 20
14.57629045579692
 30
0.0
 40
0.0590551181102362
  0
CIRCLE
  5
876
  8
0
 10
17.997130331291551
 20
15.186526676269359
 30
0.0
 40
0.4330708661417317
  0
CIRCLE
  5
877
  8
0
 10
14.9175210683551
 20
18.76468021151442
 30
0.0
 40
0.1574803149606298
  0
CIRCLE
  5
878
  8
0
 10
14.9175210683551
 20
19.74893218001835
 30
0.0
 40
0.1574803149606298
  0
CIRCLE
  5
879
  8
0
 10
29.012009257331471
 20
19.748932180018329
 30
0.0
 40
0.1574803149606298
  0
CIRCLE
  5
87A
  8
0
 10
29.01200925733146
 20
18.764680211514388
 30
0.0
 40
0.1574803149606298
  0
CIRCLE
  5
87B
  8
0
 10
14.05137933607161
 20
22.122013555489399
 30
0.0
 40
0.1574803149606291
  0
CIRCLE
  5
87C
  8
0
 10
29.878150989614831
 20
22.12201355548941
 30
0.0
 40
0.1574803149606291
  0
CIRCLE
  5
87D
  8
0
 10
12.653741540796
 20
4.8385489885603574
 30
0.0
 40
0.43307086614173
  0
CIRCLE
  5
87E
  8
0
 10
12.043505320323559
 20
4.228312768087922
 30
0.0
 40
0.0590551181102359
  0
CIRCLE
  5
87F
  8
0
 10
13.263977761268441
 20
5.4487852090327937
 30
0.0
 40
0.0590551181102359
  0
CIRCLE
  5
880
  8
0
 10
12.04350532032357
 20
5.4487852090327928
 30
0.0
 40
0.0590551181102359
  0
CIRCLE
  5
881
  8
0
 10
13.26397776126843
 20
4.228312768087922
 30
0.0
 40
0.0590551181102359
  0
CIRCLE
  5
882
  8
0
 10
31.886025005362821
 20
5.4487852090328079
 30
0.0
 40
0.0590551181102359
  0
CIRCLE
  5
883
  8
0
 10
30.665552564417951
 20
5.4487852090328079
 30
0.0
 40
0.0590551181102359
  0
CIRCLE
  5
884
  8
0
 10
31.886025005362821
 20
4.2283127680879371
 30
0.0
 40
0.0590551181102359
  0
CIRCLE
  5
885
  8
0
 10
31.275788784890391
 20
4.8385489885603734
 30
0.0
 40
0.43307086614173
  0
CIRCLE
  5
886
  8
0
 10
30.665552564417951
 20
4.2283127680879362
 30
0.0
 40
0.0590551181102359
  0
CIRCLE
  5
887
  8
0
 10
29.012009257331339
 20
7.3976041066705962
 30
0.0
 40
0.1574803149606291
  0
CIRCLE
  5
888
  8
0
 10
14.91752106835505
 20
7.3976041066705838
 30
0.0
 40
0.1574803149606291
  0
CIRCLE
  5
889
  8
0
 10
22.338780910874689
 20
6.47240725627689
 30
0.0
 40
0.1968503937007863
  0
CIRCLE
  5
88A
  8
0
 10
5.4359254670742851
 20
10.17367685847271
 30
0.0
 40
0.0492125984251968
  0
CIRCLE
  5
88B
  8
0
 10
5.4359254670743056
 20
23.165802842724659
 30
0.0
 40
0.0492125984251968
  0
CIRCLE
  5
88C
  8
0
 10
4.5304136560506674
 20
10.276826464771929
 30
0.0
 40
0.125
  0
CIRCLE
  5
88D
  8
0
 10
4.8309340380549504
 20
10.57734684677621
 30
0.0
 40
0.0196850393700787
  0
CIRCLE
  5
88E
  8
0
 10
4.2298932740463853
 20
10.57734684677621
 30
0.0
 40
0.0196850393700787
  0
CIRCLE
  5
88F
  8
0
 10
-5.6515677599468273
 20
10.26580272490502
 30
0.0
 40
0.0492125984251968
  0
CIRCLE
  5
890
  8
0
 10
-5.651567759946813
 20
23.257928709156971
 30
0.0
 40
0.0492125984251968
  0
CIRCLE
  5
891
  8
0
 10
-6.5570795709704432
 20
10.36895233120423
 30
0.0
 40
0.1999999999999992
  0
CIRCLE
  5
892
  8
0
 10
-6.256559188966162
 20
10.66947271320851
 30
0.0
 40
0.0196850393700787
  0
CIRCLE
  5
893
  8
0
 10
-6.8575999529747254
 20
10.66947271320851
 30
0.0
 40
0.0196850393700787
  0
CIRCLE
  5
894
  8
0
 10
0.9842519685039342
 20
-0.1668700787401567
 30
0.0
 40
0.0590551181102362
  0
CIRCLE
  5
895
  8
0
 10
-0.2362204724409461
 20
-1.3873425196850371
 30
0.0
 40
0.0590551181102362
  0
CIRCLE
  5
896
  8
0
 10
0.9842519685039327
 20
-1.3873425196850371
 30
0.0
 40
0.0590551181102362
  0
CIRCLE
  5
897
  8
0
 10
-0.236220472440944
 20
-0.1668700787401567
 30
0.0
 40
0.0590551181102362
  0
CIRCLE
  5
898
  8
0
 10
0.374015748031493
 20
-0.7771062992125979
 30
0.0
 40
0.4330708661417321
  0
ENDSEC
  0
EOF
