                                                                        S      1
,,10Hbasalt.ipt,27HNo Iges File Name specified,22HAutodesk Inventor 2013G      1
,37HAutoDesk Inventor Iges Exporter R2013,32,38,6,99,15,10Hbasalt.ipt,  G      2
1.0D0,2,2HMM,1,.08D0,15H20131018.142559,.01D0,10000.0D0,8Hemployee,,11, G      3
0,,;                                                                    G      4
     406       1       0       0       1       0       0       000000000D      1
     406       0       0       1       3                               0D      2
     116       2       0       0       0       0       0       000010000D      3
     116       0       0       1       0                               0D      4
     123       3       0       0       0       0       0       000010200D      5
     123       0       0       1       0                               0D      6
     192       4       0       0       0       0       0       000010000D      7
     192       0       0       1       1                               0D      8
     123       5       0       0       0       0       0       000010200D      9
     123       0       0       1       0                               0D     10
     504       6       0       0       0       0       0       000010001D     11
     504       0       0       8       1                               0D     12
     502      14       0       0       0       0       0       000010000D     13
     502       0       0      10       1                               0D     14
     100      24       0       0       0       0      17       000010000D     15
     100       0       0       2       0                               0D     16
     124      26       0       0       0       0       0       000000000D     17
     124       0       0       3       0                               0D     18
     110      29       0       0       0       0       0       000010000D     19
     110       0       0       1       0                               0D     20
     100      30       0       0       0       0      23       000010000D     21
     100       0       0       2       0                               0D     22
     124      32       0       0       0       0       0       000000000D     23
     124       0       0       3       0                               0D     24
     110      35       0       0       0       0       0       000010000D     25
     110       0       0       1       0                               0D     26
     508      36       0       0       0       0       0       000010000D     27
     508       0       0       1       1                               0D     28
     510      37       0       0       0       0       0       000010000D     29
     510       0       8       1       1                               0D     30
     116      38       0       0       0       0       0       000010000D     31
     116       0       0       1       0                               0D     32
     123      39       0       0       0       0       0       000010200D     33
     123       0       0       1       0                               0D     34
     190      40       0       0       0       0       0       000010000D     35
     190       0       0       1       1                               0D     36
     123      41       0       0       0       0       0       000010200D     37
     123       0       0       1       0                               0D     38
     110      42       0       0       0       0       0       000010000D     39
     110       0       0       1       0                               0D     40
     100      43       0       0       0       0      43       000010000D     41
     100       0       0       2       0                               0D     42
     124      45       0       0       0       0       0       000000000D     43
     124       0       0       3       0                               0D     44
     110      48       0       0       0       0       0       000010000D     45
     110       0       0       1       0                               0D     46
     100      49       0       0       0       0      49       000010000D     47
     100       0       0       2       0                               0D     48
     124      51       0       0       0       0       0       000000000D     49
     124       0       0       3       0                               0D     50
     110      54       0       0       0       0       0       000010000D     51
     110       0       0       1       0                               0D     52
     100      55       0       0       0       0      55       000010000D     53
     100       0       0       2       0                               0D     54
     124      57       0       0       0       0       0       000000000D     55
     124       0       0       3       0                               0D     56
     110      60       0       0       0       0       0       000010000D     57
     110       0       0       1       0                               0D     58
     508      61       0       0       0       0       0       000010000D     59
     508       0       0       2       1                               0D     60
     100      63       0       0       0       0      63       000010000D     61
     100       0       0       2       0                               0D     62
     124      65       0       0       0       0       0       000000000D     63
     124       0       0       2       0                               0D     64
     508      67       0       0       0       0       0       000010000D     65
     508       0       0       1       1                               0D     66
     100      68       0       0       0       0      69       000010000D     67
     100       0       0       2       0                               0D     68
     124      70       0       0       0       0       0       000000000D     69
     124       0       0       2       0                               0D     70
     508      72       0       0       0       0       0       000010000D     71
     508       0       0       1       1                               0D     72
     100      73       0       0       0       0      75       000010000D     73
     100       0       0       2       0                               0D     74
     124      75       0       0       0       0       0       000000000D     75
     124       0       0       2       0                               0D     76
     508      77       0       0       0       0       0       000010000D     77
     508       0       0       1       1                               0D     78
     100      78       0       0       0       0      81       000010000D     79
     100       0       0       2       0                               0D     80
     124      80       0       0       0       0       0       000000000D     81
     124       0       0       2       0                               0D     82
     508      82       0       0       0       0       0       000010000D     83
     508       0       0       1       1                               0D     84
     510      83       0       0       0       0       0       000010000D     85
     510       0       8       1       1                               0D     86
     116      84       0       0       0       0       0       000010000D     87
     116       0       0       1       0                               0D     88
     123      85       0       0       0       0       0       000010200D     89
     123       0       0       1       0                               0D     90
     190      86       0       0       0       0       0       000010000D     91
     190       0       0       1       1                               0D     92
     123      87       0       0       0       0       0       000010200D     93
     123       0       0       1       0                               0D     94
     110      88       0       0       0       0       0       000010000D     95
     110       0       0       1       0                               0D     96
     110      89       0       0       0       0       0       000010000D     97
     110       0       0       1       0                               0D     98
     508      90       0       0       0       0       0       000010000D     99
     508       0       0       1       1                               0D    100
     510      91       0       0       0       0       0       000010000D    101
     510       0       8       1       1                               0D    102
     116      92       0       0       0       0       0       000010000D    103
     116       0       0       1       0                               0D    104
     123      93       0       0       0       0       0       000010200D    105
     123       0       0       1       0                               0D    106
     192      94       0       0       0       0       0       000010000D    107
     192       0       0       1       1                               0D    108
     123      95       0       0       0       0       0       000010200D    109
     123       0       0       1       0                               0D    110
     100      96       0       0       0       0     113       000010000D    111
     100       0       0       2       0                               0D    112
     124      98       0       0       0       0       0       000000000D    113
     124       0       0       3       0                               0D    114
     110     101       0       0       0       0       0       000010000D    115
     110       0       0       1       0                               0D    116
     508     102       0       0       0       0       0       000010000D    117
     508       0       0       1       1                               0D    118
     510     103       0       0       0       0       0       000010000D    119
     510       0       8       1       1                               0D    120
     116     104       0       0       0       0       0       000010000D    121
     116       0       0       1       0                               0D    122
     123     105       0       0       0       0       0       000010200D    123
     123       0       0       1       0                               0D    124
     192     106       0       0       0       0       0       000010000D    125
     192       0       0       1       1                               0D    126
     123     107       0       0       0       0       0       000010200D    127
     123       0       0       1       0                               0D    128
     100     108       0       0       0       0     131       000010000D    129
     100       0       0       2       0                               0D    130
     124     110       0       0       0       0       0       000000000D    131
     124       0       0       3       0                               0D    132
     110     113       0       0       0       0       0       000010000D    133
     110       0       0       1       0                               0D    134
     110     114       0       0       0       0       0       000010000D    135
     110       0       0       1       0                               0D    136
     508     115       0       0       0       0       0       000010000D    137
     508       0       0       1       1                               0D    138
     510     116       0       0       0       0       0       000010000D    139
     510       0       8       1       1                               0D    140
     116     117       0       0       0       0       0       000010000D    141
     116       0       0       1       0                               0D    142
     123     118       0       0       0       0       0       000010200D    143
     123       0       0       1       0                               0D    144
     190     119       0       0       0       0       0       000010000D    145
     190       0       0       1       1                               0D    146
     123     120       0       0       0       0       0       000010200D    147
     123       0       0       1       0                               0D    148
     110     121       0       0       0       0       0       000010000D    149
     110       0       0       1       0                               0D    150
     110     122       0       0       0       0       0       000010000D    151
     110       0       0       1       0                               0D    152
     508     123       0       0       0       0       0       000010000D    153
     508       0       0       1       1                               0D    154
     510     124       0       0       0       0       0       000010000D    155
     510       0       8       1       1                               0D    156
     116     125       0       0       0       0       0       000010000D    157
     116       0       0       1       0                               0D    158
     123     126       0       0       0       0       0       000010200D    159
     123       0       0       1       0                               0D    160
     192     127       0       0       0       0       0       000010000D    161
     192       0       0       1       1                               0D    162
     123     128       0       0       0       0       0       000010200D    163
     123       0       0       1       0                               0D    164
     100     129       0       0       0       0     167       000010000D    165
     100       0       0       2       0                               0D    166
     124     131       0       0       0       0       0       000000000D    167
     124       0       0       3       0                               0D    168
     110     134       0       0       0       0       0       000010000D    169
     110       0       0       1       0                               0D    170
     508     135       0       0       0       0       0       000010000D    171
     508       0       0       1       1                               0D    172
     510     136       0       0       0       0       0       000010000D    173
     510       0       8       1       1                               0D    174
     120     137       0       0       0       0       0       000010000D    175
     120       0       0       1       0                               0D    176
     110     138       0       0       0       0       0       000010000D    177
     110       0       0       1       0                               0D    178
     110     139       0       0       0       0       0       001010000D    179
     110       0       0       1       0                               0D    180
     100     140       0       0       0       0     183       000010000D    181
     100       0       0       2       0                               0D    182
     124     142       0       0       0       0       0       000000000D    183
     124       0       0       2       0                               0D    184
     508     144       0       0       0       0       0       000010000D    185
     508       0       0       1       1                               0D    186
     508     145       0       0       0       0       0       000010000D    187
     508       0       0       1       1                               0D    188
     510     146       0       0       0       0       0       000010000D    189
     510       0       8       1       1                               0D    190
     120     147       0       0       0       0       0       000010000D    191
     120       0       0       1       0                               0D    192
     110     148       0       0       0       0       0       000010000D    193
     110       0       0       1       0                               0D    194
     110     149       0       0       0       0       0       001010000D    195
     110       0       0       1       0                               0D    196
     100     150       0       0       0       0     199       000010000D    197
     100       0       0       2       0                               0D    198
     124     152       0       0       0       0       0       000000000D    199
     124       0       0       2       0                               0D    200
     508     154       0       0       0       0       0       000010000D    201
     508       0       0       1       1                               0D    202
     508     155       0       0       0       0       0       000010000D    203
     508       0       0       1       1                               0D    204
     510     156       0       0       0       0       0       000010000D    205
     510       0       8       1       1                               0D    206
     120     157       0       0       0       0       0       000010000D    207
     120       0       0       1       0                               0D    208
     110     158       0       0       0       0       0       000010000D    209
     110       0       0       1       0                               0D    210
     110     159       0       0       0       0       0       001010000D    211
     110       0       0       1       0                               0D    212
     100     160       0       0       0       0     215       000010000D    213
     100       0       0       2       0                               0D    214
     124     162       0       0       0       0       0       000000000D    215
     124       0       0       2       0                               0D    216
     508     164       0       0       0       0       0       000010000D    217
     508       0       0       1       1                               0D    218
     508     165       0       0       0       0       0       000010000D    219
     508       0       0       1       1                               0D    220
     510     166       0       0       0       0       0       000010000D    221
     510       0       8       1       1                               0D    222
     120     167       0       0       0       0       0       000010000D    223
     120       0       0       1       0                               0D    224
     110     168       0       0       0       0       0       000010000D    225
     110       0       0       1       0                               0D    226
     110     169       0       0       0       0       0       001010000D    227
     110       0       0       1       0                               0D    228
     100     170       0       0       0       0     231       000010000D    229
     100       0       0       2       0                               0D    230
     124     172       0       0       0       0       0       000000000D    231
     124       0       0       2       0                               0D    232
     508     174       0       0       0       0       0       000010000D    233
     508       0       0       1       1                               0D    234
     508     175       0       0       0       0       0       000010000D    235
     508       0       0       1       1                               0D    236
     510     176       0       0       0       0       0       000010000D    237
     510       0       8       1       1                               0D    238
     116     177       0       0       0       0       0       000010000D    239
     116       0       0       1       0                               0D    240
     123     178       0       0       0       0       0       000010200D    241
     123       0       0       1       0                               0D    242
     190     179       0       0       0       0       0       000010000D    243
     190       0       0       1       1                               0D    244
     123     180       0       0       0       0       0       000010200D    245
     123       0       0       1       0                               0D    246
     110     181       0       0       0       0       0       000010000D    247
     110       0       0       1       0                               0D    248
     508     182       0       0       0       0       0       000010000D    249
     508       0       0       1       1                               0D    250
     510     183       0       0       0       0       0       000010000D    251
     510       0       8       1       1                               0D    252
     116     184       0       0       0       0       0       000010000D    253
     116       0       0       1       0                               0D    254
     123     185       0       0       0       0       0       000010200D    255
     123       0       0       1       0                               0D    256
     190     186       0       0       0       0       0       000010000D    257
     190       0       0       1       1                               0D    258
     123     187       0       0       0       0       0       000010200D    259
     123       0       0       1       0                               0D    260
     110     188       0       0       0       0       0       000010000D    261
     110       0       0       1       0                               0D    262
     508     189       0       0       0       0       0       000010000D    263
     508       0       0       1       1                               0D    264
     510     190       0       0       0       0       0       000010000D    265
     510       0       8       1       1                               0D    266
     116     191       0       0       0       0       0       000010000D    267
     116       0       0       1       0                               0D    268
     123     192       0       0       0       0       0       000010200D    269
     123       0       0       1       0                               0D    270
     190     193       0       0       0       0       0       000010000D    271
     190       0       0       1       1                               0D    272
     123     194       0       0       0       0       0       000010200D    273
     123       0       0       1       0                               0D    274
     508     195       0       0       0       0       0       000010000D    275
     508       0       0       2       1                               0D    276
     508     197       0       0       0       0       0       000010000D    277
     508       0       0       1       1                               0D    278
     508     198       0       0       0       0       0       000010000D    279
     508       0       0       1       1                               0D    280
     508     199       0       0       0       0       0       000010000D    281
     508       0       0       1       1                               0D    282
     508     200       0       0       0       0       0       000010000D    283
     508       0       0       1       1                               0D    284
     510     201       0       0       0       0       0       000010000D    285
     510       0       8       1       1                               0D    286
     514     202       0       0       0       0       0       000010000D    287
     514       0       0       2       1                               0D    288
     186     204       0       0       1       0       0       000000000D    289
     186       0       0       1       0                  Solid1       0D    290
406,2,0,6Hbasalt;                                                      1P      1
116,82.5D0,82.5D0,0.0D0,0;                                             3P      2
123,0.0D0,0.0D0,1.0D0;                                                 5P      3
192,3,5,30.0D0,9;                                                      7P      4
123,.707106781186547D0,.707106781186547D0,0.0D0;                       9P      5
504,32,15,13,1,13,2,19,13,2,13,3,21,13,3,13,4,25,13,4,13,1,39,        11P      6
13,5,13,3,41,13,6,13,5,45,13,7,13,6,47,13,8,13,7,51,13,9,13,8,        11P      7
53,13,10,13,9,57,13,4,13,10,61,13,11,13,11,67,13,12,13,12,73,13,      11P      8
13,13,13,79,13,14,13,14,95,13,15,13,2,97,13,5,13,15,111,13,15,        11P      9
13,16,115,13,16,13,6,129,13,17,13,18,133,13,18,13,10,135,13,9,        11P     10
13,17,149,13,19,13,8,151,13,17,13,19,165,13,20,13,19,169,13,7,        11P     11
13,20,181,13,21,13,21,197,13,22,13,22,213,13,23,13,23,229,13,24,      11P     12
13,24,247,13,20,13,16,261,13,1,13,18;                                 11P     13
502,24,82.5D0,112.5D0,9.525D0,112.5D0,82.5D0,9.525D0,112.5D0,         13P     14
82.5D0,0.0D0,82.5D0,112.5D0,0.0D0,112.5D0,-82.5D0,0.0D0,82.5D0,       13P     15
-112.5D0,0.0D0,-82.5D0,-112.5D0,0.0D0,-112.5D0,-82.5D0,0.0D0,         13P     16
-112.5D0,82.5D0,0.0D0,-82.5D0,112.5D0,0.0D0,79.05D0,100.0D0,          13P     17
0.0D0,-70.95D0,100.0D0,0.0D0,79.05D0,-100.0D0,0.0D0,-70.95D0,         13P     18
-100.0D0,0.0D0,112.5D0,-82.5D0,9.525D0,82.5D0,-112.5D0,9.525D0,       13P     19
-112.5D0,82.5D0,9.525D0,-82.5D0,112.5D0,9.525D0,-112.5D0,             13P     20
-82.5D0,9.525D0,-82.5D0,-112.5D0,9.525D0,79.05D0,100.0D0,             13P     21
9.525D0,-70.95D0,100.0D0,9.525D0,79.05D0,-100.0D0,9.525D0,            13P     22
-70.95D0,-100.0D0,9.525D0;                                            13P     23
100,0.0D0,0.0D0,0.0D0,21.2132034355964D0,-21.2132034355964D0,         15P     24
21.2132034355964D0,21.2132034355964D0;                                15P     25
124,.707106781186547D0,.707106781186547D0,0.0D0,82.5D0,               17P     26
.707106781186547D0,-.707106781186547D0,0.0D0,82.5D0,0.0D0,0.0D0,      17P     27
-1.0D0,9.525D0;                                                       17P     28
110,112.5D0,82.5D0,9.525D0,112.5D0,82.5D0,0.0D0;                      19P     29
100,0.0D0,0.0D0,0.0D0,21.2132034355964D0,-21.2132034355964D0,         21P     30
21.2132034355964D0,21.2132034355964D0;                                21P     31
124,.707106781186547D0,-.707106781186547D0,0.0D0,82.5D0,              23P     32
.707106781186547D0,.707106781186547D0,0.0D0,82.5D0,0.0D0,0.0D0,       23P     33
1.0D0,0.0D0;                                                          23P     34
110,82.5D0,112.5D0,0.0D0,82.5D0,112.5D0,9.525D0;                      25P     35
508,4,0,11,1,1,0,0,11,2,1,0,0,11,3,1,0,0,11,4,1,0;                    27P     36
510,7,1,1,27;                                                         29P     37
116,0.0D0,0.0D0,0.0D0,0;                                              31P     38
123,0.0D0,0.0D0,-1.0D0;                                               33P     39
190,31,33,37;                                                         35P     40
123,-1.0D0,0.0D0,0.0D0;                                               37P     41
110,112.5D0,-82.5D0,0.0D0,112.5D0,82.5D0,0.0D0;                       39P     42
100,0.0D0,0.0D0,0.0D0,21.2132034355964D0,-21.2132034355964D0,         41P     43
21.2132034355964D0,21.2132034355964D0;                                41P     44
124,.707106781186547D0,.707106781186547D0,0.0D0,82.5D0,               43P     45
-.707106781186547D0,.707106781186547D0,0.0D0,-82.5D0,0.0D0,           43P     46
0.0D0,1.0D0,0.0D0;                                                    43P     47
110,-82.5D0,-112.5D0,0.0D0,82.5D0,-112.5D0,0.0D0;                     45P     48
100,0.0D0,0.0D0,0.0D0,21.2132034355964D0,-21.2132034355964D0,         47P     49
21.2132034355964D0,21.2132034355964D0;                                47P     50
124,-.707106781186547D0,.707106781186547D0,0.0D0,-82.5D0,             49P     51
-.707106781186547D0,-.707106781186547D0,0.0D0,-82.5D0,0.0D0,          49P     52
0.0D0,1.0D0,0.0D0;                                                    49P     53
110,-112.5D0,82.5D0,0.0D0,-112.5D0,-82.5D0,0.0D0;                     51P     54
100,0.0D0,0.0D0,0.0D0,21.2132034355964D0,-21.2132034355964D0,         53P     55
21.2132034355964D0,21.2132034355964D0;                                53P     56
124,-.707106781186547D0,-.707106781186547D0,0.0D0,-82.5D0,            55P     57
.707106781186547D0,-.707106781186547D0,0.0D0,82.5D0,0.0D0,0.0D0,      55P     58
1.0D0,0.0D0;                                                          55P     59
110,82.5D0,112.5D0,0.0D0,-82.5D0,112.5D0,0.0D0;                       57P     60
508,8,0,11,3,0,0,0,11,5,0,0,0,11,6,0,0,0,11,7,0,0,0,11,8,0,0,0,       59P     61
11,9,0,0,0,11,10,0,0,0,11,11,0,0;                                     59P     62
100,0.0D0,0.0D0,0.0D0,-4.05D0,4.95981953654678D-16,-4.05D0,           61P     63
4.95981953654678D-16;                                                 61P     64
124,-1.0D0,0.0D0,0.0D0,75.0D0,0.0D0,-1.0D0,0.0D0,100.0D0,0.0D0,       63P     65
0.0D0,1.0D0,0.0D0;                                                    63P     66
508,1,0,11,12,1,0;                                                    65P     67
100,0.0D0,0.0D0,0.0D0,-4.05D0,4.95981953654678D-16,-4.05D0,           67P     68
4.95981953654678D-16;                                                 67P     69
124,-1.0D0,0.0D0,0.0D0,-75.0D0,0.0D0,-1.0D0,0.0D0,100.0D0,0.0D0,      69P     70
0.0D0,1.0D0,0.0D0;                                                    69P     71
508,1,0,11,13,1,0;                                                    71P     72
100,0.0D0,0.0D0,0.0D0,-4.05D0,4.95981953654678D-16,-4.05D0,           73P     73
4.95981953654678D-16;                                                 73P     74
124,-1.0D0,0.0D0,0.0D0,75.0D0,0.0D0,-1.0D0,0.0D0,-100.0D0,0.0D0,      75P     75
0.0D0,1.0D0,0.0D0;                                                    75P     76
508,1,0,11,14,1,0;                                                    77P     77
100,0.0D0,0.0D0,0.0D0,-4.05D0,4.95981953654678D-16,-4.05D0,           79P     78
4.95981953654678D-16;                                                 79P     79
124,-1.0D0,0.0D0,0.0D0,-75.0D0,0.0D0,-1.0D0,0.0D0,-100.0D0,           81P     80
0.0D0,0.0D0,1.0D0,0.0D0;                                              81P     81
508,1,0,11,15,1,0;                                                    83P     82
510,35,5,1,59,65,71,77,83;                                            85P     83
116,112.5D0,0.0D0,0.0D0,0;                                            87P     84
123,1.0D0,0.0D0,0.0D0;                                                89P     85
190,87,89,93;                                                         91P     86
123,0.0D0,1.0D0,0.0D0;                                                93P     87
110,112.5D0,-82.5D0,9.525D0,112.5D0,82.5D0,9.525D0;                   95P     88
110,112.5D0,-82.5D0,0.0D0,112.5D0,-82.5D0,9.525D0;                    97P     89
508,4,0,11,2,0,0,0,11,16,0,0,0,11,17,0,0,0,11,5,1,0;                  99P     90
510,91,1,1,99;                                                       101P     91
116,82.5D0,-82.5D0,0.0D0,0;                                          103P     92
123,0.0D0,0.0D0,1.0D0;                                               105P     93
192,103,105,30.0D0,109;                                              107P     94
123,.707106781186547D0,-.707106781186547D0,0.0D0;                    109P     95
100,0.0D0,0.0D0,0.0D0,21.2132034355964D0,-21.2132034355964D0,        111P     96
21.2132034355964D0,21.2132034355964D0;                               111P     97
124,.707106781186547D0,-.707106781186547D0,0.0D0,82.5D0,             113P     98
-.707106781186547D0,-.707106781186547D0,0.0D0,-82.5D0,0.0D0,         113P     99
0.0D0,-1.0D0,9.525D0;                                                113P    100
110,82.5D0,-112.5D0,9.525D0,82.5D0,-112.5D0,0.0D0;                   115P    101
508,4,0,11,18,1,0,0,11,19,1,0,0,11,6,1,0,0,11,17,1,0;                117P    102
510,107,1,1,117;                                                     119P    103
116,-82.5D0,82.5D0,0.0D0,0;                                          121P    104
123,0.0D0,0.0D0,1.0D0;                                               123P    105
192,121,123,30.0D0,127;                                              125P    106
123,-.707106781186547D0,.707106781186547D0,0.0D0;                    127P    107
100,0.0D0,0.0D0,0.0D0,21.2132034355964D0,-21.2132034355964D0,        129P    108
21.2132034355964D0,21.2132034355964D0;                               129P    109
124,-.707106781186547D0,.707106781186547D0,0.0D0,-82.5D0,            131P    110
.707106781186547D0,.707106781186547D0,0.0D0,82.5D0,0.0D0,0.0D0,      131P    111
-1.0D0,9.525D0;                                                      131P    112
110,-82.5D0,112.5D0,9.525D0,-82.5D0,112.5D0,0.0D0;                   133P    113
110,-112.5D0,82.5D0,0.0D0,-112.5D0,82.5D0,9.525D0;                   135P    114
508,4,0,11,20,1,0,0,11,21,1,0,0,11,10,1,0,0,11,22,1,0;               137P    115
510,125,1,1,137;                                                     139P    116
116,-112.5D0,112.5D0,0.0D0,0;                                        141P    117
123,-1.0D0,0.0D0,0.0D0;                                              143P    118
190,141,143,147;                                                     145P    119
123,0.0D0,-1.0D0,0.0D0;                                              147P    120
110,-112.5D0,-82.5D0,9.525D0,-112.5D0,-82.5D0,0.0D0;                 149P    121
110,-112.5D0,82.5D0,9.525D0,-112.5D0,-82.5D0,9.525D0;                151P    122
508,4,0,11,22,0,0,0,11,9,1,0,0,11,23,0,0,0,11,24,0,0;                153P    123
510,145,1,1,153;                                                     155P    124
116,-82.5D0,-82.5D0,0.0D0,0;                                         157P    125
123,0.0D0,0.0D0,1.0D0;                                               159P    126
192,157,159,30.0D0,163;                                              161P    127
123,-.707106781186547D0,-.707106781186547D0,0.0D0;                   163P    128
100,0.0D0,0.0D0,0.0D0,21.2132034355964D0,-21.2132034355964D0,        165P    129
21.2132034355964D0,21.2132034355964D0;                               165P    130
124,-.707106781186547D0,-.707106781186547D0,0.0D0,-82.5D0,           167P    131
-.707106781186547D0,.707106781186547D0,0.0D0,-82.5D0,0.0D0,          167P    132
0.0D0,-1.0D0,9.525D0;                                                167P    133
110,-82.5D0,-112.5D0,0.0D0,-82.5D0,-112.5D0,9.525D0;                 169P    134
508,4,0,11,25,1,0,0,11,23,1,0,0,11,8,1,0,0,11,26,1,0;                171P    135
510,161,1,1,171;                                                     173P    136
120,179,177,0.0D0,6.28318530717959D0;                                175P    137
110,70.95D0,100.0D0,-.47625D0,70.95D0,100.0D0,10.00125D0;            177P    138
110,75.0D0,100.0D0,-.47625D0,75.0D0,100.0D0,.52375D0;                179P    139
100,0.0D0,0.0D0,0.0D0,-4.05D0,4.95981953654678D-16,-4.05D0,          181P    140
4.95981953654678D-16;                                                181P    141
124,-1.0D0,0.0D0,0.0D0,75.0D0,0.0D0,1.0D0,0.0D0,100.0D0,0.0D0,       183P    142
0.0D0,-1.0D0,9.525D0;                                                183P    143
508,1,0,11,27,0,0;                                                   185P    144
508,1,0,11,12,0,0;                                                   187P    145
510,175,2,1,185,187;                                                 189P    146
120,195,193,0.0D0,6.28318530717959D0;                                191P    147
110,-79.05D0,100.0D0,-.47625D0,-79.05D0,100.0D0,10.00125D0;          193P    148
110,-75.0D0,100.0D0,-.47625D0,-75.0D0,100.0D0,.52375D0;              195P    149
100,0.0D0,0.0D0,0.0D0,-4.05D0,4.95981953654678D-16,-4.05D0,          197P    150
4.95981953654678D-16;                                                197P    151
124,-1.0D0,0.0D0,0.0D0,-75.0D0,0.0D0,1.0D0,0.0D0,100.0D0,0.0D0,      199P    152
0.0D0,-1.0D0,9.525D0;                                                199P    153
508,1,0,11,28,0,0;                                                   201P    154
508,1,0,11,13,0,0;                                                   203P    155
510,191,2,1,201,203;                                                 205P    156
120,211,209,0.0D0,6.28318530717959D0;                                207P    157
110,70.95D0,-100.0D0,-.47625D0,70.95D0,-100.0D0,10.00125D0;          209P    158
110,75.0D0,-100.0D0,-.47625D0,75.0D0,-100.0D0,.52375D0;              211P    159
100,0.0D0,0.0D0,0.0D0,-4.05D0,4.95981953654678D-16,-4.05D0,          213P    160
4.95981953654678D-16;                                                213P    161
124,-1.0D0,0.0D0,0.0D0,75.0D0,0.0D0,1.0D0,0.0D0,-100.0D0,0.0D0,      215P    162
0.0D0,-1.0D0,9.525D0;                                                215P    163
508,1,0,11,29,0,0;                                                   217P    164
508,1,0,11,14,0,0;                                                   219P    165
510,207,2,1,217,219;                                                 221P    166
120,227,225,0.0D0,6.28318530717959D0;                                223P    167
110,-79.05D0,-100.0D0,-.47625D0,-79.05D0,-100.0D0,10.00125D0;        225P    168
110,-75.0D0,-100.0D0,-.47625D0,-75.0D0,-100.0D0,.52375D0;            227P    169
100,0.0D0,0.0D0,0.0D0,-4.05D0,4.95981953654678D-16,-4.05D0,          229P    170
4.95981953654678D-16;                                                229P    171
124,-1.0D0,0.0D0,0.0D0,-75.0D0,0.0D0,1.0D0,0.0D0,-100.0D0,0.0D0,     231P    172
0.0D0,-1.0D0,9.525D0;                                                231P    173
508,1,0,11,30,0,0;                                                   233P    174
508,1,0,11,15,0,0;                                                   235P    175
510,223,2,1,233,235;                                                 237P    176
116,-112.5D0,-112.5D0,0.0D0,0;                                       239P    177
123,0.0D0,-1.0D0,0.0D0;                                              241P    178
190,239,241,245;                                                     243P    179
123,1.0D0,0.0D0,0.0D0;                                               245P    180
110,-82.5D0,-112.5D0,9.525D0,82.5D0,-112.5D0,9.525D0;                247P    181
508,4,0,11,19,0,0,0,11,31,0,0,0,11,26,0,0,0,11,7,1,0;                249P    182
510,243,1,1,249;                                                     251P    183
116,112.5D0,112.5D0,0.0D0,0;                                         253P    184
123,0.0D0,1.0D0,0.0D0;                                               255P    185
190,253,255,259;                                                     257P    186
123,-1.0D0,0.0D0,0.0D0;                                              259P    187
110,82.5D0,112.5D0,9.525D0,-82.5D0,112.5D0,9.525D0;                  261P    188
508,4,0,11,4,0,0,0,11,11,1,0,0,11,21,0,0,0,11,32,0,0;                263P    189
510,257,1,1,263;                                                     265P    190
116,0.0D0,0.0D0,9.525D0,0;                                           267P    191
123,0.0D0,0.0D0,1.0D0;                                               269P    192
190,267,269,273;                                                     271P    193
123,1.0D0,0.0D0,0.0D0;                                               273P    194
508,8,0,11,1,0,0,0,11,32,1,0,0,11,20,0,0,0,11,24,1,0,0,11,25,0,      275P    195
0,0,11,31,1,0,0,11,18,0,0,0,11,16,1,0;                               275P    196
508,1,0,11,27,1,0;                                                   277P    197
508,1,0,11,28,1,0;                                                   279P    198
508,1,0,11,29,1,0;                                                   281P    199
508,1,0,11,30,1,0;                                                   283P    200
510,271,5,1,275,277,279,281,283;                                     285P    201
514,14,29,1,85,1,101,1,119,1,139,1,155,1,173,1,189,1,205,1,221,      287P    202
1,237,1,251,1,265,1,285,1;                                           287P    203
186,287,1,0;                                                         289P    204
S      1G      4D    290P    204                                        T      1
