                                                                        S      1
,,18Hbuild platform.ipt,27HNo Iges File Name specified,22HAutodesk InvenG      1
tor 2013,37HAutoDesk Inventor Iges Exporter R2013,32,38,6,99,15,18HbuildG      2
 platform.ipt,1.0D0,1,2HIN,1,.08D0,15H20131018.142606,                  G      3
3.93700787401575D-4,10000.0D0,8Hemployee,,11,0,,;                       G      4
     406       1       0       0       1       0       0       000000000D      1
     406       0       0       1       3                               0D      2
     116       2       0       0       0       0       0       000010000D      3
     116       0       0       1       0                               0D      4
     123       3       0       0       0       0       0       000010200D      5
     123       0       0       1       0                               0D      6
     190       4       0       0       0       0       0       000010000D      7
     190       0       0       1       1                               0D      8
     123       5       0       0       0       0       0       000010200D      9
     123       0       0       1       0                               0D     10
     504       6       0       0       0       0       0       000010001D     11
     504       0       0       3       1                               0D     12
     502       9       0       0       0       0       0       000010000D     13
     502       0       0       5       1                               0D     14
     110      14       0       0       0       0       0       000010000D     15
     110       0       0       2       0                               0D     16
     110      16       0       0       0       0       0       000010000D     17
     110       0       0       1       0                               0D     18
     110      17       0       0       0       0       0       000010000D     19
     110       0       0       2       0                               0D     20
     110      19       0       0       0       0       0       000010000D     21
     110       0       0       2       0                               0D     22
     508      21       0       0       0       0       0       000010000D     23
     508       0       0       1       1                               0D     24
     510      22       0       0       0       0       0       000010000D     25
     510       0    -107       1       1                               0D     26
     116      23       0       0       0       0       0       000010000D     27
     116       0       0       1       0                               0D     28
     123      24       0       0       0       0       0       000010200D     29
     123       0       0       1       0                               0D     30
     190      25       0       0       0       0       0       000010000D     31
     190       0       0       1       1                               0D     32
     123      26       0       0       0       0       0       000010200D     33
     123       0       0       1       0                               0D     34
     110      27       0       0       0       0       0       000010000D     35
     110       0       0       2       0                               0D     36
     110      29       0       0       0       0       0       000010000D     37
     110       0       0       2       0                               0D     38
     110      31       0       0       0       0       0       000010000D     39
     110       0       0       2       0                               0D     40
     508      33       0       0       0       0       0       000010000D     41
     508       0       0       1       1                               0D     42
     510      34       0       0       0       0       0       000010000D     43
     510       0    -107       1       1                               0D     44
     116      35       0       0       0       0       0       000010000D     45
     116       0       0       1       0                               0D     46
     123      36       0       0       0       0       0       000010200D     47
     123       0       0       1       0                               0D     48
     190      37       0       0       0       0       0       000010000D     49
     190       0       0       1       1                               0D     50
     123      38       0       0       0       0       0       000010200D     51
     123       0       0       1       0                               0D     52
     110      39       0       0       0       0       0       000010000D     53
     110       0       0       2       0                               0D     54
     110      41       0       0       0       0       0       000010000D     55
     110       0       0       2       0                               0D     56
     110      43       0       0       0       0       0       000010000D     57
     110       0       0       2       0                               0D     58
     508      45       0       0       0       0       0       000010000D     59
     508       0       0       1       1                               0D     60
     510      46       0       0       0       0       0       000010000D     61
     510       0    -107       1       1                               0D     62
     116      47       0       0       0       0       0       000010000D     63
     116       0       0       1       0                               0D     64
     123      48       0       0       0       0       0       000010200D     65
     123       0       0       1       0                               0D     66
     190      49       0       0       0       0       0       000010000D     67
     190       0       0       1       1                               0D     68
     123      50       0       0       0       0       0       000010200D     69
     123       0       0       1       0                               0D     70
     110      51       0       0       0       0       0       000010000D     71
     110       0       0       1       0                               0D     72
     110      52       0       0       0       0       0       000010000D     73
     110       0       0       1       0                               0D     74
     508      53       0       0       0       0       0       000010000D     75
     508       0       0       1       1                               0D     76
     510      54       0       0       0       0       0       000010000D     77
     510       0    -107       1       1                               0D     78
     116      55       0       0       0       0       0       000010000D     79
     116       0       0       1       0                               0D     80
     123      56       0       0       0       0       0       000010200D     81
     123       0       0       1       0                               0D     82
     190      57       0       0       0       0       0       000010000D     83
     190       0       0       1       1                               0D     84
     123      58       0       0       0       0       0       000010200D     85
     123       0       0       1       0                               0D     86
     508      59       0       0       0       0       0       000010000D     87
     508       0       0       1       1                               0D     88
     510      60       0       0       0       0       0       000010000D     89
     510       0    -107       1       1                               0D     90
     116      61       0       0       0       0       0       000010000D     91
     116       0       0       1       0                               0D     92
     123      62       0       0       0       0       0       000010200D     93
     123       0       0       1       0                               0D     94
     190      63       0       0       0       0       0       000010000D     95
     190       0       0       1       1                               0D     96
     123      64       0       0       0       0       0       000010200D     97
     123       0       0       1       0                               0D     98
     508      65       0       0       0       0       0       000010000D     99
     508       0       0       1       1                               0D    100
     510      66       0       0       0       0       0       000010000D    101
     510       0    -107       1       1                               0D    102
     514      67       0       0       0       0       0       000010000D    103
     514       0       0       1       1                               0D    104
     186      68       0       0       1       0       0       000000000D    105
     186       0       0       1       0                  Solid1       0D    106
     314      69       0       0       0       0       0       000000000D    107
     314       0       8       1       0                               0D    108
406,2,0,14Hbuild platform;                                             1P      1
116,-1.3987061727561D-15,5.03937007874016D0,0.0D0,0;                   3P      2
123,-1.0D0,0.0D0,0.0D0;                                                5P      3
190,3,5,9;                                                             7P      4
123,0.0D0,-1.0D0,0.0D0;                                                9P      5
504,12,15,13,1,13,2,17,13,2,13,3,19,13,4,13,3,21,13,1,13,4,35,        11P      6
13,5,13,1,37,13,6,13,4,39,13,5,13,6,53,13,7,13,5,55,13,8,13,6,        11P      7
57,13,7,13,8,71,13,2,13,7,73,13,3,13,8;                               11P      8
502,8,-1.3987061727561D-15,5.03937007874016D0,0.0D0,0.0D0,0.0D0,      13P      9
0.0D0,0.0D0,0.0D0,.25D0,-1.3987061727561D-15,5.03937007874016D0,      13P     10
.25D0,5.86614173228346D0,5.03937007874016D0,0.0D0,                    13P     11
5.86614173228346D0,5.03937007874016D0,.25D0,5.86614173228346D0,       13P     12
0.0D0,0.0D0,5.86614173228346D0,0.0D0,.25D0;                           13P     13
110,-1.3987061727561D-15,5.03937007874016D0,0.0D0,                    15P     14
1.97215226305253D-31,0.0D0,0.0D0;                                     15P     15
110,0.0D0,0.0D0,0.0D0,0.0D0,0.0D0,.25D0;                              17P     16
110,-1.3987061727561D-15,5.03937007874016D0,.25D0,                    19P     17
1.97215226305253D-31,0.0D0,.25D0;                                     19P     18
110,-1.3987061727561D-15,5.03937007874016D0,0.0D0,                    21P     19
-1.3987061727561D-15,5.03937007874016D0,.25D0;                        21P     20
508,4,0,11,1,1,0,0,11,2,1,0,0,11,3,0,0,0,11,4,0,0;                    23P     21
510,7,1,1,23;                                                         25P     22
116,5.86614173228346D0,5.03937007874016D0,0.0D0,0;                    27P     23
123,0.0D0,1.0D0,0.0D0;                                                29P     24
190,27,29,33;                                                         31P     25
123,-1.0D0,0.0D0,0.0D0;                                               33P     26
110,5.86614173228346D0,5.03937007874016D0,0.0D0,                      35P     27
-1.77635683940025D-15,5.03937007874016D0,0.0D0;                       35P     28
110,5.86614173228346D0,5.03937007874016D0,.25D0,                      37P     29
-1.77635683940025D-15,5.03937007874016D0,.25D0;                       37P     30
110,5.86614173228346D0,5.03937007874016D0,0.0D0,                      39P     31
5.86614173228346D0,5.03937007874016D0,.25D0;                          39P     32
508,4,0,11,5,1,0,0,11,4,1,0,0,11,6,0,0,0,11,7,0,0;                    41P     33
510,31,1,1,41;                                                        43P     34
116,5.86614173228346D0,0.0D0,0.0D0,0;                                 45P     35
123,1.0D0,0.0D0,0.0D0;                                                47P     36
190,45,47,51;                                                         49P     37
123,0.0D0,1.0D0,0.0D0;                                                51P     38
110,5.86614173228346D0,0.0D0,0.0D0,5.86614173228346D0,                53P     39
5.03937007874016D0,0.0D0;                                             53P     40
110,5.86614173228346D0,0.0D0,.25D0,5.86614173228346D0,                55P     41
5.03937007874016D0,.25D0;                                             55P     42
110,5.86614173228346D0,0.0D0,0.0D0,5.86614173228346D0,0.0D0,          57P     43
.25D0;                                                                57P     44
508,4,0,11,8,1,0,0,11,7,1,0,0,11,9,0,0,0,11,10,0,0;                   59P     45
510,49,1,1,59;                                                        61P     46
116,0.0D0,0.0D0,0.0D0,0;                                              63P     47
123,0.0D0,-1.0D0,0.0D0;                                               65P     48
190,63,65,69;                                                         67P     49
123,1.0D0,0.0D0,0.0D0;                                                69P     50
110,0.0D0,0.0D0,0.0D0,5.86614173228346D0,0.0D0,0.0D0;                 71P     51
110,0.0D0,0.0D0,.25D0,5.86614173228346D0,0.0D0,.25D0;                 73P     52
508,4,0,11,11,1,0,0,11,10,1,0,0,11,12,0,0,0,11,2,0,0;                 75P     53
510,67,1,1,75;                                                        77P     54
116,2.93307086614173D0,2.51968503937008D0,.25D0,0;                    79P     55
123,0.0D0,0.0D0,1.0D0;                                                81P     56
190,79,81,85;                                                         83P     57
123,1.0D0,0.0D0,0.0D0;                                                85P     58
508,4,0,11,12,1,0,0,11,9,1,0,0,11,6,1,0,0,11,3,1,0;                   87P     59
510,83,1,1,87;                                                        89P     60
116,2.93307086614173D0,2.51968503937008D0,0.0D0,0;                    91P     61
123,0.0D0,0.0D0,-1.0D0;                                               93P     62
190,91,93,97;                                                         95P     63
123,-1.0D0,0.0D0,0.0D0;                                               97P     64
508,4,0,11,11,0,0,0,11,1,0,0,0,11,5,0,0,0,11,8,0,0;                   99P     65
510,95,1,1,99;                                                       101P     66
514,6,25,1,43,1,61,1,77,1,89,1,101,1;                                103P     67
186,103,1,0;                                                         105P     68
314,75.0D0,75.0D0,75.0D0,;                                           107P     69
S      1G      4D    108P     69                                        T      1
