                                                                        S      1
,,36HHex Bolt - Metric M8 x 1.25 x 70.ipt,27HNo Iges File Name specifiedG      1
,22HAutodesk Inventor 2013,37HAutoDesk Inventor Iges Exporter R2013,32, G      2
38,6,99,15,36HHex Bolt - Metric M8 x 1.25 x 70.ipt,1.0D0,2,2HMM,1,.08D0,G      3
15H20131018.142629,.01D0,10000.0D0,8Hemployee,,11,0,,;                  G      4
     406       1       0       0       1       0       0       000000000D      1
     406       0       0       1       3                               0D      2
     120       2       0       0       0       0       0       000010000D      3
     120       0       0       1       0                               0D      4
     100       3       0       0       0       0       7       000010000D      5
     100       0       0       1       0                               0D      6
     124       4       0       0       0       0       0       000000000D      7
     124       0       0       2       0                               0D      8
     110       6       0       0       0       0       0       001010000D      9
     110       0       0       2       0                               0D     10
     504       8       0       0       0       0       0       000010001D     11
     504       0       0       9       1                               0D     12
     502      17       0       0       0       0       0       000010000D     13
     502       0       0      20       1                               0D     14
     100      37       0       0       0       0      17       000010000D     15
     100       0       0       2       0                               0D     16
     124      39       0       0       0       0       0       000000000D     17
     124       0       0       2       0                               0D     18
     508      41       0       0       0       0       0       000010000D     19
     508       0       0       1       1                               0D     20
     100      42       0       0       0       0      23       000010000D     21
     100       0       0       2       0                               0D     22
     124      44       0       0       0       0       0       000000000D     23
     124       0       0       2       0                               0D     24
     508      46       0       0       0       0       0       000010000D     25
     508       0       0       1       1                               0D     26
     510      47       0       0       0       0       0       000010000D     27
     510       0    -313       1       1                               0D     28
     116      48       0       0       0       0       0       000010000D     29
     116       0       0       1       0                               0D     30
     123      49       0       0       0       0       0       000010200D     31
     123       0       0       1       0                               0D     32
     192      50       0       0       0       0       0       000010000D     33
     192       0       0       1       1                               0D     34
     123      51       0       0       0       0       0       000010200D     35
     123       0       0       1       0                               0D     36
     100      52       0       0       0       0      39       000010000D     37
     100       0       0       2       0                               0D     38
     124      54       0       0       0       0       0       000000000D     39
     124       0       0       2       0                               0D     40
     508      56       0       0       0       0       0       000010000D     41
     508       0       0       1       1                               0D     42
     508      57       0       0       0       0       0       000010000D     43
     508       0       0       1       1                               0D     44
     510      58       0       0       0       0       0       000010000D     45
     510       0    -313       1       1                               0D     46
     116      59       0       0       0       0       0       000010000D     47
     116       0       0       1       0                               0D     48
     123      60       0       0       0       0       0       000010200D     49
     123       0       0       1       0                               0D     50
     190      61       0       0       0       0       0       000010000D     51
     190       0       0       1       1                               0D     52
     123      62       0       0       0       0       0       000010200D     53
     123       0       0       1       0                               0D     54
     110      63       0       0       0       0       0       000010000D     55
     110       0       0       3       0                               0D     56
     110      66       0       0       0       0       0       000010000D     57
     110       0       0       2       0                               0D     58
     110      68       0       0       0       0       0       000010000D     59
     110       0       0       2       0                               0D     60
     110      70       0       0       0       0       0       000010000D     61
     110       0       0       3       0                               0D     62
     110      73       0       0       0       0       0       000010000D     63
     110       0       0       2       0                               0D     64
     110      75       0       0       0       0       0       000010000D     65
     110       0       0       3       0                               0D     66
     508      78       0       0       0       0       0       000010000D     67
     508       0       0       2       1                               0D     68
     508      80       0       0       0       0       0       000010000D     69
     508       0       0       1       1                               0D     70
     510      81       0       0       0       0       0       000010000D     71
     510       0    -313       1       1                               0D     72
     116      82       0       0       0       0       0       000010000D     73
     116       0       0       1       0                               0D     74
     123      83       0       0       0       0       0       000010200D     75
     123       0       0       1       0                               0D     76
     194      84       0       0       0       0       0       000010000D     77
     194       0       0       1       1                               0D     78
     123      85       0       0       0       0       0       000010200D     79
     123       0       0       1       0                               0D     80
     508      86       0       0       0       0       0       000010000D     81
     508       0       0       1       1                               0D     82
     100      87       0       0       0       0      85       000010000D     83
     100       0       0       2       0                               0D     84
     124      89       0       0       0       0       0       000000000D     85
     124       0       0       2       0                               0D     86
     508      91       0       0       0       0       0       000010000D     87
     508       0       0       1       1                               0D     88
     510      92       0       0       0       0       0       000010000D     89
     510       0    -313       1       1                               0D     90
     116      93       0       0       0       0       0       000010000D     91
     116       0       0       1       0                               0D     92
     123      94       0       0       0       0       0       000010200D     93
     123       0       0       1       0                               0D     94
     190      95       0       0       0       0       0       000010000D     95
     190       0       0       1       1                               0D     96
     123      96       0       0       0       0       0       000010200D     97
     123       0       0       1       0                               0D     98
     508      97       0       0       0       0       0       000010000D     99
     508       0       0       1       1                               0D    100
     510      98       0       0       0       0       0       000010000D    101
     510       0    -313       1       1                               0D    102
     116      99       0       0       0       0       0       000010000D    103
     116       0       0       1       0                               0D    104
     123     100       0       0       0       0       0       000010200D    105
     123       0       0       1       0                               0D    106
     194     101       0       0       0       0       0       000010000D    107
     194       0       0       1       1                               0D    108
     123     102       0       0       0       0       0       000010200D    109
     123       0       0       1       0                               0D    110
     126     103       0       0       0       0       0       000010000D    111
     126       0       0       8       0                               0D    112
     126     111       0       0       0       0       0       000010000D    113
     126       0       0       8       0                               0D    114
     100     119       0       0       0       0     117       000010000D    115
     100       0       0       2       0                               0D    116
     124     121       0       0       0       0       0       000000000D    117
     124       0       0       2       0                               0D    118
     508     123       0       0       0       0       0       000010000D    119
     508       0       0       1       1                               0D    120
     510     124       0       0       0       0       0       000010000D    121
     510       0    -313       1       1                               0D    122
     116     125       0       0       0       0       0       000010000D    123
     116       0       0       1       0                               0D    124
     123     126       0       0       0       0       0       000010200D    125
     123       0       0       1       0                               0D    126
     194     127       0       0       0       0       0       000010000D    127
     194       0       0       1       1                               0D    128
     123     128       0       0       0       0       0       000010200D    129
     123       0       0       1       0                               0D    130
     126     129       0       0       0       0       0       000010000D    131
     126       0       0       7       0                               0D    132
     126     136       0       0       0       0       0       000010000D    133
     126       0       0       7       0                               0D    134
     100     143       0       0       0       0     117       000010000D    135
     100       0       0       2       0                               0D    136
     508     145       0       0       0       0       0       000010000D    137
     508       0       0       1       1                               0D    138
     510     146       0       0       0       0       0       000010000D    139
     510       0    -313       1       1                               0D    140
     116     147       0       0       0       0       0       000010000D    141
     116       0       0       1       0                               0D    142
     123     148       0       0       0       0       0       000010200D    143
     123       0       0       1       0                               0D    144
     194     149       0       0       0       0       0       000010000D    145
     194       0       0       1       1                               0D    146
     123     150       0       0       0       0       0       000010200D    147
     123       0       0       1       0                               0D    148
     126     151       0       0       0       0       0       000010000D    149
     126       0       0       8       0                               0D    150
     126     159       0       0       0       0       0       000010000D    151
     126       0       0       7       0                               0D    152
     100     166       0       0       0       0     117       000010000D    153
     100       0       0       2       0                               0D    154
     508     168       0       0       0       0       0       000010000D    155
     508       0       0       1       1                               0D    156
     510     169       0       0       0       0       0       000010000D    157
     510       0    -313       1       1                               0D    158
     116     170       0       0       0       0       0       000010000D    159
     116       0       0       1       0                               0D    160
     123     171       0       0       0       0       0       000010200D    161
     123       0       0       1       0                               0D    162
     194     172       0       0       0       0       0       000010000D    163
     194       0       0       1       1                               0D    164
     123     173       0       0       0       0       0       000010200D    165
     123       0       0       1       0                               0D    166
     126     174       0       0       0       0       0       000010000D    167
     126       0       0       8       0                               0D    168
     100     182       0       0       0       0     117       000010000D    169
     100       0       0       2       0                               0D    170
     126     184       0       0       0       0       0       000010000D    171
     126       0       0       8       0                               0D    172
     508     192       0       0       0       0       0       000010000D    173
     508       0       0       1       1                               0D    174
     510     193       0       0       0       0       0       000010000D    175
     510       0    -313       1       1                               0D    176
     116     194       0       0       0       0       0       000010000D    177
     116       0       0       1       0                               0D    178
     123     195       0       0       0       0       0       000010200D    179
     123       0       0       1       0                               0D    180
     194     196       0       0       0       0       0       000010000D    181
     194       0       0       1       1                               0D    182
     123     197       0       0       0       0       0       000010200D    183
     123       0       0       1       0                               0D    184
     126     198       0       0       0       0       0       000010000D    185
     126       0       0       8       0                               0D    186
     100     206       0       0       0       0     117       000010000D    187
     100       0       0       2       0                               0D    188
     126     208       0       0       0       0       0       000010000D    189
     126       0       0       7       0                               0D    190
     508     215       0       0       0       0       0       000010000D    191
     508       0       0       1       1                               0D    192
     510     216       0       0       0       0       0       000010000D    193
     510       0    -313       1       1                               0D    194
     116     217       0       0       0       0       0       000010000D    195
     116       0       0       1       0                               0D    196
     123     218       0       0       0       0       0       000010200D    197
     123       0       0       1       0                               0D    198
     194     219       0       0       0       0       0       000010000D    199
     194       0       0       1       1                               0D    200
     123     220       0       0       0       0       0       000010200D    201
     123       0       0       1       0                               0D    202
     126     221       0       0       0       0       0       000010000D    203
     126       0       0       7       0                               0D    204
     100     228       0       0       0       0     117       000010000D    205
     100       0       0       2       0                               0D    206
     126     230       0       0       0       0       0       000010000D    207
     126       0       0       8       0                               0D    208
     508     238       0       0       0       0       0       000010000D    209
     508       0       0       1       1                               0D    210
     510     239       0       0       0       0       0       000010000D    211
     510       0    -313       1       1                               0D    212
     116     240       0       0       0       0       0       000010000D    213
     116       0       0       2       0                               0D    214
     123     242       0       0       0       0       0       000010200D    215
     123       0       0       1       0                               0D    216
     190     243       0       0       0       0       0       000010000D    217
     190       0       0       1       1                               0D    218
     123     244       0       0       0       0       0       000010200D    219
     123       0       0       2       0                               0D    220
     110     246       0       0       0       0       0       000010000D    221
     110       0       0       3       0                               0D    222
     110     249       0       0       0       0       0       000010000D    223
     110       0       0       2       0                               0D    224
     508     251       0       0       0       0       0       000010000D    225
     508       0       0       2       1                               0D    226
     510     253       0       0       0       0       0       000010000D    227
     510       0    -313       1       1                               0D    228
     116     254       0       0       0       0       0       000010000D    229
     116       0       0       2       0                               0D    230
     123     256       0       0       0       0       0       000010200D    231
     123       0       0       1       0                               0D    232
     190     257       0       0       0       0       0       000010000D    233
     190       0       0       1       1                               0D    234
     123     258       0       0       0       0       0       000010200D    235
     123       0       0       1       0                               0D    236
     110     259       0       0       0       0       0       000010000D    237
     110       0       0       2       0                               0D    238
     508     261       0       0       0       0       0       000010000D    239
     508       0       0       2       1                               0D    240
     510     263       0       0       0       0       0       000010000D    241
     510       0    -313       1       1                               0D    242
     116     264       0       0       0       0       0       000010000D    243
     116       0       0       1       0                               0D    244
     123     265       0       0       0       0       0       000010200D    245
     123       0       0       1       0                               0D    246
     190     266       0       0       0       0       0       000010000D    247
     190       0       0       1       1                               0D    248
     123     267       0       0       0       0       0       000010200D    249
     123       0       0       1       0                               0D    250
     110     268       0       0       0       0       0       000010000D    251
     110       0       0       3       0                               0D    252
     508     271       0       0       0       0       0       000010000D    253
     508       0       0       2       1                               0D    254
     510     273       0       0       0       0       0       000010000D    255
     510       0    -313       1       1                               0D    256
     116     274       0       0       0       0       0       000010000D    257
     116       0       0       1       0                               0D    258
     123     275       0       0       0       0       0       000010200D    259
     123       0       0       1       0                               0D    260
     190     276       0       0       0       0       0       000010000D    261
     190       0       0       1       1                               0D    262
     123     277       0       0       0       0       0       000010200D    263
     123       0       0       1       0                               0D    264
     110     278       0       0       0       0       0       000010000D    265
     110       0       0       2       0                               0D    266
     508     280       0       0       0       0       0       000010000D    267
     508       0       0       2       1                               0D    268
     510     282       0       0       0       0       0       000010000D    269
     510       0    -313       1       1                               0D    270
     116     283       0       0       0       0       0       000010000D    271
     116       0       0       2       0                               0D    272
     123     285       0       0       0       0       0       000010200D    273
     123       0       0       1       0                               0D    274
     190     286       0       0       0       0       0       000010000D    275
     190       0       0       1       1                               0D    276
     123     287       0       0       0       0       0       000010200D    277
     123       0       0       1       0                               0D    278
     110     288       0       0       0       0       0       000010000D    279
     110       0       0       3       0                               0D    280
     508     291       0       0       0       0       0       000010000D    281
     508       0       0       2       1                               0D    282
     510     293       0       0       0       0       0       000010000D    283
     510       0    -313       1       1                               0D    284
     116     294       0       0       0       0       0       000010000D    285
     116       0       0       2       0                               0D    286
     123     296       0       0       0       0       0       000010200D    287
     123       0       0       1       0                               0D    288
     190     297       0       0       0       0       0       000010000D    289
     190       0       0       1       1                               0D    290
     123     298       0       0       0       0       0       000010200D    291
     123       0       0       1       0                               0D    292
     508     299       0       0       0       0       0       000010000D    293
     508       0       0       2       1                               0D    294
     510     301       0       0       0       0       0       000010000D    295
     510       0    -313       1       1                               0D    296
     116     302       0       0       0       0       0       000010000D    297
     116       0       0       1       0                               0D    298
     123     303       0       0       0       0       0       000010200D    299
     123       0       0       1       0                               0D    300
     190     304       0       0       0       0       0       000010000D    301
     190       0       0       1       1                               0D    302
     123     305       0       0       0       0       0       000010200D    303
     123       0       0       1       0                               0D    304
     508     306       0       0       0       0       0       000010000D    305
     508       0       0       2       1                               0D    306
     510     308       0       0       0       0       0       000010000D    307
     510       0    -313       1       1                               0D    308
     514     309       0       0       0       0       0       000010000D    309
     514       0       0       2       1                               0D    310
     186     311       0       0       1       0       0       000000000D    311
     186       0       0       1       0                  Solid1       0D    312
     314     312       0       0       0       0       0       000000000D    313
     314       0       8       1       0                               0D    314
406,2,0,5HM8x85;                                                       1P      1
120,9,5,0.0D0,6.28318530717959D0;                                      3P      2
100,0.0D0,0.0D0,0.0D0,.1D0,0.0D0,.1D0,0.0D0;                           5P      3
124,0.0D0,-1.0D0,0.0D0,9.99999999999979D-2,0.0D0,0.0D0,1.0D0,          7P      4
9.79608551139841D-18,-1.0D0,0.0D0,0.0D0,-4.1D0;                        7P      5
110,9.99999999999979D-2,9.79608551139841D-18,0.0D0,                    9P      6
-.900000000000002D0,9.79608551139841D-18,0.0D0;                        9P      7
504,34,15,13,1,13,1,21,13,2,13,2,37,13,3,13,3,55,13,4,13,5,57,        11P      8
13,5,13,6,59,13,6,13,7,61,13,7,13,8,63,13,8,13,9,65,13,9,13,4,        11P      9
83,13,10,13,10,111,13,11,13,12,113,13,13,13,11,115,13,12,13,13,       11P     10
131,13,14,13,15,133,13,12,13,14,135,13,15,13,12,149,13,16,13,17,      11P     11
151,13,15,13,16,153,13,17,13,15,167,13,17,13,18,169,13,19,13,17,      11P     12
171,13,18,13,19,185,13,19,13,20,187,13,21,13,19,189,13,20,13,21,      11P     13
203,13,21,13,22,205,13,13,13,21,207,13,22,13,13,221,13,7,13,18,       11P     14
223,13,6,13,16,237,13,8,13,20,251,13,9,13,22,265,13,5,13,14,279,      11P     15
13,4,13,11;                                                           11P     16
502,22,-4.18986740727104D-16,4.1D0,0.0D0,9.99999999999975D-2,         13P     17
4.0D0,-9.79717439317883D-16,84.2330875D0,4.00000000000001D0,          13P     18
4.89858719658941D-16,-7.59765152529917D-16,7.50555349946513D0,        13P     19
7.07767178198537D-15,-3.92139933074236D-16,3.75277674973256D0,        13P     20
6.5D0,3.43110505837127D-16,-3.75277674973257D0,                       13P     21
6.49999999999999D0,7.10735725292807D-16,-7.50555349946513D0,          13P     22
-3.7470027081099D-15,3.43110505837126D-16,-3.75277674973256D0,        13P     23
-6.5D0,-3.92139933074236D-16,3.75277674973257D0,                      13P     24
-6.49999999999999D0,85.0D0,3.23318750000002D0,                        13P     25
-3.95951272291824D-16,-5.09944341639924D0,7.50555349946513D0,         13P     26
7.07767178198537D-15,-5.68D0,5.62916512459885D0,3.25D0,-5.68D0,       13P     27
5.62916512459885D0,-3.24999999999999D0,-5.09944341639924D0,           13P     28
3.75277674973256D0,6.5D0,-5.68D0,-2.30486303124328D-15,6.5D0,         13P     29
-5.09944341639924D0,-3.75277674973257D0,6.49999999999999D0,           13P     30
-5.68000000000001D0,-5.62916512459885D0,3.25D0,                       13P     31
-5.09944341639924D0,-7.50555349946513D0,-3.7470027081099D-15,         13P     32
-5.68000000000001D0,-5.62916512459885D0,-3.25D0,                      13P     33
-5.09944341639924D0,-3.75277674973256D0,-6.5D0,-5.68D0,               13P     34
5.18914238497653D-15,-6.5D0,-5.09944341639924D0,                      13P     35
3.75277674973257D0,-6.49999999999999D0;                               13P     36
100,0.0D0,0.0D0,0.0D0,-4.1D0,5.02105187650415D-16,-4.1D0,             15P     37
5.02105187650415D-16;                                                 15P     38
124,0.0D0,0.0D0,1.0D0,-1.73472347597681D-17,-1.0D0,0.0D0,0.0D0,       17P     39
1.73333694994851D-31,0.0D0,-1.0D0,0.0D0,-2.06806527706498D-34;        17P     40
508,1,0,11,1,1,0;                                                     19P     41
100,0.0D0,0.0D0,0.0D0,-4.0D0,4.89858719658941D-16,-4.0D0,             21P     42
4.89858719658941D-16;                                                 21P     43
124,0.0D0,0.0D0,-1.0D0,9.99999999999979D-2,-1.0D0,0.0D0,0.0D0,        23P     44
9.79608551139841D-18,0.0D0,1.0D0,0.0D0,0.0D0;                         23P     45
508,1,0,11,2,1,0;                                                     25P     46
510,3,2,1,19,25;                                                      27P     47
116,42.5D0,4.16333634234434D-15,0.0D0,0;                              29P     48
123,1.0D0,9.79608551139844D-17,0.0D0;                                 31P     49
192,29,31,4.0D0,35;                                                   33P     50
123,0.0D0,1.0D0,0.0D0;                                                35P     51
100,0.0D0,0.0D0,0.0D0,-4.0D0,4.89858719658941D-16,-4.0D0,             37P     52
4.89858719658941D-16;                                                 37P     53
124,0.0D0,0.0D0,1.0D0,84.2330875D0,-1.0D0,0.0D0,0.0D0,                39P     54
8.25154528039107D-15,0.0D0,-1.0D0,0.0D0,0.0D0;                        39P     55
508,1,0,11,3,0,0;                                                     41P     56
508,1,0,11,2,0,0;                                                     43P     57
510,33,2,1,41,43;                                                     45P     58
116,-2.45147136185548D-17,0.0D0,4.85722573273506D-16,0;               47P     59
123,1.0D0,0.0D0,0.0D0;                                                49P     60
190,47,49,53;                                                         51P     61
123,0.0D0,0.0D0,-1.0D0;                                               53P     62
110,-7.59765152529917D-16,7.50555349946513D0,                         55P     63
7.07767178198537D-15,-3.92139933074235D-16,3.75277674973256D0,        55P     64
6.5D0;                                                                55P     65
110,-3.92139933074236D-16,3.75277674973256D0,6.5D0,                   57P     66
3.43110505837127D-16,-3.75277674973257D0,6.49999999999999D0;          57P     67
110,3.43110505837127D-16,-3.75277674973257D0,6.49999999999999D0,      59P     68
7.10735725292807D-16,-7.50555349946513D0,-3.5527136788005D-15;        59P     69
110,7.10735725292807D-16,-7.50555349946513D0,                         61P     70
-3.7470027081099D-15,3.43110505837126D-16,-3.75277674973256D0,        61P     71
-6.5D0;                                                               61P     72
110,3.43110505837126D-16,-3.75277674973256D0,-6.5D0,                  63P     73
-3.92139933074236D-16,3.75277674973257D0,-6.49999999999999D0;         63P     74
110,-3.92139933074236D-16,3.75277674973257D0,                         65P     75
-6.49999999999999D0,-7.59765152529917D-16,7.50555349946513D0,         65P     76
7.105427357601D-15;                                                   65P     77
508,6,0,11,4,1,0,0,11,5,1,0,0,11,6,1,0,0,11,7,1,0,0,11,8,1,0,0,       67P     78
11,9,1,0;                                                             67P     79
508,1,0,11,1,0,0;                                                     69P     80
510,51,2,1,67,69;                                                     71P     81
116,84.61654375D0,8.28910898253987D-15,0.0D0,0;                       73P     82
123,-1.0D0,-9.79608551139838D-17,0.0D0;                               75P     83
194,73,75,3.61659375000001D0,44.9962642729672D0,79;                   77P     84
123,0.0D0,-1.0D0,0.0D0;                                               79P     85
508,1,0,11,3,1,0;                                                     81P     86
100,0.0D0,0.0D0,0.0D0,-3.23318750000001D0,3.95951272291824D-16,       83P     87
-3.23318750000001D0,3.95951272291824D-16;                             83P     88
124,0.0D0,0.0D0,-1.0D0,85.0D0,-1.0D0,0.0D0,0.0D0,                     85P     89
8.32667268468867D-15,0.0D0,1.0D0,0.0D0,0.0D0;                         85P     90
508,1,0,11,10,1,0;                                                    87P     91
510,77,2,1,81,87;                                                     89P     92
116,85.0D0,2.00000000000001D0,0.0D0,0;                                91P     93
123,1.0D0,0.0D0,0.0D0;                                                93P     94
190,91,93,97;                                                         95P     95
123,0.0D0,0.0D0,-1.0D0;                                               97P     96
508,1,0,11,10,0,0;                                                    99P     97
510,95,1,1,99;                                                       101P     98
116,-5.30472232502675D0,2.24726821015436D-15,0.0D0,0;                103P     99
123,1.0D0,-4.43182806627459D-16,0.0D0;                               105P    100
194,103,105,7.15D0,60.0000000000001D0,109;                           107P    101
123,0.0D0,1.0D0,0.0D0;                                               109P    102
126,2,2,1,0,0,0,5.09747029591932D-2,5.09747029591932D-2,             111P    103
5.09747029591932D-2,.439000868202294D0,.439000868202294D0,           111P    104
.439000868202294D0,1.01001874935741D0,1.04314139574019D0,1.0D0,      111P    105
-5.09944341639924D0,7.50555349946513D0,7.07767178198537D-15,         111P    106
-5.68D0,6.49999999999999D0,1.74166975080231D0,-5.68D0,               111P    107
5.62916512459885D0,3.25D0,5.09747029591932D-2,                       111P    108
.439000868202294D0,-5.45692214680035D-13,-.866025403783078D0,        111P    109
-.500000000002356D0;                                                 111P    110
126,2,2,1,0,0,0,.439000868202295D0,.439000868202295D0,               113P    111
.439000868202295D0,.827027033445394D0,.827027033445394D0,            113P    112
.827027033445394D0,1.0D0,1.04314139574016D0,1.0100187493574D0,       113P    113
-5.68D0,5.62916512459885D0,-3.24999999999999D0,                      113P    114
-5.68000000000001D0,6.49999999999999D0,-1.74166975080231D0,          113P    115
-5.09944341639924D0,7.50555349946513D0,7.07767178198537D-15,         113P    116
.439000868202295D0,.827027033445394D0,-9.79036032220261D-13,         113P    117
-.866025403784169D0,.500000000000467D0;                              113P    118
100,0.0D0,0.0D0,0.0D0,5.62916512459885D0,-3.25000000000001D0,        115P    119
5.62916512459886D0,3.25D0;                                           115P    120
124,0.0D0,0.0D0,-1.0D0,-5.68D0,1.0D0,0.0D0,0.0D0,                    117P    121
2.41358482341363D-15,0.0D0,-1.0D0,0.0D0,0.0D0;                       117P    122
508,3,0,11,11,0,0,0,11,12,0,0,0,11,13,0,0;                           119P    123
510,107,1,1,119;                                                     121P    124
116,-5.30472232502675D0,2.24726821015436D-15,0.0D0,0;                123P    125
123,1.0D0,-4.43182806627459D-16,0.0D0;                               125P    126
194,123,125,7.15D0,60.0000000000001D0,129;                           127P    127
123,0.0D0,1.0D0,0.0D0;                                               129P    128
126,2,2,1,0,0,0,5.09747029591946D-2,5.09747029591946D-2,             131P    129
5.09747029591946D-2,.439000868202295D0,.439000868202295D0,           131P    130
.439000868202295D0,1.0100187493574D0,1.04314139574018D0,1.0D0,       131P    131
-5.09944341639924D0,3.75277674973256D0,6.5D0,                        131P    132
-5.68000000000001D0,1.74166975080228D0,6.5D0,-5.68D0,                131P    133
-2.30486303124328D-15,6.5D0,5.09747029591946D-2,                     131P    134
.439000868202295D0,0.0D0,0.0D0,1.0D0;                                131P    135
126,2,2,1,0,0,0,.439000868202294D0,.439000868202294D0,               133P    136
.439000868202294D0,.827027033445395D0,.827027033445395D0,            133P    137
.827027033445395D0,1.0D0,1.04314139574017D0,1.0100187493574D0,       133P    138
-5.68D0,5.62916512459885D0,3.25D0,-5.68000000000001D0,               133P    139
4.75833024919771D0,4.75833024919768D0,-5.09944341639924D0,           133P    140
3.75277674973256D0,6.5D0,.439000868202294D0,.827027033445395D0,      133P    141
-2.88895878360323D-12,-.866025403783672D0,-.500000000001327D0;       133P    142
100,0.0D0,0.0D0,0.0D0,-6.96719035721949D-15,-6.50000000000001D0,     135P    143
5.62916512459885D0,-3.25000000000001D0;                              135P    144
508,3,0,11,14,0,0,0,11,15,0,0,0,11,16,0,0;                           137P    145
510,127,1,1,137;                                                     139P    146
116,-5.30472232502675D0,2.24726821015436D-15,0.0D0,0;                141P    147
123,1.0D0,-4.43182806627459D-16,0.0D0;                               143P    148
194,141,143,7.15D0,60.0000000000001D0,147;                           145P    149
123,0.0D0,1.0D0,0.0D0;                                               147P    150
126,2,2,1,0,0,0,5.09747029591936D-2,5.09747029591936D-2,             149P    151
5.09747029591936D-2,.439000868202295D0,.439000868202295D0,           149P    152
.439000868202295D0,1.01001874935741D0,1.04314139574019D0,1.0D0,      149P    153
-5.09944341639924D0,-3.75277674973257D0,6.49999999999999D0,          149P    154
-5.68000000000001D0,-4.75833024919771D0,4.75833024919768D0,          149P    155
-5.68000000000001D0,-5.62916512459885D0,3.25D0,                      149P    156
5.09747029591936D-2,.439000868202295D0,-1.28398168160257D-12,        149P    157
-.866025403784631D0,.499999999999667D0;                              149P    158
126,2,2,1,0,0,0,.439000868202295D0,.439000868202295D0,               151P    159
.439000868202295D0,.827027033445396D0,.827027033445396D0,            151P    160
.827027033445396D0,1.0D0,1.04314139574016D0,1.0100187493574D0,       151P    161
-5.68D0,-2.30486303124328D-15,6.5D0,-5.68000000000001D0,             151P    162
-1.74166975080228D0,6.49999999999999D0,-5.09944341639924D0,          151P    163
-3.75277674973257D0,6.49999999999999D0,.439000868202295D0,           151P    164
.827027033445396D0,0.0D0,0.0D0,1.0D0;                                151P    165
100,0.0D0,0.0D0,0.0D0,-5.62916512459886D0,-3.25D0,                   153P    166
-6.96719035721949D-15,-6.50000000000001D0;                           153P    167
508,3,0,11,17,0,0,0,11,18,0,0,0,11,19,0,0;                           155P    168
510,145,1,1,155;                                                     157P    169
116,-5.30472232502675D0,2.24726821015436D-15,0.0D0,0;                159P    170
123,1.0D0,-4.43182806627459D-16,0.0D0;                               161P    171
194,159,161,7.15D0,60.0000000000001D0,165;                           163P    172
123,0.0D0,1.0D0,0.0D0;                                               165P    173
126,2,2,1,0,0,0,.439000868202295D0,.439000868202295D0,               167P    174
.439000868202295D0,.827027033445395D0,.827027033445395D0,            167P    175
.827027033445395D0,1.0D0,1.04314139574018D0,1.0100187493574D0,       167P    176
-5.68000000000001D0,-5.62916512459885D0,3.25D0,                      167P    177
-5.68000000000001D0,-6.49999999999999D0,1.74166975080231D0,          167P    178
-5.09944341639924D0,-7.50555349946513D0,-3.7470027081099D-15,        167P    179
.439000868202295D0,.827027033445395D0,4.33343817540025D-13,          167P    180
-.866025403783506D0,.500000000001615D0;                              167P    181
100,0.0D0,0.0D0,0.0D0,-5.62916512459886D0,3.25000000000001D0,        169P    182
-5.62916512459886D0,-3.25D0;                                         169P    183
126,2,2,1,0,0,0,5.09747029591944D-2,5.09747029591944D-2,             171P    184
5.09747029591944D-2,.439000868202295D0,.439000868202295D0,           171P    185
.439000868202295D0,1.0100187493574D0,1.04314139574018D0,1.0D0,       171P    186
-5.09944341639924D0,-7.50555349946513D0,-3.7470027081099D-15,        171P    187
-5.68000000000001D0,-6.49999999999999D0,-1.74166975080231D0,         171P    188
-5.68000000000001D0,-5.62916512459885D0,-3.25D0,                     171P    189
5.09747029591944D-2,.439000868202295D0,6.41990840799891D-13,         171P    190
-.866025403783535D0,-.500000000001566D0;                             171P    191
508,3,0,11,20,0,0,0,11,21,0,0,0,11,22,0,0;                           173P    192
510,163,1,1,173;                                                     175P    193
116,-5.30472232502675D0,2.24726821015436D-15,0.0D0,0;                177P    194
123,1.0D0,-4.43182806627459D-16,0.0D0;                               179P    195
194,177,179,7.15D0,60.0000000000001D0,183;                           181P    196
123,0.0D0,1.0D0,0.0D0;                                               183P    197
126,2,2,1,0,0,0,.439000868202295D0,.439000868202295D0,               185P    198
.439000868202295D0,.827027033445396D0,.827027033445396D0,            185P    199
.827027033445396D0,1.0D0,1.04314139574019D0,1.01001874935741D0,      185P    200
-5.68000000000001D0,-5.62916512459885D0,-3.25D0,                     185P    201
-5.68000000000001D0,-4.7583302491977D0,-4.7583302491977D0,           185P    202
-5.09944341639924D0,-3.75277674973256D0,-6.5D0,                      185P    203
.439000868202295D0,.827027033445396D0,2.50376427911849D-12,          185P    204
-.866025403782501D0,-.500000000003355D0;                             185P    205
100,0.0D0,0.0D0,0.0D0,3.2845900737483D-15,6.50000000000001D0,        187P    206
-5.62916512459886D0,3.25000000000001D0;                              187P    207
126,2,2,1,0,0,0,.050974702959194D0,.050974702959194D0,               189P    208
.050974702959194D0,.439000868202295D0,.439000868202295D0,            189P    209
.439000868202295D0,1.0100187493574D0,1.04314139574018D0,1.0D0,       189P    210
-5.09944341639924D0,-3.75277674973256D0,-6.5D0,                      189P    211
-5.68000000000001D0,-1.74166975080228D0,-6.5D0,-5.68D0,              189P    212
5.18914238497653D-15,-6.5D0,.050974702959194D0,                      189P    213
.439000868202295D0,0.0D0,0.0D0,1.0D0;                                189P    214
508,3,0,11,23,0,0,0,11,24,0,0,0,11,25,0,0;                           191P    215
510,181,1,1,191;                                                     193P    216
116,-5.30472232502675D0,2.24726821015436D-15,0.0D0,0;                195P    217
123,1.0D0,-4.43182806627459D-16,0.0D0;                               197P    218
194,195,197,7.15D0,60.0000000000001D0,201;                           199P    219
123,0.0D0,1.0D0,0.0D0;                                               201P    220
126,2,2,1,0,0,0,.439000868202295D0,.439000868202295D0,               203P    221
.439000868202295D0,.827027033445396D0,.827027033445396D0,            203P    222
.827027033445396D0,1.0D0,1.0431413957402D0,1.01001874935741D0,       203P    223
-5.68D0,5.18914238497653D-15,-6.5D0,-5.68D0,1.7416697508023D0,       203P    224
-6.49999999999999D0,-5.09944341639924D0,3.75277674973257D0,          203P    225
-6.49999999999999D0,.439000868202295D0,.827027033445396D0,0.0D0,     203P    226
0.0D0,1.0D0;                                                         203P    227
100,0.0D0,0.0D0,0.0D0,5.62916512459886D0,3.25D0,                     205P    228
3.2845900737483D-15,6.50000000000001D0;                              205P    229
126,2,2,1,0,0,0,5.09747029591934D-2,5.09747029591934D-2,             207P    230
5.09747029591934D-2,.439000868202295D0,.439000868202295D0,           207P    231
.439000868202295D0,1.0100187493574D0,1.04314139574018D0,1.0D0,       207P    232
-5.09944341639924D0,3.75277674973257D0,-6.49999999999999D0,          207P    233
-5.68000000000001D0,4.75833024919771D0,-4.75833024919768D0,          207P    234
-5.68D0,5.62916512459885D0,-3.24999999999999D0,                      207P    235
5.09747029591934D-2,.439000868202295D0,-2.05437069056399D-12,        207P    236
-.866025403782972D0,.500000000002541D0;                              207P    237
508,3,0,11,26,0,0,0,11,27,0,0,0,11,28,0,0;                           209P    238
510,199,1,1,209;                                                     211P    239
116,3.43110505837127D-16,-3.75277674973257D0,6.49999999999999D0,     213P    240
0;                                                                   213P    241
123,1.6927488436475D-16,-.866025403784439D0,.499999999999999D0;      215P    242
190,213,215,219;                                                     217P    243
123,9.39664370562534D-33,-.499999999999999D0,                        219P    244
-.866025403784439D0;                                                 219P    245
110,7.10735725292807D-16,-7.50555349946513D0,                        221P    246
-3.7470027081099D-15,-5.09944341639924D0,-7.50555349946513D0,        221P    247
-3.7470027081099D-15;                                                221P    248
110,3.43110505837127D-16,-3.75277674973257D0,6.49999999999999D0,     223P    249
-5.09944341639924D0,-3.75277674973257D0,6.49999999999999D0;          223P    250
508,5,0,11,17,1,0,0,11,20,1,0,0,11,29,0,0,0,11,6,0,0,0,11,30,1,      225P    251
0;                                                                   225P    252
510,217,1,1,225;                                                     227P    253
116,7.10735725292807D-16,-7.50555349946513D0,                        229P    254
-3.7470027081099D-15,0;                                              229P    255
123,1.6927488436475D-16,-.866025403784438D0,-.5D0;                   231P    256
190,229,231,235;                                                     233P    257
123,-1.0D0,0.0D0,0.0D0;                                              235P    258
110,3.43110505837126D-16,-3.75277674973256D0,-6.5D0,                 237P    259
-5.09944341639924D0,-3.75277674973256D0,-6.5D0;                      237P    260
508,5,0,11,22,1,0,0,11,23,1,0,0,11,31,0,0,0,11,7,0,0,0,11,29,1,      239P    261
0;                                                                   239P    262
510,233,1,1,239;                                                     241P    263
116,3.43110505837126D-16,-3.75277674973256D0,-6.5D0,0;               243P    264
123,0.0D0,0.0D0,-1.0D0;                                              245P    265
190,243,245,249;                                                     247P    266
123,-1.0D0,0.0D0,0.0D0;                                              249P    267
110,-3.92139933074236D-16,3.75277674973257D0,                        251P    268
-6.49999999999999D0,-5.09944341639924D0,3.75277674973257D0,          251P    269
-6.49999999999999D0;                                                 251P    270
508,5,0,11,25,1,0,0,11,26,1,0,0,11,32,0,0,0,11,8,0,0,0,11,31,1,      253P    271
0;                                                                   253P    272
510,247,1,1,253;                                                     255P    273
116,-3.92139933074236D-16,3.75277674973256D0,6.5D0,0;                257P    274
123,0.0D0,0.0D0,1.0D0;                                               259P    275
190,257,259,263;                                                     261P    276
123,1.0D0,0.0D0,0.0D0;                                               263P    277
110,-3.92139933074236D-16,3.75277674973256D0,6.5D0,                  265P    278
-5.09944341639924D0,3.75277674973256D0,6.5D0;                        265P    279
508,5,0,11,18,1,0,0,11,30,0,0,0,11,5,0,0,0,11,33,1,0,0,11,14,1,      267P    280
0;                                                                   267P    281
510,261,1,1,267;                                                     269P    282
116,-3.92139933074236D-16,3.75277674973257D0,                        271P    283
-6.49999999999999D0,0;                                               271P    284
123,-1.6927488436475D-16,.866025403784439D0,-.5D0;                   273P    285
190,271,273,277;                                                     275P    286
123,0.0D0,.5D0,.866025403784439D0;                                   277P    287
110,-7.59765152529917D-16,7.50555349946513D0,                        279P    288
7.07767178198537D-15,-5.09944341639924D0,7.50555349946513D0,         279P    289
7.07767178198537D-15;                                                279P    290
508,5,0,11,12,1,0,0,11,34,0,0,0,11,9,0,0,0,11,32,1,0,0,11,28,1,      281P    291
0;                                                                   281P    292
510,275,1,1,281;                                                     283P    293
116,-7.59765152529917D-16,7.50555349946513D0,                        285P    294
7.07767178198537D-15,0;                                              285P    295
123,-1.6927488436475D-16,.866025403784438D0,.500000000000001D0;      287P    296
190,285,287,291;                                                     289P    297
123,1.0D0,0.0D0,0.0D0;                                               291P    298
508,5,0,11,15,1,0,0,11,33,0,0,0,11,4,0,0,0,11,34,1,0,0,11,11,1,      293P    299
0;                                                                   293P    300
510,289,1,1,293;                                                     295P    301
116,-5.68D0,-1.44665424420854D-15,5.55111512312578D-16,0;            297P    302
123,-1.0D0,0.0D0,0.0D0;                                              299P    303
190,297,299,303;                                                     301P    304
123,0.0D0,0.0D0,1.0D0;                                               303P    305
508,6,0,11,27,1,0,0,11,24,1,0,0,11,21,1,0,0,11,19,1,0,0,11,16,1,     305P    306
0,0,11,13,1,0;                                                       305P    307
510,301,1,1,305;                                                     307P    308
514,18,27,1,45,1,71,1,89,1,101,1,121,1,139,1,157,1,175,1,193,1,      309P    309
211,1,227,1,241,1,255,1,269,1,283,1,295,1,307,1;                     309P    310
186,309,1,0;                                                         311P    311
314,63.9216005802155D0,63.9216005802155D0,68.6275005340576D0,;       313P    312
S      1G      4D    314P    312                                        T      1
