                                                                        S      1
,,17Hside support1.ipt,27HNo Iges File Name specified,22HAutodesk InventG      1
or 2013,37HAutoDesk Inventor Iges Exporter R2013,32,38,6,99,15,17Hside sG      2
upport1.ipt,1.0D0,1,2HIN,1,.08D0,15H20131018.142633,3.93700787401575D-4,G      3
10000.0D0,8Hemployee,,11,0,,;                                           G      4
     406       1       0       0       1       0       0       000000000D      1
     406       0       0       1       3                               0D      2
     116       2       0       0       0       0       0       000010000D      3
     116       0       0       2       0                               0D      4
     123       4       0       0       0       0       0       000010200D      5
     123       0       0       1       0                               0D      6
     190       5       0       0       0       0       0       000010000D      7
     190       0       0       1       1                               0D      8
     123       6       0       0       0       0       0       000010200D      9
     123       0       0       1       0                               0D     10
     504       7       0       0       0       0       0       000010001D     11
     504       0       0       9       1                               0D     12
     502      16       0       0       0       0       0       000010000D     13
     502       0       0      29       1                               0D     14
     100      45       0       0       0       0      17       000010000D     15
     100       0       0       1       0                               0D     16
     124      46       0       0       0       0       0       000000000D     17
     124       0       0       2       0                               0D     18
     508      48       0       0       0       0       0       000010000D     19
     508       0       0       1       1                               0D     20
     100      49       0       0       0       0      17       000010000D     21
     100       0       0       2       0                               0D     22
     508      51       0       0       0       0       0       000010000D     23
     508       0       0       1       1                               0D     24
     510      52       0       0       0       0       0       000010000D     25
     510       0    -361       1       1                               0D     26
     120      53       0       0       0       0       0       000010000D     27
     120       0       0       1       0                               0D     28
     110      54       0       0       0       0       0       000010000D     29
     110       0       0       2       0                               0D     30
     110      56       0       0       0       0       0       001010000D     31
     110       0       0       2       0                               0D     32
     100      58       0       0       0       0      35       000010000D     33
     100       0       0       2       0                               0D     34
     124      60       0       0       0       0       0       000000000D     35
     124       0       0       2       0                               0D     36
     508      62       0       0       0       0       0       000010000D     37
     508       0       0       1       1                               0D     38
     508      63       0       0       0       0       0       000010000D     39
     508       0       0       1       1                               0D     40
     510      64       0       0       0       0       0       000010000D     41
     510       0    -361       1       1                               0D     42
     120      65       0       0       0       0       0       000010000D     43
     120       0       0       1       0                               0D     44
     110      66       0       0       0       0       0       000010000D     45
     110       0       0       2       0                               0D     46
     110      68       0       0       0       0       0       001010000D     47
     110       0       0       2       0                               0D     48
     100      70       0       0       0       0      51       000010000D     49
     100       0       0       2       0                               0D     50
     124      72       0       0       0       0       0       000000000D     51
     124       0       0       2       0                               0D     52
     508      74       0       0       0       0       0       000010000D     53
     508       0       0       1       1                               0D     54
     508      75       0       0       0       0       0       000010000D     55
     508       0       0       1       1                               0D     56
     510      76       0       0       0       0       0       000010000D     57
     510       0    -361       1       1                               0D     58
     116      77       0       0       0       0       0       000010000D     59
     116       0       0       2       0                               0D     60
     123      79       0       0       0       0       0       000010200D     61
     123       0       0       1       0                               0D     62
     190      80       0       0       0       0       0       000010000D     63
     190       0       0       1       1                               0D     64
     123      81       0       0       0       0       0       000010200D     65
     123       0       0       1       0                               0D     66
     100      82       0       0       0       0      69       000010000D     67
     100       0       0       1       0                               0D     68
     124      83       0       0       0       0       0       000000000D     69
     124       0       0       2       0                               0D     70
     508      85       0       0       0       0       0       000010000D     71
     508       0       0       1       1                               0D     72
     100      86       0       0       0       0      69       000010000D     73
     100       0       0       2       0                               0D     74
     508      88       0       0       0       0       0       000010000D     75
     508       0       0       1       1                               0D     76
     510      89       0       0       0       0       0       000010000D     77
     510       0    -361       1       1                               0D     78
     120      90       0       0       0       0       0       000010000D     79
     120       0       0       1       0                               0D     80
     110      91       0       0       0       0       0       000010000D     81
     110       0       0       2       0                               0D     82
     110      93       0       0       0       0       0       001010000D     83
     110       0       0       2       0                               0D     84
     100      95       0       0       0       0      87       000010000D     85
     100       0       0       2       0                               0D     86
     124      97       0       0       0       0       0       000000000D     87
     124       0       0       2       0                               0D     88
     508      99       0       0       0       0       0       000010000D     89
     508       0       0       1       1                               0D     90
     508     100       0       0       0       0       0       000010000D     91
     508       0       0       1       1                               0D     92
     510     101       0       0       0       0       0       000010000D     93
     510       0    -361       1       1                               0D     94
     120     102       0       0       0       0       0       000010000D     95
     120       0       0       1       0                               0D     96
     110     103       0       0       0       0       0       000010000D     97
     110       0       0       2       0                               0D     98
     110     105       0       0       0       0       0       001010000D     99
     110       0       0       2       0                               0D    100
     100     107       0       0       0       0     103       000010000D    101
     100       0       0       2       0                               0D    102
     124     109       0       0       0       0       0       000000000D    103
     124       0       0       2       0                               0D    104
     508     111       0       0       0       0       0       000010000D    105
     508       0       0       1       1                               0D    106
     508     112       0       0       0       0       0       000010000D    107
     508       0       0       1       1                               0D    108
     510     113       0       0       0       0       0       000010000D    109
     510       0    -361       1       1                               0D    110
     116     114       0       0       0       0       0       000010000D    111
     116       0       0       2       0                               0D    112
     123     116       0       0       0       0       0       000010200D    113
     123       0       0       1       0                               0D    114
     190     117       0       0       0       0       0       000010000D    115
     190       0       0       1       1                               0D    116
     123     118       0       0       0       0       0       000010200D    117
     123       0       0       1       0                               0D    118
     100     119       0       0       0       0     121       000010000D    119
     100       0       0       1       0                               0D    120
     124     120       0       0       0       0       0       000000000D    121
     124       0       0       2       0                               0D    122
     508     122       0       0       0       0       0       000010000D    123
     508       0       0       1       1                               0D    124
     100     123       0       0       0       0     121       000010000D    125
     100       0       0       2       0                               0D    126
     508     125       0       0       0       0       0       000010000D    127
     508       0       0       1       1                               0D    128
     510     126       0       0       0       0       0       000010000D    129
     510       0    -361       1       1                               0D    130
     120     127       0       0       0       0       0       000010000D    131
     120       0       0       1       0                               0D    132
     110     128       0       0       0       0       0       000010000D    133
     110       0       0       2       0                               0D    134
     110     130       0       0       0       0       0       001010000D    135
     110       0       0       2       0                               0D    136
     100     132       0       0       0       0     139       000010000D    137
     100       0       0       2       0                               0D    138
     124     134       0       0       0       0       0       000000000D    139
     124       0       0       2       0                               0D    140
     508     136       0       0       0       0       0       000010000D    141
     508       0       0       1       1                               0D    142
     508     137       0       0       0       0       0       000010000D    143
     508       0       0       1       1                               0D    144
     510     138       0       0       0       0       0       000010000D    145
     510       0    -361       1       1                               0D    146
     120     139       0       0       0       0       0       000010000D    147
     120       0       0       1       0                               0D    148
     110     140       0       0       0       0       0       000010000D    149
     110       0       0       2       0                               0D    150
     110     142       0       0       0       0       0       001010000D    151
     110       0       0       2       0                               0D    152
     100     144       0       0       0       0     155       000010000D    153
     100       0       0       2       0                               0D    154
     124     146       0       0       0       0       0       000000000D    155
     124       0       0       2       0                               0D    156
     508     148       0       0       0       0       0       000010000D    157
     508       0       0       1       1                               0D    158
     508     149       0       0       0       0       0       000010000D    159
     508       0       0       1       1                               0D    160
     510     150       0       0       0       0       0       000010000D    161
     510       0    -361       1       1                               0D    162
     120     151       0       0       0       0       0       000010000D    163
     120       0       0       1       0                               0D    164
     110     152       0       0       0       0       0       000010000D    165
     110       0       0       2       0                               0D    166
     110     154       0       0       0       0       0       001010000D    167
     110       0       0       2       0                               0D    168
     100     156       0       0       0       0     171       000010000D    169
     100       0       0       2       0                               0D    170
     124     158       0       0       0       0       0       000000000D    171
     124       0       0       2       0                               0D    172
     508     160       0       0       0       0       0       000010000D    173
     508       0       0       1       1                               0D    174
     100     161       0       0       0       0     177       000010000D    175
     100       0       0       2       0                               0D    176
     124     163       0       0       0       0       0       000000000D    177
     124       0       0       2       0                               0D    178
     508     165       0       0       0       0       0       000010000D    179
     508       0       0       1       1                               0D    180
     510     166       0       0       0       0       0       000010000D    181
     510       0    -361       1       1                               0D    182
     116     167       0       0       0       0       0       000010000D    183
     116       0       0       2       0                               0D    184
     123     169       0       0       0       0       0       000010200D    185
     123       0       0       1       0                               0D    186
     190     170       0       0       0       0       0       000010000D    187
     190       0       0       1       1                               0D    188
     123     171       0       0       0       0       0       000010200D    189
     123       0       0       1       0                               0D    190
     100     172       0       0       0       0     193       000010000D    191
     100       0       0       2       0                               0D    192
     124     174       0       0       0       0       0       000000000D    193
     124       0       0       3       0                               0D    194
     110     177       0       0       0       0       0       000010000D    195
     110       0       0       2       0                               0D    196
     100     179       0       0       0       0     199       000010000D    197
     100       0       0       2       0                               0D    198
     124     181       0       0       0       0       0       000000000D    199
     124       0       0       2       0                               0D    200
     110     183       0       0       0       0       0       000010000D    201
     110       0       0       2       0                               0D    202
     110     185       0       0       0       0       0       000010000D    203
     110       0       0       2       0                               0D    204
     110     187       0       0       0       0       0       000010000D    205
     110       0       0       2       0                               0D    206
     110     189       0       0       0       0       0       000010000D    207
     110       0       0       2       0                               0D    208
     508     191       0       0       0       0       0       000010000D    209
     508       0       0       2       1                               0D    210
     508     193       0       0       0       0       0       000010000D    211
     508       0       0       1       1                               0D    212
     508     194       0       0       0       0       0       000010000D    213
     508       0       0       1       1                               0D    214
     508     195       0       0       0       0       0       000010000D    215
     508       0       0       1       1                               0D    216
     508     196       0       0       0       0       0       000010000D    217
     508       0       0       1       1                               0D    218
     510     197       0       0       0       0       0       000010000D    219
     510       0    -361       1       1                               0D    220
     116     198       0       0       0       0       0       000010000D    221
     116       0       0       2       0                               0D    222
     123     200       0       0       0       0       0       000010200D    223
     123       0       0       1       0                               0D    224
     192     201       0       0       0       0       0       000010000D    225
     192       0       0       1       1                               0D    226
     123     202       0       0       0       0       0       000010200D    227
     123       0       0       1       0                               0D    228
     110     203       0       0       0       0       0       000010000D    229
     110       0       0       3       0                               0D    230
     110     206       0       0       0       0       0       000010000D    231
     110       0       0       3       0                               0D    232
     100     209       0       0       0       0     235       000010000D    233
     100       0       0       2       0                               0D    234
     124     211       0       0       0       0       0       000000000D    235
     124       0       0       3       0                               0D    236
     508     214       0       0       0       0       0       000010000D    237
     508       0       0       1       1                               0D    238
     510     215       0       0       0       0       0       000010000D    239
     510       0    -361       1       1                               0D    240
     116     216       0       0       0       0       0       000010000D    241
     116       0       0       2       0                               0D    242
     123     218       0       0       0       0       0       000010200D    243
     123       0       0       1       0                               0D    244
     190     219       0       0       0       0       0       000010000D    245
     190       0       0       1       1                               0D    246
     123     220       0       0       0       0       0       000010200D    247
     123       0       0       1       0                               0D    248
     110     221       0       0       0       0       0       000010000D    249
     110       0       0       3       0                               0D    250
     110     224       0       0       0       0       0       000010000D    251
     110       0       0       2       0                               0D    252
     508     226       0       0       0       0       0       000010000D    253
     508       0       0       1       1                               0D    254
     510     227       0       0       0       0       0       000010000D    255
     510       0    -361       1       1                               0D    256
     116     228       0       0       0       0       0       000010000D    257
     116       0       0       2       0                               0D    258
     123     230       0       0       0       0       0       000010200D    259
     123       0       0       1       0                               0D    260
     190     231       0       0       0       0       0       000010000D    261
     190       0       0       1       1                               0D    262
     123     232       0       0       0       0       0       000010200D    263
     123       0       0       1       0                               0D    264
     110     233       0       0       0       0       0       000010000D    265
     110       0       0       2       0                               0D    266
     110     235       0       0       0       0       0       000010000D    267
     110       0       0       3       0                               0D    268
     110     238       0       0       0       0       0       000010000D    269
     110       0       0       3       0                               0D    270
     100     241       0       0       0       0     273       000010000D    271
     100       0       0       2       0                               0D    272
     124     243       0       0       0       0       0       000000000D    273
     124       0       0       2       0                               0D    274
     110     245       0       0       0       0       0       000010000D    275
     110       0       0       3       0                               0D    276
     508     248       0       0       0       0       0       000010000D    277
     508       0       0       2       1                               0D    278
     508     250       0       0       0       0       0       000010000D    279
     508       0       0       1       1                               0D    280
     508     251       0       0       0       0       0       000010000D    281
     508       0       0       1       1                               0D    282
     508     252       0       0       0       0       0       000010000D    283
     508       0       0       1       1                               0D    284
     508     253       0       0       0       0       0       000010000D    285
     508       0       0       1       1                               0D    286
     510     254       0       0       0       0       0       000010000D    287
     510       0    -361       1       1                               0D    288
     116     255       0       0       0       0       0       000010000D    289
     116       0       0       2       0                               0D    290
     123     257       0       0       0       0       0       000010200D    291
     123       0       0       1       0                               0D    292
     190     258       0       0       0       0       0       000010000D    293
     190       0       0       1       1                               0D    294
     123     259       0       0       0       0       0       000010200D    295
     123       0       0       1       0                               0D    296
     110     260       0       0       0       0       0       000010000D    297
     110       0       0       3       0                               0D    298
     508     263       0       0       0       0       0       000010000D    299
     508       0       0       1       1                               0D    300
     510     264       0       0       0       0       0       000010000D    301
     510       0    -361       1       1                               0D    302
     116     265       0       0       0       0       0       000010000D    303
     116       0       0       2       0                               0D    304
     123     267       0       0       0       0       0       000010200D    305
     123       0       0       1       0                               0D    306
     190     268       0       0       0       0       0       000010000D    307
     190       0       0       1       1                               0D    308
     123     269       0       0       0       0       0       000010200D    309
     123       0       0       1       0                               0D    310
     110     270       0       0       0       0       0       000010000D    311
     110       0       0       3       0                               0D    312
     508     273       0       0       0       0       0       000010000D    313
     508       0       0       1       1                               0D    314
     510     274       0       0       0       0       0       000010000D    315
     510       0    -361       1       1                               0D    316
     116     275       0       0       0       0       0       000010000D    317
     116       0       0       2       0                               0D    318
     123     277       0       0       0       0       0       000010200D    319
     123       0       0       1       0                               0D    320
     192     278       0       0       0       0       0       000010000D    321
     192       0       0       1       1                               0D    322
     123     279       0       0       0       0       0       000010200D    323
     123       0       0       1       0                               0D    324
     110     280       0       0       0       0       0       000010000D    325
     110       0       0       2       0                               0D    326
     508     282       0       0       0       0       0       000010000D    327
     508       0       0       1       1                               0D    328
     510     283       0       0       0       0       0       000010000D    329
     510       0    -361       1       1                               0D    330
     116     284       0       0       0       0       0       000010000D    331
     116       0       0       2       0                               0D    332
     123     286       0       0       0       0       0       000010200D    333
     123       0       0       1       0                               0D    334
     190     287       0       0       0       0       0       000010000D    335
     190       0       0       1       1                               0D    336
     123     288       0       0       0       0       0       000010200D    337
     123       0       0       1       0                               0D    338
     110     289       0       0       0       0       0       000010000D    339
     110       0       0       3       0                               0D    340
     508     292       0       0       0       0       0       000010000D    341
     508       0       0       1       1                               0D    342
     510     293       0       0       0       0       0       000010000D    343
     510       0    -361       1       1                               0D    344
     116     294       0       0       0       0       0       000010000D    345
     116       0       0       2       0                               0D    346
     123     296       0       0       0       0       0       000010200D    347
     123       0       0       1       0                               0D    348
     190     297       0       0       0       0       0       000010000D    349
     190       0       0       1       1                               0D    350
     123     298       0       0       0       0       0       000010200D    351
     123       0       0       1       0                               0D    352
     508     299       0       0       0       0       0       000010000D    353
     508       0       0       1       1                               0D    354
     510     300       0       0       0       0       0       000010000D    355
     510       0    -361       1       1                               0D    356
     514     301       0       0       0       0       0       000010000D    357
     514       0       0       2       1                               0D    358
     186     303       0       0       1       0       0       000000000D    359
     186       0       0       1       0                  Solid1       0D    360
     314     304       0       0       0       0       0       000000000D    361
     314       0       1       1       0                               0D    362
406,2,0,13Hside support1;                                              1P      1
116,7.27298646603647D0,-.826771653541951D0,-.268125984251968D0,        3P      2
0;                                                                     3P      3
123,0.0D0,0.0D0,-1.0D0;                                                5P      4
190,3,5,9;                                                             7P      5
123,-1.0D0,0.0D0,0.0D0;                                                9P      6
504,35,15,13,1,13,1,21,13,2,13,2,33,13,3,13,3,49,13,4,13,4,67,        11P      7
13,5,13,5,73,13,6,13,6,85,13,7,13,7,101,13,8,13,8,119,13,9,13,9,      11P      8
125,13,10,13,10,137,13,11,13,11,153,13,12,13,12,169,13,13,13,13,      11P      9
175,13,14,13,14,191,13,15,13,16,195,13,17,13,15,197,13,18,13,17,      11P     10
201,13,19,13,18,203,13,20,13,19,205,13,21,13,20,207,13,16,13,21,      11P     11
229,13,22,13,15,231,13,23,13,16,233,13,22,13,23,249,13,23,13,24,      11P     12
251,13,24,13,21,265,13,24,13,25,267,13,25,13,26,269,13,26,13,27,      11P     13
271,13,27,13,28,275,13,28,13,22,297,13,25,13,20,311,13,28,13,17,      11P     14
325,13,27,13,18,339,13,26,13,19;                                      11P     15
502,28,6.91848646603647D0,-.826771653541951D0,                        13P     16
-.268125984251968D0,7.44998646603647D0,-.826771653541951D0,           13P     17
-.268125984251968D0,6.91848646603647D0,-.826771653541951D0,           13P     18
-.492125984251968D0,7.44998646603647D0,-.826771653541951D0,           13P     19
-5.97881083170532D-64,1.21067716534766D0,-.590551181105913D0,         13P     20
-.374125984251969D0,1.01567716534766D0,-.590551181105913D0,           13P     21
-.374125984251968D0,1.21067716534766D0,-.590551181105913D0,           13P     22
-.492125984251968D0,1.01567716534766D0,-.590551181105913D0,           13P     23
2.26316568205795D-64,1.21067716535435D0,-8.95669291338583D0,          13P     24
-.374125984251969D0,1.01567716535435D0,-8.95669291338583D0,           13P     25
-.374125984251968D0,1.21067716535435D0,-8.95669291338583D0,           13P     26
-.492125984251968D0,1.01567716535435D0,-8.95669291338583D0,           13P     27
2.26316568205795D-64,4.47967937942228D0,-.826771653544294D0,          13P     28
-.492125984251968D0,4.47967937942228D0,-.826771653544294D0,           13P     29
-1.51317263255689D-62,7.66164018998879D0,-1.12865949237281D0,         13P     30
-.492125984251968D0,7.76511245028844D0,-.826771653541561D0,           13P     31
-.492125984251968D0,1.39360014452371D0,-9.19820318444965D0,           13P     32
-.492125984251968D0,1.08267716535435D0,-9.3503937007874D0,            13P     33
-.492125984251968D0,1.45897422389524D-14,-9.3503937007874D0,          13P     34
-.492125984251968D0,1.3987061727561D-14,.492125984251968D0,           13P     35
-.492125984251968D0,7.76511245028844D0,.492125984251982D0,            13P     36
-.492125984251968D0,7.66164018998879D0,-1.12865949237281D0,           13P     37
-2.58799420093411D-62,7.76511245028844D0,-.826771653541561D0,         13P     38
-2.62294567385279D-62,7.76511245028844D0,.492125984251982D0,          13P     39
-2.62294567385279D-62,1.3987061727561D-14,.492125984251968D0,         13P     40
-3.77970604115131D-77,1.45897422389524D-14,-9.3503937007874D0,        13P     41
-3.98328303378208D-77,1.08267716535435D0,-9.3503937007874D0,          13P     42
-3.65713105280257D-63,1.39360014452371D0,-9.19820318444965D0,         13P     43
-4.70738510686127D-63;                                                13P     44
100,0.0D0,0.0D0,0.0D0,.3545D0,0.0D0,.3545D0,0.0D0;                    15P     45
124,-1.0D0,0.0D0,0.0D0,7.27298646603647D0,0.0D0,1.0D0,0.0D0,          17P     46
-.826771653541951D0,0.0D0,0.0D0,-1.0D0,-.268125984251968D0;           17P     47
508,1,0,11,1,1,0;                                                     19P     48
100,0.0D0,0.0D0,0.0D0,-.177D0,2.16762483449082D-17,-.177D0,           21P     49
2.16762483449082D-17;                                                 21P     50
508,1,0,11,2,0,0;                                                     23P     51
510,7,2,1,19,23;                                                      25P     52
120,31,29,0.0D0,6.28318530717959D0;                                   27P     53
110,6.91848646603647D0,-.826771653541951D0,-.256925984251968D0,       29P     54
6.91848646603647D0,-.826771653541951D0,-.503325984251969D0;           29P     55
110,7.27298646603647D0,-.826771653541951D0,-.256925984251968D0,       31P     56
7.27298646603647D0,-.826771653541951D0,-1.25692598425197D0;           31P     57
100,0.0D0,0.0D0,0.0D0,.3545D0,-8.21077864286824D-17,.3545D0,          33P     58
-8.21077864286824D-17;                                                33P     59
124,-1.0D0,0.0D0,0.0D0,7.27298646603647D0,0.0D0,-1.0D0,0.0D0,         35P     60
-.826771653541951D0,0.0D0,0.0D0,1.0D0,-.492125984251968D0;            35P     61
508,1,0,11,3,0,0;                                                     37P     62
508,1,0,11,1,0,0;                                                     39P     63
510,27,2,1,37,39;                                                     41P     64
120,47,45,0.0D0,6.28318530717959D0;                                   43P     65
110,7.09598646603647D0,-.826771653541951D0,12.0543616955885D0,        45P     66
7.09598646603647D0,-.826771653541951D0,-.281532283464566D0;           45P     67
110,7.27298646603647D0,-.826771653541951D0,12.0543616955885D0,        47P     68
7.27298646603647D0,-.826771653541951D0,11.0543616955885D0;            47P     69
100,0.0D0,0.0D0,0.0D0,-.177D0,2.16762483449082D-17,-.177D0,           49P     70
2.16762483449082D-17;                                                 49P     71
124,-1.0D0,0.0D0,0.0D0,7.27298646603647D0,0.0D0,1.0D0,0.0D0,          51P     72
-.826771653541951D0,0.0D0,0.0D0,-1.0D0,0.0D0;                         51P     73
508,1,0,11,4,0,0;                                                     53P     74
508,1,0,11,2,1,0;                                                     55P     75
510,43,2,1,53,55;                                                     57P     76
116,1.08267716534766D0,-.590551181105913D0,-.374125984251969D0,       59P     77
0;                                                                    59P     78
123,0.0D0,0.0D0,-1.0D0;                                               61P     79
190,59,61,65;                                                         63P     80
123,-1.0D0,0.0D0,0.0D0;                                               65P     81
100,0.0D0,0.0D0,0.0D0,.128D0,0.0D0,.128D0,0.0D0;                      67P     82
124,1.0D0,0.0D0,0.0D0,1.08267716534766D0,0.0D0,1.0D0,0.0D0,           69P     83
-.590551181105913D0,0.0D0,0.0D0,1.0D0,-.374125984251969D0;            69P     84
508,1,0,11,5,0,0;                                                     71P     85
100,0.0D0,0.0D0,0.0D0,-.067D0,8.20513355428727D-18,-.067D0,           73P     86
8.20513355428727D-18;                                                 73P     87
508,1,0,11,6,1,0;                                                     75P     88
510,63,2,1,71,75;                                                     77P     89
120,83,81,0.0D0,6.28318530717959D0;                                   79P     90
110,1.21067716534766D0,-.590551181105913D0,-.498025984251969D0,       81P     91
1.21067716534766D0,-.590551181105913D0,-.368225984251969D0;           81P     92
110,1.08267716534766D0,-.590551181105913D0,-.498025984251969D0,       83P     93
1.08267716534766D0,-.590551181105913D0,.501974015748031D0;            83P     94
100,0.0D0,0.0D0,0.0D0,.128D0,-4.42164719888894D-143,.128D0,           85P     95
-4.42164719888894D-143;                                               85P     96
124,1.0D0,0.0D0,0.0D0,1.08267716534766D0,0.0D0,-1.0D0,0.0D0,          87P     97
-.590551181105913D0,0.0D0,0.0D0,-1.0D0,-.492125984251968D0;           87P     98
508,1,0,11,7,1,0;                                                     89P     99
508,1,0,11,5,1,0;                                                     91P    100
510,79,2,1,89,91;                                                     93P    101
120,99,97,0.0D0,6.28318530717959D0;                                   95P    102
110,1.14967716534766D0,-.590551181105913D0,-.392832283464566D0,       97P    103
1.14967716534766D0,-.590551181105913D0,1.87062992125991D-2;           97P    104
110,1.08267716534766D0,-.590551181105913D0,-.392832283464566D0,       99P    105
1.08267716534766D0,-.590551181105913D0,.607167716535434D0;            99P    106
100,0.0D0,0.0D0,0.0D0,-.067D0,8.20513355428727D-18,-.067D0,          101P    107
8.20513355428727D-18;                                                101P    108
124,1.0D0,0.0D0,0.0D0,1.08267716534766D0,0.0D0,1.0D0,0.0D0,          103P    109
-.590551181105913D0,0.0D0,0.0D0,1.0D0,0.0D0;                         103P    110
508,1,0,11,8,1,0;                                                    105P    111
508,1,0,11,6,0,0;                                                    107P    112
510,95,2,1,105,107;                                                  109P    113
116,1.08267716535435D0,-8.95669291338583D0,-.374125984251969D0,      111P    114
0;                                                                   111P    115
123,0.0D0,0.0D0,-1.0D0;                                              113P    116
190,111,113,117;                                                     115P    117
123,-1.0D0,0.0D0,0.0D0;                                              117P    118
100,0.0D0,0.0D0,0.0D0,.128D0,0.0D0,.128D0,0.0D0;                     119P    119
124,1.0D0,0.0D0,0.0D0,1.08267716535435D0,0.0D0,1.0D0,0.0D0,          121P    120
-8.95669291338583D0,0.0D0,0.0D0,1.0D0,-.374125984251969D0;           121P    121
508,1,0,11,9,0,0;                                                    123P    122
100,0.0D0,0.0D0,0.0D0,-.067D0,8.20513355428727D-18,-.067D0,          125P    123
8.20513355428727D-18;                                                125P    124
508,1,0,11,10,1,0;                                                   127P    125
510,115,2,1,123,127;                                                 129P    126
120,135,133,0.0D0,6.28318530717959D0;                                131P    127
110,1.21067716535435D0,-8.95669291338583D0,-.498025984251969D0,      133P    128
1.21067716535435D0,-8.95669291338583D0,-.368225984251969D0;          133P    129
110,1.08267716535435D0,-8.95669291338583D0,-.498025984251969D0,      135P    130
1.08267716535435D0,-8.95669291338583D0,.501974015748031D0;           135P    131
100,0.0D0,0.0D0,0.0D0,.128D0,-4.42164719888894D-143,.128D0,          137P    132
-4.42164719888894D-143;                                              137P    133
124,1.0D0,0.0D0,0.0D0,1.08267716535435D0,0.0D0,-1.0D0,0.0D0,         139P    134
-8.95669291338583D0,0.0D0,0.0D0,-1.0D0,-.492125984251968D0;          139P    135
508,1,0,11,11,1,0;                                                   141P    136
508,1,0,11,9,1,0;                                                    143P    137
510,131,2,1,141,143;                                                 145P    138
120,151,149,0.0D0,6.28318530717959D0;                                147P    139
110,1.14967716535435D0,-8.95669291338583D0,-.392832283464566D0,      149P    140
1.14967716535435D0,-8.95669291338583D0,1.87062992125991D-2;          149P    141
110,1.08267716535435D0,-8.95669291338583D0,-.392832283464566D0,      151P    142
1.08267716535435D0,-8.95669291338583D0,.607167716535434D0;           151P    143
100,0.0D0,0.0D0,0.0D0,-.067D0,8.20513355428727D-18,-.067D0,          153P    144
8.20513355428727D-18;                                                153P    145
124,1.0D0,0.0D0,0.0D0,1.08267716535435D0,0.0D0,1.0D0,0.0D0,          155P    146
-8.95669291338583D0,0.0D0,0.0D0,1.0D0,0.0D0;                         155P    147
508,1,0,11,12,1,0;                                                   157P    148
508,1,0,11,10,0,0;                                                   159P    149
510,147,2,1,157,159;                                                 161P    150
120,167,165,0.0D0,6.28318530717959D0;                                163P    151
110,4.16078174162701D0,-.826771653544294D0,-.516732283464567D0,      165P    152
4.16078174162701D0,-.826771653544294D0,2.46062992125985D-2;          165P    153
110,4.32023056052464D0,-.826771653544294D0,-.516732283464567D0,      167P    154
4.32023056052464D0,-.826771653544294D0,.483267716535433D0;           167P    155
100,0.0D0,0.0D0,0.0D0,-.159448818897639D0,1.95268485690819D-17,      169P    156
-.159448818897639D0,1.95268485690819D-17;                            169P    157
124,-1.0D0,0.0D0,0.0D0,4.32023056052464D0,0.0D0,1.0D0,0.0D0,         171P    158
-.826771653544294D0,0.0D0,0.0D0,-1.0D0,-.492125984251968D0;          171P    159
508,1,0,11,13,1,0;                                                   173P    160
100,0.0D0,0.0D0,0.0D0,-.159448818897639D0,1.95268485690819D-17,      175P    161
-.159448818897639D0,1.95268485690819D-17;                            175P    162
124,-1.0D0,0.0D0,0.0D0,4.32023056052464D0,0.0D0,-1.0D0,0.0D0,        177P    163
-.826771653544294D0,0.0D0,0.0D0,1.0D0,-1.40953422574856D-62;         177P    164
508,1,0,11,14,1,0;                                                   179P    165
510,163,2,1,173,179;                                                 181P    166
116,4.1728625470884D0,-1.19742934485039D-2,-.492125984251968D0,      183P    167
0;                                                                   183P    168
123,0.0D0,0.0D0,-1.0D0;                                              185P    169
190,183,185,189;                                                     187P    170
123,-1.0D0,0.0D0,0.0D0;                                              189P    171
100,0.0D0,0.0D0,0.0D0,-.388653723952078D0,.301887838831164D0,        191P    172
-.492125984251968D0,6.17960755694709D-15;                            191P    173
124,-1.0D0,7.92965693108269D-13,0.0D0,7.27298646603647D0,            193P    174
-7.92965693108269D-13,-1.0D0,0.0D0,-.826771653541951D0,              193P    175
3.37785922695216D-63,0.0D0,1.0D0,-.492125984251968D0;                193P    176
110,1.39360014452371D0,-9.19820318444965D0,-.492125984251968D0,      195P    177
7.66164018998878D0,-1.12865949237281D0,-.492125984251968D0;          195P    178
100,0.0D0,0.0D0,0.0D0,.393700787401575D0,1.99489295722965D-141,      197P    179
.241510271060508D0,.310922979165098D0;                               197P    180
124,0.0D0,1.0D0,0.0D0,1.08267716535435D0,-1.0D0,0.0D0,0.0D0,         199P    181
-8.95669291338583D0,0.0D0,0.0D0,1.0D0,-.492125984251968D0;           199P    182
110,1.45897422389524D-14,-9.3503937007874D0,-.492125984251968D0,     201P    183
1.08267716535435D0,-9.3503937007874D0,-.492125984251968D0;           201P    184
110,1.3987061727561D-14,.492125984251968D0,-.492125984251968D0,      203P    185
1.45897422389524D-14,-9.3503937007874D0,-.492125984251968D0;         203P    186
110,7.76511245028844D0,.49212598425197D0,-.492125984251968D0,        205P    187
1.4210854715202D-14,.492125984251969D0,-.492125984251968D0;          205P    188
110,7.76511245028844D0,-.826771653541561D0,-.492125984251968D0,      207P    189
7.76511245028844D0,.492125984251982D0,-.492125984251968D0;           207P    190
508,7,0,11,15,0,0,0,11,16,0,0,0,11,17,0,0,0,11,18,0,0,0,11,19,0,     209P    191
0,0,11,20,0,0,0,11,21,0,0;                                           209P    192
508,1,0,11,3,1,0;                                                    211P    193
508,1,0,11,7,0,0;                                                    213P    194
508,1,0,11,11,0,0;                                                   215P    195
508,1,0,11,13,0,0;                                                   217P    196
510,187,5,1,209,211,213,215,217;                                     219P    197
116,7.27298646603647D0,-.826771653541951D0,                          221P    198
-2.45671244417994D-62,0;                                             221P    199
123,0.0D0,0.0D0,1.0D0;                                               223P    200
192,221,223,.492125984251968D0,227;                                  225P    201
123,-1.0D0,-7.92965693108269D-13,0.0D0;                              227P    202
110,7.66164018998879D0,-1.12865949237281D0,                          229P    203
-2.58799420093411D-62,7.66164018998879D0,-1.12865949237281D0,        229P    204
-.492125984251968D0;                                                 229P    205
110,7.76511245028844D0,-.826771653541561D0,                          231P    206
-2.62294567385279D-62,7.76511245028844D0,-.826771653541561D0,        231P    207
-.492125984251968D0;                                                 231P    208
100,0.0D0,0.0D0,0.0D0,-.388653723952078D0,.301887838831164D0,        233P    209
-.492125984251968D0,6.17960755694709D-15;                            233P    210
124,-1.0D0,7.92965693108269D-13,0.0D0,7.27298646603647D0,            235P    211
-7.92965693108269D-13,-1.0D0,0.0D0,-.826771653541951D0,              235P    212
3.37785922695216D-63,0.0D0,1.0D0,-2.45671244417994D-62;              235P    213
508,4,0,11,22,1,0,0,11,15,1,0,0,11,23,0,0,0,11,24,0,0;               237P    214
510,225,1,1,237;                                                     239P    215
116,7.76511245028844D0,-.826771653541561D0,                          241P    216
-2.62294567385279D-62,0;                                             241P    217
123,1.0D0,0.0D0,0.0D0;                                               243P    218
190,241,243,247;                                                     245P    219
123,0.0D0,-1.0D0,0.0D0;                                              247P    220
110,7.76511245028844D0,-.826771653541561D0,                          249P    221
-2.62294567385279D-62,7.76511245028844D0,.492125984251982D0,         249P    222
-2.62294567385279D-62;                                               249P    223
110,7.76511245028844D0,.49212598425197D0,-2.62294567385278D-62,      251P    224
7.76511245028844D0,.49212598425197D0,-.492125984251968D0;            251P    225
508,4,0,11,25,0,0,0,11,23,1,0,0,11,21,1,0,0,11,26,0,0;               253P    226
510,245,1,1,253;                                                     255P    227
116,6.63041322724535D0,-1.74397022830345D0,                          257P    228
-2.23966024981563D-62,0;                                             257P    229
123,0.0D0,0.0D0,1.0D0;                                               259P    230
190,257,259,263;                                                     261P    231
123,1.0D0,0.0D0,0.0D0;                                               263P    232
110,7.76511245028844D0,.49212598425197D0,-2.62294567385279D-62,      265P    233
1.4210854715202D-14,.492125984251969D0,-4.31808427754722D-77;        265P    234
110,1.3987061727561D-14,.492125984251968D0,                          267P    235
-3.77970604115131D-77,1.45897422389524D-14,-9.3503937007874D0,       267P    236
-3.98328303378208D-77;                                               267P    237
110,1.45897422389524D-14,-9.3503937007874D0,                         269P    238
-3.98328303378208D-77,1.08267716535435D0,-9.3503937007874D0,         269P    239
-3.65713105280257D-63;                                               269P    240
100,0.0D0,0.0D0,0.0D0,.393700787401575D0,1.99489295722965D-141,      271P    241
.241510271060508D0,.310922979165098D0;                               271P    242
124,0.0D0,1.0D0,0.0D0,1.08267716535435D0,-1.0D0,0.0D0,0.0D0,         273P    243
-8.95669291338583D0,0.0D0,0.0D0,1.0D0,-3.65713105280257D-63;         273P    244
110,1.39360014452371D0,-9.19820318444965D0,                          275P    245
-4.70738510686127D-63,7.66164018998878D0,-1.12865949237281D0,        275P    246
-2.58799420093411D-62;                                               275P    247
508,7,0,11,25,1,0,0,11,27,1,0,0,11,28,1,0,0,11,29,1,0,0,11,30,1,     277P    248
0,0,11,31,1,0,0,11,24,1,0;                                           277P    249
508,1,0,11,4,1,0;                                                    279P    250
508,1,0,11,8,0,0;                                                    281P    251
508,1,0,11,12,0,0;                                                   283P    252
508,1,0,11,14,0,0;                                                   285P    253
510,261,5,1,277,279,281,283,285;                                     287P    254
116,17.7165354330709D0,.492125984251971D0,-5.98439626822233D-62,     289P    255
0;                                                                   289P    256
123,0.0D0,1.0D0,0.0D0;                                               291P    257
190,289,291,295;                                                     293P    258
123,1.0D0,0.0D0,0.0D0;                                               295P    259
110,1.3987061727561D-14,.492125984251968D0,                          297P    260
-3.77970604115131D-77,1.3987061727561D-14,.492125984251968D0,        297P    261
-.492125984251968D0;                                                 297P    262
508,4,0,11,26,1,0,0,11,20,1,0,0,11,32,0,0,0,11,27,0,0;               299P    263
510,293,1,1,299;                                                     301P    264
116,1.39360014452371D0,-9.19820318444965D0,                          303P    265
-4.70738510686127D-63,0;                                             303P    266
123,.789744367071107D0,-.6134360885043D0,0.0D0;                      305P    267
190,303,305,309;                                                     307P    268
123,-.6134360885043D0,-.789744367071107D0,2.07210075169969D-63;      309P    269
110,1.39360014452371D0,-9.19820318444965D0,                          311P    270
-4.70738510686127D-63,1.39360014452371D0,-9.19820318444965D0,        311P    271
-.492125984251968D0;                                                 311P    272
508,4,0,11,31,0,0,0,11,33,1,0,0,11,16,1,0,0,11,22,0,0;               313P    273
510,307,1,1,313;                                                     315P    274
116,1.08267716535435D0,-8.95669291338583D0,                          317P    275
-3.65713105280257D-63,0;                                             317P    276
123,0.0D0,0.0D0,1.0D0;                                               319P    277
192,317,319,.393700787401575D0,323;                                  321P    278
123,0.0D0,-1.0D0,0.0D0;                                              323P    279
110,1.08267716535435D0,-9.3503937007874D0,-3.65713105280257D-63,     325P    280
1.08267716535435D0,-9.3503937007874D0,-.492125984251968D0;           325P    281
508,4,0,11,30,0,0,0,11,34,1,0,0,11,17,1,0,0,11,33,0,0;               327P    282
510,321,1,1,327;                                                     329P    283
116,1.45897422389524D-14,-9.3503937007874D0,                         331P    284
-3.98328303378208D-77,0;                                             331P    285
123,0.0D0,-1.0D0,0.0D0;                                              333P    286
190,331,333,337;                                                     335P    287
123,-1.0D0,0.0D0,0.0D0;                                              337P    288
110,1.45897422389524D-14,-9.3503937007874D0,                         339P    289
-3.98328303378208D-77,1.45897422389524D-14,-9.3503937007874D0,       339P    290
-.492125984251968D0;                                                 339P    291
508,4,0,11,29,0,0,0,11,35,1,0,0,11,18,1,0,0,11,34,0,0;               341P    292
510,335,1,1,341;                                                     343P    293
116,1.3987061727561D-14,.492125984251968D0,                          345P    294
-3.77970604115131D-77,0;                                             345P    295
123,-1.0D0,0.0D0,0.0D0;                                              347P    296
190,345,347,351;                                                     349P    297
123,0.0D0,1.0D0,0.0D0;                                               351P    298
508,4,0,11,19,1,0,0,11,35,0,0,0,11,28,0,0,0,11,32,1,0;               353P    299
510,349,1,1,353;                                                     355P    300
514,19,25,1,41,1,57,1,77,1,93,1,109,1,129,1,145,1,161,1,181,1,       357P    301
219,1,239,1,255,1,287,1,301,1,315,1,329,1,343,1,355,1;               357P    302
186,357,1,0;                                                         359P    303
314,40.9999996423721D0,40.9999996423721D0,40.9999996423721D0,;       361P    304
S      1G      4D    362P    304                                        T      1
