                                                                        S      1
,,16Hside support.ipt,27HNo Iges File Name specified,22HAutodesk InventoG      1
r 2013,37HAutoDesk Inventor Iges Exporter R2013,32,38,6,99,15,16Hside suG      2
pport.ipt,1.0D0,1,2HIN,1,.08D0,15H20131018.142632,3.93700787401575D-4,  G      3
10000.0D0,8Hemployee,,11,0,,;                                           G      4
     406       1       0       0       1       0       0       000000000D      1
     406       0       0       1       3                               0D      2
     116       2       0       0       0       0       0       000010000D      3
     116       0       0       1       0                               0D      4
     123       3       0       0       0       0       0       000010200D      5
     123       0       0       1       0                               0D      6
     190       4       0       0       0       0       0       000010000D      7
     190       0       0       1       1                               0D      8
     123       5       0       0       0       0       0       000010200D      9
     123       0       0       1       0                               0D     10
     504       6       0       0       0       0       0       000010001D     11
     504       0       0       8       1                               0D     12
     502      14       0       0       0       0       0       000010000D     13
     502       0       0      27       1                               0D     14
     100      41       0       0       0       0      17       000010000D     15
     100       0       0       1       0                               0D     16
     124      42       0       0       0       0       0       000000000D     17
     124       0       0       2       0                               0D     18
     508      44       0       0       0       0       0       000010000D     19
     508       0       0       1       1                               0D     20
     100      45       0       0       0       0      17       000010000D     21
     100       0       0       2       0                               0D     22
     508      47       0       0       0       0       0       000010000D     23
     508       0       0       1       1                               0D     24
     510      48       0       0       0       0       0       000010000D     25
     510       0    -329       1       1                               0D     26
     120      49       0       0       0       0       0       000010000D     27
     120       0       0       1       0                               0D     28
     110      50       0       0       0       0       0       000010000D     29
     110       0       0       2       0                               0D     30
     110      52       0       0       0       0       0       001010000D     31
     110       0       0       2       0                               0D     32
     100      54       0       0       0       0      35       000010000D     33
     100       0       0       2       0                               0D     34
     124      56       0       0       0       0       0       000000000D     35
     124       0       0       2       0                               0D     36
     508      58       0       0       0       0       0       000010000D     37
     508       0       0       1       1                               0D     38
     508      59       0       0       0       0       0       000010000D     39
     508       0       0       1       1                               0D     40
     510      60       0       0       0       0       0       000010000D     41
     510       0    -329       1       1                               0D     42
     120      61       0       0       0       0       0       000010000D     43
     120       0       0       1       0                               0D     44
     110      62       0       0       0       0       0       000010000D     45
     110       0       0       2       0                               0D     46
     110      64       0       0       0       0       0       001010000D     47
     110       0       0       2       0                               0D     48
     100      66       0       0       0       0      51       000010000D     49
     100       0       0       2       0                               0D     50
     124      68       0       0       0       0       0       000000000D     51
     124       0       0       2       0                               0D     52
     508      70       0       0       0       0       0       000010000D     53
     508       0       0       1       1                               0D     54
     508      71       0       0       0       0       0       000010000D     55
     508       0       0       1       1                               0D     56
     510      72       0       0       0       0       0       000010000D     57
     510       0    -329       1       1                               0D     58
     116      73       0       0       0       0       0       000010000D     59
     116       0       0       1       0                               0D     60
     123      74       0       0       0       0       0       000010200D     61
     123       0       0       1       0                               0D     62
     190      75       0       0       0       0       0       000010000D     63
     190       0       0       1       1                               0D     64
     123      76       0       0       0       0       0       000010200D     65
     123       0       0       1       0                               0D     66
     100      77       0       0       0       0      69       000010000D     67
     100       0       0       1       0                               0D     68
     124      78       0       0       0       0       0       000000000D     69
     124       0       0       2       0                               0D     70
     508      80       0       0       0       0       0       000010000D     71
     508       0       0       1       1                               0D     72
     100      81       0       0       0       0      69       000010000D     73
     100       0       0       2       0                               0D     74
     508      83       0       0       0       0       0       000010000D     75
     508       0       0       1       1                               0D     76
     510      84       0       0       0       0       0       000010000D     77
     510       0    -329       1       1                               0D     78
     120      85       0       0       0       0       0       000010000D     79
     120       0       0       1       0                               0D     80
     110      86       0       0       0       0       0       000010000D     81
     110       0       0       2       0                               0D     82
     110      88       0       0       0       0       0       001010000D     83
     110       0       0       2       0                               0D     84
     100      90       0       0       0       0      87       000010000D     85
     100       0       0       2       0                               0D     86
     124      92       0       0       0       0       0       000000000D     87
     124       0       0       2       0                               0D     88
     508      94       0       0       0       0       0       000010000D     89
     508       0       0       1       1                               0D     90
     508      95       0       0       0       0       0       000010000D     91
     508       0       0       1       1                               0D     92
     510      96       0       0       0       0       0       000010000D     93
     510       0    -329       1       1                               0D     94
     120      97       0       0       0       0       0       000010000D     95
     120       0       0       1       0                               0D     96
     110      98       0       0       0       0       0       000010000D     97
     110       0       0       2       0                               0D     98
     110     100       0       0       0       0       0       001010000D     99
     110       0       0       2       0                               0D    100
     100     102       0       0       0       0     103       000010000D    101
     100       0       0       2       0                               0D    102
     124     104       0       0       0       0       0       000000000D    103
     124       0       0       2       0                               0D    104
     508     106       0       0       0       0       0       000010000D    105
     508       0       0       1       1                               0D    106
     508     107       0       0       0       0       0       000010000D    107
     508       0       0       1       1                               0D    108
     510     108       0       0       0       0       0       000010000D    109
     510       0    -329       1       1                               0D    110
     120     109       0       0       0       0       0       000010000D    111
     120       0       0       1       0                               0D    112
     110     110       0       0       0       0       0       000010000D    113
     110       0       0       2       0                               0D    114
     110     112       0       0       0       0       0       001010000D    115
     110       0       0       2       0                               0D    116
     100     114       0       0       0       0     119       000010000D    117
     100       0       0       2       0                               0D    118
     124     116       0       0       0       0       0       000000000D    119
     124       0       0       2       0                               0D    120
     508     118       0       0       0       0       0       000010000D    121
     508       0       0       1       1                               0D    122
     100     119       0       0       0       0     125       000010000D    123
     100       0       0       2       0                               0D    124
     124     121       0       0       0       0       0       000000000D    125
     124       0       0       2       0                               0D    126
     508     123       0       0       0       0       0       000010000D    127
     508       0       0       1       1                               0D    128
     510     124       0       0       0       0       0       000010000D    129
     510       0    -329       1       1                               0D    130
     120     125       0       0       0       0       0       000010000D    131
     120       0       0       1       0                               0D    132
     110     126       0       0       0       0       0       000010000D    133
     110       0       0       2       0                               0D    134
     110     128       0       0       0       0       0       001010000D    135
     110       0       0       2       0                               0D    136
     100     130       0       0       0       0     139       000010000D    137
     100       0       0       2       0                               0D    138
     124     132       0       0       0       0       0       000000000D    139
     124       0       0       2       0                               0D    140
     508     134       0       0       0       0       0       000010000D    141
     508       0       0       1       1                               0D    142
     100     135       0       0       0       0     145       000010000D    143
     100       0       0       2       0                               0D    144
     124     137       0       0       0       0       0       000000000D    145
     124       0       0       2       0                               0D    146
     508     139       0       0       0       0       0       000010000D    147
     508       0       0       1       1                               0D    148
     510     140       0       0       0       0       0       000010000D    149
     510       0    -329       1       1                               0D    150
     116     141       0       0       0       0       0       000010000D    151
     116       0       0       1       0                               0D    152
     123     142       0       0       0       0       0       000010200D    153
     123       0       0       1       0                               0D    154
     190     143       0       0       0       0       0       000010000D    155
     190       0       0       1       1                               0D    156
     123     144       0       0       0       0       0       000010200D    157
     123       0       0       1       0                               0D    158
     100     145       0       0       0       0     161       000010000D    159
     100       0       0       2       0                               0D    160
     124     147       0       0       0       0       0       000000000D    161
     124       0       0       3       0                               0D    162
     110     150       0       0       0       0       0       000010000D    163
     110       0       0       2       0                               0D    164
     110     152       0       0       0       0       0       000010000D    165
     110       0       0       2       0                               0D    166
     110     154       0       0       0       0       0       000010000D    167
     110       0       0       2       0                               0D    168
     110     156       0       0       0       0       0       000010000D    169
     110       0       0       2       0                               0D    170
     100     158       0       0       0       0     173       000010000D    171
     100       0       0       2       0                               0D    172
     124     160       0       0       0       0       0       000000000D    173
     124       0       0       2       0                               0D    174
     110     162       0       0       0       0       0       000010000D    175
     110       0       0       2       0                               0D    176
     508     164       0       0       0       0       0       000010000D    177
     508       0       0       2       1                               0D    178
     508     166       0       0       0       0       0       000010000D    179
     508       0       0       1       1                               0D    180
     508     167       0       0       0       0       0       000010000D    181
     508       0       0       1       1                               0D    182
     508     168       0       0       0       0       0       000010000D    183
     508       0       0       1       1                               0D    184
     508     169       0       0       0       0       0       000010000D    185
     508       0       0       1       1                               0D    186
     510     170       0       0       0       0       0       000010000D    187
     510       0    -329       1       1                               0D    188
     116     171       0       0       0       0       0       000010000D    189
     116       0       0       2       0                               0D    190
     123     173       0       0       0       0       0       000010200D    191
     123       0       0       1       0                               0D    192
     192     174       0       0       0       0       0       000010000D    193
     192       0       0       1       1                               0D    194
     123     175       0       0       0       0       0       000010200D    195
     123       0       0       1       0                               0D    196
     110     176       0       0       0       0       0       000010000D    197
     110       0       0       2       0                               0D    198
     100     178       0       0       0       0     201       000010000D    199
     100       0       0       2       0                               0D    200
     124     180       0       0       0       0       0       000000000D    201
     124       0       0       3       0                               0D    202
     110     183       0       0       0       0       0       000010000D    203
     110       0       0       2       0                               0D    204
     508     185       0       0       0       0       0       000010000D    205
     508       0       0       1       1                               0D    206
     510     186       0       0       0       0       0       000010000D    207
     510       0    -329       1       1                               0D    208
     116     187       0       0       0       0       0       000010000D    209
     116       0       0       2       0                               0D    210
     123     189       0       0       0       0       0       000010200D    211
     123       0       0       1       0                               0D    212
     190     190       0       0       0       0       0       000010000D    213
     190       0       0       1       1                               0D    214
     123     191       0       0       0       0       0       000010200D    215
     123       0       0       1       0                               0D    216
     110     192       0       0       0       0       0       000010000D    217
     110       0       0       2       0                               0D    218
     110     194       0       0       0       0       0       000010000D    219
     110       0       0       2       0                               0D    220
     508     196       0       0       0       0       0       000010000D    221
     508       0       0       1       1                               0D    222
     510     197       0       0       0       0       0       000010000D    223
     510       0    -329       1       1                               0D    224
     116     198       0       0       0       0       0       000010000D    225
     116       0       0       2       0                               0D    226
     123     200       0       0       0       0       0       000010200D    227
     123       0       0       1       0                               0D    228
     190     201       0       0       0       0       0       000010000D    229
     190       0       0       1       1                               0D    230
     123     202       0       0       0       0       0       000010200D    231
     123       0       0       1       0                               0D    232
     110     203       0       0       0       0       0       000010000D    233
     110       0       0       2       0                               0D    234
     100     205       0       0       0       0     237       000010000D    235
     100       0       0       2       0                               0D    236
     124     207       0       0       0       0       0       000000000D    237
     124       0       0       2       0                               0D    238
     110     209       0       0       0       0       0       000010000D    239
     110       0       0       3       0                               0D    240
     110     212       0       0       0       0       0       000010000D    241
     110       0       0       2       0                               0D    242
     110     214       0       0       0       0       0       000010000D    243
     110       0       0       2       0                               0D    244
     508     216       0       0       0       0       0       000010000D    245
     508       0       0       2       1                               0D    246
     508     218       0       0       0       0       0       000010000D    247
     508       0       0       1       1                               0D    248
     508     219       0       0       0       0       0       000010000D    249
     508       0       0       1       1                               0D    250
     508     220       0       0       0       0       0       000010000D    251
     508       0       0       1       1                               0D    252
     508     221       0       0       0       0       0       000010000D    253
     508       0       0       1       1                               0D    254
     510     222       0       0       0       0       0       000010000D    255
     510       0    -329       1       1                               0D    256
     116     223       0       0       0       0       0       000010000D    257
     116       0       0       2       0                               0D    258
     123     225       0       0       0       0       0       000010200D    259
     123       0       0       1       0                               0D    260
     190     226       0       0       0       0       0       000010000D    261
     190       0       0       1       1                               0D    262
     123     227       0       0       0       0       0       000010200D    263
     123       0       0       1       0                               0D    264
     110     228       0       0       0       0       0       000010000D    265
     110       0       0       2       0                               0D    266
     508     230       0       0       0       0       0       000010000D    267
     508       0       0       1       1                               0D    268
     510     231       0       0       0       0       0       000010000D    269
     510       0    -329       1       1                               0D    270
     116     232       0       0       0       0       0       000010000D    271
     116       0       0       2       0                               0D    272
     123     234       0       0       0       0       0       000010200D    273
     123       0       0       1       0                               0D    274
     190     235       0       0       0       0       0       000010000D    275
     190       0       0       1       1                               0D    276
     123     236       0       0       0       0       0       000010200D    277
     123       0       0       1       0                               0D    278
     110     237       0       0       0       0       0       000010000D    279
     110       0       0       2       0                               0D    280
     508     239       0       0       0       0       0       000010000D    281
     508       0       0       1       1                               0D    282
     510     240       0       0       0       0       0       000010000D    283
     510       0    -329       1       1                               0D    284
     116     241       0       0       0       0       0       000010000D    285
     116       0       0       2       0                               0D    286
     123     243       0       0       0       0       0       000010200D    287
     123       0       0       1       0                               0D    288
     192     244       0       0       0       0       0       000010000D    289
     192       0       0       1       1                               0D    290
     123     245       0       0       0       0       0       000010200D    291
     123       0       0       1       0                               0D    292
     110     246       0       0       0       0       0       000010000D    293
     110       0       0       2       0                               0D    294
     508     248       0       0       0       0       0       000010000D    295
     508       0       0       1       1                               0D    296
     510     249       0       0       0       0       0       000010000D    297
     510       0    -329       1       1                               0D    298
     116     250       0       0       0       0       0       000010000D    299
     116       0       0       2       0                               0D    300
     123     252       0       0       0       0       0       000010200D    301
     123       0       0       1       0                               0D    302
     190     253       0       0       0       0       0       000010000D    303
     190       0       0       1       1                               0D    304
     123     254       0       0       0       0       0       000010200D    305
     123       0       0       1       0                               0D    306
     110     255       0       0       0       0       0       000010000D    307
     110       0       0       3       0                               0D    308
     508     258       0       0       0       0       0       000010000D    309
     508       0       0       1       1                               0D    310
     510     259       0       0       0       0       0       000010000D    311
     510       0    -329       1       1                               0D    312
     116     260       0       0       0       0       0       000010000D    313
     116       0       0       2       0                               0D    314
     123     262       0       0       0       0       0       000010200D    315
     123       0       0       1       0                               0D    316
     190     263       0       0       0       0       0       000010000D    317
     190       0       0       1       1                               0D    318
     123     264       0       0       0       0       0       000010200D    319
     123       0       0       1       0                               0D    320
     508     265       0       0       0       0       0       000010000D    321
     508       0       0       1       1                               0D    322
     510     266       0       0       0       0       0       000010000D    323
     510       0    -329       1       1                               0D    324
     514     267       0       0       0       0       0       000010000D    325
     514       0       0       2       1                               0D    326
     186     269       0       0       1       0       0       000000000D    327
     186       0       0       1       0                  Solid1       0D    328
     314     270       0       0       0       0       0       000000000D    329
     314       0       1       1       0                               0D    330
406,2,0,12Hside support;                                               1P      1
116,1.08267716534766D0,-.590551181105913D0,.374125984251969D0,0;       3P      2
123,0.0D0,0.0D0,1.0D0;                                                 5P      3
190,3,5,9;                                                             7P      4
123,1.0D0,0.0D0,0.0D0;                                                 9P      5
504,33,15,13,1,13,1,21,13,2,13,2,33,13,3,13,3,49,13,4,13,4,67,        11P      6
13,5,13,5,73,13,6,13,6,85,13,7,13,7,101,13,8,13,8,117,13,9,13,9,      11P      7
123,13,10,13,10,137,13,11,13,11,143,13,12,13,12,159,13,13,13,14,      11P      8
163,13,14,13,15,165,13,15,13,16,167,13,16,13,17,169,13,17,13,18,      11P      9
171,13,18,13,19,175,13,19,13,13,197,13,20,13,13,199,13,20,13,21,      11P     10
203,13,21,13,14,217,13,21,13,22,219,13,22,13,15,233,13,23,13,20,      11P     11
235,13,24,13,23,239,13,25,13,24,241,13,26,13,25,243,13,22,13,26,      11P     12
265,13,26,13,16,279,13,23,13,19,293,13,24,13,18,307,13,25,13,17;      11P     13
502,26,1.21067716534766D0,-.590551181105913D0,                        13P     14
.374125984251969D0,1.01567716534766D0,-.590551181105913D0,            13P     15
.374125984251968D0,1.21067716534766D0,-.590551181105913D0,            13P     16
.492125984251968D0,1.01567716534766D0,-.590551181105913D0,            13P     17
-2.26316568205795D-64,1.21067716535435D0,-8.95669291338583D0,         13P     18
.374125984251969D0,1.01567716535435D0,-8.95669291338583D0,            13P     19
.374125984251968D0,1.21067716535435D0,-8.95669291338583D0,            13P     20
.492125984251968D0,1.01567716535435D0,-8.95669291338583D0,            13P     21
-2.26316568205795D-64,7.43243528493411D0,-.826771653541951D0,         13P     22
.492125984251968D0,7.43243528493411D0,-.826771653541951D0,            13P     23
2.51057201059394D-62,4.47967937942228D0,-.826771653544294D0,          13P     24
.492125984251968D0,4.47967937942228D0,-.826771653544294D0,            13P     25
1.51317263255689D-62,7.66164018998879D0,-1.12865949237281D0,          13P     26
.492125984251968D0,7.76511245028844D0,-.826771653541561D0,            13P     27
.492125984251968D0,7.76511245028844D0,.492125984251982D0,             13P     28
.492125984251968D0,1.3987061727561D-14,.492125984251968D0,            13P     29
.492125984251968D0,1.45897422389524D-14,-9.3503937007874D0,           13P     30
.492125984251968D0,1.08267716535435D0,-9.3503937007874D0,             13P     31
.492125984251968D0,1.39360014452371D0,-9.19820318444965D0,            13P     32
.492125984251968D0,7.66164018998879D0,-1.12865949237281D0,            13P     33
2.58799420093411D-62,7.76511245028844D0,-.826771653541561D0,          13P     34
2.62294567385279D-62,7.76511245028844D0,.492125984251982D0,           13P     35
2.62294567385279D-62,1.39360014452371D0,-9.19820318444965D0,          13P     36
4.70738510686127D-63,1.08267716535435D0,-9.3503937007874D0,           13P     37
3.65713105280257D-63,1.45897422389524D-14,-9.3503937007874D0,         13P     38
3.98328303378208D-77,1.3987061727561D-14,.492125984251968D0,          13P     39
3.77970604115131D-77;                                                 13P     40
100,0.0D0,0.0D0,0.0D0,.128D0,0.0D0,.128D0,0.0D0;                      15P     41
124,1.0D0,0.0D0,0.0D0,1.08267716534766D0,0.0D0,1.0D0,0.0D0,           17P     42
-.590551181105913D0,0.0D0,0.0D0,1.0D0,.374125984251969D0;             17P     43
508,1,0,11,1,1,0;                                                     19P     44
100,0.0D0,0.0D0,0.0D0,-.067D0,8.20513355428727D-18,-.067D0,           21P     45
8.20513355428727D-18;                                                 21P     46
508,1,0,11,2,0,0;                                                     23P     47
510,7,2,1,19,23;                                                      25P     48
120,31,29,0.0D0,6.28318530717959D0;                                   27P     49
110,1.21067716534766D0,-.590551181105913D0,.368225984251969D0,        29P     50
1.21067716534766D0,-.590551181105913D0,.498025984251969D0;            29P     51
110,1.08267716534766D0,-.590551181105913D0,.368225984251969D0,        31P     52
1.08267716534766D0,-.590551181105913D0,1.36822598425197D0;            31P     53
100,0.0D0,0.0D0,0.0D0,.128D0,-4.42164719888894D-143,.128D0,           33P     54
-4.42164719888894D-143;                                               33P     55
124,1.0D0,0.0D0,0.0D0,1.08267716534766D0,0.0D0,-1.0D0,0.0D0,          35P     56
-.590551181105913D0,0.0D0,0.0D0,-1.0D0,.492125984251968D0;            35P     57
508,1,0,11,3,0,0;                                                     37P     58
508,1,0,11,1,0,0;                                                     39P     59
510,27,2,1,37,39;                                                     41P     60
120,47,45,0.0D0,6.28318530717959D0;                                   43P     61
110,1.14967716534766D0,-.590551181105913D0,-12.0543616955885D0,       45P     62
1.14967716534766D0,-.590551181105913D0,.392832283464566D0;            45P     63
110,1.08267716534766D0,-.590551181105913D0,-12.0543616955885D0,       47P     64
1.08267716534766D0,-.590551181105913D0,-11.0543616955885D0;           47P     65
100,0.0D0,0.0D0,0.0D0,-.067D0,8.20513355428727D-18,-.067D0,           49P     66
8.20513355428727D-18;                                                 49P     67
124,1.0D0,0.0D0,0.0D0,1.08267716534766D0,0.0D0,1.0D0,0.0D0,           51P     68
-.590551181105913D0,0.0D0,0.0D0,1.0D0,0.0D0;                          51P     69
508,1,0,11,4,0,0;                                                     53P     70
508,1,0,11,2,1,0;                                                     55P     71
510,43,2,1,53,55;                                                     57P     72
116,1.08267716535435D0,-8.95669291338583D0,.374125984251969D0,0;      59P     73
123,0.0D0,0.0D0,1.0D0;                                                61P     74
190,59,61,65;                                                         63P     75
123,1.0D0,0.0D0,0.0D0;                                                65P     76
100,0.0D0,0.0D0,0.0D0,.128D0,0.0D0,.128D0,0.0D0;                      67P     77
124,1.0D0,0.0D0,0.0D0,1.08267716535435D0,0.0D0,1.0D0,0.0D0,           69P     78
-8.95669291338583D0,0.0D0,0.0D0,1.0D0,.374125984251969D0;             69P     79
508,1,0,11,5,1,0;                                                     71P     80
100,0.0D0,0.0D0,0.0D0,-.067D0,8.20513355428727D-18,-.067D0,           73P     81
8.20513355428727D-18;                                                 73P     82
508,1,0,11,6,0,0;                                                     75P     83
510,63,2,1,71,75;                                                     77P     84
120,83,81,0.0D0,6.28318530717959D0;                                   79P     85
110,1.21067716535435D0,-8.95669291338583D0,.368225984251969D0,        81P     86
1.21067716535435D0,-8.95669291338583D0,.498025984251969D0;            81P     87
110,1.08267716535435D0,-8.95669291338583D0,.368225984251969D0,        83P     88
1.08267716535435D0,-8.95669291338583D0,1.36822598425197D0;            83P     89
100,0.0D0,0.0D0,0.0D0,.128D0,-4.42164719888894D-143,.128D0,           85P     90
-4.42164719888894D-143;                                               85P     91
124,1.0D0,0.0D0,0.0D0,1.08267716535435D0,0.0D0,-1.0D0,0.0D0,          87P     92
-8.95669291338583D0,0.0D0,0.0D0,-1.0D0,.492125984251968D0;            87P     93
508,1,0,11,7,0,0;                                                     89P     94
508,1,0,11,5,0,0;                                                     91P     95
510,79,2,1,89,91;                                                     93P     96
120,99,97,0.0D0,6.28318530717959D0;                                   95P     97
110,1.14967716535435D0,-8.95669291338583D0,-12.0543616955885D0,       97P     98
1.14967716535435D0,-8.95669291338583D0,.392832283464566D0;            97P     99
110,1.08267716535435D0,-8.95669291338583D0,-12.0543616955885D0,       99P    100
1.08267716535435D0,-8.95669291338583D0,-11.0543616955885D0;           99P    101
100,0.0D0,0.0D0,0.0D0,-.067D0,8.20513355428727D-18,-.067D0,          101P    102
8.20513355428727D-18;                                                101P    103
124,1.0D0,0.0D0,0.0D0,1.08267716535435D0,0.0D0,1.0D0,0.0D0,          103P    104
-8.95669291338583D0,0.0D0,0.0D0,1.0D0,0.0D0;                         103P    105
508,1,0,11,8,0,0;                                                    105P    106
508,1,0,11,6,1,0;                                                    107P    107
510,95,2,1,105,107;                                                  109P    108
120,115,113,0.0D0,6.28318530717959D0;                                111P    109
110,7.11353764713883D0,-.826771653541951D0,-2.46062992125984D-2,     113P    110
7.11353764713883D0,-.826771653541951D0,.516732283464567D0;           113P    111
110,7.27298646603647D0,-.826771653541951D0,-2.46062992125984D-2,     115P    112
7.27298646603647D0,-.826771653541951D0,.975393700787402D0;           115P    113
100,0.0D0,0.0D0,0.0D0,-.159448818897639D0,1.95268485690819D-17,      117P    114
-.159448818897639D0,1.95268485690819D-17;                            117P    115
124,-1.0D0,0.0D0,0.0D0,7.27298646603647D0,0.0D0,1.0D0,0.0D0,         119P    116
-.826771653541951D0,0.0D0,0.0D0,-1.0D0,.492125984251968D0;           119P    117
508,1,0,11,9,0,0;                                                    121P    118
100,0.0D0,0.0D0,0.0D0,-.159448818897639D0,1.95268485690819D-17,      123P    119
-.159448818897639D0,1.95268485690819D-17;                            123P    120
124,-1.0D0,0.0D0,0.0D0,7.27298646603647D0,0.0D0,-1.0D0,0.0D0,        125P    121
-.826771653541951D0,0.0D0,0.0D0,1.0D0,1.40953422574856D-62;          125P    122
508,1,0,11,10,0,0;                                                   127P    123
510,111,2,1,121,127;                                                 129P    124
120,135,133,0.0D0,6.28318530717959D0;                                131P    125
110,4.16078174162701D0,-.826771653544294D0,-2.46062992125984D-2,     133P    126
4.16078174162701D0,-.826771653544294D0,.516732283464567D0;           133P    127
110,4.32023056052464D0,-.826771653544294D0,-2.46062992125984D-2,     135P    128
4.32023056052464D0,-.826771653544294D0,.975393700787402D0;           135P    129
100,0.0D0,0.0D0,0.0D0,-.159448818897639D0,1.95268485690819D-17,      137P    130
-.159448818897639D0,1.95268485690819D-17;                            137P    131
124,-1.0D0,0.0D0,0.0D0,4.32023056052464D0,0.0D0,1.0D0,0.0D0,         139P    132
-.826771653544294D0,0.0D0,0.0D0,-1.0D0,.492125984251968D0;           139P    133
508,1,0,11,11,0,0;                                                   141P    134
100,0.0D0,0.0D0,0.0D0,-.159448818897639D0,1.95268485690819D-17,      143P    135
-.159448818897639D0,1.95268485690819D-17;                            143P    136
124,-1.0D0,0.0D0,0.0D0,4.32023056052464D0,0.0D0,-1.0D0,0.0D0,        145P    137
-.826771653544294D0,0.0D0,0.0D0,1.0D0,1.40953422574856D-62;          145P    138
508,1,0,11,12,0,0;                                                   147P    139
510,131,2,1,141,147;                                                 149P    140
116,4.1728625470884D0,-1.19742934485039D-2,.492125984251968D0,0;     151P    141
123,0.0D0,0.0D0,1.0D0;                                               153P    142
190,151,153,157;                                                     155P    143
123,1.0D0,0.0D0,0.0D0;                                               157P    144
100,0.0D0,0.0D0,0.0D0,-.388653723952078D0,.301887838831164D0,        159P    145
-.492125984251968D0,6.17960755694709D-15;                            159P    146
124,-1.0D0,7.92965693108269D-13,0.0D0,7.27298646603647D0,            161P    147
-7.92965693108269D-13,-1.0D0,0.0D0,-.826771653541951D0,              161P    148
-3.37785922695216D-63,0.0D0,1.0D0,.492125984251968D0;                161P    149
110,7.76511245028844D0,-.826771653541561D0,.492125984251968D0,       163P    150
7.76511245028844D0,.492125984251982D0,.492125984251968D0;            163P    151
110,7.76511245028844D0,.49212598425197D0,.492125984251968D0,         165P    152
1.4210854715202D-14,.492125984251969D0,.492125984251968D0;           165P    153
110,1.3987061727561D-14,.492125984251968D0,.492125984251968D0,       167P    154
1.45897422389524D-14,-9.3503937007874D0,.492125984251968D0;          167P    155
110,1.45897422389524D-14,-9.3503937007874D0,.492125984251968D0,      169P    156
1.08267716535435D0,-9.3503937007874D0,.492125984251968D0;            169P    157
100,0.0D0,0.0D0,0.0D0,.393700787401575D0,1.99489295722965D-141,      171P    158
.241510271060508D0,.310922979165098D0;                               171P    159
124,0.0D0,1.0D0,0.0D0,1.08267716535435D0,-1.0D0,0.0D0,0.0D0,         173P    160
-8.95669291338583D0,0.0D0,0.0D0,1.0D0,.492125984251968D0;            173P    161
110,1.39360014452371D0,-9.19820318444965D0,.492125984251968D0,       175P    162
7.66164018998878D0,-1.12865949237281D0,.492125984251968D0;           175P    163
508,7,0,11,13,1,0,0,11,14,1,0,0,11,15,1,0,0,11,16,1,0,0,11,17,1,     177P    164
0,0,11,18,1,0,0,11,19,1,0;                                           177P    165
508,1,0,11,3,1,0;                                                    179P    166
508,1,0,11,7,1,0;                                                    181P    167
508,1,0,11,9,1,0;                                                    183P    168
508,1,0,11,11,1,0;                                                   185P    169
510,155,5,1,177,179,181,183,185;                                     187P    170
116,7.27298646603647D0,-.826771653541951D0,2.45671244417994D-62,     189P    171
0;                                                                   189P    172
123,0.0D0,0.0D0,1.0D0;                                               191P    173
192,189,191,.492125984251968D0,195;                                  193P    174
123,-1.0D0,-7.92965693108269D-13,0.0D0;                              195P    175
110,7.66164018998879D0,-1.12865949237281D0,2.58799420093411D-62,     197P    176
7.66164018998879D0,-1.12865949237281D0,.492125984251968D0;           197P    177
100,0.0D0,0.0D0,0.0D0,-.388653723952078D0,.301887838831164D0,        199P    178
-.492125984251968D0,6.17960755694709D-15;                            199P    179
124,-1.0D0,7.92965693108269D-13,0.0D0,7.27298646603647D0,            201P    180
-7.92965693108269D-13,-1.0D0,0.0D0,-.826771653541951D0,              201P    181
-3.37785922695216D-63,0.0D0,1.0D0,2.45671244417994D-62;              201P    182
110,7.76511245028844D0,-.826771653541561D0,2.62294567385279D-62,     203P    183
7.76511245028844D0,-.826771653541561D0,.492125984251968D0;           203P    184
508,4,0,11,20,0,0,0,11,21,1,0,0,11,22,1,0,0,11,13,0,0;               205P    185
510,193,1,1,205;                                                     207P    186
116,7.76511245028844D0,-.826771653541561D0,2.62294567385279D-62,     209P    187
0;                                                                   209P    188
123,1.0D0,0.0D0,0.0D0;                                               211P    189
190,209,211,215;                                                     213P    190
123,0.0D0,1.0D0,0.0D0;                                               215P    191
110,7.76511245028844D0,-.826771653541561D0,2.62294567385279D-62,     217P    192
7.76511245028844D0,.492125984251982D0,2.62294567385279D-62;          217P    193
110,7.76511245028844D0,.49212598425197D0,2.62294567385278D-62,       219P    194
7.76511245028844D0,.49212598425197D0,.492125984251968D0;             219P    195
508,4,0,11,23,1,0,0,11,24,1,0,0,11,14,0,0,0,11,22,0,0;               221P    196
510,213,1,1,221;                                                     223P    197
116,6.63041322724535D0,-1.74397022830345D0,2.23966024981563D-62,     225P    198
0;                                                                   225P    199
123,0.0D0,0.0D0,-1.0D0;                                              227P    200
190,225,227,231;                                                     229P    201
123,-1.0D0,0.0D0,0.0D0;                                              231P    202
110,1.39360014452371D0,-9.19820318444965D0,4.70738510686127D-63,     233P    203
7.66164018998878D0,-1.12865949237281D0,2.58799420093411D-62;         233P    204
100,0.0D0,0.0D0,0.0D0,.393700787401575D0,1.99489295722965D-141,      235P    205
.241510271060508D0,.310922979165098D0;                               235P    206
124,0.0D0,1.0D0,0.0D0,1.08267716535435D0,-1.0D0,0.0D0,0.0D0,         237P    207
-8.95669291338583D0,0.0D0,0.0D0,1.0D0,3.65713105280257D-63;          237P    208
110,1.45897422389524D-14,-9.3503937007874D0,                         239P    209
3.98328303378208D-77,1.08267716535435D0,-9.3503937007874D0,          239P    210
3.65713105280257D-63;                                                239P    211
110,1.3987061727561D-14,.492125984251968D0,3.77970604115131D-77,     241P    212
1.45897422389524D-14,-9.3503937007874D0,3.98328303378208D-77;        241P    213
110,7.76511245028844D0,.49212598425197D0,2.62294567385279D-62,       243P    214
1.4210854715202D-14,.492125984251969D0,4.31808427754722D-77;         243P    215
508,7,0,11,23,0,0,0,11,21,0,0,0,11,25,0,0,0,11,26,0,0,0,11,27,0,     245P    216
0,0,11,28,0,0,0,11,29,0,0;                                           245P    217
508,1,0,11,4,1,0;                                                    247P    218
508,1,0,11,8,1,0;                                                    249P    219
508,1,0,11,10,1,0;                                                   251P    220
508,1,0,11,12,1,0;                                                   253P    221
510,229,5,1,245,247,249,251,253;                                     255P    222
116,17.7165354330709D0,.492125984251971D0,5.98439626822233D-62,      257P    223
0;                                                                   257P    224
123,0.0D0,1.0D0,0.0D0;                                               259P    225
190,257,259,263;                                                     261P    226
123,-1.0D0,0.0D0,0.0D0;                                              263P    227
110,1.3987061727561D-14,.492125984251968D0,3.77970604115131D-77,     265P    228
1.3987061727561D-14,.492125984251968D0,.492125984251968D0;           265P    229
508,4,0,11,24,0,0,0,11,29,1,0,0,11,30,1,0,0,11,15,0,0;               267P    230
510,261,1,1,267;                                                     269P    231
116,1.39360014452371D0,-9.19820318444965D0,4.70738510686127D-63,     271P    232
0;                                                                   271P    233
123,.789744367071107D0,-.6134360885043D0,0.0D0;                      273P    234
190,271,273,277;                                                     275P    235
123,.6134360885043D0,.789744367071107D0,2.07210075169969D-63;        277P    236
110,1.39360014452371D0,-9.19820318444965D0,4.70738510686127D-63,     279P    237
1.39360014452371D0,-9.19820318444965D0,.492125984251968D0;           279P    238
508,4,0,11,25,1,0,0,11,20,1,0,0,11,19,0,0,0,11,31,0,0;               281P    239
510,275,1,1,281;                                                     283P    240
116,1.08267716535435D0,-8.95669291338583D0,3.65713105280257D-63,     285P    241
0;                                                                   285P    242
123,0.0D0,0.0D0,1.0D0;                                               287P    243
192,285,287,.393700787401575D0,291;                                  289P    244
123,0.0D0,-1.0D0,0.0D0;                                              291P    245
110,1.08267716535435D0,-9.3503937007874D0,3.65713105280257D-63,      293P    246
1.08267716535435D0,-9.3503937007874D0,.492125984251968D0;            293P    247
508,4,0,11,26,1,0,0,11,31,1,0,0,11,18,0,0,0,11,32,0,0;               295P    248
510,289,1,1,295;                                                     297P    249
116,1.45897422389524D-14,-9.3503937007874D0,                         299P    250
3.98328303378208D-77,0;                                              299P    251
123,0.0D0,-1.0D0,0.0D0;                                              301P    252
190,299,301,305;                                                     303P    253
123,1.0D0,0.0D0,0.0D0;                                               305P    254
110,1.45897422389524D-14,-9.3503937007874D0,                         307P    255
3.98328303378208D-77,1.45897422389524D-14,-9.3503937007874D0,        307P    256
.492125984251968D0;                                                  307P    257
508,4,0,11,27,1,0,0,11,32,1,0,0,11,17,0,0,0,11,33,0,0;               309P    258
510,303,1,1,309;                                                     311P    259
116,1.3987061727561D-14,.492125984251968D0,3.77970604115131D-77,     313P    260
0;                                                                   313P    261
123,-1.0D0,0.0D0,0.0D0;                                              315P    262
190,313,315,319;                                                     317P    263
123,0.0D0,-1.0D0,0.0D0;                                              319P    264
508,4,0,11,16,0,0,0,11,30,0,0,0,11,28,1,0,0,11,33,1,0;               321P    265
510,317,1,1,321;                                                     323P    266
514,17,25,1,41,1,57,1,77,1,93,1,109,1,129,1,149,1,187,1,207,1,       325P    267
223,1,255,1,269,1,283,1,297,1,311,1,323,1;                           325P    268
186,325,1,0;                                                         327P    269
314,40.9999996423721D0,40.9999996423721D0,40.9999996423721D0,;       329P    270
S      1G      4D    330P    270                                        T      1
