                                                                        S      1
,,16Hspool holder.ipt,27HNo Iges File Name specified,22HAutodesk InventoG      1
r 2013,37HAutoDesk Inventor Iges Exporter R2013,32,38,6,99,15,16Hspool hG      2
older.ipt,1.0D0,2,2HMM,1,.08D0,15H20131018.142636,.01D0,10000.0D0,8HemplG      3
oyee,,11,0,,;                                                           G      4
     406       1       0       0       1       0       0       000000000D      1
     406       0       0       1       3                               0D      2
     120       2       0       0       0       0       0       000010000D      3
     120       0       0       1       0                               0D      4
     110       3       0       0       0       0       0       000010000D      5
     110       0       0       2       0                               0D      6
     110       5       0       0       0       0       0       001010000D      7
     110       0       0       2       0                               0D      8
     504       7       0       0       0       0       0       000010001D      9
     504       0       0       4       1                               0D     10
     502      11       0       0       0       0       0       000010000D     11
     502       0       0       8       1                               0D     12
     100      19       0       0       0       0      15       000010000D     13
     100       0       0       2       0                               0D     14
     124      21       0       0       0       0       0       000000000D     15
     124       0       0       2       0                               0D     16
     508      23       0       0       0       0       0       000010000D     17
     508       0       0       1       1                               0D     18
     100      24       0       0       0       0      21       000010000D     19
     100       0       0       2       0                               0D     20
     124      26       0       0       0       0       0       000000000D     21
     124       0       0       2       0                               0D     22
     508      28       0       0       0       0       0       000010000D     23
     508       0       0       1       1                               0D     24
     510      29       0       0       0       0       0       000010000D     25
     510       0    -253       1       1                               0D     26
     116      30       0       0       0       0       0       000010000D     27
     116       0       0       1       0                               0D     28
     123      31       0       0       0       0       0       000010200D     29
     123       0       0       1       0                               0D     30
     190      32       0       0       0       0       0       000010000D     31
     190       0       0       1       1                               0D     32
     123      33       0       0       0       0       0       000010200D     33
     123       0       0       1       0                               0D     34
     508      34       0       0       0       0       0       000010000D     35
     508       0       0       1       1                               0D     36
     100      35       0       0       0       0      39       000010000D     37
     100       0       0       2       0                               0D     38
     124      37       0       0       0       0       0       000000000D     39
     124       0       0       2       0                               0D     40
     508      39       0       0       0       0       0       000010000D     41
     508       0       0       1       1                               0D     42
     510      40       0       0       0       0       0       000010000D     43
     510       0    -253       1       1                               0D     44
     120      41       0       0       0       0       0       000010000D     45
     120       0       0       1       0                               0D     46
     110      42       0       0       0       0       0       000010000D     47
     110       0       0       2       0                               0D     48
     110      44       0       0       0       0       0       001010000D     49
     110       0       0       2       0                               0D     50
     100      46       0       0       0       0      53       000010000D     51
     100       0       0       2       0                               0D     52
     124      48       0       0       0       0       0       000000000D     53
     124       0       0       2       0                               0D     54
     508      50       0       0       0       0       0       000010000D     55
     508       0       0       1       1                               0D     56
     100      51       0       0       0       0      59       000010000D     57
     100       0       0       2       0                               0D     58
     124      53       0       0       0       0       0       000000000D     59
     124       0       0       2       0                               0D     60
     508      55       0       0       0       0       0       000010000D     61
     508       0       0       1       1                               0D     62
     510      56       0       0       0       0       0       000010000D     63
     510       0    -253       1       1                               0D     64
     120      57       0       0       0       0       0       000010000D     65
     120       0       0       1       0                               0D     66
     110      58       0       0       0       0       0       000010000D     67
     110       0       0       2       0                               0D     68
     110      60       0       0       0       0       0       001010000D     69
     110       0       0       2       0                               0D     70
     100      62       0       0       0       0      73       000010000D     71
     100       0       0       2       0                               0D     72
     124      64       0       0       0       0       0       000000000D     73
     124       0       0       2       0                               0D     74
     508      66       0       0       0       0       0       000010000D     75
     508       0       0       1       1                               0D     76
     508      67       0       0       0       0       0       000010000D     77
     508       0       0       1       1                               0D     78
     510      68       0       0       0       0       0       000010000D     79
     510       0    -253       1       1                               0D     80
     120      69       0       0       0       0       0       000010000D     81
     120       0       0       1       0                               0D     82
     110      70       0       0       0       0       0       000010000D     83
     110       0       0       2       0                               0D     84
     110      72       0       0       0       0       0       001010000D     85
     110       0       0       2       0                               0D     86
     508      74       0       0       0       0       0       000010000D     87
     508       0       0       1       1                               0D     88
     100      75       0       0       0       0      91       000010000D     89
     100       0       0       2       0                               0D     90
     124      77       0       0       0       0       0       000000000D     91
     124       0       0       2       0                               0D     92
     508      79       0       0       0       0       0       000010000D     93
     508       0       0       1       1                               0D     94
     510      80       0       0       0       0       0       000010000D     95
     510       0    -253       1       1                               0D     96
     120      81       0       0       0       0       0       000010000D     97
     120       0       0       1       0                               0D     98
     110      82       0       0       0       0       0       000010000D     99
     110       0       0       2       0                               0D    100
     110      84       0       0       0       0       0       001010000D    101
     110       0       0       2       0                               0D    102
     508      86       0       0       0       0       0       000010000D    103
     508       0       0       1       1                               0D    104
     100      87       0       0       0       0     107       000010000D    105
     100       0       0       2       0                               0D    106
     124      89       0       0       0       0       0       000000000D    107
     124       0       0       2       0                               0D    108
     508      91       0       0       0       0       0       000010000D    109
     508       0       0       1       1                               0D    110
     510      92       0       0       0       0       0       000010000D    111
     510       0    -253       1       1                               0D    112
     116      93       0       0       0       0       0       000010000D    113
     116       0       0       1       0                               0D    114
     123      94       0       0       0       0       0       000010200D    115
     123       0       0       1       0                               0D    116
     190      95       0       0       0       0       0       000010000D    117
     190       0       0       1       1                               0D    118
     123      96       0       0       0       0       0       000010200D    119
     123       0       0       1       0                               0D    120
     508      97       0       0       0       0       0       000010000D    121
     508       0       0       1       1                               0D    122
     508      98       0       0       0       0       0       000010000D    123
     508       0       0       1       1                               0D    124
     510      99       0       0       0       0       0       000010000D    125
     510       0    -253       1       1                               0D    126
     116     100       0       0       0       0       0       000010000D    127
     116       0       0       1       0                               0D    128
     123     101       0       0       0       0       0       000010200D    129
     123       0       0       1       0                               0D    130
     194     102       0       0       0       0       0       000010000D    131
     194       0       0       1       1                               0D    132
     123     103       0       0       0       0       0       000010200D    133
     123       0       0       1       0                               0D    134
     100     104       0       0       0       0     137       000010000D    135
     100       0       0       2       0                               0D    136
     124     106       0       0       0       0       0       000000000D    137
     124       0       0       2       0                               0D    138
     508     108       0       0       0       0       0       000010000D    139
     508       0       0       1       1                               0D    140
     100     109       0       0       0       0     143       000010000D    141
     100       0       0       1       0                               0D    142
     124     110       0       0       0       0       0       000000000D    143
     124       0       0       2       0                               0D    144
     508     112       0       0       0       0       0       000010000D    145
     508       0       0       1       1                               0D    146
     510     113       0       0       0       0       0       000010000D    147
     510       0    -253       1       1                               0D    148
     116     114       0       0       0       0       0       000010000D    149
     116       0       0       1       0                               0D    150
     123     115       0       0       0       0       0       000010200D    151
     123       0       0       1       0                               0D    152
     192     116       0       0       0       0       0       000010000D    153
     192       0       0       1       1                               0D    154
     123     117       0       0       0       0       0       000010200D    155
     123       0       0       1       0                               0D    156
     100     118       0       0       0       0     159       000010000D    157
     100       0       0       2       0                               0D    158
     124     120       0       0       0       0       0       000000000D    159
     124       0       0       2       0                               0D    160
     508     122       0       0       0       0       0       000010000D    161
     508       0       0       1       1                               0D    162
     508     123       0       0       0       0       0       000010000D    163
     508       0       0       1       1                               0D    164
     510     124       0       0       0       0       0       000010000D    165
     510       0    -253       1       1                               0D    166
     116     125       0       0       0       0       0       000010000D    167
     116       0       0       1       0                               0D    168
     123     126       0       0       0       0       0       000010200D    169
     123       0       0       1       0                               0D    170
     194     127       0       0       0       0       0       000010000D    171
     194       0       0       1       1                               0D    172
     123     128       0       0       0       0       0       000010200D    173
     123       0       0       1       0                               0D    174
     100     129       0       0       0       0     177       000010000D    175
     100       0       0       1       0                               0D    176
     124     130       0       0       0       0       0       000000000D    177
     124       0       0       2       0                               0D    178
     508     132       0       0       0       0       0       000010000D    179
     508       0       0       1       1                               0D    180
     508     133       0       0       0       0       0       000010000D    181
     508       0       0       1       1                               0D    182
     510     134       0       0       0       0       0       000010000D    183
     510       0    -253       1       1                               0D    184
     116     135       0       0       0       0       0       000010000D    185
     116       0       0       1       0                               0D    186
     123     136       0       0       0       0       0       000010200D    187
     123       0       0       1       0                               0D    188
     192     137       0       0       0       0       0       000010000D    189
     192       0       0       1       1                               0D    190
     123     138       0       0       0       0       0       000010200D    191
     123       0       0       1       0                               0D    192
     508     139       0       0       0       0       0       000010000D    193
     508       0       0       1       1                               0D    194
     100     140       0       0       0       0     197       000010000D    195
     100       0       0       1       0                               0D    196
     124     141       0       0       0       0       0       000000000D    197
     124       0       0       2       0                               0D    198
     508     143       0       0       0       0       0       000010000D    199
     508       0       0       1       1                               0D    200
     510     144       0       0       0       0       0       000010000D    201
     510       0    -253       1       1                               0D    202
     116     145       0       0       0       0       0       000010000D    203
     116       0       0       1       0                               0D    204
     123     146       0       0       0       0       0       000010200D    205
     123       0       0       1       0                               0D    206
     192     147       0       0       0       0       0       000010000D    207
     192       0       0       1       1                               0D    208
     123     148       0       0       0       0       0       000010200D    209
     123       0       0       1       0                               0D    210
     100     149       0       0       0       0     213       000010000D    211
     100       0       0       1       0                               0D    212
     124     150       0       0       0       0       0       000000000D    213
     124       0       0       2       0                               0D    214
     508     152       0       0       0       0       0       000010000D    215
     508       0       0       1       1                               0D    216
     508     153       0       0       0       0       0       000010000D    217
     508       0       0       1       1                               0D    218
     510     154       0       0       0       0       0       000010000D    219
     510       0    -253       1       1                               0D    220
     116     155       0       0       0       0       0       000010000D    221
     116       0       0       1       0                               0D    222
     123     156       0       0       0       0       0       000010200D    223
     123       0       0       1       0                               0D    224
     190     157       0       0       0       0       0       000010000D    225
     190       0       0       1       1                               0D    226
     123     158       0       0       0       0       0       000010200D    227
     123       0       0       1       0                               0D    228
     508     159       0       0       0       0       0       000010000D    229
     508       0       0       1       1                               0D    230
     508     160       0       0       0       0       0       000010000D    231
     508       0       0       1       1                               0D    232
     510     161       0       0       0       0       0       000010000D    233
     510       0    -253       1       1                               0D    234
     116     162       0       0       0       0       0       000010000D    235
     116       0       0       1       0                               0D    236
     123     163       0       0       0       0       0       000010200D    237
     123       0       0       1       0                               0D    238
     190     164       0       0       0       0       0       000010000D    239
     190       0       0       1       1                               0D    240
     123     165       0       0       0       0       0       000010200D    241
     123       0       0       1       0                               0D    242
     508     166       0       0       0       0       0       000010000D    243
     508       0       0       1       1                               0D    244
     508     167       0       0       0       0       0       000010000D    245
     508       0       0       1       1                               0D    246
     510     168       0       0       0       0       0       000010000D    247
     510       0    -253       1       1                               0D    248
     514     169       0       0       0       0       0       000010000D    249
     514       0       0       2       1                               0D    250
     186     171       0       0       1       0       0       000000000D    251
     186       0       0       1       0                  Solid1       0D    252
     314     172       0       0       0       0       0       000000000D    253
     314       0       2       1       0                               0D    254
406,2,0,12Hspool holder;                                               1P      1
120,7,5,0.0D0,6.28318530717959D0;                                      3P      2
110,-18.0D0,76.45D0,1.33226762955019D-14,-18.0D0,22.55D0,              5P      3
3.61872693972416D-15;                                                  5P      4
110,0.0D0,76.45D0,1.33226762955019D-14,0.0D0,75.45D0,                  7P      5
1.33226762955019D-14;                                                  7P      6
504,14,13,11,1,11,1,19,11,2,11,2,37,11,3,11,3,51,11,4,11,4,57,         9P      7
11,5,11,5,71,11,6,11,6,89,11,7,11,7,105,11,8,11,8,135,11,9,11,9,       9P      8
141,11,10,11,10,157,11,11,11,11,175,11,12,11,12,195,11,13,11,13,       9P      9
211,11,14,11,14;                                                       9P     10
502,14,18.0D0,25.0D0,2.29653991542053D-15,18.0D0,74.0D0,              11P     11
1.11183120570366D-14,11.05D0,25.0D0,3.14766944082794D-15,7.55D0,      11P     12
10.5D0,9.65771411275771D-16,11.05D0,7.0D0,2.61348787614584D-15,       11P     13
7.55D0,18.0D0,4.165259324154D-15,11.05D0,1.98039782770974D-15,        11P     14
1.35323471305782D-15,11.05D0,18.0D0,1.88741627773993D-15,             11P     15
2.44929359829471D-15,70.0D0,20.0D0,0.0D0,72.0D0,22.0D0,               11P     16
-2.44929359829471D-15,4.0D0,20.0D0,0.0D0,2.0D0,22.0D0,0.0D0,          11P     17
0.0D0,22.0D0,0.0D0,74.0D0,22.0D0;                                     11P     18
100,0.0D0,0.0D0,0.0D0,-18.0D0,2.20436423846524D-15,-18.0D0,           13P     19
2.20436423846524D-15;                                                 13P     20
124,-1.0D0,0.0D0,0.0D0,0.0D0,0.0D0,0.0D0,-1.0D0,25.0D0,0.0D0,         15P     21
-1.0D0,0.0D0,4.50090415388577D-15;                                    15P     22
508,1,0,9,1,1,0;                                                      17P     23
100,0.0D0,0.0D0,0.0D0,-18.0D0,2.20436423846524D-15,-18.0D0,           19P     24
2.20436423846524D-15;                                                 19P     25
124,-1.0D0,0.0D0,0.0D0,0.0D0,0.0D0,0.0D0,-1.0D0,74.0D0,0.0D0,         21P     26
-1.0D0,0.0D0,1.33226762955019D-14;                                    21P     27
508,1,0,9,2,0,0;                                                      23P     28
510,3,2,1,17,23;                                                      25P     29
116,-1.83697019872103D-16,25.0D0,4.91209786670989D-15,0;              27P     30
123,0.0D0,1.0D0,0.0D0;                                                29P     31
190,27,29,33;                                                         31P     32
123,0.0D0,0.0D0,1.0D0;                                                33P     33
508,1,0,9,1,0,0;                                                      35P     34
100,0.0D0,0.0D0,0.0D0,-11.05D0,1.35323471305783D-15,-11.05D0,         37P     35
1.35323471305783D-15;                                                 37P     36
124,-1.0D0,0.0D0,0.0D0,0.0D0,0.0D0,0.0D0,1.0D0,25.0D0,0.0D0,          39P     37
1.0D0,0.0D0,4.50090415388577D-15;                                     39P     38
508,1,0,9,3,0,0;                                                      41P     39
510,31,2,1,35,41;                                                     43P     40
120,49,47,0.0D0,6.28318530717959D0;                                   45P     41
110,-7.375D0,10.675D0,1.57531645386002D-15,-11.225D0,6.825D0,         47P     42
8.8217721416161D-16;                                                  47P     43
110,0.0D0,10.675D0,1.57531645386002D-15,0.0D0,9.675D0,                49P     44
1.57531645386002D-15;                                                 49P     45
100,0.0D0,0.0D0,0.0D0,-7.55D0,9.24608333356252D-16,-7.55D0,           51P     46
9.24608333356252D-16;                                                 51P     47
124,-1.0D0,0.0D0,0.0D0,0.0D0,0.0D0,0.0D0,1.0D0,10.5D0,0.0D0,          53P     48
1.0D0,0.0D0,1.89037974463202D-15;                                     53P     49
508,1,0,9,4,1,0;                                                      55P     50
100,0.0D0,0.0D0,0.0D0,-11.05D0,1.35323471305783D-15,-11.05D0,         57P     51
1.35323471305783D-15;                                                 57P     52
124,-1.0D0,0.0D0,0.0D0,0.0D0,0.0D0,0.0D0,1.0D0,7.0D0,0.0D0,           59P     53
1.0D0,0.0D0,1.26025316308801D-15;                                     59P     54
508,1,0,9,5,0,0;                                                      61P     55
510,45,2,1,55,61;                                                     63P     56
120,69,67,0.0D0,6.28318530717959D0;                                   65P     57
110,-7.55D0,7.0D0,1.26025316308801D-15,-7.55D0,18.375D0,              67P     58
3.30816455310603D-15;                                                 67P     59
110,0.0D0,7.0D0,1.26025316308801D-15,0.0D0,8.0D0,                     69P     60
1.26025316308801D-15;                                                 69P     61
100,0.0D0,0.0D0,0.0D0,-7.55D0,9.24608333356252D-16,-7.55D0,           71P     62
9.24608333356252D-16;                                                 71P     63
124,-1.0D0,0.0D0,0.0D0,0.0D0,0.0D0,0.0D0,-1.0D0,18.0D0,0.0D0,         73P     64
-1.0D0,0.0D0,3.24065099079775D-15;                                    73P     65
508,1,0,9,6,0,0;                                                      75P     66
508,1,0,9,4,0,0;                                                      77P     67
510,65,2,1,75,77;                                                     79P     68
120,85,83,0.0D0,6.28318530717959D0;                                   81P     69
110,-11.05D0,-.349999999999998D0,-1.02929349302486D-30,-11.05D0,      83P     70
7.35D0,1.38627847939682D-15;                                          83P     71
110,0.0D0,-.349999999999998D0,-1.02929349302486D-30,0.0D0,            85P     72
.650000000000002D0,-1.02929349302486D-30;                             85P     73
508,1,0,9,5,1,0;                                                      87P     74
100,0.0D0,0.0D0,0.0D0,-11.05D0,1.35323471305783D-15,-11.05D0,         89P     75
1.35323471305783D-15;                                                 89P     76
124,-1.0D0,0.0D0,0.0D0,0.0D0,0.0D0,0.0D0,1.0D0,                       91P     77
1.98039782770974D-15,0.0D0,1.0D0,0.0D0,-1.02929349302486D-30;         91P     78
508,1,0,9,7,0,0;                                                      93P     79
510,81,2,1,87,93;                                                     95P     80
120,101,99,0.0D0,6.28318530717959D0;                                  97P     81
110,-11.05D0,74.0D0,1.33226762955019D-14,-11.05D0,17.65D0,            99P     82
3.17763833264335D-15;                                                 99P     83
110,0.0D0,74.0D0,1.33226762955019D-14,0.0D0,73.0D0,                  101P     84
1.33226762955019D-14;                                                101P     85
508,1,0,9,3,1,0;                                                     103P     86
100,0.0D0,0.0D0,0.0D0,-11.05D0,1.35323471305783D-15,-11.05D0,        105P     87
1.35323471305783D-15;                                                105P     88
124,-1.0D0,0.0D0,0.0D0,0.0D0,0.0D0,0.0D0,-1.0D0,18.0D0,0.0D0,        107P     89
-1.0D0,0.0D0,3.24065099079775D-15;                                   107P     90
508,1,0,9,8,1,0;                                                     109P     91
510,97,2,1,103,109;                                                  111P     92
116,-4.47678465794082D-16,18.0D0,3.35786910802816D-15,0;             113P     93
123,0.0D0,1.0D0,0.0D0;                                               115P     94
190,113,115,119;                                                     117P     95
123,0.0D0,0.0D0,1.0D0;                                               119P     96
508,1,0,9,8,0,0;                                                     121P     97
508,1,0,9,6,1,0;                                                     123P     98
510,117,2,1,121,123;                                                 125P     99
116,0.0D0,71.0D0,1.27825677970356D-14,0;                             127P    100
123,0.0D0,1.0D0,1.80036166155431D-16;                                129P    101
194,127,129,21.0D0,45.0D0,133;                                       131P    102
123,0.0D0,0.0D0,-1.0D0;                                              133P    103
100,0.0D0,0.0D0,0.0D0,-20.0D0,2.44929359829471D-15,-20.0D0,          135P    104
2.44929359829471D-15;                                                135P    105
124,0.0D0,-1.0D0,0.0D0,0.0D0,0.0D0,0.0D0,1.0D0,70.0D0,-1.0D0,        137P    106
0.0D0,0.0D0,1.26025316308802D-14;                                    137P    107
508,1,0,9,9,1,0;                                                     139P    108
100,0.0D0,0.0D0,0.0D0,22.0D0,0.0D0,22.0D0,0.0D0;                     141P    109
124,0.0D0,1.0D0,0.0D0,0.0D0,0.0D0,0.0D0,1.0D0,72.0D0,1.0D0,          143P    110
0.0D0,0.0D0,1.2962603963191D-14;                                     143P    111
508,1,0,9,10,0,0;                                                    145P    112
510,131,2,1,139,145;                                                 147P    113
116,0.0D0,37.0D0,6.66133814775094D-15,0;                             149P    114
123,0.0D0,1.0D0,1.80036166155431D-16;                                151P    115
192,149,151,20.0D0,155;                                              153P    116
123,0.0D0,0.0D0,1.0D0;                                               155P    117
100,0.0D0,0.0D0,0.0D0,-20.0D0,2.44929359829471D-15,-20.0D0,          157P    118
2.44929359829471D-15;                                                157P    119
124,0.0D0,1.0D0,0.0D0,0.0D0,0.0D0,0.0D0,-1.0D0,4.0D0,-1.0D0,         159P    120
0.0D0,0.0D0,7.20144664621722D-16;                                    159P    121
508,1,0,9,11,0,0;                                                    161P    122
508,1,0,9,9,0,0;                                                     163P    123
510,153,2,1,161,163;                                                 165P    124
116,0.0D0,3.0D0,5.40108498466291D-16,0;                              167P    125
123,0.0D0,-1.0D0,-1.80036166155431D-16;                              169P    126
194,167,169,21.0D0,45.0000000000001D0,173;                           171P    127
123,0.0D0,0.0D0,-1.0D0;                                              173P    128
100,0.0D0,0.0D0,0.0D0,22.0D0,0.0D0,22.0D0,0.0D0;                     175P    129
124,0.0D0,1.0D0,0.0D0,0.0D0,0.0D0,0.0D0,1.0D0,2.0D0,1.0D0,0.0D0,     177P    130
0.0D0,3.6007233231086D-16;                                           177P    131
508,1,0,9,12,1,0;                                                    179P    132
508,1,0,9,11,1,0;                                                    181P    133
510,171,2,1,179,181;                                                 183P    134
116,0.0D0,1.0D0,1.8003616615543D-16,0;                               185P    135
123,0.0D0,1.0D0,1.80036166155431D-16;                                187P    136
192,185,187,22.0D0,191;                                              189P    137
123,0.0D0,0.0D0,1.0D0;                                               191P    138
508,1,0,9,12,0,0;                                                    193P    139
100,0.0D0,0.0D0,0.0D0,22.0D0,0.0D0,22.0D0,0.0D0;                     195P    140
124,0.0D0,1.0D0,0.0D0,0.0D0,0.0D0,0.0D0,1.0D0,                       197P    141
3.96079565541948D-15,1.0D0,0.0D0,0.0D0,-1.25906579832572D-30;        197P    142
508,1,0,9,13,1,0;                                                    199P    143
510,189,2,1,193,199;                                                 201P    144
116,0.0D0,73.0D0,1.31426401293464D-14,0;                             203P    145
123,0.0D0,1.0D0,1.80036166155431D-16;                                205P    146
192,203,205,22.0D0,209;                                              207P    147
123,0.0D0,0.0D0,1.0D0;                                               209P    148
100,0.0D0,0.0D0,0.0D0,22.0D0,0.0D0,22.0D0,0.0D0;                     211P    149
124,0.0D0,1.0D0,0.0D0,0.0D0,0.0D0,0.0D0,1.0D0,74.0D0,1.0D0,          213P    150
0.0D0,0.0D0,1.33226762955019D-14;                                    213P    151
508,1,0,9,14,0,0;                                                    215P    152
508,1,0,9,10,1,0;                                                    217P    153
510,207,2,1,215,217;                                                 219P    154
116,0.0D0,74.0D0,11.0D0,0;                                           221P    155
123,0.0D0,1.0D0,0.0D0;                                               223P    156
190,221,223,227;                                                     225P    157
123,0.0D0,0.0D0,1.0D0;                                               227P    158
508,1,0,9,14,1,0;                                                    229P    159
508,1,0,9,2,1,0;                                                     231P    160
510,225,2,1,229,231;                                                 233P    161
116,0.0D0,0.0D0,11.0D0,0;                                            235P    162
123,0.0D0,-1.0D0,0.0D0;                                              237P    163
190,235,237,241;                                                     239P    164
123,0.0D0,0.0D0,-1.0D0;                                              241P    165
508,1,0,9,13,0,0;                                                    243P    166
508,1,0,9,7,1,0;                                                     245P    167
510,239,2,1,243,245;                                                 247P    168
514,14,25,1,43,1,63,1,79,1,95,1,111,1,125,1,147,1,165,1,183,1,       249P    169
201,1,219,1,233,1,247,1;                                             249P    170
186,249,1,0;                                                         251P    171
314,81.1764717102051D0,30.9803932905197D0,0.0D0,;                    253P    172
S      1G      4D    254P    172                                        T      1
