                                                                        S      1
,,9Hspool.ipt,27HNo Iges File Name specified,22HAutodesk Inventor 2013, G      1
37HAutoDesk Inventor Iges Exporter R2013,32,38,6,99,15,9Hspool.ipt,     G      2
1.0D0,2,2HMM,1,.08D0,15H20131018.142637,.01D0,10000.0D0,8Hemployee,,11, G      3
0,,;                                                                    G      4
     406       1       0       0       1       0       0       000000000D      1
     406       0       0       1       3                               0D      2
     116       2       0       0       0       0       0       000010000D      3
     116       0       0       1       0                               0D      4
     123       3       0       0       0       0       0       000010200D      5
     123       0       0       1       0                               0D      6
     190       4       0       0       0       0       0       000010000D      7
     190       0       0       1       1                               0D      8
     123       5       0       0       0       0       0       000010200D      9
     123       0       0       1       0                               0D     10
     504       6       0       0       0       0       0       000010001D     11
     504       0       0       2       1                               0D     12
     502       8       0       0       0       0       0       000010000D     13
     502       0       0       5       1                               0D     14
     100      13       0       0       0       0      17       000010000D     15
     100       0       0       2       0                               0D     16
     124      15       0       0       0       0       0       000000000D     17
     124       0       0       2       0                               0D     18
     508      17       0       0       0       0       0       000010000D     19
     508       0       0       1       1                               0D     20
     100      18       0       0       0       0      23       000010000D     21
     100       0       0       2       0                               0D     22
     124      20       0       0       0       0       0       000000000D     23
     124       0       0       2       0                               0D     24
     508      22       0       0       0       0       0       000010000D     25
     508       0       0       1       1                               0D     26
     510      23       0       0       0       0       0       000010000D     27
     510       0    -153       1       1                               0D     28
     116      24       0       0       0       0       0       000010000D     29
     116       0       0       1       0                               0D     30
     123      25       0       0       0       0       0       000010200D     31
     123       0       0       1       0                               0D     32
     192      26       0       0       0       0       0       000010000D     33
     192       0       0       1       1                               0D     34
     123      27       0       0       0       0       0       000010200D     35
     123       0       0       1       0                               0D     36
     100      28       0       0       0       0      39       000010000D     37
     100       0       0       2       0                               0D     38
     124      30       0       0       0       0       0       000000000D     39
     124       0       0       2       0                               0D     40
     508      32       0       0       0       0       0       000010000D     41
     508       0       0       1       1                               0D     42
     508      33       0       0       0       0       0       000010000D     43
     508       0       0       1       1                               0D     44
     510      34       0       0       0       0       0       000010000D     45
     510       0    -153       1       1                               0D     46
     116      35       0       0       0       0       0       000010000D     47
     116       0       0       1       0                               0D     48
     123      36       0       0       0       0       0       000010200D     49
     123       0       0       1       0                               0D     50
     190      37       0       0       0       0       0       000010000D     51
     190       0       0       1       1                               0D     52
     123      38       0       0       0       0       0       000010200D     53
     123       0       0       1       0                               0D     54
     508      39       0       0       0       0       0       000010000D     55
     508       0       0       1       1                               0D     56
     100      40       0       0       0       0      59       000010000D     57
     100       0       0       2       0                               0D     58
     124      42       0       0       0       0       0       000000000D     59
     124       0       0       2       0                               0D     60
     508      44       0       0       0       0       0       000010000D     61
     508       0       0       1       1                               0D     62
     510      45       0       0       0       0       0       000010000D     63
     510       0    -153       1       1                               0D     64
     116      46       0       0       0       0       0       000010000D     65
     116       0       0       1       0                               0D     66
     123      47       0       0       0       0       0       000010200D     67
     123       0       0       1       0                               0D     68
     192      48       0       0       0       0       0       000010000D     69
     192       0       0       1       1                               0D     70
     123      49       0       0       0       0       0       000010200D     71
     123       0       0       1       0                               0D     72
     508      50       0       0       0       0       0       000010000D     73
     508       0       0       1       1                               0D     74
     100      51       0       0       0       0      77       000010000D     75
     100       0       0       2       0                               0D     76
     124      53       0       0       0       0       0       000000000D     77
     124       0       0       2       0                               0D     78
     508      55       0       0       0       0       0       000010000D     79
     508       0       0       1       1                               0D     80
     510      56       0       0       0       0       0       000010000D     81
     510       0    -153       1       1                               0D     82
     120      57       0       0       0       0       0       000010000D     83
     120       0       0       1       0                               0D     84
     110      58       0       0       0       0       0       000010000D     85
     110       0       0       1       0                               0D     86
     110      59       0       0       0       0       0       001010000D     87
     110       0       0       1       0                               0D     88
     508      60       0       0       0       0       0       000010000D     89
     508       0       0       1       1                               0D     90
     100      61       0       0       0       0      93       000010000D     91
     100       0       0       2       0                               0D     92
     124      63       0       0       0       0       0       000000000D     93
     124       0       0       2       0                               0D     94
     508      65       0       0       0       0       0       000010000D     95
     508       0       0       1       1                               0D     96
     510      66       0       0       0       0       0       000010000D     97
     510       0    -153       1       1                               0D     98
     116      67       0       0       0       0       0       000010000D     99
     116       0       0       1       0                               0D    100
     123      68       0       0       0       0       0       000010200D    101
     123       0       0       1       0                               0D    102
     192      69       0       0       0       0       0       000010000D    103
     192       0       0       1       1                               0D    104
     123      70       0       0       0       0       0       000010200D    105
     123       0       0       1       0                               0D    106
     100      71       0       0       0       0     109       000010000D    107
     100       0       0       2       0                               0D    108
     124      73       0       0       0       0       0       000000000D    109
     124       0       0       2       0                               0D    110
     508      75       0       0       0       0       0       000010000D    111
     508       0       0       1       1                               0D    112
     100      76       0       0       0       0     115       000010000D    113
     100       0       0       2       0                               0D    114
     124      78       0       0       0       0       0       000000000D    115
     124       0       0       2       0                               0D    116
     508      80       0       0       0       0       0       000010000D    117
     508       0       0       1       1                               0D    118
     510      81       0       0       0       0       0       000010000D    119
     510       0    -153       1       1                               0D    120
     116      82       0       0       0       0       0       000010000D    121
     116       0       0       1       0                               0D    122
     123      83       0       0       0       0       0       000010200D    123
     123       0       0       1       0                               0D    124
     190      84       0       0       0       0       0       000010000D    125
     190       0       0       1       1                               0D    126
     123      85       0       0       0       0       0       000010200D    127
     123       0       0       1       0                               0D    128
     508      86       0       0       0       0       0       000010000D    129
     508       0       0       1       1                               0D    130
     508      87       0       0       0       0       0       000010000D    131
     508       0       0       1       1                               0D    132
     510      88       0       0       0       0       0       000010000D    133
     510       0    -153       1       1                               0D    134
     116      89       0       0       0       0       0       000010000D    135
     116       0       0       1       0                               0D    136
     123      90       0       0       0       0       0       000010200D    137
     123       0       0       1       0                               0D    138
     190      91       0       0       0       0       0       000010000D    139
     190       0       0       1       1                               0D    140
     123      92       0       0       0       0       0       000010200D    141
     123       0       0       1       0                               0D    142
     508      93       0       0       0       0       0       000010000D    143
     508       0       0       1       1                               0D    144
     508      94       0       0       0       0       0       000010000D    145
     508       0       0       1       1                               0D    146
     510      95       0       0       0       0       0       000010000D    147
     510       0    -153       1       1                               0D    148
     514      96       0       0       0       0       0       000010000D    149
     514       0       0       1       1                               0D    150
     186      97       0       0       1       0       0       000000000D    151
     186       0       0       1       0                  Solid1       0D    152
     314      98       0       0       0       0       0       000000000D    153
     314       0       8       1       0                               0D    154
406,2,0,5Hspool;                                                       1P      1
116,-5.95577686167657D-15,0.0D0,80.0D0,0;                              3P      2
123,0.0D0,0.0D0,-1.0D0;                                                5P      3
190,3,5,9;                                                             7P      4
123,-1.0D0,0.0D0,0.0D0;                                                9P      5
504,8,15,13,1,13,1,21,13,2,13,2,37,13,3,13,3,57,13,4,13,4,75,13,      11P      6
5,13,5,91,13,6,13,6,107,13,7,13,7,113,13,8,13,8;                      11P      7
502,8,95.0D0,1.16341445918999D-14,80.0D0,24.0D0,                      13P      8
2.93915231795365D-15,80.0D0,95.0D0,1.16341445918999D-14,85.0D0,       13P      9
19.0D0,2.32682891837997D-15,85.0D0,24.0D0,2.93915231795365D-15,       13P     10
5.0D0,19.0D0,2.32682891837997D-15,0.0D0,95.0D0,                       13P     11
1.16341445918999D-14,5.0D0,95.0D0,1.16341445918999D-14,0.0D0;         13P     12
100,0.0D0,0.0D0,0.0D0,-95.0D0,1.16341445918999D-14,-95.0D0,           15P     13
1.16341445918999D-14;                                                 15P     14
124,-1.0D0,0.0D0,0.0D0,0.0D0,0.0D0,1.0D0,0.0D0,0.0D0,0.0D0,           17P     15
0.0D0,-1.0D0,80.0D0;                                                  17P     16
508,1,0,11,1,1,0;                                                     19P     17
100,0.0D0,0.0D0,0.0D0,-24.0D0,2.93915231795365D-15,-24.0D0,           21P     18
2.93915231795365D-15;                                                 21P     19
124,-1.0D0,0.0D0,0.0D0,0.0D0,0.0D0,-1.0D0,0.0D0,0.0D0,0.0D0,          23P     20
0.0D0,1.0D0,80.0D0;                                                   23P     21
508,1,0,11,2,1,0;                                                     25P     22
510,7,2,1,19,25;                                                      27P     23
116,0.0D0,0.0D0,80.0D0,0;                                             29P     24
123,0.0D0,0.0D0,1.0D0;                                                31P     25
192,29,31,95.0D0,35;                                                  33P     26
123,-1.0D0,0.0D0,0.0D0;                                               35P     27
100,0.0D0,0.0D0,0.0D0,-95.0D0,1.16341445918999D-14,-95.0D0,           37P     28
1.16341445918999D-14;                                                 37P     29
124,-1.0D0,0.0D0,0.0D0,0.0D0,0.0D0,-1.0D0,0.0D0,0.0D0,0.0D0,          39P     30
0.0D0,1.0D0,85.0D0;                                                   39P     31
508,1,0,11,3,0,0;                                                     41P     32
508,1,0,11,1,0,0;                                                     43P     33
510,33,2,1,41,43;                                                     45P     34
116,-5.95577686167657D-15,0.0D0,85.0D0,0;                             47P     35
123,0.0D0,0.0D0,1.0D0;                                                49P     36
190,47,49,53;                                                         51P     37
123,1.0D0,0.0D0,0.0D0;                                                53P     38
508,1,0,11,3,1,0;                                                     55P     39
100,0.0D0,0.0D0,0.0D0,-19.0D0,2.32682891837997D-15,-19.0D0,           57P     40
2.32682891837997D-15;                                                 57P     41
124,-1.0D0,0.0D0,0.0D0,0.0D0,0.0D0,1.0D0,0.0D0,0.0D0,0.0D0,           59P     42
0.0D0,-1.0D0,85.0D0;                                                  59P     43
508,1,0,11,4,1,0;                                                     61P     44
510,51,2,1,55,61;                                                     63P     45
116,0.0D0,0.0D0,5.0D0,0;                                              65P     46
123,0.0D0,0.0D0,1.0D0;                                                67P     47
192,65,67,24.0D0,71;                                                  69P     48
123,-1.0D0,0.0D0,0.0D0;                                               71P     49
508,1,0,11,2,0,0;                                                     73P     50
100,0.0D0,0.0D0,0.0D0,-24.0D0,2.93915231795365D-15,-24.0D0,           75P     51
2.93915231795365D-15;                                                 75P     52
124,-1.0D0,0.0D0,0.0D0,0.0D0,0.0D0,1.0D0,0.0D0,0.0D0,0.0D0,           77P     53
0.0D0,-1.0D0,5.0D0;                                                   77P     54
508,1,0,11,5,0,0;                                                     79P     55
510,69,2,1,73,79;                                                     81P     56
120,87,85,0.0D0,6.28318530717959D0;                                   83P     57
110,-19.0D0,0.0D0,-4.25D0,-19.0D0,0.0D0,89.25D0;                      85P     58
110,0.0D0,0.0D0,-4.25D0,0.0D0,0.0D0,-3.25D0;                          87P     59
508,1,0,11,4,0,0;                                                     89P     60
100,0.0D0,0.0D0,0.0D0,-19.0D0,2.32682891837997D-15,-19.0D0,           91P     61
2.32682891837997D-15;                                                 91P     62
124,-1.0D0,0.0D0,0.0D0,0.0D0,0.0D0,-1.0D0,0.0D0,0.0D0,0.0D0,          93P     63
0.0D0,1.0D0,0.0D0;                                                    93P     64
508,1,0,11,6,0,0;                                                     95P     65
510,83,2,1,89,95;                                                     97P     66
116,0.0D0,0.0D0,0.0D0,0;                                              99P     67
123,0.0D0,0.0D0,1.0D0;                                               101P     68
192,99,101,95.0D0,105;                                               103P     69
123,-1.0D0,0.0D0,0.0D0;                                              105P     70
100,0.0D0,0.0D0,0.0D0,-95.0D0,1.16341445918999D-14,-95.0D0,          107P     71
1.16341445918999D-14;                                                107P     72
124,-1.0D0,0.0D0,0.0D0,0.0D0,0.0D0,-1.0D0,0.0D0,0.0D0,0.0D0,         109P     73
0.0D0,1.0D0,5.0D0;                                                   109P     74
508,1,0,11,7,0,0;                                                    111P     75
100,0.0D0,0.0D0,0.0D0,-95.0D0,1.16341445918999D-14,-95.0D0,          113P     76
1.16341445918999D-14;                                                113P     77
124,-1.0D0,0.0D0,0.0D0,0.0D0,0.0D0,1.0D0,0.0D0,0.0D0,0.0D0,          115P     78
0.0D0,-1.0D0,0.0D0;                                                  115P     79
508,1,0,11,8,0,0;                                                    117P     80
510,103,2,1,111,117;                                                 119P     81
116,-5.95577686167657D-15,0.0D0,5.0D0,0;                             121P     82
123,0.0D0,0.0D0,1.0D0;                                               123P     83
190,121,123,127;                                                     125P     84
123,1.0D0,0.0D0,0.0D0;                                               127P     85
508,1,0,11,7,1,0;                                                    129P     86
508,1,0,11,5,1,0;                                                    131P     87
510,125,2,1,129,131;                                                 133P     88
116,-5.95577686167657D-15,0.0D0,0.0D0,0;                             135P     89
123,0.0D0,0.0D0,-1.0D0;                                              137P     90
190,135,137,141;                                                     139P     91
123,-1.0D0,0.0D0,0.0D0;                                              141P     92
508,1,0,11,8,1,0;                                                    143P     93
508,1,0,11,6,1,0;                                                    145P     94
510,139,2,1,143,145;                                                 147P     95
514,8,27,1,45,1,63,1,81,1,97,1,119,1,133,1,147,1;                    149P     96
186,149,1,0;                                                         151P     97
314,75.0D0,75.0D0,75.0D0,;                                           153P     98
S      1G      4D    154P     98                                        T      1
