                                                                        S      1
,,20Hstring tensioner.ipt,27HNo Iges File Name specified,22HAutodesk InvG      1
entor 2013,37HAutoDesk Inventor Iges Exporter R2013,32,38,6,99,15,20HstrG      2
ing tensioner.ipt,1.0D0,2,2HMM,1,.08D0,15H20131018.142640,.01D0,        G      3
10000.0D0,8Hemployee,,11,0,,;                                           G      4
     406       1       0       0       1       0       0       000000000D      1
     406       0       0       1       3                               0D      2
     116       2       0       0       0       0       0       000010000D      3
     116       0       0       1       0                               0D      4
     123       3       0       0       0       0       0       000010200D      5
     123       0       0       1       0                               0D      6
     192       4       0       0       0       0       0       000010000D      7
     192       0       0       1       1                               0D      8
     123       5       0       0       0       0       0       000010200D      9
     123       0       0       1       0                               0D     10
     504       6       0       0       0       0       0       000010001D     11
     504       0       0       8       1                               0D     12
     502      14       0       0       0       0       0       000010000D     13
     502       0       0      10       1                               0D     14
     100      24       0       0       0       0      17       000010000D     15
     100       0       0       2       0                               0D     16
     124      26       0       0       0       0       0       000000000D     17
     124       0       0       3       0                               0D     18
     110      29       0       0       0       0       0       000010000D     19
     110       0       0       1       0                               0D     20
     100      30       0       0       0       0      23       000010000D     21
     100       0       0       2       0                               0D     22
     124      32       0       0       0       0       0       000000000D     23
     124       0       0       3       0                               0D     24
     110      35       0       0       0       0       0       000010000D     25
     110       0       0       1       0                               0D     26
     508      36       0       0       0       0       0       000010000D     27
     508       0       0       1       1                               0D     28
     510      37       0       0       0       0       0       000010000D     29
     510       0    -307       1       1                               0D     30
     116      38       0       0       0       0       0       000010000D     31
     116       0       0       1       0                               0D     32
     123      39       0       0       0       0       0       000010200D     33
     123       0       0       1       0                               0D     34
     190      40       0       0       0       0       0       000010000D     35
     190       0       0       1       1                               0D     36
     123      41       0       0       0       0       0       000010200D     37
     123       0       0       1       0                               0D     38
     110      42       0       0       0       0       0       000010000D     39
     110       0       0       1       0                               0D     40
     110      43       0       0       0       0       0       000010000D     41
     110       0       0       1       0                               0D     42
     110      44       0       0       0       0       0       000010000D     43
     110       0       0       1       0                               0D     44
     508      45       0       0       0       0       0       000010000D     45
     508       0       0       1       1                               0D     46
     100      46       0       0       0       0      49       000010000D     47
     100       0       0       1       0                               0D     48
     124      47       0       0       0       0       0       000000000D     49
     124       0       0       2       0                               0D     50
     508      49       0       0       0       0       0       000010000D     51
     508       0       0       1       1                               0D     52
     100      50       0       0       0       0      55       000010000D     53
     100       0       0       1       0                               0D     54
     124      51       0       0       0       0       0       000000000D     55
     124       0       0       2       0                               0D     56
     508      53       0       0       0       0       0       000010000D     57
     508       0       0       1       1                               0D     58
     510      54       0       0       0       0       0       000010000D     59
     510       0    -307       1       1                               0D     60
     116      55       0       0       0       0       0       000010000D     61
     116       0       0       1       0                               0D     62
     123      56       0       0       0       0       0       000010200D     63
     123       0       0       1       0                               0D     64
     190      57       0       0       0       0       0       000010000D     65
     190       0       0       1       1                               0D     66
     123      58       0       0       0       0       0       000010200D     67
     123       0       0       1       0                               0D     68
     110      59       0       0       0       0       0       000010000D     69
     110       0       0       1       0                               0D     70
     100      60       0       0       0       0      73       000010000D     71
     100       0       0       2       0                               0D     72
     124      62       0       0       0       0       0       000000000D     73
     124       0       0       3       0                               0D     74
     110      65       0       0       0       0       0       000010000D     75
     110       0       0       1       0                               0D     76
     100      66       0       0       0       0      79       000010000D     77
     100       0       0       2       0                               0D     78
     124      68       0       0       0       0       0       000000000D     79
     124       0       0       3       0                               0D     80
     110      71       0       0       0       0       0       000010000D     81
     110       0       0       1       0                               0D     82
     100      72       0       0       0       0      85       000010000D     83
     100       0       0       2       0                               0D     84
     124      74       0       0       0       0       0       000000000D     85
     124       0       0       3       0                               0D     86
     508      77       0       0       0       0       0       000010000D     87
     508       0       0       2       1                               0D     88
     510      79       0       0       0       0       0       000010000D     89
     510       0    -307       1       1                               0D     90
     116      80       0       0       0       0       0       000010000D     91
     116       0       0       1       0                               0D     92
     123      81       0       0       0       0       0       000010200D     93
     123       0       0       1       0                               0D     94
     192      82       0       0       0       0       0       000010000D     95
     192       0       0       1       1                               0D     96
     123      83       0       0       0       0       0       000010200D     97
     123       0       0       1       0                               0D     98
     100      84       0       0       0       0     101       000010000D     99
     100       0       0       2       0                               0D    100
     124      86       0       0       0       0       0       000000000D    101
     124       0       0       3       0                               0D    102
     110      89       0       0       0       0       0       000010000D    103
     110       0       0       1       0                               0D    104
     508      90       0       0       0       0       0       000010000D    105
     508       0       0       1       1                               0D    106
     510      91       0       0       0       0       0       000010000D    107
     510       0    -307       1       1                               0D    108
     116      92       0       0       0       0       0       000010000D    109
     116       0       0       1       0                               0D    110
     123      93       0       0       0       0       0       000010200D    111
     123       0       0       1       0                               0D    112
     190      94       0       0       0       0       0       000010000D    113
     190       0       0       1       1                               0D    114
     123      95       0       0       0       0       0       000010200D    115
     123       0       0       1       0                               0D    116
     110      96       0       0       0       0       0       000010000D    117
     110       0       0       1       0                               0D    118
     110      97       0       0       0       0       0       000010000D    119
     110       0       0       1       0                               0D    120
     508      98       0       0       0       0       0       000010000D    121
     508       0       0       1       1                               0D    122
     510      99       0       0       0       0       0       000010000D    123
     510       0    -307       1       1                               0D    124
     116     100       0       0       0       0       0       000010000D    125
     116       0       0       1       0                               0D    126
     123     101       0       0       0       0       0       000010200D    127
     123       0       0       1       0                               0D    128
     192     102       0       0       0       0       0       000010000D    129
     192       0       0       1       1                               0D    130
     123     103       0       0       0       0       0       000010200D    131
     123       0       0       1       0                               0D    132
     100     104       0       0       0       0     135       000010000D    133
     100       0       0       2       0                               0D    134
     124     106       0       0       0       0       0       000000000D    135
     124       0       0       3       0                               0D    136
     110     109       0       0       0       0       0       000010000D    137
     110       0       0       1       0                               0D    138
     110     110       0       0       0       0       0       000010000D    139
     110       0       0       1       0                               0D    140
     508     111       0       0       0       0       0       000010000D    141
     508       0       0       1       1                               0D    142
     510     112       0       0       0       0       0       000010000D    143
     510       0    -307       1       1                               0D    144
     116     113       0       0       0       0       0       000010000D    145
     116       0       0       1       0                               0D    146
     123     114       0       0       0       0       0       000010200D    147
     123       0       0       1       0                               0D    148
     190     115       0       0       0       0       0       000010000D    149
     190       0       0       1       1                               0D    150
     123     116       0       0       0       0       0       000010200D    151
     123       0       0       1       0                               0D    152
     110     117       0       0       0       0       0       000010000D    153
     110       0       0       1       0                               0D    154
     508     118       0       0       0       0       0       000010000D    155
     508       0       0       1       1                               0D    156
     510     119       0       0       0       0       0       000010000D    157
     510       0    -307       1       1                               0D    158
     116     120       0       0       0       0       0       000010000D    159
     116       0       0       1       0                               0D    160
     123     121       0       0       0       0       0       000010200D    161
     123       0       0       1       0                               0D    162
     192     122       0       0       0       0       0       000010000D    163
     192       0       0       1       1                               0D    164
     123     123       0       0       0       0       0       000010200D    165
     123       0       0       1       0                               0D    166
     110     124       0       0       0       0       0       000010000D    167
     110       0       0       1       0                               0D    168
     100     125       0       0       0       0     171       000010000D    169
     100       0       0       2       0                               0D    170
     124     127       0       0       0       0       0       000000000D    171
     124       0       0       3       0                               0D    172
     508     130       0       0       0       0       0       000010000D    173
     508       0       0       1       1                               0D    174
     510     131       0       0       0       0       0       000010000D    175
     510       0    -307       1       1                               0D    176
     116     132       0       0       0       0       0       000010000D    177
     116       0       0       1       0                               0D    178
     123     133       0       0       0       0       0       000010200D    179
     123       0       0       1       0                               0D    180
     190     134       0       0       0       0       0       000010000D    181
     190       0       0       1       1                               0D    182
     123     135       0       0       0       0       0       000010200D    183
     123       0       0       1       0                               0D    184
     110     136       0       0       0       0       0       000010000D    185
     110       0       0       1       0                               0D    186
     508     137       0       0       0       0       0       000010000D    187
     508       0       0       2       1                               0D    188
     510     139       0       0       0       0       0       000010000D    189
     510       0    -307       1       1                               0D    190
     116     140       0       0       0       0       0       000010000D    191
     116       0       0       1       0                               0D    192
     123     141       0       0       0       0       0       000010200D    193
     123       0       0       1       0                               0D    194
     190     142       0       0       0       0       0       000010000D    195
     190       0       0       1       1                               0D    196
     123     143       0       0       0       0       0       000010200D    197
     123       0       0       1       0                               0D    198
     100     144       0       0       0       0     201       000010000D    199
     100       0       0       1       0                               0D    200
     124     145       0       0       0       0       0       000000000D    201
     124       0       0       2       0                               0D    202
     508     147       0       0       0       0       0       000010000D    203
     508       0       0       1       1                               0D    204
     100     148       0       0       0       0     201       000010000D    205
     100       0       0       2       0                               0D    206
     508     150       0       0       0       0       0       000010000D    207
     508       0       0       1       1                               0D    208
     510     151       0       0       0       0       0       000010000D    209
     510       0    -307       1       1                               0D    210
     120     152       0       0       0       0       0       000010000D    211
     120       0       0       1       0                               0D    212
     110     153       0       0       0       0       0       000010000D    213
     110       0       0       1       0                               0D    214
     110     154       0       0       0       0       0       001010000D    215
     110       0       0       1       0                               0D    216
     508     155       0       0       0       0       0       000010000D    217
     508       0       0       1       1                               0D    218
     508     156       0       0       0       0       0       000010000D    219
     508       0       0       1       1                               0D    220
     510     157       0       0       0       0       0       000010000D    221
     510       0    -307       1       1                               0D    222
     120     158       0       0       0       0       0       000010000D    223
     120       0       0       1       0                               0D    224
     110     159       0       0       0       0       0       000010000D    225
     110       0       0       1       0                               0D    226
     110     160       0       0       0       0       0       001010000D    227
     110       0       0       2       0                               0D    228
     100     162       0       0       0       0     231       000010000D    229
     100       0       0       2       0                               0D    230
     124     164       0       0       0       0       0       000000000D    231
     124       0       0       2       0                               0D    232
     508     166       0       0       0       0       0       000010000D    233
     508       0       0       1       1                               0D    234
     508     167       0       0       0       0       0       000010000D    235
     508       0       0       1       1                               0D    236
     510     168       0       0       0       0       0       000010000D    237
     510       0    -307       1       1                               0D    238
     116     169       0       0       0       0       0       000010000D    239
     116       0       0       1       0                               0D    240
     123     170       0       0       0       0       0       000010200D    241
     123       0       0       1       0                               0D    242
     190     171       0       0       0       0       0       000010000D    243
     190       0       0       1       1                               0D    244
     123     172       0       0       0       0       0       000010200D    245
     123       0       0       1       0                               0D    246
     100     173       0       0       0       0     249       000010000D    247
     100       0       0       1       0                               0D    248
     124     174       0       0       0       0       0       000000000D    249
     124       0       0       2       0                               0D    250
     508     176       0       0       0       0       0       000010000D    251
     508       0       0       1       1                               0D    252
     100     177       0       0       0       0     249       000010000D    253
     100       0       0       2       0                               0D    254
     508     179       0       0       0       0       0       000010000D    255
     508       0       0       1       1                               0D    256
     510     180       0       0       0       0       0       000010000D    257
     510       0    -307       1       1                               0D    258
     120     181       0       0       0       0       0       000010000D    259
     120       0       0       1       0                               0D    260
     110     182       0       0       0       0       0       000010000D    261
     110       0       0       2       0                               0D    262
     110     184       0       0       0       0       0       001010000D    263
     110       0       0       2       0                               0D    264
     508     186       0       0       0       0       0       000010000D    265
     508       0       0       1       1                               0D    266
     508     187       0       0       0       0       0       000010000D    267
     508       0       0       1       1                               0D    268
     510     188       0       0       0       0       0       000010000D    269
     510       0    -307       1       1                               0D    270
     120     189       0       0       0       0       0       000010000D    271
     120       0       0       1       0                               0D    272
     110     190       0       0       0       0       0       000010000D    273
     110       0       0       2       0                               0D    274
     110     192       0       0       0       0       0       001010000D    275
     110       0       0       2       0                               0D    276
     100     194       0       0       0       0     279       000010000D    277
     100       0       0       2       0                               0D    278
     124     196       0       0       0       0       0       000000000D    279
     124       0       0       2       0                               0D    280
     508     198       0       0       0       0       0       000010000D    281
     508       0       0       1       1                               0D    282
     508     199       0       0       0       0       0       000010000D    283
     508       0       0       1       1                               0D    284
     510     200       0       0       0       0       0       000010000D    285
     510       0    -307       1       1                               0D    286
     116     201       0       0       0       0       0       000010000D    287
     116       0       0       1       0                               0D    288
     123     202       0       0       0       0       0       000010200D    289
     123       0       0       1       0                               0D    290
     190     203       0       0       0       0       0       000010000D    291
     190       0       0       1       1                               0D    292
     123     204       0       0       0       0       0       000010200D    293
     123       0       0       1       0                               0D    294
     508     205       0       0       0       0       0       000010000D    295
     508       0       0       1       1                               0D    296
     508     206       0       0       0       0       0       000010000D    297
     508       0       0       1       1                               0D    298
     508     207       0       0       0       0       0       000010000D    299
     508       0       0       1       1                               0D    300
     510     208       0       0       0       0       0       000010000D    301
     510       0    -307       1       1                               0D    302
     514     209       0       0       0       0       0       000010000D    303
     514       0       0       2       1                               0D    304
     186     211       0       0       1       0       0       000000000D    305
     186       0       0       1       0                  Solid1       0D    306
     314     212       0       0       0       0       0       000000000D    307
     314       0       2       1       0                               0D    308
406,2,0,16Hstring tensioner;                                           1P      1
116,-6.25D0,-5.0D0,12.0D0,0;                                           3P      2
123,1.0D0,0.0D0,0.0D0;                                                 5P      3
192,3,5,2.0D0,9;                                                       7P      4
123,0.0D0,-.707106781186548D0,.707106781186548D0;                      9P      5
504,32,15,13,1,13,2,19,13,2,13,3,21,13,3,13,4,25,13,4,13,1,39,        11P      6
13,2,13,5,41,13,6,13,5,43,13,6,13,3,47,13,7,13,7,53,13,8,13,8,        11P      7
69,13,9,13,1,71,13,10,13,9,75,13,11,13,10,77,13,12,13,11,81,13,       11P      8
12,13,13,83,13,5,13,13,99,13,14,13,6,103,13,13,13,14,117,13,15,       11P      9
13,12,119,13,15,13,14,133,13,16,13,17,137,13,17,13,10,139,13,9,       11P     10
13,16,153,13,16,13,4,167,13,11,13,18,169,13,18,13,15,185,13,17,       11P     11
13,18,199,13,19,13,19,205,13,20,13,20,229,13,21,13,21,247,13,22,      11P     12
13,22,253,13,23,13,23,277,13,24,13,24;                                11P     13
502,24,12.5D0,-7.0D0,12.0D0,12.5D0,-5.0D0,14.0D0,-12.5D0,-5.0D0,      13P     14
14.0D0,-12.5D0,-7.0D0,12.0D0,12.5D0,5.0D0,14.0D0,-12.5D0,5.0D0,       13P     15
14.0D0,10.75D0,2.81512527324926D-15,14.0D0,-4.25D0,0.0D0,14.0D0,      13P     16
12.5D0,-7.0D0,2.0D0,12.5D0,-5.0D0,0.0D0,12.5D0,5.0D0,0.0D0,           13P     17
12.5D0,7.0D0,2.0D0,12.5D0,7.0D0,12.0D0,-12.5D0,7.0D0,12.0D0,          13P     18
-12.5D0,7.0D0,2.0D0,-12.5D0,-7.0D0,2.0D0,-12.5D0,-5.0D0,0.0D0,        13P     19
-12.5D0,5.0D0,0.0D0,-4.25D0,0.0D0,11.0D0,-9.05D0,                     13P     20
-1.8982025386784D-16,11.0D0,-9.05D0,-1.8982025386784D-16,0.0D0,       13P     21
10.75D0,2.81512527324926D-15,11.0D0,5.95D0,2.62530501938142D-15,      13P     22
11.0D0,5.95D0,2.62530501938142D-15,0.0D0;                             13P     23
100,0.0D0,0.0D0,0.0D0,1.41421356237309D0,-1.4142135623731D0,          15P     24
1.4142135623731D0,1.41421356237309D0;                                 15P     25
124,0.0D0,0.0D0,-1.0D0,12.5D0,-.707106781186548D0,                    17P     26
.707106781186548D0,0.0D0,-5.0D0,.707106781186548D0,                   17P     27
.707106781186548D0,0.0D0,12.0D0;                                      17P     28
110,12.5D0,-5.0D0,14.0D0,-12.5D0,-5.0D0,14.0D0;                       19P     29
100,0.0D0,0.0D0,0.0D0,1.41421356237309D0,-1.4142135623731D0,          21P     30
1.4142135623731D0,1.41421356237309D0;                                 21P     31
124,0.0D0,0.0D0,1.0D0,-12.5D0,-.707106781186548D0,                    23P     32
-.707106781186548D0,0.0D0,-5.0D0,.707106781186548D0,                  23P     33
-.707106781186548D0,0.0D0,12.0D0;                                     23P     34
110,-12.5D0,-7.0D0,12.0D0,12.5D0,-7.0D0,12.0D0;                       25P     35
508,4,0,11,1,1,0,0,11,2,1,0,0,11,3,1,0,0,11,4,1,0;                    27P     36
510,7,1,1,27;                                                         29P     37
116,0.0D0,0.0D0,14.0D0,0;                                             31P     38
123,0.0D0,0.0D0,1.0D0;                                                33P     39
190,31,33,37;                                                         35P     40
123,1.0D0,0.0D0,0.0D0;                                                37P     41
110,12.5D0,-5.0D0,14.0D0,12.5D0,5.0D0,14.0D0;                         39P     42
110,-12.5D0,5.0D0,14.0D0,12.5D0,5.0D0,14.0D0;                         41P     43
110,-12.5D0,5.0D0,14.0D0,-12.5D0,-5.0D0,14.0D0;                       43P     44
508,4,0,11,2,0,0,0,11,5,1,0,0,11,6,0,0,0,11,7,1,0;                    45P     45
100,0.0D0,0.0D0,0.0D0,3.25D0,0.0D0,3.25D0,0.0D0;                      47P     46
124,1.0D0,0.0D0,0.0D0,7.5D0,0.0D0,-1.0D0,0.0D0,                       49P     47
2.81512527324926D-15,0.0D0,0.0D0,-1.0D0,14.0D0;                       49P     48
508,1,0,11,8,1,0;                                                     51P     49
100,0.0D0,0.0D0,0.0D0,3.25D0,0.0D0,3.25D0,0.0D0;                      53P     50
124,1.0D0,0.0D0,0.0D0,-7.5D0,0.0D0,-1.0D0,0.0D0,0.0D0,0.0D0,          55P     51
0.0D0,-1.0D0,14.0D0;                                                  55P     52
508,1,0,11,9,1,0;                                                     57P     53
510,35,3,1,45,51,57;                                                  59P     54
116,12.5D0,-7.0D0,0.0D0,0;                                            61P     55
123,1.0D0,0.0D0,0.0D0;                                                63P     56
190,61,63,67;                                                         65P     57
123,0.0D0,1.0D0,0.0D0;                                                67P     58
110,12.5D0,-7.0D0,2.0D0,12.5D0,-7.0D0,12.0D0;                         69P     59
100,0.0D0,0.0D0,0.0D0,1.41421356237309D0,-1.4142135623731D0,          71P     60
1.4142135623731D0,1.41421356237309D0;                                 71P     61
124,0.0D0,0.0D0,-1.0D0,12.5D0,-.707106781186548D0,                    73P     62
-.707106781186547D0,0.0D0,-5.0D0,-.707106781186547D0,                 73P     63
.707106781186548D0,0.0D0,2.0D0;                                       73P     64
110,12.5D0,5.0D0,0.0D0,12.5D0,-5.0D0,0.0D0;                           75P     65
100,0.0D0,0.0D0,0.0D0,1.4142135623731D0,-1.41421356237309D0,          77P     66
1.41421356237309D0,1.4142135623731D0;                                 77P     67
124,0.0D0,0.0D0,-1.0D0,12.5D0,.707106781186548D0,                     79P     68
-.707106781186547D0,0.0D0,5.0D0,-.707106781186547D0,                  79P     69
-.707106781186548D0,0.0D0,2.0D0;                                      79P     70
110,12.5D0,7.0D0,2.0D0,12.5D0,7.0D0,12.0D0;                           81P     71
100,0.0D0,0.0D0,0.0D0,1.41421356237309D0,-1.4142135623731D0,          83P     72
1.4142135623731D0,1.41421356237309D0;                                 83P     73
124,0.0D0,0.0D0,-1.0D0,12.5D0,.707106781186548D0,                     85P     74
.707106781186548D0,0.0D0,5.0D0,.707106781186548D0,                    85P     75
-.707106781186548D0,0.0D0,12.0D0;                                     85P     76
508,8,0,11,1,0,0,0,11,10,0,0,0,11,11,0,0,0,11,12,0,0,0,11,13,0,       87P     77
0,0,11,14,1,0,0,11,15,0,0,0,11,5,0,0;                                 87P     78
510,65,1,1,87;                                                        89P     79
116,6.25D0,5.0D0,12.0D0,0;                                            91P     80
123,-1.0D0,0.0D0,0.0D0;                                               93P     81
192,91,93,2.0D0,97;                                                   95P     82
123,0.0D0,.707106781186548D0,.707106781186548D0;                      97P     83
100,0.0D0,0.0D0,0.0D0,1.41421356237309D0,-1.4142135623731D0,          99P     84
1.4142135623731D0,1.41421356237309D0;                                 99P     85
124,0.0D0,0.0D0,1.0D0,-12.5D0,.707106781186548D0,                    101P     86
-.707106781186548D0,0.0D0,5.0D0,.707106781186548D0,                  101P     87
.707106781186548D0,0.0D0,12.0D0;                                     101P     88
110,12.5D0,7.0D0,12.0D0,-12.5D0,7.0D0,12.0D0;                        103P     89
508,4,0,11,16,1,0,0,11,6,1,0,0,11,15,1,0,0,11,17,1,0;                105P     90
510,95,1,1,105;                                                      107P     91
116,12.5D0,7.0D0,0.0D0,0;                                            109P     92
123,0.0D0,1.0D0,0.0D0;                                               111P     93
190,109,111,115;                                                     113P     94
123,-1.0D0,0.0D0,0.0D0;                                              115P     95
110,-12.5D0,7.0D0,2.0D0,12.5D0,7.0D0,2.0D0;                          117P     96
110,-12.5D0,7.0D0,2.0D0,-12.5D0,7.0D0,12.0D0;                        119P     97
508,4,0,11,17,0,0,0,11,14,0,0,0,11,18,0,0,0,11,19,1,0;               121P     98
510,113,1,1,121;                                                     123P     99
116,-6.25D0,-5.0D0,2.0D0,0;                                          125P    100
123,-1.0D0,0.0D0,0.0D0;                                              127P    101
192,125,127,2.0D0,131;                                               129P    102
123,0.0D0,-.707106781186548D0,-.707106781186547D0;                   131P    103
100,0.0D0,0.0D0,0.0D0,1.4142135623731D0,-1.41421356237309D0,         133P    104
1.41421356237309D0,1.4142135623731D0;                                133P    105
124,0.0D0,0.0D0,1.0D0,-12.5D0,-.707106781186548D0,                   135P    106
.707106781186547D0,0.0D0,-5.0D0,-.707106781186547D0,                 135P    107
-.707106781186548D0,0.0D0,2.0D0;                                     135P    108
110,-12.5D0,-5.0D0,0.0D0,12.5D0,-5.0D0,0.0D0;                        137P    109
110,12.5D0,-7.0D0,2.0D0,-12.5D0,-7.0D0,2.0D0;                        139P    110
508,4,0,11,20,1,0,0,11,21,1,0,0,11,11,1,0,0,11,22,1,0;               141P    111
510,129,1,1,141;                                                     143P    112
116,-12.5D0,-7.0D0,0.0D0,0;                                          145P    113
123,0.0D0,-1.0D0,0.0D0;                                              147P    114
190,145,147,151;                                                     149P    115
123,1.0D0,0.0D0,0.0D0;                                               151P    116
110,-12.5D0,-7.0D0,2.0D0,-12.5D0,-7.0D0,12.0D0;                      153P    117
508,4,0,11,4,0,0,0,11,23,0,0,0,11,22,0,0,0,11,10,1,0;                155P    118
510,149,1,1,155;                                                     157P    119
116,6.25D0,5.0D0,2.0D0,0;                                            159P    120
123,1.0D0,0.0D0,0.0D0;                                               161P    121
192,159,161,2.0D0,165;                                               163P    122
123,0.0D0,.707106781186548D0,-.707106781186547D0;                    165P    123
110,12.5D0,5.0D0,0.0D0,-12.5D0,5.0D0,0.0D0;                          167P    124
100,0.0D0,0.0D0,0.0D0,1.41421356237309D0,-1.4142135623731D0,         169P    125
1.4142135623731D0,1.41421356237309D0;                                169P    126
124,0.0D0,0.0D0,1.0D0,-12.5D0,.707106781186548D0,                    171P    127
.707106781186547D0,0.0D0,5.0D0,-.707106781186547D0,                  171P    128
.707106781186548D0,0.0D0,2.0D0;                                      171P    129
508,4,0,11,13,1,0,0,11,24,1,0,0,11,25,1,0,0,11,18,1,0;               173P    130
510,163,1,1,173;                                                     175P    131
116,-12.5D0,7.0D0,0.0D0,0;                                           177P    132
123,-1.0D0,0.0D0,0.0D0;                                              179P    133
190,177,179,183;                                                     181P    134
123,0.0D0,-1.0D0,0.0D0;                                              183P    135
110,-12.5D0,-5.0D0,0.0D0,-12.5D0,5.0D0,0.0D0;                        185P    136
508,8,0,11,3,0,0,0,11,7,0,0,0,11,16,0,0,0,11,19,0,0,0,11,25,0,0,     187P    137
0,11,26,0,0,0,11,20,0,0,0,11,23,1,0;                                 187P    138
510,181,1,1,187;                                                     189P    139
116,-7.5D0,0.0D0,11.0D0,0;                                           191P    140
123,0.0D0,0.0D0,1.0D0;                                               193P    141
190,191,193,197;                                                     195P    142
123,1.0D0,0.0D0,0.0D0;                                               197P    143
100,0.0D0,0.0D0,0.0D0,3.25D0,0.0D0,3.25D0,0.0D0;                     199P    144
124,1.0D0,0.0D0,0.0D0,-7.5D0,0.0D0,1.0D0,0.0D0,0.0D0,0.0D0,          201P    145
0.0D0,1.0D0,11.0D0;                                                  201P    146
508,1,0,11,27,1,0;                                                   203P    147
100,0.0D0,0.0D0,0.0D0,-1.55D0,1.8982025386784D-16,-1.55D0,           205P    148
1.8982025386784D-16;                                                 205P    149
508,1,0,11,28,0,0;                                                   207P    150
510,195,2,1,203,207;                                                 209P    151
120,215,213,0.0D0,6.28318530717959D0;                                211P    152
110,-4.25D0,0.0D0,10.85D0,-4.25D0,0.0D0,14.15D0;                     213P    153
110,-7.5D0,0.0D0,10.85D0,-7.5D0,0.0D0,11.85D0;                       215P    154
508,1,0,11,9,0,0;                                                    217P    155
508,1,0,11,27,0,0;                                                   219P    156
510,211,2,1,217,219;                                                 221P    157
120,227,225,0.0D0,6.28318530717959D0;                                223P    158
110,-5.95D0,0.0D0,-17.8904374382039D0,-5.95D0,0.0D0,11.55D0;         225P    159
110,-7.5D0,0.0D0,-17.8904374382039D0,-7.5D0,0.0D0,                   227P    160
-16.8904374382039D0;                                                 227P    161
100,0.0D0,0.0D0,0.0D0,-1.55D0,1.8982025386784D-16,-1.55D0,           229P    162
1.8982025386784D-16;                                                 229P    163
124,1.0D0,0.0D0,0.0D0,-7.5D0,0.0D0,1.0D0,0.0D0,0.0D0,0.0D0,          231P    164
0.0D0,1.0D0,0.0D0;                                                   231P    165
508,1,0,11,29,0,0;                                                   233P    166
508,1,0,11,28,1,0;                                                   235P    167
510,223,2,1,233,235;                                                 237P    168
116,7.5D0,2.81512527324926D-15,11.0D0,0;                             239P    169
123,0.0D0,0.0D0,1.0D0;                                               241P    170
190,239,241,245;                                                     243P    171
123,1.0D0,0.0D0,0.0D0;                                               245P    172
100,0.0D0,0.0D0,0.0D0,3.25D0,0.0D0,3.25D0,0.0D0;                     247P    173
124,1.0D0,0.0D0,0.0D0,7.5D0,0.0D0,1.0D0,0.0D0,                       249P    174
2.81512527324926D-15,0.0D0,0.0D0,1.0D0,11.0D0;                       249P    175
508,1,0,11,30,1,0;                                                   251P    176
100,0.0D0,0.0D0,0.0D0,-1.55D0,1.8982025386784D-16,-1.55D0,           253P    177
1.8982025386784D-16;                                                 253P    178
508,1,0,11,31,0,0;                                                   255P    179
510,243,2,1,251,255;                                                 257P    180
120,263,261,0.0D0,6.28318530717959D0;                                259P    181
110,10.75D0,2.81512527324926D-15,10.85D0,10.75D0,                    261P    182
2.81512527324926D-15,14.15D0;                                        261P    183
110,7.5D0,2.81512527324926D-15,10.85D0,7.5D0,                        263P    184
2.81512527324926D-15,11.85D0;                                        263P    185
508,1,0,11,8,0,0;                                                    265P    186
508,1,0,11,30,0,0;                                                   267P    187
510,259,2,1,265,267;                                                 269P    188
120,275,273,0.0D0,6.28318530717959D0;                                271P    189
110,9.05D0,2.81512527324926D-15,-17.8904374382039D0,9.05D0,          273P    190
2.81512527324926D-15,11.55D0;                                        273P    191
110,7.5D0,2.81512527324926D-15,-17.8904374382039D0,7.5D0,            275P    192
2.81512527324926D-15,-16.8904374382039D0;                            275P    193
100,0.0D0,0.0D0,0.0D0,-1.55D0,1.8982025386784D-16,-1.55D0,           277P    194
1.8982025386784D-16;                                                 277P    195
124,1.0D0,0.0D0,0.0D0,7.5D0,0.0D0,1.0D0,0.0D0,                       279P    196
2.81512527324926D-15,0.0D0,0.0D0,1.0D0,0.0D0;                        279P    197
508,1,0,11,32,0,0;                                                   281P    198
508,1,0,11,31,1,0;                                                   283P    199
510,271,2,1,281,283;                                                 285P    200
116,0.0D0,0.0D0,0.0D0,0;                                             287P    201
123,0.0D0,0.0D0,-1.0D0;                                              289P    202
190,287,289,293;                                                     291P    203
123,-1.0D0,0.0D0,0.0D0;                                              293P    204
508,4,0,11,21,0,0,0,11,26,1,0,0,11,24,0,0,0,11,12,1,0;               295P    205
508,1,0,11,29,1,0;                                                   297P    206
508,1,0,11,32,1,0;                                                   299P    207
510,291,3,1,295,297,299;                                             301P    208
514,16,29,1,59,1,89,1,107,1,123,1,143,1,157,1,175,1,189,1,209,1,     303P    209
221,1,237,1,257,1,269,1,285,1,301,1;                                 303P    210
186,303,1,0;                                                         305P    211
314,81.1764717102051D0,30.9803932905197D0,0.0D0,;                    307P    212
S      1G      4D    308P    212                                        T      1
