                                                                        S      1
,,11Hsupport.ipt,27HNo Iges File Name specified,22HAutodesk Inventor 201G      1
3,37HAutoDesk Inventor Iges Exporter R2013,32,38,6,99,15,11Hsupport.ipt,G      2
1.0D0,1,2HIN,1,.08D0,15H20131018.142642,3.93700787401575D-4,10000.0D0,  G      3
8Hemployee,,11,0,,;                                                     G      4
     406       1       0       0       1       0       0       000000000D      1
     406       0       0       1       3                               0D      2
     120       2       0       0       0       0       0       000010000D      3
     120       0       0       1       0                               0D      4
     110       3       0       0       0       0       0       000010000D      5
     110       0       0       2       0                               0D      6
     110       5       0       0       0       0       0       001010000D      7
     110       0       0       2       0                               0D      8
     504       7       0       0       0       0       0       000010001D      9
     504       0       0       6       1                               0D     10
     502      13       0       0       0       0       0       000010000D     11
     502       0       0      14       1                               0D     12
     100      27       0       0       0       0      15       000010000D     13
     100       0       0       2       0                               0D     14
     124      29       0       0       0       0       0       000000000D     15
     124       0       0       2       0                               0D     16
     508      31       0       0       0       0       0       000010000D     17
     508       0       0       1       1                               0D     18
     100      32       0       0       0       0      21       000010000D     19
     100       0       0       2       0                               0D     20
     124      34       0       0       0       0       0       000000000D     21
     124       0       0       2       0                               0D     22
     508      36       0       0       0       0       0       000010000D     23
     508       0       0       1       1                               0D     24
     510      37       0       0       0       0       0       000010000D     25
     510       0    -195       1       1                               0D     26
     120      38       0       0       0       0       0       000010000D     27
     120       0       0       1       0                               0D     28
     110      39       0       0       0       0       0       000010000D     29
     110       0       0       2       0                               0D     30
     110      41       0       0       0       0       0       001010000D     31
     110       0       0       2       0                               0D     32
     100      43       0       0       0       0      35       000010000D     33
     100       0       0       2       0                               0D     34
     124      45       0       0       0       0       0       000000000D     35
     124       0       0       2       0                               0D     36
     508      47       0       0       0       0       0       000010000D     37
     508       0       0       1       1                               0D     38
     100      48       0       0       0       0      41       000010000D     39
     100       0       0       2       0                               0D     40
     124      50       0       0       0       0       0       000000000D     41
     124       0       0       2       0                               0D     42
     508      52       0       0       0       0       0       000010000D     43
     508       0       0       1       1                               0D     44
     510      53       0       0       0       0       0       000010000D     45
     510       0    -195       1       1                               0D     46
     116      54       0       0       0       0       0       000010000D     47
     116       0       0       2       0                               0D     48
     123      56       0       0       0       0       0       000010200D     49
     123       0       0       1       0                               0D     50
     192      57       0       0       0       0       0       000010000D     51
     192       0       0       1       1                               0D     52
     123      58       0       0       0       0       0       000010200D     53
     123       0       0       1       0                               0D     54
     100      59       0       0       0       0      57       000010000D     55
     100       0       0       2       0                               0D     56
     124      61       0       0       0       0       0       000000000D     57
     124       0       0       2       0                               0D     58
     110      63       0       0       0       0       0       000010000D     59
     110       0       0       2       0                               0D     60
     100      65       0       0       0       0      63       000010000D     61
     100       0       0       2       0                               0D     62
     124      67       0       0       0       0       0       000000000D     63
     124       0       0       2       0                               0D     64
     110      69       0       0       0       0       0       000010000D     65
     110       0       0       2       0                               0D     66
     508      71       0       0       0       0       0       000010000D     67
     508       0       0       1       1                               0D     68
     510      72       0       0       0       0       0       000010000D     69
     510       0    -195       1       1                               0D     70
     116      73       0       0       0       0       0       000010000D     71
     116       0       0       2       0                               0D     72
     123      75       0       0       0       0       0       000010200D     73
     123       0       0       1       0                               0D     74
     190      76       0       0       0       0       0       000010000D     75
     190       0       0       1       1                               0D     76
     123      77       0       0       0       0       0       000010200D     77
     123       0       0       1       0                               0D     78
     110      78       0       0       0       0       0       000010000D     79
     110       0       0       2       0                               0D     80
     110      80       0       0       0       0       0       000010000D     81
     110       0       0       2       0                               0D     82
     110      82       0       0       0       0       0       000010000D     83
     110       0       0       2       0                               0D     84
     508      84       0       0       0       0       0       000010000D     85
     508       0       0       1       1                               0D     86
     510      85       0       0       0       0       0       000010000D     87
     510       0    -195       1       1                               0D     88
     116      86       0       0       0       0       0       000010000D     89
     116       0       0       2       0                               0D     90
     123      88       0       0       0       0       0       000010200D     91
     123       0       0       1       0                               0D     92
     190      89       0       0       0       0       0       000010000D     93
     190       0       0       1       1                               0D     94
     123      90       0       0       0       0       0       000010200D     95
     123       0       0       1       0                               0D     96
     110      91       0       0       0       0       0       000010000D     97
     110       0       0       3       0                               0D     98
     110      94       0       0       0       0       0       000010000D     99
     110       0       0       2       0                               0D    100
     110      96       0       0       0       0       0       000010000D    101
     110       0       0       3       0                               0D    102
     508      99       0       0       0       0       0       000010000D    103
     508       0       0       1       1                               0D    104
     510     100       0       0       0       0       0       000010000D    105
     510       0    -195       1       1                               0D    106
     116     101       0       0       0       0       0       000010000D    107
     116       0       0       1       0                               0D    108
     123     102       0       0       0       0       0       000010200D    109
     123       0       0       1       0                               0D    110
     190     103       0       0       0       0       0       000010000D    111
     190       0       0       1       1                               0D    112
     123     104       0       0       0       0       0       000010200D    113
     123       0       0       1       0                               0D    114
     110     105       0       0       0       0       0       000010000D    115
     110       0       0       2       0                               0D    116
     110     107       0       0       0       0       0       000010000D    117
     110       0       0       2       0                               0D    118
     110     109       0       0       0       0       0       000010000D    119
     110       0       0       2       0                               0D    120
     508     111       0       0       0       0       0       000010000D    121
     508       0       0       1       1                               0D    122
     510     112       0       0       0       0       0       000010000D    123
     510       0    -195       1       1                               0D    124
     116     113       0       0       0       0       0       000010000D    125
     116       0       0       1       0                               0D    126
     123     114       0       0       0       0       0       000010200D    127
     123       0       0       1       0                               0D    128
     190     115       0       0       0       0       0       000010000D    129
     190       0       0       1       1                               0D    130
     123     116       0       0       0       0       0       000010200D    131
     123       0       0       1       0                               0D    132
     110     117       0       0       0       0       0       000010000D    133
     110       0       0       2       0                               0D    134
     110     119       0       0       0       0       0       000010000D    135
     110       0       0       1       0                               0D    136
     110     120       0       0       0       0       0       000010000D    137
     110       0       0       2       0                               0D    138
     508     122       0       0       0       0       0       000010000D    139
     508       0       0       1       1                               0D    140
     510     123       0       0       0       0       0       000010000D    141
     510       0    -195       1       1                               0D    142
     116     124       0       0       0       0       0       000010000D    143
     116       0       0       2       0                               0D    144
     123     126       0       0       0       0       0       000010200D    145
     123       0       0       1       0                               0D    146
     190     127       0       0       0       0       0       000010000D    147
     190       0       0       1       1                               0D    148
     123     128       0       0       0       0       0       000010200D    149
     123       0       0       1       0                               0D    150
     110     129       0       0       0       0       0       000010000D    151
     110       0       0       2       0                               0D    152
     110     131       0       0       0       0       0       000010000D    153
     110       0       0       2       0                               0D    154
     508     133       0       0       0       0       0       000010000D    155
     508       0       0       1       1                               0D    156
     510     134       0       0       0       0       0       000010000D    157
     510       0    -195       1       1                               0D    158
     116     135       0       0       0       0       0       000010000D    159
     116       0       0       1       0                               0D    160
     123     136       0       0       0       0       0       000010200D    161
     123       0       0       1       0                               0D    162
     190     137       0       0       0       0       0       000010000D    163
     190       0       0       1       1                               0D    164
     123     138       0       0       0       0       0       000010200D    165
     123       0       0       1       0                               0D    166
     508     139       0       0       0       0       0       000010000D    167
     508       0       0       2       1                               0D    168
     508     141       0       0       0       0       0       000010000D    169
     508       0       0       1       1                               0D    170
     508     142       0       0       0       0       0       000010000D    171
     508       0       0       1       1                               0D    172
     510     143       0       0       0       0       0       000010000D    173
     510       0    -195       1       1                               0D    174
     116     144       0       0       0       0       0       000010000D    175
     116       0       0       2       0                               0D    176
     123     146       0       0       0       0       0       000010200D    177
     123       0       0       1       0                               0D    178
     190     147       0       0       0       0       0       000010000D    179
     190       0       0       1       1                               0D    180
     123     148       0       0       0       0       0       000010200D    181
     123       0       0       1       0                               0D    182
     508     149       0       0       0       0       0       000010000D    183
     508       0       0       2       1                               0D    184
     508     151       0       0       0       0       0       000010000D    185
     508       0       0       1       1                               0D    186
     508     152       0       0       0       0       0       000010000D    187
     508       0       0       1       1                               0D    188
     510     153       0       0       0       0       0       000010000D    189
     510       0    -195       1       1                               0D    190
     514     154       0       0       0       0       0       000010000D    191
     514       0       0       1       1                               0D    192
     186     155       0       0       1       0       0       000000000D    193
     186       0       0       1       0                  Solid1       0D    194
     314     156       0       0       0       0       0       000000000D    195
     314       0       8       1       0                               0D    196
406,2,0,7Hsupport;                                                     1P      1
120,7,5,0.0D0,6.28318530717959D0;                                      3P      2
110,6.56236220472443D0,-.826771653543306D0,-.025D0,                    5P      3
6.56236220472443D0,-.826771653543306D0,.525D0;                         5P      4
110,6.72181102362207D0,-.826771653543306D0,-.025D0,                    7P      5
6.72181102362207D0,-.826771653543306D0,.975D0;                         7P      6
504,22,13,11,1,11,1,19,11,2,11,2,33,11,3,11,3,39,11,4,11,4,55,         9P      7
11,5,11,6,59,11,6,11,7,61,11,8,11,7,65,11,5,11,8,79,11,9,11,5,         9P      8
81,11,10,11,8,83,11,9,11,10,97,11,11,11,9,99,11,12,11,10,101,11,       9P      9
11,11,12,115,11,13,11,11,117,11,14,11,12,119,11,13,11,14,133,11,       9P     10
15,11,13,135,11,16,11,14,137,11,15,11,16,151,11,6,11,15,153,11,        9P     11
7,11,16;                                                               9P     12
502,16,6.88125984251971D0,-.826771653543306D0,.5D0,                   11P     13
6.88125984251971D0,-.826771653543306D0,1.91241100175822D-93,          11P     14
3.9285039370079D0,-.8267716535433D0,.5D0,3.9285039370079D0,           11P     15
-.8267716535433D0,1.09179341014877D-93,7.1162957106036D0,             11P     16
-1.12099914395346D0,1.97773118879055D-93,7.21393700787404D0,          11P     17
-.826771653543307D0,2.00486725041289D-93,7.21393700787404D0,          11P     18
-.826771653543307D0,.5D0,7.1162957106036D0,-1.12099914395346D0,       11P     19
.5D0,.984251968503939D0,-9.34251968503937D0,2.7353919720315D-94,      11P     20
.984251968503938D0,-9.34251968503937D0,.5D0,                          11P     21
1.80804153417424D-15,-9.34251968503937D0,5.02483353444261D-109,       11P     22
1.3987061727561D-15,-9.34251968503937D0,.5D0,                         11P     23
6.12687297303501D-236,.5D0,-2.20457866592504D-142,0.0D0,.5D0,         11P     24
.5D0,7.21393700787404D0,.5D0,2.00486725041289D-93,                    11P     25
7.21393700787404D0,.5D0,.5D0;                                         11P     26
100,0.0D0,0.0D0,0.0D0,-.159448818897638D0,1.95268485690818D-17,       13P     27
-.159448818897638D0,1.95268485690818D-17;                             13P     28
124,-1.0D0,0.0D0,0.0D0,6.72181102362207D0,0.0D0,1.0D0,0.0D0,          15P     29
-.826771653543306D0,0.0D0,0.0D0,-1.0D0,.5D0;                          15P     30
508,1,0,9,1,0,0;                                                      17P     31
100,0.0D0,0.0D0,0.0D0,-.159448818897638D0,1.95268485690818D-17,       19P     32
-.159448818897638D0,1.95268485690818D-17;                             19P     33
124,-1.0D0,0.0D0,0.0D0,6.72181102362207D0,0.0D0,-1.0D0,0.0D0,         21P     34
-.826771653543306D0,0.0D0,0.0D0,1.0D0,7.38206487039776D-94;           21P     35
508,1,0,9,2,0,0;                                                      23P     36
510,3,2,1,17,23;                                                      25P     37
120,31,29,0.0D0,6.28318530717959D0;                                   27P     38
110,3.60960629921262D0,-.8267716535433D0,-.025D0,                     29P     39
3.60960629921262D0,-.8267716535433D0,.525D0;                          29P     40
110,3.76905511811026D0,-.8267716535433D0,-.025D0,                     31P     41
3.76905511811026D0,-.8267716535433D0,.975D0;                          31P     42
100,0.0D0,0.0D0,0.0D0,-.159448818897638D0,1.95268485690818D-17,       33P     43
-.159448818897638D0,1.95268485690818D-17;                             33P     44
124,-1.0D0,0.0D0,0.0D0,3.76905511811026D0,0.0D0,1.0D0,0.0D0,          35P     45
-.8267716535433D0,0.0D0,0.0D0,-1.0D0,.5D0;                            35P     46
508,1,0,9,3,0,0;                                                      37P     47
100,0.0D0,0.0D0,0.0D0,-.159448818897638D0,1.95268485690818D-17,       39P     48
-.159448818897638D0,1.95268485690818D-17;                             39P     49
124,-1.0D0,0.0D0,0.0D0,3.76905511811026D0,0.0D0,-1.0D0,0.0D0,         41P     50
-.8267716535433D0,0.0D0,0.0D0,1.0D0,7.38206487039776D-94;             41P     51
508,1,0,9,4,0,0;                                                      43P     52
510,27,2,1,37,43;                                                     45P     53
116,6.72181102362207D0,-.826771653543306D0,1.86809765181131D-93,      47P     54
0;                                                                    47P     55
123,0.0D0,0.0D0,1.0D0;                                                49P     56
192,47,49,.492125984251968D0,53;                                      51P     57
123,-1.0D0,0.0D0,0.0D0;                                               53P     58
100,0.0D0,0.0D0,0.0D0,-.394484686981527D0,.294227490410151D0,         55P     59
-.492125984251968D0,2.78815890632282D-16;                             55P     60
124,-1.0D0,0.0D0,0.0D0,6.72181102362207D0,0.0D0,-1.0D0,0.0D0,         57P     61
-.826771653543306D0,0.0D0,0.0D0,1.0D0,1.86809765181131D-93;           57P     62
110,7.21393700787404D0,-.826771653543307D0,2.00486725041289D-93,      59P     63
7.21393700787404D0,-.826771653543307D0,.5D0;                          59P     64
100,0.0D0,0.0D0,0.0D0,-.394484686981527D0,.294227490410151D0,         61P     65
-.492125984251968D0,2.78815890632282D-16;                             61P     66
124,-1.0D0,0.0D0,0.0D0,6.72181102362207D0,0.0D0,-1.0D0,0.0D0,         63P     67
-.826771653543306D0,0.0D0,0.0D0,1.0D0,.5D0;                           63P     68
110,7.1162957106036D0,-1.12099914395346D0,1.97773118879055D-93,       65P     69
7.1162957106036D0,-1.12099914395346D0,.5D0;                           65P     70
508,4,0,9,5,1,0,0,9,6,1,0,0,9,7,0,0,0,9,8,0,0;                        67P     71
510,51,1,1,67;                                                        69P     72
116,.984251968503939D0,-9.34251968503937D0,2.7353919720315D-94,       71P     73
0;                                                                    71P     74
123,.801592883946462D0,-.597870260513427D0,0.0D0;                     73P     75
190,71,73,77;                                                         75P     76
123,.597870260513427D0,.801592883946462D0,1.66157606309961D-94;       77P     77
110,.984251968503939D0,-9.34251968503937D0,2.7353919720315D-94,       79P     78
7.1162957106036D0,-1.12099914395346D0,1.97773118879055D-93;           79P     79
110,.984251968503939D0,-9.34251968503937D0,.5D0,                      81P     80
7.1162957106036D0,-1.12099914395346D0,.5D0;                           81P     81
110,.984251968503939D0,-9.34251968503937D0,2.7353919720315D-94,       83P     82
.984251968503939D0,-9.34251968503937D0,.5D0;                          83P     83
508,4,0,9,9,1,0,0,9,8,1,0,0,9,10,0,0,0,9,11,0,0;                      85P     84
510,75,1,1,85;                                                        87P     85
116,1.80804153417424D-15,-9.34251968503937D0,                         89P     86
5.02483353444261D-109,0;                                              89P     87
123,0.0D0,-1.0D0,0.0D0;                                               91P     88
190,89,91,95;                                                         93P     89
123,1.0D0,0.0D0,0.0D0;                                                95P     90
110,1.80804153417424D-15,-9.34251968503937D0,                         97P     91
5.02483353444261D-109,.984251968503939D0,-9.34251968503937D0,         97P     92
2.7353919720315D-94;                                                  97P     93
110,1.80804153417424D-15,-9.34251968503937D0,.5D0,                    99P     94
.984251968503939D0,-9.34251968503937D0,.5D0;                          99P     95
110,1.80804153417424D-15,-9.34251968503937D0,                        101P     96
5.02483353444261D-109,1.80804153417424D-15,-9.34251968503937D0,      101P     97
.5D0;                                                                101P     98
508,4,0,9,12,1,0,0,9,11,1,0,0,9,13,0,0,0,9,14,0,0;                   103P     99
510,93,1,1,103;                                                      105P    100
116,6.12687297303501D-236,.5D0,-2.20457866592504D-142,0;             107P    101
123,-1.0D0,0.0D0,0.0D0;                                              109P    102
190,107,109,113;                                                     111P    103
123,0.0D0,-1.0D0,0.0D0;                                              113P    104
110,6.12687297303501D-236,.5D0,-2.20457866592504D-142,               115P    105
1.80804153417424D-15,-9.34251968503937D0,5.02483353444261D-109;      115P    106
110,6.12687297303501D-236,.5D0,.5D0,1.80804153417424D-15,            117P    107
-9.34251968503937D0,.5D0;                                            117P    108
110,6.12687297303501D-236,.5D0,-2.20457866592504D-142,               119P    109
6.12687297303501D-236,.5D0,.5D0;                                     119P    110
508,4,0,9,15,1,0,0,9,14,1,0,0,9,16,0,0,0,9,17,0,0;                   121P    111
510,111,1,1,121;                                                     123P    112
116,7.21393700787404D0,.5D0,2.00486725041289D-93,0;                  125P    113
123,0.0D0,1.0D0,0.0D0;                                               127P    114
190,125,127,131;                                                     129P    115
123,-1.0D0,0.0D0,0.0D0;                                              131P    116
110,7.21393700787404D0,.5D0,2.00486725041289D-93,0.0D0,.5D0,         133P    117
-8.51591968001631D-109;                                              133P    118
110,7.21393700787404D0,.5D0,.5D0,0.0D0,.5D0,.5D0;                    135P    119
110,7.21393700787404D0,.5D0,2.00486725041289D-93,                    137P    120
7.21393700787404D0,.5D0,.5D0;                                        137P    121
508,4,0,9,18,1,0,0,9,17,1,0,0,9,19,0,0,0,9,20,0,0;                   139P    122
510,129,1,1,139;                                                     141P    123
116,7.21393700787404D0,-.393700787401574D0,2.00486725041289D-93,     143P    124
0;                                                                   143P    125
123,1.0D0,0.0D0,0.0D0;                                               145P    126
190,143,145,149;                                                     147P    127
123,0.0D0,1.0D0,0.0D0;                                               149P    128
110,7.21393700787404D0,-.826771653543307D0,2.00486725041289D-93,     151P    129
7.21393700787404D0,.5D0,2.00486725041289D-93;                        151P    130
110,7.21393700787404D0,-.826771653543307D0,.5D0,                     153P    131
7.21393700787405D0,.5D0,.5D0;                                        153P    132
508,4,0,9,21,1,0,0,9,20,1,0,0,9,22,0,0,0,9,6,0,0;                    155P    133
510,147,1,1,155;                                                     157P    134
116,2.65622329618693D0,-3.4564926004963D0,.5D0,0;                    159P    135
123,0.0D0,0.0D0,1.0D0;                                               161P    136
190,159,161,165;                                                     163P    137
123,1.0D0,0.0D0,0.0D0;                                               165P    138
508,6,0,9,22,1,0,0,9,19,1,0,0,9,16,1,0,0,9,13,1,0,0,9,10,1,0,0,      167P    139
9,7,1,0;                                                             167P    140
508,1,0,9,1,1,0;                                                     169P    141
508,1,0,9,3,1,0;                                                     171P    142
510,163,3,1,167,169,171;                                             173P    143
116,2.65622329618693D0,-3.4564926004963D0,7.38206487039776D-94,      175P    144
0;                                                                   175P    145
123,0.0D0,0.0D0,-1.0D0;                                              177P    146
190,175,177,181;                                                     179P    147
123,-1.0D0,0.0D0,0.0D0;                                              181P    148
508,6,0,9,21,0,0,0,9,5,0,0,0,9,9,0,0,0,9,12,0,0,0,9,15,0,0,0,9,      183P    149
18,0,0;                                                              183P    150
508,1,0,9,2,1,0;                                                     185P    151
508,1,0,9,4,1,0;                                                     187P    152
510,179,3,1,183,185,187;                                             189P    153
514,10,25,1,45,1,69,1,87,1,105,1,123,1,141,1,157,1,173,1,189,1;      191P    154
186,191,1,0;                                                         193P    155
314,75.0D0,75.0D0,75.0D0,;                                           195P    156
S      1G      4D    196P    156                                        T      1
