                                                                        S      1
,,14Hxy forearm.ipt,27HNo Iges File Name specified,22HAutodesk Inventor G      1
2013,37HAutoDesk Inventor Iges Exporter R2013,32,38,6,99,15,14Hxy forearG      2
m.ipt,1.0D0,2,2HMM,1,.08D0,15H20131018.142646,.01D0,10000.0D0,8HemployeeG      3
,,11,0,,;                                                               G      4
     406       1       0       0       1       0       0       000000000D      1
     406       0       0       1       3                               0D      2
     120       2       0       0       0       0       0       000010000D      3
     120       0       0       1       0                               0D      4
     110       3       0       0       0       0       0       000010000D      5
     110       0       0       1       0                               0D      6
     110       4       0       0       0       0       0       001010000D      7
     110       0       0       1       0                               0D      8
     504       5       0       0       0       0       0       000010001D      9
     504       0       0       9       1                               0D     10
     502      14       0       0       0       0       0       000010000D     11
     502       0       0      16       1                               0D     12
     100      30       0       0       0       0      15       000010000D     13
     100       0       0       2       0                               0D     14
     124      32       0       0       0       0       0       000000000D     15
     124       0       0       2       0                               0D     16
     508      34       0       0       0       0       0       000010000D     17
     508       0       0       1       1                               0D     18
     100      35       0       0       0       0      21       000010000D     19
     100       0       0       2       0                               0D     20
     124      37       0       0       0       0       0       000000000D     21
     124       0       0       2       0                               0D     22
     508      39       0       0       0       0       0       000010000D     23
     508       0       0       1       1                               0D     24
     510      40       0       0       0       0       0       000010000D     25
     510       0    -325       1       1                               0D     26
     116      41       0       0       0       0       0       000010000D     27
     116       0       0       1       0                               0D     28
     123      42       0       0       0       0       0       000010200D     29
     123       0       0       1       0                               0D     30
     192      43       0       0       0       0       0       000010000D     31
     192       0       0       1       1                               0D     32
     123      44       0       0       0       0       0       000010200D     33
     123       0       0       1       0                               0D     34
     110      45       0       0       0       0       0       000010000D     35
     110       0       0       2       0                               0D     36
     100      47       0       0       0       0      39       000010000D     37
     100       0       0       2       0                               0D     38
     124      49       0       0       0       0       0       000000000D     39
     124       0       0       2       0                               0D     40
     110      51       0       0       0       0       0       000010000D     41
     110       0       0       2       0                               0D     42
     100      53       0       0       0       0      45       000010000D     43
     100       0       0       2       0                               0D     44
     124      55       0       0       0       0       0       000000000D     45
     124       0       0       2       0                               0D     46
     508      57       0       0       0       0       0       000010000D     47
     508       0       0       1       1                               0D     48
     510      58       0       0       0       0       0       000010000D     49
     510       0    -325       1       1                               0D     50
     116      59       0       0       0       0       0       000010000D     51
     116       0       0       1       0                               0D     52
     123      60       0       0       0       0       0       000010200D     53
     123       0       0       1       0                               0D     54
     190      61       0       0       0       0       0       000010000D     55
     190       0       0       1       1                               0D     56
     123      62       0       0       0       0       0       000010200D     57
     123       0       0       1       0                               0D     58
     110      63       0       0       0       0       0       000010000D     59
     110       0       0       2       0                               0D     60
     110      65       0       0       0       0       0       000010000D     61
     110       0       0       2       0                               0D     62
     110      67       0       0       0       0       0       000010000D     63
     110       0       0       2       0                               0D     64
     508      69       0       0       0       0       0       000010000D     65
     508       0       0       1       1                               0D     66
     100      70       0       0       0       0      69       000010000D     67
     100       0       0       2       0                               0D     68
     124      72       0       0       0       0       0       000000000D     69
     124       0       0       2       0                               0D     70
     508      74       0       0       0       0       0       000010000D     71
     508       0       0       1       1                               0D     72
     510      75       0       0       0       0       0       000010000D     73
     510       0    -325       1       1                               0D     74
     116      76       0       0       0       0       0       000010000D     75
     116       0       0       1       0                               0D     76
     123      77       0       0       0       0       0       000010200D     77
     123       0       0       1       0                               0D     78
     190      78       0       0       0       0       0       000010000D     79
     190       0       0       1       1                               0D     80
     123      79       0       0       0       0       0       000010200D     81
     123       0       0       1       0                               0D     82
     110      80       0       0       0       0       0       000010000D     83
     110       0       0       1       0                               0D     84
     110      81       0       0       0       0       0       000010000D     85
     110       0       0       1       0                               0D     86
     110      82       0       0       0       0       0       000010000D     87
     110       0       0       1       0                               0D     88
     110      83       0       0       0       0       0       000010000D     89
     110       0       0       2       0                               0D     90
     110      85       0       0       0       0       0       000010000D     91
     110       0       0       1       0                               0D     92
     110      86       0       0       0       0       0       000010000D     93
     110       0       0       2       0                               0D     94
     508      88       0       0       0       0       0       000010000D     95
     508       0       0       2       1                               0D     96
     510      90       0       0       0       0       0       000010000D     97
     510       0    -325       1       1                               0D     98
     120      91       0       0       0       0       0       000010000D     99
     120       0       0       1       0                               0D    100
     110      92       0       0       0       0       0       000010000D    101
     110       0       0       2       0                               0D    102
     110      94       0       0       0       0       0       001010000D    103
     110       0       0       2       0                               0D    104
     100      96       0       0       0       0     107       000010000D    105
     100       0       0       2       0                               0D    106
     124      98       0       0       0       0       0       000000000D    107
     124       0       0       2       0                               0D    108
     508     100       0       0       0       0       0       000010000D    109
     508       0       0       1       1                               0D    110
     508     101       0       0       0       0       0       000010000D    111
     508       0       0       1       1                               0D    112
     510     102       0       0       0       0       0       000010000D    113
     510       0    -325       1       1                               0D    114
     116     103       0       0       0       0       0       000010000D    115
     116       0       0       1       0                               0D    116
     123     104       0       0       0       0       0       000010200D    117
     123       0       0       1       0                               0D    118
     190     105       0       0       0       0       0       000010000D    119
     190       0       0       1       1                               0D    120
     123     106       0       0       0       0       0       000010200D    121
     123       0       0       1       0                               0D    122
     508     107       0       0       0       0       0       000010000D    123
     508       0       0       1       1                               0D    124
     100     108       0       0       0       0     127       000010000D    125
     100       0       0       2       0                               0D    126
     124     110       0       0       0       0       0       000000000D    127
     124       0       0       2       0                               0D    128
     508     112       0       0       0       0       0       000010000D    129
     508       0       0       1       1                               0D    130
     510     113       0       0       0       0       0       000010000D    131
     510       0    -325       1       1                               0D    132
     120     114       0       0       0       0       0       000010000D    133
     120       0       0       1       0                               0D    134
     110     115       0       0       0       0       0       000010000D    135
     110       0       0       2       0                               0D    136
     110     117       0       0       0       0       0       001010000D    137
     110       0       0       2       0                               0D    138
     100     119       0       0       0       0     141       000010000D    139
     100       0       0       2       0                               0D    140
     124     121       0       0       0       0       0       000000000D    141
     124       0       0       2       0                               0D    142
     508     123       0       0       0       0       0       000010000D    143
     508       0       0       1       1                               0D    144
     100     124       0       0       0       0      39       000010000D    145
     100       0       0       2       0                               0D    146
     508     126       0       0       0       0       0       000010000D    147
     508       0       0       1       1                               0D    148
     510     127       0       0       0       0       0       000010000D    149
     510       0    -325       1       1                               0D    150
     116     128       0       0       0       0       0       000010000D    151
     116       0       0       1       0                               0D    152
     123     129       0       0       0       0       0       000010200D    153
     123       0       0       1       0                               0D    154
     190     130       0       0       0       0       0       000010000D    155
     190       0       0       1       1                               0D    156
     123     131       0       0       0       0       0       000010200D    157
     123       0       0       1       0                               0D    158
     508     132       0       0       0       0       0       000010000D    159
     508       0       0       1       1                               0D    160
     100     133       0       0       0       0     163       000010000D    161
     100       0       0       2       0                               0D    162
     124     135       0       0       0       0       0       000000000D    163
     124       0       0       2       0                               0D    164
     508     137       0       0       0       0       0       000010000D    165
     508       0       0       1       1                               0D    166
     510     138       0       0       0       0       0       000010000D    167
     510       0    -325       1       1                               0D    168
     120     139       0       0       0       0       0       000010000D    169
     120       0       0       1       0                               0D    170
     110     140       0       0       0       0       0       000010000D    171
     110       0       0       2       0                               0D    172
     110     142       0       0       0       0       0       001010000D    173
     110       0       0       2       0                               0D    174
     508     144       0       0       0       0       0       000010000D    175
     508       0       0       1       1                               0D    176
     508     145       0       0       0       0       0       000010000D    177
     508       0       0       1       1                               0D    178
     510     146       0       0       0       0       0       000010000D    179
     510       0    -325       1       1                               0D    180
     116     147       0       0       0       0       0       000010000D    181
     116       0       0       1       0                               0D    182
     123     148       0       0       0       0       0       000010200D    183
     123       0       0       1       0                               0D    184
     190     149       0       0       0       0       0       000010000D    185
     190       0       0       1       1                               0D    186
     123     150       0       0       0       0       0       000010200D    187
     123       0       0       1       0                               0D    188
     110     151       0       0       0       0       0       000010000D    189
     110       0       0       1       0                               0D    190
     110     152       0       0       0       0       0       000010000D    191
     110       0       0       1       0                               0D    192
     110     153       0       0       0       0       0       000010000D    193
     110       0       0       1       0                               0D    194
     508     154       0       0       0       0       0       000010000D    195
     508       0       0       1       1                               0D    196
     510     155       0       0       0       0       0       000010000D    197
     510       0    -325       1       1                               0D    198
     116     156       0       0       0       0       0       000010000D    199
     116       0       0       1       0                               0D    200
     123     157       0       0       0       0       0       000010200D    201
     123       0       0       1       0                               0D    202
     190     158       0       0       0       0       0       000010000D    203
     190       0       0       1       1                               0D    204
     123     159       0       0       0       0       0       000010200D    205
     123       0       0       1       0                               0D    206
     110     160       0       0       0       0       0       000010000D    207
     110       0       0       2       0                               0D    208
     110     162       0       0       0       0       0       000010000D    209
     110       0       0       1       0                               0D    210
     110     163       0       0       0       0       0       000010000D    211
     110       0       0       1       0                               0D    212
     110     164       0       0       0       0       0       000010000D    213
     110       0       0       1       0                               0D    214
     110     165       0       0       0       0       0       000010000D    215
     110       0       0       1       0                               0D    216
     508     166       0       0       0       0       0       000010000D    217
     508       0       0       2       1                               0D    218
     510     168       0       0       0       0       0       000010000D    219
     510       0    -325       1       1                               0D    220
     116     169       0       0       0       0       0       000010000D    221
     116       0       0       1       0                               0D    222
     123     170       0       0       0       0       0       000010200D    223
     123       0       0       1       0                               0D    224
     190     171       0       0       0       0       0       000010000D    225
     190       0       0       1       1                               0D    226
     123     172       0       0       0       0       0       000010200D    227
     123       0       0       1       0                               0D    228
     508     173       0       0       0       0       0       000010000D    229
     508       0       0       1       1                               0D    230
     508     174       0       0       0       0       0       000010000D    231
     508       0       0       1       1                               0D    232
     510     175       0       0       0       0       0       000010000D    233
     510       0    -325       1       1                               0D    234
     116     176       0       0       0       0       0       000010000D    235
     116       0       0       1       0                               0D    236
     123     177       0       0       0       0       0       000010200D    237
     123       0       0       1       0                               0D    238
     190     178       0       0       0       0       0       000010000D    239
     190       0       0       1       1                               0D    240
     123     179       0       0       0       0       0       000010200D    241
     123       0       0       1       0                               0D    242
     110     180       0       0       0       0       0       000010000D    243
     110       0       0       2       0                               0D    244
     508     182       0       0       0       0       0       000010000D    245
     508       0       0       1       1                               0D    246
     510     183       0       0       0       0       0       000010000D    247
     510       0    -325       1       1                               0D    248
     116     184       0       0       0       0       0       000010000D    249
     116       0       0       1       0                               0D    250
     123     185       0       0       0       0       0       000010200D    251
     123       0       0       1       0                               0D    252
     190     186       0       0       0       0       0       000010000D    253
     190       0       0       1       1                               0D    254
     123     187       0       0       0       0       0       000010200D    255
     123       0       0       1       0                               0D    256
     100     188       0       0       0       0     259       000010000D    257
     100       0       0       1       0                               0D    258
     124     189       0       0       0       0       0       000000000D    259
     124       0       0       2       0                               0D    260
     508     191       0       0       0       0       0       000010000D    261
     508       0       0       1       1                               0D    262
     508     192       0       0       0       0       0       000010000D    263
     508       0       0       1       1                               0D    264
     100     193       0       0       0       0     267       000010000D    265
     100       0       0       2       0                               0D    266
     124     195       0       0       0       0       0       000000000D    267
     124       0       0       2       0                               0D    268
     508     197       0       0       0       0       0       000010000D    269
     508       0       0       1       1                               0D    270
     510     198       0       0       0       0       0       000010000D    271
     510       0    -325       1       1                               0D    272
     116     199       0       0       0       0       0       000010000D    273
     116       0       0       1       0                               0D    274
     123     200       0       0       0       0       0       000010200D    275
     123       0       0       1       0                               0D    276
     190     201       0       0       0       0       0       000010000D    277
     190       0       0       1       1                               0D    278
     123     202       0       0       0       0       0       000010200D    279
     123       0       0       1       0                               0D    280
     100     203       0       0       0       0     283       000010000D    281
     100       0       0       2       0                               0D    282
     124     205       0       0       0       0       0       000000000D    283
     124       0       0       2       0                               0D    284
     508     207       0       0       0       0       0       000010000D    285
     508       0       0       1       1                               0D    286
     508     208       0       0       0       0       0       000010000D    287
     508       0       0       1       1                               0D    288
     100     209       0       0       0       0     291       000010000D    289
     100       0       0       2       0                               0D    290
     124     211       0       0       0       0       0       000000000D    291
     124       0       0       2       0                               0D    292
     508     213       0       0       0       0       0       000010000D    293
     508       0       0       1       1                               0D    294
     510     214       0       0       0       0       0       000010000D    295
     510       0    -325       1       1                               0D    296
     120     215       0       0       0       0       0       000010000D    297
     120       0       0       1       0                               0D    298
     110     216       0       0       0       0       0       000010000D    299
     110       0       0       1       0                               0D    300
     110     217       0       0       0       0       0       001010000D    301
     110       0       0       1       0                               0D    302
     508     218       0       0       0       0       0       000010000D    303
     508       0       0       1       1                               0D    304
     508     219       0       0       0       0       0       000010000D    305
     508       0       0       1       1                               0D    306
     510     220       0       0       0       0       0       000010000D    307
     510       0    -325       1       1                               0D    308
     116     221       0       0       0       0       0       000010000D    309
     116       0       0       1       0                               0D    310
     123     222       0       0       0       0       0       000010200D    311
     123       0       0       1       0                               0D    312
     192     223       0       0       0       0       0       000010000D    313
     192       0       0       1       1                               0D    314
     123     224       0       0       0       0       0       000010200D    315
     123       0       0       1       0                               0D    316
     508     225       0       0       0       0       0       000010000D    317
     508       0       0       1       1                               0D    318
     510     226       0       0       0       0       0       000010000D    319
     510       0    -325       1       1                               0D    320
     514     227       0       0       0       0       0       000010000D    321
     514       0       0       2       1                               0D    322
     186     229       0       0       1       0       0       000000000D    323
     186       0       0       1       0                  Solid1       0D    324
     314     230       0       0       0       0       0       000000000D    325
     314       0       2       1       0                               0D    326
406,2,0,10Hxy forearm;                                                 1P      1
120,7,5,0.0D0,6.28318530717959D0;                                      3P      2
110,-26.5D0,-1.25D0,0.0D0,-26.5D0,26.25D0,0.0D0;                       5P      3
110,-25.0D0,-1.25D0,0.0D0,-25.0D0,-.25D0,0.0D0;                        7P      4
504,34,13,11,1,11,1,19,11,2,11,2,35,11,3,11,4,37,11,3,11,5,41,         9P      5
11,6,11,5,43,11,4,11,6,59,11,7,11,6,61,11,8,11,7,63,11,4,11,8,         9P      6
67,11,9,11,9,83,11,10,11,5,85,11,10,11,11,87,11,12,11,11,89,11,        9P      7
13,11,12,91,11,14,11,13,93,11,14,11,7,105,11,15,11,15,125,11,16,       9P      8
11,16,139,11,17,11,17,145,11,18,11,18,161,11,19,11,19,189,11,20,       9P      9
11,10,191,11,21,11,20,193,11,11,11,21,207,11,8,11,22,209,11,23,        9P     10
11,22,211,11,23,11,24,213,11,21,11,24,215,11,3,11,20,243,11,22,        9P     11
11,14,257,11,13,11,23,265,11,25,11,25,281,11,24,11,12,289,11,26,       9P     12
11,26;                                                                 9P     13
502,26,-23.5D0,25.0D0,1.83697019872103D-16,-23.5D0,0.0D0,             11P     14
1.83697019872103D-16,-144.770038241058D0,51.5D0,12.5D0,               11P     15
-144.770038241058D0,26.5D0,12.5D0,-144.770038241058D0,51.5D0,         11P     16
-12.5D0,-144.770038241058D0,26.5D0,-12.5D0,-116.855339059327D0,       11P     17
26.5D0,-12.5D0,-116.855339059327D0,26.5D0,12.5D0,-139.45D0,           11P     18
26.5D0,1.46146786686023D-14,-106.5D0,51.5D0,-12.5D0,-80.0D0,          11P     19
25.0D0,-12.5D0,-1.53080849893419D-15,25.0D0,-12.5D0,                  11P     20
-1.53080849893419D-15,0.0D0,-12.5D0,-90.3553390593274D0,              11P     21
1.19707719291936D-16,-12.5D0,-139.45D0,30.5D0,                        11P     22
1.46146786686023D-14,-141.7D0,30.5D0,1.43391331387942D-14,            11P     23
-139.45D0,47.5D0,1.26551743737531D-14,-139.45D0,51.5D0,               11P     24
1.26551743737531D-14,-141.7D0,47.5D0,1.29307199035612D-14,            11P     25
-106.5D0,51.5D0,12.5D0,-80.0D0,25.0D0,12.5D0,                         11P     26
-90.3553390593274D0,1.19707719291936D-16,12.5D0,0.0D0,0.0D0,          11P     27
12.5D0,0.0D0,25.0D0,12.5D0,-4.05D0,0.0D0,4.95981953654678D-16,        11P     28
-4.05D0,25.0D0,4.95981953654678D-16;                                  11P     29
100,0.0D0,0.0D0,0.0D0,-1.5D0,1.83697019872103D-16,-1.5D0,             13P     30
1.83697019872103D-16;                                                 13P     31
124,-1.0D0,0.0D0,0.0D0,-25.0D0,0.0D0,0.0D0,-1.0D0,25.0D0,0.0D0,       15P     32
-1.0D0,0.0D0,0.0D0;                                                   15P     33
508,1,0,9,1,0,0;                                                      17P     34
100,0.0D0,0.0D0,0.0D0,-1.5D0,1.83697019872103D-16,-1.5D0,             19P     35
1.83697019872103D-16;                                                 19P     36
124,-1.0D0,0.0D0,0.0D0,-25.0D0,0.0D0,0.0D0,1.0D0,0.0D0,0.0D0,         21P     37
1.0D0,0.0D0,0.0D0;                                                    21P     38
508,1,0,9,2,0,0;                                                      23P     39
510,3,2,1,17,23;                                                      25P     40
116,-150.0D0,51.5D0,1.39471767468535D-14,0;                           27P     41
123,0.0D0,-1.0D0,0.0D0;                                               29P     42
192,27,29,13.55D0,33;                                                 31P     43
123,-1.0D0,0.0D0,0.0D0;                                               33P     44
110,-144.770038241058D0,51.5D0,12.5D0,-144.770038241058D0,            35P     45
26.5D0,12.5D0;                                                        35P     46
100,0.0D0,0.0D0,0.0D0,-5.22996175894244D0,-12.5D0,                    37P     47
-5.22996175894241D0,12.5D0;                                           37P     48
124,-1.0D0,0.0D0,0.0D0,-150.0D0,0.0D0,0.0D0,-1.0D0,51.5D0,0.0D0,      39P     49
-1.0D0,0.0D0,1.39471767468535D-14;                                    39P     50
110,-144.770038241058D0,26.5D0,-12.5D0,-144.770038241058D0,           41P     51
51.5D0,-12.5D0;                                                       41P     52
100,0.0D0,0.0D0,0.0D0,-5.22996175894244D0,-12.5D0,                    43P     53
-5.22996175894241D0,12.5D0;                                           43P     54
124,-1.0D0,0.0D0,0.0D0,-150.0D0,0.0D0,0.0D0,-1.0D0,26.5D0,0.0D0,      45P     55
-1.0D0,0.0D0,1.39471767468535D-14;                                    45P     56
508,4,0,9,3,0,0,0,9,4,1,0,0,9,5,0,0,0,9,6,0,0;                        47P     57
510,31,1,1,47;                                                        49P     58
116,-162.5D0,26.5D0,12.5D0,0;                                         51P     59
123,0.0D0,-1.0D0,0.0D0;                                               53P     60
190,51,53,57;                                                         55P     61
123,-1.0D0,0.0D0,0.0D0;                                               57P     62
110,-116.855339059327D0,26.5D0,-12.5D0,-144.770038241058D0,           59P     63
26.5D0,-12.5D0;                                                       59P     64
110,-116.855339059327D0,26.5D0,12.5D0,-116.855339059327D0,            61P     65
26.5D0,-12.5D0;                                                       61P     66
110,-144.770038241058D0,26.5D0,12.5D0,-116.855339059327D0,            63P     67
26.5D0,12.5D0;                                                        63P     68
508,4,0,9,6,1,0,0,9,7,0,0,0,9,8,0,0,0,9,9,0,0;                        65P     69
100,0.0D0,0.0D0,0.0D0,-10.55D0,1.29200237310046D-15,-10.55D0,         67P     70
1.29200237310046D-15;                                                 67P     71
124,-1.0D0,0.0D0,0.0D0,-150.0D0,0.0D0,0.0D0,1.0D0,26.5D0,0.0D0,       69P     72
1.0D0,0.0D0,1.33226762955019D-14;                                     69P     73
508,1,0,9,10,1,0;                                                     71P     74
510,55,2,1,65,71;                                                     73P     75
116,0.0D0,0.0D0,-12.5D0,0;                                            75P     76
123,0.0D0,0.0D0,-1.0D0;                                               77P     77
190,75,77,81;                                                         79P     78
123,-1.0D0,0.0D0,0.0D0;                                               81P     79
110,-106.5D0,51.5D0,-12.5D0,-144.770038241058D0,51.5D0,-12.5D0;       83P     80
110,-106.5D0,51.5D0,-12.5D0,-80.0D0,25.0D0,-12.5D0;                   85P     81
110,0.0D0,25.0D0,-12.5D0,-80.0D0,25.0D0,-12.5D0;                      87P     82
110,-1.53080849893419D-15,0.0D0,-12.5D0,-1.53080849893419D-15,        89P     83
25.0D0,-12.5D0;                                                       89P     84
110,-90.3553390593274D0,0.0D0,-12.5D0,0.0D0,0.0D0,-12.5D0;            91P     85
110,-90.3553390593274D0,-1.77635683940025D-15,-12.5D0,                93P     86
-116.855339059327D0,26.5D0,-12.5D0;                                   93P     87
508,8,0,9,5,1,0,0,9,11,0,0,0,9,12,1,0,0,9,13,0,0,0,9,14,0,0,0,9,      95P     88
15,0,0,0,9,16,1,0,0,9,7,1,0;                                          95P     89
510,79,1,1,95;                                                        97P     90
120,103,101,0.0D0,6.28318530717959D0;                                 99P     91
110,-160.55D0,26.3D0,1.33226762955019D-14,-160.55D0,30.7D0,          101P     92
1.33226762955019D-14;                                                101P     93
110,-150.0D0,26.3D0,1.33226762955019D-14,-150.0D0,27.3D0,            103P     94
1.33226762955019D-14;                                                103P     95
100,0.0D0,0.0D0,0.0D0,-10.55D0,1.29200237310046D-15,-10.55D0,        105P     96
1.29200237310046D-15;                                                105P     97
124,-1.0D0,0.0D0,0.0D0,-150.0D0,0.0D0,0.0D0,1.0D0,30.5D0,0.0D0,      107P     98
1.0D0,0.0D0,1.33226762955019D-14;                                    107P     99
508,1,0,9,17,1,0;                                                    109P    100
508,1,0,9,10,0,0;                                                    111P    101
510,99,2,1,109,111;                                                  113P    102
116,-150.0D0,30.5D0,1.36208404569336D-14,0;                          115P    103
123,0.0D0,-1.0D0,0.0D0;                                              117P    104
190,115,117,121;                                                     119P    105
123,0.0D0,0.0D0,-1.0D0;                                              121P    106
508,1,0,9,17,0,0;                                                    123P    107
100,0.0D0,0.0D0,0.0D0,-8.3D0,1.0164568432923D-15,-8.3D0,             125P    108
1.0164568432923D-15;                                                 125P    109
124,-1.0D0,0.0D0,0.0D0,-150.0D0,0.0D0,0.0D0,-1.0D0,30.5D0,0.0D0,     127P    110
-1.0D0,0.0D0,1.39471767468535D-14;                                   127P    111
508,1,0,9,18,0,0;                                                    129P    112
510,119,2,1,123,129;                                                 131P    113
120,137,135,0.0D0,6.28318530717959D0;                                133P    114
110,-160.55D0,51.7D0,1.39471767468535D-14,-160.55D0,47.3D0,          135P    115
1.39471767468535D-14;                                                135P    116
110,-150.0D0,51.7D0,1.39471767468535D-14,-150.0D0,50.7D0,            137P    117
1.39471767468535D-14;                                                137P    118
100,0.0D0,0.0D0,0.0D0,-10.55D0,1.29200237310046D-15,-10.55D0,        139P    119
1.29200237310046D-15;                                                139P    120
124,-1.0D0,0.0D0,0.0D0,-150.0D0,0.0D0,0.0D0,-1.0D0,47.5D0,0.0D0,     141P    121
-1.0D0,0.0D0,1.39471767468535D-14;                                   141P    122
508,1,0,9,19,1,0;                                                    143P    123
100,0.0D0,0.0D0,0.0D0,-10.55D0,1.29200237310046D-15,-10.55D0,        145P    124
1.29200237310046D-15;                                                145P    125
508,1,0,9,20,0,0;                                                    147P    126
510,133,2,1,143,147;                                                 149P    127
116,-150.0D0,47.5D0,1.44264865982727D-14,0;                          151P    128
123,0.0D0,1.0D0,0.0D0;                                               153P    129
190,151,153,157;                                                     155P    130
123,0.0D0,0.0D0,1.0D0;                                               157P    131
508,1,0,9,19,0,0;                                                    159P    132
100,0.0D0,0.0D0,0.0D0,-8.3D0,1.0164568432923D-15,-8.3D0,             161P    133
1.0164568432923D-15;                                                 161P    134
124,-1.0D0,0.0D0,0.0D0,-150.0D0,0.0D0,0.0D0,1.0D0,47.5D0,0.0D0,      163P    135
1.0D0,0.0D0,1.39471767468535D-14;                                    163P    136
508,1,0,9,21,0,0;                                                    165P    137
510,155,2,1,159,165;                                                 167P    138
120,173,171,0.0D0,6.28318530717959D0;                                169P    139
110,-158.3D0,51.5D0,1.39471767468535D-14,-158.3D0,29.65D0,           171P    140
1.39471767468535D-14;                                                171P    141
110,-150.0D0,51.5D0,1.39471767468535D-14,-150.0D0,50.5D0,            173P    142
1.39471767468535D-14;                                                173P    143
508,1,0,9,18,1,0;                                                    175P    144
508,1,0,9,21,1,0;                                                    177P    145
510,169,2,1,175,177;                                                 179P    146
116,-80.0D0,25.0D0,12.5D0,0;                                         181P    147
123,.707106781186547D0,.707106781186548D0,0.0D0;                     183P    148
190,181,183,187;                                                     185P    149
123,.707106781186548D0,-.707106781186547D0,0.0D0;                    187P    150
110,-106.5D0,51.5D0,12.5D0,-106.5D0,51.5D0,-12.5D0;                  189P    151
110,-80.0D0,25.0D0,12.5D0,-106.5D0,51.5D0,12.5D0;                    191P    152
110,-80.0D0,25.0D0,-12.5D0,-80.0D0,25.0D0,12.5D0;                    193P    153
508,4,0,9,12,0,0,0,9,22,0,0,0,9,23,0,0,0,9,24,0,0;                   195P    154
510,185,1,1,195;                                                     197P    155
116,-150.0D0,0.0D0,12.5D0,0;                                         199P    156
123,0.0D0,0.0D0,1.0D0;                                               201P    157
190,199,201,205;                                                     203P    158
123,1.0D0,0.0D0,0.0D0;                                               205P    159
110,-116.855339059327D0,26.5D0,12.5D0,-90.3553390593274D0,0.0D0,     207P    160
12.5D0;                                                              207P    161
110,0.0D0,0.0D0,12.5D0,-90.3553390593274D0,0.0D0,12.5D0;             209P    162
110,0.0D0,0.0D0,12.5D0,0.0D0,25.0D0,12.5D0;                          211P    163
110,-80.0D0,25.0D0,12.5D0,0.0D0,25.0D0,12.5D0;                       213P    164
110,-144.770038241058D0,51.5D0,12.5D0,-106.5D0,51.5D0,12.5D0;        215P    165
508,8,0,9,3,1,0,0,9,9,1,0,0,9,25,1,0,0,9,26,0,0,0,9,27,1,0,0,9,      217P    166
28,0,0,0,9,23,1,0,0,9,29,0,0;                                        217P    167
510,203,1,1,217;                                                     219P    168
116,-117.006874537644D0,51.5D0,6.82329671518605D-15,0;               221P    169
123,0.0D0,1.0D0,0.0D0;                                               223P    170
190,221,223,227;                                                     225P    171
123,0.0D0,0.0D0,1.0D0;                                               227P    172
508,4,0,9,29,1,0,0,9,22,1,0,0,9,11,1,0,0,9,4,0,0;                    229P    173
508,1,0,9,20,1,0;                                                    231P    174
510,225,2,1,229,231;                                                 233P    175
116,-116.855339059327D0,26.5D0,12.5D0,0;                             235P    176
123,-.707106781186548D0,-.707106781186547D0,0.0D0;                   237P    177
190,235,237,241;                                                     239P    178
123,-.707106781186547D0,.707106781186548D0,0.0D0;                    241P    179
110,-90.3553390593274D0,1.11022302462516D-15,12.5D0,                 243P    180
-90.3553390593274D0,1.11022302462516D-15,-12.5D0;                    243P    181
508,4,0,9,16,0,0,0,9,30,0,0,0,9,25,0,0,0,9,8,1,0;                    245P    182
510,239,1,1,245;                                                     247P    183
116,-75.0000824705737D0,0.0D0,5.08490427510862D-15,0;                249P    184
123,0.0D0,-1.0D0,0.0D0;                                              251P    185
190,249,251,255;                                                     253P    186
123,0.0D0,0.0D0,-1.0D0;                                              255P    187
100,0.0D0,0.0D0,0.0D0,12.5D0,0.0D0,-12.5D0,1.53080849893419D-15;     257P    188
124,0.0D0,1.0D0,0.0D0,0.0D0,0.0D0,0.0D0,-1.0D0,0.0D0,-1.0D0,         259P    189
0.0D0,0.0D0,0.0D0;                                                   259P    190
508,4,0,9,30,1,0,0,9,15,1,0,0,9,31,1,0,0,9,26,1,0;                   261P    191
508,1,0,9,2,1,0;                                                     263P    192
100,0.0D0,0.0D0,0.0D0,-4.05D0,4.95981953654678D-16,-4.05D0,          265P    193
4.95981953654678D-16;                                                265P    194
124,1.0D0,0.0D0,0.0D0,0.0D0,0.0D0,0.0D0,1.0D0,0.0D0,0.0D0,           267P    195
-1.0D0,0.0D0,0.0D0;                                                  267P    196
508,1,0,9,32,1,0;                                                    269P    197
510,253,3,1,261,263,269;                                             271P    198
116,-75.0000824705737D0,25.0D0,5.08490427510862D-15,0;               273P    199
123,0.0D0,1.0D0,0.0D0;                                               275P    200
190,273,275,279;                                                     277P    201
123,0.0D0,0.0D0,1.0D0;                                               279P    202
100,0.0D0,0.0D0,0.0D0,-12.5D0,1.53080849893419D-15,12.5D0,           281P    203
-3.06161699786838D-15;                                               281P    204
124,0.0D0,-1.0D0,0.0D0,0.0D0,0.0D0,0.0D0,1.0D0,25.0D0,-1.0D0,        283P    205
0.0D0,0.0D0,0.0D0;                                                   283P    206
508,4,0,9,24,1,0,0,9,28,1,0,0,9,33,1,0,0,9,13,1,0;                   285P    207
508,1,0,9,1,1,0;                                                     287P    208
100,0.0D0,0.0D0,0.0D0,-4.05D0,4.95981953654678D-16,-4.05D0,          289P    209
4.95981953654678D-16;                                                289P    210
124,1.0D0,0.0D0,0.0D0,0.0D0,0.0D0,0.0D0,-1.0D0,25.0D0,0.0D0,         291P    211
1.0D0,0.0D0,0.0D0;                                                   291P    212
508,1,0,9,34,1,0;                                                    293P    213
510,277,3,1,285,287,293;                                             295P    214
120,301,299,0.0D0,6.28318530717959D0;                                297P    215
110,4.05D0,-1.25D0,0.0D0,4.05D0,26.25D0,0.0D0;                       299P    216
110,0.0D0,-1.25D0,0.0D0,0.0D0,-.25D0,0.0D0;                          301P    217
508,1,0,9,34,0,0;                                                    303P    218
508,1,0,9,32,0,0;                                                    305P    219
510,297,2,1,303,305;                                                 307P    220
116,0.0D0,0.0D0,0.0D0,0;                                             309P    221
123,0.0D0,1.0D0,0.0D0;                                               311P    222
192,309,311,12.5D0,315;                                              313P    223
123,0.0D0,0.0D0,-1.0D0;                                              315P    224
508,4,0,9,31,0,0,0,9,14,1,0,0,9,33,0,0,0,9,27,0,0;                   317P    225
510,313,1,1,317;                                                     319P    226
514,17,25,1,49,1,73,1,97,1,113,1,131,1,149,1,167,1,179,1,197,1,      321P    227
219,1,233,1,247,1,271,1,295,1,307,1,319,1;                           321P    228
186,321,1,0;                                                         323P    229
314,81.1764717102051D0,30.9803932905197D0,0.0D0,;                    325P    230
S      1G      4D    326P    230                                        T      1
