                                                                        S      1
,,11Hz idler.ipt,27HNo Iges File Name specified,22HAutodesk Inventor 201G      1
3,37HAutoDesk Inventor Iges Exporter R2013,32,38,6,99,15,11Hz idler.ipt,G      2
1.0D0,2,2HMM,1,.08D0,15H20131018.142706,.01D0,10000.0D0,8Hemployee,,11, G      3
0,,;                                                                    G      4
     406       1       0       0       1       0       0       000000000D      1
     406       0       0       1       3                               0D      2
     116       2       0       0       0       0       0       000010000D      3
     116       0       0       1       0                               0D      4
     123       3       0       0       0       0       0       000010200D      5
     123       0       0       1       0                               0D      6
     190       4       0       0       0       0       0       000010000D      7
     190       0       0       1       1                               0D      8
     123       5       0       0       0       0       0       000010200D      9
     123       0       0       1       0                               0D     10
     504       6       0       0       0       0       0       000010001D     11
     504       0       0       2       1                               0D     12
     502       8       0       0       0       0       0       000010000D     13
     502       0       0       5       1                               0D     14
     100      13       0       0       0       0      17       000010000D     15
     100       0       0       2       0                               0D     16
     124      15       0       0       0       0       0       000000000D     17
     124       0       0       2       0                               0D     18
     508      17       0       0       0       0       0       000010000D     19
     508       0       0       1       1                               0D     20
     100      18       0       0       0       0      17       000010000D     21
     100       0       0       1       0                               0D     22
     508      19       0       0       0       0       0       000010000D     23
     508       0       0       1       1                               0D     24
     510      20       0       0       0       0       0       000010000D     25
     510       0    -133       1       1                               0D     26
     116      21       0       0       0       0       0       000010000D     27
     116       0       0       1       0                               0D     28
     123      22       0       0       0       0       0       000010200D     29
     123       0       0       1       0                               0D     30
     192      23       0       0       0       0       0       000010000D     31
     192       0       0       1       1                               0D     32
     123      24       0       0       0       0       0       000010200D     33
     123       0       0       1       0                               0D     34
     100      25       0       0       0       0      37       000010000D     35
     100       0       0       2       0                               0D     36
     124      27       0       0       0       0       0       000000000D     37
     124       0       0       2       0                               0D     38
     508      29       0       0       0       0       0       000010000D     39
     508       0       0       1       1                               0D     40
     508      30       0       0       0       0       0       000010000D     41
     508       0       0       1       1                               0D     42
     510      31       0       0       0       0       0       000010000D     43
     510       0    -133       1       1                               0D     44
     116      32       0       0       0       0       0       000010000D     45
     116       0       0       1       0                               0D     46
     123      33       0       0       0       0       0       000010200D     47
     123       0       0       1       0                               0D     48
     194      34       0       0       0       0       0       000010000D     49
     194       0       0       1       1                               0D     50
     123      35       0       0       0       0       0       000010200D     51
     123       0       0       1       0                               0D     52
     100      36       0       0       0       0      55       000010000D     53
     100       0       0       1       0                               0D     54
     124      37       0       0       0       0       0       000000000D     55
     124       0       0       2       0                               0D     56
     508      39       0       0       0       0       0       000010000D     57
     508       0       0       1       1                               0D     58
     508      40       0       0       0       0       0       000010000D     59
     508       0       0       1       1                               0D     60
     510      41       0       0       0       0       0       000010000D     61
     510       0    -133       1       1                               0D     62
     116      42       0       0       0       0       0       000010000D     63
     116       0       0       1       0                               0D     64
     123      43       0       0       0       0       0       000010200D     65
     123       0       0       1       0                               0D     66
     194      44       0       0       0       0       0       000010000D     67
     194       0       0       1       1                               0D     68
     123      45       0       0       0       0       0       000010200D     69
     123       0       0       1       0                               0D     70
     100      46       0       0       0       0      73       000010000D     71
     100       0       0       2       0                               0D     72
     124      48       0       0       0       0       0       000000000D     73
     124       0       0       2       0                               0D     74
     508      50       0       0       0       0       0       000010000D     75
     508       0       0       1       1                               0D     76
     508      51       0       0       0       0       0       000010000D     77
     508       0       0       1       1                               0D     78
     510      52       0       0       0       0       0       000010000D     79
     510       0    -133       1       1                               0D     80
     116      53       0       0       0       0       0       000010000D     81
     116       0       0       1       0                               0D     82
     123      54       0       0       0       0       0       000010200D     83
     123       0       0       1       0                               0D     84
     192      55       0       0       0       0       0       000010000D     85
     192       0       0       1       1                               0D     86
     123      56       0       0       0       0       0       000010200D     87
     123       0       0       1       0                               0D     88
     100      57       0       0       0       0      91       000010000D     89
     100       0       0       2       0                               0D     90
     124      59       0       0       0       0       0       000000000D     91
     124       0       0       2       0                               0D     92
     508      61       0       0       0       0       0       000010000D     93
     508       0       0       1       1                               0D     94
     508      62       0       0       0       0       0       000010000D     95
     508       0       0       1       1                               0D     96
     510      63       0       0       0       0       0       000010000D     97
     510       0    -133       1       1                               0D     98
     116      64       0       0       0       0       0       000010000D     99
     116       0       0       1       0                               0D    100
     123      65       0       0       0       0       0       000010200D    101
     123       0       0       1       0                               0D    102
     190      66       0       0       0       0       0       000010000D    103
     190       0       0       1       1                               0D    104
     123      67       0       0       0       0       0       000010200D    105
     123       0       0       1       0                               0D    106
     508      68       0       0       0       0       0       000010000D    107
     508       0       0       1       1                               0D    108
     100      69       0       0       0       0     111       000010000D    109
     100       0       0       1       0                               0D    110
     124      70       0       0       0       0       0       000000000D    111
     124       0       0       2       0                               0D    112
     508      72       0       0       0       0       0       000010000D    113
     508       0       0       1       1                               0D    114
     510      73       0       0       0       0       0       000010000D    115
     510       0    -133       1       1                               0D    116
     120      74       0       0       0       0       0       000010000D    117
     120       0       0       1       0                               0D    118
     110      75       0       0       0       0       0       000010000D    119
     110       0       0       1       0                               0D    120
     110      76       0       0       0       0       0       001010000D    121
     110       0       0       1       0                               0D    122
     508      77       0       0       0       0       0       000010000D    123
     508       0       0       1       1                               0D    124
     508      78       0       0       0       0       0       000010000D    125
     508       0       0       1       1                               0D    126
     510      79       0       0       0       0       0       000010000D    127
     510       0    -133       1       1                               0D    128
     514      80       0       0       0       0       0       000010000D    129
     514       0       0       1       1                               0D    130
     186      81       0       0       1       0       0       000000000D    131
     186       0       0       1       0                  Solid1       0D    132
     314      82       0       0       0       0       0       000000000D    133
     314       0       2       1       0                               0D    134
406,2,0,7Hz idler;                                                     1P      1
116,-12.1333333333333D0,0.0D0,7.0D0,0;                                 3P      2
123,0.0D0,0.0D0,1.0D0;                                                 5P      3
190,3,5,9;                                                             7P      4
123,1.0D0,0.0D0,0.0D0;                                                 9P      5
504,7,15,13,1,13,1,21,13,2,13,2,35,13,3,13,3,53,13,4,13,4,71,13,      11P      6
5,13,5,89,13,6,13,6,109,13,7,13,7;                                    11P      7
502,7,-13.1666666666667D0,0.0D0,7.0D0,-11.1D0,0.0D0,7.0D0,            13P      8
-13.1666666666667D0,0.0D0,4.66666666666667D0,-12.0D0,0.0D0,           13P      9
3.50000000000001D0,-13.1666666666667D0,0.0D0,2.33333333333333D0,      13P     10
-13.1666666666667D0,0.0D0,0.0D0,-11.1D0,0.0D0,                        13P     11
2.77555756156289D-15;                                                 13P     12
100,0.0D0,0.0D0,0.0D0,13.1666666666667D0,0.0D0,                       15P     13
13.1666666666667D0,0.0D0;                                             15P     14
124,-1.0D0,0.0D0,0.0D0,0.0D0,0.0D0,1.0D0,0.0D0,0.0D0,0.0D0,           17P     15
0.0D0,-1.0D0,7.0D0;                                                   17P     16
508,1,0,11,1,0,0;                                                     19P     17
100,0.0D0,0.0D0,0.0D0,11.1D0,0.0D0,11.1D0,0.0D0;                      21P     18
508,1,0,11,2,1,0;                                                     23P     19
510,7,2,1,19,23;                                                      25P     20
116,0.0D0,0.0D0,5.83333333333334D0,0;                                 27P     21
123,0.0D0,0.0D0,-1.0D0;                                               29P     22
192,27,29,13.1666666666667D0,33;                                      31P     23
123,-1.0D0,0.0D0,0.0D0;                                               33P     24
100,0.0D0,0.0D0,0.0D0,13.1666666666667D0,0.0D0,                       35P     25
13.1666666666667D0,0.0D0;                                             35P     26
124,-1.0D0,0.0D0,0.0D0,0.0D0,0.0D0,1.0D0,0.0D0,0.0D0,0.0D0,           37P     27
0.0D0,-1.0D0,4.66666666666667D0;                                      37P     28
508,1,0,11,3,0,0;                                                     39P     29
508,1,0,11,1,1,0;                                                     41P     30
510,31,2,1,39,41;                                                     43P     31
116,0.0D0,0.0D0,4.08333333333334D0,0;                                 45P     32
123,0.0D0,0.0D0,1.0D0;                                                47P     33
194,45,47,12.5833333333333D0,45.0000000000001D0,51;                   49P     34
123,-1.0D0,0.0D0,0.0D0;                                               51P     35
100,0.0D0,0.0D0,0.0D0,12.0D0,0.0D0,12.0D0,0.0D0;                      53P     36
124,-1.0D0,0.0D0,0.0D0,0.0D0,0.0D0,1.0D0,0.0D0,0.0D0,0.0D0,           55P     37
0.0D0,-1.0D0,3.50000000000001D0;                                      55P     38
508,1,0,11,4,0,0;                                                     57P     39
508,1,0,11,3,1,0;                                                     59P     40
510,49,2,1,57,59;                                                     61P     41
116,0.0D0,0.0D0,2.91666666666667D0,0;                                 63P     42
123,0.0D0,0.0D0,-1.0D0;                                               65P     43
194,63,65,12.5833333333333D0,44.9999999999999D0,69;                   67P     44
123,-1.0D0,0.0D0,0.0D0;                                               69P     45
100,0.0D0,0.0D0,0.0D0,13.1666666666667D0,0.0D0,                       71P     46
13.1666666666667D0,0.0D0;                                             71P     47
124,-1.0D0,0.0D0,0.0D0,0.0D0,0.0D0,1.0D0,0.0D0,0.0D0,0.0D0,           73P     48
0.0D0,-1.0D0,2.33333333333333D0;                                      73P     49
508,1,0,11,5,0,0;                                                     75P     50
508,1,0,11,4,1,0;                                                     77P     51
510,67,2,1,75,77;                                                     79P     52
116,0.0D0,0.0D0,1.16666666666667D0,0;                                 81P     53
123,0.0D0,0.0D0,-1.0D0;                                               83P     54
192,81,83,13.1666666666667D0,87;                                      85P     55
123,-1.0D0,0.0D0,0.0D0;                                               87P     56
100,0.0D0,0.0D0,0.0D0,13.1666666666667D0,0.0D0,                       89P     57
13.1666666666667D0,0.0D0;                                             89P     58
124,-1.0D0,0.0D0,0.0D0,0.0D0,0.0D0,1.0D0,0.0D0,0.0D0,0.0D0,           91P     59
0.0D0,-1.0D0,0.0D0;                                                   91P     60
508,1,0,11,6,0,0;                                                     93P     61
508,1,0,11,5,1,0;                                                     95P     62
510,85,2,1,93,95;                                                     97P     63
116,-12.1333333333333D0,0.0D0,1.38777878078145D-15,0;                 99P     64
123,0.0D0,0.0D0,-1.0D0;                                              101P     65
190,99,101,105;                                                      103P     66
123,-1.0D0,0.0D0,0.0D0;                                              105P     67
508,1,0,11,6,1,0;                                                    107P     68
100,0.0D0,0.0D0,0.0D0,11.1D0,0.0D0,11.1D0,0.0D0;                     109P     69
124,-1.0D0,0.0D0,0.0D0,0.0D0,0.0D0,1.0D0,0.0D0,0.0D0,0.0D0,          111P     70
0.0D0,-1.0D0,2.77555756156289D-15;                                   111P     71
508,1,0,11,7,0,0;                                                    113P     72
510,103,2,1,107,113;                                                 115P     73
120,121,119,0.0D0,6.28318530717959D0;                                117P     74
110,-11.1D0,0.0D0,7.35D0,-11.1D0,0.0D0,-.349999999999997D0;          119P     75
110,0.0D0,0.0D0,7.35D0,0.0D0,0.0D0,6.35D0;                           121P     76
508,1,0,11,2,0,0;                                                    123P     77
508,1,0,11,7,1,0;                                                    125P     78
510,117,2,1,123,125;                                                 127P     79
514,7,25,1,43,1,61,1,79,1,97,1,115,1,127,1;                          129P     80
186,129,1,0;                                                         131P     81
314,81.1764717102051D0,30.9803932905197D0,0.0D0,;                    133P     82
S      1G      4D    134P     82                                        T      1
