                                                                        S      1
,,9H_6702.ipt,27HNo Iges File Name specified,22HAutodesk Inventor 2013, G      1
37HAutoDesk Inventor Iges Exporter R2013,32,38,6,99,15,9H_6702.ipt,     G      2
1.0D0,2,2HMM,1,.08D0,15H20131210.105923,.01D0,10000.0D0,8Hemployee,,11, G      3
0,,;                                                                    G      4
     406       1       0       0       1       0       0       000000000D      1
     406       0       0       1       3                               0D      2
     120       2       0       0       0       0       0       000010000D      3
     120       0       0       1       0                               0D      4
     110       3       0       0       0       0       0       000010000D      5
     110       0       0       1       0                               0D      6
     110       4       0       0       0       0       0       001010000D      7
     110       0       0       1       0                               0D      8
     504       5       0       0       0       0       0       000010001D      9
     504       0       0       1       1                               0D     10
     502       6       0       0       0       0       0       000010000D     11
     502       0       0       3       1                               0D     12
     100       9       0       0       0       0      15       000010000D     13
     100       0       0       2       0                               0D     14
     124      11       0       0       0       0       0       000000000D     15
     124       0       0       2       0                               0D     16
     508      13       0       0       0       0       0       000010000D     17
     508       0       0       1       1                               0D     18
     100      14       0       0       0       0      21       000010000D     19
     100       0       0       2       0                               0D     20
     124      16       0       0       0       0       0       000000000D     21
     124       0       0       2       0                               0D     22
     508      18       0       0       0       0       0       000010000D     23
     508       0       0       1       1                               0D     24
     510      19       0       0       0       0       0       000010000D     25
     510       0     -81       1       1                               0D     26
     116      20       0       0       0       0       0       000010000D     27
     116       0       0       1       0                               0D     28
     123      21       0       0       0       0       0       000010200D     29
     123       0       0       1       0                               0D     30
     192      22       0       0       0       0       0       000010000D     31
     192       0       0       1       1                               0D     32
     123      23       0       0       0       0       0       000010200D     33
     123       0       0       1       0                               0D     34
     100      24       0       0       0       0      37       000010000D     35
     100       0       0       2       0                               0D     36
     124      26       0       0       0       0       0       000000000D     37
     124       0       0       2       0                               0D     38
     508      28       0       0       0       0       0       000010000D     39
     508       0       0       1       1                               0D     40
     100      29       0       0       0       0      43       000010000D     41
     100       0       0       2       0                               0D     42
     124      31       0       0       0       0       0       000000000D     43
     124       0       0       2       0                               0D     44
     508      33       0       0       0       0       0       000010000D     45
     508       0       0       1       1                               0D     46
     510      34       0       0       0       0       0       000010000D     47
     510       0     -81       1       1                               0D     48
     116      35       0       0       0       0       0       000010000D     49
     116       0       0       1       0                               0D     50
     123      36       0       0       0       0       0       000010200D     51
     123       0       0       1       0                               0D     52
     190      37       0       0       0       0       0       000010000D     53
     190       0       0       1       1                               0D     54
     123      38       0       0       0       0       0       000010200D     55
     123       0       0       1       0                               0D     56
     508      39       0       0       0       0       0       000010000D     57
     508       0       0       1       1                               0D     58
     508      40       0       0       0       0       0       000010000D     59
     508       0       0       1       1                               0D     60
     510      41       0       0       0       0       0       000010000D     61
     510       0     -81       1       1                               0D     62
     116      42       0       0       0       0       0       000010000D     63
     116       0       0       1       0                               0D     64
     123      43       0       0       0       0       0       000010200D     65
     123       0       0       1       0                               0D     66
     190      44       0       0       0       0       0       000010000D     67
     190       0       0       1       1                               0D     68
     123      45       0       0       0       0       0       000010200D     69
     123       0       0       1       0                               0D     70
     508      46       0       0       0       0       0       000010000D     71
     508       0       0       1       1                               0D     72
     508      47       0       0       0       0       0       000010000D     73
     508       0       0       1       1                               0D     74
     510      48       0       0       0       0       0       000010000D     75
     510       0     -81       1       1                               0D     76
     514      49       0       0       0       0       0       000010000D     77
     514       0       0       1       1                               0D     78
     186      50       0       0       1       0       0       000000000D     79
     186       0       0       1       0                  Solid1       0D     80
     314      51       0       0       0       0       0       000000000D     81
     314       0       8       1       0                               0D     82
406,2,0,5H_6702;                                                       1P      1
120,7,5,0.0D0,6.28318530717959D0;                                      3P      2
110,-7.5D0,0.0D0,-.2D0,-7.5D0,0.0D0,4.2D0;                             5P      3
110,0.0D0,0.0D0,-.2D0,0.0D0,0.0D0,.8D0;                                7P      4
504,4,13,11,1,11,1,19,11,2,11,2,35,11,3,11,3,41,11,4,11,4;             9P      5
502,4,7.5D0,9.18485099360515D-16,4.0D0,7.5D0,                         11P      6
9.18485099360515D-16,0.0D0,10.5D0,1.28587913910472D-15,4.0D0,         11P      7
10.5D0,1.28587913910472D-15,0.0D0;                                    11P      8
100,0.0D0,0.0D0,0.0D0,-7.5D0,9.18485099360515D-16,-7.5D0,             13P      9
9.18485099360515D-16;                                                 13P     10
124,-1.0D0,0.0D0,0.0D0,0.0D0,0.0D0,1.0D0,0.0D0,0.0D0,0.0D0,           15P     11
0.0D0,-1.0D0,4.0D0;                                                   15P     12
508,1,0,9,1,0,0;                                                      17P     13
100,0.0D0,0.0D0,0.0D0,-7.5D0,9.18485099360515D-16,-7.5D0,             19P     14
9.18485099360515D-16;                                                 19P     15
124,-1.0D0,0.0D0,0.0D0,0.0D0,0.0D0,-1.0D0,0.0D0,0.0D0,0.0D0,          21P     16
0.0D0,1.0D0,0.0D0;                                                    21P     17
508,1,0,9,2,0,0;                                                      23P     18
510,3,2,1,17,23;                                                      25P     19
116,0.0D0,0.0D0,0.0D0,0;                                              27P     20
123,0.0D0,0.0D0,1.0D0;                                                29P     21
192,27,29,10.5D0,33;                                                  31P     22
123,-1.0D0,0.0D0,0.0D0;                                               33P     23
100,0.0D0,0.0D0,0.0D0,-10.5D0,1.28587913910472D-15,-10.5D0,           35P     24
1.28587913910472D-15;                                                 35P     25
124,-1.0D0,0.0D0,0.0D0,0.0D0,0.0D0,-1.0D0,0.0D0,0.0D0,0.0D0,          37P     26
0.0D0,1.0D0,4.0D0;                                                    37P     27
508,1,0,9,3,0,0;                                                      39P     28
100,0.0D0,0.0D0,0.0D0,-10.5D0,1.28587913910472D-15,-10.5D0,           41P     29
1.28587913910472D-15;                                                 41P     30
124,-1.0D0,0.0D0,0.0D0,0.0D0,0.0D0,1.0D0,0.0D0,0.0D0,0.0D0,           43P     31
0.0D0,-1.0D0,0.0D0;                                                   43P     32
508,1,0,9,4,0,0;                                                      45P     33
510,31,2,1,39,45;                                                     47P     34
116,-4.5960834877465D-16,1.76225876924628D-16,4.0D0,0;                49P     35
123,0.0D0,0.0D0,1.0D0;                                                51P     36
190,49,51,55;                                                         53P     37
123,1.0D0,0.0D0,0.0D0;                                                55P     38
508,1,0,9,3,1,0;                                                      57P     39
508,1,0,9,1,1,0;                                                      59P     40
510,53,2,1,57,59;                                                     61P     41
116,-4.5960834877465D-16,1.76225876924628D-16,0.0D0,0;                63P     42
123,0.0D0,0.0D0,-1.0D0;                                               65P     43
190,63,65,69;                                                         67P     44
123,-1.0D0,0.0D0,0.0D0;                                               69P     45
508,1,0,9,4,1,0;                                                      71P     46
508,1,0,9,2,1,0;                                                      73P     47
510,67,2,1,71,73;                                                     75P     48
514,4,25,1,47,1,61,1,75,1;                                            77P     49
186,77,1,0;                                                           79P     50
314,75.0D0,75.0D0,75.0D0,;                                            81P     51
S      1G      4D     82P     51                                        T      1
