                                                                        S      1
,,15H_BASALT BED.ipt,27HNo Iges File Name specified,22HAutodesk InventorG      1
 2013,37HAutoDesk Inventor Iges Exporter R2013,32,38,6,99,15,15H_BASALT G      2
BED.ipt,1.0D0,2,2HMM,1,.08D0,15H20131210.105926,.01D0,10000.0D0,8HemployG      3
ee,,11,0,,;                                                             G      4
     406       1       0       0       1       0       0       000000000D      1
     406       0       0       1       3                               0D      2
     120       2       0       0       0       0       0       000010000D      3
     120       0       0       1       0                               0D      4
     110       3       0       0       0       0       0       000010000D      5
     110       0       0       2       0                               0D      6
     110       5       0       0       0       0       0       001010000D      7
     110       0       0       2       0                               0D      8
     504       7       0       0       0       0       0       000010001D      9
     504       0       0       6       1                               0D     10
     502      13       0       0       0       0       0       000010000D     11
     502       0       0      13       1                               0D     12
     100      26       0       0       0       0      15       000010000D     13
     100       0       0       2       0                               0D     14
     124      28       0       0       0       0       0       000000000D     15
     124       0       0       2       0                               0D     16
     508      30       0       0       0       0       0       000010000D     17
     508       0       0       1       1                               0D     18
     100      31       0       0       0       0      21       000010000D     19
     100       0       0       2       0                               0D     20
     124      33       0       0       0       0       0       000000000D     21
     124       0       0       2       0                               0D     22
     508      35       0       0       0       0       0       000010000D     23
     508       0       0       1       1                               0D     24
     510      36       0       0       0       0       0       000010000D     25
     510       0       8       1       1                               0D     26
     120      37       0       0       0       0       0       000010000D     27
     120       0       0       1       0                               0D     28
     110      38       0       0       0       0       0       000010000D     29
     110       0       0       2       0                               0D     30
     110      40       0       0       0       0       0       001010000D     31
     110       0       0       2       0                               0D     32
     100      42       0       0       0       0      35       000010000D     33
     100       0       0       2       0                               0D     34
     124      44       0       0       0       0       0       000000000D     35
     124       0       0       2       0                               0D     36
     508      46       0       0       0       0       0       000010000D     37
     508       0       0       1       1                               0D     38
     100      47       0       0       0       0      41       000010000D     39
     100       0       0       2       0                               0D     40
     124      49       0       0       0       0       0       000000000D     41
     124       0       0       2       0                               0D     42
     508      51       0       0       0       0       0       000010000D     43
     508       0       0       1       1                               0D     44
     510      52       0       0       0       0       0       000010000D     45
     510       0       8       1       1                               0D     46
     120      53       0       0       0       0       0       000010000D     47
     120       0       0       1       0                               0D     48
     110      54       0       0       0       0       0       000010000D     49
     110       0       0       2       0                               0D     50
     110      56       0       0       0       0       0       001010000D     51
     110       0       0       2       0                               0D     52
     100      58       0       0       0       0      55       000010000D     53
     100       0       0       2       0                               0D     54
     124      60       0       0       0       0       0       000000000D     55
     124       0       0       2       0                               0D     56
     508      62       0       0       0       0       0       000010000D     57
     508       0       0       1       1                               0D     58
     100      63       0       0       0       0      61       000010000D     59
     100       0       0       2       0                               0D     60
     124      65       0       0       0       0       0       000000000D     61
     124       0       0       2       0                               0D     62
     508      67       0       0       0       0       0       000010000D     63
     508       0       0       1       1                               0D     64
     510      68       0       0       0       0       0       000010000D     65
     510       0       8       1       1                               0D     66
     116      69       0       0       0       0       0       000010000D     67
     116       0       0       1       0                               0D     68
     123      70       0       0       0       0       0       000010200D     69
     123       0       0       1       0                               0D     70
     190      71       0       0       0       0       0       000010000D     71
     190       0       0       1       1                               0D     72
     123      72       0       0       0       0       0       000010200D     73
     123       0       0       1       0                               0D     74
     100      73       0       0       0       0      77       000010000D     75
     100       0       0       2       0                               0D     76
     124      75       0       0       0       0       0       000000000D     77
     124       0       0       3       0                               0D     78
     100      78       0       0       0       0      81       000010000D     79
     100       0       0       2       0                               0D     80
     124      80       0       0       0       0       0       000000000D     81
     124       0       0       2       0                               0D     82
     100      82       0       0       0       0      85       000010000D     83
     100       0       0       2       0                               0D     84
     124      84       0       0       0       0       0       000000000D     85
     124       0       0       2       0                               0D     86
     100      86       0       0       0       0      89       000010000D     87
     100       0       0       2       0                               0D     88
     124      88       0       0       0       0       0       000000000D     89
     124       0       0       3       0                               0D     90
     100      91       0       0       0       0      93       000010000D     91
     100       0       0       2       0                               0D     92
     124      93       0       0       0       0       0       000000000D     93
     124       0       0       3       0                               0D     94
     100      96       0       0       0       0      97       000010000D     95
     100       0       0       2       0                               0D     96
     124      98       0       0       0       0       0       000000000D     97
     124       0       0       2       0                               0D     98
     508     100       0       0       0       0       0       000010000D     99
     508       0       0       2       1                               0D    100
     508     102       0       0       0       0       0       000010000D    101
     508       0       0       1       1                               0D    102
     508     103       0       0       0       0       0       000010000D    103
     508       0       0       1       1                               0D    104
     508     104       0       0       0       0       0       000010000D    105
     508       0       0       1       1                               0D    106
     510     105       0       0       0       0       0       000010000D    107
     510       0       8       1       1                               0D    108
     116     106       0       0       0       0       0       000010000D    109
     116       0       0       1       0                               0D    110
     123     107       0       0       0       0       0       000010200D    111
     123       0       0       1       0                               0D    112
     190     108       0       0       0       0       0       000010000D    113
     190       0       0       1       1                               0D    114
     123     109       0       0       0       0       0       000010200D    115
     123       0       0       1       0                               0D    116
     100     110       0       0       0       0     119       000010000D    117
     100       0       0       2       0                               0D    118
     124     112       0       0       0       0       0       000000000D    119
     124       0       0       3       0                               0D    120
     100     115       0       0       0       0     123       000010000D    121
     100       0       0       2       0                               0D    122
     124     117       0       0       0       0       0       000000000D    123
     124       0       0       2       0                               0D    124
     100     119       0       0       0       0     127       000010000D    125
     100       0       0       2       0                               0D    126
     124     121       0       0       0       0       0       000000000D    127
     124       0       0       3       0                               0D    128
     100     124       0       0       0       0     131       000010000D    129
     100       0       0       2       0                               0D    130
     124     126       0       0       0       0       0       000000000D    131
     124       0       0       3       0                               0D    132
     100     129       0       0       0       0     135       000010000D    133
     100       0       0       2       0                               0D    134
     124     131       0       0       0       0       0       000000000D    135
     124       0       0       2       0                               0D    136
     100     133       0       0       0       0     139       000010000D    137
     100       0       0       2       0                               0D    138
     124     135       0       0       0       0       0       000000000D    139
     124       0       0       2       0                               0D    140
     508     137       0       0       0       0       0       000010000D    141
     508       0       0       2       1                               0D    142
     508     139       0       0       0       0       0       000010000D    143
     508       0       0       1       1                               0D    144
     508     140       0       0       0       0       0       000010000D    145
     508       0       0       1       1                               0D    146
     508     141       0       0       0       0       0       000010000D    147
     508       0       0       1       1                               0D    148
     510     142       0       0       0       0       0       000010000D    149
     510       0       8       1       1                               0D    150
     116     143       0       0       0       0       0       000010000D    151
     116       0       0       1       0                               0D    152
     123     144       0       0       0       0       0       000010200D    153
     123       0       0       1       0                               0D    154
     192     145       0       0       0       0       0       000010000D    155
     192       0       0       1       1                               0D    156
     123     146       0       0       0       0       0       000010200D    157
     123       0       0       1       0                               0D    158
     110     147       0       0       0       0       0       000010000D    159
     110       0       0       2       0                               0D    160
     110     149       0       0       0       0       0       000010000D    161
     110       0       0       2       0                               0D    162
     508     151       0       0       0       0       0       000010000D    163
     508       0       0       1       1                               0D    164
     510     152       0       0       0       0       0       000010000D    165
     510       0       8       1       1                               0D    166
     116     153       0       0       0       0       0       000010000D    167
     116       0       0       1       0                               0D    168
     123     154       0       0       0       0       0       000010200D    169
     123       0       0       1       0                               0D    170
     192     155       0       0       0       0       0       000010000D    171
     192       0       0       1       1                               0D    172
     123     156       0       0       0       0       0       000010200D    173
     123       0       0       1       0                               0D    174
     110     157       0       0       0       0       0       000010000D    175
     110       0       0       2       0                               0D    176
     508     159       0       0       0       0       0       000010000D    177
     508       0       0       1       1                               0D    178
     510     160       0       0       0       0       0       000010000D    179
     510       0       8       1       1                               0D    180
     116     161       0       0       0       0       0       000010000D    181
     116       0       0       1       0                               0D    182
     123     162       0       0       0       0       0       000010200D    183
     123       0       0       1       0                               0D    184
     192     163       0       0       0       0       0       000010000D    185
     192       0       0       1       1                               0D    186
     123     164       0       0       0       0       0       000010200D    187
     123       0       0       1       0                               0D    188
     110     165       0       0       0       0       0       000010000D    189
     110       0       0       2       0                               0D    190
     508     167       0       0       0       0       0       000010000D    191
     508       0       0       1       1                               0D    192
     510     168       0       0       0       0       0       000010000D    193
     510       0       8       1       1                               0D    194
     116     169       0       0       0       0       0       000010000D    195
     116       0       0       1       0                               0D    196
     123     170       0       0       0       0       0       000010200D    197
     123       0       0       1       0                               0D    198
     192     171       0       0       0       0       0       000010000D    199
     192       0       0       1       1                               0D    200
     123     172       0       0       0       0       0       000010200D    201
     123       0       0       1       0                               0D    202
     110     173       0       0       0       0       0       000010000D    203
     110       0       0       2       0                               0D    204
     508     175       0       0       0       0       0       000010000D    205
     508       0       0       1       1                               0D    206
     510     176       0       0       0       0       0       000010000D    207
     510       0       8       1       1                               0D    208
     116     177       0       0       0       0       0       000010000D    209
     116       0       0       1       0                               0D    210
     123     178       0       0       0       0       0       000010200D    211
     123       0       0       1       0                               0D    212
     192     179       0       0       0       0       0       000010000D    213
     192       0       0       1       1                               0D    214
     123     180       0       0       0       0       0       000010200D    215
     123       0       0       1       0                               0D    216
     110     181       0       0       0       0       0       000010000D    217
     110       0       0       2       0                               0D    218
     508     183       0       0       0       0       0       000010000D    219
     508       0       0       1       1                               0D    220
     510     184       0       0       0       0       0       000010000D    221
     510       0       8       1       1                               0D    222
     116     185       0       0       0       0       0       000010000D    223
     116       0       0       1       0                               0D    224
     123     186       0       0       0       0       0       000010200D    225
     123       0       0       1       0                               0D    226
     192     187       0       0       0       0       0       000010000D    227
     192       0       0       1       1                               0D    228
     123     188       0       0       0       0       0       000010200D    229
     123       0       0       1       0                               0D    230
     508     189       0       0       0       0       0       000010000D    231
     508       0       0       1       1                               0D    232
     510     190       0       0       0       0       0       000010000D    233
     510       0       8       1       1                               0D    234
     514     191       0       0       0       0       0       000010000D    235
     514       0       0       2       1                               0D    236
     186     193       0       0       1       0       0       000000000D    237
     186       0       0       1       0                  Solid1       0D    238
406,2,0,11H_BASALT BED;                                                1P      1
120,7,5,0.0D0,6.28318530717959D0;                                      3P      2
110,120.9D0,72.1687836487032D0,10.00125D0,120.9D0,                     5P      3
72.1687836487032D0,-.47625D0;                                          5P      4
110,125.0D0,72.1687836487032D0,10.00125D0,125.0D0,                     7P      5
72.1687836487032D0,9.00125D0;                                          7P      6
504,24,13,11,1,11,1,19,11,2,11,2,33,11,3,11,3,39,11,4,11,4,53,         9P      7
11,5,11,5,59,11,6,11,6,75,11,7,11,8,79,11,8,11,9,83,11,9,11,10,        9P      8
87,11,10,11,11,91,11,11,11,12,95,11,12,11,7,117,11,13,11,14,121,       9P      9
11,14,11,15,125,11,15,11,16,129,11,16,11,17,133,11,17,11,18,137,       9P     10
11,18,11,13,159,11,14,11,7,161,11,15,11,12,175,11,16,11,11,189,        9P     11
11,17,11,10,203,11,18,11,9,217,11,13,11,8;                             9P     12
502,18,129.1D0,72.1687836487032D0,0.0D0,129.1D0,                      11P     13
72.1687836487032D0,9.525D0,-120.9D0,72.1687836487032D0,0.0D0,         11P     14
-120.9D0,72.1687836487032D0,9.525D0,4.1D0,-144.337567297406D0,        11P     15
0.0D0,4.1D0,-144.337567297406D0,9.525D0,-6.25000000000002D0,          11P     16
-155.162884844712D0,9.525D0,6.25000000000002D0,                       11P     17
-155.162884844712D0,9.525D0,137.5D0,72.1687836487032D0,9.525D0,       11P     18
131.250001529429D0,82.9941003129926D0,9.525D0,-131.25D0,              11P     19
82.9941011960087D0,9.525D0,-137.5D0,72.1687836487032D0,9.525D0,       11P     20
6.25000000000002D0,-155.162884844712D0,0.0D0,                         11P     21
-6.25000000000002D0,-155.162884844712D0,0.0D0,-137.5D0,               11P     22
72.1687836487032D0,0.0D0,-131.25D0,82.9941011960087D0,0.0D0,          11P     23
131.250001529429D0,82.9941003129926D0,0.0D0,137.5D0,                  11P     24
72.1687836487032D0,0.0D0;                                             11P     25
100,0.0D0,0.0D0,0.0D0,-4.1D0,5.02105187650415D-16,-4.1D0,             13P     26
5.02105187650415D-16;                                                 13P     27
124,-1.0D0,0.0D0,0.0D0,125.0D0,0.0D0,-1.0D0,0.0D0,                    15P     28
72.1687836487032D0,0.0D0,0.0D0,1.0D0,0.0D0;                           15P     29
508,1,0,9,1,0,0;                                                      17P     30
100,0.0D0,0.0D0,0.0D0,-4.1D0,5.02105187650415D-16,-4.1D0,             19P     31
5.02105187650415D-16;                                                 19P     32
124,-1.0D0,0.0D0,0.0D0,125.0D0,0.0D0,1.0D0,0.0D0,                     21P     33
72.1687836487032D0,0.0D0,0.0D0,-1.0D0,9.525D0;                        21P     34
508,1,0,9,2,0,0;                                                      23P     35
510,3,2,1,17,23;                                                      25P     36
120,31,29,0.0D0,6.28318530717959D0;                                   27P     37
110,-129.1D0,72.1687836487032D0,10.00125D0,-129.1D0,                  29P     38
72.1687836487032D0,-.47625D0;                                         29P     39
110,-125.0D0,72.1687836487032D0,10.00125D0,-125.0D0,                  31P     40
72.1687836487032D0,9.00125D0;                                         31P     41
100,0.0D0,0.0D0,0.0D0,-4.1D0,5.02105187650415D-16,-4.1D0,             33P     42
5.02105187650415D-16;                                                 33P     43
124,-1.0D0,0.0D0,0.0D0,-125.0D0,0.0D0,-1.0D0,0.0D0,                   35P     44
72.1687836487032D0,0.0D0,0.0D0,1.0D0,0.0D0;                           35P     45
508,1,0,9,3,0,0;                                                      37P     46
100,0.0D0,0.0D0,0.0D0,-4.1D0,5.02105187650415D-16,-4.1D0,             39P     47
5.02105187650415D-16;                                                 39P     48
124,-1.0D0,0.0D0,0.0D0,-125.0D0,0.0D0,1.0D0,0.0D0,                    41P     49
72.1687836487032D0,0.0D0,0.0D0,-1.0D0,9.525D0;                        41P     50
508,1,0,9,4,0,0;                                                      43P     51
510,27,2,1,37,43;                                                     45P     52
120,51,49,0.0D0,6.28318530717959D0;                                   47P     53
110,-4.1D0,-144.337567297406D0,10.00125D0,-4.1D0,                     49P     54
-144.337567297406D0,-.47625D0;                                        49P     55
110,0.0D0,-144.337567297406D0,10.00125D0,0.0D0,                       51P     56
-144.337567297406D0,9.00125D0;                                        51P     57
100,0.0D0,0.0D0,0.0D0,-4.1D0,5.02105187650415D-16,-4.1D0,             53P     58
5.02105187650415D-16;                                                 53P     59
124,-1.0D0,0.0D0,0.0D0,0.0D0,0.0D0,-1.0D0,0.0D0,                      55P     60
-144.337567297406D0,0.0D0,0.0D0,1.0D0,0.0D0;                          55P     61
508,1,0,9,5,0,0;                                                      57P     62
100,0.0D0,0.0D0,0.0D0,-4.1D0,5.02105187650415D-16,-4.1D0,             59P     63
5.02105187650415D-16;                                                 59P     64
124,-1.0D0,0.0D0,0.0D0,0.0D0,0.0D0,1.0D0,0.0D0,                       61P     65
-144.337567297406D0,0.0D0,0.0D0,-1.0D0,9.525D0;                       61P     66
508,1,0,9,6,0,0;                                                      63P     67
510,47,2,1,57,63;                                                     65P     68
116,3.94774302281047D-14,2.50023724777997D-13,9.525D0,0;              67P     69
123,0.0D0,0.0D0,1.0D0;                                                69P     70
190,67,69,73;                                                         71P     71
123,1.0D0,0.0D0,0.0D0;                                                73P     72
100,0.0D0,0.0D0,0.0D0,-12.5000000000001D0,1.5308084989342D-15,        75P     73
-6.25000000000007D0,-10.8253175473056D0;                              75P     74
124,.499999999999999D0,-.866025403784439D0,0.0D0,0.0D0,               77P     75
.866025403784439D0,.499999999999999D0,0.0D0,-144.337567297406D0,      77P     76
0.0D0,0.0D0,1.0D0,9.525D0;                                            77P     77
100,0.0D0,0.0D0,0.0D0,-262.5D0,3.2146978477618D-14,-131.25D0,         79P     78
-227.331668493415D0;                                                  79P     79
124,-.5D0,-.866025403784439D0,0.0D0,-125.0D0,.866025403784439D0,      81P     80
-.5D0,0.0D0,72.1687836487032D0,0.0D0,0.0D0,1.0D0,9.525D0;             81P     81
100,0.0D0,0.0D0,0.0D0,-12.5D0,1.53080849893419D-15,                   83P     82
-6.25000152942863D0,-10.8253166642893D0;                              83P     83
124,-1.0D0,0.0D0,0.0D0,125.0D0,0.0D0,-1.0D0,0.0D0,                    85P     84
72.1687836487032D0,0.0D0,0.0D0,1.0D0,9.525D0;                         85P     85
100,0.0D0,0.0D0,0.0D0,-262.5D0,3.2146978477618D-14,                   87P     86
-131.249998470571D0,-227.331669376431D0;                              87P     87
124,-.500000005826395D0,.866025400420568D0,0.0D0,0.0D0,               89P     88
-.866025400420568D0,-.500000005826395D0,0.0D0,                        89P     89
-144.337567297406D0,0.0D0,0.0D0,1.0D0,9.525D0;                        89P     90
100,0.0D0,0.0D0,0.0D0,-12.5D0,-4.02030662419158D-15,                  91P     91
-6.24999999999999D0,-10.8253175473054D0;                              91P     92
124,.500000000000001D0,.866025403784438D0,0.0D0,-125.0D0,             93P     93
-.866025403784438D0,.500000000000001D0,0.0D0,72.1687836487032D0,      93P     94
0.0D0,0.0D0,1.0D0,9.525D0;                                            93P     95
100,0.0D0,0.0D0,0.0D0,-262.5D0,3.2146978477618D-14,-131.25D0,         95P     96
-227.331668493415D0;                                                  95P     97
124,1.0D0,0.0D0,0.0D0,125.0D0,0.0D0,1.0D0,0.0D0,                      97P     98
72.1687836487032D0,0.0D0,0.0D0,1.0D0,9.525D0;                         97P     99
508,6,0,9,7,1,0,0,9,8,1,0,0,9,9,1,0,0,9,10,1,0,0,9,11,1,0,0,9,        99P    100
12,1,0;                                                               99P    101
508,1,0,9,2,1,0;                                                     101P    102
508,1,0,9,4,1,0;                                                     103P    103
508,1,0,9,6,1,0;                                                     105P    104
510,71,4,1,99,101,103,105;                                           107P    105
116,3.94774302281047D-14,2.50023724777997D-13,0.0D0,0;               109P    106
123,0.0D0,0.0D0,-1.0D0;                                              111P    107
190,109,111,115;                                                     113P    108
123,-1.0D0,0.0D0,0.0D0;                                              115P    109
100,0.0D0,0.0D0,0.0D0,-6.25000000000007D0,10.8253175473056D0,        117P    110
-12.5000000000001D0,1.5308084989342D-15;                             117P    111
124,.499999999999999D0,.866025403784439D0,0.0D0,0.0D0,               119P    112
.866025403784439D0,-.499999999999999D0,0.0D0,                        119P    113
-144.337567297406D0,0.0D0,0.0D0,-1.0D0,0.0D0;                        119P    114
100,0.0D0,0.0D0,0.0D0,-131.25D0,227.331668493415D0,-262.5D0,         121P    115
3.2146978477618D-14;                                                 121P    116
124,1.0D0,0.0D0,0.0D0,125.0D0,0.0D0,-1.0D0,0.0D0,                    123P    117
72.1687836487032D0,0.0D0,0.0D0,-1.0D0,0.0D0;                         123P    118
100,0.0D0,0.0D0,0.0D0,-6.24999999999999D0,10.8253175473055D0,        125P    119
-12.5D0,7.08192362205995D-15;                                        125P    120
124,.500000000000001D0,-.866025403784438D0,0.0D0,-125.0D0,           127P    121
-.866025403784438D0,-.500000000000001D0,0.0D0,                       127P    122
72.1687836487032D0,0.0D0,0.0D0,-1.0D0,0.0D0;                         127P    123
100,0.0D0,0.0D0,0.0D0,-131.249998470571D0,227.331669376431D0,        129P    124
-262.5D0,3.2146978477618D-14;                                        129P    125
124,-.500000005826395D0,-.866025400420568D0,0.0D0,0.0D0,             131P    126
-.866025400420568D0,.500000005826395D0,0.0D0,                        131P    127
-144.337567297406D0,0.0D0,0.0D0,-1.0D0,0.0D0;                        131P    128
100,0.0D0,0.0D0,0.0D0,-6.25000152942864D0,10.8253166642893D0,        133P    129
-12.5D0,1.53080849893419D-15;                                        133P    130
124,-1.0D0,0.0D0,0.0D0,125.0D0,0.0D0,1.0D0,0.0D0,                    135P    131
72.1687836487032D0,0.0D0,0.0D0,-1.0D0,0.0D0;                         135P    132
100,0.0D0,0.0D0,0.0D0,-131.25D0,227.331668493415D0,-262.5D0,         137P    133
3.2146978477618D-14;                                                 137P    134
124,-.5D0,.866025403784439D0,0.0D0,-125.0D0,.866025403784439D0,      139P    135
.5D0,0.0D0,72.1687836487032D0,0.0D0,0.0D0,-1.0D0,0.0D0;              139P    136
508,6,0,9,13,1,0,0,9,14,1,0,0,9,15,1,0,0,9,16,1,0,0,9,17,1,0,0,      141P    137
9,18,1,0;                                                            141P    138
508,1,0,9,1,1,0;                                                     143P    139
508,1,0,9,3,1,0;                                                     145P    140
508,1,0,9,5,1,0;                                                     147P    141
510,113,4,1,141,143,145,147;                                         149P    142
116,125.0D0,72.1687836487032D0,0.0D0,0;                              151P    143
123,0.0D0,0.0D0,1.0D0;                                               153P    144
192,151,153,262.5D0,157;                                             155P    145
123,1.0D0,0.0D0,0.0D0;                                               157P    146
110,-6.25000000000002D0,-155.162884844712D0,0.0D0,                   159P    147
-6.25000000000002D0,-155.162884844712D0,9.525D0;                     159P    148
110,-137.5D0,72.1687836487032D0,0.0D0,-137.5D0,                      161P    149
72.1687836487032D0,9.525D0;                                          161P    150
508,4,0,9,14,0,0,0,9,19,1,0,0,9,12,0,0,0,9,20,0,0;                   163P    151
510,155,1,1,163;                                                     165P    152
116,-125.0D0,72.1687836487032D0,0.0D0,0;                             167P    153
123,0.0D0,0.0D0,1.0D0;                                               169P    154
192,167,169,12.5D0,173;                                              171P    155
123,.500000000000001D0,-.866025403784438D0,0.0D0;                    173P    156
110,-131.25D0,82.9941011960087D0,0.0D0,-131.25D0,                    175P    157
82.9941011960087D0,9.525D0;                                          175P    158
508,4,0,9,15,0,0,0,9,20,1,0,0,9,11,0,0,0,9,21,0,0;                   177P    159
510,171,1,1,177;                                                     179P    160
116,0.0D0,-144.337567297406D0,0.0D0,0;                               181P    161
123,0.0D0,0.0D0,1.0D0;                                               183P    162
192,181,183,262.5D0,187;                                             185P    163
123,-.500000005826395D0,-.866025400420568D0,0.0D0;                   187P    164
110,131.250001529429D0,82.9941003129926D0,0.0D0,                     189P    165
131.250001529429D0,82.9941003129926D0,9.525D0;                       189P    166
508,4,0,9,16,0,0,0,9,21,1,0,0,9,10,0,0,0,9,22,0,0;                   191P    167
510,185,1,1,191;                                                     193P    168
116,125.0D0,72.1687836487032D0,0.0D0,0;                              195P    169
123,0.0D0,0.0D0,1.0D0;                                               197P    170
192,195,197,12.5D0,201;                                              199P    171
123,-1.0D0,0.0D0,0.0D0;                                              201P    172
110,137.5D0,72.1687836487032D0,0.0D0,137.5D0,72.1687836487032D0,     203P    173
9.525D0;                                                             203P    174
508,4,0,9,17,0,0,0,9,22,1,0,0,9,9,0,0,0,9,23,0,0;                    205P    175
510,199,1,1,205;                                                     207P    176
116,-125.0D0,72.1687836487032D0,0.0D0,0;                             209P    177
123,0.0D0,0.0D0,1.0D0;                                               211P    178
192,209,211,262.5D0,215;                                             213P    179
123,-.5D0,.866025403784439D0,0.0D0;                                  215P    180
110,6.25000000000002D0,-155.162884844712D0,0.0D0,                    217P    181
6.25000000000002D0,-155.162884844712D0,9.525D0;                      217P    182
508,4,0,9,18,0,0,0,9,23,1,0,0,9,8,0,0,0,9,24,0,0;                    219P    183
510,213,1,1,219;                                                     221P    184
116,0.0D0,-144.337567297406D0,0.0D0,0;                               223P    185
123,0.0D0,0.0D0,1.0D0;                                               225P    186
192,223,225,12.5000000000001D0,229;                                  227P    187
123,.499999999999999D0,.866025403784439D0,0.0D0;                     229P    188
508,4,0,9,13,0,0,0,9,24,1,0,0,9,7,0,0,0,9,19,0,0;                    231P    189
510,227,1,1,231;                                                     233P    190
514,11,25,1,45,1,65,1,107,1,149,1,165,1,179,1,193,1,207,1,221,1,     235P    191
233,1;                                                               235P    192
186,235,1,0;                                                         237P    193
S      1G      4D    238P    193                                        T      1
