                                                                        S      1
,,16H_ELECTRONICS.ipt,27HNo Iges File Name specified,22HAutodesk InventoG      1
r 2013,37HAutoDesk Inventor Iges Exporter R2013,32,38,6,99,15,16H_ELECTRG      2
ONICS.ipt,1.0D0,2,2HMM,1,.08D0,15H20131210.105928,.01D0,10000.0D0,8HemplG      3
oyee,,11,0,,;                                                           G      4
     406       1       0       0       1       0       0       000000000D      1
     406       0       0       1       3                               0D      2
     120       2       0       0       0       0       0       000010000D      3
     120       0       0       1       0                               0D      4
     110       3       0       0       0       0       0       000010000D      5
     110       0       0       2       0                               0D      6
     110       5       0       0       0       0       0       001010000D      7
     110       0       0       2       0                               0D      8
     504       7       0       0       0       0       0       000010001D      9
     504       0       0       5       1                               0D     10
     502      12       0       0       0       0       0       000010000D     11
     502       0       0       7       1                               0D     12
     100      19       0       0       0       0      15       000010000D     13
     100       0       0       2       0                               0D     14
     124      21       0       0       0       0       0       000000000D     15
     124       0       0       2       0                               0D     16
     508      23       0       0       0       0       0       000010000D     17
     508       0       0       1       1                               0D     18
     100      24       0       0       0       0      21       000010000D     19
     100       0       0       1       0                               0D     20
     124      25       0       0       0       0       0       000000000D     21
     124       0       0       2       0                               0D     22
     508      27       0       0       0       0       0       000010000D     23
     508       0       0       1       1                               0D     24
     510      28       0       0       0       0       0       000010000D     25
     510       0    -203       1       1                               0D     26
     120      29       0       0       0       0       0       000010000D     27
     120       0       0       1       0                               0D     28
     110      30       0       0       0       0       0       000010000D     29
     110       0       0       2       0                               0D     30
     110      32       0       0       0       0       0       001010000D     31
     110       0       0       2       0                               0D     32
     100      34       0       0       0       0      35       000010000D     33
     100       0       0       2       0                               0D     34
     124      36       0       0       0       0       0       000000000D     35
     124       0       0       2       0                               0D     36
     508      38       0       0       0       0       0       000010000D     37
     508       0       0       1       1                               0D     38
     100      39       0       0       0       0      41       000010000D     39
     100       0       0       1       0                               0D     40
     124      40       0       0       0       0       0       000000000D     41
     124       0       0       2       0                               0D     42
     508      42       0       0       0       0       0       000010000D     43
     508       0       0       1       1                               0D     44
     510      43       0       0       0       0       0       000010000D     45
     510       0    -203       1       1                               0D     46
     120      44       0       0       0       0       0       000010000D     47
     120       0       0       1       0                               0D     48
     110      45       0       0       0       0       0       000010000D     49
     110       0       0       2       0                               0D     50
     110      47       0       0       0       0       0       001010000D     51
     110       0       0       2       0                               0D     52
     100      49       0       0       0       0      55       000010000D     53
     100       0       0       2       0                               0D     54
     124      51       0       0       0       0       0       000000000D     55
     124       0       0       2       0                               0D     56
     508      53       0       0       0       0       0       000010000D     57
     508       0       0       1       1                               0D     58
     100      54       0       0       0       0      61       000010000D     59
     100       0       0       1       0                               0D     60
     124      55       0       0       0       0       0       000000000D     61
     124       0       0       2       0                               0D     62
     508      57       0       0       0       0       0       000010000D     63
     508       0       0       1       1                               0D     64
     510      58       0       0       0       0       0       000010000D     65
     510       0    -203       1       1                               0D     66
     120      59       0       0       0       0       0       000010000D     67
     120       0       0       1       0                               0D     68
     110      60       0       0       0       0       0       000010000D     69
     110       0       0       2       0                               0D     70
     110      62       0       0       0       0       0       001010000D     71
     110       0       0       2       0                               0D     72
     100      64       0       0       0       0      75       000010000D     73
     100       0       0       2       0                               0D     74
     124      66       0       0       0       0       0       000000000D     75
     124       0       0       2       0                               0D     76
     508      68       0       0       0       0       0       000010000D     77
     508       0       0       1       1                               0D     78
     100      69       0       0       0       0      81       000010000D     79
     100       0       0       1       0                               0D     80
     124      70       0       0       0       0       0       000000000D     81
     124       0       0       2       0                               0D     82
     508      72       0       0       0       0       0       000010000D     83
     508       0       0       1       1                               0D     84
     510      73       0       0       0       0       0       000010000D     85
     510       0    -203       1       1                               0D     86
     116      74       0       0       0       0       0       000010000D     87
     116       0       0       1       0                               0D     88
     123      75       0       0       0       0       0       000010200D     89
     123       0       0       1       0                               0D     90
     190      76       0       0       0       0       0       000010000D     91
     190       0       0       1       1                               0D     92
     123      77       0       0       0       0       0       000010200D     93
     123       0       0       1       0                               0D     94
     110      78       0       0       0       0       0       000010000D     95
     110       0       0       1       0                               0D     96
     110      79       0       0       0       0       0       000010000D     97
     110       0       0       1       0                               0D     98
     110      80       0       0       0       0       0       000010000D     99
     110       0       0       1       0                               0D    100
     110      81       0       0       0       0       0       000010000D    101
     110       0       0       1       0                               0D    102
     508      82       0       0       0       0       0       000010000D    103
     508       0       0       1       1                               0D    104
     510      83       0       0       0       0       0       000010000D    105
     510       0    -203       1       1                               0D    106
     116      84       0       0       0       0       0       000010000D    107
     116       0       0       1       0                               0D    108
     123      85       0       0       0       0       0       000010200D    109
     123       0       0       1       0                               0D    110
     190      86       0       0       0       0       0       000010000D    111
     190       0       0       1       1                               0D    112
     123      87       0       0       0       0       0       000010200D    113
     123       0       0       1       0                               0D    114
     110      88       0       0       0       0       0       000010000D    115
     110       0       0       1       0                               0D    116
     110      89       0       0       0       0       0       000010000D    117
     110       0       0       1       0                               0D    118
     110      90       0       0       0       0       0       000010000D    119
     110       0       0       1       0                               0D    120
     508      91       0       0       0       0       0       000010000D    121
     508       0       0       1       1                               0D    122
     510      92       0       0       0       0       0       000010000D    123
     510       0    -203       1       1                               0D    124
     116      93       0       0       0       0       0       000010000D    125
     116       0       0       1       0                               0D    126
     123      94       0       0       0       0       0       000010200D    127
     123       0       0       1       0                               0D    128
     190      95       0       0       0       0       0       000010000D    129
     190       0       0       1       1                               0D    130
     123      96       0       0       0       0       0       000010200D    131
     123       0       0       1       0                               0D    132
     110      97       0       0       0       0       0       000010000D    133
     110       0       0       1       0                               0D    134
     110      98       0       0       0       0       0       000010000D    135
     110       0       0       1       0                               0D    136
     110      99       0       0       0       0       0       000010000D    137
     110       0       0       1       0                               0D    138
     508     100       0       0       0       0       0       000010000D    139
     508       0       0       1       1                               0D    140
     510     101       0       0       0       0       0       000010000D    141
     510       0    -203       1       1                               0D    142
     116     102       0       0       0       0       0       000010000D    143
     116       0       0       1       0                               0D    144
     123     103       0       0       0       0       0       000010200D    145
     123       0       0       1       0                               0D    146
     190     104       0       0       0       0       0       000010000D    147
     190       0       0       1       1                               0D    148
     123     105       0       0       0       0       0       000010200D    149
     123       0       0       1       0                               0D    150
     110     106       0       0       0       0       0       000010000D    151
     110       0       0       1       0                               0D    152
     110     107       0       0       0       0       0       000010000D    153
     110       0       0       1       0                               0D    154
     508     108       0       0       0       0       0       000010000D    155
     508       0       0       1       1                               0D    156
     510     109       0       0       0       0       0       000010000D    157
     510       0    -203       1       1                               0D    158
     116     110       0       0       0       0       0       000010000D    159
     116       0       0       1       0                               0D    160
     123     111       0       0       0       0       0       000010200D    161
     123       0       0       1       0                               0D    162
     190     112       0       0       0       0       0       000010000D    163
     190       0       0       1       1                               0D    164
     123     113       0       0       0       0       0       000010200D    165
     123       0       0       1       0                               0D    166
     508     114       0       0       0       0       0       000010000D    167
     508       0       0       1       1                               0D    168
     508     115       0       0       0       0       0       000010000D    169
     508       0       0       1       1                               0D    170
     508     116       0       0       0       0       0       000010000D    171
     508       0       0       1       1                               0D    172
     508     117       0       0       0       0       0       000010000D    173
     508       0       0       1       1                               0D    174
     508     118       0       0       0       0       0       000010000D    175
     508       0       0       1       1                               0D    176
     510     119       0       0       0       0       0       000010000D    177
     510       0    -203       1       1                               0D    178
     116     120       0       0       0       0       0       000010000D    179
     116       0       0       1       0                               0D    180
     123     121       0       0       0       0       0       000010200D    181
     123       0       0       1       0                               0D    182
     190     122       0       0       0       0       0       000010000D    183
     190       0       0       1       1                               0D    184
     123     123       0       0       0       0       0       000010200D    185
     123       0       0       1       0                               0D    186
     508     124       0       0       0       0       0       000010000D    187
     508       0       0       1       1                               0D    188
     508     125       0       0       0       0       0       000010000D    189
     508       0       0       1       1                               0D    190
     508     126       0       0       0       0       0       000010000D    191
     508       0       0       1       1                               0D    192
     508     127       0       0       0       0       0       000010000D    193
     508       0       0       1       1                               0D    194
     508     128       0       0       0       0       0       000010000D    195
     508       0       0       1       1                               0D    196
     510     129       0       0       0       0       0       000010000D    197
     510       0    -203       1       1                               0D    198
     514     130       0       0       0       0       0       000010000D    199
     514       0       0       1       1                               0D    200
     186     131       0       0       1       0       0       000000000D    201
     186       0       0       1       0                  Solid1       0D    202
     314     132       0       0       0       0       0       000000000D    203
     314       0       3       1       0                               0D    204
406,2,0,12H_ELECTRONICS;                                               1P      1
120,7,5,0.0D0,6.28318530717959D0;                                      3P      2
110,47.039D0,-21.9075D0,-108.702242721945D0,47.039D0,-21.9075D0,       5P      3
5.25D0;                                                                5P      4
110,45.339D0,-21.9075D0,-108.702242721945D0,45.339D0,-21.9075D0,       7P      5
-107.702242721945D0;                                                   7P      6
504,20,13,11,1,11,1,19,11,2,11,2,33,11,3,11,3,39,11,4,11,4,53,         9P      7
11,5,11,5,59,11,6,11,6,73,11,7,11,7,79,11,8,11,8,95,11,9,11,10,        9P      8
97,11,10,11,11,99,11,12,11,11,101,11,9,11,12,115,11,13,11,9,117,       9P      9
11,14,11,12,119,11,13,11,14,133,11,15,11,13,135,11,16,11,14,137,       9P     10
11,15,11,16,151,11,10,11,15,153,11,11,11,16;                           9P     11
502,16,43.639D0,-21.9075D0,0.0D0,47.039D0,-21.9075D0,5.0D0,           11P     12
-47.039D0,21.9075D0,0.0D0,-43.639D0,21.9075D0,5.0D0,43.639D0,         11P     13
21.9075D0,0.0D0,47.039D0,21.9075D0,5.0D0,-47.039D0,-21.9075D0,        11P     14
0.0D0,-43.639D0,-21.9075D0,5.0D0,-50.8D0,25.4D0,0.0D0,-50.8D0,        11P     15
-25.4D0,0.0D0,-50.8D0,-25.4D0,5.0D0,-50.8D0,25.4D0,5.0D0,50.8D0,      11P     16
25.4D0,0.0D0,50.8D0,25.4D0,5.0D0,50.8D0,-25.4D0,0.0D0,50.8D0,         11P     17
-25.4D0,5.0D0;                                                        11P     18
100,0.0D0,0.0D0,0.0D0,-1.7D0,2.0818995585505D-16,-1.7D0,              13P     19
2.0818995585505D-16;                                                  13P     20
124,1.0D0,0.0D0,0.0D0,45.339D0,0.0D0,1.0D0,0.0D0,-21.9075D0,          15P     21
0.0D0,0.0D0,1.0D0,0.0D0;                                              15P     22
508,1,0,9,1,0,0;                                                      17P     23
100,0.0D0,0.0D0,0.0D0,1.7D0,0.0D0,1.7D0,0.0D0;                        19P     24
124,1.0D0,0.0D0,0.0D0,45.339D0,0.0D0,-1.0D0,0.0D0,-21.9075D0,         21P     25
0.0D0,0.0D0,-1.0D0,5.0D0;                                             21P     26
508,1,0,9,2,0,0;                                                      23P     27
510,3,2,1,17,23;                                                      25P     28
120,31,29,0.0D0,6.28318530717959D0;                                   27P     29
110,-43.639D0,21.9075D0,-108.702242721945D0,-43.639D0,21.9075D0,      29P     30
5.25D0;                                                               29P     31
110,-45.339D0,21.9075D0,-108.702242721945D0,-45.339D0,21.9075D0,      31P     32
-107.702242721945D0;                                                  31P     33
100,0.0D0,0.0D0,0.0D0,-1.7D0,2.0818995585505D-16,-1.7D0,              33P     34
2.0818995585505D-16;                                                  33P     35
124,1.0D0,0.0D0,0.0D0,-45.339D0,0.0D0,1.0D0,0.0D0,21.9075D0,          35P     36
0.0D0,0.0D0,1.0D0,0.0D0;                                              35P     37
508,1,0,9,3,0,0;                                                      37P     38
100,0.0D0,0.0D0,0.0D0,1.7D0,0.0D0,1.7D0,0.0D0;                        39P     39
124,1.0D0,0.0D0,0.0D0,-45.339D0,0.0D0,-1.0D0,0.0D0,21.9075D0,         41P     40
0.0D0,0.0D0,-1.0D0,5.0D0;                                             41P     41
508,1,0,9,4,0,0;                                                      43P     42
510,27,2,1,37,43;                                                     45P     43
120,51,49,0.0D0,6.28318530717959D0;                                   47P     44
110,47.039D0,21.9075D0,-108.702242721945D0,47.039D0,21.9075D0,        49P     45
5.25D0;                                                               49P     46
110,45.339D0,21.9075D0,-108.702242721945D0,45.339D0,21.9075D0,        51P     47
-107.702242721945D0;                                                  51P     48
100,0.0D0,0.0D0,0.0D0,-1.7D0,2.0818995585505D-16,-1.7D0,              53P     49
2.0818995585505D-16;                                                  53P     50
124,1.0D0,0.0D0,0.0D0,45.339D0,0.0D0,1.0D0,0.0D0,21.9075D0,           55P     51
0.0D0,0.0D0,1.0D0,0.0D0;                                              55P     52
508,1,0,9,5,0,0;                                                      57P     53
100,0.0D0,0.0D0,0.0D0,1.7D0,0.0D0,1.7D0,0.0D0;                        59P     54
124,1.0D0,0.0D0,0.0D0,45.339D0,0.0D0,-1.0D0,0.0D0,21.9075D0,          61P     55
0.0D0,0.0D0,-1.0D0,5.0D0;                                             61P     56
508,1,0,9,6,0,0;                                                      63P     57
510,47,2,1,57,63;                                                     65P     58
120,71,69,0.0D0,6.28318530717959D0;                                   67P     59
110,-43.639D0,-21.9075D0,-108.702242721945D0,-43.639D0,               69P     60
-21.9075D0,5.25D0;                                                    69P     61
110,-45.339D0,-21.9075D0,-108.702242721945D0,-45.339D0,               71P     62
-21.9075D0,-107.702242721945D0;                                       71P     63
100,0.0D0,0.0D0,0.0D0,-1.7D0,2.0818995585505D-16,-1.7D0,              73P     64
2.0818995585505D-16;                                                  73P     65
124,1.0D0,0.0D0,0.0D0,-45.339D0,0.0D0,1.0D0,0.0D0,-21.9075D0,         75P     66
0.0D0,0.0D0,1.0D0,0.0D0;                                              75P     67
508,1,0,9,7,0,0;                                                      77P     68
100,0.0D0,0.0D0,0.0D0,1.7D0,0.0D0,1.7D0,0.0D0;                        79P     69
124,1.0D0,0.0D0,0.0D0,-45.339D0,0.0D0,-1.0D0,0.0D0,-21.9075D0,        81P     70
0.0D0,0.0D0,-1.0D0,5.0D0;                                             81P     71
508,1,0,9,8,0,0;                                                      83P     72
510,67,2,1,77,83;                                                     85P     73
116,-50.8D0,25.4D0,0.0D0,0;                                           87P     74
123,-1.0D0,0.0D0,0.0D0;                                               89P     75
190,87,89,93;                                                         91P     76
123,0.0D0,-1.0D0,0.0D0;                                               93P     77
110,-50.8D0,25.4D0,0.0D0,-50.8D0,-25.4D0,0.0D0;                       95P     78
110,-50.8D0,-25.4D0,0.0D0,-50.8D0,-25.4D0,5.0D0;                      97P     79
110,-50.8D0,25.4D0,5.0D0,-50.8D0,-25.4D0,5.0D0;                       99P     80
110,-50.8D0,25.4D0,0.0D0,-50.8D0,25.4D0,5.0D0;                       101P     81
508,4,0,9,9,1,0,0,9,10,1,0,0,9,11,0,0,0,9,12,0,0;                    103P     82
510,91,1,1,103;                                                      105P     83
116,50.8D0,25.4D0,0.0D0,0;                                           107P     84
123,0.0D0,1.0D0,0.0D0;                                               109P     85
190,107,109,113;                                                     111P     86
123,-1.0D0,0.0D0,0.0D0;                                              113P     87
110,50.8D0,25.4D0,0.0D0,-50.8D0,25.4D0,0.0D0;                        115P     88
110,50.8D0,25.4D0,5.0D0,-50.8D0,25.4D0,5.0D0;                        117P     89
110,50.8D0,25.4D0,0.0D0,50.8D0,25.4D0,5.0D0;                         119P     90
508,4,0,9,13,1,0,0,9,12,1,0,0,9,14,0,0,0,9,15,0,0;                   121P     91
510,111,1,1,121;                                                     123P     92
116,50.8D0,-25.4D0,0.0D0,0;                                          125P     93
123,1.0D0,0.0D0,0.0D0;                                               127P     94
190,125,127,131;                                                     129P     95
123,0.0D0,1.0D0,0.0D0;                                               131P     96
110,50.8D0,-25.4D0,0.0D0,50.8D0,25.4D0,0.0D0;                        133P     97
110,50.8D0,-25.4D0,5.0D0,50.8D0,25.4D0,5.0D0;                        135P     98
110,50.8D0,-25.4D0,0.0D0,50.8D0,-25.4D0,5.0D0;                       137P     99
508,4,0,9,16,1,0,0,9,15,1,0,0,9,17,0,0,0,9,18,0,0;                   139P    100
510,129,1,1,139;                                                     141P    101
116,-50.8D0,-25.4D0,0.0D0,0;                                         143P    102
123,0.0D0,-1.0D0,0.0D0;                                              145P    103
190,143,145,149;                                                     147P    104
123,1.0D0,0.0D0,0.0D0;                                               149P    105
110,-50.8D0,-25.4D0,0.0D0,50.8D0,-25.4D0,0.0D0;                      151P    106
110,-50.8D0,-25.4D0,5.0D0,50.8D0,-25.4D0,5.0D0;                      153P    107
508,4,0,9,19,1,0,0,9,18,1,0,0,9,20,0,0,0,9,10,0,0;                   155P    108
510,147,1,1,155;                                                     157P    109
116,0.0D0,0.0D0,5.0D0,0;                                             159P    110
123,0.0D0,0.0D0,1.0D0;                                               161P    111
190,159,161,165;                                                     163P    112
123,1.0D0,0.0D0,0.0D0;                                               165P    113
508,4,0,9,20,1,0,0,9,17,1,0,0,9,14,1,0,0,9,11,1,0;                   167P    114
508,1,0,9,2,1,0;                                                     169P    115
508,1,0,9,4,1,0;                                                     171P    116
508,1,0,9,6,1,0;                                                     173P    117
508,1,0,9,8,1,0;                                                     175P    118
510,163,5,1,167,169,171,173,175;                                     177P    119
116,0.0D0,0.0D0,0.0D0,0;                                             179P    120
123,0.0D0,0.0D0,-1.0D0;                                              181P    121
190,179,181,185;                                                     183P    122
123,-1.0D0,0.0D0,0.0D0;                                              185P    123
508,4,0,9,19,0,0,0,9,9,0,0,0,9,13,0,0,0,9,16,0,0;                    187P    124
508,1,0,9,1,1,0;                                                     189P    125
508,1,0,9,3,1,0;                                                     191P    126
508,1,0,9,5,1,0;                                                     193P    127
508,1,0,9,7,1,0;                                                     195P    128
510,183,5,1,187,189,191,193,195;                                     197P    129
514,10,25,1,45,1,65,1,85,1,105,1,123,1,141,1,157,1,177,1,197,1;      199P    130
186,199,1,0;                                                         201P    131
314,12.9999995231628D0,54.0000021457672D0,12.9999995231628D0,;       203P    132
S      1G      4D    204P    132                                        T      1
