                                                                        S      1
,,19H_LEAD NUT BLANK.ipt,27HNo Iges File Name specified,22HAutodesk InveG      1
ntor 2013,37HAutoDesk Inventor Iges Exporter R2013,32,38,6,99,15,19H_LEAG      2
D NUT BLANK.ipt,1.0D0,2,2HMM,1,.08D0,15H20131210.105930,.01D0,10000.0D0,G      3
8Hemployee,,11,0,,;                                                     G      4
     406       1       0       0       1       0       0       000000000D      1
     406       0       0       1       3                               0D      2
     120       2       0       0       0       0       0       000010000D      3
     120       0       0       1       0                               0D      4
     110       3       0       0       0       0       0       000010000D      5
     110       0       0       2       0                               0D      6
     110       5       0       0       0       0       0       001010000D      7
     110       0       0       2       0                               0D      8
     504       7       0       0       0       0       0       000010001D      9
     504       0       0       3       1                               0D     10
     502      10       0       0       0       0       0       000010000D     11
     502       0       0       9       1                               0D     12
     100      19       0       0       0       0      15       000010000D     13
     100       0       0       2       0                               0D     14
     124      21       0       0       0       0       0       000000000D     15
     124       0       0       3       0                               0D     16
     508      24       0       0       0       0       0       000010000D     17
     508       0       0       1       1                               0D     18
     100      25       0       0       0       0      21       000010000D     19
     100       0       0       2       0                               0D     20
     124      27       0       0       0       0       0       000000000D     21
     124       0       0       3       0                               0D     22
     508      30       0       0       0       0       0       000010000D     23
     508       0       0       1       1                               0D     24
     510      31       0       0       0       0       0       000010000D     25
     510       0    -165       1       1                               0D     26
     120      32       0       0       0       0       0       000010000D     27
     120       0       0       1       0                               0D     28
     110      33       0       0       0       0       0       000010000D     29
     110       0       0       2       0                               0D     30
     110      35       0       0       0       0       0       001010000D     31
     110       0       0       2       0                               0D     32
     100      37       0       0       0       0      35       000010000D     33
     100       0       0       2       0                               0D     34
     124      39       0       0       0       0       0       000000000D     35
     124       0       0       3       0                               0D     36
     508      42       0       0       0       0       0       000010000D     37
     508       0       0       1       1                               0D     38
     100      43       0       0       0       0      41       000010000D     39
     100       0       0       2       0                               0D     40
     124      45       0       0       0       0       0       000000000D     41
     124       0       0       3       0                               0D     42
     508      48       0       0       0       0       0       000010000D     43
     508       0       0       1       1                               0D     44
     510      49       0       0       0       0       0       000010000D     45
     510       0    -165       1       1                               0D     46
     120      50       0       0       0       0       0       000010000D     47
     120       0       0       1       0                               0D     48
     110      51       0       0       0       0       0       000010000D     49
     110       0       0       1       0                               0D     50
     110      52       0       0       0       0       0       001010000D     51
     110       0       0       1       0                               0D     52
     100      53       0       0       0       0      55       000010000D     53
     100       0       0       2       0                               0D     54
     124      55       0       0       0       0       0       000000000D     55
     124       0       0       2       0                               0D     56
     508      57       0       0       0       0       0       000010000D     57
     508       0       0       1       1                               0D     58
     100      58       0       0       0       0      61       000010000D     59
     100       0       0       2       0                               0D     60
     124      60       0       0       0       0       0       000000000D     61
     124       0       0       2       0                               0D     62
     508      62       0       0       0       0       0       000010000D     63
     508       0       0       1       1                               0D     64
     510      63       0       0       0       0       0       000010000D     65
     510       0    -165       1       1                               0D     66
     116      64       0       0       0       0       0       000010000D     67
     116       0       0       1       0                               0D     68
     123      65       0       0       0       0       0       000010200D     69
     123       0       0       1       0                               0D     70
     192      66       0       0       0       0       0       000010000D     71
     192       0       0       1       1                               0D     72
     123      67       0       0       0       0       0       000010200D     73
     123       0       0       1       0                               0D     74
     100      68       0       0       0       0      77       000010000D     75
     100       0       0       2       0                               0D     76
     124      70       0       0       0       0       0       000000000D     77
     124       0       0       2       0                               0D     78
     508      72       0       0       0       0       0       000010000D     79
     508       0       0       1       1                               0D     80
     100      73       0       0       0       0      83       000010000D     81
     100       0       0       2       0                               0D     82
     124      75       0       0       0       0       0       000000000D     83
     124       0       0       2       0                               0D     84
     508      77       0       0       0       0       0       000010000D     85
     508       0       0       1       1                               0D     86
     510      78       0       0       0       0       0       000010000D     87
     510       0    -165       1       1                               0D     88
     116      79       0       0       0       0       0       000010000D     89
     116       0       0       1       0                               0D     90
     123      80       0       0       0       0       0       000010200D     91
     123       0       0       1       0                               0D     92
     190      81       0       0       0       0       0       000010000D     93
     190       0       0       1       1                               0D     94
     123      82       0       0       0       0       0       000010200D     95
     123       0       0       1       0                               0D     96
     508      83       0       0       0       0       0       000010000D     97
     508       0       0       1       1                               0D     98
     510      84       0       0       0       0       0       000010000D     99
     510       0    -165       1       1                               0D    100
     116      85       0       0       0       0       0       000010000D    101
     116       0       0       1       0                               0D    102
     123      86       0       0       0       0       0       000010200D    103
     123       0       0       1       0                               0D    104
     192      87       0       0       0       0       0       000010000D    105
     192       0       0       1       1                               0D    106
     123      88       0       0       0       0       0       000010200D    107
     123       0       0       1       0                               0D    108
     100      89       0       0       0       0     111       000010000D    109
     100       0       0       2       0                               0D    110
     124      91       0       0       0       0       0       000000000D    111
     124       0       0       2       0                               0D    112
     508      93       0       0       0       0       0       000010000D    113
     508       0       0       1       1                               0D    114
     100      94       0       0       0       0     117       000010000D    115
     100       0       0       2       0                               0D    116
     124      96       0       0       0       0       0       000000000D    117
     124       0       0       2       0                               0D    118
     508      98       0       0       0       0       0       000010000D    119
     508       0       0       1       1                               0D    120
     510      99       0       0       0       0       0       000010000D    121
     510       0    -165       1       1                               0D    122
     116     100       0       0       0       0       0       000010000D    123
     116       0       0       1       0                               0D    124
     123     101       0       0       0       0       0       000010200D    125
     123       0       0       1       0                               0D    126
     190     102       0       0       0       0       0       000010000D    127
     190       0       0       1       1                               0D    128
     123     103       0       0       0       0       0       000010200D    129
     123       0       0       1       0                               0D    130
     508     104       0       0       0       0       0       000010000D    131
     508       0       0       1       1                               0D    132
     508     105       0       0       0       0       0       000010000D    133
     508       0       0       1       1                               0D    134
     508     106       0       0       0       0       0       000010000D    135
     508       0       0       1       1                               0D    136
     508     107       0       0       0       0       0       000010000D    137
     508       0       0       1       1                               0D    138
     508     108       0       0       0       0       0       000010000D    139
     508       0       0       1       1                               0D    140
     510     109       0       0       0       0       0       000010000D    141
     510       0    -165       1       1                               0D    142
     116     110       0       0       0       0       0       000010000D    143
     116       0       0       1       0                               0D    144
     123     111       0       0       0       0       0       000010200D    145
     123       0       0       1       0                               0D    146
     190     112       0       0       0       0       0       000010000D    147
     190       0       0       1       1                               0D    148
     123     113       0       0       0       0       0       000010200D    149
     123       0       0       1       0                               0D    150
     508     114       0       0       0       0       0       000010000D    151
     508       0       0       1       1                               0D    152
     508     115       0       0       0       0       0       000010000D    153
     508       0       0       1       1                               0D    154
     508     116       0       0       0       0       0       000010000D    155
     508       0       0       1       1                               0D    156
     508     117       0       0       0       0       0       000010000D    157
     508       0       0       1       1                               0D    158
     510     118       0       0       0       0       0       000010000D    159
     510       0    -165       1       1                               0D    160
     514     119       0       0       0       0       0       000010000D    161
     514       0       0       1       1                               0D    162
     186     120       0       0       1       0       0       000000000D    163
     186       0       0       1       0                  Solid1       0D    164
     314     121       0       0       0       0       0       000000000D    165
     314       0       8       1       0                               0D    166
406,2,0,15H_LEAD NUT BLANK;                                            1P      1
120,7,5,0.0D0,6.28318530717959D0;                                      3P      2
110,11.0842879565702D0,-9.37645009349667D0,-.23876D0,                  5P      3
11.0842879565702D0,-9.37645009349667D0,5.01396D0;                      5P      4
110,12.3733379565702D0,-7.14375000000001D0,-.23876D0,                  7P      5
12.3733379565702D0,-7.14375000000001D0,.76124D0;                       7P      6
504,10,13,11,1,11,1,19,11,2,11,2,33,11,3,11,3,39,11,4,11,4,53,         9P      7
11,5,11,5,59,11,6,11,6,75,11,7,11,7,81,11,8,11,8,109,11,9,11,9,        9P      8
115,11,10,11,10;                                                       9P      9
502,10,13.6623879565702D0,-4.91104990650335D0,4.7752D0,               11P     10
13.6623879565702D0,-4.91104990650335D0,0.0D0,                         11P     11
-11.0842879565702D0,-9.37645009349666D0,4.7752D0,                     11P     12
-11.0842879565702D0,-9.37645009349666D0,0.0D0,-2.5781D0,              11P     13
14.2875D0,4.7752D0,-2.5781D0,14.2875D0,0.0D0,                         11P     14
-9.52499999999999D0,1.16647607618785D-15,38.1D0,                      11P     15
-9.52499999999999D0,1.16647607618785D-15,4.7752D0,19.05D0,            11P     16
2.33295215237571D-15,4.7752D0,19.05D0,2.33295215237571D-15,           11P     17
0.0D0;                                                                11P     18
100,0.0D0,0.0D0,0.0D0,-2.5781D0,-8.29180200626268D-16,-2.5781D0,      13P     19
-8.29180200626268D-16;                                                13P     20
124,-.5D0,-.866025403784438D0,0.0D0,12.3733379565702D0,               15P     21
-.866025403784438D0,.5D0,0.0D0,-7.14375000000001D0,0.0D0,0.0D0,       15P     22
-1.0D0,4.7752D0;                                                      15P     23
508,1,0,9,1,0,0;                                                      17P     24
100,0.0D0,0.0D0,0.0D0,-2.5781D0,1.46063258320263D-15,-2.5781D0,       19P     25
1.46063258320263D-15;                                                 19P     26
124,-.5D0,.866025403784438D0,0.0D0,12.3733379565702D0,                21P     27
-.866025403784438D0,-.5D0,0.0D0,-7.14375000000001D0,0.0D0,0.0D0,      21P     28
1.0D0,0.0D0;                                                          21P     29
508,1,0,9,2,0,0;                                                      23P     30
510,3,2,1,17,23;                                                      25P     31
120,31,29,0.0D0,6.28318530717959D0;                                   27P     32
110,-13.6623879565702D0,-4.91104990650333D0,-.23876D0,                29P     33
-13.6623879565702D0,-4.91104990650333D0,5.01396D0;                    29P     34
110,-12.3733379565702D0,-7.14375D0,-.23876D0,                         31P     35
-12.3733379565702D0,-7.14375D0,.76124D0;                              31P     36
100,0.0D0,0.0D0,0.0D0,-2.5781D0,3.15726191288179D-16,-2.5781D0,       33P     37
3.15726191288179D-16;                                                 33P     38
124,-.5D0,.866025403784439D0,0.0D0,-12.3733379565702D0,               35P     39
.866025403784439D0,.5D0,0.0D0,-7.14375D0,0.0D0,0.0D0,-1.0D0,          35P     40
4.7752D0;                                                             35P     41
508,1,0,9,3,0,0;                                                      37P     42
100,0.0D0,0.0D0,0.0D0,-2.5781D0,3.15726191288179D-16,-2.5781D0,       39P     43
3.15726191288179D-16;                                                 39P     44
124,-.5D0,-.866025403784439D0,0.0D0,-12.3733379565702D0,              41P     45
.866025403784439D0,-.5D0,0.0D0,-7.14375D0,0.0D0,0.0D0,1.0D0,          41P     46
0.0D0;                                                                41P     47
508,1,0,9,4,0,0;                                                      43P     48
510,27,2,1,37,43;                                                     45P     49
120,51,49,0.0D0,6.28318530717959D0;                                   47P     50
110,2.5781D0,14.2875D0,-.23876D0,2.5781D0,14.2875D0,5.01396D0;        49P     51
110,0.0D0,14.2875D0,-.23876D0,0.0D0,14.2875D0,.76124D0;               51P     52
100,0.0D0,0.0D0,0.0D0,-2.5781D0,3.15726191288179D-16,-2.5781D0,       53P     53
3.15726191288179D-16;                                                 53P     54
124,1.0D0,0.0D0,0.0D0,0.0D0,0.0D0,-1.0D0,0.0D0,14.2875D0,0.0D0,       55P     55
0.0D0,-1.0D0,4.7752D0;                                                55P     56
508,1,0,9,5,0,0;                                                      57P     57
100,0.0D0,0.0D0,0.0D0,-2.5781D0,3.15726191288179D-16,-2.5781D0,       59P     58
3.15726191288179D-16;                                                 59P     59
124,1.0D0,0.0D0,0.0D0,0.0D0,0.0D0,1.0D0,0.0D0,14.2875D0,0.0D0,        61P     60
0.0D0,1.0D0,0.0D0;                                                    61P     61
508,1,0,9,6,0,0;                                                      63P     62
510,47,2,1,57,63;                                                     65P     63
116,0.0D0,0.0D0,0.0D0,0;                                              67P     64
123,0.0D0,0.0D0,1.0D0;                                                69P     65
192,67,69,9.52499999999999D0,73;                                      71P     66
123,1.0D0,0.0D0,0.0D0;                                                73P     67
100,0.0D0,0.0D0,0.0D0,-9.52499999999999D0,1.16647607618785D-15,       75P     68
-9.52499999999999D0,1.16647607618785D-15;                             75P     69
124,1.0D0,0.0D0,0.0D0,0.0D0,0.0D0,1.0D0,0.0D0,0.0D0,0.0D0,0.0D0,      77P     70
1.0D0,38.1D0;                                                         77P     71
508,1,0,9,7,0,0;                                                      79P     72
100,0.0D0,0.0D0,0.0D0,-9.52499999999999D0,1.16647607618785D-15,       81P     73
-9.52499999999999D0,1.16647607618785D-15;                             81P     74
124,1.0D0,0.0D0,0.0D0,0.0D0,0.0D0,-1.0D0,0.0D0,0.0D0,0.0D0,           83P     75
0.0D0,-1.0D0,4.7752D0;                                                83P     76
508,1,0,9,8,0,0;                                                      85P     77
510,71,2,1,79,85;                                                     87P     78
116,4.85735832114572D-16,-1.94264746216126D-16,38.1D0,0;              89P     79
123,0.0D0,0.0D0,1.0D0;                                                91P     80
190,89,91,95;                                                         93P     81
123,1.0D0,0.0D0,0.0D0;                                                95P     82
508,1,0,9,7,1,0;                                                      97P     83
510,93,1,1,97;                                                        99P     84
116,0.0D0,0.0D0,0.0D0,0;                                             101P     85
123,0.0D0,0.0D0,1.0D0;                                               103P     86
192,101,103,19.05D0,107;                                             105P     87
123,-1.0D0,0.0D0,0.0D0;                                              107P     88
100,0.0D0,0.0D0,0.0D0,-19.05D0,2.33295215237571D-15,-19.05D0,        109P     89
2.33295215237571D-15;                                                109P     90
124,-1.0D0,0.0D0,0.0D0,0.0D0,0.0D0,-1.0D0,0.0D0,0.0D0,0.0D0,         111P     91
0.0D0,1.0D0,4.7752D0;                                                111P     92
508,1,0,9,9,0,0;                                                     113P     93
100,0.0D0,0.0D0,0.0D0,-19.05D0,2.33295215237571D-15,-19.05D0,        115P     94
2.33295215237571D-15;                                                115P     95
124,-1.0D0,0.0D0,0.0D0,0.0D0,0.0D0,1.0D0,0.0D0,0.0D0,0.0D0,          117P     96
0.0D0,-1.0D0,0.0D0;                                                  117P     97
508,1,0,9,10,0,0;                                                    119P     98
510,105,2,1,113,119;                                                 121P     99
116,-9.71471664229144D-16,-3.88529492432251D-16,4.7752D0,0;          123P    100
123,0.0D0,0.0D0,1.0D0;                                               125P    101
190,123,125,129;                                                     127P    102
123,1.0D0,0.0D0,0.0D0;                                               129P    103
508,1,0,9,9,1,0;                                                     131P    104
508,1,0,9,1,1,0;                                                     133P    105
508,1,0,9,3,1,0;                                                     135P    106
508,1,0,9,5,1,0;                                                     137P    107
508,1,0,9,8,1,0;                                                     139P    108
510,127,5,1,131,133,135,137,139;                                     141P    109
116,-9.71471664229144D-16,-3.88529492432251D-16,0.0D0,0;             143P    110
123,0.0D0,0.0D0,-1.0D0;                                              145P    111
190,143,145,149;                                                     147P    112
123,-1.0D0,0.0D0,0.0D0;                                              149P    113
508,1,0,9,10,1,0;                                                    151P    114
508,1,0,9,2,1,0;                                                     153P    115
508,1,0,9,4,1,0;                                                     155P    116
508,1,0,9,6,1,0;                                                     157P    117
510,147,4,1,151,153,155,157;                                         159P    118
514,8,25,1,45,1,65,1,87,1,99,1,121,1,141,1,159,1;                    161P    119
186,161,1,0;                                                         163P    120
314,75.0D0,75.0D0,75.0D0,;                                           165P    121
S      1G      4D    166P    121                                        T      1
