                                                                        S      1
,,17H_POWER SUPPLY.ipt,27HNo Iges File Name specified,22HAutodesk InventG      1
or 2013,37HAutoDesk Inventor Iges Exporter R2013,32,38,6,99,15,17H_POWERG      2
 SUPPLY.ipt,1.0D0,2,2HMM,1,.08D0,15H20131210.105933,.01D0,10000.0D0,8HemG      3
ployee,,11,0,,;                                                         G      4
     406       1       0       0       1       0       0       000000000D      1
     406       0       0       1       3                               0D      2
     120       2       0       0       0       0       0       000010000D      3
     120       0       0       1       0                               0D      4
     110       3       0       0       0       0       0       000010000D      5
     110       0       0       2       0                               0D      6
     110       5       0       0       0       0       0       001010000D      7
     110       0       0       2       0                               0D      8
     504       7       0       0       0       0       0       000010001D      9
     504       0       0       5       1                               0D     10
     502      12       0       0       0       0       0       000010000D     11
     502       0       0       7       1                               0D     12
     100      19       0       0       0       0      15       000010000D     13
     100       0       0       1       0                               0D     14
     124      20       0       0       0       0       0       000000000D     15
     124       0       0       2       0                               0D     16
     508      22       0       0       0       0       0       000010000D     17
     508       0       0       1       1                               0D     18
     510      23       0       0       0       0       0       000010000D     19
     510       0    -235       1       1                               0D     20
     120      24       0       0       0       0       0       000010000D     21
     120       0       0       1       0                               0D     22
     110      25       0       0       0       0       0       000010000D     23
     110       0       0       1       0                               0D     24
     110      26       0       0       0       0       0       001010000D     25
     110       0       0       1       0                               0D     26
     100      27       0       0       0       0      29       000010000D     27
     100       0       0       1       0                               0D     28
     124      28       0       0       0       0       0       000000000D     29
     124       0       0       2       0                               0D     30
     508      30       0       0       0       0       0       000010000D     31
     508       0       0       1       1                               0D     32
     508      31       0       0       0       0       0       000010000D     33
     508       0       0       1       1                               0D     34
     510      32       0       0       0       0       0       000010000D     35
     510       0    -235       1       1                               0D     36
     120      33       0       0       0       0       0       000010000D     37
     120       0       0       1       0                               0D     38
     110      34       0       0       0       0       0       000010000D     39
     110       0       0       2       0                               0D     40
     110      36       0       0       0       0       0       001010000D     41
     110       0       0       2       0                               0D     42
     100      38       0       0       0       0      45       000010000D     43
     100       0       0       1       0                               0D     44
     124      39       0       0       0       0       0       000000000D     45
     124       0       0       2       0                               0D     46
     508      41       0       0       0       0       0       000010000D     47
     508       0       0       1       1                               0D     48
     510      42       0       0       0       0       0       000010000D     49
     510       0    -235       1       1                               0D     50
     120      43       0       0       0       0       0       000010000D     51
     120       0       0       1       0                               0D     52
     110      44       0       0       0       0       0       000010000D     53
     110       0       0       1       0                               0D     54
     110      45       0       0       0       0       0       001010000D     55
     110       0       0       1       0                               0D     56
     100      46       0       0       0       0      59       000010000D     57
     100       0       0       1       0                               0D     58
     124      47       0       0       0       0       0       000000000D     59
     124       0       0       2       0                               0D     60
     508      49       0       0       0       0       0       000010000D     61
     508       0       0       1       1                               0D     62
     508      50       0       0       0       0       0       000010000D     63
     508       0       0       1       1                               0D     64
     510      51       0       0       0       0       0       000010000D     65
     510       0    -235       1       1                               0D     66
     120      52       0       0       0       0       0       000010000D     67
     120       0       0       1       0                               0D     68
     110      53       0       0       0       0       0       000010000D     69
     110       0       0       2       0                               0D     70
     110      55       0       0       0       0       0       001010000D     71
     110       0       0       2       0                               0D     72
     100      57       0       0       0       0      75       000010000D     73
     100       0       0       1       0                               0D     74
     124      58       0       0       0       0       0       000000000D     75
     124       0       0       2       0                               0D     76
     508      60       0       0       0       0       0       000010000D     77
     508       0       0       1       1                               0D     78
     510      61       0       0       0       0       0       000010000D     79
     510       0    -235       1       1                               0D     80
     120      62       0       0       0       0       0       000010000D     81
     120       0       0       1       0                               0D     82
     110      63       0       0       0       0       0       000010000D     83
     110       0       0       1       0                               0D     84
     110      64       0       0       0       0       0       001010000D     85
     110       0       0       1       0                               0D     86
     100      65       0       0       0       0      89       000010000D     87
     100       0       0       1       0                               0D     88
     124      66       0       0       0       0       0       000000000D     89
     124       0       0       2       0                               0D     90
     508      68       0       0       0       0       0       000010000D     91
     508       0       0       1       1                               0D     92
     508      69       0       0       0       0       0       000010000D     93
     508       0       0       1       1                               0D     94
     510      70       0       0       0       0       0       000010000D     95
     510       0    -235       1       1                               0D     96
     120      71       0       0       0       0       0       000010000D     97
     120       0       0       1       0                               0D     98
     110      72       0       0       0       0       0       000010000D     99
     110       0       0       2       0                               0D    100
     110      74       0       0       0       0       0       001010000D    101
     110       0       0       2       0                               0D    102
     100      76       0       0       0       0     105       000010000D    103
     100       0       0       1       0                               0D    104
     124      77       0       0       0       0       0       000000000D    105
     124       0       0       2       0                               0D    106
     508      79       0       0       0       0       0       000010000D    107
     508       0       0       1       1                               0D    108
     510      80       0       0       0       0       0       000010000D    109
     510       0    -235       1       1                               0D    110
     120      81       0       0       0       0       0       000010000D    111
     120       0       0       1       0                               0D    112
     110      82       0       0       0       0       0       000010000D    113
     110       0       0       1       0                               0D    114
     110      83       0       0       0       0       0       001010000D    115
     110       0       0       1       0                               0D    116
     100      84       0       0       0       0     119       000010000D    117
     100       0       0       1       0                               0D    118
     124      85       0       0       0       0       0       000000000D    119
     124       0       0       2       0                               0D    120
     508      87       0       0       0       0       0       000010000D    121
     508       0       0       1       1                               0D    122
     508      88       0       0       0       0       0       000010000D    123
     508       0       0       1       1                               0D    124
     510      89       0       0       0       0       0       000010000D    125
     510       0    -235       1       1                               0D    126
     116      90       0       0       0       0       0       000010000D    127
     116       0       0       1       0                               0D    128
     123      91       0       0       0       0       0       000010200D    129
     123       0       0       1       0                               0D    130
     190      92       0       0       0       0       0       000010000D    131
     190       0       0       1       1                               0D    132
     123      93       0       0       0       0       0       000010200D    133
     123       0       0       1       0                               0D    134
     110      94       0       0       0       0       0       000010000D    135
     110       0       0       1       0                               0D    136
     110      95       0       0       0       0       0       000010000D    137
     110       0       0       1       0                               0D    138
     110      96       0       0       0       0       0       000010000D    139
     110       0       0       1       0                               0D    140
     110      97       0       0       0       0       0       000010000D    141
     110       0       0       2       0                               0D    142
     508      99       0       0       0       0       0       000010000D    143
     508       0       0       1       1                               0D    144
     510     100       0       0       0       0       0       000010000D    145
     510       0    -235       1       1                               0D    146
     116     101       0       0       0       0       0       000010000D    147
     116       0       0       1       0                               0D    148
     123     102       0       0       0       0       0       000010200D    149
     123       0       0       1       0                               0D    150
     190     103       0       0       0       0       0       000010000D    151
     190       0       0       1       1                               0D    152
     123     104       0       0       0       0       0       000010200D    153
     123       0       0       1       0                               0D    154
     110     105       0       0       0       0       0       000010000D    155
     110       0       0       1       0                               0D    156
     110     106       0       0       0       0       0       000010000D    157
     110       0       0       1       0                               0D    158
     110     107       0       0       0       0       0       000010000D    159
     110       0       0       1       0                               0D    160
     508     108       0       0       0       0       0       000010000D    161
     508       0       0       1       1                               0D    162
     510     109       0       0       0       0       0       000010000D    163
     510       0    -235       1       1                               0D    164
     116     110       0       0       0       0       0       000010000D    165
     116       0       0       1       0                               0D    166
     123     111       0       0       0       0       0       000010200D    167
     123       0       0       1       0                               0D    168
     190     112       0       0       0       0       0       000010000D    169
     190       0       0       1       1                               0D    170
     123     113       0       0       0       0       0       000010200D    171
     123       0       0       1       0                               0D    172
     110     114       0       0       0       0       0       000010000D    173
     110       0       0       1       0                               0D    174
     110     115       0       0       0       0       0       000010000D    175
     110       0       0       1       0                               0D    176
     110     116       0       0       0       0       0       000010000D    177
     110       0       0       1       0                               0D    178
     508     117       0       0       0       0       0       000010000D    179
     508       0       0       1       1                               0D    180
     510     118       0       0       0       0       0       000010000D    181
     510       0    -235       1       1                               0D    182
     116     119       0       0       0       0       0       000010000D    183
     116       0       0       1       0                               0D    184
     123     120       0       0       0       0       0       000010200D    185
     123       0       0       1       0                               0D    186
     190     121       0       0       0       0       0       000010000D    187
     190       0       0       1       1                               0D    188
     123     122       0       0       0       0       0       000010200D    189
     123       0       0       1       0                               0D    190
     110     123       0       0       0       0       0       000010000D    191
     110       0       0       1       0                               0D    192
     110     124       0       0       0       0       0       000010000D    193
     110       0       0       1       0                               0D    194
     508     125       0       0       0       0       0       000010000D    195
     508       0       0       1       1                               0D    196
     510     126       0       0       0       0       0       000010000D    197
     510       0    -235       1       1                               0D    198
     116     127       0       0       0       0       0       000010000D    199
     116       0       0       1       0                               0D    200
     123     128       0       0       0       0       0       000010200D    201
     123       0       0       1       0                               0D    202
     190     129       0       0       0       0       0       000010000D    203
     190       0       0       1       1                               0D    204
     123     130       0       0       0       0       0       000010200D    205
     123       0       0       1       0                               0D    206
     508     131       0       0       0       0       0       000010000D    207
     508       0       0       1       1                               0D    208
     508     132       0       0       0       0       0       000010000D    209
     508       0       0       1       1                               0D    210
     508     133       0       0       0       0       0       000010000D    211
     508       0       0       1       1                               0D    212
     508     134       0       0       0       0       0       000010000D    213
     508       0       0       1       1                               0D    214
     508     135       0       0       0       0       0       000010000D    215
     508       0       0       1       1                               0D    216
     510     136       0       0       0       0       0       000010000D    217
     510       0    -235       1       1                               0D    218
     116     137       0       0       0       0       0       000010000D    219
     116       0       0       1       0                               0D    220
     123     138       0       0       0       0       0       000010200D    221
     123       0       0       1       0                               0D    222
     190     139       0       0       0       0       0       000010000D    223
     190       0       0       1       1                               0D    224
     123     140       0       0       0       0       0       000010200D    225
     123       0       0       1       0                               0D    226
     508     141       0       0       0       0       0       000010000D    227
     508       0       0       1       1                               0D    228
     510     142       0       0       0       0       0       000010000D    229
     510       0    -235       1       1                               0D    230
     514     143       0       0       0       0       0       000010000D    231
     514       0       0       2       1                               0D    232
     186     145       0       0       1       0       0       000000000D    233
     186       0       0       1       0                  Solid1       0D    234
     314     146       0       0       0       0       0       000000000D    235
     314       0       8       1       0                               0D    236
406,2,0,13H_POWER SUPPLY;                                              1P      1
120,7,5,0.0D0,6.28318530717959D0;                                      3P      2
110,182.5D0,32.5D0,44.0260049365563D0,184.20205D0,32.5D0,              5P      3
45.0486997531722D0;                                                    5P      4
110,182.5D0,32.5D0,44.0260049365563D0,182.5D0,32.5D0,                  7P      5
45.0260049365563D0;                                                    7P      6
504,20,13,11,1,11,1,27,11,2,11,2,43,11,3,11,3,57,11,4,11,4,73,         9P      7
11,5,11,5,87,11,6,11,6,103,11,7,11,7,117,11,8,11,8,135,11,9,11,        9P      8
10,137,11,10,11,11,139,11,12,11,11,141,11,9,11,12,155,11,13,11,        9P      9
9,157,11,14,11,12,159,11,13,11,14,173,11,15,11,13,175,11,16,11,        9P     10
14,177,11,15,11,16,191,11,10,11,15,193,11,11,11,16;                    9P     11
502,16,184.121D0,32.5D0,45.0D0,184.121D0,32.5D0,50.0D0,34.121D0,      11P     12
82.5D0,45.0D0,34.121D0,82.5D0,50.0D0,34.121D0,32.5D0,45.0D0,          11P     13
34.121D0,32.5D0,50.0D0,184.121D0,82.5D0,45.0D0,184.121D0,82.5D0,      11P     14
50.0D0,-3.52085954754864D-14,115.0D0,0.0D0,0.0D0,0.0D0,0.0D0,         11P     15
0.0D0,0.0D0,50.0D0,-3.52085954754864D-14,115.0D0,50.0D0,215.0D0,      11P     16
115.0D0,0.0D0,215.0D0,115.0D0,50.0D0,215.0D0,0.0D0,0.0D0,             11P     17
215.0D0,0.0D0,50.0D0;                                                 11P     18
100,0.0D0,0.0D0,0.0D0,1.621D0,0.0D0,1.621D0,0.0D0;                    13P     19
124,1.0D0,0.0D0,0.0D0,182.5D0,0.0D0,1.0D0,0.0D0,32.5D0,0.0D0,         15P     20
0.0D0,1.0D0,45.0D0;                                                   15P     21
508,1,0,9,1,1,0;                                                      17P     22
510,3,1,1,17;                                                         19P     23
120,25,23,0.0D0,6.28318530717959D0;                                   21P     24
110,184.121D0,32.5D0,44.75D0,184.121D0,32.5D0,50.25D0;                23P     25
110,182.5D0,32.5D0,44.75D0,182.5D0,32.5D0,45.75D0;                    25P     26
100,0.0D0,0.0D0,0.0D0,1.621D0,0.0D0,1.621D0,0.0D0;                    27P     27
124,1.0D0,0.0D0,0.0D0,182.5D0,0.0D0,-1.0D0,0.0D0,32.5D0,0.0D0,        29P     28
0.0D0,-1.0D0,50.0D0;                                                  29P     29
508,1,0,9,2,0,0;                                                      31P     30
508,1,0,9,1,0,0;                                                      33P     31
510,21,2,1,31,33;                                                     35P     32
120,41,39,0.0D0,6.28318530717959D0;                                   37P     33
110,32.5D0,82.5D0,44.0260049365563D0,34.20205D0,82.5D0,               39P     34
45.0486997531722D0;                                                   39P     35
110,32.5D0,82.5D0,44.0260049365563D0,32.5D0,82.5D0,                   41P     36
45.0260049365563D0;                                                   41P     37
100,0.0D0,0.0D0,0.0D0,1.621D0,0.0D0,1.621D0,0.0D0;                    43P     38
124,1.0D0,0.0D0,0.0D0,32.5D0,0.0D0,1.0D0,0.0D0,82.5D0,0.0D0,          45P     39
0.0D0,1.0D0,45.0D0;                                                   45P     40
508,1,0,9,3,1,0;                                                      47P     41
510,37,1,1,47;                                                        49P     42
120,55,53,0.0D0,6.28318530717959D0;                                   51P     43
110,34.121D0,82.5D0,44.75D0,34.121D0,82.5D0,50.25D0;                  53P     44
110,32.5D0,82.5D0,44.75D0,32.5D0,82.5D0,45.75D0;                      55P     45
100,0.0D0,0.0D0,0.0D0,1.621D0,0.0D0,1.621D0,0.0D0;                    57P     46
124,1.0D0,0.0D0,0.0D0,32.5D0,0.0D0,-1.0D0,0.0D0,82.5D0,0.0D0,         59P     47
0.0D0,-1.0D0,50.0D0;                                                  59P     48
508,1,0,9,4,0,0;                                                      61P     49
508,1,0,9,3,0,0;                                                      63P     50
510,51,2,1,61,63;                                                     65P     51
120,71,69,0.0D0,6.28318530717959D0;                                   67P     52
110,32.5D0,32.5D0,44.0260049365563D0,34.20205D0,32.5D0,               69P     53
45.0486997531722D0;                                                   69P     54
110,32.5D0,32.5D0,44.0260049365563D0,32.5D0,32.5D0,                   71P     55
45.0260049365563D0;                                                   71P     56
100,0.0D0,0.0D0,0.0D0,1.621D0,0.0D0,1.621D0,0.0D0;                    73P     57
124,1.0D0,0.0D0,0.0D0,32.5D0,0.0D0,1.0D0,0.0D0,32.5D0,0.0D0,          75P     58
0.0D0,1.0D0,45.0D0;                                                   75P     59
508,1,0,9,5,1,0;                                                      77P     60
510,67,1,1,77;                                                        79P     61
120,85,83,0.0D0,6.28318530717959D0;                                   81P     62
110,34.121D0,32.5D0,44.75D0,34.121D0,32.5D0,50.25D0;                  83P     63
110,32.5D0,32.5D0,44.75D0,32.5D0,32.5D0,45.75D0;                      85P     64
100,0.0D0,0.0D0,0.0D0,1.621D0,0.0D0,1.621D0,0.0D0;                    87P     65
124,1.0D0,0.0D0,0.0D0,32.5D0,0.0D0,-1.0D0,0.0D0,32.5D0,0.0D0,         89P     66
0.0D0,-1.0D0,50.0D0;                                                  89P     67
508,1,0,9,6,0,0;                                                      91P     68
508,1,0,9,5,0,0;                                                      93P     69
510,81,2,1,91,93;                                                     95P     70
120,101,99,0.0D0,6.28318530717959D0;                                  97P     71
110,182.5D0,82.5D0,44.0260049365563D0,184.20205D0,82.5D0,             99P     72
45.0486997531722D0;                                                   99P     73
110,182.5D0,82.5D0,44.0260049365563D0,182.5D0,82.5D0,                101P     74
45.0260049365563D0;                                                  101P     75
100,0.0D0,0.0D0,0.0D0,1.621D0,0.0D0,1.621D0,0.0D0;                   103P     76
124,1.0D0,0.0D0,0.0D0,182.5D0,0.0D0,1.0D0,0.0D0,82.5D0,0.0D0,        105P     77
0.0D0,1.0D0,45.0D0;                                                  105P     78
508,1,0,9,7,1,0;                                                     107P     79
510,97,1,1,107;                                                      109P     80
120,115,113,0.0D0,6.28318530717959D0;                                111P     81
110,184.121D0,82.5D0,44.75D0,184.121D0,82.5D0,50.25D0;               113P     82
110,182.5D0,82.5D0,44.75D0,182.5D0,82.5D0,45.75D0;                   115P     83
100,0.0D0,0.0D0,0.0D0,1.621D0,0.0D0,1.621D0,0.0D0;                   117P     84
124,1.0D0,0.0D0,0.0D0,182.5D0,0.0D0,-1.0D0,0.0D0,82.5D0,0.0D0,       119P     85
0.0D0,-1.0D0,50.0D0;                                                 119P     86
508,1,0,9,8,0,0;                                                     121P     87
508,1,0,9,7,0,0;                                                     123P     88
510,111,2,1,121,123;                                                 125P     89
116,-3.52085954754864D-14,115.0D0,0.0D0,0;                           127P     90
123,-1.0D0,0.0D0,0.0D0;                                              129P     91
190,127,129,133;                                                     131P     92
123,0.0D0,-1.0D0,0.0D0;                                              133P     93
110,-3.52085954754864D-14,115.0D0,0.0D0,0.0D0,0.0D0,0.0D0;           135P     94
110,0.0D0,0.0D0,0.0D0,0.0D0,0.0D0,50.0D0;                            137P     95
110,-3.52085954754864D-14,115.0D0,50.0D0,0.0D0,0.0D0,50.0D0;         139P     96
110,-3.52085954754864D-14,115.0D0,0.0D0,-3.52085954754864D-14,       141P     97
115.0D0,50.0D0;                                                      141P     98
508,4,0,9,9,1,0,0,9,10,1,0,0,9,11,0,0,0,9,12,0,0;                    143P     99
510,131,1,1,143;                                                     145P    100
116,215.0D0,115.0D0,0.0D0,0;                                         147P    101
123,0.0D0,1.0D0,0.0D0;                                               149P    102
190,147,149,153;                                                     151P    103
123,-1.0D0,0.0D0,0.0D0;                                              153P    104
110,215.0D0,115.0D0,0.0D0,-2.8421709430404D-14,115.0D0,0.0D0;        155P    105
110,215.0D0,115.0D0,50.0D0,-2.8421709430404D-14,115.0D0,50.0D0;      157P    106
110,215.0D0,115.0D0,0.0D0,215.0D0,115.0D0,50.0D0;                    159P    107
508,4,0,9,13,1,0,0,9,12,1,0,0,9,14,0,0,0,9,15,0,0;                   161P    108
510,151,1,1,161;                                                     163P    109
116,215.0D0,0.0D0,0.0D0,0;                                           165P    110
123,1.0D0,0.0D0,0.0D0;                                               167P    111
190,165,167,171;                                                     169P    112
123,0.0D0,1.0D0,0.0D0;                                               171P    113
110,215.0D0,0.0D0,0.0D0,215.0D0,115.0D0,0.0D0;                       173P    114
110,215.0D0,0.0D0,50.0D0,215.0D0,115.0D0,50.0D0;                     175P    115
110,215.0D0,0.0D0,0.0D0,215.0D0,0.0D0,50.0D0;                        177P    116
508,4,0,9,16,1,0,0,9,15,1,0,0,9,17,0,0,0,9,18,0,0;                   179P    117
510,169,1,1,179;                                                     181P    118
116,0.0D0,0.0D0,0.0D0,0;                                             183P    119
123,0.0D0,-1.0D0,0.0D0;                                              185P    120
190,183,185,189;                                                     187P    121
123,1.0D0,0.0D0,0.0D0;                                               189P    122
110,0.0D0,0.0D0,0.0D0,215.0D0,0.0D0,0.0D0;                           191P    123
110,0.0D0,0.0D0,50.0D0,215.0D0,0.0D0,50.0D0;                         193P    124
508,4,0,9,19,1,0,0,9,18,1,0,0,9,20,0,0,0,9,10,0,0;                   195P    125
510,187,1,1,195;                                                     197P    126
116,107.5D0,57.5D0,50.0D0,0;                                         199P    127
123,0.0D0,0.0D0,1.0D0;                                               201P    128
190,199,201,205;                                                     203P    129
123,1.0D0,0.0D0,0.0D0;                                               205P    130
508,4,0,9,20,1,0,0,9,17,1,0,0,9,14,1,0,0,9,11,1,0;                   207P    131
508,1,0,9,2,1,0;                                                     209P    132
508,1,0,9,4,1,0;                                                     211P    133
508,1,0,9,6,1,0;                                                     213P    134
508,1,0,9,8,1,0;                                                     215P    135
510,203,5,1,207,209,211,213,215;                                     217P    136
116,107.5D0,57.5D0,0.0D0,0;                                          219P    137
123,0.0D0,0.0D0,-1.0D0;                                              221P    138
190,219,221,225;                                                     223P    139
123,-1.0D0,0.0D0,0.0D0;                                              225P    140
508,4,0,9,19,0,0,0,9,9,0,0,0,9,13,0,0,0,9,16,0,0;                    227P    141
510,223,1,1,227;                                                     229P    142
514,14,19,1,35,1,49,1,65,1,79,1,95,1,109,1,125,1,145,1,163,1,        231P    143
181,1,197,1,217,1,229,1;                                             231P    144
186,231,1,0;                                                         233P    145
314,75.0D0,75.0D0,75.0D0,;                                           235P    146
S      1G      4D    236P    146                                        T      1
