                                                                        S      1
,,15H_SIDE BOARD.ipt,27HNo Iges File Name specified,22HAutodesk InventorG      1
 2013,37HAutoDesk Inventor Iges Exporter R2013,32,38,6,99,15,15H_SIDE BOG      2
ARD.ipt,1.0D0,2,2HMM,1,.08D0,15H20131210.105935,.01D0,10000.0D0,8HemployG      3
ee,,11,0,,;                                                             G      4
     406       1       0       0       1       0       0       000000000D      1
     406       0       0       1       3                               0D      2
     116       2       0       0       0       0       0       000010000D      3
     116       0       0       1       0                               0D      4
     123       3       0       0       0       0       0       000010200D      5
     123       0       0       1       0                               0D      6
     190       4       0       0       0       0       0       000010000D      7
     190       0       0       1       1                               0D      8
     123       5       0       0       0       0       0       000010200D      9
     123       0       0       1       0                               0D     10
     504       6       0       0       0       0       0       000010001D     11
     504       0       0       9       1                               0D     12
     502      15       0       0       0       0       0       000010000D     13
     502       0       0      15       1                               0D     14
     110      30       0       0       0       0       0       000010000D     15
     110       0       0       2       0                               0D     16
     110      32       0       0       0       0       0       000010000D     17
     110       0       0       2       0                               0D     18
     110      34       0       0       0       0       0       000010000D     19
     110       0       0       2       0                               0D     20
     110      36       0       0       0       0       0       000010000D     21
     110       0       0       2       0                               0D     22
     508      38       0       0       0       0       0       000010000D     23
     508       0       0       1       1                               0D     24
     510      39       0       0       0       0       0       000010000D     25
     510       0    -251       1       1                               0D     26
     116      40       0       0       0       0       0       000010000D     27
     116       0       0       1       0                               0D     28
     123      41       0       0       0       0       0       000010200D     29
     123       0       0       1       0                               0D     30
     190      42       0       0       0       0       0       000010000D     31
     190       0       0       1       1                               0D     32
     123      43       0       0       0       0       0       000010200D     33
     123       0       0       1       0                               0D     34
     110      44       0       0       0       0       0       000010000D     35
     110       0       0       2       0                               0D     36
     110      46       0       0       0       0       0       000010000D     37
     110       0       0       2       0                               0D     38
     110      48       0       0       0       0       0       000010000D     39
     110       0       0       2       0                               0D     40
     110      50       0       0       0       0       0       000010000D     41
     110       0       0       2       0                               0D     42
     508      52       0       0       0       0       0       000010000D     43
     508       0       0       1       1                               0D     44
     510      53       0       0       0       0       0       000010000D     45
     510       0    -251       1       1                               0D     46
     116      54       0       0       0       0       0       000010000D     47
     116       0       0       1       0                               0D     48
     123      55       0       0       0       0       0       000010200D     49
     123       0       0       1       0                               0D     50
     190      56       0       0       0       0       0       000010000D     51
     190       0       0       1       1                               0D     52
     123      57       0       0       0       0       0       000010200D     53
     123       0       0       1       0                               0D     54
     110      58       0       0       0       0       0       000010000D     55
     110       0       0       2       0                               0D     56
     110      60       0       0       0       0       0       000010000D     57
     110       0       0       2       0                               0D     58
     508      62       0       0       0       0       0       000010000D     59
     508       0       0       1       1                               0D     60
     510      63       0       0       0       0       0       000010000D     61
     510       0    -251       1       1                               0D     62
     116      64       0       0       0       0       0       000010000D     63
     116       0       0       1       0                               0D     64
     123      65       0       0       0       0       0       000010200D     65
     123       0       0       1       0                               0D     66
     190      66       0       0       0       0       0       000010000D     67
     190       0       0       1       1                               0D     68
     123      67       0       0       0       0       0       000010200D     69
     123       0       0       1       0                               0D     70
     110      68       0       0       0       0       0       000010000D     71
     110       0       0       2       0                               0D     72
     110      70       0       0       0       0       0       000010000D     73
     110       0       0       2       0                               0D     74
     110      72       0       0       0       0       0       000010000D     75
     110       0       0       2       0                               0D     76
     110      74       0       0       0       0       0       000010000D     77
     110       0       0       1       0                               0D     78
     110      75       0       0       0       0       0       000010000D     79
     110       0       0       1       0                               0D     80
     110      76       0       0       0       0       0       000010000D     81
     110       0       0       1       0                               0D     82
     110      77       0       0       0       0       0       000010000D     83
     110       0       0       2       0                               0D     84
     110      79       0       0       0       0       0       000010000D     85
     110       0       0       2       0                               0D     86
     110      81       0       0       0       0       0       000010000D     87
     110       0       0       2       0                               0D     88
     508      83       0       0       0       0       0       000010000D     89
     508       0       0       3       1                               0D     90
     510      86       0       0       0       0       0       000010000D     91
     510       0    -251       1       1                               0D     92
     116      87       0       0       0       0       0       000010000D     93
     116       0       0       1       0                               0D     94
     123      88       0       0       0       0       0       000010200D     95
     123       0       0       1       0                               0D     96
     190      89       0       0       0       0       0       000010000D     97
     190       0       0       1       1                               0D     98
     123      90       0       0       0       0       0       000010200D     99
     123       0       0       1       0                               0D    100
     110      91       0       0       0       0       0       000010000D    101
     110       0       0       2       0                               0D    102
     110      93       0       0       0       0       0       000010000D    103
     110       0       0       2       0                               0D    104
     508      95       0       0       0       0       0       000010000D    105
     508       0       0       1       1                               0D    106
     510      96       0       0       0       0       0       000010000D    107
     510       0    -251       1       1                               0D    108
     116      97       0       0       0       0       0       000010000D    109
     116       0       0       1       0                               0D    110
     123      98       0       0       0       0       0       000010200D    111
     123       0       0       1       0                               0D    112
     190      99       0       0       0       0       0       000010000D    113
     190       0       0       1       1                               0D    114
     123     100       0       0       0       0       0       000010200D    115
     123       0       0       1       0                               0D    116
     110     101       0       0       0       0       0       000010000D    117
     110       0       0       2       0                               0D    118
     110     103       0       0       0       0       0       000010000D    119
     110       0       0       2       0                               0D    120
     508     105       0       0       0       0       0       000010000D    121
     508       0       0       1       1                               0D    122
     510     106       0       0       0       0       0       000010000D    123
     510       0    -251       1       1                               0D    124
     116     107       0       0       0       0       0       000010000D    125
     116       0       0       1       0                               0D    126
     123     108       0       0       0       0       0       000010200D    127
     123       0       0       1       0                               0D    128
     190     109       0       0       0       0       0       000010000D    129
     190       0       0       1       1                               0D    130
     123     110       0       0       0       0       0       000010200D    131
     123       0       0       1       0                               0D    132
     110     111       0       0       0       0       0       000010000D    133
     110       0       0       2       0                               0D    134
     110     113       0       0       0       0       0       000010000D    135
     110       0       0       2       0                               0D    136
     508     115       0       0       0       0       0       000010000D    137
     508       0       0       1       1                               0D    138
     510     116       0       0       0       0       0       000010000D    139
     510       0    -251       1       1                               0D    140
     116     117       0       0       0       0       0       000010000D    141
     116       0       0       1       0                               0D    142
     123     118       0       0       0       0       0       000010200D    143
     123       0       0       1       0                               0D    144
     190     119       0       0       0       0       0       000010000D    145
     190       0       0       1       1                               0D    146
     123     120       0       0       0       0       0       000010200D    147
     123       0       0       1       0                               0D    148
     110     121       0       0       0       0       0       000010000D    149
     110       0       0       2       0                               0D    150
     110     123       0       0       0       0       0       000010000D    151
     110       0       0       2       0                               0D    152
     508     125       0       0       0       0       0       000010000D    153
     508       0       0       1       1                               0D    154
     510     126       0       0       0       0       0       000010000D    155
     510       0    -251       1       1                               0D    156
     116     127       0       0       0       0       0       000010000D    157
     116       0       0       1       0                               0D    158
     123     128       0       0       0       0       0       000010200D    159
     123       0       0       1       0                               0D    160
     190     129       0       0       0       0       0       000010000D    161
     190       0       0       1       1                               0D    162
     123     130       0       0       0       0       0       000010200D    163
     123       0       0       1       0                               0D    164
     110     131       0       0       0       0       0       000010000D    165
     110       0       0       2       0                               0D    166
     110     133       0       0       0       0       0       000010000D    167
     110       0       0       1       0                               0D    168
     508     134       0       0       0       0       0       000010000D    169
     508       0       0       1       1                               0D    170
     510     135       0       0       0       0       0       000010000D    171
     510       0    -251       1       1                               0D    172
     116     136       0       0       0       0       0       000010000D    173
     116       0       0       1       0                               0D    174
     123     137       0       0       0       0       0       000010200D    175
     123       0       0       1       0                               0D    176
     190     138       0       0       0       0       0       000010000D    177
     190       0       0       1       1                               0D    178
     123     139       0       0       0       0       0       000010200D    179
     123       0       0       1       0                               0D    180
     110     140       0       0       0       0       0       000010000D    181
     110       0       0       1       0                               0D    182
     110     141       0       0       0       0       0       000010000D    183
     110       0       0       2       0                               0D    184
     508     143       0       0       0       0       0       000010000D    185
     508       0       0       1       1                               0D    186
     510     144       0       0       0       0       0       000010000D    187
     510       0    -251       1       1                               0D    188
     116     145       0       0       0       0       0       000010000D    189
     116       0       0       1       0                               0D    190
     123     146       0       0       0       0       0       000010200D    191
     123       0       0       1       0                               0D    192
     190     147       0       0       0       0       0       000010000D    193
     190       0       0       1       1                               0D    194
     123     148       0       0       0       0       0       000010200D    195
     123       0       0       1       0                               0D    196
     110     149       0       0       0       0       0       000010000D    197
     110       0       0       1       0                               0D    198
     110     150       0       0       0       0       0       000010000D    199
     110       0       0       1       0                               0D    200
     508     151       0       0       0       0       0       000010000D    201
     508       0       0       1       1                               0D    202
     510     152       0       0       0       0       0       000010000D    203
     510       0    -251       1       1                               0D    204
     116     153       0       0       0       0       0       000010000D    205
     116       0       0       1       0                               0D    206
     123     154       0       0       0       0       0       000010200D    207
     123       0       0       1       0                               0D    208
     190     155       0       0       0       0       0       000010000D    209
     190       0       0       1       1                               0D    210
     123     156       0       0       0       0       0       000010200D    211
     123       0       0       1       0                               0D    212
     110     157       0       0       0       0       0       000010000D    213
     110       0       0       1       0                               0D    214
     110     158       0       0       0       0       0       000010000D    215
     110       0       0       1       0                               0D    216
     508     159       0       0       0       0       0       000010000D    217
     508       0       0       1       1                               0D    218
     510     160       0       0       0       0       0       000010000D    219
     510       0    -251       1       1                               0D    220
     116     161       0       0       0       0       0       000010000D    221
     116       0       0       1       0                               0D    222
     123     162       0       0       0       0       0       000010200D    223
     123       0       0       1       0                               0D    224
     190     163       0       0       0       0       0       000010000D    225
     190       0       0       1       1                               0D    226
     123     164       0       0       0       0       0       000010200D    227
     123       0       0       1       0                               0D    228
     110     165       0       0       0       0       0       000010000D    229
     110       0       0       1       0                               0D    230
     508     166       0       0       0       0       0       000010000D    231
     508       0       0       1       1                               0D    232
     510     167       0       0       0       0       0       000010000D    233
     510       0    -251       1       1                               0D    234
     116     168       0       0       0       0       0       000010000D    235
     116       0       0       1       0                               0D    236
     123     169       0       0       0       0       0       000010200D    237
     123       0       0       1       0                               0D    238
     190     170       0       0       0       0       0       000010000D    239
     190       0       0       1       1                               0D    240
     123     171       0       0       0       0       0       000010200D    241
     123       0       0       1       0                               0D    242
     508     172       0       0       0       0       0       000010000D    243
     508       0       0       3       1                               0D    244
     510     175       0       0       0       0       0       000010000D    245
     510       0    -251       1       1                               0D    246
     514     176       0       0       0       0       0       000010000D    247
     514       0       0       2       1                               0D    248
     186     178       0       0       1       0       0       000000000D    249
     186       0       0       1       0                  Solid1       0D    250
     314     179       0       0       0       0       0       000000000D    251
     314       0       1       1       0                               0D    252
406,2,0,11H_SIDE BOARD;                                                1P      1
116,8.0001215804991D0,-266.7D0,12.5D0,0;                               3P      2
123,-1.0D0,0.0D0,0.0D0;                                                5P      3
190,3,5,9;                                                             7P      4
123,0.0D0,0.0D0,1.0D0;                                                 9P      5
504,36,15,13,1,13,2,17,13,3,13,1,19,13,3,13,4,21,13,2,13,4,35,        11P      6
13,5,13,6,37,13,7,13,5,39,13,7,13,8,41,13,6,13,8,55,13,4,13,7,        11P      7
57,13,8,13,3,71,13,1,13,9,73,13,9,13,10,75,13,10,13,11,77,13,11,      11P      8
13,12,79,13,12,13,13,81,13,13,13,14,83,13,14,13,15,85,13,15,13,       11P      9
16,87,13,16,13,6,101,13,17,13,2,103,13,9,13,17,117,13,18,13,16,       11P     10
119,13,5,13,18,133,13,10,13,19,135,13,19,13,17,149,13,20,13,15,       11P     11
151,13,18,13,20,165,13,21,13,19,167,13,21,13,11,181,13,22,13,14,      11P     12
183,13,20,13,22,197,13,23,13,21,199,13,23,13,12,213,13,22,13,24,      11P     13
215,13,24,13,13,229,13,24,13,23;                                      11P     14
502,24,8.0001215804991D0,-266.7D0,12.5D0,8.0001215804991D0,           13P     15
-266.7D0,-1.0842021724855D-18,8.0001215804991D0,-259.7D0,12.5D0,      13P     16
8.0001215804991D0,-259.7D0,-1.0842021724855D-18,                      13P     17
-7.99986890798024D0,-266.7D0,-1.0842021724855D-18,                    13P     18
-7.99986890798024D0,-266.7D0,12.5D0,-7.99986890798024D0,              13P     19
-259.7D0,-1.0842021724855D-18,-7.99986890798024D0,-259.7D0,           13P     20
12.5D0,23.4166777010543D0,-266.7D0,12.5D0,23.4166777010543D0,         13P     21
-276.225D0,12.5D0,197.772D0,-276.225D0,12.5D0,197.772D0,              13P     22
276.225D0,12.5D0,-197.772D0,276.225D0,12.5D0,-197.772D0,              13P     23
-276.225D0,12.5D0,-23.4164250285356D0,-276.225D0,12.5D0,              13P     24
-23.4164250285356D0,-266.7D0,12.5D0,23.4166777010543D0,-266.7D0,      13P     25
0.0D0,-23.4164250285356D0,-266.7D0,0.0D0,23.4166777010543D0,          13P     26
-276.225D0,0.0D0,-23.4164250285356D0,-276.225D0,0.0D0,197.772D0,      13P     27
-276.225D0,0.0D0,-197.772D0,-276.225D0,0.0D0,197.772D0,               13P     28
276.225D0,0.0D0,-197.772D0,276.225D0,0.0D0;                           13P     29
110,8.0001215804991D0,-266.7D0,12.5D0,8.0001215804991D0,              15P     30
-266.7D0,0.0D0;                                                       15P     31
110,8.0001215804991D0,-259.7D0,12.5D0,8.0001215804991D0,              17P     32
-266.7D0,12.5D0;                                                      17P     33
110,8.0001215804991D0,-259.7D0,12.5D0,8.0001215804991D0,              19P     34
-259.7D0,-1.0842021724855D-18;                                        19P     35
110,8.0001215804991D0,-266.7D0,0.0D0,8.0001215804991D0,-259.7D0,      21P     36
0.0D0;                                                                21P     37
508,4,0,11,1,0,0,0,11,2,0,0,0,11,3,1,0,0,11,4,0,0;                    23P     38
510,7,1,1,23;                                                         25P     39
116,-7.99986890798024D0,-266.7D0,0.0D0,0;                             27P     40
123,1.0D0,0.0D0,0.0D0;                                                29P     41
190,27,29,33;                                                         31P     42
123,0.0D0,0.0D0,-1.0D0;                                               33P     43
110,-7.99986890798024D0,-266.7D0,0.0D0,-7.99986890798024D0,           35P     44
-266.7D0,12.5D0;                                                      35P     45
110,-7.99986890798024D0,-259.7D0,0.0D0,-7.99986890798024D0,           37P     46
-266.7D0,0.0D0;                                                       37P     47
110,-7.99986890798024D0,-259.7D0,0.0D0,-7.99986890798024D0,           39P     48
-259.7D0,12.5D0;                                                      39P     49
110,-7.99986890798024D0,-266.7D0,12.5D0,-7.99986890798024D0,          41P     50
-259.7D0,12.5D0;                                                      41P     51
508,4,0,11,5,0,0,0,11,6,0,0,0,11,7,1,0,0,11,8,0,0;                    43P     52
510,31,1,1,43;                                                        45P     53
116,1.26336259427222D-4,-259.7D0,7.55536495030292D0,0;                47P     54
123,0.0D0,-1.0D0,0.0D0;                                               49P     55
190,47,49,53;                                                         51P     56
123,0.0D0,0.0D0,-1.0D0;                                               53P     57
110,8.0001215804991D0,-259.7D0,0.0D0,-7.99986890798024D0,             55P     58
-259.7D0,0.0D0;                                                       55P     59
110,-7.99986890798024D0,-259.7D0,12.5D0,8.0001215804991D0,            57P     60
-259.7D0,12.5D0;                                                      57P     61
508,4,0,11,7,0,0,0,11,9,0,0,0,11,3,0,0,0,11,10,0,0;                   59P     62
510,51,1,1,59;                                                        61P     63
116,0.0D0,0.0D0,12.5D0,0;                                             63P     64
123,0.0D0,0.0D0,1.0D0;                                                65P     65
190,63,65,69;                                                         67P     66
123,1.0D0,0.0D0,0.0D0;                                                69P     67
110,8.0001215804991D0,-266.7D0,12.5D0,23.4166777010543D0,             71P     68
-266.7D0,12.5D0;                                                      71P     69
110,23.4166777010543D0,-266.7D0,12.5D0,23.4166777010543D0,            73P     70
-276.225D0,12.5D0;                                                    73P     71
110,23.4166777010543D0,-276.225D0,12.5D0,197.772D0,-276.225D0,        75P     72
12.5D0;                                                               75P     73
110,197.772D0,-276.225D0,12.5D0,197.772D0,276.225D0,12.5D0;           77P     74
110,197.772D0,276.225D0,12.5D0,-197.772D0,276.225D0,12.5D0;           79P     75
110,-197.772D0,276.225D0,12.5D0,-197.772D0,-276.225D0,12.5D0;         81P     76
110,-197.772D0,-276.225D0,12.5D0,-23.4164250285356D0,-276.225D0,      83P     77
12.5D0;                                                               83P     78
110,-23.4164250285356D0,-276.225D0,12.5D0,-23.4164250285356D0,        85P     79
-266.7D0,12.5D0;                                                      85P     80
110,-23.4164250285356D0,-266.7D0,12.5D0,-7.99986890798024D0,          87P     81
-266.7D0,12.5D0;                                                      87P     82
508,12,0,11,8,1,0,0,11,10,1,0,0,11,2,1,0,0,11,11,1,0,0,11,12,1,       89P     83
0,0,11,13,1,0,0,11,14,1,0,0,11,15,1,0,0,11,16,1,0,0,11,17,1,0,0,      89P     84
11,18,1,0,0,11,19,1,0;                                                89P     85
510,67,1,1,89;                                                        91P     86
116,1.26336259357909D-4,-266.7D0,3.27364614428644D0,0;                93P     87
123,0.0D0,-1.0D0,0.0D0;                                               95P     88
190,93,95,99;                                                         97P     89
123,0.0D0,0.0D0,-1.0D0;                                               99P     90
110,23.4166777010543D0,-266.7D0,0.0D0,8.0001215804991D0,             101P     91
-266.7D0,0.0D0;                                                      101P     92
110,23.4166777010543D0,-266.7D0,12.5D0,23.4166777010543D0,           103P     93
-266.7D0,0.0D0;                                                      103P     94
508,4,0,11,1,1,0,0,11,20,0,0,0,11,21,0,0,0,11,11,0,0;                105P     95
510,97,1,1,105;                                                      107P     96
116,1.26336259357909D-4,-266.7D0,3.27364614428644D0,0;               109P     97
123,0.0D0,-1.0D0,0.0D0;                                              111P     98
190,109,111,115;                                                     113P     99
123,0.0D0,0.0D0,-1.0D0;                                              115P    100
110,-23.4164250285356D0,-266.7D0,0.0D0,-23.4164250285356D0,          117P    101
-266.7D0,12.5D0;                                                     117P    102
110,-7.99986890798024D0,-266.7D0,0.0D0,-23.4164250285356D0,          119P    103
-266.7D0,0.0D0;                                                      119P    104
508,4,0,11,5,1,0,0,11,19,0,0,0,11,22,0,0,0,11,23,0,0;                121P    105
510,113,1,1,121;                                                     123P    106
116,23.4166777010543D0,-276.225D0,12.5D0,0;                          125P    107
123,-1.0D0,0.0D0,0.0D0;                                              127P    108
190,125,127,131;                                                     129P    109
123,0.0D0,0.0D0,1.0D0;                                               131P    110
110,23.4166777010543D0,-276.225D0,12.5D0,23.4166777010543D0,         133P    111
-276.225D0,0.0D0;                                                    133P    112
110,23.4166777010543D0,-276.225D0,0.0D0,23.4166777010543D0,          135P    113
-266.7D0,0.0D0;                                                      135P    114
508,4,0,11,24,0,0,0,11,12,0,0,0,11,21,1,0,0,11,25,0,0;               137P    115
510,129,1,1,137;                                                     139P    116
116,-23.4164250285356D0,-276.225D0,0.0D0,0;                          141P    117
123,1.0D0,0.0D0,0.0D0;                                               143P    118
190,141,143,147;                                                     145P    119
123,0.0D0,0.0D0,-1.0D0;                                              147P    120
110,-23.4164250285356D0,-276.225D0,0.0D0,-23.4164250285356D0,        149P    121
-276.225D0,12.5D0;                                                   149P    122
110,-23.4164250285356D0,-266.7D0,0.0D0,-23.4164250285356D0,          151P    123
-276.225D0,0.0D0;                                                    151P    124
508,4,0,11,26,0,0,0,11,27,0,0,0,11,22,1,0,0,11,18,0,0;               153P    125
510,145,1,1,153;                                                     155P    126
116,-197.772D0,-276.225D0,0.0D0,0;                                   157P    127
123,0.0D0,-1.0D0,0.0D0;                                              159P    128
190,157,159,163;                                                     161P    129
123,1.0D0,0.0D0,0.0D0;                                               163P    130
110,197.772D0,-276.225D0,0.0D0,23.4166777010543D0,-276.225D0,        165P    131
0.0D0;                                                               165P    132
110,197.772D0,-276.225D0,0.0D0,197.772D0,-276.225D0,12.5D0;          167P    133
508,4,0,11,24,1,0,0,11,28,0,0,0,11,29,1,0,0,11,13,0,0;               169P    134
510,161,1,1,169;                                                     171P    135
116,-197.772D0,-276.225D0,0.0D0,0;                                   173P    136
123,0.0D0,-1.0D0,0.0D0;                                              175P    137
190,173,175,179;                                                     177P    138
123,1.0D0,0.0D0,0.0D0;                                               179P    139
110,-197.772D0,-276.225D0,0.0D0,-197.772D0,-276.225D0,12.5D0;        181P    140
110,-23.4164250285356D0,-276.225D0,0.0D0,-197.772D0,-276.225D0,      183P    141
0.0D0;                                                               183P    142
508,4,0,11,26,1,0,0,11,17,0,0,0,11,30,0,0,0,11,31,0,0;               185P    143
510,177,1,1,185;                                                     187P    144
116,197.772D0,-276.225D0,0.0D0,0;                                    189P    145
123,1.0D0,0.0D0,0.0D0;                                               191P    146
190,189,191,195;                                                     193P    147
123,0.0D0,1.0D0,0.0D0;                                               195P    148
110,197.772D0,276.225D0,0.0D0,197.772D0,-276.225D0,0.0D0;            197P    149
110,197.772D0,276.225D0,0.0D0,197.772D0,276.225D0,12.5D0;            199P    150
508,4,0,11,32,0,0,0,11,33,1,0,0,11,14,0,0,0,11,29,0,0;               201P    151
510,193,1,1,201;                                                     203P    152
116,-197.772D0,276.225D0,0.0D0,0;                                    205P    153
123,-1.0D0,0.0D0,0.0D0;                                              207P    154
190,205,207,211;                                                     209P    155
123,0.0D0,-1.0D0,0.0D0;                                              211P    156
110,-197.772D0,-276.225D0,0.0D0,-197.772D0,276.225D0,0.0D0;          213P    157
110,-197.772D0,276.225D0,0.0D0,-197.772D0,276.225D0,12.5D0;          215P    158
508,4,0,11,34,0,0,0,11,30,1,0,0,11,16,0,0,0,11,35,0,0;               217P    159
510,209,1,1,217;                                                     219P    160
116,197.772D0,276.225D0,0.0D0,0;                                     221P    161
123,0.0D0,1.0D0,0.0D0;                                               223P    162
190,221,223,227;                                                     225P    163
123,-1.0D0,0.0D0,0.0D0;                                              227P    164
110,-197.772D0,276.225D0,0.0D0,197.772D0,276.225D0,0.0D0;            229P    165
508,4,0,11,36,0,0,0,11,35,1,0,0,11,15,0,0,0,11,33,0,0;               231P    166
510,225,1,1,231;                                                     233P    167
116,0.0D0,0.0D0,0.0D0,0;                                             235P    168
123,0.0D0,0.0D0,-1.0D0;                                              237P    169
190,235,237,241;                                                     239P    170
123,-1.0D0,0.0D0,0.0D0;                                              241P    171
508,12,0,11,6,1,0,0,11,23,1,0,0,11,27,1,0,0,11,31,1,0,0,11,34,1,     243P    172
0,0,11,36,1,0,0,11,32,1,0,0,11,28,1,0,0,11,25,1,0,0,11,20,1,0,0,     243P    173
11,4,1,0,0,11,9,1,0;                                                 243P    174
510,239,1,1,243;                                                     245P    175
514,14,25,1,45,1,61,1,91,1,107,1,123,1,139,1,155,1,171,1,187,1,      247P    176
203,1,219,1,233,1,245,1;                                             247P    177
186,247,1,0;                                                         249P    178
314,40.9999996423721D0,40.9999996423721D0,40.9999996423721D0,;       251P    179
S      1G      4D    252P    179                                        T      1
