                                                                        S      1
,,17H_THREAD CLAMP.ipt,27HNo Iges File Name specified,22HAutodesk InventG      1
or 2013,37HAutoDesk Inventor Iges Exporter R2013,32,38,6,99,15,17H_THREAG      2
D CLAMP.ipt,1.0D0,1,2HIN,1,.08D0,15H20131210.105937,3.93700787401575D-4,G      3
10000.0D0,8Hemployee,,11,0,,;                                           G      4
     406       1       0       0       1       0       0       000000000D      1
     406       0       0       1       3                               0D      2
     116       2       0       0       0       0       0       000010000D      3
     116       0       0       1       0                               0D      4
     123       3       0       0       0       0       0       000010200D      5
     123       0       0       1       0                               0D      6
     190       4       0       0       0       0       0       000010000D      7
     190       0       0       1       1                               0D      8
     123       5       0       0       0       0       0       000010200D      9
     123       0       0       1       0                               0D     10
     504       6       0       0       0       0       0       000010001D     11
     504       0       0      13       1                               0D     12
     502      19       0       0       0       0       0       000010000D     13
     502       0       0      30       1                               0D     14
     110      49       0       0       0       0       0       000010000D     15
     110       0       0       2       0                               0D     16
     110      51       0       0       0       0       0       000010000D     17
     110       0       0       2       0                               0D     18
     110      53       0       0       0       0       0       000010000D     19
     110       0       0       2       0                               0D     20
     110      55       0       0       0       0       0       000010000D     21
     110       0       0       2       0                               0D     22
     508      57       0       0       0       0       0       000010000D     23
     508       0       0       1       1                               0D     24
     510      58       0       0       0       0       0       000010000D     25
     510       0       5       1       1                               0D     26
     116      59       0       0       0       0       0       000010000D     27
     116       0       0       1       0                               0D     28
     123      60       0       0       0       0       0       000010200D     29
     123       0       0       1       0                               0D     30
     190      61       0       0       0       0       0       000010000D     31
     190       0       0       1       1                               0D     32
     123      62       0       0       0       0       0       000010200D     33
     123       0       0       1       0                               0D     34
     110      63       0       0       0       0       0       000010000D     35
     110       0       0       2       0                               0D     36
     110      65       0       0       0       0       0       000010000D     37
     110       0       0       2       0                               0D     38
     110      67       0       0       0       0       0       000010000D     39
     110       0       0       2       0                               0D     40
     508      69       0       0       0       0       0       000010000D     41
     508       0       0       1       1                               0D     42
     510      70       0       0       0       0       0       000010000D     43
     510       0       5       1       1                               0D     44
     116      71       0       0       0       0       0       000010000D     45
     116       0       0       1       0                               0D     46
     123      72       0       0       0       0       0       000010200D     47
     123       0       0       1       0                               0D     48
     190      73       0       0       0       0       0       000010000D     49
     190       0       0       1       1                               0D     50
     123      74       0       0       0       0       0       000010200D     51
     123       0       0       1       0                               0D     52
     110      75       0       0       0       0       0       000010000D     53
     110       0       0       2       0                               0D     54
     110      77       0       0       0       0       0       000010000D     55
     110       0       0       2       0                               0D     56
     110      79       0       0       0       0       0       000010000D     57
     110       0       0       2       0                               0D     58
     508      81       0       0       0       0       0       000010000D     59
     508       0       0       1       1                               0D     60
     510      82       0       0       0       0       0       000010000D     61
     510       0       5       1       1                               0D     62
     116      83       0       0       0       0       0       000010000D     63
     116       0       0       1       0                               0D     64
     123      84       0       0       0       0       0       000010200D     65
     123       0       0       1       0                               0D     66
     190      85       0       0       0       0       0       000010000D     67
     190       0       0       1       1                               0D     68
     123      86       0       0       0       0       0       000010200D     69
     123       0       0       1       0                               0D     70
     110      87       0       0       0       0       0       000010000D     71
     110       0       0       2       0                               0D     72
     110      89       0       0       0       0       0       000010000D     73
     110       0       0       2       0                               0D     74
     110      91       0       0       0       0       0       000010000D     75
     110       0       0       2       0                               0D     76
     508      93       0       0       0       0       0       000010000D     77
     508       0       0       1       1                               0D     78
     510      94       0       0       0       0       0       000010000D     79
     510       0       5       1       1                               0D     80
     116      95       0       0       0       0       0       000010000D     81
     116       0       0       1       0                               0D     82
     123      96       0       0       0       0       0       000010200D     83
     123       0       0       1       0                               0D     84
     190      97       0       0       0       0       0       000010000D     85
     190       0       0       1       1                               0D     86
     123      98       0       0       0       0       0       000010200D     87
     123       0       0       1       0                               0D     88
     110      99       0       0       0       0       0       000010000D     89
     110       0       0       2       0                               0D     90
     110     101       0       0       0       0       0       000010000D     91
     110       0       0       2       0                               0D     92
     110     103       0       0       0       0       0       000010000D     93
     110       0       0       2       0                               0D     94
     508     105       0       0       0       0       0       000010000D     95
     508       0       0       1       1                               0D     96
     510     106       0       0       0       0       0       000010000D     97
     510       0       5       1       1                               0D     98
     116     107       0       0       0       0       0       000010000D     99
     116       0       0       1       0                               0D    100
     123     108       0       0       0       0       0       000010200D    101
     123       0       0       1       0                               0D    102
     190     109       0       0       0       0       0       000010000D    103
     190       0       0       1       1                               0D    104
     123     110       0       0       0       0       0       000010200D    105
     123       0       0       1       0                               0D    106
     110     111       0       0       0       0       0       000010000D    107
     110       0       0       2       0                               0D    108
     110     113       0       0       0       0       0       000010000D    109
     110       0       0       2       0                               0D    110
     508     115       0       0       0       0       0       000010000D    111
     508       0       0       1       1                               0D    112
     510     116       0       0       0       0       0       000010000D    113
     510       0       5       1       1                               0D    114
     116     117       0       0       0       0       0       000010000D    115
     116       0       0       1       0                               0D    116
     123     118       0       0       0       0       0       000010200D    117
     123       0       0       1       0                               0D    118
     190     119       0       0       0       0       0       000010000D    119
     190       0       0       1       1                               0D    120
     123     120       0       0       0       0       0       000010200D    121
     123       0       0       1       0                               0D    122
     110     121       0       0       0       0       0       000010000D    123
     110       0       0       2       0                               0D    124
     110     123       0       0       0       0       0       000010000D    125
     110       0       0       2       0                               0D    126
     110     125       0       0       0       0       0       000010000D    127
     110       0       0       2       0                               0D    128
     110     127       0       0       0       0       0       000010000D    129
     110       0       0       2       0                               0D    130
     508     129       0       0       0       0       0       000010000D    131
     508       0       0       1       1                               0D    132
     508     130       0       0       0       0       0       000010000D    133
     508       0       0       2       1                               0D    134
     510     132       0       0       0       0       0       000010000D    135
     510       0       5       1       1                               0D    136
     116     133       0       0       0       0       0       000010000D    137
     116       0       0       1       0                               0D    138
     123     134       0       0       0       0       0       000010200D    139
     123       0       0       1       0                               0D    140
     190     135       0       0       0       0       0       000010000D    141
     190       0       0       1       1                               0D    142
     123     136       0       0       0       0       0       000010200D    143
     123       0       0       1       0                               0D    144
     110     137       0       0       0       0       0       000010000D    145
     110       0       0       2       0                               0D    146
     110     139       0       0       0       0       0       000010000D    147
     110       0       0       2       0                               0D    148
     100     141       0       0       0       0     151       000010000D    149
     100       0       0       2       0                               0D    150
     124     143       0       0       0       0       0       000000000D    151
     124       0       0       3       0                               0D    152
     110     146       0       0       0       0       0       000010000D    153
     110       0       0       2       0                               0D    154
     110     148       0       0       0       0       0       000010000D    155
     110       0       0       2       0                               0D    156
     110     150       0       0       0       0       0       000010000D    157
     110       0       0       2       0                               0D    158
     100     152       0       0       0       0     161       000010000D    159
     100       0       0       2       0                               0D    160
     124     154       0       0       0       0       0       000000000D    161
     124       0       0       3       0                               0D    162
     508     157       0       0       0       0       0       000010000D    163
     508       0       0       2       1                               0D    164
     510     159       0       0       0       0       0       000010000D    165
     510       0       5       1       1                               0D    166
     116     160       0       0       0       0       0       000010000D    167
     116       0       0       1       0                               0D    168
     123     161       0       0       0       0       0       000010200D    169
     123       0       0       1       0                               0D    170
     190     162       0       0       0       0       0       000010000D    171
     190       0       0       1       1                               0D    172
     123     163       0       0       0       0       0       000010200D    173
     123       0       0       1       0                               0D    174
     100     164       0       0       0       0     177       000010000D    175
     100       0       0       2       0                               0D    176
     124     166       0       0       0       0       0       000000000D    177
     124       0       0       3       0                               0D    178
     110     169       0       0       0       0       0       000010000D    179
     110       0       0       2       0                               0D    180
     110     171       0       0       0       0       0       000010000D    181
     110       0       0       2       0                               0D    182
     110     173       0       0       0       0       0       000010000D    183
     110       0       0       2       0                               0D    184
     100     175       0       0       0       0     187       000010000D    185
     100       0       0       2       0                               0D    186
     124     177       0       0       0       0       0       000000000D    187
     124       0       0       3       0                               0D    188
     110     180       0       0       0       0       0       000010000D    189
     110       0       0       2       0                               0D    190
     110     182       0       0       0       0       0       000010000D    191
     110       0       0       2       0                               0D    192
     508     184       0       0       0       0       0       000010000D    193
     508       0       0       2       1                               0D    194
     510     186       0       0       0       0       0       000010000D    195
     510       0       5       1       1                               0D    196
     116     187       0       0       0       0       0       000010000D    197
     116       0       0       1       0                               0D    198
     123     188       0       0       0       0       0       000010200D    199
     123       0       0       1       0                               0D    200
     192     189       0       0       0       0       0       000010000D    201
     192       0       0       1       1                               0D    202
     123     190       0       0       0       0       0       000010200D    203
     123       0       0       1       0                               0D    204
     110     191       0       0       0       0       0       000010000D    205
     110       0       0       2       0                               0D    206
     508     193       0       0       0       0       0       000010000D    207
     508       0       0       1       1                               0D    208
     510     194       0       0       0       0       0       000010000D    209
     510       0       5       1       1                               0D    210
     116     195       0       0       0       0       0       000010000D    211
     116       0       0       1       0                               0D    212
     123     196       0       0       0       0       0       000010200D    213
     123       0       0       1       0                               0D    214
     192     197       0       0       0       0       0       000010000D    215
     192       0       0       1       1                               0D    216
     123     198       0       0       0       0       0       000010200D    217
     123       0       0       1       0                               0D    218
     110     199       0       0       0       0       0       000010000D    219
     110       0       0       2       0                               0D    220
     100     201       0       0       0       0     223       000010000D    221
     100       0       0       2       0                               0D    222
     124     203       0       0       0       0       0       000000000D    223
     124       0       0       3       0                               0D    224
     110     206       0       0       0       0       0       000010000D    225
     110       0       0       2       0                               0D    226
     508     208       0       0       0       0       0       000010000D    227
     508       0       0       1       1                               0D    228
     510     209       0       0       0       0       0       000010000D    229
     510       0       5       1       1                               0D    230
     116     210       0       0       0       0       0       000010000D    231
     116       0       0       1       0                               0D    232
     123     211       0       0       0       0       0       000010200D    233
     123       0       0       1       0                               0D    234
     190     212       0       0       0       0       0       000010000D    235
     190       0       0       1       1                               0D    236
     123     213       0       0       0       0       0       000010200D    237
     123       0       0       1       0                               0D    238
     110     214       0       0       0       0       0       000010000D    239
     110       0       0       2       0                               0D    240
     110     216       0       0       0       0       0       000010000D    241
     110       0       0       2       0                               0D    242
     100     218       0       0       0       0     245       000010000D    243
     100       0       0       2       0                               0D    244
     124     220       0       0       0       0       0       000000000D    245
     124       0       0       3       0                               0D    246
     508     223       0       0       0       0       0       000010000D    247
     508       0       0       1       1                               0D    248
     510     224       0       0       0       0       0       000010000D    249
     510       0       5       1       1                               0D    250
     120     225       0       0       0       0       0       000010000D    251
     120       0       0       1       0                               0D    252
     110     226       0       0       0       0       0       000010000D    253
     110       0       0       2       0                               0D    254
     110     228       0       0       0       0       0       001010000D    255
     110       0       0       2       0                               0D    256
     100     230       0       0       0       0     259       000010000D    257
     100       0       0       2       0                               0D    258
     124     232       0       0       0       0       0       000000000D    259
     124       0       0       2       0                               0D    260
     508     234       0       0       0       0       0       000010000D    261
     508       0       0       1       1                               0D    262
     100     235       0       0       0       0     265       000010000D    263
     100       0       0       2       0                               0D    264
     124     237       0       0       0       0       0       000000000D    265
     124       0       0       2       0                               0D    266
     508     239       0       0       0       0       0       000010000D    267
     508       0       0       1       1                               0D    268
     510     240       0       0       0       0       0       000010000D    269
     510       0       5       1       1                               0D    270
     120     241       0       0       0       0       0       000010000D    271
     120       0       0       1       0                               0D    272
     110     242       0       0       0       0       0       000010000D    273
     110       0       0       2       0                               0D    274
     110     244       0       0       0       0       0       001010000D    275
     110       0       0       2       0                               0D    276
     100     246       0       0       0       0     279       000010000D    277
     100       0       0       2       0                               0D    278
     124     248       0       0       0       0       0       000000000D    279
     124       0       0       2       0                               0D    280
     508     250       0       0       0       0       0       000010000D    281
     508       0       0       1       1                               0D    282
     100     251       0       0       0       0     285       000010000D    283
     100       0       0       2       0                               0D    284
     124     253       0       0       0       0       0       000000000D    285
     124       0       0       2       0                               0D    286
     508     255       0       0       0       0       0       000010000D    287
     508       0       0       1       1                               0D    288
     510     256       0       0       0       0       0       000010000D    289
     510       0       5       1       1                               0D    290
     116     257       0       0       0       0       0       000010000D    291
     116       0       0       1       0                               0D    292
     123     258       0       0       0       0       0       000010200D    293
     123       0       0       1       0                               0D    294
     190     259       0       0       0       0       0       000010000D    295
     190       0       0       1       1                               0D    296
     123     260       0       0       0       0       0       000010200D    297
     123       0       0       1       0                               0D    298
     110     261       0       0       0       0       0       000010000D    299
     110       0       0       2       0                               0D    300
     110     263       0       0       0       0       0       000010000D    301
     110       0       0       2       0                               0D    302
     508     265       0       0       0       0       0       000010000D    303
     508       0       0       1       1                               0D    304
     510     266       0       0       0       0       0       000010000D    305
     510       0       5       1       1                               0D    306
     116     267       0       0       0       0       0       000010000D    307
     116       0       0       1       0                               0D    308
     123     268       0       0       0       0       0       000010200D    309
     123       0       0       1       0                               0D    310
     190     269       0       0       0       0       0       000010000D    311
     190       0       0       1       1                               0D    312
     123     270       0       0       0       0       0       000010200D    313
     123       0       0       1       0                               0D    314
     508     271       0       0       0       0       0       000010000D    315
     508       0       0       1       1                               0D    316
     508     272       0       0       0       0       0       000010000D    317
     508       0       0       1       1                               0D    318
     510     273       0       0       0       0       0       000010000D    319
     510       0       5       1       1                               0D    320
     116     274       0       0       0       0       0       000010000D    321
     116       0       0       1       0                               0D    322
     123     275       0       0       0       0       0       000010200D    323
     123       0       0       1       0                               0D    324
     190     276       0       0       0       0       0       000010000D    325
     190       0       0       1       1                               0D    326
     123     277       0       0       0       0       0       000010200D    327
     123       0       0       1       0                               0D    328
     508     278       0       0       0       0       0       000010000D    329
     508       0       0       2       1                               0D    330
     508     280       0       0       0       0       0       000010000D    331
     508       0       0       1       1                               0D    332
     510     281       0       0       0       0       0       000010000D    333
     510       0       5       1       1                               0D    334
     116     282       0       0       0       0       0       000010000D    335
     116       0       0       1       0                               0D    336
     123     283       0       0       0       0       0       000010200D    337
     123       0       0       1       0                               0D    338
     190     284       0       0       0       0       0       000010000D    339
     190       0       0       1       1                               0D    340
     123     285       0       0       0       0       0       000010200D    341
     123       0       0       1       0                               0D    342
     110     286       0       0       0       0       0       000010000D    343
     110       0       0       2       0                               0D    344
     508     288       0       0       0       0       0       000010000D    345
     508       0       0       1       1                               0D    346
     510     289       0       0       0       0       0       000010000D    347
     510       0       5       1       1                               0D    348
     116     290       0       0       0       0       0       000010000D    349
     116       0       0       1       0                               0D    350
     123     291       0       0       0       0       0       000010200D    351
     123       0       0       1       0                               0D    352
     190     292       0       0       0       0       0       000010000D    353
     190       0       0       1       1                               0D    354
     123     293       0       0       0       0       0       000010200D    355
     123       0       0       1       0                               0D    356
     110     294       0       0       0       0       0       000010000D    357
     110       0       0       2       0                               0D    358
     508     296       0       0       0       0       0       000010000D    359
     508       0       0       2       1                               0D    360
     508     298       0       0       0       0       0       000010000D    361
     508       0       0       1       1                               0D    362
     510     299       0       0       0       0       0       000010000D    363
     510       0       5       1       1                               0D    364
     120     300       0       0       0       0       0       000010000D    365
     120       0       0       1       0                               0D    366
     110     301       0       0       0       0       0       000010000D    367
     110       0       0       2       0                               0D    368
     110     303       0       0       0       0       0       001010000D    369
     110       0       0       2       0                               0D    370
     110     305       0       0       0       0       0       000010000D    371
     110       0       0       2       0                               0D    372
     508     307       0       0       0       0       0       000010000D    373
     508       0       0       1       1                               0D    374
     510     308       0       0       0       0       0       000010000D    375
     510       0       5       1       1                               0D    376
     116     309       0       0       0       0       0       000010000D    377
     116       0       0       1       0                               0D    378
     123     310       0       0       0       0       0       000010200D    379
     123       0       0       1       0                               0D    380
     190     311       0       0       0       0       0       000010000D    381
     190       0       0       1       1                               0D    382
     123     312       0       0       0       0       0       000010200D    383
     123       0       0       1       0                               0D    384
     508     313       0       0       0       0       0       000010000D    385
     508       0       0       2       1                               0D    386
     508     315       0       0       0       0       0       000010000D    387
     508       0       0       1       1                               0D    388
     510     316       0       0       0       0       0       000010000D    389
     510       0       5       1       1                               0D    390
     514     317       0       0       0       0       0       000010000D    391
     514       0       0       3       1                               0D    392
     186     320       0       0       1       0       0       000000000D    393
     186       0       0       1       0                  Solid1       0D    394
406,2,0,13H_THREAD CLAMP;                                              1P      1
116,.596039823128421D0,.216535433070866D0,.25D0,0;                     3P      2
123,-.866025403784439D0,0.0D0,.499999999999999D0;                      5P      3
190,3,5,9;                                                             7P      4
123,.499999999999999D0,0.0D0,.866025403784439D0;                       9P      5
504,52,15,13,1,13,2,17,13,1,13,3,19,13,4,13,3,21,13,2,13,4,35,        11P      6
13,5,13,1,37,13,5,13,6,39,13,3,13,6,53,13,7,13,5,55,13,7,13,8,        11P      7
57,13,6,13,8,71,13,9,13,7,73,13,9,13,10,75,13,8,13,10,89,13,11,       11P      8
13,9,91,13,11,13,12,93,13,10,13,12,107,13,2,13,11,109,13,12,13,       11P      9
4,123,13,13,13,14,125,13,13,13,15,127,13,15,13,16,129,13,16,13,       11P     10
14,145,13,17,13,16,147,13,18,13,17,149,13,18,13,19,153,13,20,13,      11P     11
19,155,13,21,13,20,157,13,22,13,21,159,13,14,13,22,175,13,13,13,      11P     12
23,179,13,23,13,24,181,13,24,13,25,183,13,25,13,26,185,13,26,13,      11P     13
27,189,13,27,13,28,191,13,28,13,15,205,13,22,13,23,219,13,18,13,      11P     14
29,221,13,30,13,29,225,13,19,13,30,239,13,31,13,30,241,13,29,13,      11P     15
32,243,13,32,13,31,257,13,33,13,33,263,13,34,13,34,277,13,35,13,      11P     16
35,283,13,36,13,36,299,13,20,13,25,301,13,21,13,24,343,13,17,13,      11P     17
28,357,13,32,13,27,371,13,31,13,26;                                   11P     18
502,36,.596039823128421D0,.216535433070866D0,.25D0,                   13P     19
.532394911564211D0,.216535433070866D0,.139763779527559D0,             13P     20
.596039823128421D0,.334645669291339D0,.25D0,.532394911564211D0,       13P     21
.334645669291339D0,.139763779527559D0,.532394911564211D0,             13P     22
.216535433070866D0,.360236220472441D0,.532394911564211D0,             13P     23
.334645669291339D0,.360236220472441D0,.405105088435789D0,             13P     24
.216535433070866D0,.360236220472441D0,.405105088435789D0,             13P     25
.334645669291339D0,.360236220472441D0,.341460176871579D0,             13P     26
.216535433070866D0,.25D0,.341460176871579D0,.334645669291339D0,       13P     27
.25D0,.405105088435789D0,.216535433070866D0,.139763779527559D0,       13P     28
.405105088435789D0,.334645669291339D0,.139763779527559D0,             13P     29
.169225518242823D0,.334645669291339D0,.5D0,.169225518242823D0,        13P     30
.334645669291339D0,0.0D0,.625D0,.334645669291339D0,.5D0,.625D0,       13P     31
.334645669291339D0,0.0D0,.625D0,1.96850393700787D-2,0.0D0,            13P     32
.311879382494256D0,1.96850393700787D-2,0.0D0,                         13P     33
-.311879382494256D0,1.96850393700787D-2,0.0D0,-.625D0,                13P     34
1.96850393700787D-2,0.0D0,-.625D0,.216535433070866D0,0.0D0,           13P     35
-.306165651608427D0,.216535433070866D0,0.0D0,                         13P     36
-.306165651608427D0,.216535433070866D0,.5D0,-.625D0,                  13P     37
.216535433070866D0,.5D0,-.625D0,1.96850393700787D-2,.5D0,             13P     38
-9.80433538032971D-2,1.96850393700787D-2,.5D0,                        13P     39
9.80433538032971D-2,1.96850393700787D-2,.5D0,.625D0,                  13P     40
1.96850393700787D-2,.5D0,.311879382494256D0,1.96850393700787D-2,      13P     41
-.0625D0,-.311879382494256D0,1.96850393700787D-2,-.0625D0,            13P     42
-9.80433538032972D-2,1.96850393700787D-2,-.0625D0,                    13P     43
9.80433538032972D-2,1.96850393700787D-2,-.0625D0,                     13P     44
.531742125984252D0,1.96850393700788D-2,.25D0,.531742125984252D0,      13P     45
.216535433070866D0,.25D0,-.405757874015748D0,                         13P     46
1.96850393700788D-2,.25D0,-.405757874015748D0,                        13P     47
.216535433070866D0,.25D0;                                             13P     48
110,.596039823128421D0,.216535433070866D0,.25D0,                      15P     49
.532394911564211D0,.216535433070866D0,.139763779527559D0;             15P     50
110,.596039823128421D0,.216535433070866D0,.25D0,                      17P     51
.596039823128421D0,.334645669291339D0,.25D0;                          17P     52
110,.532394911564211D0,.334645669291339D0,.139763779527559D0,         19P     53
.596039823128421D0,.334645669291339D0,.25D0;                          19P     54
110,.532394911564211D0,.216535433070866D0,.139763779527559D0,         21P     55
.532394911564211D0,.334645669291339D0,.139763779527559D0;             21P     56
508,4,0,11,1,0,0,0,11,2,1,0,0,11,3,0,0,0,11,4,0,0;                    23P     57
510,7,1,1,23;                                                         25P     58
116,.532394911564211D0,.216535433070866D0,.360236220472441D0,0;       27P     59
123,-.866025403784439D0,0.0D0,-.5D0;                                  29P     60
190,27,29,33;                                                         31P     61
123,-.5D0,0.0D0,.866025403784439D0;                                   33P     62
110,.532394911564211D0,.216535433070866D0,.360236220472441D0,         35P     63
.596039823128421D0,.216535433070866D0,.25D0;                          35P     64
110,.532394911564211D0,.216535433070866D0,.360236220472441D0,         37P     65
.532394911564211D0,.334645669291339D0,.360236220472441D0;             37P     66
110,.596039823128421D0,.334645669291339D0,.25D0,                      39P     67
.532394911564211D0,.334645669291339D0,.360236220472441D0;             39P     68
508,4,0,11,5,0,0,0,11,6,1,0,0,11,7,0,0,0,11,2,0,0;                    41P     69
510,31,1,1,41;                                                        43P     70
116,.405105088435789D0,.216535433070866D0,.360236220472441D0,0;       45P     71
123,0.0D0,0.0D0,-1.0D0;                                               47P     72
190,45,47,51;                                                         49P     73
123,-1.0D0,0.0D0,0.0D0;                                               51P     74
110,.405105088435789D0,.216535433070866D0,.360236220472441D0,         53P     75
.532394911564211D0,.216535433070866D0,.360236220472441D0;             53P     76
110,.405105088435789D0,.216535433070866D0,.360236220472441D0,         55P     77
.405105088435789D0,.334645669291339D0,.360236220472441D0;             55P     78
110,.532394911564211D0,.334645669291339D0,.360236220472441D0,         57P     79
.405105088435789D0,.334645669291339D0,.360236220472441D0;             57P     80
508,4,0,11,8,0,0,0,11,9,1,0,0,11,10,0,0,0,11,6,0,0;                   59P     81
510,49,1,1,59;                                                        61P     82
116,.341460176871579D0,.216535433070866D0,.25D0,0;                    63P     83
123,.866025403784439D0,0.0D0,-.499999999999999D0;                     65P     84
190,63,65,69;                                                         67P     85
123,-.499999999999999D0,0.0D0,-.866025403784439D0;                    69P     86
110,.341460176871579D0,.216535433070866D0,.25D0,                      71P     87
.405105088435789D0,.216535433070866D0,.360236220472441D0;             71P     88
110,.341460176871579D0,.216535433070866D0,.25D0,                      73P     89
.341460176871579D0,.334645669291339D0,.25D0;                          73P     90
110,.405105088435789D0,.334645669291339D0,.360236220472441D0,         75P     91
.341460176871579D0,.334645669291339D0,.25D0;                          75P     92
508,4,0,11,11,0,0,0,11,12,1,0,0,11,13,0,0,0,11,9,0,0;                 77P     93
510,67,1,1,77;                                                        79P     94
116,.405105088435789D0,.216535433070866D0,.139763779527559D0,0;       81P     95
123,.866025403784438D0,0.0D0,.500000000000001D0;                      83P     96
190,81,83,87;                                                         85P     97
123,.500000000000001D0,0.0D0,-.866025403784438D0;                     87P     98
110,.405105088435789D0,.216535433070866D0,.139763779527559D0,         89P     99
.341460176871578D0,.216535433070866D0,.25D0;                          89P    100
110,.405105088435789D0,.216535433070866D0,.139763779527559D0,         91P    101
.405105088435789D0,.334645669291339D0,.139763779527559D0;             91P    102
110,.341460176871579D0,.334645669291339D0,.25D0,                      93P    103
.405105088435789D0,.334645669291339D0,.139763779527559D0;             93P    104
508,4,0,11,14,0,0,0,11,15,1,0,0,11,16,0,0,0,11,12,0,0;                95P    105
510,85,1,1,95;                                                        97P    106
116,.532394911564211D0,.216535433070866D0,.139763779527559D0,0;       99P    107
123,0.0D0,0.0D0,1.0D0;                                               101P    108
190,99,101,105;                                                      103P    109
123,1.0D0,0.0D0,0.0D0;                                               105P    110
110,.532394911564211D0,.216535433070866D0,.139763779527559D0,        107P    111
.405105088435789D0,.216535433070866D0,.139763779527559D0;            107P    112
110,.405105088435789D0,.334645669291339D0,.139763779527559D0,        109P    113
.532394911564211D0,.334645669291339D0,.139763779527559D0;            109P    114
508,4,0,11,17,0,0,0,11,4,1,0,0,11,18,0,0,0,11,15,0,0;                111P    115
510,103,1,1,111;                                                     113P    116
116,.14674847741264D0,.334645669291339D0,.25D0,0;                    115P    117
123,0.0D0,1.0D0,0.0D0;                                               117P    118
190,115,117,121;                                                     119P    119
123,0.0D0,0.0D0,1.0D0;                                               121P    120
110,.169225518242823D0,.334645669291339D0,.5D0,                      123P    121
.169225518242823D0,.334645669291339D0,0.0D0;                         123P    122
110,.169225518242823D0,.334645669291339D0,.5D0,.625D0,               125P    123
.334645669291339D0,.5D0;                                             125P    124
110,.625D0,.334645669291339D0,.5D0,.625D0,.334645669291339D0,        127P    125
0.0D0;                                                               127P    126
110,.625D0,.334645669291339D0,0.0D0,.169225518242823D0,              129P    127
.334645669291339D0,0.0D0;                                            129P    128
508,4,0,11,19,0,0,0,11,20,1,0,0,11,21,1,0,0,11,22,1,0;               131P    129
508,6,0,11,3,1,0,0,11,7,1,0,0,11,10,1,0,0,11,13,1,0,0,11,16,1,0,     133P    130
0,11,18,1,0;                                                         133P    131
510,119,2,1,131,133;                                                 135P    132
116,-1.825193797194D-17,.138677741448164D0,0.0D0,0;                  137P    133
123,0.0D0,0.0D0,-1.0D0;                                              139P    134
190,137,139,143;                                                     141P    135
123,-1.0D0,0.0D0,0.0D0;                                              143P    136
110,.625D0,1.96850393700787D-2,0.0D0,.625D0,.334645669291339D0,      145P    137
0.0D0;                                                               145P    138
110,.311879382494256D0,1.96850393700787D-2,0.0D0,.625D0,             147P    139
1.96850393700787D-2,0.0D0;                                           147P    140
100,0.0D0,0.0D0,0.0D0,-.31001999503999D0,-3.92918907079378D-2,       149P    141
.3125D0,-7.65404249467096D-17;                                       149P    142
124,-.998014023981619D0,-6.29921259842522D-2,0.0D0,0.0D0,            151P    143
6.29921259842522D-2,-.998014023981619D0,0.0D0,                       151P    144
-8.74191357972564D-17,0.0D0,0.0D0,1.0D0,0.0D0;                       151P    145
110,-.625D0,1.96850393700787D-2,0.0D0,-.311879382494256D0,           153P    146
1.96850393700787D-2,0.0D0;                                           153P    147
110,-.625D0,.216535433070866D0,0.0D0,-.625D0,                        155P    148
1.96850393700788D-2,0.0D0;                                           155P    149
110,-.306165651608427D0,.216535433070866D0,0.0D0,-.625D0,            157P    150
.216535433070866D0,0.0D0;                                            157P    151
100,0.0D0,0.0D0,0.0D0,.331396495965007D0,.175503169379118D0,         159P    152
-.124932833199D0,.353577130466425D0;                                 159P    153
124,.816441737622471D0,-.57742782152231D0,0.0D0,0.0D0,               161P    154
.57742782152231D0,.816441737622471D0,0.0D0,                          161P    155
-8.74191357972564D-17,0.0D0,0.0D0,1.0D0,0.0D0;                       161P    156
508,8,0,11,23,0,0,0,11,24,0,0,0,11,25,1,0,0,11,26,0,0,0,11,27,0,     163P    157
0,0,11,28,0,0,0,11,29,0,0,0,11,22,0,0;                               163P    158
510,141,1,1,163;                                                     165P    159
116,-1.825193797194D-17,.138677741448164D0,.5D0,0;                   167P    160
123,0.0D0,0.0D0,1.0D0;                                               169P    161
190,167,169,173;                                                     171P    162
123,1.0D0,0.0D0,0.0D0;                                               173P    163
100,0.0D0,0.0D0,0.0D0,.331396495965007D0,.175503169379118D0,         175P    164
-.124932833199D0,.353577130466425D0;                                 175P    165
124,.816441737622471D0,-.57742782152231D0,0.0D0,0.0D0,               177P    166
.57742782152231D0,.816441737622471D0,0.0D0,                          177P    167
-8.74191357972564D-17,0.0D0,0.0D0,1.0D0,.5D0;                        177P    168
110,-.306165651608427D0,.216535433070866D0,.5D0,-.625D0,             179P    169
.216535433070866D0,.5D0;                                             179P    170
110,-.625D0,.216535433070866D0,.5D0,-.625D0,1.96850393700788D-2,     181P    171
.5D0;                                                                181P    172
110,-.625D0,1.96850393700787D-2,.5D0,-9.80433538032971D-2,           183P    173
1.96850393700787D-2,.5D0;                                            183P    174
100,0.0D0,0.0D0,0.0D0,.092249984499969D0,3.85997455918492D-2,        185P    175
-.1D0,1.22464679914735D-17;                                          185P    176
124,-.980433538032969D0,-.196850393700788D0,0.0D0,0.0D0,             187P    177
-.196850393700788D0,.980433538032969D0,0.0D0,                        187P    178
-8.74191357972564D-17,0.0D0,0.0D0,-1.0D0,.5D0;                       187P    179
110,9.80433538032972D-2,1.96850393700787D-2,.5D0,.625D0,             189P    180
1.96850393700787D-2,.5D0;                                            189P    181
110,.625D0,1.96850393700787D-2,.5D0,.625D0,.334645669291339D0,       191P    182
.5D0;                                                                191P    183
508,8,0,11,30,1,0,0,11,31,1,0,0,11,32,1,0,0,11,33,1,0,0,11,34,1,     193P    184
0,0,11,35,1,0,0,11,36,1,0,0,11,20,0,0;                               193P    185
510,171,1,1,193;                                                     195P    186
116,0.0D0,-8.74191357972564D-17,0.0D0,0;                             197P    187
123,0.0D0,0.0D0,1.0D0;                                               199P    188
192,197,199,.375D0,203;                                              201P    189
123,.816441737622471D0,.57742782152231D0,0.0D0;                      203P    190
110,-.306165651608427D0,.216535433070866D0,0.0D0,                    205P    191
-.306165651608427D0,.216535433070866D0,.5D0;                         205P    192
508,4,0,11,19,1,0,0,11,29,1,0,0,11,37,1,0,0,11,30,0,0;               207P    193
510,201,1,1,207;                                                     209P    194
116,0.0D0,-8.74191357972564D-17,0.0D0,0;                             211P    195
123,0.0D0,0.0D0,-1.0D0;                                              213P    196
192,211,213,.3125D0,217;                                             215P    197
123,-.998014023981619D0,6.29921259842522D-2,0.0D0;                   217P    198
110,.311879382494256D0,1.96850393700787D-2,0.0D0,                    219P    199
.311879382494256D0,1.96850393700787D-2,-.0625D0;                     219P    200
100,0.0D0,0.0D0,0.0D0,.3125D0,0.0D0,-.31001999503999D0,              221P    201
3.92918907079383D-2;                                                 221P    202
124,-.998014023981619D0,6.29921259842522D-2,0.0D0,0.0D0,             223P    203
6.29921259842522D-2,.998014023981619D0,0.0D0,                        223P    204
-8.74191357972564D-17,0.0D0,0.0D0,-1.0D0,-.0625D0;                   223P    205
110,-.311879382494256D0,1.96850393700787D-2,0.0D0,                   225P    206
-.311879382494256D0,1.96850393700787D-2,-.0625D0;                    225P    207
508,4,0,11,25,0,0,0,11,38,1,0,0,11,39,0,0,0,11,40,0,0;               227P    208
510,215,1,1,227;                                                     229P    209
116,-6.976544511541D-17,.126326573479451D0,-.0625D0,0;               231P    210
123,0.0D0,0.0D0,-1.0D0;                                              233P    211
190,231,233,237;                                                     235P    212
123,-1.0D0,0.0D0,0.0D0;                                              237P    213
110,-9.80433538032972D-2,1.96850393700787D-2,-.0625D0,               239P    214
-.311879382494256D0,1.96850393700787D-2,-.0625D0;                    239P    215
110,.311879382494256D0,1.96850393700787D-2,-.0625D0,                 241P    216
9.80433538032971D-2,1.96850393700787D-2,-.0625D0;                    241P    217
100,0.0D0,0.0D0,0.0D0,.092249984499969D0,3.85997455918492D-2,        243P    218
-.1D0,1.22464679914735D-17;                                          243P    219
124,.980433538032969D0,.196850393700788D0,0.0D0,0.0D0,               245P    220
-.196850393700788D0,.980433538032969D0,0.0D0,                        245P    221
-8.74191357972564D-17,0.0D0,0.0D0,1.0D0,-.0625D0;                    245P    222
508,4,0,11,41,1,0,0,11,39,1,0,0,11,42,1,0,0,11,43,1,0;               247P    223
510,235,1,1,247;                                                     249P    224
120,255,253,0.0D0,6.28318530717959D0;                                251P    225
110,.405757874015748D0,.226377952755906D0,.25D0,                     253P    226
.405757874015748D0,9.84251968503941D-3,.25D0;                        253P    227
110,.46875D0,.226377952755906D0,.25D0,.46875D0,                      255P    228
-.773622047244094D0,.25D0;                                           255P    229
100,0.0D0,0.0D0,0.0D0,-.062992125984252D0,7.7143105458101D-18,       257P    230
-.062992125984252D0,7.7143105458101D-18;                             257P    231
124,-1.0D0,0.0D0,0.0D0,.46875D0,0.0D0,0.0D0,1.0D0,                   259P    232
1.96850393700788D-2,0.0D0,1.0D0,0.0D0,.25D0;                         259P    233
508,1,0,11,44,0,0;                                                   261P    234
100,0.0D0,0.0D0,0.0D0,-.062992125984252D0,7.7143105458101D-18,       263P    235
-.062992125984252D0,7.7143105458101D-18;                             263P    236
124,-1.0D0,0.0D0,0.0D0,.46875D0,0.0D0,0.0D0,-1.0D0,                  265P    237
.216535433070866D0,0.0D0,-1.0D0,0.0D0,.25D0;                         265P    238
508,1,0,11,45,0,0;                                                   267P    239
510,251,2,1,261,267;                                                 269P    240
120,275,273,0.0D0,6.28318530717959D0;                                271P    241
110,-.531742125984252D0,.226377952755906D0,.25D0,                    273P    242
-.531742125984252D0,9.84251968503941D-3,.25D0;                       273P    243
110,-.46875D0,.226377952755906D0,.25D0,-.46875D0,                    275P    244
-.773622047244094D0,.25D0;                                           275P    245
100,0.0D0,0.0D0,0.0D0,-.062992125984252D0,7.7143105458101D-18,       277P    246
-.062992125984252D0,7.7143105458101D-18;                             277P    247
124,-1.0D0,0.0D0,0.0D0,-.46875D0,0.0D0,0.0D0,1.0D0,                  279P    248
1.96850393700788D-2,0.0D0,1.0D0,0.0D0,.25D0;                         279P    249
508,1,0,11,46,0,0;                                                   281P    250
100,0.0D0,0.0D0,0.0D0,-.062992125984252D0,7.7143105458101D-18,       283P    251
-.062992125984252D0,7.7143105458101D-18;                             283P    252
124,-1.0D0,0.0D0,0.0D0,-.46875D0,0.0D0,0.0D0,-1.0D0,                 285P    253
.216535433070866D0,0.0D0,-1.0D0,0.0D0,.25D0;                         285P    254
508,1,0,11,47,0,0;                                                   287P    255
510,271,2,1,281,287;                                                 289P    256
116,-.625D0,.216535433070866D0,0.0D0,0;                              291P    257
123,-1.0D0,0.0D0,0.0D0;                                              293P    258
190,291,293,297;                                                     295P    259
123,0.0D0,-1.0D0,0.0D0;                                              297P    260
110,-.625D0,1.96850393700787D-2,0.0D0,-.625D0,                       299P    261
1.96850393700787D-2,.5D0;                                            299P    262
110,-.625D0,.216535433070866D0,0.0D0,-.625D0,.216535433070866D0,     301P    263
.5D0;                                                                301P    264
508,4,0,11,27,1,0,0,11,48,1,0,0,11,32,0,0,0,11,49,0,0;               303P    265
510,295,1,1,303;                                                     305P    266
116,-.306165651608427D0,.216535433070866D0,0.0D0,0;                  307P    267
123,0.0D0,1.0D0,0.0D0;                                               309P    268
190,307,309,313;                                                     311P    269
123,-1.0D0,0.0D0,0.0D0;                                              313P    270
508,4,0,11,28,1,0,0,11,49,1,0,0,11,31,0,0,0,11,37,0,0;               315P    271
508,1,0,11,47,1,0;                                                   317P    272
510,311,2,1,315,317;                                                 319P    273
116,.625D0,.216535433070866D0,0.0D0,0;                               321P    274
123,0.0D0,1.0D0,0.0D0;                                               323P    275
190,321,323,327;                                                     325P    276
123,-1.0D0,0.0D0,0.0D0;                                              327P    277
508,6,0,11,1,1,0,0,11,17,1,0,0,11,14,1,0,0,11,11,1,0,0,11,8,1,0,     329P    278
0,11,5,1,0;                                                          329P    279
508,1,0,11,45,1,0;                                                   331P    280
510,325,2,1,329,331;                                                 333P    281
116,.625D0,1.96850393700787D-2,0.0D0,0;                              335P    282
123,1.0D0,0.0D0,0.0D0;                                               337P    283
190,335,337,341;                                                     339P    284
123,0.0D0,1.0D0,0.0D0;                                               341P    285
110,.625D0,1.96850393700787D-2,0.0D0,.625D0,1.96850393700787D-2,     343P    286
.5D0;                                                                343P    287
508,4,0,11,23,1,0,0,11,21,0,0,0,11,36,0,0,0,11,50,0,0;               345P    288
510,339,1,1,345;                                                     347P    289
116,9.80433538032972D-2,1.96850393700787D-2,0.0D0,0;                 349P    290
123,0.0D0,-1.0D0,0.0D0;                                              351P    291
190,349,351,355;                                                     353P    292
123,1.0D0,0.0D0,0.0D0;                                               355P    293
110,9.80433538032972D-2,1.96850393700787D-2,-.0625D0,                357P    294
9.80433538032972D-2,1.96850393700787D-2,.5D0;                        357P    295
508,6,0,11,24,1,0,0,11,50,1,0,0,11,35,0,0,0,11,51,0,0,0,11,42,0,     359P    296
0,0,11,38,0,0;                                                       359P    297
508,1,0,11,44,1,0;                                                   361P    298
510,353,2,1,359,361;                                                 363P    299
120,369,367,0.0D0,6.28318530717959D0;                                365P    300
110,-9.80433538032969D-2,-1.96850393700789D-2,-.090625D0,            367P    301
-9.80433538032969D-2,-1.96850393700789D-2,.528125D0;                 367P    302
110,0.0D0,-8.74191357972564D-17,-.090625D0,0.0D0,                    369P    303
-8.74191357972564D-17,.909375D0;                                     369P    304
110,-9.80433538032972D-2,1.96850393700787D-2,-.0625D0,               371P    305
-9.80433538032972D-2,1.96850393700787D-2,.5D0;                       371P    306
508,4,0,11,51,1,0,0,11,34,0,0,0,11,52,0,0,0,11,43,0,0;               373P    307
510,365,1,1,373;                                                     375P    308
116,-.625D0,1.96850393700787D-2,0.0D0,0;                             377P    309
123,0.0D0,-1.0D0,0.0D0;                                              379P    310
190,377,379,383;                                                     381P    311
123,1.0D0,0.0D0,0.0D0;                                               383P    312
508,6,0,11,26,1,0,0,11,40,1,0,0,11,41,0,0,0,11,52,1,0,0,11,33,0,     385P    313
0,0,11,48,0,0;                                                       385P    314
508,1,0,11,46,1,0;                                                   387P    315
510,381,2,1,385,387;                                                 389P    316
514,21,25,1,43,1,61,1,79,1,97,1,113,1,135,1,165,1,195,1,209,1,       391P    317
229,1,249,1,269,1,289,1,305,1,319,1,333,1,347,1,363,1,375,1,389,     391P    318
1;                                                                   391P    319
186,391,1,0;                                                         393P    320
S      1G      4D    394P    320                                        T      1
