                                                                        S      1
,,9H_UBIS.ipt,27HNo Iges File Name specified,22HAutodesk Inventor 2013, G      1
37HAutoDesk Inventor Iges Exporter R2013,32,38,6,99,15,9H_UBIS.ipt,     G      2
1.0D0,2,2HMM,1,.08D0,15H20131210.105939,.01D0,10000.0D0,8Hemployee,,11, G      3
0,,;                                                                    G      4
     406       1       0       0       1       0       0       000000000D      1
     406       0       0       1       3                               0D      2
     116       2       0       0       0       0       0       000010000D      3
     116       0       0       1       0                               0D      4
     123       3       0       0       0       0       0       000010200D      5
     123       0       0       1       0                               0D      6
     192       4       0       0       0       0       0       000010000D      7
     192       0       0       1       1                               0D      8
     123       5       0       0       0       0       0       000010200D      9
     123       0       0       1       0                               0D     10
     504       6       0       0       0       0       0       000010001D     11
     504       0       0       2       1                               0D     12
     502       8       0       0       0       0       0       000010000D     13
     502       0       0       6       1                               0D     14
     100      14       0       0       0       0      17       000010000D     15
     100       0       0       1       0                               0D     16
     124      15       0       0       0       0       0       000000000D     17
     124       0       0       2       0                               0D     18
     508      17       0       0       0       0       0       000010000D     19
     508       0       0       1       1                               0D     20
     100      18       0       0       0       0      23       000010000D     21
     100       0       0       1       0                               0D     22
     124      19       0       0       0       0       0       000000000D     23
     124       0       0       2       0                               0D     24
     508      21       0       0       0       0       0       000010000D     25
     508       0       0       1       1                               0D     26
     510      22       0       0       0       0       0       000010000D     27
     510       0    -181       1       1                               0D     28
     116      23       0       0       0       0       0       000010000D     29
     116       0       0       1       0                               0D     30
     123      24       0       0       0       0       0       000010200D     31
     123       0       0       1       0                               0D     32
     194      25       0       0       0       0       0       000010000D     33
     194       0       0       1       1                               0D     34
     123      26       0       0       0       0       0       000010200D     35
     123       0       0       1       0                               0D     36
     100      27       0       0       0       0      39       000010000D     37
     100       0       0       1       0                               0D     38
     124      28       0       0       0       0       0       000000000D     39
     124       0       0       2       0                               0D     40
     508      30       0       0       0       0       0       000010000D     41
     508       0       0       1       1                               0D     42
     508      31       0       0       0       0       0       000010000D     43
     508       0       0       1       1                               0D     44
     510      32       0       0       0       0       0       000010000D     45
     510       0    -181       1       1                               0D     46
     116      33       0       0       0       0       0       000010000D     47
     116       0       0       1       0                               0D     48
     123      34       0       0       0       0       0       000010200D     49
     123       0       0       1       0                               0D     50
     192      35       0       0       0       0       0       000010000D     51
     192       0       0       1       1                               0D     52
     123      36       0       0       0       0       0       000010200D     53
     123       0       0       1       0                               0D     54
     100      37       0       0       0       0      57       000010000D     55
     100       0       0       1       0                               0D     56
     124      38       0       0       0       0       0       000000000D     57
     124       0       0       2       0                               0D     58
     508      40       0       0       0       0       0       000010000D     59
     508       0       0       1       1                               0D     60
     508      41       0       0       0       0       0       000010000D     61
     508       0       0       1       1                               0D     62
     510      42       0       0       0       0       0       000010000D     63
     510       0    -181       1       1                               0D     64
     116      43       0       0       0       0       0       000010000D     65
     116       0       0       1       0                               0D     66
     123      44       0       0       0       0       0       000010200D     67
     123       0       0       1       0                               0D     68
     194      45       0       0       0       0       0       000010000D     69
     194       0       0       1       1                               0D     70
     123      46       0       0       0       0       0       000010200D     71
     123       0       0       1       0                               0D     72
     100      47       0       0       0       0      75       000010000D     73
     100       0       0       1       0                               0D     74
     124      48       0       0       0       0       0       000000000D     75
     124       0       0       2       0                               0D     76
     508      50       0       0       0       0       0       000010000D     77
     508       0       0       1       1                               0D     78
     508      51       0       0       0       0       0       000010000D     79
     508       0       0       1       1                               0D     80
     510      52       0       0       0       0       0       000010000D     81
     510       0    -181       1       1                               0D     82
     116      53       0       0       0       0       0       000010000D     83
     116       0       0       1       0                               0D     84
     123      54       0       0       0       0       0       000010200D     85
     123       0       0       1       0                               0D     86
     192      55       0       0       0       0       0       000010000D     87
     192       0       0       1       1                               0D     88
     123      56       0       0       0       0       0       000010200D     89
     123       0       0       1       0                               0D     90
     100      57       0       0       0       0      93       000010000D     91
     100       0       0       1       0                               0D     92
     124      58       0       0       0       0       0       000000000D     93
     124       0       0       2       0                               0D     94
     508      60       0       0       0       0       0       000010000D     95
     508       0       0       1       1                               0D     96
     508      61       0       0       0       0       0       000010000D     97
     508       0       0       1       1                               0D     98
     510      62       0       0       0       0       0       000010000D     99
     510       0    -181       1       1                               0D    100
     116      63       0       0       0       0       0       000010000D    101
     116       0       0       1       0                               0D    102
     123      64       0       0       0       0       0       000010200D    103
     123       0       0       1       0                               0D    104
     190      65       0       0       0       0       0       000010000D    105
     190       0       0       1       1                               0D    106
     123      66       0       0       0       0       0       000010200D    107
     123       0       0       1       0                               0D    108
     508      67       0       0       0       0       0       000010000D    109
     508       0       0       1       1                               0D    110
     100      68       0       0       0       0      93       000010000D    111
     100       0       0       1       0                               0D    112
     508      69       0       0       0       0       0       000010000D    113
     508       0       0       1       1                               0D    114
     510      70       0       0       0       0       0       000010000D    115
     510       0    -181       1       1                               0D    116
     116      71       0       0       0       0       0       000010000D    117
     116       0       0       1       0                               0D    118
     123      72       0       0       0       0       0       000010200D    119
     123       0       0       1       0                               0D    120
     192      73       0       0       0       0       0       000010000D    121
     192       0       0       1       1                               0D    122
     123      74       0       0       0       0       0       000010200D    123
     123       0       0       1       0                               0D    124
     100      75       0       0       0       0     127       000010000D    125
     100       0       0       1       0                               0D    126
     124      76       0       0       0       0       0       000000000D    127
     124       0       0       2       0                               0D    128
     508      78       0       0       0       0       0       000010000D    129
     508       0       0       1       1                               0D    130
     508      79       0       0       0       0       0       000010000D    131
     508       0       0       1       1                               0D    132
     510      80       0       0       0       0       0       000010000D    133
     510       0    -183       1       1                               0D    134
     116      81       0       0       0       0       0       000010000D    135
     116       0       0       1       0                               0D    136
     123      82       0       0       0       0       0       000010200D    137
     123       0       0       1       0                               0D    138
     194      83       0       0       0       0       0       000010000D    139
     194       0       0       1       1                               0D    140
     123      84       0       0       0       0       0       000010200D    141
     123       0       0       1       0                               0D    142
     100      85       0       0       0       0     145       000010000D    143
     100       0       0       1       0                               0D    144
     124      86       0       0       0       0       0       000000000D    145
     124       0       0       2       0                               0D    146
     508      88       0       0       0       0       0       000010000D    147
     508       0       0       1       1                               0D    148
     508      89       0       0       0       0       0       000010000D    149
     508       0       0       1       1                               0D    150
     510      90       0       0       0       0       0       000010000D    151
     510       0    -185       1       1                               0D    152
     116      91       0       0       0       0       0       000010000D    153
     116       0       0       1       0                               0D    154
     123      92       0       0       0       0       0       000010200D    155
     123       0       0       1       0                               0D    156
     190      93       0       0       0       0       0       000010000D    157
     190       0       0       1       1                               0D    158
     123      94       0       0       0       0       0       000010200D    159
     123       0       0       1       0                               0D    160
     508      95       0       0       0       0       0       000010000D    161
     508       0       0       1       1                               0D    162
     510      96       0       0       0       0       0       000010000D    163
     510       0    -185       1       1                               0D    164
     116      97       0       0       0       0       0       000010000D    165
     116       0       0       1       0                               0D    166
     123      98       0       0       0       0       0       000010200D    167
     123       0       0       1       0                               0D    168
     190      99       0       0       0       0       0       000010000D    169
     190       0       0       1       1                               0D    170
     123     100       0       0       0       0       0       000010200D    171
     123       0       0       1       0                               0D    172
     508     101       0       0       0       0       0       000010000D    173
     508       0       0       1       1                               0D    174
     510     102       0       0       0       0       0       000010000D    175
     510       0    -181       1       1                               0D    176
     514     103       0       0       0       0       0       000010000D    177
     514       0       0       1       1                               0D    178
     186     104       0       0       1       0       0       000000000D    179
     186       0       0       1       0                  Solid1       0D    180
     314     105       0       0       0       0       0       000000000D    181
     314       0       8       1       0                               0D    182
     314     106       0       0       0       0       0       000000000D    183
     314       0       2       1       0                               0D    184
     314     107       0       0       0       0       0       000000000D    185
     314       0       5       1       0                               0D    186
406,2,0,5H_UBIS;                                                       1P      1
116,5.83238038093928D-16,0.0D0,1.905D0,0;                              3P      2
123,3.06161699786838D-16,0.0D0,1.0D0;                                  5P      3
192,3,5,7.9629D0,9;                                                    7P      4
123,1.0D0,0.0D0,0.0D0;                                                 9P      5
504,9,15,13,1,13,1,21,13,2,13,2,37,13,3,13,3,55,13,4,13,4,73,13,      11P      6
5,13,5,91,13,6,13,6,111,13,7,13,7,125,13,8,13,8,143,13,9,13,9;        11P      7
502,9,7.9629D0,0.0D0,3.81D0,7.9629D0,0.0D0,                           13P      8
-9.75173999693046D-16,5.842D0,0.0D0,5.334D0,5.842D0,0.0D0,            13P      9
7.23899999999996D0,7.9629D0,0.0D0,8.001D0,7.96290000000001D0,         13P     10
0.0D0,40.259D0,6.37540000000001D0,0.0D0,40.259D0,                     13P     11
6.37540000000002D0,0.0D0,68.6656D0,1.00000000000002D0,0.0D0,          13P     12
74.041D0;                                                             13P     13
100,0.0D0,0.0D0,0.0D0,7.9629D0,0.0D0,7.9629D0,0.0D0;                  15P     14
124,1.0D0,0.0D0,0.0D0,1.16647607618785D-15,0.0D0,1.0D0,0.0D0,         17P     15
0.0D0,0.0D0,0.0D0,1.0D0,3.81D0;                                       17P     16
508,1,0,11,1,0,0;                                                     19P     17
100,0.0D0,0.0D0,0.0D0,7.9629D0,0.0D0,7.9629D0,0.0D0;                  21P     18
124,1.0D0,0.0D0,0.0D0,4.47841394000929D-31,0.0D0,1.0D0,0.0D0,         23P     19
0.0D0,0.0D0,0.0D0,1.0D0,1.46276099953957D-15;                         23P     20
508,1,0,11,2,1,0;                                                     25P     21
510,7,2,1,19,25;                                                      27P     22
116,1.39977129142543D-15,0.0D0,4.572D0,0;                             29P     23
123,-3.06161699786838D-16,0.0D0,-1.0D0;                               31P     24
194,29,31,6.90245D0,54.3003786609991D0,35;                            33P     25
123,1.0D0,0.0D0,0.0D0;                                                35P     26
100,0.0D0,0.0D0,0.0D0,5.842D0,0.0D0,5.842D0,0.0D0;                    37P     27
124,1.0D0,0.0D0,0.0D0,1.633066506663D-15,0.0D0,1.0D0,0.0D0,           39P     28
0.0D0,0.0D0,0.0D0,1.0D0,5.334D0;                                      39P     29
508,1,0,11,3,0,0;                                                     41P     30
508,1,0,11,1,1,0;                                                     43P     31
510,33,2,1,41,43;                                                     45P     32
116,1.92468552570995D-15,0.0D0,6.28649999999998D0,0;                  47P     33
123,3.06161699786838D-16,0.0D0,1.0D0;                                 49P     34
192,47,49,5.842D0,53;                                                 51P     35
123,1.0D0,0.0D0,0.0D0;                                                53P     36
100,0.0D0,0.0D0,0.0D0,5.842D0,0.0D0,5.842D0,0.0D0;                    55P     37
124,1.0D0,0.0D0,0.0D0,2.21630454475691D-15,0.0D0,1.0D0,0.0D0,         57P     38
0.0D0,0.0D0,0.0D0,1.0D0,7.23899999999996D0;                           57P     39
508,1,0,11,4,0,0;                                                     59P     40
508,1,0,11,3,1,0;                                                     61P     41
510,51,2,1,59,61;                                                     63P     42
116,2.3329521523757D-15,0.0D0,7.61999999999998D0,0;                   65P     43
123,3.06161699786838D-16,0.0D0,1.0D0;                                 67P     44
194,65,67,6.90245D0,70.2375790676044D0,71;                            69P     45
123,1.0D0,0.0D0,0.0D0;                                                71P     46
100,0.0D0,0.0D0,0.0D0,7.9629D0,0.0D0,7.9629D0,0.0D0;                  73P     47
124,1.0D0,0.0D0,0.0D0,2.44959975999449D-15,0.0D0,1.0D0,0.0D0,         75P     48
0.0D0,0.0D0,0.0D0,1.0D0,8.001D0;                                      75P     49
508,1,0,11,5,0,0;                                                     77P     50
508,1,0,11,4,1,0;                                                     79P     51
510,69,2,1,77,79;                                                     81P     52
116,7.38768181585641D-15,0.0D0,24.13D0,0;                             83P     53
123,3.06161699786838D-16,0.0D0,1.0D0;                                 85P     54
192,83,85,7.9629D0,89;                                                87P     55
123,1.0D0,0.0D0,0.0D0;                                                89P     56
100,0.0D0,0.0D0,0.0D0,7.9629D0,0.0D0,7.9629D0,0.0D0;                  91P     57
124,1.0D0,0.0D0,0.0D0,1.23257638717183D-14,0.0D0,1.0D0,0.0D0,         93P     58
0.0D0,0.0D0,0.0D0,1.0D0,40.259D0;                                     93P     59
508,1,0,11,6,0,0;                                                     95P     60
508,1,0,11,5,1,0;                                                     97P     61
510,87,2,1,95,97;                                                     99P     62
116,7.16915000000001D0,0.0D0,40.259D0,0;                             101P     63
123,0.0D0,0.0D0,1.0D0;                                               103P     64
190,101,103,107;                                                     105P     65
123,1.0D0,0.0D0,0.0D0;                                               107P     66
508,1,0,11,6,1,0;                                                    109P     67
100,0.0D0,0.0D0,0.0D0,6.3754D0,0.0D0,6.3754D0,0.0D0;                 111P     68
508,1,0,11,7,0,0;                                                    113P     69
510,105,2,1,109,113;                                                 115P     70
116,1.66742703423007D-14,0.0D0,54.4623D0,0;                          117P     71
123,3.06161699786838D-16,0.0D0,1.0D0;                                119P     72
192,117,119,6.3754D0,123;                                            121P     73
123,1.0D0,0.0D0,0.0D0;                                               123P     74
100,0.0D0,0.0D0,0.0D0,6.3754D0,0.0D0,6.3754D0,0.0D0;                 125P     75
124,1.0D0,0.0D0,0.0D0,2.10227768128831D-14,0.0D0,1.0D0,0.0D0,        127P     76
0.0D0,0.0D0,0.0D0,1.0D0,68.6656D0;                                   127P     77
508,1,0,11,8,0,0;                                                    129P     78
508,1,0,11,7,1,0;                                                    131P     79
510,121,2,1,129,131;                                                 133P     80
116,2.18456476134002D-14,0.0D0,71.3533D0,0;                          135P     81
123,-3.06161699786838D-16,0.0D0,-1.0D0;                              137P     82
194,135,137,3.6877D0,45.0000000000001D0,141;                         139P     83
123,1.0D0,0.0D0,0.0D0;                                               141P     84
100,0.0D0,0.0D0,0.0D0,1.0D0,0.0D0,1.0D0,0.0D0;                       143P     85
124,1.0D0,0.0D0,0.0D0,2.26685184139173D-14,0.0D0,1.0D0,0.0D0,        145P     86
0.0D0,0.0D0,0.0D0,1.0D0,74.041D0;                                    145P     87
508,1,0,11,9,0,0;                                                    147P     88
508,1,0,11,8,1,0;                                                    149P     89
510,139,2,1,147,149;                                                 151P     90
116,.500000000000023D0,0.0D0,74.041D0,0;                             153P     91
123,0.0D0,0.0D0,1.0D0;                                               155P     92
190,153,155,159;                                                     157P     93
123,1.0D0,0.0D0,0.0D0;                                               159P     94
508,1,0,11,9,1,0;                                                    161P     95
510,157,1,1,161;                                                     163P     96
116,3.98145D0,0.0D0,-4.87586999846523D-16,0;                         165P     97
123,0.0D0,0.0D0,-1.0D0;                                              167P     98
190,165,167,171;                                                     169P     99
123,-1.0D0,0.0D0,0.0D0;                                              171P    100
508,1,0,11,2,0,0;                                                    173P    101
510,169,1,1,173;                                                     175P    102
514,10,27,1,45,1,63,1,81,1,99,1,115,1,133,1,151,1,163,1,175,1;       177P    103
186,177,1,0;                                                         179P    104
314,75.0D0,75.0D0,75.0D0,;                                           181P    105
314,52.9999971389771D0,0.0D0,0.0D0,;                                 183P    106
314,79.6000003814697D0,60.3999972343445D0,23.1000006198883D0,;       185P    107
S      1G      4D    186P    107                                        T      1
