                                                                        S      1
,,11H_VOLUME.ipt,27HNo Iges File Name specified,22HAutodesk Inventor 201G      1
3,37HAutoDesk Inventor Iges Exporter R2013,32,38,6,99,15,11H_VOLUME.ipt,G      2
1.0D0,2,2HMM,1,.08D0,15H20131210.105954,.01D0,10000.0D0,8Hemployee,,11, G      3
0,,;                                                                    G      4
     406       1       0       0       1       0       0       000000000D      1
     406       0       0       1       3                               0D      2
     128       2       0       0       0       0       0       000010000D      3
     128       0       0      88       0                               0D      4
     504      90       0       0       0       0       0       000010001D      5
     504       0       0       5       1                               0D      6
     502      95       0       0       0       0       0       000010000D      7
     502       0       0      15       1                               0D      8
     126     110       0       0       0       0       0       000010000D      9
     126       0       0      20       0                               0D     10
     126     130       0       0       0       0       0       000010000D     11
     126       0       0      15       0                               0D     12
     126     145       0       0       0       0       0       000010000D     13
     126       0       0      15       0                               0D     14
     126     160       0       0       0       0       0       000010000D     15
     126       0       0      13       0                               0D     16
     100     173       0       0       0       0      19       000010000D     17
     100       0       0       2       0                               0D     18
     124     175       0       0       0       0       0       000000000D     19
     124       0       0       3       0                               0D     20
     508     178       0       0       0       0       0       000010000D     21
     508       0       0       1       1                               0D     22
     510     179       0       0       0       0       0       000010000D     23
     510       0    -173       1       1                               0D     24
     128     180       0       0       0       0       0       000010000D     25
     128       0       0      64       0                               0D     26
     126     244       0       0       0       0       0       000010000D     27
     126       0       0      19       0                               0D     28
     100     263       0       0       0       0      31       000010000D     29
     100       0       0       2       0                               0D     30
     124     265       0       0       0       0       0       000000000D     31
     124       0       0       3       0                               0D     32
     126     268       0       0       0       0       0       000010000D     33
     126       0       0      14       0                               0D     34
     126     282       0       0       0       0       0       000010000D     35
     126       0       0      18       0                               0D     36
     508     300       0       0       0       0       0       000010000D     37
     508       0       0       1       1                               0D     38
     510     301       0       0       0       0       0       000010000D     39
     510       0    -173       1       1                               0D     40
     120     302       0       0       0       0       0       000010000D     41
     120       0       0       1       0                               0D     42
     110     303       0       0       0       0       0       000010000D     43
     110       0       0       2       0                               0D     44
     110     305       0       0       0       0       0       001010000D     45
     110       0       0       2       0                               0D     46
     110     307       0       0       0       0       0       000010000D     47
     110       0       0       2       0                               0D     48
     100     309       0       0       0       0      51       000010000D     49
     100       0       0       2       0                               0D     50
     124     311       0       0       0       0       0       000000000D     51
     124       0       0       3       0                               0D     52
     110     314       0       0       0       0       0       000010000D     53
     110       0       0       2       0                               0D     54
     508     316       0       0       0       0       0       000010000D     55
     508       0       0       1       1                               0D     56
     510     317       0       0       0       0       0       000010000D     57
     510       0    -173       1       1                               0D     58
     116     318       0       0       0       0       0       000010000D     59
     116       0       0       1       0                               0D     60
     123     319       0       0       0       0       0       000010200D     61
     123       0       0       1       0                               0D     62
     192     320       0       0       0       0       0       000010000D     63
     192       0       0       1       1                               0D     64
     123     321       0       0       0       0       0       000010200D     65
     123       0       0       1       0                               0D     66
     126     322       0       0       0       0       0       000010000D     67
     126       0       0      14       0                               0D     68
     110     336       0       0       0       0       0       000010000D     69
     110       0       0       2       0                               0D     70
     100     338       0       0       0       0      73       000010000D     71
     100       0       0       2       0                               0D     72
     124     340       0       0       0       0       0       000000000D     73
     124       0       0       3       0                               0D     74
     508     343       0       0       0       0       0       000010000D     75
     508       0       0       1       1                               0D     76
     510     344       0       0       0       0       0       000010000D     77
     510       0    -173       1       1                               0D     78
     128     345       0       0       0       0       0       000010000D     79
     128       0       0      87       0                               0D     80
     126     432       0       0       0       0       0       000010000D     81
     126       0       0      13       0                               0D     82
     100     445       0       0       0       0      85       000010000D     83
     100       0       0       2       0                               0D     84
     124     447       0       0       0       0       0       000000000D     85
     124       0       0       3       0                               0D     86
     508     450       0       0       0       0       0       000010000D     87
     508       0       0       1       1                               0D     88
     510     451       0       0       0       0       0       000010000D     89
     510       0    -173       1       1                               0D     90
     116     452       0       0       0       0       0       000010000D     91
     116       0       0       1       0                               0D     92
     123     453       0       0       0       0       0       000010200D     93
     123       0       0       1       0                               0D     94
     192     454       0       0       0       0       0       000010000D     95
     192       0       0       1       1                               0D     96
     123     455       0       0       0       0       0       000010200D     97
     123       0       0       1       0                               0D     98
     110     456       0       0       0       0       0       000010000D     99
     110       0       0       2       0                               0D    100
     100     458       0       0       0       0     103       000010000D    101
     100       0       0       2       0                               0D    102
     124     460       0       0       0       0       0       000000000D    103
     124       0       0       3       0                               0D    104
     110     463       0       0       0       0       0       000010000D    105
     110       0       0       2       0                               0D    106
     508     465       0       0       0       0       0       000010000D    107
     508       0       0       1       1                               0D    108
     510     466       0       0       0       0       0       000010000D    109
     510       0    -173       1       1                               0D    110
     120     467       0       0       0       0       0       000010000D    111
     120       0       0       1       0                               0D    112
     110     468       0       0       0       0       0       000010000D    113
     110       0       0       2       0                               0D    114
     110     470       0       0       0       0       0       001010000D    115
     110       0       0       2       0                               0D    116
     110     472       0       0       0       0       0       000010000D    117
     110       0       0       2       0                               0D    118
     100     474       0       0       0       0     121       000010000D    119
     100       0       0       2       0                               0D    120
     124     476       0       0       0       0       0       000000000D    121
     124       0       0       3       0                               0D    122
     508     479       0       0       0       0       0       000010000D    123
     508       0       0       1       1                               0D    124
     510     480       0       0       0       0       0       000010000D    125
     510       0    -173       1       1                               0D    126
     116     481       0       0       0       0       0       000010000D    127
     116       0       0       1       0                               0D    128
     123     482       0       0       0       0       0       000010200D    129
     123       0       0       1       0                               0D    130
     192     483       0       0       0       0       0       000010000D    131
     192       0       0       1       1                               0D    132
     123     484       0       0       0       0       0       000010200D    133
     123       0       0       1       0                               0D    134
     100     485       0       0       0       0     137       000010000D    135
     100       0       0       2       0                               0D    136
     124     487       0       0       0       0       0       000000000D    137
     124       0       0       3       0                               0D    138
     508     490       0       0       0       0       0       000010000D    139
     508       0       0       1       1                               0D    140
     510     491       0       0       0       0       0       000010000D    141
     510       0    -173       1       1                               0D    142
     120     492       0       0       0       0       0       000010000D    143
     120       0       0       1       0                               0D    144
     110     493       0       0       0       0       0       000010000D    145
     110       0       0       2       0                               0D    146
     110     495       0       0       0       0       0       001010000D    147
     110       0       0       2       0                               0D    148
     100     497       0       0       0       0     151       000010000D    149
     100       0       0       2       0                               0D    150
     124     499       0       0       0       0       0       000000000D    151
     124       0       0       3       0                               0D    152
     508     502       0       0       0       0       0       000010000D    153
     508       0       0       1       1                               0D    154
     510     503       0       0       0       0       0       000010000D    155
     510       0    -173       1       1                               0D    156
     116     504       0       0       0       0       0       000010000D    157
     116       0       0       1       0                               0D    158
     123     505       0       0       0       0       0       000010200D    159
     123       0       0       1       0                               0D    160
     190     506       0       0       0       0       0       000010000D    161
     190       0       0       1       1                               0D    162
     123     507       0       0       0       0       0       000010200D    163
     123       0       0       1       0                               0D    164
     508     508       0       0       0       0       0       000010000D    165
     508       0       0       2       1                               0D    166
     510     510       0       0       0       0       0       000010000D    167
     510       0    -173       1       1                               0D    168
     514     511       0       0       0       0       0       000010000D    169
     514       0       0       1       1                               0D    170
     186     512       0       0       1       0       0       000000000D    171
     186       0       0       1       0                  Solid1       0D    172
     314     513       0       0       0       0       0       000000000D    173
     314       0       8       1       0                               0D    174
406,2,0,7H_VOLUME;                                                     1P      1
128,6,8,2,2,0,1,0,0,0,-1.95519310129054D0,-1.95519310129054D0,         3P      2
-1.95519310129054D0,-.651731033763512D0,-.651731033763512D0,           3P      3
.651731033763512D0,.651731033763512D0,1.95519310129054D0,              3P      4
1.95519310129054D0,1.95519310129054D0,0.0D0,0.0D0,0.0D0,               3P      5
1.5707963267949D0,1.5707963267949D0,3.14159265358979D0,                3P      6
3.14159265358979D0,4.71238898038469D0,4.71238898038469D0,              3P      7
6.28318530717959D0,6.28318530717959D0,6.28318530717959D0,1.0D0,        3P      8
.79503500824724D0,1.0D0,.795035008247239D0,1.0D0,                      3P      9
.795035008247241D0,1.0D0,.707106781186548D0,.562174645612326D0,        3P     10
.707106781186548D0,.562174645612325D0,.707106781186548D0,              3P     11
.562174645612327D0,.707106781186548D0,1.0D0,.79503500824724D0,         3P     12
1.0D0,.795035008247239D0,1.0D0,.795035008247241D0,1.0D0,               3P     13
.707106781186548D0,.562174645612326D0,.707106781186548D0,              3P     14
.562174645612325D0,.707106781186548D0,.562174645612327D0,              3P     15
.707106781186548D0,1.0D0,.79503500824724D0,1.0D0,                      3P     16
.795035008247239D0,1.0D0,.795035008247241D0,1.0D0,                     3P     17
.707106781186548D0,.562174645612326D0,.707106781186548D0,              3P     18
.562174645612325D0,.707106781186548D0,.562174645612327D0,              3P     19
.707106781186548D0,1.0D0,.79503500824724D0,1.0D0,                      3P     20
.795035008247239D0,1.0D0,.795035008247241D0,1.0D0,                     3P     21
.707106781186548D0,.562174645612326D0,.707106781186548D0,              3P     22
.562174645612325D0,.707106781186548D0,.562174645612327D0,              3P     23
.707106781186548D0,1.0D0,.79503500824724D0,1.0D0,                      3P     24
.795035008247239D0,1.0D0,.795035008247241D0,1.0D0,-150.0D0,            3P     25
-86.6025403784438D0,248.824088538995D0,-220.726376944049D0,            3P     26
35.8991379239165D0,191.603632209154D0,-267.003500824724D0,             3P     27
116.053467713405D0,312.91634146277D0,-313.280624705399D0,              3P     28
196.207797502894D0,434.229050716386D0,-267.003500824724D0,             3P     29
116.053467713405D0,555.541759970003D0,-220.726376944049D0,             3P     30
35.8991379239166D0,676.854469223619D0,-150.0D0,                        3P     31
-86.6025403784438D0,619.634012893778D0,-150.0D0,                       3P     32
-86.6025403784439D0,248.824088538995D0,-343.228055246409D0,            3P     33
-34.8272390201322D0,191.603632209154D0,-469.659508916573D0,            3P     34
-.950033111318845D0,312.91634146277D0,-596.090962586737D0,             3P     35
32.9271727974945D0,434.229050716386D0,-469.659508916573D0,             3P     36
-.950033111318845D0,555.541759970003D0,-343.228055246409D0,            3P     37
-34.8272390201322D0,676.854469223619D0,-150.0D0,                       3P     38
-86.6025403784439D0,619.634012893778D0,-150.0D0,                       3P     39
-86.6025403784439D0,248.824088538995D0,-272.501678302361D0,            3P     40
-157.328917322493D0,191.603632209154D0,-352.656008091849D0,            3P     41
-203.606041203168D0,312.91634146277D0,-432.810337881338D0,             3P     42
-249.883165083843D0,434.229050716386D0,-352.656008091849D0,            3P     43
-203.606041203168D0,555.541759970003D0,-272.501678302361D0,            3P     44
-157.328917322493D0,676.854469223619D0,-150.0D0,                       3P     45
-86.6025403784439D0,619.634012893778D0,-150.0D0,                       3P     46
-86.6025403784439D0,248.824088538995D0,-201.775301358312D0,            3P     47
-279.830595624853D0,191.603632209154D0,-235.652507267125D0,            3P     48
-406.262049295017D0,312.91634146277D0,-269.529713175939D0,             3P     49
-532.69350296518D0,434.229050716386D0,-235.652507267125D0,             3P     50
-406.262049295017D0,555.541759970003D0,-201.775301358312D0,            3P     51
-279.830595624853D0,676.854469223619D0,-150.0D0,                       3P     52
-86.6025403784439D0,619.634012893778D0,-150.0D0,                       3P     53
-86.6025403784439D0,248.824088538995D0,-79.2736230559514D0,            3P     54
-209.104218680804D0,191.603632209154D0,-32.9964991752761D0,            3P     55
-289.258548470293D0,312.91634146277D0,13.2806247053991D0,              3P     56
-369.412878259781D0,434.229050716386D0,-32.9964991752761D0,            3P     57
-289.258548470293D0,555.541759970003D0,-79.2736230559514D0,            3P     58
-209.104218680804D0,676.854469223619D0,-150.0D0,                       3P     59
-86.6025403784439D0,619.634012893778D0,-150.0D0,                       3P     60
-86.6025403784438D0,248.824088538995D0,43.228055246409D0,              3P     61
-138.377841736756D0,191.603632209154D0,169.659508916573D0,             3P     62
-172.255047645569D0,312.91634146277D0,296.090962586737D0,              3P     63
-206.132253554382D0,434.229050716386D0,169.659508916573D0,             3P     64
-172.255047645569D0,555.541759970003D0,43.228055246409D0,              3P     65
-138.377841736756D0,676.854469223619D0,-150.0D0,                       3P     66
-86.6025403784438D0,619.634012893778D0,-150.0D0,                       3P     67
-86.6025403784438D0,248.824088538995D0,-27.4983216976397D0,            3P     68
-15.8761634343952D0,191.603632209154D0,52.6560080918489D0,             3P     69
30.4009604462801D0,312.91634146277D0,132.810337881337D0,               3P     70
76.6780843269553D0,434.229050716386D0,52.6560080918489D0,              3P     71
30.4009604462801D0,555.541759970003D0,-27.4983216976397D0,             3P     72
-15.8761634343952D0,676.854469223619D0,-150.0D0,                       3P     73
-86.6025403784438D0,619.634012893778D0,-150.0D0,                       3P     74
-86.6025403784438D0,248.824088538995D0,-98.2246986416884D0,            3P     75
106.625514867965D0,191.603632209154D0,-64.3474927328751D0,             3P     76
233.056968538129D0,312.91634146277D0,-30.4702868240617D0,              3P     77
359.488422208293D0,434.229050716386D0,-64.3474927328751D0,             3P     78
233.056968538129D0,555.541759970003D0,-98.2246986416884D0,             3P     79
106.625514867965D0,676.854469223619D0,-150.0D0,                        3P     80
-86.6025403784438D0,619.634012893778D0,-150.0D0,                       3P     81
-86.6025403784438D0,248.824088538995D0,-220.726376944049D0,            3P     82
35.8991379239165D0,191.603632209154D0,-267.003500824724D0,             3P     83
116.053467713405D0,312.91634146277D0,-313.280624705399D0,              3P     84
196.207797502894D0,434.229050716386D0,-267.003500824724D0,             3P     85
116.053467713405D0,555.541759970003D0,-220.726376944049D0,             3P     86
35.8991379239166D0,676.854469223619D0,-150.0D0,                        3P     87
-86.6025403784438D0,619.634012893778D0,-1.95519310129054D0,            3P     88
1.95519310129054D0,0.0D0,6.28318530717959D0;                           3P     89
504,24,9,7,1,7,2,11,7,3,7,1,13,7,4,7,3,15,7,5,7,4,17,7,2,7,5,27,       5P     90
7,6,7,1,29,7,7,7,6,33,7,8,7,7,35,7,3,7,8,47,7,9,7,5,49,7,9,7,10,       5P     91
53,7,10,7,2,67,7,4,7,11,69,7,12,7,11,71,7,12,7,9,81,7,13,7,8,83,       5P     92
7,11,7,13,99,7,14,7,7,101,7,14,7,15,105,7,15,7,13,117,7,16,7,6,        5P     93
119,7,16,7,14,135,7,10,7,16,149,7,15,7,12;                             5P     94
502,16,-2.93197764420634D-14,-101.794919243112D0,                      7P     95
249.136367548796D0,-90.0000192812011D0,-86.6506417688696D0,            7P     96
234.792343964595D0,5.31236670568539D-15,7.35433935972196D-11,          7P     97
259.999999999996D0,-88.1569860441473D0,50.8974596158443D0,             7P     98
249.13636754925D0,-120.041666666667D0,-34.6169821541746D0,             7P     99
234.792343964595D0,90.0000192812011D0,-86.6506417688697D0,             7P    100
234.792343964595D0,120.041666666667D0,-34.6169821541747D0,             7P    101
234.792343964595D0,88.1569860416561D0,50.8974596199969D0,              7P    102
249.13636754892D0,-120.041666666667D0,-34.6169821541746D0,0.0D0,       7P    103
-90.0000192812011D0,-86.6506417688696D0,0.0D0,                         7P    104
-30.0416473854655D0,121.267623923044D0,234.792343964595D0,             7P    105
-30.0416473854655D0,121.267623923044D0,0.0D0,30.0416473854656D0,       7P    106
121.267623923044D0,234.792343964595D0,120.041666666667D0,              7P    107
-34.6169821541747D0,0.0D0,30.0416473854656D0,121.267623923044D0,       7P    108
0.0D0,90.0000192812011D0,-86.6506417688697D0,0.0D0;                    7P    109
126,11,3,0,0,1,0,2.51897780396371D0,2.51897780396371D0,                9P    110
2.51897780396371D0,2.51897780396371D0,4.98660604526981D0,              9P    111
4.98660604526981D0,6.83802795712641D0,6.83802795712641D0,              9P    112
8.26876828312639D0,8.26876828312639D0,9.93771482104951D0,              9P    113
9.93771482104951D0,11.8946799347189D0,11.8946799347189D0,              9P    114
11.8946799347189D0,11.8946799347189D0,1.0D0,1.0D0,1.0D0,1.0D0,         9P    115
1.0D0,1.0D0,1.0D0,1.0D0,1.0D0,1.0D0,1.0D0,1.0D0,                       9P    116
-1.99840144432528D-14,-101.794919243112D0,249.136367548796D0,          9P    117
-7.58919653939885D0,-101.794919243112D0,246.04555446545D0,             9P    118
-15.3615102717321D0,-101.48022875659D0,243.408548791278D0,             9P    119
-29.203612023362D0,-100.304719280461D0,239.628923910959D0,             9P    120
-35.1859744407913D0,-99.6023750743362D0,238.285329054993D0,            9P    121
-45.8420256906965D0,-97.9878048202708D0,236.400916345005D0,            9P    122
-50.4926570517756D0,-97.1613536382462D0,235.749138212779D0,            9P    123
-60.5643807092838D0,-95.0999603595272D0,234.703315995961D0,            9P    124
-65.9629966075481D0,-93.8245902949893D0,234.372505148199D0,            9P    125
-77.6381655739382D0,-90.6886215131697D0,234.142407167207D0,            9P    126
-83.8400621348847D0,-88.7841189790353D0,234.328913812682D0,            9P    127
-90.0000192812012D0,-86.6506417688696D0,234.792343964595D0,            9P    128
2.51897780396371D0,11.8946799347189D0,0.0D0,0.0D0,0.0D0;               9P    129
126,7,3,1,0,1,0,23.5257141884552D0,23.5257141884552D0,                11P    130
23.5257141884552D0,23.5257141884552D0,25.2526641792283D0,             11P    131
25.2526641792283D0,29.2291260677683D0,29.2291260677683D0,             11P    132
32.3600663481377D0,32.3600663481377D0,32.3600663481377D0,             11P    133
32.3600663481377D0,1.0D0,1.0D0,1.0D0,1.0D0,1.0D0,1.0D0,1.0D0,         11P    134
1.0D0,1.65982531366663D-14,8.97881768935349D-11,                      11P    135
260.000000000025D0,1.43121034496676D-14,-6.51402354622781D0,          11P    136
258.164168932276D0,-5.19930058971183D-14,-13.0880411072733D0,         11P    137
256.587055677037D0,-6.88338275267597D-14,-34.9279272640316D0,         11P    138
252.151404713356D0,4.41424674590962D-11,-50.4218092647115D0,          11P    139
250.290474464231D0,4.52303913445643D-11,-77.6791711300696D0,          11P    140
248.732145170593D0,-2.26391890167134D-14,-89.8306278014124D0,         11P    141
248.642854717605D0,-2.76760123740549D-14,-101.794919243112D0,         11P    142
249.136367548796D0,23.5257141884552D0,32.3600663481377D0,-1.0D0,      11P    143
0.0D0,0.0D0;                                                          11P    144
126,7,3,1,0,1,0,-10.2780803894001D0,-10.2780803894001D0,              13P    145
-10.2780803894001D0,-10.2780803894001D0,-7.51050270228114D0,          13P    146
-7.51050270228114D0,-4.24008662244433D0,-4.24008662244433D0,          13P    147
-3.10806614384156D-3,-3.10806614384156D-3,-3.10806614384156D-3,       13P    148
-3.10806614384156D-3,1.0D0,1.0D0,1.0D0,1.0D0,1.0D0,1.0D0,1.0D0,       13P    149
1.0D0,-88.1569860408334D0,50.8974596216212D0,249.136367548802D0,      13P    150
-80.1880235394538D0,46.2965769762877D0,248.75680564472D0,             13P    151
-72.153713117232D0,41.6579656910291D0,248.72362265344D0,              13P    152
-54.773983910274D0,31.6237743549517D0,249.40242450927D0,              13P    153
-45.2965608428183D0,26.1519815960276D0,250.257106760086D0,            13P    154
-23.8274580126337D0,13.7567892977582D0,253.44838183637D0,             13P    155
-11.7725250839858D0,6.79687052628084D0,256.168909741615D0,            13P    156
-3.02868841117743D-11,1.74815717457477D-11,259.99999999999D0,         13P    157
-10.2780803894001D0,-3.10806614384156D-3,-.500000000004912D0,         13P    158
-.866025403781602D0,1.35211105945283D-11;                             13P    159
126,7,3,0,0,1,0,0.0D0,0.0D0,0.0D0,0.0D0,2.04003390057249D0,           15P    160
2.04003390057249D0,6.32659320088181D0,6.32659320088181D0,             15P    161
9.42148547329939D0,9.42148547329939D0,9.42148547329939D0,             15P    162
9.42148547329939D0,1.0D0,1.0D0,1.0D0,1.0D0,1.0D0,1.0D0,1.0D0,         15P    163
1.0D0,-120.041666666667D0,-34.6169821541746D0,                        15P    164
234.792343964595D0,-118.759420211796D0,-27.9562867307064D0,           15P    165
234.310143442527D0,-117.240205591402D0,-21.3818302784065D0,           15P    166
234.12796436058D0,-111.7465418144D0,-1.06222220279512D0,              15P    167
234.608948912702D0,-107.005683512367D0,12.2139169390461D0,            15P    168
236.418298267079D0,-97.3435246329662D0,34.0045311159276D0,            15P    169
242.130201648335D0,-92.8929340529301D0,42.6945570420219D0,            15P    170
245.278797119178D0,-88.1569860434976D0,50.8974596167462D0,            15P    171
249.136367546534D0,0.0D0,9.42148547329939D0,0.0D0,0.0D0,0.0D0;        15P    172
100,0.0D0,0.0D0,0.0D0,-60.0D0,7.34788079488412D-15,                   17P    173
-29.9166474122452D0,-52.0095588100054D0;                              17P    174
124,-.999999678646648D0,-8.01689840428388D-4,0.0D0,-150.0D0,          19P    175
8.01689840428388D-4,-.999999678646648D0,0.0D0,                        19P    176
-86.6025403784439D0,0.0D0,0.0D0,1.0D0,234.792343964595D0;             19P    177
508,5,0,5,1,0,0,0,5,2,0,0,0,5,3,0,0,0,5,4,0,0,0,5,5,0,0;              21P    178
510,3,1,1,21;                                                         23P    179
128,4,8,2,2,0,1,0,0,0,0.0D0,0.0D0,0.0D0,.977596550645268D0,           25P    180
.977596550645268D0,1.95519310129054D0,1.95519310129054D0,             25P    181
1.95519310129054D0,0.0D0,0.0D0,0.0D0,1.5707963267949D0,               25P    182
1.5707963267949D0,3.14159265358979D0,3.14159265358979D0,              25P    183
4.71238898038469D0,4.71238898038469D0,6.28318530717959D0,             25P    184
6.28318530717959D0,6.28318530717959D0,1.0D0,.882897784110636D0,       25P    185
1.0D0,.882897784110638D0,1.0D0,.707106781186548D0,                    25P    186
.624303010239207D0,.707106781186548D0,.624303010239208D0,             25P    187
.707106781186548D0,1.0D0,.882897784110636D0,1.0D0,                    25P    188
.882897784110638D0,1.0D0,.707106781186548D0,.624303010239207D0,       25P    189
.707106781186548D0,.624303010239208D0,.707106781186548D0,1.0D0,       25P    190
.882897784110636D0,1.0D0,.882897784110638D0,1.0D0,                    25P    191
.707106781186548D0,.624303010239207D0,.707106781186548D0,             25P    192
.624303010239208D0,.707106781186548D0,1.0D0,.882897784110636D0,       25P    193
1.0D0,.882897784110638D0,1.0D0,.707106781186548D0,                    25P    194
.624303010239207D0,.707106781186548D0,.624303010239208D0,             25P    195
.707106781186548D0,1.0D0,.882897784110636D0,1.0D0,                    25P    196
.882897784110638D0,1.0D0,150.0D0,-86.602540378444D0,                  25P    197
248.824088538995D0,100.69660112501D0,-171.99853221576D0,              25P    198
208.935674850409D0,56.5983005625052D0,-248.379029317462D0,            25P    199
268.397811198616D0,12.4999999999999D0,-324.759526419165D0,            25P    200
327.859947546824D0,12.4999999999999D0,-324.759526419165D0,            25P    201
434.229050716386D0,150.0D0,-86.602540378444D0,                        25P    202
248.824088538995D0,186.092592962327D0,-221.30193109075D0,             25P    203
208.935674850409D0,218.374789501524D0,-341.780728754957D0,            25P    204
268.397811198616D0,250.656986040721D0,-462.259526419165D0,            25P    205
327.859947546824D0,250.656986040721D0,-462.259526419165D0,            25P    206
434.229050716386D0,150.0D0,-86.602540378444D0,                        25P    207
248.824088538995D0,235.395991837316D0,-135.905939253434D0,            25P    208
208.935674850409D0,311.776488939018D0,-180.004239815939D0,            25P    209
268.397811198616D0,388.156986040721D0,-224.102540378444D0,            25P    210
327.859947546824D0,388.156986040721D0,-224.102540378444D0,            25P    211
434.229050716386D0,150.0D0,-86.602540378444D0,                        25P    212
248.824088538995D0,284.699390712306D0,-50.5099474161175D0,            25P    213
208.935674850409D0,405.178188376513D0,-18.2277508769205D0,            25P    214
268.397811198616D0,525.656986040721D0,14.0544456622765D0,             25P    215
327.859947546824D0,525.656986040721D0,14.0544456622765D0,             25P    216
434.229050716386D0,150.0D0,-86.602540378444D0,                        25P    217
248.824088538995D0,199.30339887499D0,-1.20654854112794D0,             25P    218
208.935674850409D0,243.401699437495D0,75.1739485605744D0,             25P    219
268.397811198616D0,287.5D0,151.554445662277D0,                        25P    220
327.859947546824D0,287.5D0,151.554445662277D0,                        25P    221
434.229050716386D0,150.0D0,-86.602540378444D0,                        25P    222
248.824088538995D0,113.907407037674D0,48.0968503338616D0,             25P    223
208.935674850409D0,81.6252104984765D0,168.575647998069D0,             25P    224
268.397811198616D0,49.3430139592795D0,289.054445662277D0,             25P    225
327.859947546824D0,49.3430139592795D0,289.054445662277D0,             25P    226
434.229050716386D0,150.0D0,-86.602540378444D0,                        25P    227
248.824088538995D0,64.604008162684D0,-37.2991415034544D0,             25P    228
208.935674850409D0,-11.7764889390183D0,6.79915905905084D0,            25P    229
268.397811198616D0,-88.1569860407206D0,50.8974596215561D0,            25P    230
327.859947546824D0,-88.1569860407206D0,50.8974596215561D0,            25P    231
434.229050716386D0,150.0D0,-86.602540378444D0,                        25P    232
248.824088538995D0,15.3006092876945D0,-122.69513334077D0,             25P    233
208.935674850409D0,-105.178188376513D0,-154.977329879968D0,           25P    234
268.397811198616D0,-225.656986040721D0,-187.259526419165D0,           25P    235
327.859947546824D0,-225.656986040721D0,-187.259526419165D0,           25P    236
434.229050716386D0,150.0D0,-86.602540378444D0,                        25P    237
248.824088538995D0,100.69660112501D0,-171.99853221576D0,              25P    238
208.935674850409D0,56.5983005625052D0,-248.379029317462D0,            25P    239
268.397811198616D0,12.4999999999999D0,-324.759526419165D0,            25P    240
327.859947546824D0,12.4999999999999D0,-324.759526419165D0,            25P    241
434.229050716386D0,0.0D0,1.95519310129054D0,0.0D0,                    25P    242
6.28318530717959D0;                                                   25P    243
126,11,3,0,0,1,0,0.0D0,0.0D0,0.0D0,0.0D0,2.48907294058564D0,          27P    244
2.48907294058564D0,4.02800171826036D0,4.02800171826036D0,             27P    245
5.5028858070734D0,5.5028858070734D0,7.68096821102628D0,               27P    246
7.68096821102628D0,9.40146461889034D0,9.40146461889034D0,             27P    247
9.40146461889034D0,9.40146461889034D0,1.0D0,1.0D0,1.0D0,1.0D0,        27P    248
1.0D0,1.0D0,1.0D0,1.0D0,1.0D0,1.0D0,1.0D0,1.0D0,                      27P    249
90.0000192812011D0,-86.6506417688697D0,234.792343964595D0,            27P    250
82.1797569899258D0,-89.3591592113865D0,234.204004588921D0,            27P    251
74.3067536297654D0,-91.6946352852485D0,234.063999483257D0,            27P    252
61.3219610169434D0,-94.9194163816431D0,234.660157255457D0,            27P    253
56.345080336159D0,-96.0086338970898D0,235.080303904561D0,             27P    254
46.5741921022098D0,-97.8660072914011D0,236.287757989395D0,            27P    255
41.7958355604458D0,-98.6427555557254D0,237.057255073525D0,            27P    256
29.9905306886004D0,-100.246979659583D0,239.405142849764D0,            27P    257
23.0049390031374D0,-100.918118789821D0,241.188722966427D0,            27P    258
10.6568801029603D0,-101.642565644986D0,245.052353077372D0,            27P    259
5.28294224154606D0,-101.794919243112D0,246.984810804421D0,            27P    260
-2.99760216648792D-14,-101.794919243112D0,249.136367548796D0,         27P    261
0.0D0,9.40146461889034D0,0.0D0,0.0D0,0.0D0;                           27P    262
100,0.0D0,0.0D0,0.0D0,-60.0D0,3.39932333858879D-14,                   29P    263
-29.9166474122451D0,-52.0095588100054D0;                              29P    264
124,.499305555555556D0,.866425970404487D0,0.0D0,150.0D0,              31P    265
-.866425970404487D0,.499305555555556D0,0.0D0,-86.602540378444D0,      31P    266
0.0D0,0.0D0,1.0D0,234.792343964595D0;                                 31P    267
126,7,3,0,0,1,0,2.52352060933345D0,2.52352060933345D0,                33P    268
2.52352060933345D0,2.52352060933345D0,6.76495684952177D0,             33P    269
6.76495684952177D0,10.0211519789411D0,10.0211519789411D0,             33P    270
11.9162003699295D0,11.9162003699295D0,11.9162003699295D0,             33P    271
11.9162003699295D0,1.0D0,1.0D0,1.0D0,1.0D0,1.0D0,1.0D0,1.0D0,         33P    272
1.0D0,88.1569860414787D0,50.8974596202431D0,249.136367548179D0,       33P    273
94.6599819118784D0,39.6339403711568D0,243.839484113269D0,             33P    274
100.611928821819D0,27.4697221909533D0,239.886646887235D0,             33P    275
109.661744194665D0,4.58414775442729D0,235.464868799014D0,             33P    276
113.039352187509D0,-5.6487798350078D0,234.432126807296D0,             33P    277
117.445346698062D0,-22.2750547734399D0,234.15384191428D0,             33P    278
118.846727224768D0,-28.4098075180203D0,234.342976044306D0,            33P    279
120.041666666667D0,-34.6169821541747D0,234.792343964595D0,            33P    280
2.52352060933345D0,11.9162003699295D0,0.0D0,0.0D0,0.0D0;              33P    281
126,9,3,1,0,1,0,-13.0845563305413D0,-13.0845563305413D0,              35P    282
-13.0845563305413D0,-13.0845563305413D0,-9.82263421297652D0,          35P    283
-9.82263421297652D0,-6.36003598076736D0,-6.36003598076736D0,          35P    284
-3.27459693336351D0,-3.27459693336351D0,-2.82150587288243D0,          35P    285
-2.82150587288243D0,-2.82150587288243D0,-2.82150587288243D0,          35P    286
1.0D0,1.0D0,1.0D0,1.0D0,1.0D0,1.0D0,1.0D0,1.0D0,1.0D0,1.0D0,          35P    287
3.03002067880698D-11,1.74860126378462D-11,259.99999999999D0,          35P    288
9.07144585360355D0,5.23740170551712D0,257.047912186105D0,             35P    289
18.3035465777188D0,10.5675575448304D0,254.756812800822D0,             35P    290
37.4805208698373D0,21.639388814673D0,251.210213292059D0,              35P    291
47.50346498151D0,27.4261382945148D0,250.015486687336D0,               35P    292
66.3603691015143D0,38.3131769642822D0,248.81294292617D0,              35P    293
75.3425103921788D0,43.4990186570683D0,248.681376227143D0,             35P    294
85.5416460268814D0,49.3874923612613D0,249.021214693664D0,             35P    295
86.8489136833564D0,50.1422436939124D0,249.07406402628D0,              35P    296
88.1569860407514D0,50.8974596215739D0,249.136367548798D0,             35P    297
-13.0845563305413D0,-2.82150587288243D0,.49999999999576D0,            35P    298
-.866025403786887D0,-1.00406425915125D-10;                            35P    299
508,5,0,5,6,0,0,0,5,7,0,0,0,5,8,0,0,0,5,9,0,0,0,5,2,1,0;              37P    300
510,25,1,1,37;                                                        39P    301
120,45,43,0.0D0,6.28318530717959D0;                                   41P    302
110,-209.999980718799D0,-86.5544389880182D0,-11.7396171982298D0,      43P    303
-209.999980718799D0,-86.5544389880182D0,246.531961162825D0;           43P    304
110,-150.0D0,-86.6025403784439D0,-11.7396171982298D0,-150.0D0,        45P    305
-86.6025403784439D0,-10.7396171982298D0;                              45P    306
110,-120.041666666667D0,-34.6169821541746D0,0.0D0,                    47P    307
-120.041666666667D0,-34.6169821541746D0,234.792343964595D0;           47P    308
100,0.0D0,0.0D0,0.0D0,-29.9166474122451D0,52.0095588100054D0,         49P    309
-60.0D0,7.34788079488412D-15;                                         49P    310
124,-.999999678646648D0,8.01689840428388D-4,0.0D0,-150.0D0,           51P    311
8.01689840428388D-4,.999999678646648D0,0.0D0,                         51P    312
-86.6025403784439D0,0.0D0,0.0D0,-1.0D0,0.0D0;                         51P    313
110,-90.0000192812011D0,-86.6506417688696D0,0.0D0,                    53P    314
-90.0000192812011D0,-86.6506417688696D0,234.792343964595D0;           53P    315
508,4,0,5,5,1,0,0,5,10,0,0,0,5,11,1,0,0,5,12,1,0;                     55P    316
510,41,1,1,55;                                                        57P    317
116,150.0D0,-86.6025403784439D0,0.0D0,0;                              59P    318
123,0.0D0,0.0D0,1.0D0;                                                61P    319
192,59,61,275.0D0,65;                                                 63P    320
123,-.654696899583511D0,.755891506550866D0,0.0D0;                     65P    321
126,7,3,0,0,1,0,2.52270914016798D0,2.52270914016798D0,                67P    322
2.52270914016798D0,2.52270914016798D0,6.76490112013847D0,             67P    323
6.76490112013847D0,10.0205554224944D0,10.0205554224944D0,             67P    324
11.9153900827852D0,11.9153900827852D0,11.9153900827852D0,             67P    325
11.9153900827852D0,1.0D0,1.0D0,1.0D0,1.0D0,1.0D0,1.0D0,1.0D0,         67P    326
1.0D0,-88.156986044602D0,50.8974596148334D0,249.136367551958D0,       67P    327
-81.6528272843407D0,62.1629930488345D0,243.838536907742D0,            67P    328
-74.0927499353874D0,73.4016196627848D0,239.885243151075D0,            67P    329
-58.7971034197994D0,92.6820567962477D0,235.464262956373D0,            67P    330
-51.6249596724983D0,100.722173891806D0,234.431951147662D0,            67P    331
-39.4308699295042D0,112.849146456845D0,234.15388418452D0,             67P    332
-34.8192083238711D0,117.129656626365D0,234.343026854466D0,            67P    333
-30.0416473854655D0,121.267623923044D0,234.792343964595D0,            67P    334
2.52270914016798D0,11.9153900827852D0,0.0D0,0.0D0,0.0D0;              67P    335
110,-30.0416473854655D0,121.267623923044D0,0.0D0,                     69P    336
-30.0416473854655D0,121.267623923044D0,234.792343964595D0;            69P    337
100,0.0D0,0.0D0,0.0D0,275.0D0,0.0D0,216.090883850061D0,               71P    338
170.087418455626D0;                                                   71P    339
124,-.654696899583511D0,-.755891506550866D0,0.0D0,150.0D0,            73P    340
.755891506550866D0,-.654696899583511D0,0.0D0,                         73P    341
-86.6025403784439D0,0.0D0,0.0D0,1.0D0,0.0D0;                          73P    342
508,5,0,5,4,1,0,0,5,13,1,0,0,5,14,0,0,0,5,15,1,0,0,5,10,1,0;          75P    343
510,63,1,1,75;                                                        77P    344
128,6,8,2,2,0,1,0,0,0,-1.95519310129054D0,-1.95519310129054D0,        79P    345
-1.95519310129054D0,-.651731033763512D0,-.651731033763512D0,          79P    346
.651731033763512D0,.651731033763512D0,1.95519310129054D0,             79P    347
1.95519310129054D0,1.95519310129054D0,0.0D0,0.0D0,0.0D0,              79P    348
1.5707963267949D0,1.5707963267949D0,3.14159265358979D0,               79P    349
3.14159265358979D0,4.71238898038469D0,4.71238898038469D0,             79P    350
6.28318530717959D0,6.28318530717959D0,6.28318530717959D0,1.0D0,       79P    351
.79503500824724D0,1.0D0,.79503500824724D0,1.0D0,                      79P    352
.795035008247241D0,1.0D0,.707106781186548D0,.562174645612326D0,       79P    353
.707106781186548D0,.562174645612327D0,.707106781186548D0,             79P    354
.562174645612327D0,.707106781186548D0,1.0D0,.79503500824724D0,        79P    355
1.0D0,.79503500824724D0,1.0D0,.795035008247241D0,1.0D0,               79P    356
.707106781186548D0,.562174645612326D0,.707106781186548D0,             79P    357
.562174645612327D0,.707106781186548D0,.562174645612327D0,             79P    358
.707106781186548D0,1.0D0,.79503500824724D0,1.0D0,                     79P    359
.79503500824724D0,1.0D0,.795035008247241D0,1.0D0,                     79P    360
.707106781186548D0,.562174645612326D0,.707106781186548D0,             79P    361
.562174645612327D0,.707106781186548D0,.562174645612327D0,             79P    362
.707106781186548D0,1.0D0,.79503500824724D0,1.0D0,                     79P    363
.79503500824724D0,1.0D0,.795035008247241D0,1.0D0,                     79P    364
.707106781186548D0,.562174645612326D0,.707106781186548D0,             79P    365
.562174645612327D0,.707106781186548D0,.562174645612327D0,             79P    366
.707106781186548D0,1.0D0,.79503500824724D0,1.0D0,                     79P    367
.79503500824724D0,1.0D0,.795035008247241D0,1.0D0,                     79P    368
1.4210854715202D-14,173.205080756888D0,248.824088538995D0,            79P    369
141.452753888097D0,173.205080756888D0,191.603632209154D0,             79P    370
234.007001649448D0,173.205080756888D0,312.91634146277D0,              79P    371
326.561249410798D0,173.205080756888D0,434.229050716386D0,             79P    372
234.007001649448D0,173.205080756888D0,555.541759970003D0,             79P    373
141.452753888097D0,173.205080756888D0,676.854469223619D0,             79P    374
1.4210854715202D-14,173.205080756888D0,619.634012893778D0,            79P    375
1.4210854715202D-14,173.205080756888D0,248.824088538995D0,            79P    376
141.452753888097D0,314.657834644985D0,191.603632209154D0,             79P    377
234.007001649448D0,407.212082406336D0,312.91634146277D0,              79P    378
326.561249410798D0,499.766330167686D0,434.229050716386D0,             79P    379
234.007001649448D0,407.212082406336D0,555.541759970003D0,             79P    380
141.452753888097D0,314.657834644985D0,676.854469223619D0,             79P    381
1.4210854715202D-14,173.205080756888D0,619.634012893778D0,0.0D0,      79P    382
173.205080756888D0,248.824088538995D0,-2.8421709430404D-14,           79P    383
314.657834644985D0,191.603632209154D0,-2.8421709430404D-14,           79P    384
407.212082406336D0,312.91634146277D0,-2.8421709430404D-14,            79P    385
499.766330167686D0,434.229050716386D0,-2.8421709430404D-14,           79P    386
407.212082406336D0,555.541759970003D0,-2.8421709430404D-14,           79P    387
314.657834644985D0,676.854469223619D0,0.0D0,173.205080756888D0,       79P    388
619.634012893778D0,-1.4210854715202D-14,173.205080756888D0,           79P    389
248.824088538995D0,-141.452753888097D0,314.657834644985D0,            79P    390
191.603632209154D0,-234.007001649448D0,407.212082406336D0,            79P    391
312.91634146277D0,-326.561249410798D0,499.766330167686D0,             79P    392
434.229050716386D0,-234.007001649448D0,407.212082406336D0,            79P    393
555.541759970003D0,-141.452753888097D0,314.657834644985D0,            79P    394
676.854469223619D0,-1.4210854715202D-14,173.205080756888D0,           79P    395
619.634012893778D0,-1.4210854715202D-14,173.205080756888D0,           79P    396
248.824088538995D0,-141.452753888097D0,173.205080756888D0,            79P    397
191.603632209154D0,-234.007001649448D0,173.205080756888D0,            79P    398
312.91634146277D0,-326.561249410798D0,173.205080756888D0,             79P    399
434.229050716386D0,-234.007001649448D0,173.205080756888D0,            79P    400
555.541759970003D0,-141.452753888097D0,173.205080756888D0,            79P    401
676.854469223619D0,-1.4210854715202D-14,173.205080756888D0,           79P    402
619.634012893778D0,-1.4210854715202D-14,173.205080756888D0,           79P    403
248.824088538995D0,-141.452753888097D0,31.7523268687904D0,            79P    404
191.603632209154D0,-234.007001649448D0,-60.8019208925601D0,           79P    405
312.91634146277D0,-326.561249410798D0,-153.356168653911D0,            79P    406
434.229050716386D0,-234.007001649448D0,-60.8019208925601D0,           79P    407
555.541759970003D0,-141.452753888097D0,31.7523268687904D0,            79P    408
676.854469223619D0,-1.4210854715202D-14,173.205080756888D0,           79P    409
619.634012893778D0,0.0D0,173.205080756888D0,248.824088538995D0,       79P    410
2.8421709430404D-14,31.7523268687904D0,191.603632209154D0,            79P    411
2.8421709430404D-14,-60.8019208925601D0,312.91634146277D0,            79P    412
2.8421709430404D-14,-153.356168653911D0,434.229050716386D0,           79P    413
2.8421709430404D-14,-60.8019208925601D0,555.541759970003D0,           79P    414
2.8421709430404D-14,31.7523268687904D0,676.854469223619D0,0.0D0,      79P    415
173.205080756888D0,619.634012893778D0,1.4210854715202D-14,            79P    416
173.205080756888D0,248.824088538995D0,141.452753888097D0,             79P    417
31.7523268687905D0,191.603632209154D0,234.007001649448D0,             79P    418
-60.80192089256D0,312.91634146277D0,326.561249410798D0,               79P    419
-153.356168653911D0,434.229050716386D0,234.007001649448D0,            79P    420
-60.80192089256D0,555.541759970003D0,141.452753888097D0,              79P    421
31.7523268687905D0,676.854469223619D0,1.4210854715202D-14,            79P    422
173.205080756888D0,619.634012893778D0,1.4210854715202D-14,            79P    423
173.205080756888D0,248.824088538995D0,141.452753888097D0,             79P    424
173.205080756888D0,191.603632209154D0,234.007001649448D0,             79P    425
173.205080756888D0,312.91634146277D0,326.561249410798D0,              79P    426
173.205080756888D0,434.229050716386D0,234.007001649448D0,             79P    427
173.205080756888D0,555.541759970003D0,141.452753888097D0,             79P    428
173.205080756888D0,676.854469223619D0,1.4210854715202D-14,            79P    429
173.205080756888D0,619.634012893778D0,-1.95519310129054D0,            79P    430
1.95519310129054D0,0.0D0,6.28318530717959D0;                          79P    431
126,7,3,0,0,1,0,0.0D0,0.0D0,0.0D0,0.0D0,2.04024530850734D0,           81P    432
2.04024530850734D0,6.32901876449557D0,6.32901876449557D0,             81P    433
9.42149141269787D0,9.42149141269787D0,9.42149141269787D0,             81P    434
9.42149141269787D0,1.0D0,1.0D0,1.0D0,1.0D0,1.0D0,1.0D0,1.0D0,         81P    435
1.0D0,30.0416473854656D0,121.267623923044D0,234.792343964595D0,       81P    436
35.1693869322556D0,116.826358008477D0,234.31009347227D0,              81P    437
40.1039141050405D0,112.222960610195D0,234.127927164012D0,             81P    438
54.9599497120015D0,97.2996812591428D0,234.60930999585D0,              81P    439
64.0910877267148D0,86.5500105460477D0,236.420512157583D0,             81P    440
78.1287799798539D0,67.286973005367D0,242.135090520601D0,              81P    441
83.4247164277699D0,59.093991026447D0,245.281793284352D0,              81P    442
88.1569860417802D0,50.8974596197209D0,249.136367549659D0,0.0D0,       81P    443
9.42149141269787D0,0.0D0,0.0D0,0.0D0;                                 81P    444
100,0.0D0,0.0D0,0.0D0,-60.0D0,-4.59428243871234D-14,                  83P    445
-29.916647412245D0,-52.0095588100054D0;                               83P    446
124,.500694123091093D0,-.865624280564057D0,0.0D0,0.0D0,               85P    447
.865624280564057D0,.500694123091093D0,0.0D0,173.205080756888D0,       85P    448
0.0D0,0.0D0,1.0D0,234.792343964595D0;                                 85P    449
508,5,0,5,3,1,0,0,5,9,1,0,0,5,16,0,0,0,5,17,0,0,0,5,13,0,0;           87P    450
510,79,1,1,87;                                                        89P    451
116,-150.0D0,-86.6025403784439D0,0.0D0,0;                             91P    452
123,0.0D0,0.0D0,1.0D0;                                                93P    453
192,91,93,275.0D0,97;                                                 95P    454
123,.981969696969697D0,.189038393542797D0,0.0D0;                      97P    455
110,120.041666666667D0,-34.6169821541747D0,0.0D0,                     99P    456
120.041666666667D0,-34.6169821541747D0,234.792343964595D0;            99P    457
100,0.0D0,0.0D0,0.0D0,275.0D0,0.0D0,216.090883850061D0,              101P    458
170.087418455626D0;                                                  101P    459
124,.981969696969697D0,-.189038393542797D0,0.0D0,-150.0D0,           103P    460
.189038393542797D0,.981969696969697D0,0.0D0,-86.6025403784439D0,     103P    461
0.0D0,0.0D0,1.0D0,0.0D0;                                             103P    462
110,30.0416473854656D0,121.267623923044D0,0.0D0,                     105P    463
30.0416473854656D0,121.267623923044D0,234.792343964595D0;            105P    464
508,5,0,5,8,1,0,0,5,18,0,0,0,5,19,1,0,0,5,20,1,0,0,5,16,1,0;         107P    465
510,95,1,1,107;                                                      109P    466
120,115,113,0.0D0,6.28318530717959D0;                                111P    467
110,179.958333333333D0,-138.588098602713D0,-11.7396171982298D0,      113P    468
179.958333333333D0,-138.588098602713D0,246.531961162825D0;           113P    469
110,150.0D0,-86.6025403784439D0,-11.7396171982298D0,150.0D0,         115P    470
-86.6025403784439D0,-10.7396171982298D0;                             115P    471
110,90.0000192812011D0,-86.6506417688697D0,0.0D0,                    117P    472
90.0000192812011D0,-86.6506417688697D0,234.792343964595D0;           117P    473
100,0.0D0,0.0D0,0.0D0,-29.9166474122451D0,52.0095588100054D0,        119P    474
-60.0D0,7.34788079488412D-15;                                        119P    475
124,.499305555555556D0,-.866425970404487D0,0.0D0,150.0D0,            121P    476
-.866425970404487D0,-.499305555555556D0,0.0D0,                       121P    477
-86.6025403784439D0,0.0D0,0.0D0,-1.0D0,0.0D0;                        121P    478
508,4,0,5,7,1,0,0,5,21,0,0,0,5,22,1,0,0,5,18,1,0;                    123P    479
510,111,1,1,123;                                                     125P    480
116,7.54154552476688D-14,173.205080756888D0,0.0D0,0;                 127P    481
123,0.0D0,0.0D0,1.0D0;                                               129P    482
192,127,129,275.0D0,133;                                             131P    483
123,-.327272797386186D0,-.944929900093663D0,0.0D0;                   133P    484
100,0.0D0,0.0D0,0.0D0,275.0D0,0.0D0,216.090883850061D0,              135P    485
170.087418455626D0;                                                  135P    486
124,-.327272797386186D0,.944929900093663D0,0.0D0,                    137P    487
7.54154552476688D-14,-.944929900093663D0,-.327272797386186D0,        137P    488
0.0D0,173.205080756888D0,0.0D0,0.0D0,1.0D0,0.0D0;                    137P    489
508,5,0,5,1,1,0,0,5,12,0,0,0,5,23,1,0,0,5,21,1,0,0,5,6,1,0;          139P    490
510,131,1,1,139;                                                     141P    491
120,147,145,0.0D0,6.28318530717959D0;                                143P    492
110,30.0416473854656D0,225.142537590731D0,-11.7396171982298D0,       145P    493
30.0416473854656D0,225.142537590731D0,246.531961162825D0;            145P    494
110,7.54154552476688D-14,173.205080756888D0,-11.7396171982298D0,     147P    495
7.54154552476688D-14,173.205080756888D0,-10.7396171982298D0;         147P    496
100,0.0D0,0.0D0,0.0D0,-29.9166474122451D0,52.0095588100054D0,        149P    497
-60.0D0,7.34788079488412D-15;                                        149P    498
124,.500694123091093D0,.865624280564057D0,0.0D0,                     151P    499
7.54154552476688D-14,.865624280564057D0,-.500694123091093D0,         151P    500
0.0D0,173.205080756888D0,0.0D0,0.0D0,-1.0D0,0.0D0;                   151P    501
508,4,0,5,17,1,0,0,5,20,0,0,0,5,24,1,0,0,5,14,1,0;                   153P    502
510,143,1,1,153;                                                     155P    503
116,1.63471250609252D-14,1.68573505638464D-5,0.0D0,0;                157P    504
123,0.0D0,0.0D0,-1.0D0;                                              159P    505
190,157,159,163;                                                     161P    506
123,-1.0D0,0.0D0,0.0D0;                                              163P    507
508,6,0,5,19,0,0,0,5,22,0,0,0,5,23,0,0,0,5,11,0,0,0,5,15,0,0,0,      165P    508
5,24,0,0;                                                            165P    509
510,161,1,1,165;                                                     167P    510
514,10,23,1,39,1,57,1,77,1,89,1,109,1,125,1,141,1,155,1,167,1;       169P    511
186,169,1,0;                                                         171P    512
314,75.0D0,75.0D0,75.0D0,;                                           173P    513
S      1G      4D    174P    513                                        T      1
