                                                                        S      1
,,7HARM.ipt,27HNo Iges File Name specified,22HAutodesk Inventor 2013,   G      1
37HAutoDesk Inventor Iges Exporter R2013,32,38,6,99,15,7HARM.ipt,1.0D0, G      2
2,2HMM,1,.08D0,15H20131210.105848,.01D0,10000.0D0,8Hemployee,,11,0,,;   G      3
     406       1       0       0       1       0       0       000000000D      1
     406       0       0       1       3                               0D      2
     120       2       0       0       0       0       0       000010000D      3
     120       0       0       1       0                               0D      4
     110       3       0       0       0       0       0       000010000D      5
     110       0       0       1       0                               0D      6
     110       4       0       0       0       0       0       001010000D      7
     110       0       0       1       0                               0D      8
     504       5       0       0       0       0       0       000010001D      9
     504       0       0       6       1                               0D     10
     502      11       0       0       0       0       0       000010000D     11
     502       0       0      13       1                               0D     12
     100      24       0       0       0       0      15       000010000D     13
     100       0       0       2       0                               0D     14
     124      26       0       0       0       0       0       000000000D     15
     124       0       0       2       0                               0D     16
     508      28       0       0       0       0       0       000010000D     17
     508       0       0       1       1                               0D     18
     100      29       0       0       0       0      21       000010000D     19
     100       0       0       2       0                               0D     20
     124      31       0       0       0       0       0       000000000D     21
     124       0       0       2       0                               0D     22
     508      33       0       0       0       0       0       000010000D     23
     508       0       0       1       1                               0D     24
     510      34       0       0       0       0       0       000010000D     25
     510       0       5       1       1                               0D     26
     120      35       0       0       0       0       0       000010000D     27
     120       0       0       1       0                               0D     28
     110      36       0       0       0       0       0       000010000D     29
     110       0       0       1       0                               0D     30
     110      37       0       0       0       0       0       001010000D     31
     110       0       0       1       0                               0D     32
     100      38       0       0       0       0      35       000010000D     33
     100       0       0       2       0                               0D     34
     124      40       0       0       0       0       0       000000000D     35
     124       0       0       2       0                               0D     36
     508      42       0       0       0       0       0       000010000D     37
     508       0       0       1       1                               0D     38
     508      43       0       0       0       0       0       000010000D     39
     508       0       0       1       1                               0D     40
     510      44       0       0       0       0       0       000010000D     41
     510       0       5       1       1                               0D     42
     120      45       0       0       0       0       0       000010000D     43
     120       0       0       1       0                               0D     44
     110      46       0       0       0       0       0       000010000D     45
     110       0       0       1       0                               0D     46
     110      47       0       0       0       0       0       001010000D     47
     110       0       0       1       0                               0D     48
     100      48       0       0       0       0      51       000010000D     49
     100       0       0       2       0                               0D     50
     124      50       0       0       0       0       0       000000000D     51
     124       0       0       2       0                               0D     52
     508      52       0       0       0       0       0       000010000D     53
     508       0       0       1       1                               0D     54
     100      53       0       0       0       0      57       000010000D     55
     100       0       0       2       0                               0D     56
     124      55       0       0       0       0       0       000000000D     57
     124       0       0       2       0                               0D     58
     508      57       0       0       0       0       0       000010000D     59
     508       0       0       1       1                               0D     60
     510      58       0       0       0       0       0       000010000D     61
     510       0       5       1       1                               0D     62
     120      59       0       0       0       0       0       000010000D     63
     120       0       0       1       0                               0D     64
     110      60       0       0       0       0       0       000010000D     65
     110       0       0       1       0                               0D     66
     110      61       0       0       0       0       0       001010000D     67
     110       0       0       1       0                               0D     68
     100      62       0       0       0       0      71       000010000D     69
     100       0       0       2       0                               0D     70
     124      64       0       0       0       0       0       000000000D     71
     124       0       0       2       0                               0D     72
     508      66       0       0       0       0       0       000010000D     73
     508       0       0       1       1                               0D     74
     508      67       0       0       0       0       0       000010000D     75
     508       0       0       1       1                               0D     76
     510      68       0       0       0       0       0       000010000D     77
     510       0       5       1       1                               0D     78
     120      69       0       0       0       0       0       000010000D     79
     120       0       0       1       0                               0D     80
     110      70       0       0       0       0       0       000010000D     81
     110       0       0       1       0                               0D     82
     110      71       0       0       0       0       0       001010000D     83
     110       0       0       1       0                               0D     84
     508      72       0       0       0       0       0       000010000D     85
     508       0       0       1       1                               0D     86
     100      73       0       0       0       0      89       000010000D     87
     100       0       0       2       0                               0D     88
     124      75       0       0       0       0       0       000000000D     89
     124       0       0       2       0                               0D     90
     508      77       0       0       0       0       0       000010000D     91
     508       0       0       1       1                               0D     92
     510      78       0       0       0       0       0       000010000D     93
     510       0       5       1       1                               0D     94
     120      79       0       0       0       0       0       000010000D     95
     120       0       0       1       0                               0D     96
     110      80       0       0       0       0       0       000010000D     97
     110       0       0       1       0                               0D     98
     110      81       0       0       0       0       0       001010000D     99
     110       0       0       1       0                               0D    100
     508      82       0       0       0       0       0       000010000D    101
     508       0       0       1       1                               0D    102
     100      83       0       0       0       0     105       000010000D    103
     100       0       0       2       0                               0D    104
     124      85       0       0       0       0       0       000000000D    105
     124       0       0       2       0                               0D    106
     508      87       0       0       0       0       0       000010000D    107
     508       0       0       1       1                               0D    108
     510      88       0       0       0       0       0       000010000D    109
     510       0       5       1       1                               0D    110
     120      89       0       0       0       0       0       000010000D    111
     120       0       0       1       0                               0D    112
     110      90       0       0       0       0       0       000010000D    113
     110       0       0       1       0                               0D    114
     110      91       0       0       0       0       0       001010000D    115
     110       0       0       1       0                               0D    116
     100      92       0       0       0       0     119       000010000D    117
     100       0       0       2       0                               0D    118
     124      94       0       0       0       0       0       000000000D    119
     124       0       0       2       0                               0D    120
     508      96       0       0       0       0       0       000010000D    121
     508       0       0       1       1                               0D    122
     100      97       0       0       0       0     125       000010000D    123
     100       0       0       2       0                               0D    124
     124      99       0       0       0       0       0       000000000D    125
     124       0       0       2       0                               0D    126
     508     101       0       0       0       0       0       000010000D    127
     508       0       0       1       1                               0D    128
     510     102       0       0       0       0       0       000010000D    129
     510       0       5       1       1                               0D    130
     116     103       0       0       0       0       0       000010000D    131
     116       0       0       1       0                               0D    132
     123     104       0       0       0       0       0       000010200D    133
     123       0       0       1       0                               0D    134
     190     105       0       0       0       0       0       000010000D    135
     190       0       0       1       1                               0D    136
     123     106       0       0       0       0       0       000010200D    137
     123       0       0       1       0                               0D    138
     508     107       0       0       0       0       0       000010000D    139
     508       0       0       1       1                               0D    140
     508     108       0       0       0       0       0       000010000D    141
     508       0       0       1       1                               0D    142
     510     109       0       0       0       0       0       000010000D    143
     510       0       5       1       1                               0D    144
     120     110       0       0       0       0       0       000010000D    145
     120       0       0       1       0                               0D    146
     110     111       0       0       0       0       0       000010000D    147
     110       0       0       1       0                               0D    148
     110     112       0       0       0       0       0       001010000D    149
     110       0       0       1       0                               0D    150
     100     113       0       0       0       0     153       000010000D    151
     100       0       0       2       0                               0D    152
     124     115       0       0       0       0       0       000000000D    153
     124       0       0       2       0                               0D    154
     508     117       0       0       0       0       0       000010000D    155
     508       0       0       1       1                               0D    156
     100     118       0       0       0       0     159       000010000D    157
     100       0       0       2       0                               0D    158
     124     120       0       0       0       0       0       000000000D    159
     124       0       0       2       0                               0D    160
     508     122       0       0       0       0       0       000010000D    161
     508       0       0       1       1                               0D    162
     510     123       0       0       0       0       0       000010000D    163
     510       0       5       1       1                               0D    164
     116     124       0       0       0       0       0       000010000D    165
     116       0       0       1       0                               0D    166
     123     125       0       0       0       0       0       000010200D    167
     123       0       0       1       0                               0D    168
     190     126       0       0       0       0       0       000010000D    169
     190       0       0       1       1                               0D    170
     123     127       0       0       0       0       0       000010200D    171
     123       0       0       1       0                               0D    172
     508     128       0       0       0       0       0       000010000D    173
     508       0       0       1       1                               0D    174
     508     129       0       0       0       0       0       000010000D    175
     508       0       0       1       1                               0D    176
     510     130       0       0       0       0       0       000010000D    177
     510       0       5       1       1                               0D    178
     116     131       0       0       0       0       0       000010000D    179
     116       0       0       1       0                               0D    180
     123     132       0       0       0       0       0       000010200D    181
     123       0       0       1       0                               0D    182
     190     133       0       0       0       0       0       000010000D    183
     190       0       0       1       1                               0D    184
     123     134       0       0       0       0       0       000010200D    185
     123       0       0       1       0                               0D    186
     110     135       0       0       0       0       0       000010000D    187
     110       0       0       2       0                               0D    188
     110     137       0       0       0       0       0       000010000D    189
     110       0       0       2       0                               0D    190
     110     139       0       0       0       0       0       000010000D    191
     110       0       0       2       0                               0D    192
     110     141       0       0       0       0       0       000010000D    193
     110       0       0       2       0                               0D    194
     508     143       0       0       0       0       0       000010000D    195
     508       0       0       1       1                               0D    196
     510     144       0       0       0       0       0       000010000D    197
     510       0       5       1       1                               0D    198
     116     145       0       0       0       0       0       000010000D    199
     116       0       0       1       0                               0D    200
     123     146       0       0       0       0       0       000010200D    201
     123       0       0       1       0                               0D    202
     192     147       0       0       0       0       0       000010000D    203
     192       0       0       1       1                               0D    204
     123     148       0       0       0       0       0       000010200D    205
     123       0       0       1       0                               0D    206
     100     149       0       0       0       0     209       000010000D    207
     100       0       0       2       0                               0D    208
     124     151       0       0       0       0       0       000000000D    209
     124       0       0       3       0                               0D    210
     100     154       0       0       0       0     213       000010000D    211
     100       0       0       2       0                               0D    212
     124     156       0       0       0       0       0       000000000D    213
     124       0       0       3       0                               0D    214
     110     159       0       0       0       0       0       000010000D    215
     110       0       0       2       0                               0D    216
     508     161       0       0       0       0       0       000010000D    217
     508       0       0       1       1                               0D    218
     510     162       0       0       0       0       0       000010000D    219
     510       0       5       1       1                               0D    220
     116     163       0       0       0       0       0       000010000D    221
     116       0       0       1       0                               0D    222
     123     164       0       0       0       0       0       000010200D    223
     123       0       0       1       0                               0D    224
     190     165       0       0       0       0       0       000010000D    225
     190       0       0       1       1                               0D    226
     123     166       0       0       0       0       0       000010200D    227
     123       0       0       1       0                               0D    228
     110     167       0       0       0       0       0       000010000D    229
     110       0       0       2       0                               0D    230
     110     169       0       0       0       0       0       000010000D    231
     110       0       0       2       0                               0D    232
     110     171       0       0       0       0       0       000010000D    233
     110       0       0       2       0                               0D    234
     508     173       0       0       0       0       0       000010000D    235
     508       0       0       1       1                               0D    236
     510     174       0       0       0       0       0       000010000D    237
     510       0       5       1       1                               0D    238
     116     175       0       0       0       0       0       000010000D    239
     116       0       0       1       0                               0D    240
     123     176       0       0       0       0       0       000010200D    241
     123       0       0       1       0                               0D    242
     192     177       0       0       0       0       0       000010000D    243
     192       0       0       1       1                               0D    244
     123     178       0       0       0       0       0       000010200D    245
     123       0       0       1       0                               0D    246
     100     179       0       0       0       0     249       000010000D    247
     100       0       0       2       0                               0D    248
     124     181       0       0       0       0       0       000000000D    249
     124       0       0       3       0                               0D    250
     100     184       0       0       0       0     253       000010000D    251
     100       0       0       2       0                               0D    252
     124     186       0       0       0       0       0       000000000D    253
     124       0       0       3       0                               0D    254
     508     189       0       0       0       0       0       000010000D    255
     508       0       0       1       1                               0D    256
     510     190       0       0       0       0       0       000010000D    257
     510       0       5       1       1                               0D    258
     116     191       0       0       0       0       0       000010000D    259
     116       0       0       1       0                               0D    260
     123     192       0       0       0       0       0       000010200D    261
     123       0       0       1       0                               0D    262
     190     193       0       0       0       0       0       000010000D    263
     190       0       0       1       1                               0D    264
     123     194       0       0       0       0       0       000010200D    265
     123       0       0       1       0                               0D    266
     508     195       0       0       0       0       0       000010000D    267
     508       0       0       1       1                               0D    268
     508     196       0       0       0       0       0       000010000D    269
     508       0       0       1       1                               0D    270
     508     197       0       0       0       0       0       000010000D    271
     508       0       0       1       1                               0D    272
     510     198       0       0       0       0       0       000010000D    273
     510       0       5       1       1                               0D    274
     116     199       0       0       0       0       0       000010000D    275
     116       0       0       1       0                               0D    276
     123     200       0       0       0       0       0       000010200D    277
     123       0       0       1       0                               0D    278
     190     201       0       0       0       0       0       000010000D    279
     190       0       0       1       1                               0D    280
     123     202       0       0       0       0       0       000010200D    281
     123       0       0       1       0                               0D    282
     508     203       0       0       0       0       0       000010000D    283
     508       0       0       1       1                               0D    284
     508     204       0       0       0       0       0       000010000D    285
     508       0       0       1       1                               0D    286
     508     205       0       0       0       0       0       000010000D    287
     508       0       0       1       1                               0D    288
     510     206       0       0       0       0       0       000010000D    289
     510       0       5       1       1                               0D    290
     514     207       0       0       0       0       0       000010000D    291
     514       0       0       2       1                               0D    292
     186     209       0       0       1       0       0       000000000D    293
     186       0       0       1       0                  Solid1       0D    294
406,2,0,3HARM;                                                         1P      1
120,7,5,0.0D0,6.28318530717959D0;                                      3P      2
110,7.375D0,0.0D0,10.675D0,11.225D0,0.0D0,6.825D0;                     5P      3
110,0.0D0,0.0D0,10.675D0,0.0D0,0.0D0,9.675D0;                          7P      4
504,24,13,11,1,11,1,19,11,2,11,2,33,11,3,11,3,49,11,4,11,4,55,         9P      5
11,5,11,5,69,11,6,11,6,87,11,7,11,7,103,11,8,11,8,117,11,9,11,9,       9P      6
123,11,10,11,10,151,11,11,11,11,157,11,12,11,12,187,11,13,11,14,       9P      7
189,11,14,11,15,191,11,16,11,15,193,11,13,11,16,207,11,17,11,13,       9P      8
211,11,18,11,16,215,11,17,11,18,229,11,19,11,17,231,11,20,11,18,       9P      9
233,11,19,11,20,247,11,14,11,19,251,11,15,11,20;                       9P     10
502,20,-7.55D0,-9.24608333356252D-16,10.5D0,-11.05D0,                 11P     11
1.35323471305783D-15,7.0D0,-7.55D0,9.24608333356252D-16,18.0D0,       11P     12
192.45D0,-9.24608333356252D-16,10.5D0,188.95D0,                       11P     13
1.35323471305783D-15,7.0D0,192.45D0,9.24608333356252D-16,18.0D0,      11P     14
188.95D0,1.35323471305783D-15,0.0D0,-11.05D0,                         11P     15
1.35323471305783D-15,0.0D0,11.05D0,1.35323471305783D-15,18.0D0,       11P     16
11.05D0,1.35323471305783D-15,25.0D0,211.05D0,                         11P     17
1.35323471305783D-15,18.0D0,211.05D0,1.35323471305783D-15,            11P     18
25.0D0,193.695239893541D0,12.5D0,0.0D0,6.30476010645925D0,            11P     19
12.5D0,0.0D0,6.30476010645925D0,12.5D0,25.0D0,                        11P     20
193.695239893541D0,12.5D0,25.0D0,193.695239893541D0,-12.5D0,          11P     21
0.0D0,193.695239893541D0,-12.5D0,25.0D0,6.30476010645925D0,           11P     22
-12.5D0,0.0D0,6.30476010645925D0,-12.5D0,25.0D0;                      11P     23
100,0.0D0,0.0D0,0.0D0,-7.55D0,9.24608333356252D-16,-7.55D0,           13P     24
9.24608333356252D-16;                                                 13P     25
124,1.0D0,0.0D0,0.0D0,0.0D0,0.0D0,1.0D0,0.0D0,0.0D0,0.0D0,0.0D0,      15P     26
1.0D0,10.5D0;                                                         15P     27
508,1,0,9,1,1,0;                                                      17P     28
100,0.0D0,0.0D0,0.0D0,-11.05D0,1.35323471305783D-15,-11.05D0,         19P     29
1.35323471305783D-15;                                                 19P     30
124,1.0D0,0.0D0,0.0D0,0.0D0,0.0D0,1.0D0,0.0D0,0.0D0,0.0D0,0.0D0,      21P     31
1.0D0,7.0D0;                                                          21P     32
508,1,0,9,2,0,0;                                                      23P     33
510,3,2,1,17,23;                                                      25P     34
120,31,29,0.0D0,6.28318530717959D0;                                   27P     35
110,7.55D0,0.0D0,7.0D0,7.55D0,0.0D0,18.375D0;                         29P     36
110,0.0D0,0.0D0,7.0D0,0.0D0,0.0D0,8.0D0;                              31P     37
100,0.0D0,0.0D0,0.0D0,-7.55D0,9.24608333356252D-16,-7.55D0,           33P     38
9.24608333356252D-16;                                                 33P     39
124,1.0D0,0.0D0,0.0D0,0.0D0,0.0D0,-1.0D0,0.0D0,0.0D0,0.0D0,           35P     40
0.0D0,-1.0D0,18.0D0;                                                  35P     41
508,1,0,9,3,0,0;                                                      37P     42
508,1,0,9,1,0,0;                                                      39P     43
510,27,2,1,37,39;                                                     41P     44
120,47,45,0.0D0,6.28318530717959D0;                                   43P     45
110,207.375D0,0.0D0,10.675D0,211.225D0,0.0D0,6.825D0;                 45P     46
110,200.0D0,0.0D0,10.675D0,200.0D0,0.0D0,9.675D0;                     47P     47
100,0.0D0,0.0D0,0.0D0,-7.55D0,9.24608333356252D-16,-7.55D0,           49P     48
9.24608333356252D-16;                                                 49P     49
124,1.0D0,0.0D0,0.0D0,200.0D0,0.0D0,1.0D0,0.0D0,0.0D0,0.0D0,          51P     50
0.0D0,1.0D0,10.5D0;                                                   51P     51
508,1,0,9,4,1,0;                                                      53P     52
100,0.0D0,0.0D0,0.0D0,-11.05D0,1.35323471305783D-15,-11.05D0,         55P     53
1.35323471305783D-15;                                                 55P     54
124,1.0D0,0.0D0,0.0D0,200.0D0,0.0D0,1.0D0,0.0D0,0.0D0,0.0D0,          57P     55
0.0D0,1.0D0,7.0D0;                                                    57P     56
508,1,0,9,5,0,0;                                                      59P     57
510,43,2,1,53,59;                                                     61P     58
120,67,65,0.0D0,6.28318530717959D0;                                   63P     59
110,207.55D0,0.0D0,7.0D0,207.55D0,0.0D0,18.375D0;                     65P     60
110,200.0D0,0.0D0,7.0D0,200.0D0,0.0D0,8.0D0;                          67P     61
100,0.0D0,0.0D0,0.0D0,-7.55D0,9.24608333356252D-16,-7.55D0,           69P     62
9.24608333356252D-16;                                                 69P     63
124,1.0D0,0.0D0,0.0D0,200.0D0,0.0D0,-1.0D0,0.0D0,0.0D0,0.0D0,         71P     64
0.0D0,-1.0D0,18.0D0;                                                  71P     65
508,1,0,9,6,0,0;                                                      73P     66
508,1,0,9,4,0,0;                                                      75P     67
510,63,2,1,73,75;                                                     77P     68
120,83,81,0.0D0,6.28318530717959D0;                                   79P     69
110,211.05D0,0.0D0,-.35D0,211.05D0,0.0D0,7.35D0;                      81P     70
110,200.0D0,0.0D0,-.35D0,200.0D0,0.0D0,.65D0;                         83P     71
508,1,0,9,5,1,0;                                                      85P     72
100,0.0D0,0.0D0,0.0D0,-11.05D0,1.35323471305783D-15,-11.05D0,         87P     73
1.35323471305783D-15;                                                 87P     74
124,1.0D0,0.0D0,0.0D0,200.0D0,0.0D0,1.0D0,0.0D0,0.0D0,0.0D0,          89P     75
0.0D0,1.0D0,0.0D0;                                                    89P     76
508,1,0,9,7,0,0;                                                      91P     77
510,79,2,1,85,91;                                                     93P     78
120,99,97,0.0D0,6.28318530717959D0;                                   95P     79
110,11.05D0,0.0D0,-.35D0,11.05D0,0.0D0,7.35D0;                        97P     80
110,0.0D0,0.0D0,-.35D0,0.0D0,0.0D0,.65D0;                             99P     81
508,1,0,9,2,1,0;                                                     101P     82
100,0.0D0,0.0D0,0.0D0,-11.05D0,1.35323471305783D-15,-11.05D0,        103P     83
1.35323471305783D-15;                                                103P     84
124,1.0D0,0.0D0,0.0D0,0.0D0,0.0D0,1.0D0,0.0D0,0.0D0,0.0D0,0.0D0,     105P     85
1.0D0,0.0D0;                                                         105P     86
508,1,0,9,8,0,0;                                                     107P     87
510,95,2,1,101,107;                                                  109P     88
120,115,113,0.0D0,6.28318530717959D0;                                111P     89
110,-11.05D0,0.0D0,25.35D0,-11.05D0,0.0D0,17.65D0;                   113P     90
110,0.0D0,0.0D0,25.35D0,0.0D0,0.0D0,24.35D0;                         115P     91
100,0.0D0,0.0D0,0.0D0,-11.05D0,1.35323471305783D-15,-11.05D0,        117P     92
1.35323471305783D-15;                                                117P     93
124,-1.0D0,0.0D0,0.0D0,0.0D0,0.0D0,1.0D0,0.0D0,0.0D0,0.0D0,          119P     94
0.0D0,-1.0D0,18.0D0;                                                 119P     95
508,1,0,9,9,1,0;                                                     121P     96
100,0.0D0,0.0D0,0.0D0,-11.05D0,1.35323471305783D-15,-11.05D0,        123P     97
1.35323471305783D-15;                                                123P     98
124,-1.0D0,0.0D0,0.0D0,0.0D0,0.0D0,1.0D0,0.0D0,0.0D0,0.0D0,          125P     99
0.0D0,-1.0D0,25.0D0;                                                 125P    100
508,1,0,9,10,0,0;                                                    127P    101
510,111,2,1,121,127;                                                 129P    102
116,-4.47678465794082D-16,-1.67454453186298D-16,18.0D0,0;            131P    103
123,0.0D0,0.0D0,1.0D0;                                               133P    104
190,131,133,137;                                                     135P    105
123,1.0D0,0.0D0,0.0D0;                                               137P    106
508,1,0,9,9,0,0;                                                     139P    107
508,1,0,9,3,1,0;                                                     141P    108
510,135,2,1,139,141;                                                 143P    109
120,149,147,0.0D0,6.28318530717959D0;                                145P    110
110,188.95D0,0.0D0,25.35D0,188.95D0,0.0D0,17.65D0;                   147P    111
110,200.0D0,0.0D0,25.35D0,200.0D0,0.0D0,24.35D0;                     149P    112
100,0.0D0,0.0D0,0.0D0,-11.05D0,1.35323471305783D-15,-11.05D0,        151P    113
1.35323471305783D-15;                                                151P    114
124,-1.0D0,0.0D0,0.0D0,200.0D0,0.0D0,1.0D0,0.0D0,0.0D0,0.0D0,        153P    115
0.0D0,-1.0D0,18.0D0;                                                 153P    116
508,1,0,9,11,1,0;                                                    155P    117
100,0.0D0,0.0D0,0.0D0,-11.05D0,1.35323471305783D-15,-11.05D0,        157P    118
1.35323471305783D-15;                                                157P    119
124,-1.0D0,0.0D0,0.0D0,200.0D0,0.0D0,1.0D0,0.0D0,0.0D0,0.0D0,        159P    120
0.0D0,-1.0D0,25.0D0;                                                 159P    121
508,1,0,9,12,0,0;                                                    161P    122
510,145,2,1,155,161;                                                 163P    123
116,200.0D0,-1.67454453186298D-16,18.0D0,0;                          165P    124
123,0.0D0,0.0D0,1.0D0;                                               167P    125
190,165,167,171;                                                     169P    126
123,1.0D0,0.0D0,0.0D0;                                               171P    127
508,1,0,9,11,0,0;                                                    173P    128
508,1,0,9,6,1,0;                                                     175P    129
510,169,2,1,173,175;                                                 177P    130
116,193.695239893541D0,12.5D0,0.0D0,0;                               179P    131
123,0.0D0,1.0D0,0.0D0;                                               181P    132
190,179,181,185;                                                     183P    133
123,-1.0D0,0.0D0,0.0D0;                                              185P    134
110,193.695239893541D0,12.5D0,0.0D0,6.30476010645924D0,12.5D0,       187P    135
0.0D0;                                                               187P    136
110,6.30476010645925D0,12.5D0,0.0D0,6.30476010645925D0,12.5D0,       189P    137
25.0D0;                                                              189P    138
110,193.695239893541D0,12.5D0,25.0D0,6.30476010645924D0,12.5D0,      191P    139
25.0D0;                                                              191P    140
110,193.695239893541D0,12.5D0,0.0D0,193.695239893541D0,12.5D0,       193P    141
25.0D0;                                                              193P    142
508,4,0,9,13,1,0,0,9,14,1,0,0,9,15,0,0,0,9,16,0,0;                   195P    143
510,183,1,1,195;                                                     197P    144
116,200.0D0,0.0D0,0.0D0,0;                                           199P    145
123,0.0D0,0.0D0,1.0D0;                                               201P    146
192,199,201,14.0D0,205;                                              203P    147
123,-.450340007604232D0,-.892857142857143D0,0.0D0;                   205P    148
100,0.0D0,0.0D0,0.0D0,14.0D0,0.0D0,-8.32142857142857D0,              207P    149
-11.2585001901058D0;                                                 207P    150
124,-.450340007604232D0,.892857142857143D0,0.0D0,200.0D0,            209P    151
-.892857142857143D0,-.450340007604232D0,0.0D0,0.0D0,0.0D0,0.0D0,     209P    152
1.0D0,0.0D0;                                                         209P    153
100,0.0D0,0.0D0,0.0D0,14.0D0,0.0D0,-8.32142857142857D0,              211P    154
-11.2585001901058D0;                                                 211P    155
124,-.450340007604232D0,.892857142857143D0,0.0D0,200.0D0,            213P    156
-.892857142857143D0,-.450340007604232D0,0.0D0,0.0D0,0.0D0,0.0D0,     213P    157
1.0D0,25.0D0;                                                        213P    158
110,193.695239893541D0,-12.5D0,0.0D0,193.695239893541D0,-12.5D0,     215P    159
25.0D0;                                                              215P    160
508,4,0,9,17,1,0,0,9,16,1,0,0,9,18,0,0,0,9,19,0,0;                   217P    161
510,203,1,1,217;                                                     219P    162
116,6.30476010645925D0,-12.5D0,0.0D0,0;                              221P    163
123,0.0D0,-1.0D0,0.0D0;                                              223P    164
190,221,223,227;                                                     225P    165
123,1.0D0,0.0D0,0.0D0;                                               227P    166
110,6.30476010645925D0,-12.5D0,0.0D0,193.695239893541D0,-12.5D0,     229P    167
0.0D0;                                                               229P    168
110,6.30476010645925D0,-12.5D0,25.0D0,193.695239893541D0,            231P    169
-12.5D0,25.0D0;                                                      231P    170
110,6.30476010645925D0,-12.5D0,0.0D0,6.30476010645925D0,-12.5D0,     233P    171
25.0D0;                                                              233P    172
508,4,0,9,20,1,0,0,9,19,1,0,0,9,21,0,0,0,9,22,0,0;                   235P    173
510,225,1,1,235;                                                     237P    174
116,0.0D0,0.0D0,0.0D0,0;                                             239P    175
123,0.0D0,0.0D0,1.0D0;                                               241P    176
192,239,241,14.0D0,245;                                              243P    177
123,.450340007604232D0,.892857142857143D0,0.0D0;                     245P    178
100,0.0D0,0.0D0,0.0D0,14.0D0,0.0D0,-8.32142857142857D0,              247P    179
-11.2585001901058D0;                                                 247P    180
124,.450340007604232D0,-.892857142857143D0,0.0D0,0.0D0,              249P    181
.892857142857143D0,.450340007604232D0,0.0D0,0.0D0,0.0D0,0.0D0,       249P    182
1.0D0,0.0D0;                                                         249P    183
100,0.0D0,0.0D0,0.0D0,14.0D0,0.0D0,-8.32142857142857D0,              251P    184
-11.2585001901058D0;                                                 251P    185
124,.450340007604232D0,-.892857142857143D0,0.0D0,0.0D0,              253P    186
.892857142857143D0,.450340007604232D0,0.0D0,0.0D0,0.0D0,0.0D0,       253P    187
1.0D0,25.0D0;                                                        253P    188
508,4,0,9,23,1,0,0,9,22,1,0,0,9,24,0,0,0,9,14,0,0;                   255P    189
510,243,1,1,255;                                                     257P    190
116,100.0D0,0.0D0,25.0D0,0;                                          259P    191
123,0.0D0,0.0D0,1.0D0;                                               261P    192
190,259,261,265;                                                     263P    193
123,1.0D0,0.0D0,0.0D0;                                               265P    194
508,4,0,9,24,1,0,0,9,21,1,0,0,9,18,1,0,0,9,15,1,0;                   267P    195
508,1,0,9,10,1,0;                                                    269P    196
508,1,0,9,12,1,0;                                                    271P    197
510,263,3,1,267,269,271;                                             273P    198
116,100.0D0,0.0D0,0.0D0,0;                                           275P    199
123,0.0D0,0.0D0,-1.0D0;                                              277P    200
190,275,277,281;                                                     279P    201
123,-1.0D0,0.0D0,0.0D0;                                              281P    202
508,4,0,9,23,0,0,0,9,13,0,0,0,9,17,0,0,0,9,20,0,0;                   283P    203
508,1,0,9,7,1,0;                                                     285P    204
508,1,0,9,8,1,0;                                                     287P    205
510,279,3,1,283,285,287;                                             289P    206
514,16,25,1,41,1,61,1,77,1,93,1,109,1,129,1,143,1,163,1,177,1,       291P    207
197,1,219,1,237,1,257,1,273,1,289,1;                                 291P    208
186,291,1,0;                                                         293P    209
S      1G      3D    294P    209                                        T      1
