                                                                        S      1
,,10HM4 NUT.ipt,27HNo Iges File Name specified,22HAutodesk Inventor 2013G      1
,37HAutoDesk Inventor Iges Exporter R2013,32,38,6,99,15,10HM4 NUT.ipt,  G      2
1.0D0,2,2HMM,1,.08D0,15H20131210.105908,.01D0,10000.0D0,8Hemployee,,11, G      3
0,,;                                                                    G      4
     406       1       0       0       1       0       0       000000000D      1
     406       0       0       1       3                               0D      2
     120       2       0       0       0       0       0       000010000D      3
     120       0       0       1       0                               0D      4
     110       3       0       0       0       0       0       000010000D      5
     110       0       0       2       0                               0D      6
     110       5       0       0       0       0       0       001010000D      7
     110       0       0       1       0                               0D      8
     504       6       0       0       0       0       0       000010001D      9
     504       0       0       6       1                               0D     10
     502      12       0       0       0       0       0       000010000D     11
     502       0       0      14       1                               0D     12
     100      26       0       0       0       0      15       000010000D     13
     100       0       0       2       0                               0D     14
     124      28       0       0       0       0       0       000000000D     15
     124       0       0       2       0                               0D     16
     508      30       0       0       0       0       0       000010000D     17
     508       0       0       1       1                               0D     18
     100      31       0       0       0       0      21       000010000D     19
     100       0       0       2       0                               0D     20
     124      33       0       0       0       0       0       000000000D     21
     124       0       0       2       0                               0D     22
     508      35       0       0       0       0       0       000010000D     23
     508       0       0       1       1                               0D     24
     510      36       0       0       0       0       0       000010000D     25
     510       0    -235       1       1                               0D     26
     120      37       0       0       0       0       0       000010000D     27
     120       0       0       1       0                               0D     28
     110      38       0       0       0       0       0       000010000D     29
     110       0       0       2       0                               0D     30
     110      40       0       0       0       0       0       001010000D     31
     110       0       0       2       0                               0D     32
     100      42       0       0       0       0      35       000010000D     33
     100       0       0       2       0                               0D     34
     124      44       0       0       0       0       0       000000000D     35
     124       0       0       2       0                               0D     36
     508      46       0       0       0       0       0       000010000D     37
     508       0       0       1       1                               0D     38
     508      47       0       0       0       0       0       000010000D     39
     508       0       0       1       1                               0D     40
     510      48       0       0       0       0       0       000010000D     41
     510       0    -235       1       1                               0D     42
     116      49       0       0       0       0       0       000010000D     43
     116       0       0       1       0                               0D     44
     123      50       0       0       0       0       0       000010200D     45
     123       0       0       1       0                               0D     46
     190      51       0       0       0       0       0       000010000D     47
     190       0       0       1       1                               0D     48
     123      52       0       0       0       0       0       000010200D     49
     123       0       0       1       0                               0D     50
     100      53       0       0       0       0      53       000010000D     51
     100       0       0       1       0                               0D     52
     124      54       0       0       0       0       0       000000000D     53
     124       0       0       2       0                               0D     54
     508      56       0       0       0       0       0       000010000D     55
     508       0       0       1       1                               0D     56
     508      57       0       0       0       0       0       000010000D     57
     508       0       0       1       1                               0D     58
     510      58       0       0       0       0       0       000010000D     59
     510       0    -235       1       1                               0D     60
     120      59       0       0       0       0       0       000010000D     61
     120       0       0       1       0                               0D     62
     110      60       0       0       0       0       0       000010000D     63
     110       0       0       2       0                               0D     64
     110      62       0       0       0       0       0       001010000D     65
     110       0       0       1       0                               0D     66
     508      63       0       0       0       0       0       000010000D     67
     508       0       0       1       1                               0D     68
     100      64       0       0       0       0      71       000010000D     69
     100       0       0       2       0                               0D     70
     124      66       0       0       0       0       0       000000000D     71
     124       0       0       2       0                               0D     72
     508      68       0       0       0       0       0       000010000D     73
     508       0       0       1       1                               0D     74
     510      69       0       0       0       0       0       000010000D     75
     510       0    -235       1       1                               0D     76
     116      70       0       0       0       0       0       000010000D     77
     116       0       0       1       0                               0D     78
     123      71       0       0       0       0       0       000010200D     79
     123       0       0       1       0                               0D     80
     190      72       0       0       0       0       0       000010000D     81
     190       0       0       1       1                               0D     82
     123      73       0       0       0       0       0       000010200D     83
     123       0       0       1       0                               0D     84
     100      74       0       0       0       0      87       000010000D     85
     100       0       0       1       0                               0D     86
     124      75       0       0       0       0       0       000000000D     87
     124       0       0       2       0                               0D     88
     508      77       0       0       0       0       0       000010000D     89
     508       0       0       1       1                               0D     90
     508      78       0       0       0       0       0       000010000D     91
     508       0       0       1       1                               0D     92
     510      79       0       0       0       0       0       000010000D     93
     510       0    -235       1       1                               0D     94
     116      80       0       0       0       0       0       000010000D     95
     116       0       0       1       0                               0D     96
     123      81       0       0       0       0       0       000010200D     97
     123       0       0       1       0                               0D     98
     194      82       0       0       0       0       0       000010000D     99
     194       0       0       1       1                               0D    100
     123      83       0       0       0       0       0       000010200D    101
     123       0       0       1       0                               0D    102
     126      84       0       0       0       0       0       000010000D    103
     126       0       0       6       0                               0D    104
     126      90       0       0       0       0       0       000010000D    105
     126       0       0       6       0                               0D    106
     126      96       0       0       0       0       0       000010000D    107
     126       0       0       7       0                               0D    108
     126     103       0       0       0       0       0       000010000D    109
     126       0       0       6       0                               0D    110
     126     109       0       0       0       0       0       000010000D    111
     126       0       0       7       0                               0D    112
     126     116       0       0       0       0       0       000010000D    113
     126       0       0       6       0                               0D    114
     508     122       0       0       0       0       0       000010000D    115
     508       0       0       2       1                               0D    116
     508     124       0       0       0       0       0       000010000D    117
     508       0       0       1       1                               0D    118
     510     125       0       0       0       0       0       000010000D    119
     510       0    -235       1       1                               0D    120
     116     126       0       0       0       0       0       000010000D    121
     116       0       0       1       0                               0D    122
     123     127       0       0       0       0       0       000010200D    123
     123       0       0       1       0                               0D    124
     194     128       0       0       0       0       0       000010000D    125
     194       0       0       1       1                               0D    126
     123     129       0       0       0       0       0       000010200D    127
     123       0       0       1       0                               0D    128
     126     130       0       0       0       0       0       000010000D    129
     126       0       0       7       0                               0D    130
     126     137       0       0       0       0       0       000010000D    131
     126       0       0       6       0                               0D    132
     126     143       0       0       0       0       0       000010000D    133
     126       0       0       7       0                               0D    134
     126     150       0       0       0       0       0       000010000D    135
     126       0       0       7       0                               0D    136
     126     157       0       0       0       0       0       000010000D    137
     126       0       0       6       0                               0D    138
     126     163       0       0       0       0       0       000010000D    139
     126       0       0       6       0                               0D    140
     508     169       0       0       0       0       0       000010000D    141
     508       0       0       2       1                               0D    142
     508     171       0       0       0       0       0       000010000D    143
     508       0       0       1       1                               0D    144
     510     172       0       0       0       0       0       000010000D    145
     510       0    -235       1       1                               0D    146
     116     173       0       0       0       0       0       000010000D    147
     116       0       0       1       0                               0D    148
     123     174       0       0       0       0       0       000010200D    149
     123       0       0       1       0                               0D    150
     190     175       0       0       0       0       0       000010000D    151
     190       0       0       1       1                               0D    152
     123     176       0       0       0       0       0       000010200D    153
     123       0       0       1       0                               0D    154
     110     177       0       0       0       0       0       000010000D    155
     110       0       0       2       0                               0D    156
     110     179       0       0       0       0       0       000010000D    157
     110       0       0       2       0                               0D    158
     508     181       0       0       0       0       0       000010000D    159
     508       0       0       1       1                               0D    160
     510     182       0       0       0       0       0       000010000D    161
     510       0    -235       1       1                               0D    162
     116     183       0       0       0       0       0       000010000D    163
     116       0       0       1       0                               0D    164
     123     184       0       0       0       0       0       000010200D    165
     123       0       0       1       0                               0D    166
     190     185       0       0       0       0       0       000010000D    167
     190       0       0       1       1                               0D    168
     123     186       0       0       0       0       0       000010200D    169
     123       0       0       1       0                               0D    170
     110     187       0       0       0       0       0       000010000D    171
     110       0       0       2       0                               0D    172
     508     189       0       0       0       0       0       000010000D    173
     508       0       0       1       1                               0D    174
     510     190       0       0       0       0       0       000010000D    175
     510       0    -235       1       1                               0D    176
     116     191       0       0       0       0       0       000010000D    177
     116       0       0       1       0                               0D    178
     123     192       0       0       0       0       0       000010200D    179
     123       0       0       1       0                               0D    180
     190     193       0       0       0       0       0       000010000D    181
     190       0       0       1       1                               0D    182
     123     194       0       0       0       0       0       000010200D    183
     123       0       0       1       0                               0D    184
     110     195       0       0       0       0       0       000010000D    185
     110       0       0       2       0                               0D    186
     508     197       0       0       0       0       0       000010000D    187
     508       0       0       1       1                               0D    188
     510     198       0       0       0       0       0       000010000D    189
     510       0    -235       1       1                               0D    190
     116     199       0       0       0       0       0       000010000D    191
     116       0       0       1       0                               0D    192
     123     200       0       0       0       0       0       000010200D    193
     123       0       0       1       0                               0D    194
     190     201       0       0       0       0       0       000010000D    195
     190       0       0       1       1                               0D    196
     123     202       0       0       0       0       0       000010200D    197
     123       0       0       1       0                               0D    198
     110     203       0       0       0       0       0       000010000D    199
     110       0       0       2       0                               0D    200
     508     205       0       0       0       0       0       000010000D    201
     508       0       0       1       1                               0D    202
     510     206       0       0       0       0       0       000010000D    203
     510       0    -235       1       1                               0D    204
     116     207       0       0       0       0       0       000010000D    205
     116       0       0       1       0                               0D    206
     123     208       0       0       0       0       0       000010200D    207
     123       0       0       1       0                               0D    208
     190     209       0       0       0       0       0       000010000D    209
     190       0       0       1       1                               0D    210
     123     210       0       0       0       0       0       000010200D    211
     123       0       0       1       0                               0D    212
     110     211       0       0       0       0       0       000010000D    213
     110       0       0       2       0                               0D    214
     508     213       0       0       0       0       0       000010000D    215
     508       0       0       1       1                               0D    216
     510     214       0       0       0       0       0       000010000D    217
     510       0    -235       1       1                               0D    218
     116     215       0       0       0       0       0       000010000D    219
     116       0       0       1       0                               0D    220
     123     216       0       0       0       0       0       000010200D    221
     123       0       0       1       0                               0D    222
     190     217       0       0       0       0       0       000010000D    223
     190       0       0       1       1                               0D    224
     123     218       0       0       0       0       0       000010200D    225
     123       0       0       1       0                               0D    226
     508     219       0       0       0       0       0       000010000D    227
     508       0       0       1       1                               0D    228
     510     220       0       0       0       0       0       000010000D    229
     510       0    -235       1       1                               0D    230
     514     221       0       0       0       0       0       000010000D    231
     514       0       0       2       1                               0D    232
     186     223       0       0       1       0       0       000000000D    233
     186       0       0       1       0                  Solid1       0D    234
     314     224       0       0       0       0       0       000000000D    235
     314       0       8       1       0                               0D    236
406,2,0,6HM4 NUT;                                                      1P      1
120,7,5,0.0D0,6.28318530717959D0;                                      3P      2
110,.2296875D0,0.0D0,-1.60205569429222D0,-.0109375D0,0.0D0,            5P      3
-2.01883041986348D0;                                                   5P      4
110,.2296875D0,0.0D0,0.0D0,-.7703125D0,0.0D0,0.0D0;                    7P      5
504,24,13,11,1,11,1,19,11,2,11,2,33,11,3,11,3,51,11,4,11,4,69,         9P      6
11,5,11,5,85,11,6,11,6,103,11,7,11,8,105,11,9,11,7,107,11,10,11,       9P      7
9,109,11,11,11,10,111,11,12,11,11,113,11,8,11,12,129,11,13,11,         9P      8
14,131,11,15,11,13,133,11,16,11,15,135,11,17,11,16,137,11,18,11,       9P      9
17,139,11,14,11,18,155,11,9,11,14,157,11,10,11,18,171,11,11,11,        9P     10
17,185,11,7,11,13,199,11,8,11,15,213,11,12,11,16;                      9P     11
502,18,.21875D0,-1.98515246141786D-16,1.621D0,0.0D0,                  11P     12
2.44915412836001D-16,1.99988611415569D0,2.98125D0,                    11P     13
-1.98515246141786D-16,-1.621D0,0.0D0,2.95D0,0.0D0,3.2D0,              11P     14
2.44915412836001D-16,-1.99988611415569D0,3.2D0,2.95D0,0.0D0,          11P     15
.630150039223937D0,2.02072594216369D0,3.5D0,.630150039223937D0,       11P     16
-2.02072594216369D0,3.5D0,.630150039223937D0,4.04145188432738D0,      11P     17
0.0D0,.630150039223937D0,2.0207259421637D0,-3.5D0,                    11P     18
.630150039223937D0,-2.02072594216368D0,-3.50000000000001D0,           11P     19
.630150039223937D0,-4.04145188432738D0,1.94289029309402D-15,          11P     20
2.56984996077606D0,2.02072594216369D0,3.5D0,2.56984996077606D0,       11P     21
4.04145188432738D0,0.0D0,2.56984996077606D0,-2.02072594216369D0,      11P     22
3.5D0,2.56984996077606D0,-4.04145188432738D0,                         11P     23
1.94289029309402D-15,2.56984996077606D0,-2.02072594216368D0,          11P     24
-3.50000000000001D0,2.56984996077606D0,2.0207259421637D0,-3.5D0;      11P     25
100,0.0D0,0.0D0,0.0D0,-1.621D0,1.98515246141786D-16,-1.621D0,         13P     26
1.98515246141786D-16;                                                 13P     27
124,0.0D0,0.0D0,1.0D0,.21875D0,0.0D0,1.0D0,0.0D0,0.0D0,-1.0D0,        15P     28
0.0D0,0.0D0,0.0D0;                                                    15P     29
508,1,0,9,1,1,0;                                                      17P     30
100,0.0D0,0.0D0,0.0D0,-1.99988611415569D0,2.44915412836001D-16,       19P     31
-1.99988611415569D0,2.44915412836001D-16;                             19P     32
124,0.0D0,0.0D0,-1.0D0,0.0D0,0.0D0,-1.0D0,0.0D0,0.0D0,-1.0D0,         21P     33
0.0D0,0.0D0,0.0D0;                                                    21P     34
508,1,0,9,2,1,0;                                                      23P     35
510,3,2,1,17,23;                                                      25P     36
120,31,29,0.0D0,6.28318530717959D0;                                   27P     37
110,-7.96124246369255D0,0.0D0,-1.621D0,3.119375D0,0.0D0,              29P     38
-1.621D0;                                                             29P     39
110,-7.96124246369255D0,0.0D0,0.0D0,-6.96124246369255D0,0.0D0,        31P     40
0.0D0;                                                                31P     41
100,0.0D0,0.0D0,0.0D0,-1.621D0,1.98515246141786D-16,-1.621D0,         33P     42
1.98515246141786D-16;                                                 33P     43
124,0.0D0,0.0D0,-1.0D0,2.98125D0,0.0D0,1.0D0,0.0D0,0.0D0,1.0D0,       35P     44
0.0D0,0.0D0,0.0D0;                                                    35P     45
508,1,0,9,3,0,0;                                                      37P     46
508,1,0,9,1,0,0;                                                      39P     47
510,27,2,1,37,39;                                                     41P     48
116,0.0D0,6.93889390390723D-17,-8.67361737988404D-16,0;               43P     49
123,-1.0D0,0.0D0,0.0D0;                                               45P     50
190,43,45,49;                                                         47P     51
123,0.0D0,0.0D0,1.0D0;                                                49P     52
100,0.0D0,0.0D0,0.0D0,2.95D0,0.0D0,2.95D0,0.0D0;                      51P     53
124,0.0D0,0.0D0,-1.0D0,0.0D0,1.0D0,0.0D0,0.0D0,0.0D0,0.0D0,           53P     54
-1.0D0,0.0D0,0.0D0;                                                   53P     55
508,1,0,9,4,1,0;                                                      55P     56
508,1,0,9,2,0,0;                                                      57P     57
510,47,2,1,55,57;                                                     59P     58
120,65,63,0.0D0,6.28318530717959D0;                                   61P     59
110,2.9703125D0,0.0D0,1.60205569429222D0,3.2109375D0,0.0D0,           63P     60
2.01883041986348D0;                                                   63P     61
110,2.9703125D0,0.0D0,0.0D0,3.9703125D0,0.0D0,0.0D0;                  65P     62
508,1,0,9,3,1,0;                                                      67P     63
100,0.0D0,0.0D0,0.0D0,-1.99988611415569D0,2.44915412836001D-16,       69P     64
-1.99988611415569D0,2.44915412836001D-16;                             69P     65
124,0.0D0,0.0D0,1.0D0,3.2D0,0.0D0,-1.0D0,0.0D0,0.0D0,1.0D0,           71P     66
0.0D0,0.0D0,0.0D0;                                                    71P     67
508,1,0,9,5,1,0;                                                      73P     68
510,61,2,1,67,73;                                                     75P     69
116,3.2D0,5.67727683046955D-17,-7.63278329429795D-16,0;               77P     70
123,1.0D0,0.0D0,0.0D0;                                                79P     71
190,77,79,83;                                                         81P     72
123,0.0D0,0.0D0,-1.0D0;                                               83P     73
100,0.0D0,0.0D0,0.0D0,2.95D0,0.0D0,2.95D0,0.0D0;                      85P     74
124,0.0D0,0.0D0,1.0D0,3.2D0,1.0D0,0.0D0,0.0D0,0.0D0,0.0D0,1.0D0,      87P     75
0.0D0,0.0D0;                                                          87P     76
508,1,0,9,6,1,0;                                                      89P     77
508,1,0,9,5,0,0;                                                      91P     78
510,81,2,1,89,91;                                                     93P     79
116,.315075019611968D0,0.0D0,0.0D0,0;                                 95P     80
123,1.0D0,0.0D0,0.0D0;                                                97P     81
194,95,97,3.49572594216369D0,60.0D0,101;                              99P     82
123,0.0D0,1.0D0,0.0D0;                                               101P     83
126,2,2,1,0,0,0,0.0D0,0.0D0,0.0D0,.408952648327271D0,                103P     84
.408952648327271D0,.408952648327271D0,1.0D0,1.15470053837925D0,      103P     85
1.0D0,.630150039223937D0,2.02072594216369D0,3.5D0,                   103P     86
.046816705890604D0,0.0D0,3.5D0,.630150039223937D0,                   103P     87
-2.02072594216369D0,3.5D0,0.0D0,.408952648327271D0,0.0D0,0.0D0,      103P     88
1.0D0;                                                               103P     89
126,2,2,1,0,0,0,0.0D0,0.0D0,0.0D0,.408952648327271D0,                105P     90
.408952648327271D0,.408952648327271D0,1.0D0,1.15470053837925D0,      105P     91
1.0D0,.630150039223937D0,4.04145188432738D0,                         105P     92
2.24619943496089D-15,.046816705890604D0,3.03108891324554D0,          105P     93
1.75D0,.630150039223937D0,2.02072594216369D0,3.5D0,0.0D0,            105P     94
.408952648327271D0,0.0D0,-.866025403784439D0,-.5D0;                  105P     95
126,2,2,1,0,0,0,0.0D0,0.0D0,0.0D0,.408952648327271D0,                107P     96
.408952648327271D0,.408952648327271D0,1.0D0,1.15470053837925D0,      107P     97
1.0D0,.630150039223937D0,2.0207259421637D0,-3.5D0,                   107P     98
4.68167058906056D-2,3.03108891324554D0,-1.75D0,                      107P     99
.630150039223937D0,4.04145188432738D0,1.60442816782921D-15,          107P    100
0.0D0,.408952648327271D0,0.0D0,-.866025403784439D0,                  107P    101
.499999999999999D0;                                                  107P    102
126,2,2,1,0,0,0,0.0D0,0.0D0,0.0D0,.40895264832727D0,                 109P    103
.40895264832727D0,.40895264832727D0,1.0D0,1.15470053837925D0,        109P    104
1.0D0,.630150039223937D0,-2.02072594216368D0,                        109P    105
-3.50000000000001D0,4.68167058906072D-2,8.74300631892311D-15,        109P    106
-3.5D0,.630150039223937D0,2.02072594216369D0,-3.5D0,0.0D0,           109P    107
.40895264832727D0,0.0D0,0.0D0,1.0D0;                                 109P    108
126,2,2,1,0,0,0,0.0D0,0.0D0,0.0D0,.408952648327272D0,                111P    109
.408952648327272D0,.408952648327272D0,1.0D0,1.15470053837925D0,      111P    110
1.0D0,.630150039223937D0,-4.04145188432738D0,                        111P    111
9.62656900697526D-16,4.68167058906013D-2,-3.03108891324553D0,        111P    112
-1.75D0,.630150039223937D0,-2.02072594216368D0,                      111P    113
-3.50000000000001D0,0.0D0,.408952648327272D0,0.0D0,                  111P    114
-.866025403784438D0,-.500000000000001D0;                             111P    115
126,2,2,1,0,0,0,0.0D0,0.0D0,0.0D0,.408952648327271D0,                113P    116
.408952648327271D0,.408952648327271D0,1.0D0,1.15470053837925D0,      113P    117
1.0D0,.630150039223937D0,-2.02072594216369D0,3.5D0,                  113P    118
4.68167058906043D-2,-3.03108891324554D0,1.75D0,                      113P    119
.630150039223937D0,-4.04145188432738D0,0.0D0,0.0D0,                  113P    120
.408952648327271D0,0.0D0,-.866025403784439D0,.499999999999999D0;     113P    121
508,6,0,9,7,0,0,0,9,8,0,0,0,9,9,0,0,0,9,10,0,0,0,9,11,0,0,0,9,       115P    122
12,0,0;                                                              115P    123
508,1,0,9,4,0,0;                                                     117P    124
510,99,2,1,115,117;                                                  119P    125
116,2.88492498038803D0,0.0D0,0.0D0,0;                                121P    126
123,-1.0D0,0.0D0,0.0D0;                                              123P    127
194,121,123,3.49572594216369D0,60.0D0,127;                           125P    128
123,0.0D0,1.0D0,0.0D0;                                               127P    129
126,2,2,1,0,0,0,0.0D0,0.0D0,0.0D0,.408952648327273D0,                129P    130
.408952648327273D0,.408952648327273D0,1.0D0,1.15470053837925D0,      129P    131
1.0D0,2.56984996077606D0,2.02072594216369D0,3.50000000000001D0,      129P    132
3.1531832941094D0,3.03108891324553D0,1.75D0,2.56984996077606D0,      129P    133
4.04145188432738D0,-1.92531380139505D-15,0.0D0,                      129P    134
.408952648327273D0,0.0D0,-.866025403784432D0,                        129P    135
-.500000000000011D0;                                                 129P    136
126,2,2,1,0,0,0,0.0D0,0.0D0,0.0D0,.408952648327273D0,                131P    137
.408952648327273D0,.408952648327273D0,1.0D0,1.15470053837925D0,      131P    138
1.0D0,2.56984996077606D0,-2.0207259421637D0,3.5D0,                   131P    139
3.1531832941094D0,0.0D0,3.5D0,2.56984996077606D0,                    131P    140
2.0207259421637D0,3.5D0,0.0D0,.408952648327273D0,0.0D0,0.0D0,        131P    141
1.0D0;                                                               131P    142
126,2,2,1,0,0,0,0.0D0,0.0D0,0.0D0,.408952648327273D0,                133P    143
.408952648327273D0,.408952648327273D0,1.0D0,1.15470053837925D0,      133P    144
1.0D0,2.56984996077606D0,-4.04145188432738D0,                        133P    145
-5.13417013705348D-15,3.1531832941094D0,-3.03108891324554D0,         133P    146
1.75D0,2.56984996077606D0,-2.02072594216369D0,                       133P    147
3.50000000000001D0,0.0D0,.408952648327273D0,0.0D0,                   133P    148
-.866025403784416D0,.500000000000038D0;                              133P    149
126,2,2,1,0,0,0,0.0D0,0.0D0,0.0D0,.408952648327274D0,                135P    150
.408952648327274D0,.408952648327274D0,1.0D0,1.15470053837925D0,      135P    151
1.0D0,2.56984996077606D0,-2.02072594216368D0,                        135P    152
-3.50000000000001D0,3.1531832941094D0,-3.03108891324553D0,           135P    153
-1.75D0,2.56984996077606D0,-4.04145188432738D0,                      135P    154
5.77594140418516D-15,0.0D0,.408952648327274D0,0.0D0,                 135P    155
-.866025403784434D0,-.500000000000008D0;                             135P    156
126,2,2,1,0,0,0,0.0D0,0.0D0,0.0D0,.408952648327272D0,                137P    157
.408952648327272D0,.408952648327272D0,1.0D0,1.15470053837925D0,      137P    158
1.0D0,2.56984996077606D0,2.0207259421637D0,-3.5D0,                   137P    159
3.1531832941094D0,8.74300631892311D-15,-3.5D0,                       137P    160
2.56984996077606D0,-2.02072594216368D0,-3.50000000000001D0,          137P    161
0.0D0,.408952648327272D0,0.0D0,0.0D0,1.0D0;                          137P    162
126,2,2,1,0,0,0,0.0D0,0.0D0,0.0D0,.408952648327272D0,                139P    163
.408952648327272D0,.408952648327272D0,1.0D0,1.15470053837925D0,      139P    164
1.0D0,2.56984996077606D0,4.04145188432738D0,                         139P    165
5.77594140418516D-15,3.1531832941094D0,3.03108891324554D0,           139P    166
-1.75D0,2.56984996077606D0,2.0207259421637D0,-3.5D0,0.0D0,           139P    167
.408952648327272D0,0.0D0,-.866025403784459D0,.499999999999964D0;     139P    168
508,6,0,9,13,0,0,0,9,14,0,0,0,9,15,0,0,0,9,16,0,0,0,9,17,0,0,0,      141P    169
9,18,0,0;                                                            141P    170
508,1,0,9,6,0,0;                                                     143P    171
510,125,2,1,141,143;                                                 145P    172
116,0.0D0,4.04145188432738D0,2.09646753419447D-15,0;                 147P    173
123,0.0D0,.866025403784439D0,-.499999999999999D0;                    149P    174
190,147,149,153;                                                     151P    175
123,0.0D0,.499999999999999D0,.866025403784439D0;                     153P    176
110,.630150039223937D0,4.04145188432738D0,2.09646753419447D-15,      155P    177
2.56984996077606D0,4.04145188432738D0,2.09646753419447D-15;          155P    178
110,.630150039223937D0,2.0207259421637D0,-3.5D0,                     157P    179
2.56984996077606D0,2.0207259421637D0,-3.5D0;                         157P    180
508,4,0,9,9,1,0,0,9,19,1,0,0,9,18,1,0,0,9,20,0,0;                    159P    181
510,151,1,1,159;                                                     161P    182
116,0.0D0,2.0207259421637D0,-3.5D0,0;                                163P    183
123,0.0D0,0.0D0,-1.0D0;                                              165P    184
190,163,165,169;                                                     167P    185
123,-1.0D0,0.0D0,0.0D0;                                              169P    186
110,.630150039223937D0,-2.02072594216368D0,-3.50000000000001D0,      171P    187
2.56984996077606D0,-2.02072594216368D0,-3.50000000000001D0;          171P    188
508,4,0,9,10,1,0,0,9,20,1,0,0,9,17,1,0,0,9,21,0,0;                   173P    189
510,167,1,1,173;                                                     175P    190
116,0.0D0,2.02072594216369D0,3.5D0,0;                                177P    191
123,0.0D0,.866025403784439D0,.5D0;                                   179P    192
190,177,179,183;                                                     181P    193
123,1.0D0,0.0D0,0.0D0;                                               183P    194
110,.630150039223937D0,2.02072594216369D0,3.5D0,                     185P    195
2.56984996077606D0,2.02072594216369D0,3.5D0;                         185P    196
508,4,0,9,8,1,0,0,9,22,1,0,0,9,13,1,0,0,9,19,0,0;                    187P    197
510,181,1,1,187;                                                     189P    198
116,0.0D0,-2.02072594216369D0,3.5D0,0;                               191P    199
123,0.0D0,0.0D0,1.0D0;                                               193P    200
190,191,193,197;                                                     195P    201
123,1.0D0,0.0D0,0.0D0;                                               197P    202
110,.630150039223937D0,-2.02072594216369D0,3.5D0,                    199P    203
2.56984996077606D0,-2.02072594216369D0,3.5D0;                        199P    204
508,4,0,9,7,1,0,0,9,23,1,0,0,9,14,1,0,0,9,22,0,0;                    201P    205
510,195,1,1,201;                                                     203P    206
116,0.0D0,-2.02072594216368D0,-3.50000000000001D0,0;                 205P    207
123,0.0D0,-.866025403784438D0,-.500000000000001D0;                   207P    208
190,205,207,211;                                                     209P    209
123,-1.0D0,0.0D0,0.0D0;                                              211P    210
110,.630150039223937D0,-4.04145188432738D0,1.19908494721547D-15,     213P    211
2.56984996077606D0,-4.04145188432738D0,1.19908494721547D-15;         213P    212
508,4,0,9,11,1,0,0,9,21,1,0,0,9,16,1,0,0,9,24,0,0;                   215P    213
510,209,1,1,215;                                                     217P    214
116,0.0D0,-4.04145188432738D0,1.19908494721547D-15,0;                219P    215
123,0.0D0,-.866025403784439D0,.5D0;                                  221P    216
190,219,221,225;                                                     223P    217
123,0.0D0,-.5D0,-.866025403784439D0;                                 225P    218
508,4,0,9,12,1,0,0,9,24,1,0,0,9,15,1,0,0,9,23,0,0;                   227P    219
510,223,1,1,227;                                                     229P    220
514,13,25,1,41,1,59,1,75,1,93,1,119,1,145,1,161,1,175,1,189,1,       231P    221
203,1,217,1,229,1;                                                   231P    222
186,231,1,0;                                                         233P    223
314,74.5000004768372D0,73.6999988555908D0,72.8999972343445D0,;       235P    224
S      1G      4D    236P    224                                        T      1
