                                                                        S      1
,,9HM4x16.ipt,27HNo Iges File Name specified,22HAutodesk Inventor 2013, G      1
37HAutoDesk Inventor Iges Exporter R2013,32,38,6,99,15,9HM4x16.ipt,     G      2
1.0D0,2,2HMM,1,.08D0,15H20131210.105909,.01D0,10000.0D0,8Hemployee,,11, G      3
0,,;                                                                    G      4
     406       1       0       0       1       0       0       000000000D      1
     406       0       0       1       3                               0D      2
     120       2       0       0       0       0       0       000010000D      3
     120       0       0       1       0                               0D      4
     100       3       0       0       0       0       7       000010000D      5
     100       0       0       1       0                               0D      6
     124       4       0       0       0       0       0       000000000D      7
     124       0       0       2       0                               0D      8
     110       6       0       0       0       0       0       001010000D      9
     110       0       0       2       0                               0D     10
     504       8       0       0       0       0       0       000010001D     11
     504       0       0       7       1                               0D     12
     502      15       0       0       0       0       0       000010000D     13
     502       0       0      17       1                               0D     14
     100      32       0       0       0       0      17       000010000D     15
     100       0       0       2       0                               0D     16
     124      34       0       0       0       0       0       000000000D     17
     124       0       0       2       0                               0D     18
     508      36       0       0       0       0       0       000010000D     19
     508       0       0       1       1                               0D     20
     100      37       0       0       0       0      23       000010000D     21
     100       0       0       2       0                               0D     22
     124      39       0       0       0       0       0       000000000D     23
     124       0       0       2       0                               0D     24
     508      41       0       0       0       0       0       000010000D     25
     508       0       0       1       1                               0D     26
     510      42       0       0       0       0       0       000010000D     27
     510       0    -267       1       1                               0D     28
     116      43       0       0       0       0       0       000010000D     29
     116       0       0       1       0                               0D     30
     123      44       0       0       0       0       0       000010200D     31
     123       0       0       1       0                               0D     32
     192      45       0       0       0       0       0       000010000D     33
     192       0       0       1       1                               0D     34
     123      46       0       0       0       0       0       000010200D     35
     123       0       0       1       0                               0D     36
     100      47       0       0       0       0      39       000010000D     37
     100       0       0       2       0                               0D     38
     124      49       0       0       0       0       0       000000000D     39
     124       0       0       2       0                               0D     40
     508      51       0       0       0       0       0       000010000D     41
     508       0       0       1       1                               0D     42
     508      52       0       0       0       0       0       000010000D     43
     508       0       0       1       1                               0D     44
     510      53       0       0       0       0       0       000010000D     45
     510       0    -267       1       1                               0D     46
     116      54       0       0       0       0       0       000010000D     47
     116       0       0       1       0                               0D     48
     123      55       0       0       0       0       0       000010200D     49
     123       0       0       1       0                               0D     50
     190      56       0       0       0       0       0       000010000D     51
     190       0       0       1       1                               0D     52
     123      57       0       0       0       0       0       000010200D     53
     123       0       0       1       0                               0D     54
     100      58       0       0       0       0      57       000010000D     55
     100       0       0       1       0                               0D     56
     124      59       0       0       0       0       0       000000000D     57
     124       0       0       2       0                               0D     58
     508      61       0       0       0       0       0       000010000D     59
     508       0       0       1       1                               0D     60
     508      62       0       0       0       0       0       000010000D     61
     508       0       0       1       1                               0D     62
     510      63       0       0       0       0       0       000010000D     63
     510       0    -267       1       1                               0D     64
     116      64       0       0       0       0       0       000010000D     65
     116       0       0       1       0                               0D     66
     123      65       0       0       0       0       0       000010200D     67
     123       0       0       1       0                               0D     68
     194      66       0       0       0       0       0       000010000D     69
     194       0       0       1       1                               0D     70
     123      67       0       0       0       0       0       000010200D     71
     123       0       0       1       0                               0D     72
     508      68       0       0       0       0       0       000010000D     73
     508       0       0       1       1                               0D     74
     100      69       0       0       0       0      77       000010000D     75
     100       0       0       2       0                               0D     76
     124      71       0       0       0       0       0       000000000D     77
     124       0       0       2       0                               0D     78
     508      73       0       0       0       0       0       000010000D     79
     508       0       0       1       1                               0D     80
     510      74       0       0       0       0       0       000010000D     81
     510       0    -267       1       1                               0D     82
     116      75       0       0       0       0       0       000010000D     83
     116       0       0       1       0                               0D     84
     123      76       0       0       0       0       0       000010200D     85
     123       0       0       1       0                               0D     86
     190      77       0       0       0       0       0       000010000D     87
     190       0       0       1       1                               0D     88
     123      78       0       0       0       0       0       000010200D     89
     123       0       0       1       0                               0D     90
     508      79       0       0       0       0       0       000010000D     91
     508       0       0       1       1                               0D     92
     510      80       0       0       0       0       0       000010000D     93
     510       0    -267       1       1                               0D     94
     116      81       0       0       0       0       0       000010000D     95
     116       0       0       1       0                               0D     96
     123      82       0       0       0       0       0       000010200D     97
     123       0       0       1       0                               0D     98
     198      83       0       0       0       0       0       000010000D     99
     198       0       0       1       1                               0D    100
     123      84       0       0       0       0       0       000010200D    101
     123       0       0       1       0                               0D    102
     100      85       0       0       0       0     105       000010000D    103
     100       0       0       2       0                               0D    104
     124      87       0       0       0       0       0       000000000D    105
     124       0       0       2       0                               0D    106
     508      89       0       0       0       0       0       000010000D    107
     508       0       0       1       1                               0D    108
     100      90       0       0       0       0     111       000010000D    109
     100       0       0       2       0                               0D    110
     124      92       0       0       0       0       0       000000000D    111
     124       0       0       2       0                               0D    112
     508      94       0       0       0       0       0       000010000D    113
     508       0       0       1       1                               0D    114
     510      95       0       0       0       0       0       000010000D    115
     510       0    -267       1       1                               0D    116
     116      96       0       0       0       0       0       000010000D    117
     116       0       0       1       0                               0D    118
     123      97       0       0       0       0       0       000010200D    119
     123       0       0       1       0                               0D    120
     190      98       0       0       0       0       0       000010000D    121
     190       0       0       1       1                               0D    122
     123      99       0       0       0       0       0       000010200D    123
     123       0       0       1       0                               0D    124
     508     100       0       0       0       0       0       000010000D    125
     508       0       0       1       1                               0D    126
     110     101       0       0       0       0       0       000010000D    127
     110       0       0       2       0                               0D    128
     110     103       0       0       0       0       0       000010000D    129
     110       0       0       2       0                               0D    130
     110     105       0       0       0       0       0       000010000D    131
     110       0       0       2       0                               0D    132
     110     107       0       0       0       0       0       000010000D    133
     110       0       0       2       0                               0D    134
     110     109       0       0       0       0       0       000010000D    135
     110       0       0       2       0                               0D    136
     110     111       0       0       0       0       0       000010000D    137
     110       0       0       3       0                               0D    138
     508     114       0       0       0       0       0       000010000D    139
     508       0       0       2       1                               0D    140
     510     116       0       0       0       0       0       000010000D    141
     510       0    -267       1       1                               0D    142
     116     117       0       0       0       0       0       000010000D    143
     116       0       0       1       0                               0D    144
     123     118       0       0       0       0       0       000010200D    145
     123       0       0       1       0                               0D    146
     192     119       0       0       0       0       0       000010000D    147
     192       0       0       1       1                               0D    148
     123     120       0       0       0       0       0       000010200D    149
     123       0       0       1       0                               0D    150
     508     121       0       0       0       0       0       000010000D    151
     508       0       0       1       1                               0D    152
     508     122       0       0       0       0       0       000010000D    153
     508       0       0       1       1                               0D    154
     510     123       0       0       0       0       0       000010000D    155
     510       0    -267       1       1                               0D    156
     116     124       0       0       0       0       0       000010000D    157
     116       0       0       2       0                               0D    158
     123     126       0       0       0       0       0       000010200D    159
     123       0       0       1       0                               0D    160
     190     127       0       0       0       0       0       000010000D    161
     190       0       0       1       1                               0D    162
     123     128       0       0       0       0       0       000010200D    163
     123       0       0       1       0                               0D    164
     126     129       0       0       0       0       0       000010000D    165
     126       0       0       7       0                               0D    166
     110     136       0       0       0       0       0       000010000D    167
     110       0       0       3       0                               0D    168
     110     139       0       0       0       0       0       000010000D    169
     110       0       0       2       0                               0D    170
     508     141       0       0       0       0       0       000010000D    171
     508       0       0       1       1                               0D    172
     510     142       0       0       0       0       0       000010000D    173
     510       0    -267       1       1                               0D    174
     116     143       0       0       0       0       0       000010000D    175
     116       0       0       1       0                               0D    176
     123     144       0       0       0       0       0       000010200D    177
     123       0       0       1       0                               0D    178
     190     145       0       0       0       0       0       000010000D    179
     190       0       0       1       1                               0D    180
     123     146       0       0       0       0       0       000010200D    181
     123       0       0       1       0                               0D    182
     126     147       0       0       0       0       0       000010000D    183
     126       0       0       7       0                               0D    184
     110     154       0       0       0       0       0       000010000D    185
     110       0       0       2       0                               0D    186
     508     156       0       0       0       0       0       000010000D    187
     508       0       0       1       1                               0D    188
     510     157       0       0       0       0       0       000010000D    189
     510       0    -267       1       1                               0D    190
     116     158       0       0       0       0       0       000010000D    191
     116       0       0       1       0                               0D    192
     123     159       0       0       0       0       0       000010200D    193
     123       0       0       1       0                               0D    194
     190     160       0       0       0       0       0       000010000D    195
     190       0       0       1       1                               0D    196
     123     161       0       0       0       0       0       000010200D    197
     123       0       0       1       0                               0D    198
     126     162       0       0       0       0       0       000010000D    199
     126       0       0       6       0                               0D    200
     110     168       0       0       0       0       0       000010000D    201
     110       0       0       2       0                               0D    202
     508     170       0       0       0       0       0       000010000D    203
     508       0       0       1       1                               0D    204
     510     171       0       0       0       0       0       000010000D    205
     510       0    -267       1       1                               0D    206
     116     172       0       0       0       0       0       000010000D    207
     116       0       0       2       0                               0D    208
     123     174       0       0       0       0       0       000010200D    209
     123       0       0       2       0                               0D    210
     190     176       0       0       0       0       0       000010000D    211
     190       0       0       1       1                               0D    212
     123     177       0       0       0       0       0       000010200D    213
     123       0       0       1       0                               0D    214
     126     178       0       0       0       0       0       000010000D    215
     126       0       0       7       0                               0D    216
     110     185       0       0       0       0       0       000010000D    217
     110       0       0       3       0                               0D    218
     508     188       0       0       0       0       0       000010000D    219
     508       0       0       1       1                               0D    220
     510     189       0       0       0       0       0       000010000D    221
     510       0    -267       1       1                               0D    222
     116     190       0       0       0       0       0       000010000D    223
     116       0       0       1       0                               0D    224
     123     191       0       0       0       0       0       000010200D    225
     123       0       0       1       0                               0D    226
     190     192       0       0       0       0       0       000010000D    227
     190       0       0       1       1                               0D    228
     123     193       0       0       0       0       0       000010200D    229
     123       0       0       1       0                               0D    230
     126     194       0       0       0       0       0       000010000D    231
     126       0       0       6       0                               0D    232
     110     200       0       0       0       0       0       000010000D    233
     110       0       0       2       0                               0D    234
     508     202       0       0       0       0       0       000010000D    235
     508       0       0       1       1                               0D    236
     510     203       0       0       0       0       0       000010000D    237
     510       0    -267       1       1                               0D    238
     116     204       0       0       0       0       0       000010000D    239
     116       0       0       1       0                               0D    240
     123     205       0       0       0       0       0       000010200D    241
     123       0       0       1       0                               0D    242
     190     206       0       0       0       0       0       000010000D    243
     190       0       0       1       1                               0D    244
     123     207       0       0       0       0       0       000010200D    245
     123       0       0       1       0                               0D    246
     126     208       0       0       0       0       0       000010000D    247
     126       0       0       7       0                               0D    248
     508     215       0       0       0       0       0       000010000D    249
     508       0       0       1       1                               0D    250
     510     216       0       0       0       0       0       000010000D    251
     510       0    -267       1       1                               0D    252
     120     217       0       0       0       0       0       000010000D    253
     120       0       0       1       0                               0D    254
     110     218       0       0       0       0       0       000010000D    255
     110       0       0       2       0                               0D    256
     110     220       0       0       0       0       0       001010000D    257
     110       0       0       2       0                               0D    258
     508     222       0       0       0       0       0       000010000D    259
     508       0       0       2       1                               0D    260
     510     224       0       0       0       0       0       000010000D    261
     510       0    -267       1       1                               0D    262
     514     225       0       0       0       0       0       000010000D    263
     514       0       0       2       1                               0D    264
     186     227       0       0       1       0       0       000000000D    265
     186       0       0       1       0                  Solid1       0D    266
     314     228       0       0       0       0       0       000000000D    267
     314       0       8       1       0                               0D    268
406,2,0,5HM4x16;                                                       1P      1
120,9,5,0.0D0,6.28318530717959D0;                                      3P      2
100,0.0D0,0.0D0,0.0D0,.1D0,0.0D0,.1D0,0.0D0;                           5P      3
124,0.0D0,-1.0D0,0.0D0,.100000000000002D0,0.0D0,0.0D0,1.0D0,           7P      4
-1.12677218657058D-16,-1.0D0,0.0D0,0.0D0,-2.1D0;                       7P      5
110,.100000000000002D0,-1.12677218657058D-16,0.0D0,                    9P      6
-.899999999999998D0,-1.12677218657058D-16,0.0D0;                       9P      7
504,25,15,13,1,13,1,21,13,2,13,2,37,13,3,13,3,55,13,4,13,4,75,        11P      8
13,5,13,5,103,13,6,13,6,109,13,7,13,7,127,13,8,13,9,129,13,9,13,      11P      9
10,131,13,10,13,11,133,13,11,13,12,135,13,12,13,13,137,13,13,13,      11P     10
8,165,13,14,13,15,167,13,14,13,13,169,13,15,13,12,183,13,16,13,       11P     11
14,185,13,16,13,8,199,13,17,13,16,201,13,17,13,9,215,13,18,13,        11P     12
17,217,13,10,13,18,231,13,15,13,19,233,13,19,13,11,247,13,19,13,      11P     13
18;                                                                   11P     14
502,19,2.22291138720632D-15,2.1D0,0.0D0,.100000000000002D0,           13P     15
2.0D0,-4.89858719658941D-16,15.570585D0,2.0D0,                        13P     16
2.44929359829471D-16,2.22044604925031D-15,3.5D0,0.0D0,16.0D0,         13P     17
1.570585D0,-1.92341189303885D-16,-3.99999999999999D0,3.1D0,           13P     18
0.0D0,-3.59999999999999D0,3.5D0,-8.57252759403148D-16,                13P     19
-3.99999999999999D0,1.5D0,-.866025403784439D0,                        13P     20
-3.99999999999999D0,1.5D0,.866025403784437D0,                         13P     21
-3.99999999999999D0,7.03826972329592D-17,1.73205080756888D0,          13P     22
-3.99999999999999D0,-1.5D0,.866025403784439D0,                        13P     23
-3.99999999999999D0,-1.5D0,-.866025403784438D0,                       13P     24
-3.99999999999999D0,-3.50619265852446D-16,-1.73205080756888D0,        13P     25
-1.99999999999999D0,-1.2348276676521D-15,-1.73205080756888D0,         13P     26
-1.99999999999999D0,-1.5D0,-.866025403784438D0,                       13P     27
-1.99999999999999D0,1.5D0,-.866025403784441D0,                        13P     28
-1.99999999999999D0,1.5D0,.866025403784436D0,                         13P     29
-1.99999999999999D0,-4.02160399183232D-16,1.73205080756888D0,         13P     30
-1.99999999999999D0,-1.5D0,.866025403784439D0;                        13P     31
100,0.0D0,0.0D0,0.0D0,-2.1D0,2.57175827820944D-16,-2.1D0,             15P     32
2.57175827820944D-16;                                                 15P     33
124,0.0D0,0.0D0,1.0D0,2.23779328401008D-15,-1.0D0,0.0D0,0.0D0,        17P     34
-1.13385880409618D-16,0.0D0,-1.0D0,0.0D0,0.0D0;                       17P     35
508,1,0,11,1,1,0;                                                     19P     36
100,0.0D0,0.0D0,0.0D0,-2.0D0,2.44929359829471D-16,-2.0D0,             21P     37
2.44929359829471D-16;                                                 21P     38
124,0.0D0,0.0D0,-1.0D0,.100000000000002D0,-1.0D0,0.0D0,0.0D0,         23P     39
-1.12677218657058D-16,0.0D0,1.0D0,0.0D0,0.0D0;                        23P     40
508,1,0,11,2,1,0;                                                     25P     41
510,3,2,1,19,25;                                                      27P     42
116,8.875D0,-5.04921498699079D-17,0.0D0,0;                            29P     43
123,1.0D0,7.08661752560111D-18,0.0D0;                                 31P     44
192,29,31,2.0D0,35;                                                   33P     45
123,0.0D0,1.0D0,0.0D0;                                                35P     46
100,0.0D0,0.0D0,0.0D0,-2.0D0,2.44929359829471D-16,-2.0D0,             37P     47
2.44929359829471D-16;                                                 37P     48
124,0.0D0,0.0D0,1.0D0,15.570585D0,-1.0D0,0.0D0,0.0D0,                 39P     49
-3.04309986475598D-18,0.0D0,-1.0D0,0.0D0,0.0D0;                       39P     50
508,1,0,11,3,0,0;                                                     41P     51
508,1,0,11,2,0,0;                                                     43P     52
510,33,2,1,41,43;                                                     45P     53
116,2.22044604925031D-15,2.75D0,0.0D0,0;                              47P     54
123,1.0D0,0.0D0,0.0D0;                                                49P     55
190,47,49,53;                                                         51P     56
123,0.0D0,0.0D0,-1.0D0;                                               53P     57
100,0.0D0,0.0D0,0.0D0,3.5D0,0.0D0,3.5D0,0.0D0;                        55P     58
124,0.0D0,0.0D0,1.0D0,2.22044604925031D-15,1.0D0,0.0D0,0.0D0,         57P     59
-1.13385880409618D-16,0.0D0,1.0D0,0.0D0,0.0D0;                        57P     60
508,1,0,11,4,1,0;                                                     59P     61
508,1,0,11,1,0,0;                                                     61P     62
510,51,2,1,59,61;                                                     63P     63
116,15.7852925D0,-1.52154993237798D-18,0.0D0,0;                       65P     64
123,-1.0D0,-7.08661752560111D-18,0.0D0;                               67P     65
194,65,67,1.7852925D0,45.0D0,71;                                      69P     66
123,0.0D0,-1.0D0,0.0D0;                                               71P     67
508,1,0,11,3,1,0;                                                     73P     68
100,0.0D0,0.0D0,0.0D0,-1.570585D0,1.92341189303885D-16,               75P     69
-1.570585D0,1.92341189303885D-16;                                     75P     70
124,0.0D0,0.0D0,-1.0D0,16.0D0,-1.0D0,0.0D0,0.0D0,                     77P     71
1.82963344716787D-32,0.0D0,1.0D0,0.0D0,0.0D0;                         77P     72
508,1,0,11,5,1,0;                                                     79P     73
510,69,2,1,73,79;                                                     81P     74
116,16.0D0,1.0D0,0.0D0,0;                                             83P     75
123,1.0D0,0.0D0,0.0D0;                                                85P     76
190,83,85,89;                                                         87P     77
123,0.0D0,0.0D0,-1.0D0;                                               89P     78
508,1,0,11,5,0,0;                                                     91P     79
510,87,1,1,91;                                                        93P     80
116,-3.59999999999999D0,-1.38897703501782D-16,0.0D0,0;                95P     81
123,1.0D0,7.08661752560111D-18,0.0D0;                                 97P     82
198,95,97,3.1D0,.4D0,101;                                             99P     83
123,0.0D0,0.0D0,-1.0D0;                                              101P     84
100,0.0D0,0.0D0,0.0D0,-3.1D0,3.7964050773568D-16,-3.1D0,             103P     85
3.7964050773568D-16;                                                 103P     86
124,0.0D0,0.0D0,1.0D0,-3.99999999999999D0,-1.0D0,0.0D0,0.0D0,        105P     87
-1.41732350512022D-16,0.0D0,-1.0D0,0.0D0,0.0D0;                      105P     88
508,1,0,11,6,1,0;                                                    107P     89
100,0.0D0,0.0D0,0.0D0,-3.5D0,4.28626379701574D-16,-3.5D0,            109P     90
4.28626379701574D-16;                                                109P     91
124,0.0D0,0.0D0,-1.0D0,-3.59999999999999D0,-1.0D0,0.0D0,0.0D0,       111P     92
-1.38897703501782D-16,0.0D0,1.0D0,0.0D0,0.0D0;                       111P     93
508,1,0,11,7,1,0;                                                    113P     94
510,99,2,1,107,113;                                                  115P     95
116,-3.99999999999999D0,2.61602540378444D0,0.0D0,0;                  117P     96
123,-1.0D0,0.0D0,0.0D0;                                              119P     97
190,117,119,123;                                                     121P     98
123,0.0D0,0.0D0,1.0D0;                                               123P     99
508,1,0,11,6,0,0;                                                    125P    100
110,-3.99999999999999D0,1.5D0,-.866025403784439D0,                   127P    101
-3.99999999999999D0,1.5D0,.866025403784437D0;                        127P    102
110,-3.99999999999999D0,1.5D0,.866025403784437D0,                    129P    103
-3.99999999999999D0,5.55111512312578D-17,1.73205080756888D0;         129P    104
110,-3.99999999999999D0,2.22044604925031D-16,1.73205080756888D0,     131P    105
-3.99999999999999D0,-1.5D0,.866025403784439D0;                       131P    106
110,-3.99999999999999D0,-1.5D0,.866025403784439D0,                   133P    107
-3.99999999999999D0,-1.5D0,-.866025403784438D0;                      133P    108
110,-3.99999999999999D0,-1.5D0,-.866025403784438D0,                  135P    109
-3.99999999999999D0,-3.88578058618805D-16,-1.73205080756888D0;       135P    110
110,-3.99999999999999D0,-6.66133814775094D-16,                       137P    111
-1.73205080756888D0,-3.99999999999999D0,1.5D0,                       137P    112
-.866025403784439D0;                                                 137P    113
508,6,0,11,8,1,0,0,11,9,1,0,0,11,10,1,0,0,11,11,1,0,0,11,12,1,0,     139P    114
0,11,13,1,0;                                                         139P    115
510,121,2,1,125,139;                                                 141P    116
116,-2.0D0,-1.2755911546082D-16,0.0D0,0;                             143P    117
123,1.0D0,7.08661752560111D-18,0.0D0;                                145P    118
192,143,145,3.5D0,149;                                               147P    119
123,0.0D0,1.0D0,0.0D0;                                               149P    120
508,1,0,11,4,0,0;                                                    151P    121
508,1,0,11,7,0,0;                                                    153P    122
510,147,2,1,151,153;                                                 155P    123
116,-3.99999999999999D0,-3.50619265852446D-16,                       157P    124
-1.73205080756888D0,0;                                               157P    125
123,-3.54330876280056D-18,.5D0,.866025403784439D0;                   159P    126
190,157,159,163;                                                     161P    127
123,1.0D0,0.0D0,0.0D0;                                               163P    128
126,2,2,1,0,0,0,0.0D0,0.0D0,0.0D0,.175265420711689D0,                165P    129
.175265420711689D0,.175265420711689D0,1.0D0,1.15470053837926D0,      165P    130
1.0D0,-1.99999999999999D0,4.97769823067029D-15,                      165P    131
-1.73205080756888D0,-1.74999999999999D0,-.750000000000001D0,         165P    132
-1.29903810567666D0,-1.99999999999999D0,-1.50000000000001D0,         165P    133
-.866025403784435D0,0.0D0,.175265420711689D0,0.0D0,                  165P    134
-.499999999999959D0,-.866025403784462D0;                             165P    135
110,-1.99999999999999D0,-5.48024894786977D-16,                       167P    136
-1.73205080756888D0,-3.99999999999999D0,-5.62198129838179D-16,       167P    137
-1.73205080756888D0;                                                 167P    138
110,-1.99999999999999D0,-1.5D0,-.866025403784438D0,                  169P    139
-3.99999999999999D0,-1.5D0,-.866025403784438D0;                      169P    140
508,4,0,11,14,0,0,0,11,15,1,0,0,11,12,0,0,0,11,16,0,0;               171P    141
510,161,1,1,171;                                                     173P    142
116,-3.99999999999999D0,1.5D0,-.866025403784439D0,0;                 175P    143
123,3.54330876280055D-18,-.5D0,.866025403784439D0;                   177P    144
190,175,177,181;                                                     179P    145
123,1.0D0,0.0D0,0.0D0;                                               181P    146
126,2,2,1,0,0,0,0.0D0,0.0D0,0.0D0,.175265420711689D0,                183P    147
.175265420711689D0,.175265420711689D0,1.0D0,1.15470053837925D0,      183P    148
1.0D0,-1.99999999999999D0,1.5D0,-.866025403784436D0,                 183P    149
-1.74999999999999D0,.749999999999999D0,-1.29903810567666D0,          183P    150
-1.99999999999999D0,-5.70819838134686D-15,-1.73205080756888D0,       183P    151
0.0D0,.175265420711689D0,0.0D0,.500000000000055D0,                   183P    152
-.866025403784407D0;                                                 183P    153
110,-1.99999999999999D0,1.5D0,-.866025403784441D0,                   185P    154
-3.99999999999999D0,1.5D0,-.866025403784441D0;                       185P    155
508,4,0,11,17,0,0,0,11,18,1,0,0,11,13,0,0,0,11,15,0,0;               187P    156
510,179,1,1,187;                                                     189P    157
116,-3.99999999999999D0,1.5D0,.866025403784437D0,0;                  191P    158
123,0.0D0,-1.0D0,0.0D0;                                              193P    159
190,191,193,197;                                                     195P    160
123,0.0D0,0.0D0,-1.0D0;                                              197P    161
126,2,2,1,0,0,0,0.0D0,0.0D0,0.0D0,.175265420711689D0,                199P    162
.175265420711689D0,.175265420711689D0,1.0D0,1.15470053837926D0,      199P    163
1.0D0,-1.99999999999999D0,1.5D0,.866025403784444D0,                  199P    164
-1.74999999999999D0,1.5D0,-1.52655665885959D-15,                     199P    165
-1.99999999999999D0,1.5D0,-.866025403784447D0,0.0D0,                 199P    166
.175265420711689D0,0.0D0,-1.0D0,0.0D0;                               199P    167
110,-1.99999999999999D0,1.5D0,.866025403784437D0,                    201P    168
-3.99999999999999D0,1.5D0,.866025403784437D0;                        201P    169
508,4,0,11,19,0,0,0,11,20,1,0,0,11,8,0,0,0,11,18,0,0;                203P    170
510,195,1,1,203;                                                     205P    171
116,-3.99999999999999D0,-2.83464701024044D-17,                       207P    172
1.73205080756888D0,0;                                                207P    173
123,3.54330876280056D-18,-.500000000000001D0,                        209P    174
-.866025403784438D0;                                                 209P    175
190,207,209,213;                                                     211P    176
123,-1.0D0,0.0D0,0.0D0;                                              213P    177
126,2,2,1,0,0,0,0.0D0,0.0D0,0.0D0,.175265420711689D0,                215P    178
.175265420711689D0,.175265420711689D0,1.0D0,1.15470053837925D0,      215P    179
1.0D0,-1.99999999999999D0,-5.56942050326872D-15,                     215P    180
1.73205080756888D0,-1.74999999999999D0,.75D0,1.29903810567666D0,     215P    181
-1.99999999999999D0,1.50000000000001D0,.866025403784433D0,0.0D0,     215P    182
.175265420711689D0,0.0D0,-.499999999999973D0,                        215P    183
-.866025403784454D0;                                                 215P    184
110,-3.99999999999999D0,-7.08661752560111D-18,                       217P    185
1.73205080756888D0,-1.99999999999999D0,7.08661752560112D-18,         217P    186
1.73205080756888D0;                                                  217P    187
508,4,0,11,21,0,0,0,11,22,0,0,0,11,9,0,0,0,11,20,0,0;                219P    188
510,211,1,1,219;                                                     221P    189
116,-3.99999999999999D0,-1.5D0,-.866025403784438D0,0;                223P    190
123,0.0D0,1.0D0,0.0D0;                                               225P    191
190,223,225,229;                                                     227P    192
123,0.0D0,0.0D0,1.0D0;                                               229P    193
126,2,2,1,0,0,0,0.0D0,0.0D0,0.0D0,.175265420711689D0,                231P    194
.175265420711689D0,.175265420711689D0,1.0D0,1.15470053837925D0,      231P    195
1.0D0,-1.99999999999999D0,-1.5D0,-.866025403784445D0,                231P    196
-1.74999999999999D0,-1.5D0,-2.43453147284649D-17,                    231P    197
-1.99999999999999D0,-1.5D0,.866025403784446D0,0.0D0,                 231P    198
.175265420711689D0,0.0D0,-1.0D0,0.0D0;                               231P    199
110,-1.99999999999999D0,-1.5D0,.866025403784438D0,                   233P    200
-3.99999999999999D0,-1.5D0,.866025403784438D0;                       233P    201
508,4,0,11,23,0,0,0,11,16,1,0,0,11,11,0,0,0,11,24,0,0;               235P    202
510,227,1,1,235;                                                     237P    203
116,-3.99999999999999D0,-1.5D0,.866025403784439D0,0;                 239P    204
123,-3.54330876280056D-18,.5D0,-.866025403784439D0;                  241P    205
190,239,241,245;                                                     243P    206
123,-1.0D0,0.0D0,0.0D0;                                              245P    207
126,2,2,1,0,0,0,0.0D0,0.0D0,0.0D0,.175265420711689D0,                247P    208
.175265420711689D0,.175265420711689D0,1.0D0,1.15470053837925D0,      247P    209
1.0D0,-1.99999999999999D0,-1.50000000000001D0,                       247P    210
.866025403784435D0,-1.74999999999999D0,-.750000000000001D0,          247P    211
1.29903810567666D0,-1.99999999999999D0,6.08792125529545D-15,         247P    212
1.73205080756888D0,0.0D0,.175265420711689D0,0.0D0,                   247P    213
.499999999999956D0,-.866025403784464D0;                              247P    214
508,4,0,11,25,0,0,0,11,24,1,0,0,11,10,0,0,0,11,22,1,0;               249P    215
510,243,1,1,249;                                                     251P    216
120,257,255,0.0D0,6.28318530717959D0;                                253P    217
110,-.999999999999993D0,-1.24015806698019D-16,0.0D0,                 255P    218
-2.04999999999999D0,1.81865334794732D0,0.0D0;                        255P    219
110,-.999999999999993D0,-1.24015806698019D-16,0.0D0,                 257P    220
-1.99999999999999D0,-1.24015806698019D-16,0.0D0;                     257P    221
508,6,0,11,21,1,0,0,11,19,1,0,0,11,17,1,0,0,11,14,1,0,0,11,23,1,     259P    222
0,0,11,25,1,0;                                                       259P    223
510,253,1,1,259;                                                     261P    224
514,15,27,1,45,1,63,1,81,1,93,1,115,1,141,1,155,1,173,1,189,1,       263P    225
205,1,221,1,237,1,251,1,261,1;                                       263P    226
186,263,1,0;                                                         265P    227
314,74.5000004768372D0,73.6999988555908D0,72.8999972343445D0,;       267P    228
S      1G      4D    268P    228                                        T      1
