                                                                        S      1
,,21HM8 TENSION THREAD.ipt,27HNo Iges File Name specified,22HAutodesk InG      1
ventor 2013,37HAutoDesk Inventor Iges Exporter R2013,32,38,6,99,15,21HM8G      2
 TENSION THREAD.ipt,1.0D0,1,2HIN,1,.08D0,15H20131210.105911,            G      3
3.93700787401575D-4,10000.0D0,8Hemployee,,11,0,,;                       G      4
     406       1       0       0       1       0       0       000000000D      1
     406       0       0       1       3                               0D      2
     116       2       0       0       0       0       0       000010000D      3
     116       0       0       1       0                               0D      4
     123       3       0       0       0       0       0       000010200D      5
     123       0       0       1       0                               0D      6
     192       4       0       0       0       0       0       000010000D      7
     192       0       0       1       1                               0D      8
     123       5       0       0       0       0       0       000010200D      9
     123       0       0       1       0                               0D     10
     504       6       0       0       0       0       0       000010001D     11
     504       0       0       1       1                               0D     12
     502       7       0       0       0       0       0       000010000D     13
     502       0       0       2       1                               0D     14
     100       9       0       0       0       0      17       000010000D     15
     100       0       0       2       0                               0D     16
     124      11       0       0       0       0       0       000000000D     17
     124       0       0       2       0                               0D     18
     508      13       0       0       0       0       0       000010000D     19
     508       0       0       1       1                               0D     20
     100      14       0       0       0       0      23       000010000D     21
     100       0       0       2       0                               0D     22
     124      16       0       0       0       0       0       000000000D     23
     124       0       0       2       0                               0D     24
     508      18       0       0       0       0       0       000010000D     25
     508       0       0       1       1                               0D     26
     510      19       0       0       0       0       0       000010000D     27
     510       0     -57       1       1                               0D     28
     116      20       0       0       0       0       0       000010000D     29
     116       0       0       1       0                               0D     30
     123      21       0       0       0       0       0       000010200D     31
     123       0       0       1       0                               0D     32
     190      22       0       0       0       0       0       000010000D     33
     190       0       0       1       1                               0D     34
     123      23       0       0       0       0       0       000010200D     35
     123       0       0       1       0                               0D     36
     508      24       0       0       0       0       0       000010000D     37
     508       0       0       1       1                               0D     38
     510      25       0       0       0       0       0       000010000D     39
     510       0     -57       1       1                               0D     40
     116      26       0       0       0       0       0       000010000D     41
     116       0       0       1       0                               0D     42
     123      27       0       0       0       0       0       000010200D     43
     123       0       0       1       0                               0D     44
     190      28       0       0       0       0       0       000010000D     45
     190       0       0       1       1                               0D     46
     123      29       0       0       0       0       0       000010200D     47
     123       0       0       1       0                               0D     48
     508      30       0       0       0       0       0       000010000D     49
     508       0       0       1       1                               0D     50
     510      31       0       0       0       0       0       000010000D     51
     510       0     -57       1       1                               0D     52
     514      32       0       0       0       0       0       000010000D     53
     514       0       0       1       1                               0D     54
     186      33       0       0       1       0       0       000000000D     55
     186       0       0       1       0                  Solid1       0D     56
     314      34       0       0       0       0       0       000000000D     57
     314       0       8       1       0                               0D     58
406,2,0,17HM8 TENSION THREAD;                                          1P      1
116,0.0D0,0.0D0,0.0D0,0;                                               3P      2
123,0.0D0,0.0D0,1.0D0;                                                 5P      3
192,3,5,.15748031496063D0,9;                                           7P      4
123,-1.0D0,0.0D0,0.0D0;                                                9P      5
504,2,15,13,1,13,1,21,13,2,13,2;                                      11P      6
502,2,.15748031496063D0,1.92857763645252D-17,27.755905511811D0,       13P      7
.15748031496063D0,1.92857763645252D-17,0.0D0;                         13P      8
100,0.0D0,0.0D0,0.0D0,-.15748031496063D0,1.92857763645252D-17,        15P      9
-.15748031496063D0,1.92857763645252D-17;                              15P     10
124,-1.0D0,0.0D0,0.0D0,0.0D0,0.0D0,-1.0D0,0.0D0,0.0D0,0.0D0,          17P     11
0.0D0,1.0D0,27.755905511811D0;                                        17P     12
508,1,0,11,1,0,0;                                                     19P     13
100,0.0D0,0.0D0,0.0D0,-.15748031496063D0,1.92857763645252D-17,        21P     14
-.15748031496063D0,1.92857763645252D-17;                              21P     15
124,-1.0D0,0.0D0,0.0D0,0.0D0,0.0D0,1.0D0,0.0D0,0.0D0,0.0D0,           23P     16
0.0D0,-1.0D0,0.0D0;                                                   23P     17
508,1,0,11,2,0,0;                                                     25P     18
510,7,2,1,19,25;                                                      27P     19
116,-1.0713308009258D-17,0.0D0,27.755905511811D0,0;                   29P     20
123,0.0D0,0.0D0,1.0D0;                                                31P     21
190,29,31,35;                                                         33P     22
123,1.0D0,0.0D0,0.0D0;                                                35P     23
508,1,0,11,1,1,0;                                                     37P     24
510,33,1,1,37;                                                        39P     25
116,-1.0713308009258D-17,0.0D0,0.0D0,0;                               41P     26
123,0.0D0,0.0D0,-1.0D0;                                               43P     27
190,41,43,47;                                                         45P     28
123,-1.0D0,0.0D0,0.0D0;                                               47P     29
508,1,0,11,2,1,0;                                                     49P     30
510,45,1,1,49;                                                        51P     31
514,3,27,1,39,1,51,1;                                                 53P     32
186,53,1,0;                                                           55P     33
314,75.0D0,75.0D0,75.0D0,;                                            57P     34
S      1G      4D     58P     34                                        T      1
