                                                                        S      1
,,9HM8x35.ipt,27HNo Iges File Name specified,22HAutodesk Inventor 2013, G      1
37HAutoDesk Inventor Iges Exporter R2013,32,38,6,99,15,9HM8x35.ipt,     G      2
1.0D0,2,2HMM,1,.08D0,15H20131210.105913,.01D0,10000.0D0,8Hemployee,,11, G      3
0,,;                                                                    G      4
     406       1       0       0       1       0       0       000000000D      1
     406       0       0       1       3                               0D      2
     120       2       0       0       0       0       0       000010000D      3
     120       0       0       1       0                               0D      4
     100       3       0       0       0       0       7       000010000D      5
     100       0       0       1       0                               0D      6
     124       4       0       0       0       0       0       000000000D      7
     124       0       0       2       0                               0D      8
     110       6       0       0       0       0       0       001010000D      9
     110       0       0       2       0                               0D     10
     504       8       0       0       0       0       0       000010001D     11
     504       0       0       9       1                               0D     12
     502      17       0       0       0       0       0       000010000D     13
     502       0       0      19       1                               0D     14
     100      36       0       0       0       0      17       000010000D     15
     100       0       0       2       0                               0D     16
     124      38       0       0       0       0       0       000000000D     17
     124       0       0       2       0                               0D     18
     508      40       0       0       0       0       0       000010000D     19
     508       0       0       1       1                               0D     20
     100      41       0       0       0       0      23       000010000D     21
     100       0       0       2       0                               0D     22
     124      43       0       0       0       0       0       000000000D     23
     124       0       0       2       0                               0D     24
     508      45       0       0       0       0       0       000010000D     25
     508       0       0       1       1                               0D     26
     510      46       0       0       0       0       0       000010000D     27
     510       0    -313       1       1                               0D     28
     116      47       0       0       0       0       0       000010000D     29
     116       0       0       1       0                               0D     30
     123      48       0       0       0       0       0       000010200D     31
     123       0       0       1       0                               0D     32
     192      49       0       0       0       0       0       000010000D     33
     192       0       0       1       1                               0D     34
     123      50       0       0       0       0       0       000010200D     35
     123       0       0       1       0                               0D     36
     100      51       0       0       0       0      39       000010000D     37
     100       0       0       2       0                               0D     38
     124      53       0       0       0       0       0       000000000D     39
     124       0       0       2       0                               0D     40
     508      55       0       0       0       0       0       000010000D     41
     508       0       0       1       1                               0D     42
     508      56       0       0       0       0       0       000010000D     43
     508       0       0       1       1                               0D     44
     510      57       0       0       0       0       0       000010000D     45
     510       0    -313       1       1                               0D     46
     116      58       0       0       0       0       0       000010000D     47
     116       0       0       1       0                               0D     48
     123      59       0       0       0       0       0       000010200D     49
     123       0       0       1       0                               0D     50
     190      60       0       0       0       0       0       000010000D     51
     190       0       0       1       1                               0D     52
     123      61       0       0       0       0       0       000010200D     53
     123       0       0       1       0                               0D     54
     110      62       0       0       0       0       0       000010000D     55
     110       0       0       3       0                               0D     56
     110      65       0       0       0       0       0       000010000D     57
     110       0       0       2       0                               0D     58
     110      67       0       0       0       0       0       000010000D     59
     110       0       0       2       0                               0D     60
     110      69       0       0       0       0       0       000010000D     61
     110       0       0       3       0                               0D     62
     110      72       0       0       0       0       0       000010000D     63
     110       0       0       2       0                               0D     64
     110      74       0       0       0       0       0       000010000D     65
     110       0       0       3       0                               0D     66
     508      77       0       0       0       0       0       000010000D     67
     508       0       0       2       1                               0D     68
     508      79       0       0       0       0       0       000010000D     69
     508       0       0       1       1                               0D     70
     510      80       0       0       0       0       0       000010000D     71
     510       0    -313       1       1                               0D     72
     116      81       0       0       0       0       0       000010000D     73
     116       0       0       1       0                               0D     74
     123      82       0       0       0       0       0       000010200D     75
     123       0       0       1       0                               0D     76
     194      83       0       0       0       0       0       000010000D     77
     194       0       0       1       1                               0D     78
     123      84       0       0       0       0       0       000010200D     79
     123       0       0       1       0                               0D     80
     508      85       0       0       0       0       0       000010000D     81
     508       0       0       1       1                               0D     82
     100      86       0       0       0       0      85       000010000D     83
     100       0       0       2       0                               0D     84
     124      88       0       0       0       0       0       000000000D     85
     124       0       0       2       0                               0D     86
     508      90       0       0       0       0       0       000010000D     87
     508       0       0       1       1                               0D     88
     510      91       0       0       0       0       0       000010000D     89
     510       0    -313       1       1                               0D     90
     116      92       0       0       0       0       0       000010000D     91
     116       0       0       1       0                               0D     92
     123      93       0       0       0       0       0       000010200D     93
     123       0       0       1       0                               0D     94
     190      94       0       0       0       0       0       000010000D     95
     190       0       0       1       1                               0D     96
     123      95       0       0       0       0       0       000010200D     97
     123       0       0       1       0                               0D     98
     508      96       0       0       0       0       0       000010000D     99
     508       0       0       1       1                               0D    100
     510      97       0       0       0       0       0       000010000D    101
     510       0    -313       1       1                               0D    102
     116      98       0       0       0       0       0       000010000D    103
     116       0       0       1       0                               0D    104
     123      99       0       0       0       0       0       000010200D    105
     123       0       0       1       0                               0D    106
     194     100       0       0       0       0       0       000010000D    107
     194       0       0       1       1                               0D    108
     123     101       0       0       0       0       0       000010200D    109
     123       0       0       1       0                               0D    110
     126     102       0       0       0       0       0       000010000D    111
     126       0       0       8       0                               0D    112
     126     110       0       0       0       0       0       000010000D    113
     126       0       0       8       0                               0D    114
     100     118       0       0       0       0     117       000010000D    115
     100       0       0       2       0                               0D    116
     124     120       0       0       0       0       0       000000000D    117
     124       0       0       2       0                               0D    118
     508     122       0       0       0       0       0       000010000D    119
     508       0       0       1       1                               0D    120
     510     123       0       0       0       0       0       000010000D    121
     510       0    -313       1       1                               0D    122
     116     124       0       0       0       0       0       000010000D    123
     116       0       0       1       0                               0D    124
     123     125       0       0       0       0       0       000010200D    125
     123       0       0       1       0                               0D    126
     194     126       0       0       0       0       0       000010000D    127
     194       0       0       1       1                               0D    128
     123     127       0       0       0       0       0       000010200D    129
     123       0       0       1       0                               0D    130
     126     128       0       0       0       0       0       000010000D    131
     126       0       0       7       0                               0D    132
     126     135       0       0       0       0       0       000010000D    133
     126       0       0       7       0                               0D    134
     100     142       0       0       0       0     117       000010000D    135
     100       0       0       2       0                               0D    136
     508     144       0       0       0       0       0       000010000D    137
     508       0       0       1       1                               0D    138
     510     145       0       0       0       0       0       000010000D    139
     510       0    -313       1       1                               0D    140
     116     146       0       0       0       0       0       000010000D    141
     116       0       0       1       0                               0D    142
     123     147       0       0       0       0       0       000010200D    143
     123       0       0       1       0                               0D    144
     194     148       0       0       0       0       0       000010000D    145
     194       0       0       1       1                               0D    146
     123     149       0       0       0       0       0       000010200D    147
     123       0       0       1       0                               0D    148
     126     150       0       0       0       0       0       000010000D    149
     126       0       0       8       0                               0D    150
     126     158       0       0       0       0       0       000010000D    151
     126       0       0       7       0                               0D    152
     100     165       0       0       0       0     117       000010000D    153
     100       0       0       2       0                               0D    154
     508     167       0       0       0       0       0       000010000D    155
     508       0       0       1       1                               0D    156
     510     168       0       0       0       0       0       000010000D    157
     510       0    -313       1       1                               0D    158
     116     169       0       0       0       0       0       000010000D    159
     116       0       0       1       0                               0D    160
     123     170       0       0       0       0       0       000010200D    161
     123       0       0       1       0                               0D    162
     194     171       0       0       0       0       0       000010000D    163
     194       0       0       1       1                               0D    164
     123     172       0       0       0       0       0       000010200D    165
     123       0       0       1       0                               0D    166
     126     173       0       0       0       0       0       000010000D    167
     126       0       0       8       0                               0D    168
     100     181       0       0       0       0     117       000010000D    169
     100       0       0       2       0                               0D    170
     126     183       0       0       0       0       0       000010000D    171
     126       0       0       8       0                               0D    172
     508     191       0       0       0       0       0       000010000D    173
     508       0       0       1       1                               0D    174
     510     192       0       0       0       0       0       000010000D    175
     510       0    -313       1       1                               0D    176
     116     193       0       0       0       0       0       000010000D    177
     116       0       0       1       0                               0D    178
     123     194       0       0       0       0       0       000010200D    179
     123       0       0       1       0                               0D    180
     194     195       0       0       0       0       0       000010000D    181
     194       0       0       1       1                               0D    182
     123     196       0       0       0       0       0       000010200D    183
     123       0       0       1       0                               0D    184
     126     197       0       0       0       0       0       000010000D    185
     126       0       0       8       0                               0D    186
     100     205       0       0       0       0     117       000010000D    187
     100       0       0       2       0                               0D    188
     126     207       0       0       0       0       0       000010000D    189
     126       0       0       7       0                               0D    190
     508     214       0       0       0       0       0       000010000D    191
     508       0       0       1       1                               0D    192
     510     215       0       0       0       0       0       000010000D    193
     510       0    -313       1       1                               0D    194
     116     216       0       0       0       0       0       000010000D    195
     116       0       0       1       0                               0D    196
     123     217       0       0       0       0       0       000010200D    197
     123       0       0       1       0                               0D    198
     194     218       0       0       0       0       0       000010000D    199
     194       0       0       1       1                               0D    200
     123     219       0       0       0       0       0       000010200D    201
     123       0       0       1       0                               0D    202
     126     220       0       0       0       0       0       000010000D    203
     126       0       0       7       0                               0D    204
     100     227       0       0       0       0     117       000010000D    205
     100       0       0       2       0                               0D    206
     126     229       0       0       0       0       0       000010000D    207
     126       0       0       8       0                               0D    208
     508     237       0       0       0       0       0       000010000D    209
     508       0       0       1       1                               0D    210
     510     238       0       0       0       0       0       000010000D    211
     510       0    -313       1       1                               0D    212
     116     239       0       0       0       0       0       000010000D    213
     116       0       0       2       0                               0D    214
     123     241       0       0       0       0       0       000010200D    215
     123       0       0       1       0                               0D    216
     190     242       0       0       0       0       0       000010000D    217
     190       0       0       1       1                               0D    218
     123     243       0       0       0       0       0       000010200D    219
     123       0       0       1       0                               0D    220
     110     244       0       0       0       0       0       000010000D    221
     110       0       0       3       0                               0D    222
     110     247       0       0       0       0       0       000010000D    223
     110       0       0       2       0                               0D    224
     508     249       0       0       0       0       0       000010000D    225
     508       0       0       2       1                               0D    226
     510     251       0       0       0       0       0       000010000D    227
     510       0    -313       1       1                               0D    228
     116     252       0       0       0       0       0       000010000D    229
     116       0       0       2       0                               0D    230
     123     254       0       0       0       0       0       000010200D    231
     123       0       0       1       0                               0D    232
     190     255       0       0       0       0       0       000010000D    233
     190       0       0       1       1                               0D    234
     123     256       0       0       0       0       0       000010200D    235
     123       0       0       1       0                               0D    236
     110     257       0       0       0       0       0       000010000D    237
     110       0       0       2       0                               0D    238
     508     259       0       0       0       0       0       000010000D    239
     508       0       0       2       1                               0D    240
     510     261       0       0       0       0       0       000010000D    241
     510       0    -313       1       1                               0D    242
     116     262       0       0       0       0       0       000010000D    243
     116       0       0       1       0                               0D    244
     123     263       0       0       0       0       0       000010200D    245
     123       0       0       1       0                               0D    246
     190     264       0       0       0       0       0       000010000D    247
     190       0       0       1       1                               0D    248
     123     265       0       0       0       0       0       000010200D    249
     123       0       0       1       0                               0D    250
     110     266       0       0       0       0       0       000010000D    251
     110       0       0       3       0                               0D    252
     508     269       0       0       0       0       0       000010000D    253
     508       0       0       2       1                               0D    254
     510     271       0       0       0       0       0       000010000D    255
     510       0    -313       1       1                               0D    256
     116     272       0       0       0       0       0       000010000D    257
     116       0       0       1       0                               0D    258
     123     273       0       0       0       0       0       000010200D    259
     123       0       0       1       0                               0D    260
     190     274       0       0       0       0       0       000010000D    261
     190       0       0       1       1                               0D    262
     123     275       0       0       0       0       0       000010200D    263
     123       0       0       1       0                               0D    264
     110     276       0       0       0       0       0       000010000D    265
     110       0       0       2       0                               0D    266
     508     278       0       0       0       0       0       000010000D    267
     508       0       0       2       1                               0D    268
     510     280       0       0       0       0       0       000010000D    269
     510       0    -313       1       1                               0D    270
     116     281       0       0       0       0       0       000010000D    271
     116       0       0       2       0                               0D    272
     123     283       0       0       0       0       0       000010200D    273
     123       0       0       1       0                               0D    274
     190     284       0       0       0       0       0       000010000D    275
     190       0       0       1       1                               0D    276
     123     285       0       0       0       0       0       000010200D    277
     123       0       0       1       0                               0D    278
     110     286       0       0       0       0       0       000010000D    279
     110       0       0       3       0                               0D    280
     508     289       0       0       0       0       0       000010000D    281
     508       0       0       2       1                               0D    282
     510     291       0       0       0       0       0       000010000D    283
     510       0    -313       1       1                               0D    284
     116     292       0       0       0       0       0       000010000D    285
     116       0       0       2       0                               0D    286
     123     294       0       0       0       0       0       000010200D    287
     123       0       0       1       0                               0D    288
     190     295       0       0       0       0       0       000010000D    289
     190       0       0       1       1                               0D    290
     123     296       0       0       0       0       0       000010200D    291
     123       0       0       1       0                               0D    292
     508     297       0       0       0       0       0       000010000D    293
     508       0       0       2       1                               0D    294
     510     299       0       0       0       0       0       000010000D    295
     510       0    -313       1       1                               0D    296
     116     300       0       0       0       0       0       000010000D    297
     116       0       0       1       0                               0D    298
     123     301       0       0       0       0       0       000010200D    299
     123       0       0       1       0                               0D    300
     190     302       0       0       0       0       0       000010000D    301
     190       0       0       1       1                               0D    302
     123     303       0       0       0       0       0       000010200D    303
     123       0       0       1       0                               0D    304
     508     304       0       0       0       0       0       000010000D    305
     508       0       0       2       1                               0D    306
     510     306       0       0       0       0       0       000010000D    307
     510       0    -313       1       1                               0D    308
     514     307       0       0       0       0       0       000010000D    309
     514       0       0       2       1                               0D    310
     186     309       0       0       1       0       0       000000000D    311
     186       0       0       1       0                  Solid1       0D    312
     314     310       0       0       0       0       0       000000000D    313
     314       0       8       1       0                               0D    314
406,2,0,5HM8x35;                                                       1P      1
120,9,5,0.0D0,6.28318530717959D0;                                      3P      2
100,0.0D0,0.0D0,0.0D0,.1D0,0.0D0,.1D0,0.0D0;                           5P      3
124,0.0D0,-1.0D0,0.0D0,.1D0,0.0D0,0.0D0,1.0D0,                         7P      4
6.34413156928668D-18,-1.0D0,0.0D0,0.0D0,-4.1D0;                        7P      5
110,.1D0,6.34413156928668D-18,0.0D0,-.9D0,6.34413156928668D-18,        9P      6
0.0D0;                                                                 9P      7
504,34,15,13,1,13,1,21,13,2,13,2,37,13,3,13,3,55,13,4,13,5,57,        11P      8
13,5,13,6,59,13,6,13,7,61,13,7,13,8,63,13,8,13,9,65,13,9,13,4,        11P      9
83,13,10,13,10,111,13,11,13,12,113,13,13,13,11,115,13,12,13,13,       11P     10
131,13,14,13,15,133,13,12,13,14,135,13,15,13,12,149,13,16,13,17,      11P     11
151,13,15,13,16,153,13,17,13,15,167,13,17,13,18,169,13,19,13,17,      11P     12
171,13,18,13,19,185,13,19,13,20,187,13,21,13,19,189,13,20,13,21,      11P     13
203,13,21,13,22,205,13,13,13,21,207,13,22,13,13,221,13,7,13,18,       11P     14
223,13,6,13,16,237,13,8,13,20,251,13,9,13,22,265,13,5,13,14,279,      11P     15
13,4,13,11;                                                           11P     16
502,22,-3.46845568139591D-16,4.1D0,0.0D0,9.99999999999998D-2,         13P     17
4.0D0,-9.79717439317883D-16,34.2330875D0,4.0D0,                       13P     18
4.89858719658941D-16,-5.69715981470055D-16,7.50555349946513D0,        13P     19
7.07767178198537D-15,-3.31634886965423D-16,3.75277674973256D0,        13P     20
6.5D0,1.4452730204384D-16,-3.75277674973257D0,                        13P     21
6.49999999999999D0,3.82608396548472D-16,-7.50555349946513D0,          13P     22
-3.7470027081099D-15,1.4452730204384D-16,-3.75277674973256D0,         13P     23
-6.5D0,-3.31634886965423D-16,3.75277674973257D0,                      13P     24
-6.49999999999999D0,35.0D0,3.2331875D0,-3.95951272291824D-16,         13P     25
-5.09944341639924D0,7.50555349946513D0,7.07767178198537D-15,          13P     26
-5.68D0,5.62916512459885D0,3.25D0,-5.68D0,5.62916512459885D0,         13P     27
-3.24999999999999D0,-5.09944341639924D0,3.75277674973256D0,           13P     28
6.5D0,-5.68D0,-2.30486303124328D-15,6.5D0,-5.09944341639924D0,        13P     29
-3.75277674973257D0,6.49999999999999D0,-5.68000000000001D0,           13P     30
-5.62916512459885D0,3.25D0,-5.09944341639924D0,                       13P     31
-7.50555349946513D0,-3.7470027081099D-15,-5.68000000000001D0,         13P     32
-5.62916512459885D0,-3.25D0,-5.09944341639924D0,                      13P     33
-3.75277674973256D0,-6.5D0,-5.68D0,5.18914238497653D-15,-6.5D0,       13P     34
-5.09944341639924D0,3.75277674973257D0,-6.49999999999999D0;           13P     35
100,0.0D0,0.0D0,0.0D0,-4.1D0,5.02105187650415D-16,-4.1D0,             15P     36
5.02105187650415D-16;                                                 15P     37
124,0.0D0,0.0D0,1.0D0,-8.67361737988404D-17,-1.0D0,0.0D0,0.0D0,       17P     38
6.45186531369724D-32,0.0D0,-1.0D0,0.0D0,9.86551547987654D-35;         17P     39
508,1,0,11,1,1,0;                                                     19P     40
100,0.0D0,0.0D0,0.0D0,-4.0D0,4.89858719658941D-16,-4.0D0,             21P     41
4.89858719658941D-16;                                                 21P     42
124,0.0D0,0.0D0,-1.0D0,.1D0,-1.0D0,0.0D0,0.0D0,                       23P     43
6.34413156928668D-18,0.0D0,1.0D0,0.0D0,0.0D0;                         23P     44
508,1,0,11,2,1,0;                                                     25P     45
510,3,2,1,19,25;                                                      27P     46
116,17.5D0,1.11022302462516D-15,0.0D0,0;                              29P     47
123,1.0D0,6.34413156928661D-17,0.0D0;                                 31P     48
192,29,31,4.0D0,35;                                                   33P     49
123,0.0D0,1.0D0,0.0D0;                                                35P     50
100,0.0D0,0.0D0,0.0D0,-4.0D0,4.89858719658941D-16,-4.0D0,             37P     51
4.89858719658941D-16;                                                 37P     52
124,0.0D0,0.0D0,1.0D0,34.2330875D0,-1.0D0,0.0D0,0.0D0,                39P     53
2.17179211122901D-15,0.0D0,-1.0D0,0.0D0,0.0D0;                        39P     54
508,1,0,11,3,0,0;                                                     41P     55
508,1,0,11,2,0,0;                                                     43P     56
510,33,2,1,41,43;                                                     45P     57
116,-9.35537924607914D-17,0.0D0,4.85722573273506D-16,0;               47P     58
123,1.0D0,0.0D0,0.0D0;                                                49P     59
190,47,49,53;                                                         51P     60
123,0.0D0,0.0D0,-1.0D0;                                               53P     61
110,-5.69715981470055D-16,7.50555349946513D0,                         55P     62
7.07767178198537D-15,-3.31634886965423D-16,3.75277674973256D0,        55P     63
6.5D0;                                                                55P     64
110,-3.31634886965423D-16,3.75277674973256D0,6.5D0,                   57P     65
1.4452730204384D-16,-3.75277674973257D0,6.49999999999999D0;           57P     66
110,1.4452730204384D-16,-3.75277674973257D0,6.49999999999999D0,       59P     67
3.82608396548472D-16,-7.50555349946513D0,-3.5527136788005D-15;        59P     68
110,3.82608396548472D-16,-7.50555349946513D0,                         61P     69
-3.7470027081099D-15,1.4452730204384D-16,-3.75277674973256D0,         61P     70
-6.5D0;                                                               61P     71
110,1.4452730204384D-16,-3.75277674973256D0,-6.5D0,                   63P     72
-3.31634886965423D-16,3.75277674973257D0,-6.49999999999999D0;         63P     73
110,-3.31634886965423D-16,3.75277674973257D0,                         65P     74
-6.49999999999999D0,-5.69715981470055D-16,7.50555349946513D0,         65P     75
7.105427357601D-15;                                                   65P     76
508,6,0,11,4,1,0,0,11,5,1,0,0,11,6,1,0,0,11,7,1,0,0,11,8,1,0,0,       67P     77
11,9,1,0;                                                             67P     78
508,1,0,11,1,0,0;                                                     69P     79
510,51,2,1,67,69;                                                     71P     80
116,34.61654375D0,2.19611908023966D-15,0.0D0,0;                       73P     81
123,-1.0D0,-6.34413156928661D-17,0.0D0;                               75P     82
194,73,75,3.61659375D0,44.9962642729672D0,79;                         77P     83
123,0.0D0,-1.0D0,0.0D0;                                               79P     84
508,1,0,11,3,1,0;                                                     81P     85
100,0.0D0,0.0D0,0.0D0,-3.2331875D0,3.95951272291824D-16,              83P     86
-3.2331875D0,3.95951272291824D-16;                                    83P     87
124,0.0D0,0.0D0,-1.0D0,35.0D0,-1.0D0,0.0D0,0.0D0,                     85P     88
2.22044604925031D-15,0.0D0,1.0D0,0.0D0,0.0D0;                         85P     89
508,1,0,11,10,1,0;                                                    87P     90
510,77,2,1,81,87;                                                     89P     91
116,35.0D0,2.0D0,0.0D0,0;                                             91P     92
123,1.0D0,0.0D0,0.0D0;                                                93P     93
190,91,93,97;                                                         95P     94
123,0.0D0,0.0D0,-1.0D0;                                               97P     95
508,1,0,11,10,0,0;                                                    99P     96
510,95,1,1,99;                                                       101P     97
116,-5.30472232502675D0,2.24726821015436D-15,0.0D0,0;                103P     98
123,1.0D0,-4.43182806627459D-16,0.0D0;                               105P     99
194,103,105,7.15D0,60.0000000000001D0,109;                           107P    100
123,0.0D0,1.0D0,0.0D0;                                               109P    101
126,2,2,1,0,0,0,5.09747029591927D-2,5.09747029591927D-2,             111P    102
5.09747029591927D-2,.439000868202294D0,.439000868202294D0,           111P    103
.439000868202294D0,1.01001874935741D0,1.04314139574019D0,1.0D0,      111P    104
-5.09944341639924D0,7.50555349946513D0,7.07767178198537D-15,         111P    105
-5.68D0,6.49999999999999D0,1.74166975080231D0,-5.68D0,               111P    106
5.62916512459885D0,3.25D0,5.09747029591927D-2,                       111P    107
.439000868202294D0,-4.97542901619973D-13,-.866025403782751D0,        111P    108
-.500000000002923D0;                                                 111P    109
126,2,2,1,0,0,0,.439000868202294D0,.439000868202294D0,               113P    110
.439000868202294D0,.827027033445395D0,.827027033445395D0,            113P    111
.827027033445395D0,1.0D0,1.04314139574018D0,1.0100187493574D0,       113P    112
-5.68D0,5.62916512459885D0,-3.24999999999999D0,-5.68D0,              113P    113
6.49999999999999D0,-1.7416697508023D0,-5.09944341639924D0,           113P    114
7.50555349946513D0,7.07767178198537D-15,.439000868202294D0,          113P    115
.827027033445395D0,-2.24696794280163D-13,-.866025403783637D0,        113P    116
.500000000001388D0;                                                  113P    117
100,0.0D0,0.0D0,0.0D0,5.62916512459885D0,-3.25000000000001D0,        115P    118
5.62916512459886D0,3.25D0;                                           115P    119
124,0.0D0,0.0D0,-1.0D0,-5.68D0,1.0D0,0.0D0,0.0D0,                    117P    120
2.41358482341363D-15,0.0D0,-1.0D0,0.0D0,0.0D0;                       117P    121
508,3,0,11,11,0,0,0,11,12,0,0,0,11,13,0,0;                           119P    122
510,107,1,1,119;                                                     121P    123
116,-5.30472232502675D0,2.24726821015436D-15,0.0D0,0;                123P    124
123,1.0D0,-4.43182806627459D-16,0.0D0;                               125P    125
194,123,125,7.15D0,60.0000000000001D0,129;                           127P    126
123,0.0D0,1.0D0,0.0D0;                                               129P    127
126,2,2,1,0,0,0,5.09747029591945D-2,5.09747029591945D-2,             131P    128
5.09747029591945D-2,.439000868202295D0,.439000868202295D0,           131P    129
.439000868202295D0,1.0100187493574D0,1.04314139574018D0,1.0D0,       131P    130
-5.09944341639924D0,3.75277674973256D0,6.5D0,                        131P    131
-5.68000000000001D0,1.74166975080228D0,6.5D0,-5.68D0,                131P    132
-2.30486303124328D-15,6.5D0,5.09747029591945D-2,                     131P    133
.439000868202295D0,0.0D0,0.0D0,1.0D0;                                131P    134
126,2,2,1,0,0,0,.439000868202294D0,.439000868202294D0,               133P    135
.439000868202294D0,.827027033445394D0,.827027033445394D0,            133P    136
.827027033445394D0,1.0D0,1.04314139574016D0,1.0100187493574D0,       133P    137
-5.68D0,5.62916512459885D0,3.25D0,-5.68D0,4.75833024919771D0,        133P    138
4.75833024919768D0,-5.09944341639924D0,3.75277674973256D0,6.5D0,     133P    139
.439000868202294D0,.827027033445394D0,0.0D0,-.866025403785396D0,     133P    140
-.499999999998341D0;                                                 133P    141
100,0.0D0,0.0D0,0.0D0,-6.96719035721949D-15,-6.50000000000001D0,     135P    142
5.62916512459885D0,-3.25000000000001D0;                              135P    143
508,3,0,11,14,0,0,0,11,15,0,0,0,11,16,0,0;                           137P    144
510,127,1,1,137;                                                     139P    145
116,-5.30472232502675D0,2.24726821015436D-15,0.0D0,0;                141P    146
123,1.0D0,-4.43182806627459D-16,0.0D0;                               143P    147
194,141,143,7.15D0,60.0000000000001D0,147;                           145P    148
123,0.0D0,1.0D0,0.0D0;                                               147P    149
126,2,2,1,0,0,0,5.09747029591935D-2,5.09747029591935D-2,             149P    150
5.09747029591935D-2,.439000868202295D0,.439000868202295D0,           149P    151
.439000868202295D0,1.01001874935741D0,1.04314139574019D0,1.0D0,      149P    152
-5.09944341639924D0,-3.75277674973257D0,6.49999999999999D0,          149P    153
-5.68000000000001D0,-4.75833024919771D0,4.75833024919768D0,          149P    154
-5.68000000000001D0,-5.62916512459885D0,3.25D0,                      149P    155
5.09747029591935D-2,.439000868202295D0,-3.2741532880892D-12,         149P    156
-.866025403783981D0,.500000000000793D0;                              149P    157
126,2,2,1,0,0,0,.439000868202295D0,.439000868202295D0,               151P    158
.439000868202295D0,.827027033445395D0,.827027033445395D0,            151P    159
.827027033445395D0,1.0D0,1.04314139574016D0,1.0100187493574D0,       151P    160
-5.68D0,-2.30486303124328D-15,6.5D0,-5.68000000000001D0,             151P    161
-1.74166975080228D0,6.5D0,-5.09944341639924D0,                       151P    162
-3.75277674973257D0,6.49999999999999D0,.439000868202295D0,           151P    163
.827027033445395D0,0.0D0,0.0D0,1.0D0;                                151P    164
100,0.0D0,0.0D0,0.0D0,-5.62916512459886D0,-3.25D0,                   153P    165
-6.96719035721949D-15,-6.50000000000001D0;                           153P    166
508,3,0,11,17,0,0,0,11,18,0,0,0,11,19,0,0;                           155P    167
510,145,1,1,155;                                                     157P    168
116,-5.30472232502675D0,2.24726821015436D-15,0.0D0,0;                159P    169
123,1.0D0,-4.43182806627459D-16,0.0D0;                               161P    170
194,159,161,7.15D0,60.0000000000001D0,165;                           163P    171
123,0.0D0,1.0D0,0.0D0;                                               165P    172
126,2,2,1,0,0,0,.439000868202295D0,.439000868202295D0,               167P    173
.439000868202295D0,.827027033445396D0,.827027033445396D0,            167P    174
.827027033445396D0,1.0D0,1.04314139574018D0,1.0100187493574D0,       167P    175
-5.68000000000001D0,-5.62916512459885D0,3.25D0,                      167P    176
-5.68000000000001D0,-6.49999999999999D0,1.74166975080231D0,          167P    177
-5.09944341639924D0,-7.50555349946513D0,-3.7470027081099D-15,        167P    178
.439000868202295D0,.827027033445396D0,0.0D0,-.866025403784916D0,     167P    179
.499999999999173D0;                                                  167P    180
100,0.0D0,0.0D0,0.0D0,-5.62916512459886D0,3.25000000000001D0,        169P    181
-5.62916512459886D0,-3.25D0;                                         169P    182
126,2,2,1,0,0,0,5.09747029591948D-2,5.09747029591948D-2,             171P    183
5.09747029591948D-2,.439000868202295D0,.439000868202295D0,           171P    184
.439000868202295D0,1.0100187493574D0,1.04314139574017D0,1.0D0,       171P    185
-5.09944341639924D0,-7.50555349946513D0,-3.7470027081099D-15,        171P    186
-5.68000000000001D0,-6.49999999999999D0,-1.74166975080231D0,         171P    187
-5.68000000000001D0,-5.62916512459885D0,-3.25D0,                     171P    188
5.09747029591948D-2,.439000868202295D0,1.92597252240083D-13,         171P    189
-.866025403784455D0,-.499999999999971D0;                             171P    190
508,3,0,11,20,0,0,0,11,21,0,0,0,11,22,0,0;                           173P    191
510,163,1,1,173;                                                     175P    192
116,-5.30472232502675D0,2.24726821015436D-15,0.0D0,0;                177P    193
123,1.0D0,-4.43182806627459D-16,0.0D0;                               179P    194
194,177,179,7.15D0,60.0000000000001D0,183;                           181P    195
123,0.0D0,1.0D0,0.0D0;                                               183P    196
126,2,2,1,0,0,0,.439000868202295D0,.439000868202295D0,               185P    197
.439000868202295D0,.827027033445395D0,.827027033445395D0,            185P    198
.827027033445395D0,1.0D0,1.04314139574017D0,1.0100187493574D0,       185P    199
-5.68000000000001D0,-5.62916512459885D0,-3.25D0,                     185P    200
-5.68000000000001D0,-4.7583302491977D0,-4.7583302491977D0,           185P    201
-5.09944341639924D0,-3.75277674973256D0,-6.5D0,                      185P    202
.439000868202295D0,.827027033445395D0,6.41990840800703D-13,          185P    203
-.866025403782688D0,-.500000000003032D0;                             185P    204
100,0.0D0,0.0D0,0.0D0,3.2845900737483D-15,6.50000000000001D0,        187P    205
-5.62916512459886D0,3.25000000000001D0;                              187P    206
126,2,2,1,0,0,0,5.09747029591946D-2,5.09747029591946D-2,             189P    207
5.09747029591946D-2,.439000868202295D0,.439000868202295D0,           189P    208
.439000868202295D0,1.0100187493574D0,1.04314139574016D0,1.0D0,       189P    209
-5.09944341639924D0,-3.75277674973256D0,-6.5D0,                      189P    210
-5.68000000000001D0,-1.74166975080227D0,-6.5D0,-5.68D0,              189P    211
5.18914238497653D-15,-6.5D0,5.09747029591946D-2,                     189P    212
.439000868202295D0,0.0D0,0.0D0,1.0D0;                                189P    213
508,3,0,11,23,0,0,0,11,24,0,0,0,11,25,0,0;                           191P    214
510,181,1,1,191;                                                     193P    215
116,-5.30472232502675D0,2.24726821015436D-15,0.0D0,0;                195P    216
123,1.0D0,-4.43182806627459D-16,0.0D0;                               197P    217
194,195,197,7.15D0,60.0000000000001D0,201;                           199P    218
123,0.0D0,1.0D0,0.0D0;                                               201P    219
126,2,2,1,0,0,0,.439000868202295D0,.439000868202295D0,               203P    220
.439000868202295D0,.827027033445396D0,.827027033445396D0,            203P    221
.827027033445396D0,1.0D0,1.0431413957402D0,1.01001874935741D0,       203P    222
-5.68D0,5.18914238497653D-15,-6.5D0,-5.68D0,1.74166975080229D0,      203P    223
-6.49999999999999D0,-5.09944341639924D0,3.75277674973257D0,          203P    224
-6.49999999999999D0,.439000868202295D0,.827027033445396D0,0.0D0,     203P    225
0.0D0,1.0D0;                                                         203P    226
100,0.0D0,0.0D0,0.0D0,5.62916512459886D0,3.25D0,                     205P    227
3.2845900737483D-15,6.50000000000001D0;                              205P    228
126,2,2,1,0,0,0,.050974702959194D0,.050974702959194D0,               207P    229
.050974702959194D0,.439000868202294D0,.439000868202294D0,            207P    230
.439000868202294D0,1.0100187493574D0,1.04314139574017D0,1.0D0,       207P    231
-5.09944341639924D0,3.75277674973257D0,-6.49999999999999D0,          207P    232
-5.68000000000001D0,4.75833024919771D0,-4.75833024919768D0,          207P    233
-5.68D0,5.62916512459885D0,-3.24999999999999D0,                      207P    234
.050974702959194D0,.439000868202294D0,-3.0173569517674D-12,          207P    235
-.866025403782129D0,.500000000004D0;                                 207P    236
508,3,0,11,26,0,0,0,11,27,0,0,0,11,28,0,0;                           209P    237
510,199,1,1,209;                                                     211P    238
116,1.4452730204384D-16,-3.75277674973257D0,6.49999999999999D0,      213P    239
0;                                                                   213P    240
123,0.0D0,-.866025403784439D0,.499999999999999D0;                    215P    241
190,213,215,219;                                                     217P    242
123,0.0D0,-.499999999999999D0,-.866025403784439D0;                   219P    243
110,3.82608396548472D-16,-7.50555349946513D0,                        221P    244
-3.7470027081099D-15,-5.09944341639924D0,-7.50555349946513D0,        221P    245
-3.7470027081099D-15;                                                221P    246
110,1.4452730204384D-16,-3.75277674973257D0,6.49999999999999D0,      223P    247
-5.09944341639924D0,-3.75277674973257D0,6.49999999999999D0;          223P    248
508,5,0,11,17,1,0,0,11,20,1,0,0,11,29,0,0,0,11,6,0,0,0,11,30,1,      225P    249
0;                                                                   225P    250
510,217,1,1,225;                                                     227P    251
116,3.82608396548472D-16,-7.50555349946513D0,                        229P    252
-3.7470027081099D-15,0;                                              229P    253
123,0.0D0,-.866025403784438D0,-.5D0;                                 231P    254
190,229,231,235;                                                     233P    255
123,-1.0D0,0.0D0,0.0D0;                                              235P    256
110,1.4452730204384D-16,-3.75277674973256D0,-6.5D0,                  237P    257
-5.09944341639924D0,-3.75277674973256D0,-6.5D0;                      237P    258
508,5,0,11,22,1,0,0,11,23,1,0,0,11,31,0,0,0,11,7,0,0,0,11,29,1,      239P    259
0;                                                                   239P    260
510,233,1,1,239;                                                     241P    261
116,1.4452730204384D-16,-3.75277674973256D0,-6.5D0,0;                243P    262
123,0.0D0,0.0D0,-1.0D0;                                              245P    263
190,243,245,249;                                                     247P    264
123,-1.0D0,0.0D0,0.0D0;                                              249P    265
110,-3.31634886965423D-16,3.75277674973257D0,                        251P    266
-6.49999999999999D0,-5.09944341639924D0,3.75277674973257D0,          251P    267
-6.49999999999999D0;                                                 251P    268
508,5,0,11,25,1,0,0,11,26,1,0,0,11,32,0,0,0,11,8,0,0,0,11,31,1,      253P    269
0;                                                                   253P    270
510,247,1,1,253;                                                     255P    271
116,-3.31634886965423D-16,3.75277674973256D0,6.5D0,0;                257P    272
123,0.0D0,0.0D0,1.0D0;                                               259P    273
190,257,259,263;                                                     261P    274
123,1.0D0,0.0D0,0.0D0;                                               263P    275
110,-3.31634886965423D-16,3.75277674973256D0,6.5D0,                  265P    276
-5.09944341639924D0,3.75277674973256D0,6.5D0;                        265P    277
508,5,0,11,18,1,0,0,11,30,0,0,0,11,5,0,0,0,11,33,1,0,0,11,14,1,      267P    278
0;                                                                   267P    279
510,261,1,1,267;                                                     269P    280
116,-3.31634886965423D-16,3.75277674973257D0,                        271P    281
-6.49999999999999D0,0;                                               271P    282
123,0.0D0,.866025403784439D0,-.5D0;                                  273P    283
190,271,273,277;                                                     275P    284
123,0.0D0,.5D0,.866025403784439D0;                                   277P    285
110,-5.69715981470055D-16,7.50555349946513D0,                        279P    286
7.07767178198537D-15,-5.09944341639924D0,7.50555349946513D0,         279P    287
7.07767178198537D-15;                                                279P    288
508,5,0,11,12,1,0,0,11,34,0,0,0,11,9,0,0,0,11,32,1,0,0,11,28,1,      281P    289
0;                                                                   281P    290
510,275,1,1,281;                                                     283P    291
116,-5.69715981470055D-16,7.50555349946513D0,                        285P    292
7.07767178198537D-15,0;                                              285P    293
123,0.0D0,.866025403784438D0,.500000000000001D0;                     287P    294
190,285,287,291;                                                     289P    295
123,1.0D0,0.0D0,0.0D0;                                               291P    296
508,5,0,11,15,1,0,0,11,33,0,0,0,11,4,0,0,0,11,34,1,0,0,11,11,1,      293P    297
0;                                                                   293P    298
510,289,1,1,293;                                                     295P    299
116,-5.68D0,-3.36431219583381D-16,5.55111512312578D-16,0;            297P    300
123,-1.0D0,0.0D0,0.0D0;                                              299P    301
190,297,299,303;                                                     301P    302
123,0.0D0,0.0D0,1.0D0;                                               303P    303
508,6,0,11,27,1,0,0,11,24,1,0,0,11,21,1,0,0,11,19,1,0,0,11,16,1,     305P    304
0,0,11,13,1,0;                                                       305P    305
510,301,1,1,305;                                                     307P    306
514,18,27,1,45,1,71,1,89,1,101,1,121,1,139,1,157,1,175,1,193,1,      309P    307
211,1,227,1,241,1,255,1,269,1,283,1,295,1,307,1;                     309P    308
186,309,1,0;                                                         311P    309
314,63.9216005802155D0,63.9216005802155D0,68.6275005340576D0,;       313P    310
S      1G      4D    314P    310                                        T      1
