700 0 1 0           
33 Autodesk Inventor 17.0.13800.0000 19 ASM 218.0.0.5119 NT 24 Fri Oct 18 14:28:10 2013 
1 9.9999999999999995e-007 1e-010 
body $-1 -1 $-1 $1 $-1 $-1 #
lump $-1 -1 $-1 $-1 $2 $0 #
shell $-1 -1 $-1 $-1 $-1 $3 $-1 $1 #
face $-1 -1 $-1 $4 $5 $2 $-1 $6 reversed single #
face $-1 -1 $-1 $7 $8 $2 $-1 $9 reversed single #
loop $-1 -1 $-1 $10 $11 $3 #
plane-surface $-1 -1 $-1 52.460999999999828 65.25750000000005 3.0000000000000004 0 0 1 -10 0 0 reverse_v I I I I #
face $-1 -1 $-1 $12 $13 $2 $-1 $14 reversed single #
loop $-1 -1 $-1 $15 $16 $4 #
cone-surface $-1 -1 $-1 52.460999999999828 65.25750000000005 1.5000000000000002 -0 -0 -1 -3.25 0 0 1 I I -0 1 3.25 reversed I I I I #
loop $-1 -1 $-1 $-1 $17 $3 #
coedge $-1 -1 $-1 $11 $11 $18 $19 forward $5 $-1 #
face $-1 -1 $-1 $20 $21 $2 $-1 $22 reversed single #
loop $-1 -1 $-1 $23 $24 $7 #
cone-surface $-1 -1 $-1 52.460999999999828 65.25750000000005 407.58250698478213 -0 -0 -1 -1.7000000000000002 0 0 1 I I -0 1 1.7000000000000002 reversed I I I I #
loop $-1 -1 $-1 $-1 $18 $4 #
coedge $-1 -1 $-1 $16 $16 $25 $26 reversed $8 $-1 #
coedge $-1 -1 $-1 $17 $17 $27 $28 reversed $10 $-1 #
coedge $-1 -1 $-1 $18 $18 $11 $19 reversed $15 $-1 #
edge $-1 -1 $-1 $29 0 $29 6.2831853071795862 $11 $30 forward @7 unknown #
face $-1 -1 $-1 $31 $32 $2 $-1 $33 reversed single #
loop $-1 -1 $-1 $34 $35 $12 #
plane-surface $-1 -1 $-1 143.13899999999941 65.257500000000036 3.0000000000000004 0 0 1 -10 0 0 reverse_v I I I I #
loop $-1 -1 $-1 $-1 $27 $7 #
coedge $-1 -1 $-1 $24 $24 $36 $37 reversed $13 $-1 #
coedge $-1 -1 $-1 $25 $25 $16 $26 forward $38 $-1 #
edge $-1 -1 $-1 $39 0 $39 6.2831853071795862 $25 $40 forward @7 unknown #
coedge $-1 -1 $-1 $27 $27 $17 $28 forward $23 $-1 #
edge $-1 -1 $-1 $41 -3.1415926535897931 $41 3.1415926535897931 $27 $42 forward @7 unknown #
vertex $-1 -1 $-1 $19 $43 #
ellipse-curve $-1 -1 $-1 52.460999999999828 65.25750000000005 3.0000000000000004 -0 -0 -1 -3.25 0 0 1 I I #
face $-1 -1 $-1 $44 $45 $2 $-1 $46 reversed single #
loop $-1 -1 $-1 $47 $48 $20 #
cone-surface $-1 -1 $-1 143.13899999999941 65.257500000000036 1.5000000000000002 -0 -0 -1 -3.25 0 0 1 I I -0 1 3.25 reversed I I I I #
loop $-1 -1 $-1 $-1 $49 $12 #
coedge $-1 -1 $-1 $35 $35 $50 $51 forward $21 $-1 #
coedge $-1 -1 $-1 $36 $36 $24 $37 forward $52 $-1 #
edge $-1 -1 $-1 $53 -3.1415926535897931 $53 3.1415926535897931 $36 $54 forward @7 unknown #
loop $-1 -1 $-1 $55 $25 $56 #
vertex $-1 -1 $-1 $26 $57 #
ellipse-curve $-1 -1 $-1 52.460999999999828 65.25750000000005 0 0 0 1 -3.25 0 0 1 I I #
vertex $-1 -1 $-1 $28 $58 #
ellipse-curve $-1 -1 $-1 52.460999999999828 65.25750000000005 2.9999999999999716 -0 -0 -1 -1.7000000000000002 0 0 1 I I #
point $-1 -1 $-1 49.210999999999821 65.25750000000005 3.0000000000000004 #
face $-1 -1 $-1 $59 $60 $2 $-1 $61 reversed single #
loop $-1 -1 $-1 $62 $63 $31 #
cone-surface $-1 -1 $-1 143.13899999999941 65.257500000000036 407.58250698478213 -0 -0 -1 -1.7000000000000002 0 0 1 I I -0 1 1.7000000000000002 reversed I I I I #
loop $-1 -1 $-1 $-1 $50 $20 #
coedge $-1 -1 $-1 $48 $48 $64 $65 reversed $32 $-1 #
coedge $-1 -1 $-1 $49 $49 $66 $67 reversed $34 $-1 #
coedge $-1 -1 $-1 $50 $50 $35 $51 reversed $47 $-1 #
edge $-1 -1 $-1 $68 0 $68 6.2831853071795862 $35 $69 forward @7 unknown #
loop $-1 -1 $-1 $70 $36 $71 #
vertex $-1 -1 $-1 $37 $72 #
ellipse-curve $-1 -1 $-1 52.460999999999828 65.25750000000005 12.5 -0 -0 -1 -1.7000000000000002 0 0 1 I I #
loop $-1 -1 $-1 $73 $64 $56 #
face $-1 -1 $-1 $-1 $38 $2 $-1 $74 reversed single #
point $-1 -1 $-1 49.210999999999821 65.25750000000005 0 #
point $-1 -1 $-1 54.160999999999824 65.25750000000005 2.9999999999999716 #
face $-1 -1 $-1 $75 $76 $2 $-1 $77 reversed single #
loop $-1 -1 $-1 $78 $79 $44 #
plane-surface $-1 -1 $-1 143.13899999999941 21.442500000000226 3.0000000000000004 0 0 1 -10 0 0 reverse_v I I I I #
loop $-1 -1 $-1 $-1 $66 $31 #
coedge $-1 -1 $-1 $63 $63 $80 $81 reversed $45 $-1 #
coedge $-1 -1 $-1 $64 $64 $48 $65 forward $55 $-1 #
edge $-1 -1 $-1 $82 0 $82 6.2831853071795862 $64 $83 forward @7 unknown #
coedge $-1 -1 $-1 $66 $66 $49 $67 forward $62 $-1 #
edge $-1 -1 $-1 $84 -3.1415926535897931 $84 3.1415926535897931 $66 $85 forward @7 unknown #
vertex $-1 -1 $-1 $51 $86 #
ellipse-curve $-1 -1 $-1 143.13899999999941 65.257500000000036 3.0000000000000004 -0 -0 -1 -3.25 0 0 1 I I #
loop $-1 -1 $-1 $87 $80 $71 #
face $-1 -1 $-1 $56 $52 $2 $-1 $88 forward single #
point $-1 -1 $-1 54.160999999999824 65.25750000000005 12.5 #
loop $-1 -1 $-1 $89 $90 $56 #
plane-surface $-1 -1 $-1 0 -1.1209639685749164e-014 0 0 0 1 10 0 0 forward_v I I I I #
face $-1 -1 $-1 $91 $92 $2 $-1 $93 reversed single #
loop $-1 -1 $-1 $94 $95 $59 #
cone-surface $-1 -1 $-1 143.13899999999941 21.442500000000226 1.5000000000000002 -0 -0 -1 -3.25 0 0 1 I I -0 1 3.25 reversed I I I I #
loop $-1 -1 $-1 $-1 $96 $44 #
coedge $-1 -1 $-1 $79 $79 $97 $98 forward $60 $-1 #
coedge $-1 -1 $-1 $80 $80 $63 $81 forward $70 $-1 #
edge $-1 -1 $-1 $99 -3.1415926535897931 $99 3.1415926535897931 $80 $100 forward @7 unknown #
vertex $-1 -1 $-1 $65 $101 #
ellipse-curve $-1 -1 $-1 143.13899999999941 65.257500000000036 0 0 0 1 -3.25 0 0 1 I I #
vertex $-1 -1 $-1 $67 $102 #
ellipse-curve $-1 -1 $-1 143.13899999999941 65.257500000000036 2.9999999999999716 -0 -0 -1 -1.7000000000000002 0 0 1 I I #
point $-1 -1 $-1 139.88899999999941 65.257500000000036 3.0000000000000004 #
loop $-1 -1 $-1 $103 $104 $71 #
plane-surface $-1 -1 $-1 0 -1.1209639685749164e-014 12.5 0 0 1 10 0 0 forward_v I I I I #
loop $-1 -1 $-1 $105 $106 $56 #
coedge $-1 -1 $-1 $90 $90 $95 $107 forward $73 $-1 #
face $-1 -1 $-1 $108 $109 $2 $-1 $110 reversed single #
loop $-1 -1 $-1 $111 $112 $75 #
cone-surface $-1 -1 $-1 143.13899999999941 21.442500000000226 407.58250698478213 -0 -0 -1 -1.7000000000000002 0 0 1 I I -0 1 1.7000000000000002 reversed I I I I #
loop $-1 -1 $-1 $-1 $97 $59 #
coedge $-1 -1 $-1 $95 $95 $90 $107 reversed $76 $-1 #
coedge $-1 -1 $-1 $96 $96 $113 $114 reversed $78 $-1 #
coedge $-1 -1 $-1 $97 $97 $79 $98 reversed $94 $-1 #
edge $-1 -1 $-1 $115 0 $115 6.2831853071795862 $79 $116 forward @7 unknown #
vertex $-1 -1 $-1 $81 $117 #
ellipse-curve $-1 -1 $-1 143.13899999999941 65.257500000000036 12.5 -0 -0 -1 -1.7000000000000002 0 0 1 I I #
point $-1 -1 $-1 139.88899999999941 65.257500000000036 0 #
point $-1 -1 $-1 144.83899999999943 65.257500000000036 2.9999999999999716 #
loop $-1 -1 $-1 $118 $119 $71 #
coedge $-1 -1 $-1 $104 $104 $112 $120 forward $87 $-1 #
loop $-1 -1 $-1 $121 $122 $56 #
coedge $-1 -1 $-1 $106 $106 $123 $124 forward $89 $-1 #
edge $-1 -1 $-1 $125 0 $125 6.2831853071795862 $90 $126 forward @7 unknown #
face $-1 -1 $-1 $127 $128 $2 $-1 $129 reversed single #
loop $-1 -1 $-1 $130 $131 $91 #
plane-surface $-1 -1 $-1 52.460999999999785 21.442500000000226 3.0000000000000004 0 0 1 -10 0 0 reverse_v I I I I #
loop $-1 -1 $-1 $-1 $113 $75 #
coedge $-1 -1 $-1 $112 $112 $104 $120 reversed $92 $-1 #
coedge $-1 -1 $-1 $113 $113 $96 $114 forward $111 $-1 #
edge $-1 -1 $-1 $132 -3.1415926535897931 $132 3.1415926535897931 $113 $133 forward @7 unknown #
vertex $-1 -1 $-1 $98 $134 #
ellipse-curve $-1 -1 $-1 143.13899999999941 21.442500000000226 3.0000000000000004 -0 -0 -1 -3.25 0 0 1 I I #
point $-1 -1 $-1 144.83899999999943 65.257500000000036 12.5 #
loop $-1 -1 $-1 $135 $136 $71 #
coedge $-1 -1 $-1 $119 $119 $137 $138 forward $103 $-1 #
edge $-1 -1 $-1 $139 -3.1415926535897931 $139 3.1415926535897931 $104 $140 forward @7 unknown #
loop $-1 -1 $-1 $141 $142 $56 #
coedge $-1 -1 $-1 $122 $122 $143 $144 forward $105 $-1 #
coedge $-1 -1 $-1 $123 $123 $106 $124 reversed $128 $-1 #
edge $-1 -1 $-1 $145 0 $145 6.2831853071795862 $106 $146 forward @7 unknown #
vertex $-1 -1 $-1 $107 $147 #
ellipse-curve $-1 -1 $-1 143.13899999999941 21.442500000000226 0 0 0 1 -3.25 0 0 1 I I #
face $-1 -1 $-1 $148 $149 $2 $-1 $150 reversed single #
loop $-1 -1 $-1 $151 $123 $108 #
cone-surface $-1 -1 $-1 52.460999999999785 21.442500000000226 1.5000000000000002 -0 -0 -1 -3.25 0 0 1 I I -0 1 3.25 reversed I I I I #
loop $-1 -1 $-1 $-1 $152 $91 #
coedge $-1 -1 $-1 $131 $131 $153 $154 forward $109 $-1 #
vertex $-1 -1 $-1 $114 $155 #
ellipse-curve $-1 -1 $-1 143.13899999999941 21.442500000000226 2.9999999999999716 -0 -0 -1 -1.7000000000000002 0 0 1 I I #
point $-1 -1 $-1 139.88899999999941 21.442500000000226 3.0000000000000004 #
loop $-1 -1 $-1 $156 $157 $71 #
coedge $-1 -1 $-1 $136 $136 $158 $159 forward $118 $-1 #
coedge $-1 -1 $-1 $137 $137 $119 $138 reversed $149 $-1 #
edge $-1 -1 $-1 $160 -3.1415926535897931 $160 3.1415926535897931 $119 $161 forward @7 unknown #
vertex $-1 -1 $-1 $120 $162 #
ellipse-curve $-1 -1 $-1 143.13899999999941 21.442500000000226 12.5 -0 -0 -1 -1.7000000000000002 0 0 1 I I #
loop $-1 -1 $-1 $163 $164 $56 #
coedge $-1 -1 $-1 $142 $142 $165 $166 forward $121 $-1 #
coedge $-1 -1 $-1 $143 $143 $122 $144 reversed $167 $-1 #
edge $-1 -1 $-1 $168 0 $168 6.2831853071795862 $122 $169 forward @7 unknown #
vertex $-1 -1 $-1 $124 $170 #
ellipse-curve $-1 -1 $-1 52.460999999999785 21.442500000000226 0 0 0 1 -3.25 0 0 1 I I #
point $-1 -1 $-1 139.88899999999941 21.442500000000226 0 #
face $-1 -1 $-1 $171 $172 $2 $-1 $173 reversed single #
loop $-1 -1 $-1 $174 $137 $127 #
cone-surface $-1 -1 $-1 52.460999999999785 21.442500000000226 407.58250698478213 -0 -0 -1 -1.7000000000000002 0 0 1 I I -0 1 1.7000000000000002 reversed I I I I #
loop $-1 -1 $-1 $-1 $153 $108 #
coedge $-1 -1 $-1 $152 $152 $175 $176 reversed $130 $-1 #
coedge $-1 -1 $-1 $153 $153 $131 $154 reversed $151 $-1 #
edge $-1 -1 $-1 $177 0 $177 6.2831853071795862 $131 $178 forward @7 unknown #
point $-1 -1 $-1 144.83899999999943 21.442500000000226 2.9999999999999716 #
loop $-1 -1 $-1 $179 $180 $71 #
coedge $-1 -1 $-1 $157 $157 $181 $182 forward $135 $-1 #
coedge $-1 -1 $-1 $158 $158 $136 $159 reversed $183 $-1 #
edge $-1 -1 $-1 $184 -3.1415926535897931 $184 3.1415926535897931 $136 $185 forward @7 unknown #
vertex $-1 -1 $-1 $138 $186 #
ellipse-curve $-1 -1 $-1 52.460999999999785 21.442500000000226 12.5 -0 -0 -1 -1.7000000000000002 0 0 1 I I #
point $-1 -1 $-1 144.83899999999943 21.442500000000226 12.5 #
loop $-1 -1 $-1 $187 $188 $56 #
coedge $-1 -1 $-1 $164 $164 $189 $190 forward $141 $-1 #
coedge $-1 -1 $-1 $165 $165 $142 $166 reversed $191 $-1 #
edge $-1 -1 $-1 $192 0 $192 6.2831853071795862 $142 $193 forward @7 unknown #
loop $-1 -1 $-1 $194 $143 $171 #
vertex $-1 -1 $-1 $144 $195 #
ellipse-curve $-1 -1 $-1 -48.000000000000043 76.250000000000043 0 0 0 1 -4 0 0 1 I I #
point $-1 -1 $-1 49.210999999999785 21.442500000000226 0 #
face $-1 -1 $-1 $196 $167 $2 $-1 $197 reversed single #
loop $-1 -1 $-1 $198 $199 $148 #
plane-surface $-1 -1 $-1 -48.000000000000043 76.250000000000043 4 0 0 1 -10 0 0 reverse_v I I I I #
loop $-1 -1 $-1 $-1 $175 $127 #
coedge $-1 -1 $-1 $175 $175 $152 $176 forward $174 $-1 #
edge $-1 -1 $-1 $200 -3.1415926535897931 $200 3.1415926535897931 $175 $201 forward @7 unknown #
vertex $-1 -1 $-1 $154 $202 #
ellipse-curve $-1 -1 $-1 52.460999999999785 21.442500000000226 3.0000000000000004 -0 -0 -1 -3.25 0 0 1 I I #
loop $-1 -1 $-1 $203 $204 $71 #
coedge $-1 -1 $-1 $180 $180 $205 $206 forward $156 $-1 #
coedge $-1 -1 $-1 $181 $181 $157 $182 reversed $207 $-1 #
edge $-1 -1 $-1 $208 -3.1415926535897931 $208 3.1415926535897931 $157 $209 forward @7 unknown #
loop $-1 -1 $-1 $210 $158 $196 #
vertex $-1 -1 $-1 $159 $211 #
ellipse-curve $-1 -1 $-1 -48.000000000000043 76.250000000000043 12.5 -0 -0 -1 -2.25 0 0 1 I I #
point $-1 -1 $-1 54.160999999999788 21.442500000000226 12.5 #
loop $-1 -1 $-1 $212 $213 $56 #
coedge $-1 -1 $-1 $188 $188 $214 $215 forward $163 $-1 #
coedge $-1 -1 $-1 $189 $189 $164 $190 reversed $216 $-1 #
edge $-1 -1 $-1 $217 0 $217 6.2831853071795862 $164 $218 forward @7 unknown #
loop $-1 -1 $-1 $219 $165 $220 #
vertex $-1 -1 $-1 $166 $221 #
ellipse-curve $-1 -1 $-1 -48.000000000000014 -73.74999999999973 0 0 0 1 -4 0 0 1 I I #
loop $-1 -1 $-1 $-1 $222 $171 #
point $-1 -1 $-1 -52.000000000000043 76.250000000000043 0 #
face $-1 -1 $-1 $223 $183 $2 $-1 $224 reversed single #
cone-surface $-1 -1 $-1 -48.000000000000043 76.250000000000043 2 -0 -0 -1 -4 0 0 1 I I -0 1 4 reversed I I I I #
loop $-1 -1 $-1 $-1 $225 $148 #
coedge $-1 -1 $-1 $199 $199 $222 $226 forward $172 $-1 #
vertex $-1 -1 $-1 $176 $227 #
ellipse-curve $-1 -1 $-1 52.460999999999785 21.442500000000226 2.9999999999999716 -0 -0 -1 -1.7000000000000002 0 0 1 I I #
point $-1 -1 $-1 49.210999999999785 21.442500000000226 3.0000000000000004 #
loop $-1 -1 $-1 $228 $229 $71 #
coedge $-1 -1 $-1 $204 $204 $230 $231 forward $179 $-1 #
coedge $-1 -1 $-1 $205 $205 $180 $206 reversed $232 $-1 #
edge $-1 -1 $-1 $233 -3.1415926535897931 $233 3.1415926535897931 $180 $234 forward @7 unknown #
loop $-1 -1 $-1 $235 $181 $236 #
vertex $-1 -1 $-1 $182 $237 #
ellipse-curve $-1 -1 $-1 -48.000000000000014 -73.74999999999973 12.5 -0 -0 -1 -2.25 0 0 1 I I #
loop $-1 -1 $-1 $-1 $238 $196 #
point $-1 -1 $-1 -45.750000000000043 76.250000000000043 12.5 #
loop $-1 -1 $-1 $239 $240 $56 #
coedge $-1 -1 $-1 $213 $213 $241 $242 forward $187 $-1 #
coedge $-1 -1 $-1 $214 $214 $188 $215 reversed $243 $-1 #
edge $-1 -1 $-1 $244 0 $244 6.2831853071795862 $188 $245 forward @7 unknown #
loop $-1 -1 $-1 $246 $189 $247 #
vertex $-1 -1 $-1 $190 $248 #
ellipse-curve $-1 -1 $-1 1.9999999999999218 -73.749999999999702 0 0 0 1 -4 0 0 1 I I #
loop $-1 -1 $-1 $-1 $249 $220 #
face $-1 -1 $-1 $236 $191 $2 $-1 $250 reversed single #
point $-1 -1 $-1 -52.000000000000021 -73.74999999999973 0 #
coedge $-1 -1 $-1 $222 $222 $199 $226 reversed $194 $-1 #
face $-1 -1 $-1 $220 $251 $2 $-1 $252 reversed single #
cone-surface $-1 -1 $-1 -48.000000000000043 76.250000000000043 407.58250698478213 -0 -0 -1 -2.25 0 0 1 I I -0 1 2.25 reversed I I I I #
coedge $-1 -1 $-1 $225 $225 $238 $253 reversed $198 $-1 #
edge $-1 -1 $-1 $254 0 $254 6.2831853071795862 $199 $255 forward @7 unknown #
point $-1 -1 $-1 54.160999999999788 21.442500000000226 2.9999999999999716 #
loop $-1 -1 $-1 $256 $257 $71 #
coedge $-1 -1 $-1 $229 $229 $258 $259 forward $203 $-1 #
coedge $-1 -1 $-1 $230 $230 $204 $231 reversed $260 $-1 #
edge $-1 -1 $-1 $261 -3.1415926535897931 $261 3.1415926535897931 $204 $262 forward @7 unknown #
loop $-1 -1 $-1 $263 $205 $264 #
vertex $-1 -1 $-1 $206 $265 #
ellipse-curve $-1 -1 $-1 1.9999999999999218 -73.749999999999702 12.5 -0 -0 -1 -2.25 0 0 1 I I #
loop $-1 -1 $-1 $-1 $266 $236 #
face $-1 -1 $-1 $267 $207 $2 $-1 $268 reversed single #
point $-1 -1 $-1 -45.750000000000021 -73.74999999999973 12.5 #
coedge $-1 -1 $-1 $238 $238 $225 $253 forward $210 $-1 #
loop $-1 -1 $-1 $269 $270 $56 #
coedge $-1 -1 $-1 $240 $240 $271 $272 forward $212 $-1 #
coedge $-1 -1 $-1 $241 $241 $213 $242 reversed $273 $-1 #
edge $-1 -1 $-1 $274 0 $274 6.2831853071795862 $213 $275 forward @7 unknown #
loop $-1 -1 $-1 $276 $214 $277 #
vertex $-1 -1 $-1 $215 $278 #
ellipse-curve $-1 -1 $-1 1.9999999999998863 76.250000000000057 0 0 0 1 -4 0 0 1 I I #
loop $-1 -1 $-1 $-1 $279 $247 #
face $-1 -1 $-1 $264 $216 $2 $-1 $280 reversed single #
point $-1 -1 $-1 -2.0000000000000782 -73.749999999999702 0 #
coedge $-1 -1 $-1 $249 $249 $281 $282 reversed $219 $-1 #
cone-surface $-1 -1 $-1 -48.000000000000014 -73.74999999999973 2 -0 -0 -1 -4 0 0 1 I I -0 1 4 reversed I I I I #
loop $-1 -1 $-1 $283 $281 $223 #
plane-surface $-1 -1 $-1 -48.000000000000014 -73.74999999999973 4 0 0 1 -10 0 0 reverse_v I I I I #
edge $-1 -1 $-1 $284 -3.1415926535897931 $284 3.1415926535897931 $238 $285 forward @7 unknown #
vertex $-1 -1 $-1 $226 $286 #
ellipse-curve $-1 -1 $-1 -48.000000000000043 76.250000000000043 4 -0 -0 -1 -4 0 0 1 I I #
loop $-1 -1 $-1 $287 $288 $71 #
coedge $-1 -1 $-1 $257 $257 $289 $290 forward $228 $-1 #
coedge $-1 -1 $-1 $258 $258 $229 $259 reversed $291 $-1 #
edge $-1 -1 $-1 $292 -3.1415926535897931 $292 3.1415926535897931 $229 $293 forward @7 unknown #
loop $-1 -1 $-1 $294 $230 $295 #
vertex $-1 -1 $-1 $231 $296 #
ellipse-curve $-1 -1 $-1 1.9999999999998863 76.250000000000057 12.5 -0 -0 -1 -2.25 0 0 1 I I #
loop $-1 -1 $-1 $-1 $297 $264 #
face $-1 -1 $-1 $298 $232 $2 $-1 $299 reversed single #
point $-1 -1 $-1 4.2499999999999218 -73.749999999999702 12.5 #
coedge $-1 -1 $-1 $266 $266 $300 $301 forward $235 $-1 #
face $-1 -1 $-1 $247 $302 $2 $-1 $303 reversed single #
cone-surface $-1 -1 $-1 -48.000000000000014 -73.74999999999973 407.58250698478213 -0 -0 -1 -2.25 0 0 1 I I -0 1 2.25 reversed I I I I #
loop $-1 -1 $-1 $304 $305 $56 #
coedge $-1 -1 $-1 $270 $270 $306 $307 forward $239 $-1 #
coedge $-1 -1 $-1 $271 $271 $240 $272 reversed $308 $-1 #
edge $-1 -1 $-1 $309 0 $309 6.2831853071795862 $240 $310 forward @7 unknown #
loop $-1 -1 $-1 $311 $241 $312 #
vertex $-1 -1 $-1 $242 $313 #
ellipse-curve $-1 -1 $-1 -150.49999999999989 -108.75000000000058 0 0 0 1 -3.25 0 0 1 I I #
loop $-1 -1 $-1 $-1 $314 $277 #
face $-1 -1 $-1 $295 $243 $2 $-1 $315 reversed single #
point $-1 -1 $-1 -2.0000000000001137 76.250000000000057 0 #
coedge $-1 -1 $-1 $279 $279 $316 $317 reversed $246 $-1 #
cone-surface $-1 -1 $-1 1.9999999999999218 -73.749999999999702 2 -0 -0 -1 -4 0 0 1 I I -0 1 4 reversed I I I I #
coedge $-1 -1 $-1 $281 $281 $249 $282 forward $251 $-1 #
edge $-1 -1 $-1 $318 0 $318 6.2831853071795862 $281 $319 forward @7 unknown #
loop $-1 -1 $-1 $-1 $300 $223 #
vertex $-1 -1 $-1 $253 $320 #
ellipse-curve $-1 -1 $-1 -48.000000000000043 76.250000000000043 3.9999999999999858 -0 -0 -1 -2.25 0 0 1 I I #
point $-1 -1 $-1 -52.000000000000043 76.250000000000043 4 #
loop $-1 -1 $-1 $321 $322 $71 #
coedge $-1 -1 $-1 $288 $288 $323 $324 forward $256 $-1 #
coedge $-1 -1 $-1 $289 $289 $257 $290 reversed $325 $-1 #
edge $-1 -1 $-1 $326 -3.1415926535897931 $326 3.1415926535897931 $257 $327 forward @7 unknown #
loop $-1 -1 $-1 $328 $258 $329 #
vertex $-1 -1 $-1 $259 $330 #
ellipse-curve $-1 -1 $-1 -150.49999999999989 -108.75000000000058 12.5 -0 -0 -1 -1.7000000000000002 0 0 1 I I #
loop $-1 -1 $-1 $-1 $331 $295 #
face $-1 -1 $-1 $332 $260 $2 $-1 $333 reversed single #
point $-1 -1 $-1 4.2499999999998863 76.250000000000057 12.5 #
coedge $-1 -1 $-1 $297 $297 $334 $335 forward $263 $-1 #
face $-1 -1 $-1 $277 $336 $2 $-1 $337 reversed single #
cone-surface $-1 -1 $-1 1.9999999999999218 -73.749999999999702 407.58250698478213 -0 -0 -1 -2.25 0 0 1 I I -0 1 2.25 reversed I I I I #
coedge $-1 -1 $-1 $300 $300 $266 $301 reversed $283 $-1 #
edge $-1 -1 $-1 $338 -3.1415926535897931 $338 3.1415926535897931 $266 $339 forward @7 unknown #
loop $-1 -1 $-1 $340 $316 $267 #
plane-surface $-1 -1 $-1 1.9999999999999218 -73.749999999999702 4 0 0 1 -10 0 0 reverse_v I I I I #
loop $-1 -1 $-1 $-1 $341 $56 #
coedge $-1 -1 $-1 $305 $305 $342 $343 forward $269 $-1 #
coedge $-1 -1 $-1 $306 $306 $270 $307 reversed $344 $-1 #
edge $-1 -1 $-1 $345 0 $345 6.2831853071795862 $270 $346 forward @7 unknown #
loop $-1 -1 $-1 $347 $271 $348 #
vertex $-1 -1 $-1 $272 $349 #
ellipse-curve $-1 -1 $-1 150.49999999993747 103.75 0 0 0 1 -3.25 0 0 1 I I #
loop $-1 -1 $-1 $-1 $350 $312 #
face $-1 -1 $-1 $329 $273 $2 $-1 $351 reversed single #
point $-1 -1 $-1 -153.74999999999989 -108.75000000000058 0 #
coedge $-1 -1 $-1 $314 $314 $352 $353 reversed $276 $-1 #
cone-surface $-1 -1 $-1 1.9999999999998863 76.250000000000057 2 -0 -0 -1 -4 0 0 1 I I -0 1 4 reversed I I I I #
coedge $-1 -1 $-1 $316 $316 $279 $317 forward $302 $-1 #
edge $-1 -1 $-1 $354 0 $354 6.2831853071795862 $316 $355 forward @7 unknown #
vertex $-1 -1 $-1 $282 $356 #
ellipse-curve $-1 -1 $-1 -48.000000000000014 -73.74999999999973 4 -0 -0 -1 -4 0 0 1 I I #
point $-1 -1 $-1 -45.750000000000043 76.250000000000043 3.9999999999999858 #
loop $-1 -1 $-1 $-1 $357 $71 #
coedge $-1 -1 $-1 $322 $322 $358 $359 forward $287 $-1 #
coedge $-1 -1 $-1 $323 $323 $288 $324 reversed $360 $-1 #
edge $-1 -1 $-1 $361 -3.1415926535897931 $361 3.1415926535897931 $288 $362 forward @7 unknown #
loop $-1 -1 $-1 $363 $289 $364 #
vertex $-1 -1 $-1 $290 $365 #
ellipse-curve $-1 -1 $-1 150.49999999993747 103.75 12.5 -0 -0 -1 -1.7000000000000002 0 0 1 I I #
loop $-1 -1 $-1 $-1 $366 $329 #
face $-1 -1 $-1 $367 $291 $2 $-1 $368 reversed single #
point $-1 -1 $-1 -148.7999999999999 -108.75000000000058 12.5 #
coedge $-1 -1 $-1 $331 $331 $369 $370 forward $294 $-1 #
face $-1 -1 $-1 $312 $371 $2 $-1 $372 reversed single #
cone-surface $-1 -1 $-1 1.9999999999998863 76.250000000000057 407.58250698478213 -0 -0 -1 -2.25 0 0 1 I I -0 1 2.25 reversed I I I I #
coedge $-1 -1 $-1 $334 $334 $297 $335 reversed $340 $-1 #
edge $-1 -1 $-1 $373 -3.1415926535897931 $373 3.1415926535897931 $297 $374 forward @7 unknown #
loop $-1 -1 $-1 $375 $352 $298 #
plane-surface $-1 -1 $-1 1.9999999999998863 76.250000000000057 4 0 0 1 -10 0 0 reverse_v I I I I #
vertex $-1 -1 $-1 $301 $376 #
ellipse-curve $-1 -1 $-1 -48.000000000000014 -73.74999999999973 3.9999999999999858 -0 -0 -1 -2.25 0 0 1 I I #
loop $-1 -1 $-1 $-1 $334 $267 #
coedge $-1 -1 $-1 $377 $378 $379 $380 forward $304 $-1 #
coedge $-1 -1 $-1 $342 $342 $305 $343 reversed $381 $-1 #
edge $-1 -1 $-1 $382 0 $382 6.2831853071795862 $305 $383 forward @7 unknown #
loop $-1 -1 $-1 $384 $306 $385 #
vertex $-1 -1 $-1 $307 $386 #
ellipse-curve $-1 -1 $-1 150.49999999993747 -108.75000000000058 0 0 0 1 -3.25 0 0 1 I I #
loop $-1 -1 $-1 $-1 $387 $348 #
face $-1 -1 $-1 $364 $308 $2 $-1 $388 reversed single #
point $-1 -1 $-1 147.24999999993747 103.75 0 #
coedge $-1 -1 $-1 $350 $350 $389 $390 reversed $311 $-1 #
cone-surface $-1 -1 $-1 -150.49999999999989 -108.75000000000058 1.5000000000000002 -0 -0 -1 -3.25 0 0 1 I I -0 1 3.25 reversed I I I I #
coedge $-1 -1 $-1 $352 $352 $314 $353 forward $336 $-1 #
edge $-1 -1 $-1 $391 0 $391 6.2831853071795862 $352 $392 forward @7 unknown #
vertex $-1 -1 $-1 $317 $393 #
ellipse-curve $-1 -1 $-1 1.9999999999999218 -73.749999999999702 4 -0 -0 -1 -4 0 0 1 I I #
point $-1 -1 $-1 -52.000000000000021 -73.74999999999973 4 #
coedge $-1 -1 $-1 $394 $395 $396 $397 forward $321 $-1 #
coedge $-1 -1 $-1 $358 $358 $322 $359 reversed $398 $-1 #
edge $-1 -1 $-1 $399 -3.1415926535897931 $399 3.1415926535897931 $322 $400 forward @7 unknown #
loop $-1 -1 $-1 $401 $323 $402 #
vertex $-1 -1 $-1 $324 $403 #
ellipse-curve $-1 -1 $-1 150.49999999993747 -108.75000000000058 12.5 -0 -0 -1 -1.7000000000000002 0 0 1 I I #
loop $-1 -1 $-1 $-1 $404 $364 #
face $-1 -1 $-1 $405 $325 $2 $-1 $406 reversed single #
point $-1 -1 $-1 152.19999999993746 103.75 12.5 #
coedge $-1 -1 $-1 $366 $366 $407 $408 forward $328 $-1 #
face $-1 -1 $-1 $348 $409 $2 $-1 $410 reversed single #
cone-surface $-1 -1 $-1 -150.49999999999989 -108.75000000000058 407.58250698478213 -0 -0 -1 -1.7000000000000002 0 0 1 I I -0 1 1.7000000000000002 reversed I I I I #
coedge $-1 -1 $-1 $369 $369 $331 $370 reversed $375 $-1 #
edge $-1 -1 $-1 $411 -3.1415926535897931 $411 3.1415926535897931 $331 $412 forward @7 unknown #
loop $-1 -1 $-1 $413 $389 $332 #
plane-surface $-1 -1 $-1 -150.49999999999989 -108.75000000000058 3.0000000000000004 0 0 1 -10 0 0 reverse_v I I I I #
vertex $-1 -1 $-1 $335 $414 #
ellipse-curve $-1 -1 $-1 1.9999999999999218 -73.749999999999702 3.9999999999999858 -0 -0 -1 -2.25 0 0 1 I I #
loop $-1 -1 $-1 $-1 $369 $298 #
point $-1 -1 $-1 -45.750000000000021 -73.74999999999973 3.9999999999999858 #
coedge $-1 -1 $-1 $415 $341 $416 $417 forward $304 $-1 #
coedge $-1 -1 $-1 $341 $415 $418 $419 forward $304 $-1 #
coedge $-1 -1 $-1 $420 $421 $341 $380 reversed $422 $-1 #
edge $-1 -1 $-1 $423 0 $424 33.100000000000001 $379 $425 forward @7 unknown #
loop $-1 -1 $-1 $426 $342 $427 #
vertex $-1 -1 $-1 $343 $428 #
ellipse-curve $-1 -1 $-1 -150.49999999999994 103.75 0 0 0 1 -3.25 0 0 1 I I #
loop $-1 -1 $-1 $-1 $429 $385 #
face $-1 -1 $-1 $402 $344 $2 $-1 $430 reversed single #
point $-1 -1 $-1 147.24999999993747 -108.75000000000058 0 #
coedge $-1 -1 $-1 $387 $387 $431 $432 reversed $347 $-1 #
cone-surface $-1 -1 $-1 150.49999999993747 103.75 1.5000000000000002 -0 -0 -1 -3.25 0 0 1 I I -0 1 3.25 reversed I I I I #
coedge $-1 -1 $-1 $389 $389 $350 $390 forward $371 $-1 #
edge $-1 -1 $-1 $433 0 $433 6.2831853071795862 $389 $434 forward @7 unknown #
vertex $-1 -1 $-1 $353 $435 #
ellipse-curve $-1 -1 $-1 1.9999999999998863 76.250000000000057 4 -0 -0 -1 -4 0 0 1 I I #
point $-1 -1 $-1 -2.0000000000000782 -73.749999999999702 4 #
coedge $-1 -1 $-1 $436 $357 $437 $438 forward $321 $-1 #
coedge $-1 -1 $-1 $357 $436 $439 $440 forward $321 $-1 #
coedge $-1 -1 $-1 $421 $420 $357 $397 reversed $422 $-1 #
edge $-1 -1 $-1 $441 -33.100000000000001 $442 -0 $396 $443 forward @7 unknown #
loop $-1 -1 $-1 $444 $358 $445 #
vertex $-1 -1 $-1 $359 $446 #
ellipse-curve $-1 -1 $-1 -150.49999999999994 103.75 12.5 -0 -0 -1 -1.7000000000000002 0 0 1 I I #
loop $-1 -1 $-1 $-1 $447 $402 #
face $-1 -1 $-1 $448 $360 $2 $-1 $449 reversed single #
point $-1 -1 $-1 152.19999999993746 -108.75000000000058 12.5 #
coedge $-1 -1 $-1 $404 $404 $450 $451 forward $363 $-1 #
face $-1 -1 $-1 $385 $452 $2 $-1 $453 reversed single #
cone-surface $-1 -1 $-1 150.49999999993747 103.75 407.58250698478213 -0 -0 -1 -1.7000000000000002 0 0 1 I I -0 1 1.7000000000000002 reversed I I I I #
coedge $-1 -1 $-1 $407 $407 $366 $408 reversed $413 $-1 #
edge $-1 -1 $-1 $454 -3.1415926535897931 $454 3.1415926535897931 $366 $455 forward @7 unknown #
loop $-1 -1 $-1 $456 $431 $367 #
plane-surface $-1 -1 $-1 150.49999999993747 103.75 3.0000000000000004 0 0 1 -10 0 0 reverse_v I I I I #
vertex $-1 -1 $-1 $370 $457 #
ellipse-curve $-1 -1 $-1 1.9999999999998863 76.250000000000057 3.9999999999999858 -0 -0 -1 -2.25 0 0 1 I I #
loop $-1 -1 $-1 $-1 $407 $332 #
point $-1 -1 $-1 4.2499999999999218 -73.749999999999702 3.9999999999999858 #
coedge $-1 -1 $-1 $378 $377 $458 $459 forward $304 $-1 #
coedge $-1 -1 $-1 $460 $461 $377 $417 reversed $462 $-1 #
edge $-1 -1 $-1 $424 0 $463 23.75 $416 $464 forward @7 unknown #
coedge $-1 -1 $-1 $465 $466 $378 $419 reversed $467 $-1 #
edge $-1 -1 $-1 $468 0 $423 23.75 $418 $469 forward @7 unknown #
coedge $-1 -1 $-1 $396 $379 $466 $470 forward $422 $-1 #
coedge $-1 -1 $-1 $379 $396 $460 $471 reversed $422 $-1 #
loop $-1 -1 $-1 $-1 $379 $472 #
vertex $-1 -1 $-1 $380 $473 #
vertex $-1 -1 $-1 $380 $474 #
straight-curve $-1 -1 $-1 -165.5 118.74999999999999 0 10 0 0 F 0 F 33.100000000000001 #
loop $-1 -1 $-1 $-1 $475 $427 #
face $-1 -1 $-1 $445 $381 $2 $-1 $476 reversed single #
point $-1 -1 $-1 -153.74999999999994 103.75 0 #
coedge $-1 -1 $-1 $429 $429 $477 $478 reversed $384 $-1 #
cone-surface $-1 -1 $-1 150.49999999993747 -108.75000000000058 1.5000000000000002 -0 -0 -1 -3.25 0 0 1 I I -0 1 3.25 reversed I I I I #
coedge $-1 -1 $-1 $431 $431 $387 $432 forward $409 $-1 #
edge $-1 -1 $-1 $479 0 $479 6.2831853071795862 $431 $480 forward @7 unknown #
vertex $-1 -1 $-1 $390 $481 #
ellipse-curve $-1 -1 $-1 -150.49999999999989 -108.75000000000058 3.0000000000000004 -0 -0 -1 -3.25 0 0 1 I I #
point $-1 -1 $-1 -2.0000000000001137 76.250000000000057 4 #
coedge $-1 -1 $-1 $395 $394 $482 $483 forward $321 $-1 #
coedge $-1 -1 $-1 $466 $465 $394 $438 reversed $467 $-1 #
edge $-1 -1 $-1 $442 -23.75 $484 -0 $437 $485 forward @7 unknown #
coedge $-1 -1 $-1 $461 $460 $395 $440 reversed $462 $-1 #
edge $-1 -1 $-1 $486 -23.75 $441 -0 $439 $487 forward @7 unknown #
vertex $-1 -1 $-1 $471 $488 #
vertex $-1 -1 $-1 $470 $489 #
straight-curve $-1 -1 $-1 -165.5 118.74999999999999 12.5 -10 -0 -0 I I #
loop $-1 -1 $-1 $-1 $490 $445 #
face $-1 -1 $-1 $491 $398 $2 $-1 $492 reversed single #
point $-1 -1 $-1 -148.79999999999993 103.75 12.5 #
coedge $-1 -1 $-1 $447 $447 $493 $494 forward $401 $-1 #
face $-1 -1 $-1 $427 $495 $2 $-1 $496 reversed single #
cone-surface $-1 -1 $-1 150.49999999993747 -108.75000000000058 407.58250698478213 -0 -0 -1 -1.7000000000000002 0 0 1 I I -0 1 1.7000000000000002 reversed I I I I #
coedge $-1 -1 $-1 $450 $450 $404 $451 reversed $456 $-1 #
edge $-1 -1 $-1 $497 -3.1415926535897931 $497 3.1415926535897931 $404 $498 forward @7 unknown #
loop $-1 -1 $-1 $499 $477 $405 #
plane-surface $-1 -1 $-1 150.49999999993747 -108.75000000000058 3.0000000000000004 0 0 1 -10 0 0 reverse_v I I I I #
vertex $-1 -1 $-1 $408 $500 #
ellipse-curve $-1 -1 $-1 -150.49999999999989 -108.75000000000058 2.9999999999999716 -0 -0 -1 -1.7000000000000002 0 0 1 I I #
loop $-1 -1 $-1 $-1 $450 $367 #
point $-1 -1 $-1 4.2499999999998863 76.250000000000057 3.9999999999999858 #
coedge $-1 -1 $-1 $501 $502 $415 $459 reversed $503 $-1 #
edge $-1 -1 $-1 $463 0 $468 33.100000000000001 $458 $504 forward @7 unknown #
coedge $-1 -1 $-1 $439 $416 $421 $471 forward $462 $-1 #
coedge $-1 -1 $-1 $416 $439 $501 $505 reversed $462 $-1 #
loop $-1 -1 $-1 $-1 $416 $491 #
vertex $-1 -1 $-1 $417 $506 #
straight-curve $-1 -1 $-1 165.5 118.74999999999999 0 0 -10 0 F 0 F 23.75 #
coedge $-1 -1 $-1 $437 $418 $502 $507 forward $467 $-1 #
coedge $-1 -1 $-1 $418 $437 $420 $470 reversed $467 $-1 #
loop $-1 -1 $-1 $-1 $418 $508 #
vertex $-1 -1 $-1 $459 $509 #
straight-curve $-1 -1 $-1 -165.5 -118.75000000000001 0 0 10 0 F 0 F 23.75 #
edge $-1 -1 $-1 $423 0 $442 1.25 $420 $510 forward @7 unknown #
edge $-1 -1 $-1 $424 0 $441 1.25 $421 $511 forward @7 unknown #
face $-1 -1 $-1 $71 $422 $2 $-1 $512 forward single #
point $-1 -1 $-1 -165.5 118.74999999999999 0 #
point $-1 -1 $-1 165.5 118.74999999999999 0 #
coedge $-1 -1 $-1 $475 $475 $513 $514 reversed $426 $-1 #
cone-surface $-1 -1 $-1 -150.49999999999994 103.75 1.5000000000000002 -0 -0 -1 -3.25 0 0 1 I I -0 1 3.25 reversed I I I I #
coedge $-1 -1 $-1 $477 $477 $429 $478 forward $452 $-1 #
edge $-1 -1 $-1 $515 0 $515 6.2831853071795862 $477 $516 forward @7 unknown #
vertex $-1 -1 $-1 $432 $517 #
ellipse-curve $-1 -1 $-1 150.49999999993747 103.75 3.0000000000000004 -0 -0 -1 -3.25 0 0 1 I I #
point $-1 -1 $-1 -153.74999999999989 -108.75000000000058 3.0000000000000004 #
coedge $-1 -1 $-1 $502 $501 $436 $483 reversed $503 $-1 #
edge $-1 -1 $-1 $484 -33.100000000000001 $486 -0 $482 $518 forward @7 unknown #
vertex $-1 -1 $-1 $507 $519 #
straight-curve $-1 -1 $-1 -165.5 -118.75000000000001 12.5 -0 -10 -0 I I #
vertex $-1 -1 $-1 $505 $520 #
straight-curve $-1 -1 $-1 165.5 118.74999999999999 12.5 0 10 0 I I #
point $-1 -1 $-1 165.5 118.74999999999999 12.5 #
point $-1 -1 $-1 -165.5 118.74999999999999 12.5 #
coedge $-1 -1 $-1 $490 $490 $521 $522 forward $444 $-1 #
face $-1 -1 $-1 $523 $462 $2 $-1 $524 forward single #
cone-surface $-1 -1 $-1 -150.49999999999994 103.75 407.58250698478213 -0 -0 -1 -1.7000000000000002 0 0 1 I I -0 1 1.7000000000000002 reversed I I I I #
coedge $-1 -1 $-1 $493 $493 $447 $494 reversed $499 $-1 #
edge $-1 -1 $-1 $525 -3.1415926535897931 $525 3.1415926535897931 $447 $526 forward @7 unknown #
loop $-1 -1 $-1 $527 $513 $448 #
plane-surface $-1 -1 $-1 -150.49999999999994 103.75 3.0000000000000004 0 0 1 -10 0 0 reverse_v I I I I #
vertex $-1 -1 $-1 $451 $528 #
ellipse-curve $-1 -1 $-1 150.49999999993747 103.75 2.9999999999999716 -0 -0 -1 -1.7000000000000002 0 0 1 I I #
loop $-1 -1 $-1 $-1 $493 $405 #
point $-1 -1 $-1 -148.7999999999999 -108.75000000000058 2.9999999999999716 #
coedge $-1 -1 $-1 $482 $458 $461 $505 forward $503 $-1 #
coedge $-1 -1 $-1 $458 $482 $465 $507 reversed $503 $-1 #
loop $-1 -1 $-1 $-1 $458 $523 #
straight-curve $-1 -1 $-1 165.5 -118.75000000000001 0 -10 0 0 F 0 F 33.100000000000001 #
edge $-1 -1 $-1 $463 0 $486 1.25 $501 $529 forward @7 unknown #
point $-1 -1 $-1 165.5 -118.75000000000001 0 #
edge $-1 -1 $-1 $468 0 $484 1.25 $465 $530 forward @7 unknown #
face $-1 -1 $-1 $472 $467 $2 $-1 $531 forward single #
point $-1 -1 $-1 -165.5 -118.75000000000001 0 #
straight-curve $-1 -1 $-1 -165.5 118.74999999999999 0 0 0 10 I I #
straight-curve $-1 -1 $-1 165.5 118.74999999999999 0 0 0 10 I I #
plane-surface $-1 -1 $-1 165.5 118.74999999999999 0 0 1 0 -10 -0 -0 forward_v I I I I #
coedge $-1 -1 $-1 $513 $513 $475 $514 forward $495 $-1 #
edge $-1 -1 $-1 $532 0 $532 6.2831853071795862 $513 $533 forward @7 unknown #
vertex $-1 -1 $-1 $478 $534 #
ellipse-curve $-1 -1 $-1 150.49999999993747 -108.75000000000058 3.0000000000000004 -0 -0 -1 -3.25 0 0 1 I I #
point $-1 -1 $-1 147.24999999993747 103.75 3.0000000000000004 #
straight-curve $-1 -1 $-1 165.5 -118.75000000000001 12.5 10 0 0 I I #
point $-1 -1 $-1 -165.5 -118.75000000000001 12.5 #
point $-1 -1 $-1 165.5 -118.75000000000001 12.5 #
coedge $-1 -1 $-1 $521 $521 $490 $522 reversed $527 $-1 #
edge $-1 -1 $-1 $535 -3.1415926535897931 $535 3.1415926535897931 $490 $536 forward @7 unknown #
face $-1 -1 $-1 $508 $503 $2 $-1 $537 forward single #
plane-surface $-1 -1 $-1 165.5 -118.75000000000001 0 1 0 0 0 10 0 forward_v I I I I #
vertex $-1 -1 $-1 $494 $538 #
ellipse-curve $-1 -1 $-1 150.49999999993747 -108.75000000000058 2.9999999999999716 -0 -0 -1 -1.7000000000000002 0 0 1 I I #
loop $-1 -1 $-1 $-1 $521 $448 #
point $-1 -1 $-1 152.19999999993746 103.75 2.9999999999999716 #
straight-curve $-1 -1 $-1 165.5 -118.75000000000001 0 0 0 10 I I #
straight-curve $-1 -1 $-1 -165.5 -118.75000000000001 0 0 0 10 I I #
plane-surface $-1 -1 $-1 -165.5 118.74999999999999 0 -1 0 0 -0 -10 -0 forward_v I I I I #
vertex $-1 -1 $-1 $514 $539 #
ellipse-curve $-1 -1 $-1 -150.49999999999994 103.75 3.0000000000000004 -0 -0 -1 -3.25 0 0 1 I I #
point $-1 -1 $-1 147.24999999993747 -108.75000000000058 3.0000000000000004 #
vertex $-1 -1 $-1 $522 $540 #
ellipse-curve $-1 -1 $-1 -150.49999999999994 103.75 2.9999999999999716 -0 -0 -1 -1.7000000000000002 0 0 1 I I #
plane-surface $-1 -1 $-1 -165.5 -118.75000000000001 0 0 -1 0 10 0 0 forward_v I I I I #
point $-1 -1 $-1 152.19999999993746 -108.75000000000058 2.9999999999999716 #
point $-1 -1 $-1 -153.74999999999994 103.75 3.0000000000000004 #
point $-1 -1 $-1 -148.79999999999993 103.75 2.9999999999999716 #
End-of-ACIS-data 