700 0 1 0           
33 Autodesk Inventor 17.0.13800.0000 19 ASM 218.0.0.5119 NT 24 Fri Oct 18 14:28:12 2013 
25.399999999999999 9.9999999999999995e-007 1e-010 
body $-1 -1 $-1 $1 $-1 $-1 #
lump $-1 -1 $-1 $-1 $2 $0 #
shell $-1 -1 $-1 $-1 $-1 $3 $-1 $1 #
face $-1 -1 $-1 $4 $5 $2 $-1 $6 forward single #
face $-1 -1 $-1 $7 $8 $2 $-1 $9 forward single #
loop $-1 -1 $-1 $-1 $10 $3 #
plane-surface $-1 -1 $-1 -1.3987061727561026e-015 5.0393700787401565 0 -1 -2.7755575615628918e-016 0 1.0927391974657054e-016 -0.39370078740157477 0 forward_v I I I I #
face $-1 -1 $-1 $11 $12 $2 $-1 $13 forward single #
loop $-1 -1 $-1 $-1 $14 $4 #
plane-surface $-1 -1 $-1 5.8661417322834639 5.0393700787401574 0 -1.1921857982552014e-016 1 0 -0.39370078740157477 -4.6936448750204774e-017 0 forward_v I I I I #
coedge $-1 -1 $-1 $15 $16 $17 $18 forward $5 $-1 #
face $-1 -1 $-1 $19 $20 $2 $-1 $21 forward single #
loop $-1 -1 $-1 $-1 $22 $7 #
plane-surface $-1 -1 $-1 5.866141732283455 0 0 1 -1.8041124150158794e-015 0 7.1028047835270834e-016 0.39370078740157477 0 forward_v I I I I #
coedge $-1 -1 $-1 $23 $24 $25 $26 forward $8 $-1 #
coedge $-1 -1 $-1 $27 $10 $28 $29 forward $5 $-1 #
coedge $-1 -1 $-1 $10 $27 $23 $30 reversed $5 $-1 #
coedge $-1 -1 $-1 $25 $31 $10 $18 reversed $32 $-1 #
edge $-1 -1 $-1 $33 0 $34 12.799999999999999 $10 $35 forward @7 unknown #
face $-1 -1 $-1 $36 $37 $2 $-1 $38 forward single #
loop $-1 -1 $-1 $-1 $39 $11 #
plane-surface $-1 -1 $-1 0 0 0 0 -1 0 0.39370078740157477 0 0 forward_v I I I I #
coedge $-1 -1 $-1 $40 $41 $42 $43 forward $12 $-1 #
coedge $-1 -1 $-1 $44 $14 $16 $30 forward $8 $-1 #
coedge $-1 -1 $-1 $14 $44 $40 $45 reversed $8 $-1 #
coedge $-1 -1 $-1 $42 $17 $14 $26 reversed $32 $-1 #
edge $-1 -1 $-1 $46 0 $33 14.900000000000004 $14 $47 forward @7 unknown #
coedge $-1 -1 $-1 $16 $15 $48 $49 reversed $5 $-1 #
coedge $-1 -1 $-1 $39 $50 $15 $29 reversed $20 $-1 #
edge $-1 -1 $-1 $34 0 $51 0.63500000000000001 $28 $52 forward @7 unknown #
edge $-1 -1 $-1 $33 0 $53 0.63500000000000001 $23 $54 forward @7 unknown #
coedge $-1 -1 $-1 $17 $42 $39 $55 reversed $32 $-1 #
loop $-1 -1 $-1 $-1 $31 $36 #
vertex $-1 -1 $-1 $26 $56 #
vertex $-1 -1 $-1 $55 $57 #
straight-curve $-1 -1 $-1 -1.3987061727561026e-015 5.0393700787401565 0 1.0927391974657054e-016 -0.39370078740157477 0 F 0 F 12.799999999999999 #
face $-1 -1 $-1 $-1 $32 $2 $-1 $58 reversed single #
loop $-1 -1 $-1 $-1 $59 $19 #
plane-surface $-1 -1 $-1 2.9330708661417302 2.51968503937008 0.24999999999999997 0 0 1 0.39370078740157477 0 0 forward_v I I I I #
coedge $-1 -1 $-1 $60 $28 $31 $55 forward $20 $-1 #
coedge $-1 -1 $-1 $61 $22 $24 $45 forward $12 $-1 #
coedge $-1 -1 $-1 $22 $61 $60 $62 reversed $12 $-1 #
coedge $-1 -1 $-1 $31 $25 $22 $43 reversed $32 $-1 #
edge $-1 -1 $-1 $63 0 $46 12.800000000000001 $22 $64 forward @7 unknown #
coedge $-1 -1 $-1 $24 $23 $65 $66 reversed $8 $-1 #
edge $-1 -1 $-1 $46 0 $67 0.63500000000000001 $40 $68 forward @7 unknown #
vertex $-1 -1 $-1 $43 $69 #
straight-curve $-1 -1 $-1 5.8661417322834639 5.0393700787401574 0 -0.39370078740157477 -4.6936448750204774e-017 0 F 0 F 14.900000000000004 #
coedge $-1 -1 $-1 $59 $65 $27 $49 forward $37 $-1 #
edge $-1 -1 $-1 $53 0 $51 12.799999999999999 $27 $70 forward @7 unknown #
coedge $-1 -1 $-1 $28 $60 $59 $71 reversed $20 $-1 #
vertex $-1 -1 $-1 $29 $72 #
straight-curve $-1 -1 $-1 0 0 0 0 0 0.39370078740157477 I I #
vertex $-1 -1 $-1 $30 $73 #
straight-curve $-1 -1 $-1 -1.3987061727561026e-015 5.0393700787401565 0 0 0 0.39370078740157477 I I #
edge $-1 -1 $-1 $34 0 $63 14.899999999999977 $39 $74 forward @7 unknown #
point $-1 -1 $-1 -1.3987061727561026e-015 5.0393700787401565 0 #
point $-1 -1 $-1 0 0 0 #
plane-surface $-1 -1 $-1 2.9330708661417302 2.51968503937008 0 0 0 1 0.39370078740157477 0 0 forward_v I I I I #
coedge $-1 -1 $-1 $75 $48 $50 $71 forward $37 $-1 #
coedge $-1 -1 $-1 $50 $39 $41 $62 forward $20 $-1 #
coedge $-1 -1 $-1 $41 $40 $75 $76 reversed $12 $-1 #
edge $-1 -1 $-1 $63 0 $77 0.63500000000000001 $60 $78 forward @7 unknown #
vertex $-1 -1 $-1 $55 $79 #
straight-curve $-1 -1 $-1 5.866141732283455 0 0 7.1028047835270834e-016 0.39370078740157477 0 F 0 F 12.800000000000001 #
coedge $-1 -1 $-1 $48 $75 $44 $66 forward $37 $-1 #
edge $-1 -1 $-1 $67 0 $53 14.900000000000004 $44 $80 forward @7 unknown #
vertex $-1 -1 $-1 $45 $81 #
straight-curve $-1 -1 $-1 5.8661417322834639 5.0393700787401574 0 0 0 0.39370078740157477 I I #
point $-1 -1 $-1 5.8661417322834639 5.0393700787401574 0 #
straight-curve $-1 -1 $-1 -1.3987061727561026e-015 5.0393700787401565 0.24999999999999997 1.0927391974657054e-016 -0.39370078740157477 0 I I #
edge $-1 -1 $-1 $51 0 $77 14.899999999999977 $50 $82 forward @7 unknown #
point $-1 -1 $-1 0 0 0.24999999999999997 #
point $-1 -1 $-1 -1.3987061727561026e-015 5.0393700787401565 0.24999999999999997 #
straight-curve $-1 -1 $-1 0 0 0 0.39370078740157477 0 0 F 0 F 14.899999999999977 #
coedge $-1 -1 $-1 $65 $59 $61 $76 forward $37 $-1 #
edge $-1 -1 $-1 $77 0 $67 12.800000000000001 $61 $83 forward @7 unknown #
vertex $-1 -1 $-1 $62 $84 #
straight-curve $-1 -1 $-1 5.866141732283455 0 0 0 0 0.39370078740157477 I I #
point $-1 -1 $-1 5.866141732283455 0 0 #
straight-curve $-1 -1 $-1 5.8661417322834639 5.0393700787401574 0.24999999999999997 -0.39370078740157477 -4.6936448750204774e-017 0 I I #
point $-1 -1 $-1 5.8661417322834639 5.0393700787401574 0.24999999999999997 #
straight-curve $-1 -1 $-1 0 0 0.24999999999999997 0.39370078740157477 0 0 I I #
straight-curve $-1 -1 $-1 5.866141732283455 0 0.24999999999999997 7.1028047835270834e-016 0.39370078740157477 0 I I #
point $-1 -1 $-1 5.866141732283455 0 0.24999999999999997 #
End-of-ACIS-data 