700 0 1 0           
33 Autodesk Inventor 17.0.13800.0000 19 ASM 218.0.0.5119 NT 24 Fri Oct 18 14:28:13 2013 
1 9.9999999999999995e-007 1e-010 
body $-1 -1 $-1 $1 $-1 $-1 #
lump $-1 -1 $-1 $-1 $2 $0 #
shell $-1 -1 $-1 $-1 $-1 $3 $-1 $1 #
face $-1 -1 $-1 $4 $5 $2 $-1 $6 reversed single #
face $-1 -1 $-1 $7 $8 $2 $-1 $9 reversed single #
loop $-1 -1 $-1 $-1 $10 $3 #
plane-surface $-1 -1 $-1 5.0000000000000053 18.233161507461926 15.000000000000004 1.8658496593147679e-016 0.86602540378443948 0.49999999999999878 -6.2051493000955867e-015 -4.9999999999999893 8.6602540378444051 forward_v I I I I #
face $-1 -1 $-1 $11 $12 $2 $-1 $13 reversed single #
loop $-1 -1 $-1 $-1 $14 $4 #
plane-surface $-1 -1 $-1 5.0000000000000071 16.616580753730968 12.200000000000008 6.3067417578153879e-016 0.86602540378443738 -0.50000000000000233 -1.486701445438658e-015 5.0000000000000249 8.660254037844382 forward_v I I I I #
coedge $-1 -1 $-1 $15 $16 $17 $18 reversed $5 $-1 #
face $-1 -1 $-1 $19 $20 $2 $-1 $21 reversed single #
loop $-1 -1 $-1 $-1 $22 $7 #
plane-surface $-1 -1 $-1 5.0000000000000053 13.383419246269064 12.200000000000008 4.4408920985006262e-016 3.5370548060658356e-016 -1 4.7184478546569137e-015 10.000000000000007 3.2594990499095527e-015 forward_v I I I I #
coedge $-1 -1 $-1 $23 $24 $25 $26 reversed $8 $-1 #
coedge $-1 -1 $-1 $27 $10 $28 $29 reversed $5 $-1 #
coedge $-1 -1 $-1 $10 $27 $23 $30 reversed $5 $-1 #
coedge $-1 -1 $-1 $31 $32 $10 $18 forward $33 $-1 #
edge $-1 -1 $-1 $34 -0.24248711305964346 $35 0.080829037686547783 $17 $36 forward @7 unknown #
face $-1 -1 $-1 $37 $38 $2 $-1 $39 reversed single #
loop $-1 -1 $-1 $40 $41 $11 #
plane-surface $-1 -1 $-1 2.5000000000000027 15.00000000000002 15.000000000000014 -1 1.9428902930940235e-016 -2.7755575615628909e-016 -4.7184478546569169e-015 -10.000000000000007 3.6082248300317611e-015 forward_v I I I I #
coedge $-1 -1 $-1 $42 $43 $44 $45 reversed $12 $-1 #
coedge $-1 -1 $-1 $46 $14 $16 $30 forward $8 $-1 #
coedge $-1 -1 $-1 $14 $46 $42 $47 forward $8 $-1 #
coedge $-1 -1 $-1 $44 $48 $14 $26 forward $49 $-1 #
edge $-1 -1 $-1 $35 -1.5707963267948981 $50 -1.2870022175865714 $25 $51 forward @7 unknown #
coedge $-1 -1 $-1 $16 $15 $41 $52 forward $5 $-1 #
coedge $-1 -1 $-1 $53 $54 $15 $29 forward $55 $-1 #
edge $-1 -1 $-1 $56 -0.25 $34 -4.4408920985006222e-016 $15 $57 forward @7 unknown #
edge $-1 -1 $-1 $35 5.5511151231257778e-016 $58 0.25 $16 $59 forward @7 unknown #
coedge $-1 -1 $-1 $60 $17 $48 $61 reversed $33 $-1 #
coedge $-1 -1 $-1 $17 $62 $53 $63 forward $33 $-1 #
loop $-1 -1 $-1 $-1 $32 $64 #
vertex $-1 -1 $-1 $63 $65 #
vertex $-1 -1 $-1 $26 $66 #
straight-curve $-1 -1 $-1 5 17.82901631902919 15.700000000000006 0 4.9999999999999876 -8.6602540378443944 I I #
face $-1 -1 $-1 $67 $68 $2 $-1 $69 reversed single #
loop $-1 -1 $-1 $-1 $70 $19 #
plane-surface $-1 -1 $-1 5.0000000000000036 11.766838492538108 15.000000000000011 -1.865849659314756e-016 -0.8660254037844386 -0.50000000000000033 6.205149300095589e-015 5.0000000000000044 -8.6602540378443944 forward_v I I I I #
loop $-1 -1 $-1 $-1 $71 $11 #
coedge $-1 -1 $-1 $72 $73 $27 $52 reversed $20 $-1 #
coedge $-1 -1 $-1 $74 $22 $24 $47 reversed $12 $-1 #
coedge $-1 -1 $-1 $22 $75 $76 $77 reversed $12 $-1 #
coedge $-1 -1 $-1 $78 $25 $22 $45 forward $49 $-1 #
edge $-1 -1 $-1 $50 -0.28665807537309673 $79 -0.125 $44 $80 forward @7 unknown #
coedge $-1 -1 $-1 $24 $23 $73 $81 forward $8 $-1 #
edge $-1 -1 $-1 $82 -0.25 $50 0.039999999999999113 $42 $83 forward @7 unknown #
coedge $-1 -1 $-1 $25 $84 $31 $61 forward $49 $-1 #
loop $-1 -1 $-1 $-1 $25 $85 #
vertex $-1 -1 $-1 $26 $86 #
ellipse-curve $-1 -1 $-1 15 18.233161507461915 15 -6.3067417578153879e-016 -0.86602540378443738 0.50000000000000233 9.9920072216264089e-015 -5.7735026918962928 -9.9999999999999982 0.86602540378443726 I I #
edge $-1 -1 $-1 $56 -0.32331615074619069 $58 -0 $27 $87 forward @7 unknown #
coedge $-1 -1 $-1 $88 $28 $32 $63 reversed $55 $-1 #
coedge $-1 -1 $-1 $28 $89 $72 $90 forward $55 $-1 #
loop $-1 -1 $-1 $-1 $53 $67 #
vertex $-1 -1 $-1 $29 $91 #
straight-curve $-1 -1 $-1 5.0000000000000044 16.616580753730975 17.800000000000015 10.000000000000009 -1.9428902930940251e-015 2.7755575615628933e-015 I I #
vertex $-1 -1 $-1 $30 $92 #
straight-curve $-1 -1 $-1 5.0000000000000053 18.233161507461926 15.000000000000004 -10.000000000000009 1.9428902930940251e-015 -2.7755575615628933e-015 I I #
coedge $-1 -1 $-1 $62 $31 $93 $94 reversed $33 $-1 #
edge $-1 -1 $-1 $95 -1.125 $35 -0.44831615074619258 $31 $96 forward @7 tangent #
coedge $-1 -1 $-1 $32 $60 $97 $98 reversed $33 $-1 #
edge $-1 -1 $-1 $99 -0.08082903768654881 $34 0.080829037686548588 $32 $100 forward @7 unknown #
face $-1 -1 $-1 $85 $33 $2 $-1 $101 forward single #
point $-1 -1 $-1 5 16.616580753730975 17.800000000000015 #
point $-1 -1 $-1 5 18.233161507461926 15.000000000000004 #
face $-1 -1 $-1 $102 $55 $2 $-1 $103 reversed single #
loop $-1 -1 $-1 $-1 $104 $37 #
plane-surface $-1 -1 $-1 5.0000000000000036 13.383419246269067 17.800000000000018 -6.3067417578153879e-016 -0.86602540378443782 0.50000000000000167 1.4867014454386633e-015 -5.0000000000000178 -8.6602540378443873 forward_v I I I I #
coedge $-1 -1 $-1 $105 $106 $107 $108 reversed $38 $-1 #
coedge $-1 -1 $-1 $71 $71 $109 $110 forward $40 $-1 #
coedge $-1 -1 $-1 $111 $41 $54 $90 reversed $20 $-1 #
coedge $-1 -1 $-1 $41 $112 $46 $81 reversed $20 $-1 #
coedge $-1 -1 $-1 $75 $42 $112 $113 forward $12 $-1 #
coedge $-1 -1 $-1 $43 $74 $105 $114 forward $12 $-1 #
coedge $-1 -1 $-1 $107 $115 $43 $77 forward $116 $-1 #
edge $-1 -1 $-1 $79 -1.5707963267948966 $117 -1.4015963254614385 $76 $118 forward @7 unknown #
coedge $-1 -1 $-1 $119 $44 $115 $120 forward $49 $-1 #
vertex $-1 -1 $-1 $120 $121 #
straight-curve $-1 -1 $-1 5.3999999999999968 13.75 12.200000000000008 -0 -10 -0 I I #
edge $-1 -1 $-1 $58 -0.32331615074619008 $82 -0 $46 $122 forward @7 unknown #
vertex $-1 -1 $-1 $47 $123 #
straight-curve $-1 -1 $-1 5.0000000000000071 16.616580753730968 12.200000000000008 10.000000000000009 -1.9428902930940251e-015 2.7755575615628933e-015 I I #
coedge $-1 -1 $-1 $48 $124 $125 $126 forward $49 $-1 #
face $-1 -1 $-1 $127 $49 $2 $-1 $128 forward single #
point $-1 -1 $-1 5.3999999999999986 16.616580753730968 12.200000000000008 #
straight-curve $-1 -1 $-1 2.5000000000000044 18.233161507461926 15.000000000000004 6.2051493000955867e-015 4.9999999999999893 -8.6602540378444051 I I #
coedge $-1 -1 $-1 $89 $53 $129 $130 reversed $55 $-1 #
coedge $-1 -1 $-1 $54 $88 $131 $132 reversed $55 $-1 #
edge $-1 -1 $-1 $133 -0.32331615074619036 $56 -0 $54 $134 forward @7 unknown #
point $-1 -1 $-1 2.5000000000000018 16.616580753730975 17.800000000000015 #
point $-1 -1 $-1 2.5000000000000044 18.233161507461926 15.000000000000004 #
coedge $-1 -1 $-1 $135 $136 $60 $94 forward $137 $-1 #
edge $-1 -1 $-1 $138 -0.78539816339744806 $95 0.7853981633974485 $60 $139 forward @7 unknown #
vertex $-1 -1 $-1 $94 $140 #
straight-curve $-1 -1 $-1 5 13.75 15 0 -10 0 F -4.2250009999999998 F 3.9750010000000002 #
coedge $-1 -1 $-1 $141 $129 $62 $98 forward $142 $-1 #
edge $-1 -1 $-1 $99 0.40500000000000158 $138 1.125 $62 $143 forward @7 tangent #
vertex $-1 -1 $-1 $98 $144 #
straight-curve $-1 -1 $-1 5 15.808290376865488 17.800000000000015 0 10 -1.0198392953816762e-014 I I #
plane-surface $-1 -1 $-1 5 15 15 1 0 0 0 0 -10 forward_v I I I I #
face $-1 -1 $-1 $145 $146 $2 $-1 $147 reversed single #
plane-surface $-1 -1 $-1 5.0000000000000044 16.616580753730975 17.800000000000015 -4.4408920985006202e-016 1.0198392953816763e-015 1 -4.71844785465692e-015 -10.000000000000007 1.0475948709973072e-014 forward_v I I I I #
coedge $-1 -1 $-1 $148 $131 $149 $150 reversed $68 $-1 #
coedge $-1 -1 $-1 $151 $70 $75 $114 reversed $38 $-1 #
coedge $-1 -1 $-1 $70 $151 $148 $152 forward $38 $-1 #
coedge $-1 -1 $-1 $153 $76 $70 $108 forward $116 $-1 #
edge $-1 -1 $-1 $117 -1.7399963281283564 $154 -1.4015963254614361 $107 $155 forward @7 unknown #
coedge $-1 -1 $-1 $109 $109 $71 $110 reversed $146 $-1 #
edge $-1 -1 $-1 $156 -3.1415926535897931 $156 3.1415926535897931 $109 $157 forward @7 unknown #
coedge $-1 -1 $-1 $158 $72 $159 $160 reversed $20 $-1 #
coedge $-1 -1 $-1 $73 $158 $74 $113 reversed $20 $-1 #
edge $-1 -1 $-1 $82 -0.32331615074619013 $161 -0 $74 $162 forward @7 unknown #
edge $-1 -1 $-1 $161 -0.25 $117 0.053708994723785382 $105 $163 forward @7 unknown #
coedge $-1 -1 $-1 $76 $164 $78 $120 reversed $116 $-1 #
loop $-1 -1 $-1 $-1 $107 $165 #
vertex $-1 -1 $-1 $77 $166 #
ellipse-curve $-1 -1 $-1 15.000000000000002 15 12.200000000000006 -4.4408920985006262e-016 -3.5370548060658356e-016 1 0 -9.6000000000000014 -3.3955726138232025e-015 1 I I #
coedge $-1 -1 $-1 $167 $78 $168 $169 forward $49 $-1 #
edge $-1 -1 $-1 $79 0.28379410920832693 $170 1.2415645610104891 $78 $171 reversed @7 tangent #
point $-1 -1 $-1 5.3999999999999959 15 12.200000000000008 #
straight-curve $-1 -1 $-1 2.5000000000000044 16.616580753730968 12.200000000000008 1.486701445438658e-015 -5.0000000000000249 -8.660254037844382 I I #
point $-1 -1 $-1 2.5000000000000044 16.616580753730968 12.200000000000008 #
coedge $-1 -1 $-1 $84 $167 $172 $173 forward $49 $-1 #
coedge $-1 -1 $-1 $174 $175 $84 $126 reversed $176 $-1 #
edge $-1 -1 $-1 $177 -0.78539816339744828 $95 0.78539816339744828 $84 $178 forward @7 unknown #
face $-1 -1 $-1 $179 $180 $2 $-1 $181 reversed single #
cone-surface $-1 -1 $-1 15 13.75 15 -0 -1 -0 -7.0710678118654746 0 -7.0710678118654746 1 I I 0 -1 9.9999999999999982 forward I I I I #
coedge $-1 -1 $-1 $97 $149 $88 $130 forward $142 $-1 #
edge $-1 -1 $-1 $182 0.62302756581275376 $99 0.78539816339744883 $129 $183 forward @7 unknown #
coedge $-1 -1 $-1 $104 $159 $89 $132 forward $68 $-1 #
edge $-1 -1 $-1 $133 -0.25 $182 0.013153169601954994 $89 $184 forward @7 unknown #
vertex $-1 -1 $-1 $132 $185 #
straight-curve $-1 -1 $-1 2.5000000000000018 16.616580753730975 17.800000000000015 4.71844785465692e-015 10.000000000000007 -1.0475948709973072e-014 I I #
coedge $-1 -1 $-1 $186 $93 $175 $187 forward $137 $-1 #
coedge $-1 -1 $-1 $93 $186 $188 $189 forward $137 $-1 #
loop $-1 -1 $-1 $-1 $93 $190 #
vertex $-1 -1 $-1 $94 $191 #
ellipse-curve $-1 -1 $-1 5 15 15 -1 -0 -0 -3.140184917367551e-015 7.0710678118654737 7.0710678118654773 1 I I #
point $-1 -1 $-1 5 25 15 #
coedge $-1 -1 $-1 $192 $97 $193 $194 forward $142 $-1 #
loop $-1 -1 $-1 $-1 $129 $195 #
straight-curve $-1 -1 $-1 5 15 13.75 0 0 10 F -3.9750010000000002 F 4.2250009999999998 #
point $-1 -1 $-1 5 15 17.800000000000015 #
face $-1 -1 $-1 $196 $197 $2 $-1 $198 reversed single #
loop $-1 -1 $-1 $199 $109 $102 #
cone-surface $-1 -1 $-1 5.0000000000000044 15.000000000000016 15.000000000000009 1 -1.9428902930940235e-016 2.7755575615628909e-016 6.8833827526759757e-016 -5.1625370645069803e-016 -1.550000000000002 1 I I 0 1 1.5500000000000003 forward I I I I #
coedge $-1 -1 $-1 $159 $104 $106 $152 reversed $68 $-1 #
coedge $-1 -1 $-1 $129 $200 $104 $150 forward $142 $-1 #
edge $-1 -1 $-1 $154 1.2415645610104893 $182 1.4084257292102009 $149 $201 forward @7 unknown #
coedge $-1 -1 $-1 $106 $105 $158 $202 forward $38 $-1 #
edge $-1 -1 $-1 $203 -0.25 $154 0.053708994723785826 $148 $204 forward @7 unknown #
coedge $-1 -1 $-1 $205 $107 $200 $206 reversed $116 $-1 #
vertex $-1 -1 $-1 $108 $207 #
ellipse-curve $-1 -1 $-1 15 12.575128869403581 13.600000000000003 1.865849659314756e-016 0.8660254037844386 0.50000000000000033 0 -4.8000000000000052 8.3138438763306119 1 I I #
vertex $-1 -1 $-1 $110 $208 #
ellipse-curve $-1 -1 $-1 2.5000000000000027 15.000000000000016 15.000000000000009 -1 1.9428902930940235e-016 -2.7755575615628909e-016 6.8833827526759757e-016 -5.1625370645069803e-016 -1.550000000000002 1 I I #
coedge $-1 -1 $-1 $112 $111 $151 $202 reversed $20 $-1 #
coedge $-1 -1 $-1 $131 $148 $111 $160 forward $68 $-1 #
edge $-1 -1 $-1 $203 -0.32331615074619097 $133 0 $159 $209 forward @7 unknown #
vertex $-1 -1 $-1 $114 $210 #
straight-curve $-1 -1 $-1 2.5000000000000036 13.383419246269064 12.200000000000008 -4.7184478546569137e-015 -10.000000000000007 -3.2594990499095527e-015 I I #
straight-curve $-1 -1 $-1 5.0000000000000053 13.383419246269064 12.200000000000008 10.000000000000009 -1.9428902930940251e-015 2.7755575615628933e-015 I I #
coedge $-1 -1 $-1 $115 $211 $212 $213 forward $116 $-1 #
face $-1 -1 $-1 $214 $116 $2 $-1 $215 forward single #
point $-1 -1 $-1 5.5370899472378596 13.383419246269064 12.200000000000008 #
coedge $-1 -1 $-1 $124 $119 $216 $217 forward $49 $-1 #
coedge $-1 -1 $-1 $218 $219 $119 $169 reversed $220 $-1 #
edge $-1 -1 $-1 $170 1.2415645610104888 $221 1.4084257292102003 $119 $222 forward @7 unknown #
vertex $-1 -1 $-1 $169 $223 #
ellipse-curve $-1 -1 $-1 15 15 15 0 1 0 -10 0 0 1 F -1.5707963267948966 F -0 #
coedge $-1 -1 $-1 $224 $225 $124 $173 reversed $226 $-1 #
edge $-1 -1 $-1 $227 0.40500000000000069 $177 1.1250000000000004 $172 $228 forward @7 tangent #
coedge $-1 -1 $-1 $229 $125 $230 $231 reversed $176 $-1 #
coedge $-1 -1 $-1 $125 $232 $135 $187 reversed $176 $-1 #
loop $-1 -1 $-1 $-1 $174 $233 #
vertex $-1 -1 $-1 $231 $234 #
ellipse-curve $-1 -1 $-1 15 25.000000000000004 15 -1.7763568394002506e-016 1 0 -7.0710678118654746 0 -7.0710678118654746 1 I I #
face $-1 -1 $-1 $235 $236 $2 $-1 $237 reversed single #
loop $-1 -1 $-1 $-1 $238 $127 #
plane-surface $-1 -1 $-1 15 5 11.766838492538096 -0.50000000000000044 0 -0.86602540378443837 -8.6602540378443837 0 5.0000000000000044 forward_v I I I I #
vertex $-1 -1 $-1 $150 $239 #
ellipse-curve $-1 -1 $-1 15 15 17.800000000000015 4.4408920985006202e-016 -1.0198392953816763e-015 -1 -7.0710678118654746 -7.0710678118654746 0 1 I I #
straight-curve $-1 -1 $-1 5.0000000000000036 13.383419246269067 17.800000000000018 10.000000000000009 -1.9428902930940251e-015 2.7755575615628933e-015 I I #
point $-1 -1 $-1 2.5000000000000004 13.383419246269071 17.800000000000018 #
coedge $-1 -1 $-1 $136 $135 $240 $241 forward $137 $-1 #
edge $-1 -1 $-1 $95 0.74999999999999956 $242 1.2499999999999996 $175 $243 forward @7 tangent #
coedge $-1 -1 $-1 $244 $193 $136 $189 reversed $245 $-1 #
edge $-1 -1 $-1 $246 -1.2499999999999998 $138 -0.74999999999999978 $188 $247 forward @7 tangent #
face $-1 -1 $-1 $248 $137 $2 $-1 $249 forward single #
point $-1 -1 $-1 5 15 25 #
coedge $-1 -1 $-1 $250 $141 $251 $252 forward $142 $-1 #
coedge $-1 -1 $-1 $188 $253 $141 $194 reversed $245 $-1 #
edge $-1 -1 $-1 $138 -0.78539816339744828 $254 0.78539816339744828 $141 $255 forward @7 unknown #
face $-1 -1 $-1 $256 $142 $2 $-1 $257 forward single #
face $-1 -1 $-1 $258 $220 $2 $-1 $259 reversed single #
loop $-1 -1 $-1 $-1 $212 $145 #
plane-surface $-1 -1 $-1 11.766838492538101 15.000000000000004 5 -0.86602540378443849 -0.50000000000000044 1.4874168143337583e-017 5.0000000000000036 -8.6602540378443855 2.478074198696142e-015 forward_v I I I I #
loop $-1 -1 $-1 $-1 $260 $102 #
coedge $-1 -1 $-1 $149 $261 $153 $206 forward $142 $-1 #
ellipse-curve $-1 -1 $-1 15 15 20.599999999999984 6.3067417578153879e-016 0.86602540378443782 -0.50000000000000167 -7.2164496600635175e-015 -10 -17.320508075688696 0.50000000000000167 I I #
edge $-1 -1 $-1 $161 -0.32331615074619052 $203 -0 $151 $262 forward @7 unknown #
vertex $-1 -1 $-1 $152 $263 #
straight-curve $-1 -1 $-1 5.0000000000000036 11.766838492538108 15.000000000000011 10.000000000000009 -1.9428902930940251e-015 2.7755575615628933e-015 I I #
coedge $-1 -1 $-1 $264 $153 $265 $266 forward $116 $-1 #
edge $-1 -1 $-1 $267 0.28379410920832765 $154 1.2415645610104897 $200 $268 reversed @7 tangent #
point $-1 -1 $-1 5.5370899472378623 11.766838492538108 15.000000000000011 #
point $-1 -1 $-1 2.5000000000000018 15.000000000000016 16.550000000000011 #
straight-curve $-1 -1 $-1 2.5000000000000004 13.383419246269071 17.800000000000018 -1.4867014454386633e-015 5.0000000000000178 8.6602540378443873 I I #
point $-1 -1 $-1 2.5000000000000036 13.383419246269064 12.200000000000008 #
coedge $-1 -1 $-1 $164 $269 $270 $271 forward $116 $-1 #
coedge $-1 -1 $-1 $272 $273 $164 $213 reversed $197 $-1 #
edge $-1 -1 $-1 $274 2.9723926522563331 $170 3.3107926549232536 $164 $275 forward @7 unknown #
face $-1 -1 $-1 $276 $277 $2 $-1 $278 forward single #
sphere-surface $-1 -1 $-1 15 15 15 -10 -0.57735026918962584 -0.57735026918962584 -0.57735026918962584 0.40824829046386307 -0.81649658092772615 0.40824829046386307 forward_v I I I I #
coedge $-1 -1 $-1 $279 $280 $167 $217 reversed $281 $-1 #
edge $-1 -1 $-1 $221 0.62302756581275243 $227 0.78539816339744839 $167 $282 forward @7 unknown #
coedge $-1 -1 $-1 $283 $168 $273 $284 reversed $220 $-1 #
coedge $-1 -1 $-1 $168 $283 $279 $285 forward $220 $-1 #
loop $-1 -1 $-1 $-1 $168 $196 #
vertex $-1 -1 $-1 $169 $286 #
ellipse-curve $-1 -1 $-1 15 20.599999999999984 15 0.86602540378443804 -0.50000000000000122 2.0717043678169399e-016 -10 -17.320508075688721 -2.7755575615628914e-015 0.50000000000000111 I I #
point $-1 -1 $-1 11.766838492538101 15.000000000000004 5.5370899472378641 #
coedge $-1 -1 $-1 $287 $172 $280 $288 forward $226 $-1 #
coedge $-1 -1 $-1 $172 $289 $290 $291 reversed $226 $-1 #
loop $-1 -1 $-1 $-1 $287 $292 #
vertex $-1 -1 $-1 $173 $293 #
straight-curve $-1 -1 $-1 15 13.75 5 0 10 0 F -3.9750010000000002 F 4.2250009999999998 #
coedge $-1 -1 $-1 $232 $174 $294 $295 forward $176 $-1 #
coedge $-1 -1 $-1 $290 $296 $174 $231 forward $297 $-1 #
edge $-1 -1 $-1 $298 0 $177 0.5 $174 $299 forward @7 tangent #
coedge $-1 -1 $-1 $175 $229 $300 $301 forward $176 $-1 #
face $-1 -1 $-1 $302 $176 $2 $-1 $303 forward single #
point $-1 -1 $-1 15 25.000000000000004 5 #
face $-1 -1 $-1 $304 $305 $2 $-1 $306 reversed single #
loop $-1 -1 $-1 $-1 $307 $179 #
plane-surface $-1 -1 $-1 17.800000000000004 5 13.383419246269055 0.50000000000000111 0 -0.86602540378443804 -8.6602540378443802 -0 -5.0000000000000107 forward_v I I I I #
coedge $-1 -1 $-1 $308 $309 $264 $310 reversed $180 $-1 #
point $-1 -1 $-1 5.1315316960195538 13.383419246269071 17.800000000000018 #
coedge $-1 -1 $-1 $300 $311 $186 $241 reversed $312 $-1 #
edge $-1 -1 $-1 $242 -0.7853981633974485 $246 0.78539816339744806 $240 $313 forward @7 unknown #
vertex $-1 -1 $-1 $187 $314 #
straight-curve $-1 -1 $-1 12.499999999999996 25 15 -10 -1.7763568394002505e-015 -0 F -2.3500010000000007 F 4.3500009999999998 #
coedge $-1 -1 $-1 $315 $188 $311 $316 reversed $245 $-1 #
loop $-1 -1 $-1 $-1 $253 $317 #
vertex $-1 -1 $-1 $189 $318 #
straight-curve $-1 -1 $-1 12.499999999999998 15.000000000000002 25 10 1.7763568394002505e-015 0 F -4.3500009999999998 F 2.3500010000000007 #
face $-1 -1 $-1 $319 $320 $2 $-1 $321 forward single #
cone-surface $-1 -1 $-1 12.499999999999998 15.000000000000002 15 1 1.7763568394002506e-016 0 -3.140184917367551e-015 7.0710678118654737 7.0710678118654773 1 I I 0 1 10 forward I I I I #
coedge $-1 -1 $-1 $261 $192 $322 $323 forward $142 $-1 #
coedge $-1 -1 $-1 $324 $325 $192 $252 reversed $326 $-1 #
edge $-1 -1 $-1 $254 -1.125 $327 -0.4483161507461908 $251 $328 forward @7 tangent #
coedge $-1 -1 $-1 $193 $315 $329 $330 reversed $245 $-1 #
vertex $-1 -1 $-1 $331 $332 #
ellipse-curve $-1 -1 $-1 15 15 25 0 0 1 -7.0710678118654746 -7.0710678118654746 0 1 I I #
face $-1 -1 $-1 $292 $297 $2 $-1 $333 forward single #
cone-surface $-1 -1 $-1 15 15 13.75 0 0 1 -7.0710678118654746 -7.0710678118654746 0 1 I I 0 -1 9.9999999999999982 forward I I I I #
face $-1 -1 $-1 $334 $281 $2 $-1 $335 reversed single #
plane-surface $-1 -1 $-1 13.38341924626906 17.800000000000008 5 -0.86602540378443804 0.50000000000000122 -2.0717043678169399e-016 -5.0000000000000142 -8.660254037844382 1.3678511740709831e-015 forward_v I I I I #
coedge $-1 -1 $-1 $260 $260 $336 $337 reversed $199 $-1 #
coedge $-1 -1 $-1 $200 $250 $338 $339 forward $142 $-1 #
straight-curve $-1 -1 $-1 2.5000000000000009 11.766838492538108 15.000000000000011 -6.205149300095589e-015 -5.0000000000000044 8.6602540378443944 I I #
point $-1 -1 $-1 2.5000000000000009 11.766838492538108 15.000000000000011 #
coedge $-1 -1 $-1 $269 $205 $238 $310 forward $116 $-1 #
coedge $-1 -1 $-1 $338 $340 $205 $266 reversed $341 $-1 #
edge $-1 -1 $-1 $267 -1.5707963267948963 $342 -1.4015963254614365 $205 $343 forward @7 unknown #
vertex $-1 -1 $-1 $206 $344 #
ellipse-curve $-1 -1 $-1 15 15 15 0 0 1 0 -10 0 1 F -1.5707963267948966 F -0 #
coedge $-1 -1 $-1 $211 $264 $345 $346 reversed $116 $-1 #
coedge $-1 -1 $-1 $347 $348 $211 $271 reversed $349 $-1 #
edge $-1 -1 $-1 $350 -3.1415926535897931 $274 -2.9723926522563335 $211 $351 forward @7 unknown #
coedge $-1 -1 $-1 $352 $212 $348 $353 reversed $197 $-1 #
coedge $-1 -1 $-1 $212 $352 $218 $284 forward $197 $-1 #
vertex $-1 -1 $-1 $271 $354 #
ellipse-curve $-1 -1 $-1 12.575128869403578 13.600000000000001 15 0.86602540378443849 0.50000000000000044 -1.4874168143337583e-017 0 2.8558402835208136e-016 9.6000000000000014 1 I I #
face $-1 -1 $-1 $355 $356 $2 $-1 $357 reversed single #
loop $-1 -1 $-1 $-1 $358 $214 #
cone-surface $-1 -1 $-1 12.5 15 15 1 0 0 0 -7.0710678118654746 -7.0710678118654746 1 I I 0 -1 9.9999999999999982 forward I I I I #
coedge $-1 -1 $-1 $359 $216 $219 $285 reversed $281 $-1 #
coedge $-1 -1 $-1 $216 $360 $224 $288 reversed $281 $-1 #
loop $-1 -1 $-1 $-1 $216 $258 #
ellipse-curve $-1 -1 $-1 15 17.800000000000004 15 -9.0881699291916143e-016 -1 2.2204460492503118e-016 -7.0710678118654746 0 -7.0710678118654746 1 I I #
coedge $-1 -1 $-1 $219 $218 $361 $362 forward $220 $-1 #
edge $-1 -1 $-1 $363 -0.25 $170 0.053708994723786409 $218 $364 forward @7 unknown #
edge $-1 -1 $-1 $365 -0.25 $221 0.013153169601955556 $279 $366 forward @7 unknown #
point $-1 -1 $-1 13.383419246269062 17.800000000000008 5.1315316960195556 #
coedge $-1 -1 $-1 $289 $224 $367 $368 forward $226 $-1 #
edge $-1 -1 $-1 $227 0.044170962313451634 $369 0.20582903768654814 $224 $370 forward @7 unknown #
coedge $-1 -1 $-1 $225 $287 $371 $372 reversed $226 $-1 #
coedge $-1 -1 $-1 $373 $230 $225 $291 forward $297 $-1 #
edge $-1 -1 $-1 $177 -0.7853981633974485 $374 0.78539816339744828 $225 $375 forward @7 unknown #
face $-1 -1 $-1 $233 $226 $2 $-1 $376 forward single #
point $-1 -1 $-1 15 17.800000000000008 5 #
coedge $-1 -1 $-1 $377 $378 $229 $295 reversed $379 $-1 #
edge $-1 -1 $-1 $298 1.0000000000000002 $380 2.5 $229 $381 forward @7 unknown #
coedge $-1 -1 $-1 $230 $373 $377 $382 forward $297 $-1 #
loop $-1 -1 $-1 $-1 $290 $256 #
vertex $-1 -1 $-1 $295 $383 #
straight-curve $-1 -1 $-1 14.999999999999998 25 0 0 0 10 F -3.1000010000000002 F 3.6000010000000002 #
coedge $-1 -1 $-1 $384 $240 $232 $301 reversed $312 $-1 #
edge $-1 -1 $-1 $380 0 $242 1.5 $232 $385 forward @7 unknown #
face $-1 -1 $-1 $317 $386 $2 $-1 $387 forward single #
plane-surface $-1 -1 $-1 25 25.000000000000004 0 -1.7763568394002506e-016 1 0 -10 -1.7763568394002505e-015 0 forward_v I I I I #
face $-1 -1 $-1 $388 $389 $2 $-1 $390 reversed single #
loop $-1 -1 $-1 $-1 $391 $235 #
plane-surface $-1 -1 $-1 17.800000000000001 5 16.616580753730958 1 0 6.8677238799413012e-016 6.8677238799413012e-015 0 -10 forward_v I I I I #
coedge $-1 -1 $-1 $392 $393 $394 $395 reversed $236 $-1 #
coedge $-1 -1 $-1 $396 $238 $340 $397 reversed $180 $-1 #
coedge $-1 -1 $-1 $238 $396 $392 $398 forward $180 $-1 #
edge $-1 -1 $-1 $342 -0.16920000133346011 $399 0.1692000013334603 $264 $400 forward @7 unknown #
coedge $-1 -1 $-1 $240 $401 $244 $316 forward $312 $-1 #
loop $-1 -1 $-1 $-1 $240 $248 #
ellipse-curve $-1 -1 $-1 2.2204460492503131e-015 15 15 1 0 0 -3.140184917367551e-015 7.0710678118654737 7.0710678118654773 1 I I #
point $-1 -1 $-1 0 25 15 #
coedge $-1 -1 $-1 $253 $244 $402 $403 reversed $245 $-1 #
edge $-1 -1 $-1 $404 0 $246 1.5 $311 $405 forward @7 unknown #
face $-1 -1 $-1 $190 $245 $2 $-1 $406 forward single #
point $-1 -1 $-1 0 15 25 #
face $-1 -1 $-1 $407 $408 $2 $-1 $409 forward single #
loop $-1 -1 $-1 $312 $336 $248 #
plane-surface $-1 -1 $-1 0 25 0 -1 0 0 0 -10 0 forward_v I I I I #
coedge $-1 -1 $-1 $410 $411 $250 $323 reversed $412 $-1 #
edge $-1 -1 $-1 $327 -1.5707963267948961 $413 -1.287002217586569 $250 $414 forward @7 unknown #
coedge $-1 -1 $-1 $415 $251 $416 $331 reversed $326 $-1 #
coedge $-1 -1 $-1 $251 $417 $418 $419 forward $326 $-1 #
loop $-1 -1 $-1 $-1 $325 $355 #
vertex $-1 -1 $-1 $419 $420 #
straight-curve $-1 -1 $-1 15 5 13.75 0 0 -10 F -4.2250009999999998 F 3.9750010000000002 #
coedge $-1 -1 $-1 $421 $416 $253 $330 forward $386 $-1 #
edge $-1 -1 $-1 $254 -0.5 $422 0 $253 $423 forward @7 tangent #
edge $-1 -1 $-1 $424 -0.78539816339744828 $254 0.78539816339744828 $324 $425 forward @7 unknown #
point $-1 -1 $-1 15 5 25 #
cone-surface $-1 -1 $-1 15 15.000000000000002 0 0 0 1 7.0710678118654773 7.0710678118654737 0 1 I I 0 1 10 forward I I I I #
face $-1 -1 $-1 $426 $427 $2 $-1 $428 reversed single #
plane-surface $-1 -1 $-1 16.616580753730965 17.800000000000004 5 9.0881699291916143e-016 1 -2.2204460492503118e-016 -10.000000000000002 7.1452796360975927e-015 -1.1102230246251581e-015 forward_v I I I I #
coedge $-1 -1 $-1 $336 $336 $260 $337 forward $320 $-1 #
edge $-1 -1 $-1 $429 -3.141592653589794 $429 3.1415926535897922 $336 $430 forward @7 unknown #
coedge $-1 -1 $-1 $431 $265 $261 $339 reversed $341 $-1 #
edge $-1 -1 $-1 $413 -0.28665807537309518 $267 -0.125 $261 $432 forward @7 unknown #
coedge $-1 -1 $-1 $265 $433 $308 $397 forward $341 $-1 #
loop $-1 -1 $-1 $-1 $265 $434 #
vertex $-1 -1 $-1 $266 $435 #
ellipse-curve $-1 -1 $-1 12.200000000000003 15 15.000000000000002 1 0 -6.8677238799413062e-016 -6.593014924743655e-015 0 -9.6000000000000014 1 I I #
point $-1 -1 $-1 12.200000000000003 5.3999999999999995 15 #
coedge $-1 -1 $-1 $394 $358 $269 $346 forward $277 $-1 #
edge $-1 -1 $-1 $350 0.28379410920832737 $399 1.2415645610104886 $345 $436 reversed @7 tangent #
coedge $-1 -1 $-1 $437 $270 $358 $438 reversed $349 $-1 #
coedge $-1 -1 $-1 $270 $439 $272 $353 forward $349 $-1 #
loop $-1 -1 $-1 $-1 $270 $440 #
vertex $-1 -1 $-1 $346 $441 #
ellipse-curve $-1 -1 $-1 15.000000000000002 12.200000000000005 15 -4.6472778306909941e-016 1 -2.2204460492503136e-016 0 2.1316282072803013e-015 9.6000000000000014 1 I I #
coedge $-1 -1 $-1 $273 $272 $442 $443 forward $197 $-1 #
edge $-1 -1 $-1 $444 -0.25 $274 0.053708994723786187 $272 $445 forward @7 unknown #
point $-1 -1 $-1 13.383419246269055 12.200000000000003 5.5370899472378632 #
face $-1 -1 $-1 $195 $326 $2 $-1 $446 forward single #
loop $-1 -1 $-1 $447 $448 $276 #
cone-surface $-1 -1 $-1 15 5 15 0 1 0 -1.5500000000000003 0 0 1 I I 0 1 1.5500000000000003 forward I I I I #
coedge $-1 -1 $-1 $345 $449 $347 $438 forward $277 $-1 #
coedge $-1 -1 $-1 $360 $279 $450 $451 forward $281 $-1 #
coedge $-1 -1 $-1 $280 $359 $452 $453 forward $281 $-1 #
coedge $-1 -1 $-1 $442 $450 $283 $362 reversed $427 $-1 #
edge $-1 -1 $-1 $363 -0.32331615074619097 $365 0 $283 $454 forward @7 unknown #
vertex $-1 -1 $-1 $284 $455 #
straight-curve $-1 -1 $-1 11.766838492538101 15.000000000000004 5 -1.6653345369377348e-015 1.1102230246251565e-015 10.000000000000004 I I #
vertex $-1 -1 $-1 $285 $456 #
straight-curve $-1 -1 $-1 13.38341924626906 17.800000000000008 5 -1.6653345369377348e-015 1.1102230246251565e-015 10.000000000000004 I I #
coedge $-1 -1 $-1 $452 $457 $287 $368 reversed $458 $-1 #
edge $-1 -1 $-1 $369 -0.28824028853269812 $459 0.035075862213492799 $287 $460 forward @7 unknown #
vertex $-1 -1 $-1 $288 $461 #
straight-curve $-1 -1 $-1 14.558290376865484 17.800000000000008 5 10 -9.0881699291916151e-015 0 I I #
coedge $-1 -1 $-1 $449 $462 $289 $372 forward $277 $-1 #
edge $-1 -1 $-1 $374 -1.25 $459 -0.57331615074619147 $289 $463 forward @7 tangent #
coedge $-1 -1 $-1 $296 $290 $464 $465 forward $297 $-1 #
vertex $-1 -1 $-1 $291 $466 #
ellipse-curve $-1 -1 $-1 15 15.000000000000002 5 -0 -0 -1 7.0710678118654773 7.0710678118654737 0 1 I I #
plane-surface $-1 -1 $-1 12.499999999999998 12.500000000000002 5 0 0 1 10 0 0 forward_v I I I I #
coedge $-1 -1 $-1 $467 $294 $296 $382 reversed $379 $-1 #
coedge $-1 -1 $-1 $294 $468 $384 $469 reversed $379 $-1 #
loop $-1 -1 $-1 $-1 $377 $470 #
vertex $-1 -1 $-1 $295 $471 #
straight-curve $-1 -1 $-1 25 25.000000000000004 0 -10 -1.7763568394002505e-015 0 F 0 F 2.5 #
edge $-1 -1 $-1 $472 -0.78539816339744806 $298 0.78539816339744872 $377 $473 forward @7 unknown #
point $-1 -1 $-1 14.999999999999998 25.000000000000004 0 #
coedge $-1 -1 $-1 $401 $300 $378 $469 forward $312 $-1 #
straight-curve $-1 -1 $-1 0 25 0 0 0 10 I I #
loop $-1 -1 $-1 $-1 $416 $302 #
cone-surface $-1 -1 $-1 15 0 15 0 1 0 7.0710678118654746 0 7.0710678118654746 1 I I 0 1 9.9999999999999982 forward I I I I #
face $-1 -1 $-1 $434 $412 $2 $-1 $474 reversed single #
loop $-1 -1 $-1 $475 $476 $304 #
plane-surface $-1 -1 $-1 15.000000000000002 2.5 15.000000000000004 0 -1 0 0 0 -10 forward_v I I I I #
coedge $-1 -1 $-1 $477 $478 $479 $480 reversed $305 $-1 #
coedge $-1 -1 $-1 $481 $307 $309 $398 reversed $236 $-1 #
coedge $-1 -1 $-1 $307 $481 $477 $482 forward $236 $-1 #
coedge $-1 -1 $-1 $479 $345 $307 $395 forward $277 $-1 #
edge $-1 -1 $-1 $399 1.2415645610104884 $483 1.4084257292101998 $394 $484 forward @7 unknown #
coedge $-1 -1 $-1 $309 $308 $485 $486 forward $180 $-1 #
edge $-1 -1 $-1 $487 -0.25 $342 0.053708994723786541 $308 $488 forward @7 unknown #
edge $-1 -1 $-1 $489 -0.25 $399 0.053708994723786541 $392 $490 forward @7 unknown #
vertex $-1 -1 $-1 $395 $491 #
ellipse-curve $-1 -1 $-1 13.599999999999998 15 12.575128869403574 0.50000000000000044 0 0.86602540378443837 0 -9.6000000000000014 0 1 I I #
coedge $-1 -1 $-1 $311 $384 $492 $493 forward $312 $-1 #
coedge $-1 -1 $-1 $492 $494 $315 $403 forward $495 $-1 #
edge $-1 -1 $-1 $422 1 $404 2.5 $315 $496 forward @7 unknown #
vertex $-1 -1 $-1 $403 $497 #
straight-curve $-1 -1 $-1 0 0 25 0 10 0 I I #
plane-surface $-1 -1 $-1 0 0 25 0 0 1 10 0 0 forward_v I I I I #
face $-1 -1 $-1 $470 $498 $2 $-1 $499 forward single #
loop $-1 -1 $-1 $-1 $464 $319 #
plane-surface $-1 -1 $-1 25 0 0 1 0 0 0 10 0 forward_v I I I I #
coedge $-1 -1 $-1 $500 $322 $501 $502 forward $412 $-1 #
coedge $-1 -1 $-1 $322 $500 $431 $503 forward $412 $-1 #
loop $-1 -1 $-1 $-1 $322 $388 #
vertex $-1 -1 $-1 $323 $504 #
ellipse-curve $-1 -1 $-1 15 15 18.233161507461912 0.50000000000000178 0 -0.8660254037844376 -9.9999999999999982 -1.1102230246251565e-015 -5.7735026918962848 0.8660254037844376 I I #
coedge $-1 -1 $-1 $417 $324 $505 $506 reversed $326 $-1 #
coedge $-1 -1 $-1 $329 $507 $324 $331 forward $386 $-1 #
coedge $-1 -1 $-1 $325 $415 $478 $508 forward $326 $-1 #
coedge $-1 -1 $-1 $509 $501 $325 $419 reversed $510 $-1 #
edge $-1 -1 $-1 $511 -0.28824028853269801 $327 0.035075862213492716 $325 $512 forward @7 unknown #
point $-1 -1 $-1 14.999999999999996 5 18.233161507461908 #
coedge $-1 -1 $-1 $507 $329 $494 $513 forward $386 $-1 #
vertex $-1 -1 $-1 $403 $514 #
straight-curve $-1 -1 $-1 15 0 25 0 -10 0 F -3.6000010000000007 F 3.1000010000000002 #
vertex $-1 -1 $-1 $331 $515 #
ellipse-curve $-1 -1 $-1 15 5 15 -0 -1 -0 7.0710678118654746 0 7.0710678118654746 1 I I #
face $-1 -1 $-1 $440 $516 $2 $-1 $517 reversed single #
loop $-1 -1 $-1 $518 $519 $334 #
plane-surface $-1 -1 $-1 15.000000000000011 15.000000000000007 2.4999999999999996 1.6653345369377341e-016 -1.110223024625156e-016 -1 -10.000000000000002 2.7755575615628914e-016 -1.1102230246251565e-015 forward_v I I I I #
vertex $-1 -1 $-1 $337 $520 #
ellipse-curve $-1 -1 $-1 -1.5543122344752192e-014 15.000000000000016 15.000000000000007 1 0 0 6.8833827526759757e-016 -5.1625370645069803e-016 -1.550000000000002 1 I I #
coedge $-1 -1 $-1 $433 $338 $411 $503 reversed $341 $-1 #
straight-curve $-1 -1 $-1 12.199999999999999 5.4000000000000012 13.75 0 0 -10 I I #
coedge $-1 -1 $-1 $340 $431 $521 $522 forward $341 $-1 #
face $-1 -1 $-1 $523 $341 $2 $-1 $524 reversed single #
point $-1 -1 $-1 12.199999999999999 5.537089947237865 13.38341924626905 #
ellipse-curve $-1 -1 $-1 15 15 15 1 0 0 0 0 -10 1 F -1.5707963267948966 F -0 #
coedge $-1 -1 $-1 $439 $347 $525 $526 reversed $349 $-1 #
edge $-1 -1 $-1 $527 -0.41165807537309584 $350 -0.25 $358 $528 forward @7 unknown #
coedge $-1 -1 $-1 $348 $437 $529 $530 forward $349 $-1 #
face $-1 -1 $-1 $531 $349 $2 $-1 $532 reversed single #
point $-1 -1 $-1 15 12.200000000000005 5.3999999999999986 #
coedge $-1 -1 $-1 $529 $361 $352 $443 reversed $427 $-1 #
edge $-1 -1 $-1 $444 -0.32331615074619052 $363 -0 $352 $533 forward @7 unknown #
vertex $-1 -1 $-1 $353 $534 #
straight-curve $-1 -1 $-1 13.383419246269055 12.200000000000003 5.0000000000000009 -1.6653345369377348e-015 1.1102230246251565e-015 10.000000000000004 I I #
plane-surface $-1 -1 $-1 12.5 5 12.5 0 1 0 0 0 10 forward_v I I I I #
loop $-1 -1 $-1 $-1 $535 $276 #
coedge $-1 -1 $-1 $448 $448 $476 $536 forward $356 $-1 #
coedge $-1 -1 $-1 $358 $371 $537 $538 forward $277 $-1 #
coedge $-1 -1 $-1 $361 $519 $359 $451 reversed $427 $-1 #
edge $-1 -1 $-1 $365 -0.32331615074619036 $539 -0 $359 $540 forward @7 unknown #
coedge $-1 -1 $-1 $541 $367 $360 $453 reversed $458 $-1 #
edge $-1 -1 $-1 $539 -0.25 $369 0 $452 $542 forward @7 unknown #
straight-curve $-1 -1 $-1 13.383419246269062 17.800000000000008 2.4999999999999987 5.0000000000000142 8.660254037844382 -1.3678511740709831e-015 I I #
point $-1 -1 $-1 11.766838492538101 15.000000000000004 2.4999999999999991 #
point $-1 -1 $-1 13.383419246269062 17.800000000000008 2.4999999999999987 #
coedge $-1 -1 $-1 $367 $541 $543 $544 reversed $458 $-1 #
loop $-1 -1 $-1 $-1 $367 $531 #
vertex $-1 -1 $-1 $368 $545 #
straight-curve $-1 -1 $-1 18.057782196394456 15.303765877365274 5 4.9999999999999876 -8.6602540378443944 0 I I #
point $-1 -1 $-1 16.616580753730965 17.800000000000004 5 #
coedge $-1 -1 $-1 $371 $505 $546 $547 forward $277 $-1 #
straight-curve $-1 -1 $-1 12.5 15 5 -10 0 0 F -4.3500009999999998 F 3.8500010000000002 #
coedge $-1 -1 $-1 $546 $548 $373 $465 reversed $408 $-1 #
edge $-1 -1 $-1 $374 -0.5 $472 0 $464 $549 forward @7 tangent #
point $-1 -1 $-1 25 15 5 #
coedge $-1 -1 $-1 $468 $377 $548 $550 reversed $379 $-1 #
coedge $-1 -1 $-1 $378 $467 $551 $552 reversed $379 $-1 #
edge $-1 -1 $-1 $380 0 $553 2.5 $384 $554 forward @7 unknown #
face $-1 -1 $-1 $-1 $555 $2 $-1 $556 reversed single #
point $-1 -1 $-1 0 25 0 #
vertex $-1 -1 $-1 $382 $557 #
ellipse-curve $-1 -1 $-1 15 15.000000000000002 0 0 0 1 7.0710678118654773 7.0710678118654737 0 1 I I #
plane-surface $-1 -1 $-1 12.200000000000003 5 16.61658075373095 -0.50000000000000178 0 0.8660254037844376 8.6602540378443766 0 5.0000000000000178 forward_v I I I I #
loop $-1 -1 $-1 $-1 $558 $304 #
coedge $-1 -1 $-1 $476 $476 $448 $536 reversed $389 $-1 #
coedge $-1 -1 $-1 $559 $391 $393 $482 reversed $305 $-1 #
coedge $-1 -1 $-1 $391 $560 $417 $508 reversed $305 $-1 #
coedge $-1 -1 $-1 $505 $394 $391 $480 forward $277 $-1 #
edge $-1 -1 $-1 $483 0.62302756581275165 $561 0.78539816339744828 $479 $562 forward @7 unknown #
coedge $-1 -1 $-1 $393 $392 $563 $564 forward $236 $-1 #
edge $-1 -1 $-1 $565 -0.25 $483 0.013153169601955561 $477 $566 forward @7 unknown #
vertex $-1 -1 $-1 $395 $567 #
ellipse-curve $-1 -1 $-1 20.599999999999984 15 15 -0.50000000000000111 0 0.86602540378443804 -17.320508075688721 -1.1102230246251565e-015 -9.9999999999999982 0.50000000000000111 I I #
coedge $-1 -1 $-1 $521 $563 $396 $486 reversed $475 $-1 #
edge $-1 -1 $-1 $487 -0.32331615074619052 $489 -0 $396 $568 forward @7 unknown #
vertex $-1 -1 $-1 $397 $569 #
straight-curve $-1 -1 $-1 12.199999999999999 5 13.38341924626905 0 10 0 I I #
vertex $-1 -1 $-1 $398 $570 #
straight-curve $-1 -1 $-1 15 5 11.766838492538096 0 10 0 I I #
point $-1 -1 $-1 15 5.537089947237865 11.766838492538096 #
coedge $-1 -1 $-1 $551 $402 $401 $493 reversed $495 $-1 #
edge $-1 -1 $-1 $553 0 $404 2.5 $492 $571 forward @7 unknown #
coedge $-1 -1 $-1 $402 $572 $421 $513 reversed $495 $-1 #
loop $-1 -1 $-1 $-1 $494 $407 #
straight-curve $-1 -1 $-1 25 0 25 -10 0 0 F 0 F 2.5 #
point $-1 -1 $-1 0 0 25 #
loop $-1 -1 $-1 $495 $573 $407 #
plane-surface $-1 -1 $-1 0 0 0 0 -1 0 10 0 0 forward_v I I I I #
coedge $-1 -1 $-1 $411 $410 $574 $575 forward $412 $-1 #
coedge $-1 -1 $-1 $418 $576 $410 $502 reversed $510 $-1 #
edge $-1 -1 $-1 $327 0 $577 0.25 $501 $578 forward @7 unknown #
edge $-1 -1 $-1 $579 -0.25 $413 0.040000000000000036 $431 $580 forward @7 unknown #
point $-1 -1 $-1 12.200000000000003 5.4000000000000004 16.61658075373095 #
coedge $-1 -1 $-1 $462 $479 $415 $506 forward $277 $-1 #
edge $-1 -1 $-1 $561 0.53000000000000025 $424 1.25 $415 $581 forward @7 tangent #
coedge $-1 -1 $-1 $416 $421 $582 $583 forward $386 $-1 #
edge $-1 -1 $-1 $561 0.044170962313451856 $511 0.2058290376865477 $417 $584 forward @7 unknown #
coedge $-1 -1 $-1 $576 $418 $560 $585 reversed $510 $-1 #
loop $-1 -1 $-1 $-1 $418 $523 #
vertex $-1 -1 $-1 $508 $586 #
straight-curve $-1 -1 $-1 15.303765877365269 5 18.057782196394445 -8.6602540378443944 0 4.9999999999999885 I I #
edge $-1 -1 $-1 $422 -0.78539816339744828 $587 0.78539816339744828 $494 $588 forward @7 unknown #
point $-1 -1 $-1 15 0 25 #
point $-1 -1 $-1 25 5 15 #
loop $-1 -1 $-1 $-1 $537 $426 #
plane-surface $-1 -1 $-1 16.616580753730958 12.200000000000005 5.0000000000000009 0.86602540378443771 -0.50000000000000189 2.0717043678169412e-016 5.0000000000000213 8.6602540378443784 -1.3678511740709813e-015 forward_v I I I I #
loop $-1 -1 $-1 $-1 $589 $334 #
coedge $-1 -1 $-1 $450 $590 $541 $591 reversed $427 $-1 #
point $-1 -1 $-1 -2.720046410331647e-016 15.000000000000018 16.550000000000011 #
coedge $-1 -1 $-1 $574 $485 $433 $522 reversed $475 $-1 #
edge $-1 -1 $-1 $579 -0.32331615074619013 $487 -0 $433 $592 forward @7 unknown #
face $-1 -1 $-1 $165 $510 $2 $-1 $593 reversed single #
plane-surface $-1 -1 $-1 12.199999999999999 5 13.38341924626905 -1 0 6.8677238799413062e-016 6.867723879941306e-015 0 10 forward_v I I I I #
coedge $-1 -1 $-1 $537 $594 $437 $526 forward $516 $-1 #
edge $-1 -1 $-1 $595 -0.25 $527 0.039999999999999793 $437 $596 forward @7 unknown #
vertex $-1 -1 $-1 $538 $597 #
straight-curve $-1 -1 $-1 12.5 12.199999999999999 5.4000000000000004 -10 0 0 I I #
coedge $-1 -1 $-1 $590 $442 $439 $530 reversed $427 $-1 #
edge $-1 -1 $-1 $595 -0.32331615074619013 $444 -0 $439 $598 forward @7 unknown #
face $-1 -1 $-1 $599 $458 $2 $-1 $600 reversed single #
plane-surface $-1 -1 $-1 13.383419246269055 12.200000000000003 5.0000000000000009 4.6472778306909941e-016 -1 2.2204460492503136e-016 10.000000000000002 6.5901681237850192e-015 1.110223024625155e-015 forward_v I I I I #
straight-curve $-1 -1 $-1 11.766838492538101 15.000000000000004 2.4999999999999991 -5.0000000000000036 8.6602540378443855 -2.478074198696142e-015 I I #
point $-1 -1 $-1 13.383419246269055 12.200000000000003 2.4999999999999996 #
coedge $-1 -1 $-1 $535 $535 $573 $601 reversed $447 $-1 #
edge $-1 -1 $-1 $602 -3.1415926535897931 $602 3.1415926535897931 $448 $603 forward @7 unknown #
coedge $-1 -1 $-1 $543 $525 $449 $538 reversed $516 $-1 #
edge $-1 -1 $-1 $459 -1.570796326794897 $527 -1.2870022175865701 $449 $604 forward @7 unknown #
vertex $-1 -1 $-1 $453 $605 #
straight-curve $-1 -1 $-1 16.616580753730968 17.800000000000004 2.4999999999999991 10.000000000000002 -7.1452796360975927e-015 1.1102230246251583e-015 I I #
coedge $-1 -1 $-1 $457 $452 $519 $591 forward $458 $-1 #
straight-curve $-1 -1 $-1 16.616580753730965 17.800000000000004 5 -1.6653345369377348e-015 1.1102230246251565e-015 10.000000000000004 I I #
coedge $-1 -1 $-1 $594 $537 $457 $544 forward $516 $-1 #
edge $-1 -1 $-1 $459 0 $606 0.25 $457 $607 forward @7 unknown #
point $-1 -1 $-1 18.233161507461915 14.999999999999998 5.0000000000000009 #
coedge $-1 -1 $-1 $582 $464 $462 $547 reversed $408 $-1 #
edge $-1 -1 $-1 $424 -0.78539816339744828 $374 0.78539816339744828 $462 $608 forward @7 unknown #
coedge $-1 -1 $-1 $464 $609 $467 $550 forward $408 $-1 #
straight-curve $-1 -1 $-1 25 15.000000000000002 0 0 0 -10 F -3.6000010000000002 F 3.1000010000000002 #
edge $-1 -1 $-1 $610 0 $472 1.5000000000000002 $548 $611 forward @7 unknown #
coedge $-1 -1 $-1 $572 $492 $468 $552 forward $495 $-1 #
edge $-1 -1 $-1 $553 0 $610 2.5 $551 $612 forward @7 unknown #
vertex $-1 -1 $-1 $552 $613 #
straight-curve $-1 -1 $-1 0 25 0 0 -10 0 F 0 F 2.5 #
loop $-1 -1 $-1 $379 $614 $470 #
plane-surface $-1 -1 $-1 12.499999999999998 12.500000000000002 0 0 0 1 10 0 0 forward_v I I I I #
point $-1 -1 $-1 25 15.000000000000002 0 #
coedge $-1 -1 $-1 $615 $574 $576 $616 reversed $475 $-1 #
coedge $-1 -1 $-1 $560 $477 $615 $617 forward $305 $-1 #
coedge $-1 -1 $-1 $478 $559 $509 $585 forward $305 $-1 #
vertex $-1 -1 $-1 $506 $618 #
ellipse-curve $-1 -1 $-1 17.800000000000001 15 15 -1 0 -6.8677238799413012e-016 0 -7.0710678118654746 -7.0710678118654746 1 I I #
coedge $-1 -1 $-1 $485 $615 $481 $564 reversed $475 $-1 #
edge $-1 -1 $-1 $489 -0.32331615074619097 $565 0 $481 $619 forward @7 unknown #
vertex $-1 -1 $-1 $482 $620 #
straight-curve $-1 -1 $-1 17.800000000000004 5 13.383419246269055 0 10 0 I I #
point $-1 -1 $-1 17.800000000000004 5.1315316960195556 13.383419246269055 #
straight-curve $-1 -1 $-1 15 2.5 11.766838492538096 8.6602540378443837 0 -5.0000000000000044 I I #
point $-1 -1 $-1 12.199999999999999 2.5 13.38341924626905 #
point $-1 -1 $-1 15 2.5 11.766838492538096 #
straight-curve $-1 -1 $-1 0 0 0 0 0 10 I I #
coedge $-1 -1 $-1 $494 $551 $609 $621 forward $495 $-1 #
coedge $-1 -1 $-1 $573 $573 $535 $601 forward $498 $-1 #
coedge $-1 -1 $-1 $558 $521 $500 $575 reversed $475 $-1 #
edge $-1 -1 $-1 $577 -0.32331615074619008 $579 -0 $500 $622 forward @7 unknown #
coedge $-1 -1 $-1 $501 $509 $558 $616 forward $510 $-1 #
vertex $-1 -1 $-1 $502 $623 #
straight-curve $-1 -1 $-1 14.999999999999996 5 18.233161507461908 0 -10 0 I I #
vertex $-1 -1 $-1 $503 $624 #
straight-curve $-1 -1 $-1 12.200000000000003 5 16.61658075373095 0 10 0 I I #
straight-curve $-1 -1 $-1 12.5 5 15 10 0 0 F -3.8500010000000002 F 4.3500009999999998 #
coedge $-1 -1 $-1 $609 $546 $507 $583 reversed $408 $-1 #
edge $-1 -1 $-1 $587 0 $424 0.5 $582 $625 forward @7 tangent #
straight-curve $-1 -1 $-1 17.800000000000004 5 14.558290376865482 -6.8677238799413012e-015 0 10 I I #
edge $-1 -1 $-1 $626 -0.25 $511 0 $509 $627 forward @7 unknown #
point $-1 -1 $-1 17.800000000000001 5 16.616580753730958 #
vertex $-1 -1 $-1 $583 $628 #
ellipse-curve $-1 -1 $-1 15 0 15 0 1 0 7.0710678118654746 0 7.0710678118654746 1 I I #
coedge $-1 -1 $-1 $589 $589 $629 $630 forward $518 $-1 #
coedge $-1 -1 $-1 $519 $529 $594 $631 reversed $427 $-1 #
edge $-1 -1 $-1 $539 -0.32331615074619069 $606 -0 $541 $632 forward @7 unknown #
straight-curve $-1 -1 $-1 12.199999999999999 2.5 13.38341924626905 -6.867723879941306e-015 0 -10 I I #
plane-surface $-1 -1 $-1 14.999999999999996 5 18.233161507461908 0.49999999999999883 0 0.86602540378443937 8.6602540378443944 0 -4.9999999999999885 forward_v I I I I #
coedge $-1 -1 $-1 $525 $543 $590 $631 forward $516 $-1 #
vertex $-1 -1 $-1 $526 $633 #
straight-curve $-1 -1 $-1 16.616580753730958 12.200000000000005 5.0000000000000009 -1.6653345369377348e-015 1.1102230246251565e-015 10.000000000000004 I I #
point $-1 -1 $-1 16.616580753730958 12.200000000000005 5.3999999999999995 #
straight-curve $-1 -1 $-1 13.383419246269055 12.200000000000003 2.4999999999999996 -10.000000000000002 -6.5901681237850192e-015 -1.110223024625155e-015 I I #
face $-1 -1 $-1 $64 $634 $2 $-1 $635 reversed single #
plane-surface $-1 -1 $-1 18.233161507461915 14.999999999999998 5.0000000000000009 0.86602540378443937 0.49999999999999872 -1.4874168143337112e-017 -4.9999999999999876 8.6602540378443962 -2.4780741986961428e-015 forward_v I I I I #
edge $-1 -1 $-1 $636 -3.1415926535897931 $636 3.1415926535897931 $573 $637 forward @7 unknown #
vertex $-1 -1 $-1 $536 $638 #
ellipse-curve $-1 -1 $-1 15 2.5 15 0 1 0 -1.5500000000000003 0 0 1 I I #
ellipse-curve $-1 -1 $-1 18.233161507461912 15 15 -0.86602540378443771 0.50000000000000189 -2.0717043678169412e-016 -5.7735026918962866 -10 6.6613381477509392e-015 0.8660254037844376 I I #
point $-1 -1 $-1 16.616580753730968 17.800000000000004 2.4999999999999991 #
vertex $-1 -1 $-1 $544 $639 #
straight-curve $-1 -1 $-1 18.233161507461915 14.999999999999998 5.0000000000000009 1.6653345369377348e-015 -1.1102230246251565e-015 -10.000000000000004 I I #
ellipse-curve $-1 -1 $-1 25 15 15 1 0 0 0 -7.0710678118654746 -7.0710678118654746 1 I I #
coedge $-1 -1 $-1 $548 $582 $572 $621 reversed $408 $-1 #
vertex $-1 -1 $-1 $552 $640 #
straight-curve $-1 -1 $-1 25 0 0 0 10 0 F 0 F 2.5000000000000004 #
straight-curve $-1 -1 $-1 0 0 0 10 0 0 F 0 F 2.5 #
point $-1 -1 $-1 0 0 0 #
coedge $-1 -1 $-1 $614 $614 $641 $642 forward $555 $-1 #
coedge $-1 -1 $-1 $563 $558 $559 $617 reversed $475 $-1 #
edge $-1 -1 $-1 $626 -0.32331615074619069 $577 -0 $576 $643 forward @7 unknown #
edge $-1 -1 $-1 $565 -0.32331615074619036 $626 -0 $559 $644 forward @7 unknown #
point $-1 -1 $-1 17.800000000000004 5 15 #
straight-curve $-1 -1 $-1 17.800000000000004 2.5 13.383419246269055 8.6602540378443802 0 5.0000000000000107 I I #
point $-1 -1 $-1 17.800000000000004 2.5 13.383419246269055 #
edge $-1 -1 $-1 $610 0 $587 1.5 $572 $645 forward @7 unknown #
straight-curve $-1 -1 $-1 12.200000000000003 2.5 16.61658075373095 -8.6602540378443766 0 -5.0000000000000178 I I #
point $-1 -1 $-1 14.999999999999996 2.5 18.233161507461908 #
point $-1 -1 $-1 12.200000000000003 2.5 16.61658075373095 #
straight-curve $-1 -1 $-1 25 0 15 0 10 0 F -3.1000010000000002 F 3.6000010000000007 #
vertex $-1 -1 $-1 $585 $646 #
straight-curve $-1 -1 $-1 17.800000000000001 5 16.616580753730958 0 10 0 I I #
point $-1 -1 $-1 25 0 15 #
coedge $-1 -1 $-1 $629 $629 $589 $630 reversed $634 $-1 #
edge $-1 -1 $-1 $647 -3.1415926535897931 $647 3.1415926535897931 $629 $648 forward @7 unknown #
edge $-1 -1 $-1 $606 -0.32331615074619008 $595 -0 $594 $649 forward @7 unknown #
straight-curve $-1 -1 $-1 18.233161507461915 14.999999999999998 2.4999999999999996 4.9999999999999876 -8.6602540378443962 2.4780741986961432e-015 I I #
point $-1 -1 $-1 16.616580753730958 12.200000000000005 2.5 #
loop $-1 -1 $-1 $650 $629 $599 #
cone-surface $-1 -1 $-1 15.000000000000007 15.000000000000004 5 -1.6653345369377341e-016 1.110223024625156e-016 1 -3.4416913763379859e-016 -1.5500000000000005 3.4416913763379859e-016 1 I I 0 1 1.5500000000000003 forward I I I I #
vertex $-1 -1 $-1 $601 $651 #
ellipse-curve $-1 -1 $-1 15 0 15 0 1 0 -1.5500000000000003 0 0 1 I I #
point $-1 -1 $-1 16.550000000000001 2.5 15 #
point $-1 -1 $-1 18.233161507461915 14.999999999999998 2.4999999999999996 #
point $-1 -1 $-1 25 0 0 #
coedge $-1 -1 $-1 $641 $641 $614 $642 reversed $650 $-1 #
edge $-1 -1 $-1 $652 -3.141592653589794 $652 3.1415926535897922 $614 $653 forward @7 unknown #
straight-curve $-1 -1 $-1 14.999999999999996 2.5 18.233161507461908 -8.6602540378443944 0 4.9999999999999885 I I #
straight-curve $-1 -1 $-1 17.800000000000001 2.5 16.616580753730958 -6.8677238799413012e-015 0 10 I I #
straight-curve $-1 -1 $-1 25 0 0 0 0 10 I I #
point $-1 -1 $-1 17.800000000000001 2.5 16.616580753730958 #
vertex $-1 -1 $-1 $630 $654 #
ellipse-curve $-1 -1 $-1 15.000000000000007 15.000000000000004 2.4999999999999996 1.6653345369377341e-016 -1.110223024625156e-016 -1 -3.4416913763379859e-016 -1.5500000000000005 3.4416913763379859e-016 1 I I #
straight-curve $-1 -1 $-1 16.616580753730958 12.200000000000005 2.5 -5.0000000000000222 -8.6602540378443784 1.3678511740709813e-015 I I #
loop $-1 -1 $-1 $-1 $641 $599 #
point $-1 -1 $-1 16.550000000000001 0 15 #
vertex $-1 -1 $-1 $642 $655 #
ellipse-curve $-1 -1 $-1 15.000000000000007 15.000000000000004 -4.4408920985006262e-015 0 0 1 -3.4416913763379859e-016 -1.5500000000000005 3.4416913763379859e-016 1 I I #
point $-1 -1 $-1 15.000000000000007 16.550000000000004 2.4999999999999991 #
point $-1 -1 $-1 15.000000000000009 16.550000000000004 -2.0095036745715335e-015 #
End-of-ACIS-data 