700 0 1 0           
33 Autodesk Inventor 17.0.13800.0000 19 ASM 218.0.0.5119 NT 24 Fri Oct 18 14:28:14 2013 
1 9.9999999999999995e-007 1e-010 
body $-1 -1 $-1 $1 $-1 $-1 #
lump $-1 -1 $-1 $-1 $2 $0 #
shell $-1 -1 $-1 $-1 $-1 $3 $-1 $1 #
face $-1 -1 $-1 $4 $5 $2 $-1 $6 forward single #
face $-1 -1 $-1 $7 $8 $2 $-1 $9 forward single #
loop $-1 -1 $-1 $-1 $10 $3 #
cone-surface $-1 -1 $-1 14.999999999999993 15.000000000000002 15 1 1.1102230246251568e-016 0 3.1401849173675498e-015 -7.0710678118654746 -7.0710678118654746 1 I I 0 -1 9.9999999999999982 forward I I I I #
face $-1 -1 $-1 $11 $12 $2 $-1 $13 forward single #
loop $-1 -1 $-1 $-1 $14 $4 #
plane-surface $-1 -1 $-1 19.999999999999996 5.0000000000000018 5 -1.1102230246251568e-016 1 0 -10 -1.1102230246251567e-015 0 forward_v I I I I #
coedge $-1 -1 $-1 $15 $16 $17 $18 reversed $5 $-1 #
face $-1 -1 $-1 $19 $20 $2 $-1 $21 reversed single #
loop $-1 -1 $-1 $-1 $22 $7 #
cone-surface $-1 -1 $-1 9.9999999999999964 1.2500000000000004 15 0 1 0 7.0710678118654746 0 7.0710678118654746 1 I I 0 1 9.9999999999999982 forward I I I I #
coedge $-1 -1 $-1 $23 $24 $25 $26 reversed $8 $-1 #
coedge $-1 -1 $-1 $27 $10 $28 $29 reversed $5 $-1 #
coedge $-1 -1 $-1 $10 $30 $31 $32 reversed $5 $-1 #
coedge $-1 -1 $-1 $33 $34 $10 $18 forward $35 $-1 #
edge $-1 -1 $-1 $36 1.2415645610104888 $37 1.4084257292101996 $10 $38 reversed @7 unknown #
face $-1 -1 $-1 $39 $40 $2 $-1 $41 forward single #
loop $-1 -1 $-1 $42 $43 $11 #
plane-surface $-1 -1 $-1 9.9999999999999947 12.5 0 0 0 1 10 0 0 forward_v I I I I #
coedge $-1 -1 $-1 $44 $45 $24 $46 forward $12 $-1 #
coedge $-1 -1 $-1 $47 $14 $48 $49 forward $8 $-1 #
coedge $-1 -1 $-1 $14 $50 $22 $46 reversed $8 $-1 #
coedge $-1 -1 $-1 $51 $52 $14 $26 forward $5 $-1 #
edge $-1 -1 $-1 $53 -0.22000000000000042 $54 0.5 $14 $55 forward @7 tangent #
coedge $-1 -1 $-1 $56 $15 $57 $58 reversed $5 $-1 #
coedge $-1 -1 $-1 $59 $60 $15 $29 forward $61 $-1 #
edge $-1 -1 $-1 $62 -1.4084257292101998 $36 -1.2415645610104893 $15 $63 reversed @7 unknown #
coedge $-1 -1 $-1 $16 $51 $64 $65 forward $5 $-1 #
coedge $-1 -1 $-1 $66 $67 $16 $32 forward $68 $-1 #
edge $-1 -1 $-1 $37 0.62302756581275121 $69 0.78539816339744828 $16 $70 reversed @7 unknown #
coedge $-1 -1 $-1 $71 $17 $67 $72 forward $35 $-1 #
coedge $-1 -1 $-1 $17 $71 $59 $73 reversed $35 $-1 #
loop $-1 -1 $-1 $-1 $33 $74 #
vertex $-1 -1 $-1 $73 $75 #
vertex $-1 -1 $-1 $72 $76 #
ellipse-curve $-1 -1 $-1 15.599999999999989 15.000000000000002 15 -0.5 0.86602540378443871 -1.3678511740709863e-016 -17.320508075688775 -10 2.7755575615628914e-015 0.5 I I #
face $-1 -1 $-1 $77 $78 $2 $-1 $79 reversed single #
loop $-1 -1 $-1 $-1 $80 $19 #
cone-surface $-1 -1 $-1 9.9999999999999964 14.999999999999998 0 0 0 1 -7.0710678118654746 7.0710678118654755 0 1 I I 0 1 10 forward I I I I #
loop $-1 -1 $-1 $-1 $81 $11 #
coedge $-1 -1 $-1 $43 $43 $82 $83 forward $20 $-1 #
coedge $-1 -1 $-1 $84 $22 $85 $86 forward $12 $-1 #
coedge $-1 -1 $-1 $22 $84 $87 $88 forward $12 $-1 #
edge $-1 -1 $-1 $54 -2.3561944901923448 $89 0.78539816339744839 $24 $90 forward @7 unknown #
coedge $-1 -1 $-1 $91 $23 $92 $93 forward $8 $-1 #
coedge $-1 -1 $-1 $94 $95 $23 $49 reversed $96 $-1 #
edge $-1 -1 $-1 $53 0.5808290376865477 $97 0.7424871130596431 $23 $98 forward @7 unknown #
coedge $-1 -1 $-1 $24 $99 $100 $101 reversed $8 $-1 #
coedge $-1 -1 $-1 $30 $25 $102 $103 forward $5 $-1 #
coedge $-1 -1 $-1 $25 $104 $94 $105 reversed $5 $-1 #
vertex $-1 -1 $-1 $49 $106 #
vertex $-1 -1 $-1 $46 $107 #
straight-curve $-1 -1 $-1 14.999999999999996 5.0000000000000018 15 10 1.1102230246251567e-015 0 F -4.6000009999999998 F 3.6000010000000007 #
coedge $-1 -1 $-1 $108 $27 $109 $110 forward $5 $-1 #
coedge $-1 -1 $-1 $111 $112 $27 $58 forward $113 $-1 #
edge $-1 -1 $-1 $114 -0.78539816339744828 $62 -0.62302756581275098 $27 $115 reversed @7 unknown #
coedge $-1 -1 $-1 $116 $28 $34 $73 forward $61 $-1 #
coedge $-1 -1 $-1 $28 $116 $111 $117 reversed $61 $-1 #
loop $-1 -1 $-1 $-1 $59 $118 #
vertex $-1 -1 $-1 $117 $119 #
ellipse-curve $-1 -1 $-1 4.4000000000000039 15 15 0.49999999999999961 0.86602540378443893 -2.4780741986961431e-016 17.320508075688789 -9.9999999999999982 3.3306690738754696e-015 0.49999999999999967 I I #
coedge $-1 -1 $-1 $120 $121 $30 $65 reversed $122 $-1 #
edge $-1 -1 $-1 $123 -0.50000000000000022 $69 0.22000000000000042 $64 $124 forward @7 tangent #
coedge $-1 -1 $-1 $125 $31 $121 $126 reversed $68 $-1 #
coedge $-1 -1 $-1 $31 $127 $33 $72 reversed $68 $-1 #
loop $-1 -1 $-1 $-1 $66 $77 #
vertex $-1 -1 $-1 $126 $128 #
ellipse-curve $-1 -1 $-1 12.799999999999992 15.000000000000002 15 -1 -7.9779469045664558e-016 1.1102230246251583e-016 3.1401849173675498e-015 -7.0710678118654746 -7.0710678118654746 1 I I #
coedge $-1 -1 $-1 $34 $33 $129 $130 reversed $35 $-1 #
edge $-1 -1 $-1 $37 -0.013153169601956005 $131 0.25 $67 $132 forward @7 unknown #
edge $-1 -1 $-1 $36 -0.053708994723786818 $133 0.25 $34 $134 forward @7 unknown #
face $-1 -1 $-1 $118 $35 $2 $-1 $135 reversed single #
point $-1 -1 $-1 9.9999999999999964 11.766838492538101 5.537089947237865 #
point $-1 -1 $-1 12.799999999999994 13.383419246269053 5.1315316960195565 #
face $-1 -1 $-1 $74 $68 $2 $-1 $136 reversed single #
loop $-1 -1 $-1 $-1 $137 $39 #
plane-surface $-1 -1 $-1 12.79999999999999 16.616580753730958 4.9999999999999956 0.49999999999999961 0.86602540378443893 -2.4780741986961431e-016 -8.6602540378443891 4.9999999999999956 -1.1102230246251561e-015 reverse_v I I I I #
coedge $-1 -1 $-1 $138 $139 $120 $140 forward $40 $-1 #
coedge $-1 -1 $-1 $141 $142 $143 $144 reversed $42 $-1 #
coedge $-1 -1 $-1 $82 $82 $43 $83 reversed $145 $-1 #
edge $-1 -1 $-1 $146 -3.1415926535897931 $146 3.1415926535897931 $43 $147 forward @7 unknown #
coedge $-1 -1 $-1 $45 $44 $148 $149 forward $12 $-1 #
coedge $-1 -1 $-1 $150 $151 $44 $86 reversed $152 $-1 #
edge $-1 -1 $-1 $89 0.875 $153 1.375 $85 $154 forward @7 tangent #
coedge $-1 -1 $-1 $155 $102 $45 $88 reversed $156 $-1 #
edge $-1 -1 $-1 $157 -0.125 $54 0.37500000000000017 $87 $158 forward @7 tangent #
vertex $-1 -1 $-1 $46 $159 #
ellipse-curve $-1 -1 $-1 9.9999999999999982 4.9999999999999991 15 1.1102230246251568e-016 -1 0 -7.0710678118654746 -3.1401849173675502e-015 7.0710678118654755 1 I I #
coedge $-1 -1 $-1 $99 $47 $160 $161 forward $8 $-1 #
coedge $-1 -1 $-1 $162 $163 $47 $93 reversed $164 $-1 #
edge $-1 -1 $-1 $97 0.60218366420567171 $165 0.92549981495186184 $47 $166 forward @7 unknown #
coedge $-1 -1 $-1 $167 $48 $52 $105 forward $96 $-1 #
coedge $-1 -1 $-1 $48 $168 $162 $169 reversed $96 $-1 #
loop $-1 -1 $-1 $-1 $167 $170 #
vertex $-1 -1 $-1 $93 $171 #
straight-curve $-1 -1 $-1 12.799999999999995 5.0000000000000009 9.191709623134523 -6.8677238799412989e-015 -7.6247051782788469e-031 10 I I #
coedge $-1 -1 $-1 $50 $91 $172 $173 forward $8 $-1 #
coedge $-1 -1 $-1 $174 $108 $50 $101 forward $5 $-1 #
edge $-1 -1 $-1 $89 -1.4999999999999998 $175 -0.77999999999999969 $50 $176 forward @7 tangent #
coedge $-1 -1 $-1 $87 $177 $51 $103 reversed $156 $-1 #
edge $-1 -1 $-1 $54 -0.78539816339744828 $123 0.78539816339744817 $51 $178 forward @7 unknown #
coedge $-1 -1 $-1 $52 $179 $180 $181 reversed $5 $-1 #
edge $-1 -1 $-1 $53 -0.78539816339744828 $182 -0.62302756581275121 $52 $183 reversed @7 unknown #
point $-1 -1 $-1 12.799999999999992 5.0000000000000009 15 #
point $-1 -1 $-1 19.999999999999996 5.0000000000000018 15 #
coedge $-1 -1 $-1 $100 $56 $150 $184 forward $5 $-1 #
coedge $-1 -1 $-1 $185 $120 $56 $110 reversed $122 $-1 #
edge $-1 -1 $-1 $114 0.77999999999999969 $186 1.4999999999999998 $109 $187 forward @7 tangent #
coedge $-1 -1 $-1 $188 $57 $60 $117 forward $113 $-1 #
coedge $-1 -1 $-1 $57 $189 $185 $190 reversed $113 $-1 #
loop $-1 -1 $-1 $-1 $111 $191 #
vertex $-1 -1 $-1 $190 $192 #
ellipse-curve $-1 -1 $-1 7.1999999999999957 15.000000000000002 15 1 7.9779469045664578e-016 -1.1102230246251583e-016 3.1401849173675498e-015 -7.0710678118654746 -7.0710678118654746 1 I I #
coedge $-1 -1 $-1 $60 $59 $193 $194 reversed $61 $-1 #
edge $-1 -1 $-1 $62 -0.013153169601956061 $195 0.25 $60 $196 forward @7 unknown #
face $-1 -1 $-1 $191 $61 $2 $-1 $197 reversed single #
point $-1 -1 $-1 7.1999999999999984 13.38341924626905 5.1315316960195574 #
coedge $-1 -1 $-1 $109 $64 $80 $140 reversed $122 $-1 #
coedge $-1 -1 $-1 $64 $198 $66 $126 forward $122 $-1 #
loop $-1 -1 $-1 $-1 $64 $199 #
vertex $-1 -1 $-1 $200 $201 #
straight-curve $-1 -1 $-1 14.999999999999993 15.000000000000002 5 -10 -1.1102230246251567e-015 0 F -3.6000010000000007 F 4.6000009999999998 #
coedge $-1 -1 $-1 $127 $66 $202 $203 forward $68 $-1 #
edge $-1 -1 $-1 $204 -0.36748711305964266 $69 -0.20582903768654726 $121 $205 forward @7 unknown #
coedge $-1 -1 $-1 $67 $125 $206 $207 reversed $68 $-1 #
point $-1 -1 $-1 12.79999999999999 15.000000000000002 5 #
coedge $-1 -1 $-1 $206 $193 $71 $130 forward $208 $-1 #
edge $-1 -1 $-1 $133 0 $131 0.32331615074619013 $71 $209 forward @7 unknown #
vertex $-1 -1 $-1 $72 $210 #
straight-curve $-1 -1 $-1 12.799999999999994 13.38341924626905 4.9999999999999964 -1.1102230246251563e-015 -2.2204460492503135e-015 -10 I I #
vertex $-1 -1 $-1 $73 $211 #
straight-curve $-1 -1 $-1 9.9999999999999982 11.766838492538101 4.9999999999999973 -1.1102230246251565e-015 -2.2204460492503135e-015 -10 I I #
plane-surface $-1 -1 $-1 9.9999999999999964 11.766838492538101 4.9999999999999973 0.5 -0.86602540378443871 1.3678511740709863e-016 8.6602540378443855 5 -1.1102230246251565e-015 reverse_v I I I I #
plane-surface $-1 -1 $-1 12.799999999999992 13.383419246269053 4.9999999999999964 1 7.9779469045664558e-016 -1.1102230246251583e-016 -7.9779469045664554e-015 10 -2.2204460492503135e-015 reverse_v I I I I #
coedge $-1 -1 $-1 $212 $202 $198 $213 reversed $78 $-1 #
coedge $-1 -1 $-1 $143 $80 $177 $200 forward $40 $-1 #
coedge $-1 -1 $-1 $80 $143 $214 $215 forward $40 $-1 #
edge $-1 -1 $-1 $186 -2.3561944901923448 $123 0.78539816339744828 $120 $216 forward @7 unknown #
coedge $-1 -1 $-1 $217 $81 $218 $219 reversed $42 $-1 #
coedge $-1 -1 $-1 $81 $217 $220 $221 reversed $42 $-1 #
coedge $-1 -1 $-1 $139 $138 $81 $144 forward $40 $-1 #
edge $-1 -1 $-1 $222 -2.3561944901923448 $223 0.7853981633974485 $81 $224 forward @7 unknown #
loop $-1 -1 $-1 $-1 $82 $225 #
vertex $-1 -1 $-1 $83 $226 #
ellipse-curve $-1 -1 $-1 9.9999999999999964 15.000000000000002 -5.5511151231257827e-016 0 0 1 -1.5500000000000003 -1.7208456881689929e-016 1.7208456881689932e-016 1 I I #
coedge $-1 -1 $-1 $227 $228 $84 $149 reversed $229 $-1 #
edge $-1 -1 $-1 $153 -2.3561944901923444 $157 0.78539816339744828 $148 $230 forward @7 unknown #
coedge $-1 -1 $-1 $214 $85 $108 $184 reversed $152 $-1 #
coedge $-1 -1 $-1 $85 $220 $227 $231 forward $152 $-1 #
loop $-1 -1 $-1 $-1 $85 $232 #
vertex $-1 -1 $-1 $149 $233 #
straight-curve $-1 -1 $-1 -3.3306690738754696e-015 13.75 15 3.0616169978683826e-015 -10 0 F -2.2250009999999998 F 4.4750010000000007 #
coedge $-1 -1 $-1 $218 $87 $228 $234 reversed $156 $-1 #
loop $-1 -1 $-1 $-1 $87 $235 #
vertex $-1 -1 $-1 $88 $236 #
straight-curve $-1 -1 $-1 19.999999999999996 1.2500000000000004 15 0 10 0 F -3.2250010000000002 F 3.4750010000000002 #
point $-1 -1 $-1 -1.5308084989341913e-015 5 15 #
coedge $-1 -1 $-1 $237 $238 $91 $161 reversed $239 $-1 #
edge $-1 -1 $-1 $165 0.1021836642056717 $240 0.42549981495186195 $91 $241 forward @7 unknown #
coedge $-1 -1 $-1 $242 $92 $95 $169 forward $164 $-1 #
coedge $-1 -1 $-1 $92 $242 $237 $243 reversed $164 $-1 #
loop $-1 -1 $-1 $-1 $92 $244 #
vertex $-1 -1 $-1 $93 $245 #
straight-curve $-1 -1 $-1 18.01506350946109 5.0000000000000018 13.605662432702596 -8.6602540378443891 -9.6148134319178245e-016 4.9999999999999964 I I #
coedge $-1 -1 $-1 $168 $94 $246 $247 forward $96 $-1 #
coedge $-1 -1 $-1 $95 $167 $248 $249 forward $96 $-1 #
edge $-1 -1 $-1 $97 0 $250 0.25 $95 $251 forward @7 unknown #
face $-1 -1 $-1 $252 $96 $2 $-1 $253 reversed single #
point $-1 -1 $-1 12.799999999999992 5.0000000000000009 16.616580753730954 #
coedge $-1 -1 $-1 $254 $255 $99 $173 reversed $256 $-1 #
edge $-1 -1 $-1 $240 -0.58082903768654792 $175 -0.41917096231345274 $99 $257 forward @7 unknown #
coedge $-1 -1 $-1 $179 $100 $255 $258 reversed $5 $-1 #
vertex $-1 -1 $-1 $173 $259 #
straight-curve $-1 -1 $-1 14.999999999999996 5.0000000000000018 15 10 1.1102230246251567e-015 0 F -4.6000009999999998 F 3.6000010000000007 #
coedge $-1 -1 $-1 $102 $218 $138 $200 reversed $156 $-1 #
ellipse-curve $-1 -1 $-1 19.999999999999993 15.000000000000002 15 1 0 0 3.1401849173675498e-015 -7.0710678118654746 -7.0710678118654746 1 I I #
coedge $-1 -1 $-1 $104 $174 $260 $261 forward $5 $-1 #
coedge $-1 -1 $-1 $262 $246 $104 $181 forward $263 $-1 #
edge $-1 -1 $-1 $182 -1.4084257292101994 $264 -1.2415645610104886 $104 $265 reversed @7 unknown #
vertex $-1 -1 $-1 $247 $266 #
ellipse-curve $-1 -1 $-1 12.799999999999994 15.000000000000002 15 -1 -0 -6.8677238799412993e-016 3.1401849173675498e-015 -7.0710678118654746 -7.0710678118654746 1 I I #
edge $-1 -1 $-1 $186 -0.78539816339744783 $89 0.78539816339744828 $108 $267 forward @7 unknown #
coedge $-1 -1 $-1 $268 $109 $112 $190 forward $122 $-1 #
vertex $-1 -1 $-1 $215 $269 #
straight-curve $-1 -1 $-1 14.999999999999993 15.000000000000002 5 -10 -1.1102230246251567e-015 0 F -3.6000010000000007 F 4.6000009999999998 #
coedge $-1 -1 $-1 $189 $111 $270 $271 reversed $113 $-1 #
coedge $-1 -1 $-1 $112 $188 $272 $273 reversed $113 $-1 #
edge $-1 -1 $-1 $114 0.044170962313452744 $274 0.20582903768654792 $185 $275 forward @7 unknown #
face $-1 -1 $-1 $276 $113 $2 $-1 $277 reversed single #
point $-1 -1 $-1 7.1999999999999966 15.000000000000002 5 #
coedge $-1 -1 $-1 $129 $270 $116 $194 forward $208 $-1 #
edge $-1 -1 $-1 $195 0 $133 0.32331615074619013 $116 $278 forward @7 unknown #
vertex $-1 -1 $-1 $117 $279 #
straight-curve $-1 -1 $-1 7.1999999999999975 13.383419246269053 4.9999999999999973 -1.1102230246251565e-015 -2.2204460492503135e-015 -10 I I #
plane-surface $-1 -1 $-1 7.1999999999999984 13.38341924626905 4.9999999999999973 -0.49999999999999961 -0.86602540378443893 2.4780741986961431e-016 8.6602540378443891 -4.9999999999999956 1.1102230246251561e-015 reverse_v I I I I #
coedge $-1 -1 $-1 $121 $268 $137 $213 forward $122 $-1 #
face $-1 -1 $-1 $-1 $122 $2 $-1 $280 forward single #
edge $-1 -1 $-1 $123 -0.5 $222 0 $177 $281 forward @7 tangent #
point $-1 -1 $-1 19.999999999999996 15 5 #
coedge $-1 -1 $-1 $137 $282 $125 $203 reversed $78 $-1 #
edge $-1 -1 $-1 $204 0 $283 0.25 $125 $284 forward @7 unknown #
vertex $-1 -1 $-1 $213 $285 #
straight-curve $-1 -1 $-1 12.799999999999992 12.94170962313453 5 7.9779469045664554e-015 -10 0 I I #
coedge $-1 -1 $-1 $286 $129 $127 $207 forward $208 $-1 #
edge $-1 -1 $-1 $131 0 $283 0.32331615074619036 $127 $287 forward @7 unknown #
loop $-1 -1 $-1 $-1 $288 $289 #
straight-curve $-1 -1 $-1 9.9999999999999964 11.766838492538101 2.4999999999999973 8.6602540378443855 5 -1.1102230246251565e-015 I I #
point $-1 -1 $-1 12.799999999999992 13.383419246269053 2.4999999999999964 #
point $-1 -1 $-1 9.9999999999999964 11.766838492538101 2.4999999999999973 #
coedge $-1 -1 $-1 $282 $137 $290 $291 forward $78 $-1 #
edge $-1 -1 $-1 $292 -0.30498711305964271 $204 0.018329037686547252 $198 $293 forward @7 unknown #
coedge $-1 -1 $-1 $220 $150 $139 $215 reversed $152 $-1 #
edge $-1 -1 $-1 $223 0 $186 0.5 $214 $294 forward @7 tangent #
ellipse-curve $-1 -1 $-1 9.9999999999999964 15 5 -0 -0 -1 7.0710678118654746 7.0710678118654746 0 1 I I #
coedge $-1 -1 $-1 $142 $141 $295 $296 reversed $42 $-1 #
coedge $-1 -1 $-1 $177 $155 $141 $219 forward $156 $-1 #
edge $-1 -1 $-1 $297 0 $222 1.5 $218 $298 forward @7 unknown #
coedge $-1 -1 $-1 $151 $214 $142 $221 forward $152 $-1 #
edge $-1 -1 $-1 $223 1.0000000000000004 $299 2.5 $220 $300 forward @7 unknown #
vertex $-1 -1 $-1 $144 $301 #
vertex $-1 -1 $-1 $221 $302 #
ellipse-curve $-1 -1 $-1 9.9999999999999964 14.999999999999998 0 0 0 1 -7.0710678118654746 7.0710678118654755 0 1 I I #
face $-1 -1 $-1 $244 $303 $2 $-1 $304 reversed single #
point $-1 -1 $-1 11.549999999999995 15.000000000000002 -4.6129766673175267e-015 #
coedge $-1 -1 $-1 $295 $148 $151 $231 reversed $229 $-1 #
coedge $-1 -1 $-1 $148 $295 $155 $234 forward $229 $-1 #
loop $-1 -1 $-1 $305 $148 $306 #
ellipse-curve $-1 -1 $-1 9.9999999999999964 0 15 -2.775557561562892e-017 1 0 7.0710678118654746 0 7.0710678118654746 1 I I #
edge $-1 -1 $-1 $299 0 $153 1.5 $227 $307 forward @7 unknown #
face $-1 -1 $-1 $235 $152 $2 $-1 $308 forward single #
point $-1 -1 $-1 0 0 15 #
edge $-1 -1 $-1 $297 0 $157 1.5 $228 $309 forward @7 unknown #
face $-1 -1 $-1 $306 $156 $2 $-1 $310 forward single #
point $-1 -1 $-1 19.999999999999996 5.5511151231257827e-016 15 #
coedge $-1 -1 $-1 $311 $160 $163 $243 forward $239 $-1 #
coedge $-1 -1 $-1 $160 $311 $254 $312 reversed $239 $-1 #
loop $-1 -1 $-1 $-1 $160 $313 #
vertex $-1 -1 $-1 $173 $314 #
straight-curve $-1 -1 $-1 10.884936490538896 5.0000000000000009 18.744079828490264 -8.6602540378443855 -9.6148134319178225e-016 -5.0000000000000018 I I #
coedge $-1 -1 $-1 $163 $162 $315 $316 forward $164 $-1 #
edge $-1 -1 $-1 $165 0 $317 0.25 $237 $318 forward @7 unknown #
face $-1 -1 $-1 $170 $164 $2 $-1 $319 reversed single #
point $-1 -1 $-1 9.9999999999999947 5.0000000000000009 18.233161507461904 #
coedge $-1 -1 $-1 $180 $320 $167 $247 reversed $263 $-1 #
edge $-1 -1 $-1 $182 -0.013153169601955783 $321 0.25 $246 $322 forward @7 unknown #
coedge $-1 -1 $-1 $323 $315 $168 $249 reversed $324 $-1 #
edge $-1 -1 $-1 $321 0 $250 0.32331615074619036 $168 $325 forward @7 unknown #
vertex $-1 -1 $-1 $169 $326 #
straight-curve $-1 -1 $-1 12.799999999999992 5.0000000000000009 16.616580753730954 0 -10 0 I I #
face $-1 -1 $-1 $327 $263 $2 $-1 $328 reversed single #
plane-surface $-1 -1 $-1 12.799999999999994 5.0000000000000009 13.38341924626905 1 0 6.8677238799412993e-016 -6.8677238799412989e-015 -7.6247051782788469e-031 10 forward_v I I I I #
coedge $-1 -1 $-1 $329 $172 $238 $312 forward $256 $-1 #
coedge $-1 -1 $-1 $172 $330 $174 $258 forward $256 $-1 #
loop $-1 -1 $-1 $-1 $172 $331 #
straight-curve $-1 -1 $-1 7.200000000000002 5.0000000000000009 10.808290376865472 6.8677238799413012e-015 7.6247051782788495e-031 -10 I I #
edge $-1 -1 $-1 $332 0.62302756581275098 $175 0.78539816339744828 $174 $333 reversed @7 unknown #
point $-1 -1 $-1 7.1999999999999984 5.0000000000000009 15 #
coedge $-1 -1 $-1 $334 $335 $179 $261 reversed $336 $-1 #
edge $-1 -1 $-1 $332 -1.4084257292101996 $264 -1.2415645610104886 $179 $337 forward @7 unknown #
coedge $-1 -1 $-1 $320 $180 $335 $338 forward $263 $-1 #
loop $-1 -1 $-1 $-1 $262 $252 #
vertex $-1 -1 $-1 $338 $339 #
ellipse-curve $-1 -1 $-1 15.599999999999991 15.000000000000002 15 -0.49999999999999994 0 0.86602540378443871 -17.320508075688775 -2.7755575615628914e-015 -9.9999999999999982 0.49999999999999994 I I #
point $-1 -1 $-1 12.799999999999994 5.1315316960195592 13.38341924626905 #
ellipse-curve $-1 -1 $-1 -6.6613381477509392e-015 15 15 -1 -3.0616169978683826e-016 0 3.1401849173675498e-015 -7.0710678118654746 -7.0710678118654746 1 I I #
coedge $-1 -1 $-1 $198 $185 $340 $341 forward $122 $-1 #
point $-1 -1 $-1 -4.592425496802572e-015 14.999999999999996 5 #
coedge $-1 -1 $-1 $193 $288 $188 $271 forward $208 $-1 #
edge $-1 -1 $-1 $342 0 $195 0.32331615074619036 $188 $343 forward @7 unknown #
coedge $-1 -1 $-1 $344 $340 $189 $273 forward $345 $-1 #
edge $-1 -1 $-1 $274 0 $342 0.25 $272 $346 forward @7 unknown #
vertex $-1 -1 $-1 $190 $347 #
straight-curve $-1 -1 $-1 7.1999999999999966 14.558290376865475 5 -7.9779469045664586e-015 10 0 I I #
face $-1 -1 $-1 $289 $345 $2 $-1 $348 reversed single #
plane-surface $-1 -1 $-1 7.1999999999999957 16.616580753730954 4.9999999999999964 -1 -7.9779469045664578e-016 1.1102230246251583e-016 7.9779469045664586e-015 -10 2.2204460492503135e-015 reverse_v I I I I #
straight-curve $-1 -1 $-1 7.1999999999999975 13.38341924626905 2.4999999999999973 8.6602540378443891 -4.9999999999999956 1.1102230246251561e-015 I I #
point $-1 -1 $-1 7.1999999999999975 13.38341924626905 2.4999999999999973 #
plane-surface $-1 -1 $-1 9.9999999999999947 12.5 5 0 0 1 10 0 0 forward_v I I I I #
straight-curve $-1 -1 $-1 19.999999999999996 15 0 0 0 -10 F -3.6000010000000002 F 3.1000010000000002 #
coedge $-1 -1 $-1 $202 $212 $286 $349 reversed $78 $-1 #
vertex $-1 -1 $-1 $203 $350 #
straight-curve $-1 -1 $-1 12.79999999999999 16.616580753730958 4.9999999999999956 -1.1102230246251565e-015 -2.2204460492503135e-015 -10 I I #
point $-1 -1 $-1 12.79999999999999 16.616580753730958 4.9999999999999956 #
coedge $-1 -1 $-1 $288 $206 $282 $349 forward $208 $-1 #
straight-curve $-1 -1 $-1 12.799999999999992 13.383419246269053 2.4999999999999964 -7.9779469045664554e-015 10 -2.2204460492503135e-015 I I #
coedge $-1 -1 $-1 $270 $286 $344 $351 forward $208 $-1 #
face $-1 -1 $-1 $225 $352 $2 $-1 $353 reversed single #
coedge $-1 -1 $-1 $340 $344 $212 $291 reversed $345 $-1 #
edge $-1 -1 $-1 $292 0 $354 0.25 $290 $355 forward @7 unknown #
vertex $-1 -1 $-1 $213 $356 #
straight-curve $-1 -1 $-1 12.641265877365267 16.708225942163693 5 8.6602540378443891 -4.9999999999999964 0 I I #
straight-curve $-1 -1 $-1 -3.3306690738754696e-015 14.999999999999996 0 0 0 10 F -3.1000010000000002 F 3.6000010000000002 #
coedge $-1 -1 $-1 $228 $227 $217 $296 forward $229 $-1 #
edge $-1 -1 $-1 $299 0 $297 1.9999999999999996 $295 $357 forward @7 unknown #
vertex $-1 -1 $-1 $296 $358 #
straight-curve $-1 -1 $-1 19.999999999999996 5.5511151231257827e-016 0 0 10 0 F 0 F 2.5 #
vertex $-1 -1 $-1 $296 $359 #
straight-curve $-1 -1 $-1 -7.6540424946709562e-015 25 0 3.0616169978683826e-015 -10 0 F 0 F 2.5 #
point $-1 -1 $-1 19.999999999999996 15 0 #
point $-1 -1 $-1 -4.592425496802572e-015 14.999999999999996 0 #
loop $-1 -1 $-1 $145 $360 $225 #
cone-surface $-1 -1 $-1 9.9999999999999964 15.000000000000002 4.9999999999999964 1.1102230246251565e-016 2.2204460492503136e-016 1 -1.5500000000000003 -1.7208456881689929e-016 1.7208456881689932e-016 1 I I -0 1 1.5500000000000003 reversed I I I I #
loop $-1 -1 $-1 $-1 $361 $306 #
face $-1 -1 $-1 $199 $229 $2 $-1 $362 forward single #
straight-curve $-1 -1 $-1 0 0 0 0 0 10 I I #
plane-surface $-1 -1 $-1 -7.6540424946709562e-015 25 0 -1 -3.0616169978683826e-016 0 3.0616169978683826e-015 -10 0 forward_v I I I I #
straight-curve $-1 -1 $-1 19.999999999999996 5.5511151231257827e-016 0 0 0 10 I I #
plane-surface $-1 -1 $-1 19.999999999999996 5.5511151231257827e-016 0 1 0 0 0 10 0 forward_v I I I I #
coedge $-1 -1 $-1 $238 $237 $363 $364 forward $239 $-1 #
edge $-1 -1 $-1 $240 0 $365 0.25 $238 $366 forward @7 unknown #
face $-1 -1 $-1 $367 $239 $2 $-1 $368 reversed single #
point $-1 -1 $-1 7.1999999999999966 5.0000000000000009 16.61658075373095 #
coedge $-1 -1 $-1 $248 $363 $242 $316 reversed $324 $-1 #
edge $-1 -1 $-1 $250 0 $317 0.32331615074619002 $242 $369 forward @7 unknown #
vertex $-1 -1 $-1 $243 $370 #
straight-curve $-1 -1 $-1 9.9999999999999947 5.0000000000000009 18.233161507461904 0 -10 0 I I #
plane-surface $-1 -1 $-1 12.799999999999992 5.0000000000000009 16.616580753730954 0.49999999999999967 0 0.86602540378443882 -8.6602540378443891 -9.6148134319178245e-016 4.9999999999999964 forward_v I I I I #
coedge $-1 -1 $-1 $246 $262 $323 $371 forward $263 $-1 #
vertex $-1 -1 $-1 $247 $372 #
straight-curve $-1 -1 $-1 12.799999999999994 5.0000000000000009 13.38341924626905 0 -10 0 I I #
coedge $-1 -1 $-1 $373 $248 $320 $371 reversed $324 $-1 #
loop $-1 -1 $-1 $-1 $363 $367 #
straight-curve $-1 -1 $-1 12.799999999999994 2.5000000000000009 13.38341924626905 -6.8677238799412989e-015 -7.6247051782788469e-031 10 I I #
point $-1 -1 $-1 12.799999999999992 2.5000000000000009 16.616580753730954 #
face $-1 -1 $-1 $331 $336 $2 $-1 $374 reversed single #
plane-surface $-1 -1 $-1 9.9999999999999964 5.0000000000000009 11.766838492538099 0.49999999999999994 0 -0.86602540378443871 8.6602540378443873 9.6148134319178225e-016 4.9999999999999991 forward_v I I I I #
coedge $-1 -1 $-1 $330 $254 $375 $376 forward $256 $-1 #
coedge $-1 -1 $-1 $255 $329 $334 $377 reversed $256 $-1 #
face $-1 -1 $-1 $313 $256 $2 $-1 $378 reversed single #
vertex $-1 -1 $-1 $377 $379 #
ellipse-curve $-1 -1 $-1 7.1999999999999957 15.000000000000002 15 1 0 6.8677238799413012e-016 3.1401849173675498e-015 -7.0710678118654746 -7.0710678118654746 1 I I #
coedge $-1 -1 $-1 $380 $260 $330 $377 forward $336 $-1 #
coedge $-1 -1 $-1 $260 $380 $262 $338 reversed $336 $-1 #
loop $-1 -1 $-1 $-1 $334 $327 #
ellipse-curve $-1 -1 $-1 4.3999999999999968 15 15 0.49999999999999967 0 0.86602540378443882 17.320508075688785 2.7755575615628914e-015 -9.9999999999999982 0.49999999999999967 I I #
edge $-1 -1 $-1 $264 -0.053708994723786208 $381 0.25 $335 $382 forward @7 unknown #
point $-1 -1 $-1 10 5.5370899472378632 11.766838492538096 #
coedge $-1 -1 $-1 $272 $290 $268 $341 reversed $345 $-1 #
edge $-1 -1 $-1 $274 -0.17998711305964252 $292 0.14332903768654773 $268 $383 forward @7 unknown #
vertex $-1 -1 $-1 $273 $384 #
straight-curve $-1 -1 $-1 7.199999999999994 16.616580753730954 2.4999999999999969 7.9779469045664586e-015 -10 2.2204460492503135e-015 I I #
coedge $-1 -1 $-1 $290 $272 $288 $351 reversed $345 $-1 #
loop $-1 -1 $-1 $-1 $340 $276 #
straight-curve $-1 -1 $-1 7.1999999999999957 16.616580753730954 4.9999999999999964 -1.1102230246251565e-015 -2.2204460492503135e-015 -10 I I #
point $-1 -1 $-1 7.1999999999999957 16.616580753730954 4.9999999999999964 #
plane-surface $-1 -1 $-1 9.9999999999999929 18.233161507461904 4.9999999999999964 -0.50000000000000033 0.86602540378443849 -1.3678511740709855e-016 -8.6602540378443855 -5.0000000000000036 1.1102230246251573e-015 reverse_v I I I I #
edge $-1 -1 $-1 $283 0 $354 0.32331615074619002 $282 $385 forward @7 unknown #
point $-1 -1 $-1 12.79999999999999 16.616580753730958 2.499999999999996 #
edge $-1 -1 $-1 $354 -0 $342 0.32331615074619025 $344 $386 forward @7 unknown #
loop $-1 -1 $-1 $208 $387 $289 #
plane-surface $-1 -1 $-1 9.9999999999999929 15 2.4999999999999956 1.1102230246251533e-016 -2.2204460492503123e-016 -1 1.1102230246251567e-015 -10 2.2204460492503123e-015 reverse_v I I I I #
vertex $-1 -1 $-1 $291 $388 #
straight-curve $-1 -1 $-1 9.9999999999999929 18.233161507461904 4.9999999999999964 -1.1102230246251565e-015 -2.2204460492503135e-015 -10 I I #
point $-1 -1 $-1 9.9999999999999929 18.233161507461904 4.9999999999999964 #
straight-curve $-1 -1 $-1 0 0 0 10 2.7755575615628918e-016 0 F 0 F 1.9999999999999996 #
point $-1 -1 $-1 19.999999999999996 5.5511151231257827e-016 0 #
point $-1 -1 $-1 0 0 0 #
coedge $-1 -1 $-1 $360 $360 $387 $389 forward $303 $-1 #
coedge $-1 -1 $-1 $361 $361 $390 $391 forward $305 $-1 #
plane-surface $-1 -1 $-1 0 0 0 2.775557561562892e-017 -1 0 10 2.7755575615628918e-016 0 forward_v I I I I #
coedge $-1 -1 $-1 $315 $375 $311 $364 reversed $324 $-1 #
edge $-1 -1 $-1 $317 -0 $365 0.32331615074619025 $311 $392 forward @7 unknown #
vertex $-1 -1 $-1 $312 $393 #
straight-curve $-1 -1 $-1 7.1999999999999966 5.0000000000000009 16.61658075373095 0 -10 0 I I #
face $-1 -1 $-1 $394 $395 $2 $-1 $396 reversed single #
plane-surface $-1 -1 $-1 9.9999999999999947 5.0000000000000009 18.233161507461904 -0.50000000000000022 0 0.8660254037844386 -8.6602540378443855 -9.6148134319178225e-016 -5.0000000000000018 forward_v I I I I #
straight-curve $-1 -1 $-1 12.799999999999992 2.5000000000000009 16.616580753730954 -8.6602540378443891 -9.6148134319178245e-016 4.9999999999999964 I I #
point $-1 -1 $-1 9.9999999999999947 2.5000000000000009 18.233161507461904 #
edge $-1 -1 $-1 $381 0 $321 0.32331615074619013 $320 $397 forward @7 unknown #
point $-1 -1 $-1 12.799999999999994 2.5000000000000009 13.38341924626905 #
coedge $-1 -1 $-1 $375 $323 $380 $398 reversed $324 $-1 #
plane-surface $-1 -1 $-1 7.1999999999999984 5.0000000000000009 13.383419246269048 -0.49999999999999967 -0 -0.86602540378443882 8.6602540378443891 9.6148134319178245e-016 -4.9999999999999964 forward_v I I I I #
coedge $-1 -1 $-1 $363 $373 $329 $376 reversed $324 $-1 #
edge $-1 -1 $-1 $365 0 $399 0.32331615074619036 $329 $400 forward @7 unknown #
edge $-1 -1 $-1 $332 -0.013153169601955783 $399 0.25 $330 $401 forward @7 unknown #
plane-surface $-1 -1 $-1 7.1999999999999966 5.0000000000000009 16.61658075373095 -1 -0 -6.8677238799413012e-016 6.8677238799413012e-015 7.6247051782788495e-031 -10 forward_v I I I I #
point $-1 -1 $-1 7.1999999999999966 5.1315316960195592 13.383419246269048 #
coedge $-1 -1 $-1 $335 $334 $373 $398 forward $336 $-1 #
vertex $-1 -1 $-1 $338 $402 #
straight-curve $-1 -1 $-1 9.9999999999999964 5.0000000000000009 11.766838492538099 0 -10 0 I I #
straight-curve $-1 -1 $-1 8.7587341226347188 17.516516319029169 5 8.6602540378443855 5.0000000000000036 0 I I #
point $-1 -1 $-1 7.199999999999994 16.616580753730954 2.4999999999999969 #
straight-curve $-1 -1 $-1 12.79999999999999 16.616580753730958 2.499999999999996 -8.6602540378443891 4.9999999999999956 -1.1102230246251561e-015 I I #
straight-curve $-1 -1 $-1 9.9999999999999929 18.233161507461904 2.499999999999996 -8.6602540378443855 -5.0000000000000036 1.1102230246251573e-015 I I #
coedge $-1 -1 $-1 $387 $387 $360 $389 reversed $352 $-1 #
point $-1 -1 $-1 9.9999999999999929 18.233161507461904 2.499999999999996 #
edge $-1 -1 $-1 $403 -3.1415926535897931 $403 3.1415926535897931 $360 $404 forward @7 unknown #
coedge $-1 -1 $-1 $390 $390 $361 $391 reversed $405 $-1 #
edge $-1 -1 $-1 $406 -3.1415926535897931 $406 3.1415926535897931 $361 $407 forward @7 unknown #
straight-curve $-1 -1 $-1 9.9999999999999947 2.5000000000000009 18.233161507461904 -8.6602540378443855 -9.6148134319178225e-016 -5.0000000000000018 I I #
point $-1 -1 $-1 7.1999999999999966 2.5000000000000009 16.61658075373095 #
face $-1 -1 $-1 $232 $408 $2 $-1 $409 reversed single #
loop $-1 -1 $-1 $324 $410 $367 #
plane-surface $-1 -1 $-1 9.9999999999999947 2.5 14.999999999999998 2.2204460492503099e-016 -1 1.1504221534473081e-031 0 -1.1504221534473081e-030 -10 forward_v I I I I #
straight-curve $-1 -1 $-1 9.9999999999999964 2.5000000000000009 11.766838492538099 8.6602540378443873 9.6148134319178225e-016 4.9999999999999991 I I #
edge $-1 -1 $-1 $399 0 $381 0.32331615074619013 $380 $411 forward @7 unknown #
vertex $-1 -1 $-1 $377 $412 #
straight-curve $-1 -1 $-1 7.1999999999999966 2.5000000000000009 16.61658075373095 6.8677238799413012e-015 7.6247051782788495e-031 -10 I I #
straight-curve $-1 -1 $-1 7.1999999999999984 5.0000000000000009 13.383419246269048 0 -10 0 I I #
point $-1 -1 $-1 9.9999999999999964 2.5000000000000009 11.766838492538099 #
vertex $-1 -1 $-1 $389 $413 #
ellipse-curve $-1 -1 $-1 9.9999999999999947 15.000000000000002 2.4999999999999956 -1.1102230246251533e-016 2.2204460492503123e-016 1 -1.5500000000000003 -1.7208456881689929e-016 1.7208456881689932e-016 1 I I #
loop $-1 -1 $-1 $-1 $390 $394 #
vertex $-1 -1 $-1 $391 $414 #
ellipse-curve $-1 -1 $-1 9.9999999999999964 0 15 -2.775557561562892e-017 1 0 -1.5500000000000003 0 0 1 I I #
loop $-1 -1 $-1 $405 $415 $394 #
cone-surface $-1 -1 $-1 9.9999999999999964 5.0000000000000009 15 0 -1 0 -1.5500000000000003 0 0 1 I I 0 1 1.5500000000000003 forward I I I I #
coedge $-1 -1 $-1 $410 $410 $415 $416 reversed $395 $-1 #
straight-curve $-1 -1 $-1 7.1999999999999984 2.5000000000000009 13.383419246269048 8.6602540378443891 9.6148134319178245e-016 -4.9999999999999964 I I #
point $-1 -1 $-1 7.1999999999999984 2.5000000000000009 13.383419246269048 #
point $-1 -1 $-1 11.549999999999995 15.000000000000002 2.4999999999999964 #
point $-1 -1 $-1 11.549999999999997 0 15 #
coedge $-1 -1 $-1 $415 $415 $410 $416 forward $408 $-1 #
edge $-1 -1 $-1 $417 -3.1415926535897931 $417 3.1415926535897931 $415 $418 forward @7 unknown #
vertex $-1 -1 $-1 $416 $419 #
ellipse-curve $-1 -1 $-1 9.9999999999999964 2.5 15 -2.2204460492503099e-016 1 -1.1504221534473081e-031 -1.5500000000000003 0 0 1 I I #
point $-1 -1 $-1 11.549999999999997 2.5000000000000009 15 #
End-of-ACIS-data 