700 0 1 0           
33 Autodesk Inventor 17.0.13800.0000 19 ASM 218.0.0.5119 NT 24 Fri Oct 18 14:28:18 2013 
1 9.9999999999999995e-007 1e-010 
body $-1 -1 $-1 $1 $-1 $-1 #
lump $-1 -1 $-1 $-1 $2 $0 #
shell $-1 -1 $-1 $-1 $-1 $3 $-1 $1 #
face $-1 -1 $-1 $4 $5 $2 $-1 $6 reversed single #
face $-1 -1 $-1 $7 $8 $2 $-1 $9 reversed single #
loop $-1 -1 $-1 $-1 $10 $3 #
plane-surface $-1 -1 $-1 -4.3301270189221928 -6.9388939039072284e-016 55 -0.86602540378443871 0.49999999999999983 0 4.9999999999999982 8.6602540378443873 0 forward_v I I I I #
face $-1 -1 $-1 $11 $12 $2 $-1 $13 reversed single #
loop $-1 -1 $-1 $-1 $14 $4 #
plane-surface $-1 -1 $-1 -2.1650635094610964 -3.75 55 -0.86602540378443871 -0.50000000000000011 -0 -5.0000000000000009 8.6602540378443873 0 forward_v I I I I #
coedge $-1 -1 $-1 $15 $16 $17 $18 reversed $5 $-1 #
face $-1 -1 $-1 $19 $20 $2 $-1 $21 reversed single #
loop $-1 -1 $-1 $-1 $22 $7 #
plane-surface $-1 -1 $-1 2.1650635094610955 -3.7500000000000004 55 -1.2819751242557097e-016 -1 -0 -10 1.2819751242557098e-015 0 forward_v I I I I #
coedge $-1 -1 $-1 $23 $24 $25 $26 reversed $8 $-1 #
coedge $-1 -1 $-1 $27 $10 $24 $28 forward $5 $-1 #
coedge $-1 -1 $-1 $10 $27 $29 $30 reversed $5 $-1 #
coedge $-1 -1 $-1 $31 $25 $10 $18 forward $32 $-1 #
edge $-1 -1 $-1 $33 -0.10825317547305478 $34 0.32475952641916439 $17 $35 forward @7 unknown #
face $-1 -1 $-1 $36 $37 $2 $-1 $38 reversed single #
loop $-1 -1 $-1 $-1 $39 $11 #
plane-surface $-1 -1 $-1 4.3301270189221928 -1.3704315460216776e-015 55 0.8660254037844386 -0.50000000000000022 0 -5.0000000000000018 -8.6602540378443855 0 forward_v I I I I #
coedge $-1 -1 $-1 $40 $41 $42 $43 reversed $12 $-1 #
coedge $-1 -1 $-1 $44 $14 $41 $45 forward $8 $-1 #
coedge $-1 -1 $-1 $14 $44 $15 $28 reversed $8 $-1 #
coedge $-1 -1 $-1 $17 $42 $14 $26 forward $32 $-1 #
edge $-1 -1 $-1 $46 -0.10825317547305488 $33 0.32475952641916445 $25 $47 forward @7 unknown #
coedge $-1 -1 $-1 $16 $15 $48 $49 forward $5 $-1 #
edge $-1 -1 $-1 $33 0 $50 0.34999999999999964 $24 $51 forward @7 unknown #
coedge $-1 -1 $-1 $52 $53 $16 $30 forward $54 $-1 #
edge $-1 -1 $-1 $34 0 $55 0.34999999999999964 $29 $56 forward @7 unknown #
coedge $-1 -1 $-1 $57 $17 $53 $58 forward $32 $-1 #
loop $-1 -1 $-1 $59 $17 $60 #
vertex $-1 -1 $-1 $18 $61 #
vertex $-1 -1 $-1 $18 $62 #
straight-curve $-1 -1 $-1 -3.7888611415569184 0.93749999999999889 55 4.9999999999999982 8.6602540378443873 0 I I #
face $-1 -1 $-1 $63 $54 $2 $-1 $64 reversed single #
loop $-1 -1 $-1 $-1 $65 $19 #
plane-surface $-1 -1 $-1 2.1650635094610946 3.7500000000000004 55 0.8660254037844386 0.50000000000000022 0 5.0000000000000018 -8.6602540378443855 0 forward_v I I I I #
coedge $-1 -1 $-1 $66 $67 $68 $69 reversed $20 $-1 #
coedge $-1 -1 $-1 $70 $22 $67 $71 forward $12 $-1 #
coedge $-1 -1 $-1 $22 $70 $23 $45 reversed $12 $-1 #
coedge $-1 -1 $-1 $25 $68 $22 $43 forward $32 $-1 #
edge $-1 -1 $-1 $72 -0.10825317547305484 $46 0.32475952641916433 $42 $73 forward @7 unknown #
coedge $-1 -1 $-1 $24 $23 $74 $75 forward $8 $-1 #
edge $-1 -1 $-1 $46 0 $76 0.34999999999999964 $41 $77 forward @7 unknown #
vertex $-1 -1 $-1 $26 $78 #
straight-curve $-1 -1 $-1 -2.7063293868263711 -2.8125 55 -5.0000000000000009 8.6602540378443873 0 I I #
coedge $-1 -1 $-1 $74 $79 $27 $49 reversed $80 $-1 #
edge $-1 -1 $-1 $50 0 $55 0.43301270189221919 $27 $81 forward @7 unknown #
vertex $-1 -1 $-1 $28 $82 #
straight-curve $-1 -1 $-1 -4.3301270189221928 -6.9388939039072284e-016 55 0 0 -10 I I #
coedge $-1 -1 $-1 $83 $29 $79 $84 forward $54 $-1 #
coedge $-1 -1 $-1 $29 $83 $31 $58 reversed $54 $-1 #
loop $-1 -1 $-1 $-1 $53 $36 #
vertex $-1 -1 $-1 $30 $85 #
straight-curve $-1 -1 $-1 -2.1650635094610973 3.7499999999999982 55 0 0 -10 I I #
coedge $-1 -1 $-1 $68 $31 $65 $86 forward $32 $-1 #
edge $-1 -1 $-1 $34 -0.10825317547305474 $87 0.32475952641916445 $31 $88 forward @7 unknown #
loop $-1 -1 $-1 $-1 $89 $60 #
face $-1 -1 $-1 $-1 $32 $2 $-1 $90 forward single #
point $-1 -1 $-1 -4.3301270189221928 -6.9388939039072284e-016 55 #
point $-1 -1 $-1 -2.1650635094610973 3.7499999999999982 55 #
face $-1 -1 $-1 $91 $92 $2 $-1 $93 forward single #
plane-surface $-1 -1 $-1 -2.1650635094610973 3.7499999999999982 55 -5.1279004970228388e-016 1 0 10 5.1279004970228392e-015 0 forward_v I I I I #
coedge $-1 -1 $-1 $94 $95 $57 $86 reversed $37 $-1 #
coedge $-1 -1 $-1 $96 $39 $95 $97 forward $20 $-1 #
coedge $-1 -1 $-1 $39 $96 $40 $71 reversed $20 $-1 #
coedge $-1 -1 $-1 $42 $57 $39 $69 forward $32 $-1 #
edge $-1 -1 $-1 $98 -0.10825317547305485 $72 0.3247595264191645 $68 $99 forward @7 unknown #
coedge $-1 -1 $-1 $41 $40 $100 $101 forward $12 $-1 #
edge $-1 -1 $-1 $72 0 $102 0.34999999999999964 $67 $103 forward @7 unknown #
vertex $-1 -1 $-1 $43 $104 #
straight-curve $-1 -1 $-1 1.0825317547305473 -3.75 55 -10 1.2819751242557098e-015 0 I I #
coedge $-1 -1 $-1 $100 $48 $44 $75 reversed $80 $-1 #
edge $-1 -1 $-1 $76 0 $50 0.4330127018922193 $44 $105 forward @7 unknown #
vertex $-1 -1 $-1 $45 $106 #
straight-curve $-1 -1 $-1 -2.1650635094610964 -3.75 55 0 0 -10 I I #
point $-1 -1 $-1 -2.1650635094610964 -3.75 55 #
coedge $-1 -1 $-1 $48 $107 $52 $84 reversed $80 $-1 #
loop $-1 -1 $-1 $-1 $79 $63 #
straight-curve $-1 -1 $-1 -4.3301270189221928 -6.9388939039072284e-016 51.5 4.9999999999999982 8.6602540378443873 0 I I #
point $-1 -1 $-1 -4.3301270189221928 -5.5511151231257827e-016 51.5 #
coedge $-1 -1 $-1 $53 $52 $94 $108 reversed $54 $-1 #
edge $-1 -1 $-1 $55 0 $109 0.43301270189221919 $52 $110 forward @7 unknown #
point $-1 -1 $-1 -2.1650635094610973 3.7499999999999982 51.5 #
edge $-1 -1 $-1 $87 -0.10825317547305488 $98 0.32475952641916472 $57 $111 forward @7 unknown #
vertex $-1 -1 $-1 $86 $112 #
straight-curve $-1 -1 $-1 -1.08253175473055 3.7499999999999991 55 10 5.1279004970228392e-015 0 I I #
coedge $-1 -1 $-1 $113 $114 $115 $116 forward $59 $-1 #
plane-surface $-1 -1 $-1 -5.8443644509223602e-016 0 55 0 0 1 10 0 0 forward_v I I I I #
face $-1 -1 $-1 $117 $118 $2 $-1 $119 reversed single #
loop $-1 -1 $-1 $80 $120 $63 #
plane-surface $-1 -1 $-1 -1.6024689053196365e-016 -4.4067894896290004e-016 51.499999999999993 0 0 1 10 0 0 forward_v I I I I #
coedge $-1 -1 $-1 $121 $65 $83 $108 forward $37 $-1 #
coedge $-1 -1 $-1 $65 $121 $66 $97 reversed $37 $-1 #
coedge $-1 -1 $-1 $67 $66 $122 $123 forward $20 $-1 #
edge $-1 -1 $-1 $98 0 $124 0.34999999999999964 $95 $125 forward @7 unknown #
vertex $-1 -1 $-1 $69 $126 #
straight-curve $-1 -1 $-1 3.7888611415569184 -0.93750000000000122 55 -5.0000000000000018 -8.6602540378443855 0 I I #
coedge $-1 -1 $-1 $122 $74 $70 $101 reversed $80 $-1 #
edge $-1 -1 $-1 $102 0 $76 0.43301270189221919 $70 $127 forward @7 unknown #
vertex $-1 -1 $-1 $71 $128 #
straight-curve $-1 -1 $-1 2.1650635094610955 -3.7500000000000004 55 0 0 -10 I I #
point $-1 -1 $-1 2.1650635094610955 -3.7500000000000004 55 #
straight-curve $-1 -1 $-1 -2.1650635094610964 -3.75 51.5 -5.0000000000000009 8.6602540378443873 0 I I #
point $-1 -1 $-1 -2.1650635094610964 -3.7499999999999996 51.5 #
coedge $-1 -1 $-1 $79 $122 $121 $129 reversed $80 $-1 #
edge $-1 -1 $-1 $87 0 $109 0.34999999999999964 $83 $130 forward @7 unknown #
vertex $-1 -1 $-1 $108 $131 #
straight-curve $-1 -1 $-1 -2.1650635094610973 3.7499999999999982 51.5 10 5.1279004970228392e-015 0 I I #
straight-curve $-1 -1 $-1 2.7063293868263694 2.8125000000000004 55 5.0000000000000018 -8.6602540378443855 0 I I #
point $-1 -1 $-1 2.1650635094610946 3.7500000000000004 55 #
coedge $-1 -1 $-1 $114 $89 $132 $133 forward $59 $-1 #
coedge $-1 -1 $-1 $89 $113 $134 $135 forward $59 $-1 #
coedge $-1 -1 $-1 $136 $137 $89 $116 reversed $118 $138 #
edge $-1 -1 $-1 $139 0 $140 2.1244767489487835 $89 $141 forward @7 unknown #
face $-1 -1 $-1 $142 $143 $2 $-1 $144 reversed single #
loop $-1 -1 $-1 $-1 $145 $91 #
spline-surface $-1 -1 $-1 forward { sweepsur angled 
	straight 6.2500000000000009 0 56 7.0710678118654862 0 -7.0710678118654631 I I 
	intcurve forward { lawintcur none F 0 F 188.81850400780397 OPEN 
	null_surface 
	null_surface 
	nullbs 
	nullbs 
	I I 
	0 
	0 
	0 
	@113 VEC(6.250000000000001,0,0)*COS(X)+VEC(0,-6.250000000000001,0)*SIN(X)+X*VEC(-0,-0,-0.3184690411268826)+VEC(0,0,56) 
	0 
	
	0 } I I 
	angled 
	-0 -0.998704314174095 -0.050889024848688777 
	6.2500000000000009 0 56 
	1 0 0 
	0 -0.050889024848688777 0.998704314174095 
	-0 -0.998704314174095 -0.050889024848688777 
	0 188.81850400780397 
	0 0 @114 CROSS(DCUR(EDGE1,1),VEC(-0,-0,-1))*DOT(CROSS(DCUR(EDGE2,1),VEC(-0,-0,-1)),CROSS(DCUR(EDGE3,1),VEC(-0,-0,-1)))^-0.5 
	3 
	@4 EDGE 
	intcurve forward { ref 1 } I I 
	0 
	188.81850400780397 @4 EDGE 
	intcurve forward { ref 1 } I I 
	0 
	188.81850400780397 @4 EDGE 
	intcurve forward { ref 1 } I I 
	0 
	188.81850400780397 @1 0 
	0 
	@10 VEC(1,1,1) 
	0 
	none F 0 F 0.14142135623730923 F 0 F 188.81850400780397 CLOSURE_UNSET CLOSURE_UNSET SINGULARITY_UNKNOWN SINGULARITY_UNKNOWN 
	0 
	0 
	0 
	0 
	0 
	0 
	} F 0 F 0.14142135623730923 F 0 F 175.8412679670449 #
coedge $-1 -1 $-1 $120 $120 $146 $147 reversed $92 $-1 #
coedge $-1 -1 $-1 $95 $94 $107 $129 forward $37 $-1 #
coedge $-1 -1 $-1 $107 $100 $96 $123 reversed $80 $-1 #
edge $-1 -1 $-1 $124 0 $102 0.43301270189221935 $96 $148 forward @7 unknown #
vertex $-1 -1 $-1 $97 $149 #
straight-curve $-1 -1 $-1 4.3301270189221928 -1.3704315460216776e-015 55 0 0 -10 I I #
point $-1 -1 $-1 4.3301270189221928 -1.3704315460216776e-015 55 #
straight-curve $-1 -1 $-1 2.1650635094610955 -3.7500000000000004 51.5 -10 1.2819751242557098e-015 0 I I #
point $-1 -1 $-1 2.1650635094610955 -3.7500000000000004 51.5 #
edge $-1 -1 $-1 $109 0 $124 0.43301270189221958 $121 $150 forward @7 unknown #
straight-curve $-1 -1 $-1 2.1650635094610946 3.7500000000000004 55 0 0 -10 I I #
point $-1 -1 $-1 2.1650635094610946 3.7500000000000004 51.5 #
coedge $-1 -1 $-1 $151 $152 $113 $133 reversed $153 $-1 #
edge $-1 -1 $-1 $140 -3.1415926535897931 $154 -3.1384526309475236 $132 $155 forward @7 unknown #
coedge $-1 -1 $-1 $156 $157 $114 $135 reversed $143 $158 #
edge $-1 -1 $-1 $154 0 $139 2.1312195506470197 $114 $159 forward @7 unknown #
coedge $-1 -1 $-1 $145 $115 $157 $160 forward $118 $161 #
coedge $-1 -1 $-1 $115 $145 $151 $162 reversed $118 $163 #
pcurve $-1 -1 $-1 -1 $141 0 0 #
vertex $-1 -1 $-1 $135 $164 #
vertex $-1 -1 $-1 $162 $165 #
intcurve-curve $-1 -1 $-1 forward { surfintcur full nubs 3 open 10 
	0 3 0.24620444526267862 2 0.49714268690483998 2 0.75281299192240281 2 1.0132136527915834 2 
	1.2783429869494434 2 1.5481993362716799 2 1.8227810665506705 2 1.9729318472895594 2 2.1244767489487835 3 
	-6.249992297077994 -0.0098125667258900182 55 
	-6.2904691168200388 -0.8294952648395808 55 
	-6.168978961588472 -1.6490931426527018 55 
	-5.6160215020489428 -3.2119940880149271 55 
	-5.1841821868719604 -3.938121877558709 55 
	-4.0577912097977595 -5.1981493117023287 55 
	-3.3696224482050487 -5.715786516044572 55 
	-1.8201847587230591 -6.4679562652543732 55 
	-0.97127385953370293 -6.6897311542782365 55 
	0.77991696784387732 -6.7993858661094899 55 
	1.6656109787124171 -6.6801349976112379 55 
	3.3578851768236095 -6.1064061757423236 55 
	4.1461200560152989 -5.6517273897185341 55 
	5.5182310225105438 -4.4573163462833243 55 
	6.0848247593823874 -3.7245664080281893 55 
	6.7216066757642174 -2.4556802592086497 55 
	6.8985874979068438 -1.9845305090907646 55 
	7.1524958648878725 -1.0085126580088795 55 
	7.2277676153088262 -0.50612388708388401 55 
	7.2500000000000009 0 55 
	8.697387957903343e-006 
	spline forward { ref 0 } F 0 F 0.14142135623730923 F 0 F 188.49555921538757 
	plane -5.8443644509223602e-016 0 55 0 0 1 10 0 0 forward_v I I I I 
	nubs 3 open 10 
	0 3 0.24620444526267862 3 0.49714268690483998 3 0.75281299192240281 3 1.0132136527915834 3 
	1.2783429869494434 3 1.5481993362716799 3 1.8227810665506705 3 1.9729318472895594 3 2.1244767489487835 3 
	0 3.1400226422686548 
	0.0059062763296777124 3.0088837400538937 
	0.011699082197625095 2.8802642580210751 
	0.017493446707889208 2.7516101689649894 
	0.023399220017904385 2.6204824354532583 
	0.02919264583838263 2.4918491884203302 
	0.034988626120646175 2.3631592238727492 
	0.040893903996766935 2.2320424906348637 
	0.046687915314760423 2.1033962436173237 
	0.052485441010183626 1.9746719657775915 
	0.058390231253190344 1.8435660596103827 
	0.064184796122067053 1.7149075219293022 
	0.069983801266914572 1.5861503954108835 
	0.075888111830872115 1.4550551397077596 
	0.081683200588564625 1.3263849699593071 
	0.087483623261946711 1.1975963696111003 
	0.093387462202049951 1.0665115855200478 
	0.099183047270726188 0.93783039602346141 
	0.10498482927644315 0.80901161399390564 
	0.11088820470500864 0.67793712139462059 
	0.11668426041141206 0.54924548218125191 
	0.12248734699006376 0.42039773431045008 
	0.12566067530871991 0.34993933229079943 
	0.12881035166067545 0.28000608229167778 
	0.13195435161368649 0.21019886715522909 
	0.13512754299738111 0.13974350554539444 
	0.13827722224189373 0.06981019132191503 
	0.14142135623730923 0 
	
	nullbs 
	I I 
	0 
	0 
	0 
	} I I #
face $-1 -1 $-1 $166 $167 $2 $-1 $168 reversed single #
loop $-1 -1 $-1 $-1 $134 $117 #
spline-surface $-1 -1 $-1 forward { sweepsur angled 
	straight 7.2500000000000009 0 57 -7.071067811865456 -0 -7.071067811865495 I I 
	intcurve forward { lawintcur none F 0 F 188.81850400780397 OPEN 
	null_surface 
	null_surface 
	nullbs 
	nullbs 
	I I 
	0 
	0 
	0 
	@113 VEC(7.250000000000001,0,0)*COS(X)+VEC(0,-7.250000000000001,0)*SIN(X)+X*VEC(-0,-0,-0.3184690411268826)+VEC(0,0,57) 
	0 
	
	0 } I I 
	angled 
	-0 -0.99903661364966689 -0.043884445848228579 
	7.2500000000000009 0 57 
	1 0 0 
	0 -0.043884445848228586 0.999036613649667 
	-0 -0.99903661364966689 -0.043884445848228579 
	0 188.81850400780397 
	0 0 @114 CROSS(DCUR(EDGE1,1),VEC(-0,-0,-1))*DOT(CROSS(DCUR(EDGE2,1),VEC(-0,-0,-1)),CROSS(DCUR(EDGE3,1),VEC(-0,-0,-1)))^-0.5 
	3 
	@4 EDGE 
	intcurve forward { ref 4 } I I 
	0 
	188.81850400780397 @4 EDGE 
	intcurve forward { ref 4 } I I 
	0 
	188.81850400780397 @4 EDGE 
	intcurve forward { ref 4 } I I 
	0 
	188.81850400780397 @1 0 
	0 
	@10 VEC(1,1,1) 
	0 
	none F 0 F 0.14142135623730986 F 0 F 188.81850400780397 CLOSURE_UNSET CLOSURE_UNSET SINGULARITY_UNKNOWN SINGULARITY_UNKNOWN 
	0 
	0 
	0 
	0 
	0 
	0 
	} F 0 F 0.14142135623730986 F 3.1400226422686477 F 178.98129060931356 #
coedge $-1 -1 $-1 $137 $136 $169 $170 reversed $118 $171 #
coedge $-1 -1 $-1 $146 $146 $120 $147 forward $172 $-1 #
edge $-1 -1 $-1 $173 -3.1415926535897931 $173 3.1415926535897931 $146 $174 forward @7 unknown #
straight-curve $-1 -1 $-1 4.3301270189221928 -1.3704315460216776e-015 51.5 -5.0000000000000018 -8.6602540378443855 0 I I #
point $-1 -1 $-1 4.3301270189221928 -1.1102230246251565e-015 51.5 #
straight-curve $-1 -1 $-1 2.1650635094610946 3.7500000000000004 51.5 5.0000000000000018 -8.6602540378443855 0 I I #
coedge $-1 -1 $-1 $175 $132 $137 $162 forward $153 $-1 #
coedge $-1 -1 $-1 $132 $175 $156 $176 forward $153 $-1 #
loop $-1 -1 $-1 $-1 $151 $177 #
vertex $-1 -1 $-1 $176 $178 #
ellipse-curve $-1 -1 $-1 0 0 55 0 0 1 -7.2500000000000009 -0 -0 1 I I #
coedge $-1 -1 $-1 $179 $134 $152 $176 reversed $143 $180 #
coedge $-1 -1 $-1 $134 $179 $136 $160 reversed $143 $181 #
pcurve $-1 -1 $-1 -1 $159 0 0 #
intcurve-curve $-1 -1 $-1 forward { surfintcur full nubs 3 open 10 
	0 3 0.28059833407703949 2 0.55645838844684814 2 0.82757856785494233 2 1.0939572549618366 2 
	1.3555928099439754 2 1.6124835701051659 2 1.8646278495026016 2 1.998622940531682 2 2.1312195506470197 3 
	7.2499642584639146 0.022765126746738057 55 
	7.2059840033254865 0.95705833215822367 55 
	6.9814496757754547 1.8739022373184155 55 
	6.1976085011882587 3.5542514844472137 55 
	5.6514045517756646 4.3040520016326909 55 
	4.3120064616657121 5.5391176529785815 55 
	3.535909196816474 6.0168888742669422 55 
	1.8581355686667074 6.6397293821059131 55 
	0.97483023316120376 6.7844646570651452 55 
	-0.78154625485799933 6.7247743436952545 55 
	-1.6378051600922268 6.5270037893772335 55 
	-3.2105972998709986 5.8182025016351151 55 
	-3.9143865855034461 5.3195837938946768 55 
	-5.0781300439890931 4.0901469092749707 55 
	-5.5312200504199964 3.3754242557667196 55 
	-5.9936295243416193 2.1779678984959747 55 
	-6.110101984070603 1.746769093078161 55 
	-6.2495559322088514 0.87164319803504364 55 
	-6.2731116244343319 0.43031026539457723 55 
	-6.2499922970779949 -0.0098125667258900182 55 
	8.6571047740403266e-006 
	spline forward { ref 3 } F 0 F 0.14142135623730986 F 0 F 188.49555921538757 
	plane -5.8443644509223602e-016 0 55 0 0 1 10 0 0 forward_v I I I I 
	nubs 3 open 10 
	0 3 0.28059833407703949 3 0.55645838844684814 3 0.82757856785494233 3 1.0939572549618366 3 
	1.3555928099439754 3 1.6124835701051659 3 1.8646278495026016 3 1.998622940531682 3 2.1312195506470197 3 
	0 6.2800452845373114 
	0.0058048292584814611 6.1511588434007303 
	0.01160175162912247 6.0224479613699984 
	0.017505037380260182 5.8913754599067136 
	0.023308638223529122 5.7625162936576322 
	0.029105136156784648 5.6338148355430322 
	0.035008898164834441 5.5027317595984444 
	0.040811220717339274 5.3739009756393479 
	0.046607271881320467 5.2452094372828011 
	0.052511519837516264 5.1141155716794087 
	0.058312511199939535 4.9853143445504005 
	0.06410809166510624 4.856633257266977 
	0.070012835386410621 4.7255283840356874 
	0.075812439391256647 4.5967579608412574 
	0.081607523485117961 4.4680878946453086 
	0.087512772893659579 4.3369717934819931 
	0.09331092983607224 4.2082334998677515 
	0.099105489981773653 4.0795750670568101 
	0.10501125507954762 3.9484475158840406 
	0.11080790142032834 3.8197427626307028 
	0.11660190795700866 3.6910966217741557 
	0.12250819879497661 3.5599573974272842 
	0.12564693341298591 3.4902670901721091 
	0.12879311309945896 3.420411477731272 
	0.13196477751614324 3.3499900198479602 
	0.13510333988321166 3.2803035371343459 
	0.13824951544692199 3.210448016232518 
	0.14142135623730986 3.1400226422686548 
	
	nullbs 
	I I 
	0 
	0 
	0 
	} I I #
edge $-1 -1 $-1 $139 3.1400226422686481 $182 175.8412679670449 $157 $183 forward @7 unknown #
pcurve $-1 -1 $-1 0 reversed { exppc nubs 1 open 2 
	-175.8412679670449 1 -3.1400226422686481 1 
	0 175.8412679670449 
	0 3.1400226422686663 
	0 
	spline forward { ref 0 } I I I I 
	} 0 0 #
edge $-1 -1 $-1 $140 2.7889003482327895e-014 $184 172.70124532477629 $151 $185 forward @7 unknown #
pcurve $-1 -1 $-1 0 reversed { exppc nubs 1 open 2 
	2.8421709430404007e-014 1 172.70124532477629 1 
	0.14142135623730923 0 
	0.14142135623730925 172.70124532477624 
	0 
	spline forward { ref 0 } I I I I 
	} 0 0 #
point $-1 -1 $-1 -6.249992297077994 -0.0098125667259344272 55 #
point $-1 -1 $-1 7.2500000000000009 8.878689293818312e-016 55 #
face $-1 -1 $-1 $177 $172 $2 $-1 $186 reversed single #
loop $-1 -1 $-1 $187 $169 $142 #
plane-surface $-1 -1 $-1 -5.8443644509223602e-016 0 0 0 0 1 10 0 0 forward_v I I I I #
coedge $-1 -1 $-1 $188 $189 $145 $170 forward $167 $-1 #
edge $-1 -1 $-1 $184 0 $182 2.1312195506471552 $169 $190 forward @7 unknown #
pcurve $-1 -1 $-1 -1 $190 0 0 #
loop $-1 -1 $-1 $191 $146 $166 #
vertex $-1 -1 $-1 $147 $192 #
ellipse-curve $-1 -1 $-1 0 0 51.499999999999993 0 0 1 -2.5 0 0 1 I I #
coedge $-1 -1 $-1 $152 $151 $189 $193 reversed $153 $-1 #
edge $-1 -1 $-1 $194 -178.98129060931359 $154 -6.2800452845373238 $152 $195 forward @7 unknown #
face $-1 -1 $-1 $60 $153 $2 $-1 $196 forward single #
point $-1 -1 $-1 7.2499642584639146 0.022765126746698533 55 #
coedge $-1 -1 $-1 $157 $156 $188 $197 reversed $143 $198 #
pcurve $-1 -1 $-1 0 reversed { exppc nubs 1 open 2 
	-178.98129060931359 1 -6.2800452845373238 1 
	0 178.98129060931356 
	3.1401849173675415e-016 6.2800452845373114 
	0 
	spline forward { ref 3 } I I I I 
	} 0 0 #
pcurve $-1 -1 $-1 0 reversed { exppc nubs 1 open 2 
	3.1400226422686481 1 175.8412679670449 1 
	0.14142135623730986 3.1400226422686477 
	0.14142135623730986 175.8412679670449 
	0 
	spline forward { ref 3 } I I I I 
	} 0 0 #
vertex $-1 -1 $-1 $197 $199 #
intcurve-curve $-1 -1 $-1 forward { lawintcur none F 3.1400226422686481 F 175.8412679670449 OPEN 
	null_surface 
	null_surface 
	nullbs 
	nullbs 
	I I 
	0 
	0 
	0 
	@113 VEC(6.250000000000001,0,0)*COS(X)+VEC(0,-6.250000000000001,0)*SIN(X)+X*VEC(-0,-0,-0.3184690411268826)+VEC(0,0,56) 
	0 
	
	0 } F 3.1400226422686481 F 175.8412679670449 #
vertex $-1 -1 $-1 $170 $200 #
intcurve-curve $-1 -1 $-1 forward { lawintcur none F 0 F 172.70124532477629 OPEN 
	null_surface 
	null_surface 
	nullbs 
	nullbs 
	I I 
	0 
	0 
	0 
	@128 VEC(7.250000000000001,0,0)*COS(X)+VEC(0,-7.250000000000001,0)*SIN(X)+X*VEC(-0,-0,-0.3184690411268826)+VEC(0,0,55.00000000000001) 
	0 
	
	0 } I I #
cone-surface $-1 -1 $-1 0 0 0 0 0 1 -2.5 0 0 1 I I 0 1 2.5 forward I I I I #
loop $-1 -1 $-1 $-1 $201 $142 #
coedge $-1 -1 $-1 $189 $169 $179 $197 forward $167 $-1 #
coedge $-1 -1 $-1 $169 $188 $175 $193 forward $167 $-1 #
intcurve-curve $-1 -1 $-1 forward { surfintcur full nubs 3 open 10 
	0 3 0.28059833407703089 2 0.55645838844685547 2 0.82757856785498474 2 1.0939572549619101 2 
	1.3555928099440653 2 1.6124835701052729 2 1.8646278495027238 2 1.9986229405318132 2 2.1312195506471552 3 
	-7.2229872322867541 -0.62526429789534033 0 
	-7.2626819156111031 0.30922079488882787 0 
	-7.120985568934791 1.2424627549485681 1.7763568394002505e-014 
	-6.4904559290065063 2.9861407505876976 1.7763568394002505e-014 
	-6.0134482833680538 3.781755780566308 1.7763568394002505e-014 
	-4.7897893043803839 5.1315828472927372 1.7763568394002505e-014 
	-4.0594966914266637 5.676802989861863 1.7763568394002505e-014 
	-2.4441009005047869 6.4470958459834105 1.7763568394002505e-014 
	-1.577265385499006 6.6701940429164397 8.8817841970012523e-015 
	0.17741735562627314 6.7677121395658544 8.8817841970012523e-015 
	1.047924841955258 6.6472579109421082 8.8817841970012523e-015 
	2.6777697244355938 6.0818553645140305 8.8817841970012523e-015 
	3.4233048898859444 5.6481304616588961 8.8817841970012523e-015 
	4.6922677980231917 4.527618512501995 8.8817841970012523e-015 
	5.2074203650944773 3.8562491223707895 1.7763568394002505e-014 
	5.7749976185248748 2.7049106358566477 1.7763568394002505e-014 
	5.9295407739875747 2.2858466111914182 2.6645352591003757e-014 
	6.1466477711698708 1.4266858069175583 2.6645352591003757e-014 
	6.2095516759247449 0.98922412078245814 0 
	6.225859188419383 0.54879628822903748 0 
	8.6571047477872943e-006 
	spline forward { ref 0 } F 0 F 0.14142135623730923 F 0 F 188.49555921538757 
	plane -5.8443644509223602e-016 0 0 -0 -0 -1 10 0 0 reverse_v I I I I 
	nubs 3 open 10 
	0 3 0.28059833407703089 3 0.55645838844685547 3 0.82757856785498474 3 1.0939572549619101 3 
	1.3555928099440653 3 1.6124835701052729 3 1.8646278495027238 3 1.9986229405318132 3 2.1312195506471552 3 
	0.14142135623730923 172.70124532477624 
	0.13561652697882792 172.83013176591282 
	0.12981960460818612 172.95884264794353 
	0.12391631885704897 173.08991514940681 
	0.11811271801378007 173.21877431565588 
	0.11231622008052407 173.34747577377047 
	0.10641245807247465 173.47855884971506 
	0.10061013551996977 173.60738963367416 
	0.094814084355988704 173.73608117203071 
	0.088909836399792774 173.8671750376341 
	0.083108845037369455 173.9959762647631 
	0.077313264572203097 174.12465735204654 
	0.071408520850898355 174.25576222527783 
	0.065608916846052287 174.38453264847226 
	0.059813832752190897 174.51320271466821 
	0.053908583343649341 174.64431881583153 
	0.048110426401236722 174.77305710944577 
	0.042315866255535219 174.90171554225671 
	0.036410101157761214 175.03284309342948 
	0.030613454816980492 175.16154784668282 
	0.024819448280299566 175.29019398753934 
	0.018913157442332185 175.42133321188621 
	0.015774422824323169 175.49102351914138 
	0.012628243137849771 175.5608791315822 
	0.0094565787211660923 175.6313005894655 
	0.0063180163540984078 175.70098707217909 
	0.0031718407903904657 175.77084259308097 
	0 175.8412679670449 
	
	nullbs 
	I I 
	0 
	0 
	0 
	} I I #
loop $-1 -1 $-1 $-1 $202 $166 #
point $-1 -1 $-1 2.5 3.0616169978683831e-016 51.5 #
edge $-1 -1 $-1 $194 -0.089490645304658056 $184 -0.086350622662390103 $175 $203 forward @7 unknown #
vertex $-1 -1 $-1 $193 $204 #
intcurve-curve $-1 -1 $-1 forward { lawintcur none F -178.98129060931359 F -6.2800452845373238 OPEN 
	null_surface 
	null_surface 
	nullbs 
	nullbs 
	I I 
	0 
	0 
	0 
	@109 VEC(7.250000000000001,0,0)*COS(X)+VEC(0,7.250000000000001,0)*SIN(X)+X*VEC(0,0,0.3184690411268826)+VEC(0,0,57) 
	0 
	
	0 } I I #
cone-surface $-1 -1 $-1 0 0 0 0 0 1 -7.2500000000000009 0 0 1 I I 0 1 7.2500000000000009 forward I I I I #
edge $-1 -1 $-1 $182 0 $194 2.1244767489488434 $188 $205 forward @7 unknown #
pcurve $-1 -1 $-1 -1 $205 0 0 #
point $-1 -1 $-1 6.225859188419383 0.54879628822903748 0 #
point $-1 -1 $-1 -7.2229872322867541 -0.62526429789534044 0 #
coedge $-1 -1 $-1 $201 $201 $202 $206 forward $187 $-1 #
coedge $-1 -1 $-1 $202 $202 $201 $206 reversed $191 $-1 #
ellipse-curve $-1 -1 $-1 0 0 0 0 0 -1 -7.2500000000000009 -0 -0 1 I I #
point $-1 -1 $-1 -7.2209882830935701 -0.64794152160930418 0 #
intcurve-curve $-1 -1 $-1 forward { surfintcur full nubs 3 open 10 
	0 3 0.24620444526268762 2 0.4971426869048633 2 0.75281299192243589 2 1.013213652791638 2 
	1.2783429869495102 2 1.5481993362717541 2 1.8227810665507729 2 1.9729318472896595 2 2.1244767489488434 3 
	6.225859188419383 0.54879628822903748 0 
	6.3394300981775675 -0.26398889063442921 0 
	6.2916745821250863 -1.0911647787142096 -8.8817841970012523e-015 
	5.8806082483703825 -2.697230090688802 -8.8817841970012523e-015 
	5.515391932476251 -3.4590462125220194 -8.8817841970012523e-015 
	4.5061185594160129 -4.8146984638240697 -8.8817841970012523e-015 
	3.8669654661154822 -5.3917667813356456 -8.8817841970012523e-015 
	2.3909503779331711 -6.2794018103153952 -8.8817841970012523e-015 
	1.5652567920865237 -6.5761574647784471 -8.8817841970012523e-015 
	-0.16912646379193791 -6.8418794839009998 -8.8817841970012523e-015 
	-1.0619338657334156 -6.8022613874744797 -8.8817841970012523e-015 
	-2.7987110908610227 -6.3820690589938858 -8.8817841970012523e-015 
	-3.624426965540807 -5.9996552549331996 -8.8817841970012523e-015 
	-5.0977932718962542 -4.9326510504648144 -8.8817841970012523e-015 
	-5.7276064919208194 -4.2534704834889068 -8.8817841970012523e-015 
	-6.4752421855889262 -3.0465719221962431 -8.8817841970012523e-015 
	-6.6936220378677227 -2.5931245288185041 -8.8817841970012523e-015 
	-7.0337422909017979 -1.6437044332183302 -8.8817841970012523e-015 
	-7.1536119422825148 -1.1500531593004499 0 
	-7.2209882830935737 -0.64794152160927254 0 
	8.6973879489514686e-006 
	spline forward { ref 3 } F 0 F 0.14142135623730986 F 0 F 188.49555921538757 
	plane -5.8443644509223602e-016 0 0 -0 -0 -1 10 0 0 reverse_v I I I I 
	nubs 3 open 10 
	0 3 0.24620444526268762 3 0.4971426869048633 3 0.75281299192243589 3 1.013213652791638 3 
	1.2783429869495102 3 1.5481993362717541 3 1.8227810665507729 3 1.9729318472896595 3 2.1244767489488434 3 
	0.14142135623730986 175.8412679670449 
	0.13551507990763195 175.97240686925966 
	0.12972227403968478 176.10102635129249 
	0.12392790952942073 176.22968044034857 
	0.11802213621940549 176.36080817386031 
	0.11222871039892741 176.48944142089323 
	0.10643273011666386 176.61813138544082 
	0.10052745224054321 176.74924811867871 
	0.09473344092254965 176.87789436569625 
	0.088935915227126502 177.00661864353597 
	0.083031124984119575 177.13772454970319 
	0.077236560115243186 177.26638308738427 
	0.071437554970395611 177.39514021390269 
	0.065533244406438235 177.52623546960581 
	0.059738155648745593 177.65490563935427 
	0.053937732975363542 177.78369423970247 
	0.048033894035260448 177.91477902379353 
	0.042238308966584079 178.0434602132901 
	0.036436526960867167 178.17227899531966 
	0.030533151532301288 178.30335348791894 
	0.024737095825898406 178.43204512713234 
	0.018934009247246624 178.56089287500313 
	0.015760680928590821 178.63135127702279 
	0.012611004576634624 178.7012845270219 
	0.0094670046236233138 178.77109174215835 
	0.0062938132399292107 178.84154710376816 
	0.0031441339954157766 178.91148041799164 
	0 178.98129060931356 
	
	nullbs 
	I I 
	0 
	0 
	0 
	} I I #
edge $-1 -1 $-1 $207 -3.1415926535897931 $207 3.1415926535897931 $201 $208 forward @7 unknown #
vertex $-1 -1 $-1 $206 $209 #
ellipse-curve $-1 -1 $-1 0 0 0 0 0 1 -2.5 0 0 1 I I #
point $-1 -1 $-1 2.5 3.0616169978683831e-016 0 #
End-of-ACIS-data 