700 0 1 0           
33 Autodesk Inventor 17.0.13800.0000 19 ASM 218.0.0.5119 NT 24 Fri Oct 18 14:28:37 2013 
25.399999999999999 9.9999999999999995e-007 1e-010 
body $-1 -1 $-1 $1 $-1 $-1 #
lump $-1 -1 $-1 $-1 $2 $0 #
shell $-1 -1 $-1 $-1 $-1 $3 $-1 $1 #
face $-1 -1 $-1 $4 $5 $2 $-1 $6 reversed single #
face $-1 -1 $-1 $7 $8 $2 $-1 $9 reversed single #
loop $-1 -1 $-1 $10 $11 $3 #
plane-surface $-1 -1 $-1 1.0826771653476617 -0.59055118110591276 0.37412598425196847 3.3778592269521575e-063 -1.0226630661719144e-079 -1 0.39370078740157477 4.3464028614814743e-158 1.329865837382739e-063 reverse_v I I I I #
face $-1 -1 $-1 $12 $13 $2 $-1 $14 reversed single #
loop $-1 -1 $-1 $15 $16 $4 #
cone-surface $-1 -1 $-1 1.0826771653476617 -0.59055118110591276 0.43312598425196852 -3.3778592269521575e-063 1.0226630661719144e-079 1 0.128 1.413102498324857e-158 4.3236598104987616e-064 1 I I -0 1 0.128 reversed I I I I #
loop $-1 -1 $-1 $-1 $17 $3 #
coedge $-1 -1 $-1 $11 $11 $18 $19 forward $5 $-1 #
face $-1 -1 $-1 $20 $21 $2 $-1 $22 reversed single #
loop $-1 -1 $-1 $23 $24 $7 #
cone-surface $-1 -1 $-1 1.0826771653476617 -0.59055118110591276 -12.054361695588472 -3.3778592269521575e-063 1.0226630661719144e-079 1 0.067000000000000004 7.3967083896691736e-159 2.2631656820579458e-064 1 I I -0 1 0.067000000000000004 reversed I I I I #
loop $-1 -1 $-1 $-1 $18 $4 #
coedge $-1 -1 $-1 $16 $16 $25 $26 reversed $8 $-1 #
coedge $-1 -1 $-1 $17 $17 $27 $28 reversed $10 $-1 #
coedge $-1 -1 $-1 $18 $18 $11 $19 reversed $15 $-1 #
edge $-1 -1 $-1 $29 0 $29 6.2831853071795862 $11 $30 forward @7 unknown #
face $-1 -1 $-1 $31 $32 $2 $-1 $33 reversed single #
loop $-1 -1 $-1 $34 $35 $12 #
plane-surface $-1 -1 $-1 1.0826771653543452 -8.9566929133858242 0.37412598425196847 3.3778592269521575e-063 -1.0226630661719144e-079 -1 0.39370078740157477 4.3464028614814743e-158 1.329865837382739e-063 reverse_v I I I I #
loop $-1 -1 $-1 $-1 $27 $7 #
coedge $-1 -1 $-1 $24 $24 $36 $37 reversed $13 $-1 #
coedge $-1 -1 $-1 $25 $25 $16 $26 forward $38 $-1 #
edge $-1 -1 $-1 $39 -3.4544118741319843e-142 $39 6.2831853071795862 $25 $40 forward @7 unknown #
coedge $-1 -1 $-1 $27 $27 $17 $28 forward $23 $-1 #
edge $-1 -1 $-1 $41 -3.1415926535897931 $41 3.1415926535897931 $27 $42 forward @7 unknown #
vertex $-1 -1 $-1 $19 $43 #
ellipse-curve $-1 -1 $-1 1.0826771653476617 -0.59055118110591276 0.37412598425196847 -3.3778592269521575e-063 1.0226630661719144e-079 1 0.128 1.413102498324857e-158 4.3236598104987616e-064 1 I I #
face $-1 -1 $-1 $44 $45 $2 $-1 $46 reversed single #
loop $-1 -1 $-1 $47 $48 $20 #
cone-surface $-1 -1 $-1 1.0826771653543452 -8.9566929133858242 0.43312598425196852 -3.3778592269521575e-063 1.0226630661719144e-079 1 0.128 1.413102498324857e-158 4.3236598104987616e-064 1 I I -0 1 0.128 reversed I I I I #
loop $-1 -1 $-1 $-1 $49 $12 #
coedge $-1 -1 $-1 $35 $35 $50 $51 forward $21 $-1 #
coedge $-1 -1 $-1 $36 $36 $24 $37 forward $52 $-1 #
edge $-1 -1 $-1 $53 -3.1415926535897931 $53 3.1415926535897931 $36 $54 forward @7 unknown #
loop $-1 -1 $-1 $55 $25 $56 #
vertex $-1 -1 $-1 $26 $57 #
ellipse-curve $-1 -1 $-1 1.0826771653476617 -0.59055118110591276 0.49212598425196846 3.3778592269521575e-063 -1.0226630661719144e-079 -1 0.128 1.413102498324857e-158 4.3236598104987616e-064 1 I I #
vertex $-1 -1 $-1 $28 $58 #
ellipse-curve $-1 -1 $-1 1.0826771653476617 -0.59055118110591276 0.37412598425196819 -3.3778592269521575e-063 1.0226630661719144e-079 1 0.067000000000000004 7.3967083896691736e-159 2.2631656820579458e-064 1 I I #
point $-1 -1 $-1 1.2106771653476616 -0.59055118110591276 0.37412598425196847 #
face $-1 -1 $-1 $59 $60 $2 $-1 $61 reversed single #
loop $-1 -1 $-1 $62 $63 $31 #
cone-surface $-1 -1 $-1 1.0826771653543452 -8.9566929133858242 -12.054361695588472 -3.3778592269521575e-063 1.0226630661719144e-079 1 0.067000000000000004 7.3967083896691736e-159 2.2631656820579458e-064 1 I I -0 1 0.067000000000000004 reversed I I I I #
loop $-1 -1 $-1 $-1 $50 $20 #
coedge $-1 -1 $-1 $48 $48 $64 $65 reversed $32 $-1 #
coedge $-1 -1 $-1 $49 $49 $66 $67 reversed $34 $-1 #
coedge $-1 -1 $-1 $50 $50 $35 $51 reversed $47 $-1 #
edge $-1 -1 $-1 $68 0 $68 6.2831853071795862 $35 $69 forward @7 unknown #
loop $-1 -1 $-1 $70 $36 $71 #
vertex $-1 -1 $-1 $37 $72 #
ellipse-curve $-1 -1 $-1 1.0826771653476617 -0.59055118110591276 0 -3.3778592269521575e-063 -7.9424075897097666e-079 1 0.067000000000000004 7.3967083896691736e-159 2.2631656820579458e-064 1 I I #
loop $-1 -1 $-1 $73 $64 $56 #
face $-1 -1 $-1 $74 $38 $2 $-1 $75 forward single #
point $-1 -1 $-1 1.2106771653476616 -0.59055118110591276 0.49212598425196846 #
point $-1 -1 $-1 1.0156771653476615 -0.59055118110591276 0.37412598425196819 #
face $-1 -1 $-1 $56 $76 $2 $-1 $77 reversed single #
loop $-1 -1 $-1 $78 $79 $44 #
cone-surface $-1 -1 $-1 7.2729864660364676 -0.82677165354195081 2.4567124441799426e-062 0 0 1 -0.15944881889763848 -2.8606360710349891e-190 0 1 I I 0 1 0.15944881889763848 forward I I I I #
loop $-1 -1 $-1 $-1 $66 $31 #
coedge $-1 -1 $-1 $63 $63 $80 $81 reversed $45 $-1 #
coedge $-1 -1 $-1 $64 $64 $48 $65 forward $55 $-1 #
edge $-1 -1 $-1 $82 -3.4544118741319843e-142 $82 6.2831853071795862 $64 $83 forward @7 unknown #
coedge $-1 -1 $-1 $66 $66 $49 $67 forward $62 $-1 #
edge $-1 -1 $-1 $84 -3.1415926535897931 $84 3.1415926535897931 $66 $85 forward @7 unknown #
vertex $-1 -1 $-1 $51 $86 #
ellipse-curve $-1 -1 $-1 1.0826771653543452 -8.9566929133858242 0.37412598425196847 -3.3778592269521575e-063 1.0226630661719144e-079 1 0.128 1.413102498324857e-158 4.3236598104987616e-064 1 I I #
loop $-1 -1 $-1 $87 $80 $71 #
face $-1 -1 $-1 $88 $52 $2 $-1 $89 reversed single #
point $-1 -1 $-1 1.0156771653476615 -0.59055118110591276 -2.2631656820579458e-064 #
loop $-1 -1 $-1 $90 $91 $56 #
face $-1 -1 $-1 $92 $93 $2 $-1 $94 forward single #
plane-surface $-1 -1 $-1 4.1728625470883962 -0.011974293448503946 0.49212598425196846 -3.3778592269521575e-063 1.0226630661719144e-079 1 0.39370078740157477 0 1.329865837382739e-063 forward_v I I I I #
loop $-1 -1 $-1 $95 $96 $59 #
cone-surface $-1 -1 $-1 4.320230560524644 -0.82677165354429372 1.4593130661428846e-062 0 0 1 -0.15944881889763848 -2.8606360710349891e-190 0 1 I I 0 1 0.15944881889763848 forward I I I I #
loop $-1 -1 $-1 $-1 $97 $44 #
coedge $-1 -1 $-1 $79 $79 $91 $98 reversed $60 $-1 #
coedge $-1 -1 $-1 $80 $80 $63 $81 forward $70 $-1 #
edge $-1 -1 $-1 $99 -3.1415926535897931 $99 3.1415926535897931 $80 $100 forward @7 unknown #
vertex $-1 -1 $-1 $65 $101 #
ellipse-curve $-1 -1 $-1 1.0826771653543452 -8.9566929133858242 0.49212598425196846 3.3778592269521575e-063 -1.0226630661719144e-079 -1 0.128 1.413102498324857e-158 4.3236598104987616e-064 1 I I #
vertex $-1 -1 $-1 $67 $102 #
ellipse-curve $-1 -1 $-1 1.0826771653543452 -8.9566929133858242 0.37412598425196819 -3.3778592269521575e-063 1.0226630661719144e-079 1 0.067000000000000004 7.3967083896691736e-159 2.2631656820579458e-064 1 I I #
point $-1 -1 $-1 1.2106771653543451 -8.9566929133858242 0.37412598425196847 #
loop $-1 -1 $-1 $103 $104 $71 #
face $-1 -1 $-1 $105 $106 $2 $-1 $107 forward single #
plane-surface $-1 -1 $-1 6.6304132272453451 -1.7439702283034517 2.2396602498156312e-062 -3.3778592269521575e-063 -7.9424075897097666e-079 1 0.39370078740157477 0 1.329865837382739e-063 forward_v I I I I #
loop $-1 -1 $-1 $108 $109 $56 #
coedge $-1 -1 $-1 $91 $91 $79 $98 forward $73 $-1 #
face $-1 -1 $-1 $71 $110 $2 $-1 $111 forward single #
loop $-1 -1 $-1 $-1 $112 $74 #
cone-surface $-1 -1 $-1 7.2729864660364676 -0.82677165354195081 2.4567124441799426e-062 0 0 1 -0.49212598425196835 -3.9023902219895143e-013 0 1 I I 0 1 0.49212598425196835 forward I I I I #
loop $-1 -1 $-1 $-1 $113 $59 #
coedge $-1 -1 $-1 $96 $96 $109 $114 reversed $76 $-1 #
coedge $-1 -1 $-1 $97 $97 $104 $115 reversed $78 $-1 #
edge $-1 -1 $-1 $116 -3.1415926535897931 $116 3.1415926535897931 $91 $117 forward @7 unknown #
vertex $-1 -1 $-1 $81 $118 #
ellipse-curve $-1 -1 $-1 1.0826771653543452 -8.9566929133858242 0 -3.3778592269521575e-063 -7.9424075897097666e-079 1 0.067000000000000004 7.3967083896691736e-159 2.2631656820579458e-064 1 I I #
point $-1 -1 $-1 1.2106771653543451 -8.9566929133858242 0.49212598425196846 #
point $-1 -1 $-1 1.015677165354345 -8.9566929133858242 0.37412598425196819 #
loop $-1 -1 $-1 $119 $120 $71 #
coedge $-1 -1 $-1 $104 $104 $97 $115 forward $87 $-1 #
face $-1 -1 $-1 $121 $122 $2 $-1 $123 forward single #
loop $-1 -1 $-1 $-1 $124 $88 #
plane-surface $-1 -1 $-1 17.716535433070884 0.49212598425197124 5.9843962682223303e-062 -1.5789838572446666e-016 1 0 -0.39370078740157477 -6.21647187891601e-017 -1.3298658373827387e-063 forward_v I I I I #
loop $-1 -1 $-1 $-1 $125 $56 #
coedge $-1 -1 $-1 $109 $109 $96 $114 forward $90 $-1 #
loop $-1 -1 $-1 $-1 $126 $92 #
plane-surface $-1 -1 $-1 7.765112450288437 -0.82677165354156057 2.6229456738527859e-062 1 2.1210230918239818e-015 0 -8.3504846134802426e-016 0.39370078740157477 -2.8206761501166251e-078 forward_v I I I I #
coedge $-1 -1 $-1 $127 $128 $129 $130 reversed $93 $-1 #
coedge $-1 -1 $-1 $113 $113 $120 $131 reversed $95 $-1 #
edge $-1 -1 $-1 $132 -3.1415926535897931 $132 3.1415926535897931 $109 $133 forward @7 unknown #
edge $-1 -1 $-1 $134 -3.1415926535897931 $134 3.1415926535897931 $104 $135 forward @7 unknown #
vertex $-1 -1 $-1 $98 $136 #
ellipse-curve $-1 -1 $-1 7.2729864660364676 -0.82677165354195081 0.49212598425196846 3.3778592269521575e-063 -1.0226630661719144e-079 -1 -0.15944881889763848 -2.8606360710349891e-190 0 1 I I #
point $-1 -1 $-1 1.015677165354345 -8.9566929133858242 -2.2631656820579458e-064 #
loop $-1 -1 $-1 $-1 $137 $71 #
coedge $-1 -1 $-1 $120 $120 $113 $131 forward $103 $-1 #
face $-1 -1 $-1 $138 $139 $2 $-1 $140 forward single #
loop $-1 -1 $-1 $-1 $141 $105 #
plane-surface $-1 -1 $-1 1.3936001445237134 -9.1982031844496479 4.7073851068612746e-063 0.7897443670711074 -0.61343608850430043 0 0.2415102710646852 0.3109229791618533 8.1578769751956316e-064 forward_v I I I I #
coedge $-1 -1 $-1 $142 $143 $144 $145 reversed $106 $-1 #
coedge $-1 -1 $-1 $146 $147 $128 $148 forward $108 $-1 #
coedge $-1 -1 $-1 $144 $149 $137 $150 forward $110 $-1 #
coedge $-1 -1 $-1 $151 $112 $152 $153 forward $93 $-1 #
coedge $-1 -1 $-1 $112 $151 $125 $148 reversed $93 $-1 #
coedge $-1 -1 $-1 $154 $141 $112 $130 forward $122 $-1 #
edge $-1 -1 $-1 $155 0 $156 1.25 $112 $157 forward @7 unknown #
edge $-1 -1 $-1 $158 -3.1415926535897931 $158 3.1415926535897931 $120 $159 forward @7 unknown #
vertex $-1 -1 $-1 $114 $160 #
ellipse-curve $-1 -1 $-1 4.320230560524644 -0.82677165354429372 0.49212598425196846 3.3778592269521575e-063 -1.0226630661719144e-079 -1 -0.15944881889763848 -2.8606360710349891e-190 0 1 I I #
vertex $-1 -1 $-1 $115 $161 #
ellipse-curve $-1 -1 $-1 7.2729864660364676 -0.82677165354195081 1.4095342257485611e-062 -3.3778592269521575e-063 1.0226630661719144e-079 1 -0.15944881889763848 -2.8606360710349891e-190 0 1 I I #
point $-1 -1 $-1 7.4324352849341055 -0.82677165354195081 0.49212598425196846 #
coedge $-1 -1 $-1 $152 $162 $126 $150 reversed $119 $-1 #
face $-1 -1 $-1 $163 $164 $2 $-1 $165 forward single #
loop $-1 -1 $-1 $-1 $166 $121 #
cone-surface $-1 -1 $-1 1.0826771653543452 -8.9566929133858242 3.6571310528025711e-063 0 0 1 1.7483827159451283e-016 -0.39370078740157477 0 1 I I 0 1 0.39370078740157477 forward I I I I #
coedge $-1 -1 $-1 $129 $167 $168 $169 forward $122 $-1 #
coedge $-1 -1 $-1 $170 $124 $162 $171 forward $106 $-1 #
coedge $-1 -1 $-1 $124 $170 $172 $173 reversed $106 $-1 #
coedge $-1 -1 $-1 $174 $126 $124 $145 forward $110 $-1 #
edge $-1 -1 $-1 $175 -4.2690422548493242e-062 $176 1.25 $144 $177 forward @7 unknown #
coedge $-1 -1 $-1 $172 $125 $174 $178 forward $108 $-1 #
coedge $-1 -1 $-1 $125 $179 $154 $180 forward $108 $-1 #
edge $-1 -1 $-1 $156 2.4811884893418599 $181 3.1415926535897807 $128 $182 forward @7 unknown #
coedge $-1 -1 $-1 $126 $174 $151 $183 reversed $110 $-1 #
edge $-1 -1 $-1 $184 1.1648421899475987 $175 4.514842189943197 $126 $185 forward @7 unknown #
coedge $-1 -1 $-1 $128 $127 $149 $183 forward $93 $-1 #
coedge $-1 -1 $-1 $168 $137 $127 $153 reversed $119 $-1 #
edge $-1 -1 $-1 $155 2.4811884893418599 $184 3.1415926535897807 $127 $186 forward @7 unknown #
coedge $-1 -1 $-1 $167 $129 $147 $180 reversed $122 $-1 #
vertex $-1 -1 $-1 $169 $187 #
vertex $-1 -1 $-1 $130 $188 #
straight-curve $-1 -1 $-1 7.661640189988784 -1.1286594923728075 2.587994200934108e-062 0 0 0.39370078740157477 I I #
vertex $-1 -1 $-1 $131 $189 #
ellipse-curve $-1 -1 $-1 4.320230560524644 -0.82677165354429372 1.4095342257485611e-062 -3.3778592269521575e-063 1.0226630661719144e-079 1 -0.15944881889763848 -2.8606360710349891e-190 0 1 I I #
point $-1 -1 $-1 4.479679379422282 -0.82677165354429372 0.49212598425196846 #
point $-1 -1 $-1 7.4324352849341055 -0.82677165354195081 2.510572010593944e-062 #
coedge $-1 -1 $-1 $137 $190 $142 $171 reversed $119 $-1 #
face $-1 -1 $-1 $-1 $191 $2 $-1 $192 forward single #
loop $-1 -1 $-1 $-1 $193 $138 #
plane-surface $-1 -1 $-1 1.4589742238952443e-014 -9.3503937007874001 3.983283033782084e-077 1.794077930970084e-189 -1 0 0.39370078740157477 7.0632989408271017e-190 1.3298658373827387e-063 forward_v I I I I #
coedge $-1 -1 $-1 $194 $195 $196 $197 forward $139 $-1 #
coedge $-1 -1 $-1 $141 $154 $194 $198 reversed $122 $-1 #
coedge $-1 -1 $-1 $196 $152 $141 $169 reversed $119 $-1 #
edge $-1 -1 $-1 $199 0 $155 25.953513355074918 $141 $200 forward @7 unknown #
coedge $-1 -1 $-1 $143 $142 $201 $202 forward $106 $-1 #
edge $-1 -1 $-1 $175 25.276614376267425 $203 45.000000000000014 $142 $204 forward @7 unknown #
coedge $-1 -1 $-1 $205 $146 $143 $173 forward $108 $-1 #
edge $-1 -1 $-1 $176 25.276614376267425 $206 45.000000000000014 $143 $207 forward @7 unknown #
coedge $-1 -1 $-1 $149 $144 $146 $178 reversed $110 $-1 #
vertex $-1 -1 $-1 $171 $208 #
vertex $-1 -1 $-1 $173 $209 #
straight-curve $-1 -1 $-1 7.7651124502884343 0.49212598425196968 4.3036709710375575e-062 0 0 0.39370078740157477 I I #
edge $-1 -1 $-1 $181 0 $176 3.3499999999955983 $174 $210 forward @7 unknown #
coedge $-1 -1 $-1 $147 $211 $212 $213 forward $108 $-1 #
edge $-1 -1 $-1 $214 0 $156 25.953513355074918 $154 $215 forward @7 unknown #
vertex $-1 -1 $-1 $183 $216 #
ellipse-curve $-1 -1 $-1 7.2729864660364676 -0.82677165354195081 0.49212598425196846 -3.3778592269521565e-063 0 1 -0.49212598425196835 -3.9023902219895143e-013 -1.662332296728423e-063 1 I I #
edge $-1 -1 $-1 $184 0 $181 1.25 $151 $217 forward @7 tangent #
vertex $-1 -1 $-1 $153 $218 #
straight-curve $-1 -1 $-1 7.7651124502884388 -1.2853709409225049 2.6229456738527872e-062 -8.3504846134802426e-016 0.39370078740157477 -2.5079829379233283e-078 I I #
ellipse-curve $-1 -1 $-1 7.2729864660364676 -0.82677165354195081 2.4567124441799426e-062 -3.3778592269521565e-063 0 1 -0.49212598425196835 -3.9023902219895143e-013 -1.662332296728423e-063 1 F 2.3264454728053906e-027 F 3.1415926535897931 #
point $-1 -1 $-1 7.661640189988784 -1.1286594923728075 2.587994200934108e-062 #
point $-1 -1 $-1 7.661640189988784 -1.1286594923728075 0.49212598425196846 #
point $-1 -1 $-1 4.479679379422282 -0.82677165354429372 1.5131726325568859e-062 #
coedge $-1 -1 $-1 $162 $219 $220 $221 reversed $119 $-1 #
loop $-1 -1 $-1 $-1 $222 $163 #
plane-surface $-1 -1 $-1 1.3987061727561026e-014 0.49212598425196846 3.7797060411513108e-077 -1 -6.1232339957367833e-017 0 2.4107220455656625e-017 -0.39370078740157477 8.1430797052309512e-080 forward_v I I I I #
coedge $-1 -1 $-1 $223 $224 $219 $225 forward $164 $-1 #
coedge $-1 -1 $-1 $212 $166 $167 $198 forward $139 $-1 #
coedge $-1 -1 $-1 $166 $212 $223 $226 reversed $139 $-1 #
coedge $-1 -1 $-1 $219 $168 $166 $197 reversed $119 $-1 #
edge $-1 -1 $-1 $227 5.0670281113633122e-141 $199 0.9103921625611916 $166 $228 forward @7 unknown #
edge $-1 -1 $-1 $199 0 $214 1.25 $194 $229 forward @7 tangent #
vertex $-1 -1 $-1 $197 $230 #
straight-curve $-1 -1 $-1 1.3936001445237134 -9.1982031844496479 4.7073851068612746e-063 0.2415102710646852 0.3109229791618533 8.1578769751956316e-064 F 0 F 25.953513355074918 #
coedge $-1 -1 $-1 $220 $222 $170 $202 reversed $191 $-1 #
edge $-1 -1 $-1 $203 0 $206 1.25 $201 $231 forward @7 unknown #
vertex $-1 -1 $-1 $221 $232 #
straight-curve $-1 -1 $-1 17.716535433070884 0.49212598425197124 5.9843962682223303e-062 -0.39370078740157477 -6.21647187891601e-017 -1.3298658373827387e-063 F -0 F 45.000000000000014 #
coedge $-1 -1 $-1 $211 $172 $222 $233 forward $108 $-1 #
vertex $-1 -1 $-1 $202 $234 #
straight-curve $-1 -1 $-1 17.716535433070884 0.49212598425197124 0.49212598425196846 -0.39370078740157477 -6.21647187891601e-017 -1.3298658373827387e-063 I I #
point $-1 -1 $-1 7.7651124502884343 0.49212598425198173 2.6229456738527846e-062 #
point $-1 -1 $-1 7.7651124502884343 0.49212598425198173 0.49212598425196846 #
straight-curve $-1 -1 $-1 7.765112450288437 -0.82677165354156057 0.49212598425196846 -8.3504846134802426e-016 0.39370078740157477 -2.8206761501166251e-078 I I #
coedge $-1 -1 $-1 $179 $205 $235 $236 forward $108 $-1 #
coedge $-1 -1 $-1 $195 $194 $179 $213 reversed $139 $-1 #
edge $-1 -1 $-1 $237 5.0670281113633122e-141 $214 0.9103921625611916 $212 $238 forward @7 unknown #
vertex $-1 -1 $-1 $198 $239 #
straight-curve $-1 -1 $-1 1.3936001445237134 -9.1982031844496479 0.49212598425196846 0.2415102710646852 0.3109229791618533 8.1578769751956316e-064 I I #
point $-1 -1 $-1 7.765112450288437 -0.82677165354156057 0.49212598425196846 #
straight-curve $-1 -1 $-1 7.765112450288437 -0.82677165354156057 2.6229456738527859e-062 0 0 0.39370078740157477 I I #
point $-1 -1 $-1 7.765112450288437 -0.82677165354156057 2.6229456738527859e-062 #
coedge $-1 -1 $-1 $190 $196 $193 $225 reversed $119 $-1 #
coedge $-1 -1 $-1 $240 $201 $190 $221 forward $191 $-1 #
edge $-1 -1 $-1 $203 0 $241 24.999999999999996 $220 $242 forward @7 unknown #
coedge $-1 -1 $-1 $201 $240 $205 $233 reversed $191 $-1 #
coedge $-1 -1 $-1 $235 $193 $195 $226 forward $164 $-1 #
coedge $-1 -1 $-1 $193 $235 $240 $243 reversed $164 $-1 #
edge $-1 -1 $-1 $241 0 $227 2.7500000000000004 $193 $244 forward @7 unknown #
edge $-1 -1 $-1 $227 0 $237 1.25 $223 $245 forward @7 tangent #
vertex $-1 -1 $-1 $225 $246 #
ellipse-curve $-1 -1 $-1 1.0826771653543452 -8.9566929133858242 3.6571310528025711e-063 -3.3778592269521565e-063 0 1 1.7483827159451283e-016 -0.39370078740157477 5.9057906892989231e-079 1 F 5.0670281113633122e-141 F 0.9103921625611916 #
straight-curve $-1 -1 $-1 1.3936001445237134 -9.1982031844496479 4.7073851068612746e-063 0 0 0.39370078740157477 I I #
point $-1 -1 $-1 1.3936001445237134 -9.1982031844496479 4.7073851068612746e-063 #
straight-curve $-1 -1 $-1 1.3987061727561026e-014 0.49212598425196846 3.7797060411513108e-077 0 0 0.39370078740157477 I I #
point $-1 -1 $-1 1.3987061727561026e-014 0.49212598425196846 3.7797060411513108e-077 #
edge $-1 -1 $-1 $206 0 $247 24.999999999999996 $222 $248 forward @7 unknown #
point $-1 -1 $-1 1.3987061727561026e-014 0.49212598425196846 0.49212598425196846 #
coedge $-1 -1 $-1 $224 $223 $211 $236 reversed $164 $-1 #
edge $-1 -1 $-1 $247 0 $237 2.7500000000000004 $235 $249 forward @7 unknown #
vertex $-1 -1 $-1 $226 $250 #
ellipse-curve $-1 -1 $-1 1.0826771653543452 -8.9566929133858242 0.49212598425196846 -3.3778592269521565e-063 0 1 1.7483827159451283e-016 -0.39370078740157477 5.9057906892989231e-079 1 I I #
point $-1 -1 $-1 1.3936001445237134 -9.1982031844496479 0.49212598425196846 #
coedge $-1 -1 $-1 $222 $220 $224 $243 forward $191 $-1 #
vertex $-1 -1 $-1 $221 $251 #
straight-curve $-1 -1 $-1 1.3987061727561026e-014 0.49212598425196846 3.7797060411513108e-077 2.4107220455656625e-017 -0.39370078740157477 8.1430797052309512e-080 F 0 F 24.999999999999996 #
edge $-1 -1 $-1 $241 0 $247 1.25 $240 $252 forward @7 unknown #
straight-curve $-1 -1 $-1 1.4589742238952443e-014 -9.3503937007874001 3.983283033782084e-077 0.39370078740157477 7.0632989408271017e-190 1.3298658373827387e-063 F 0 F 2.7500000000000004 #
straight-curve $-1 -1 $-1 1.0826771653543452 -9.3503937007874001 3.6571310528025711e-063 0 0 0.39370078740157477 I I #
point $-1 -1 $-1 1.0826771653543452 -9.3503937007874001 3.6571310528025711e-063 #
vertex $-1 -1 $-1 $243 $253 #
straight-curve $-1 -1 $-1 1.3987061727561026e-014 0.49212598425196846 0.49212598425196846 2.4107220455656625e-017 -0.39370078740157477 8.1430797052309512e-080 I I #
straight-curve $-1 -1 $-1 1.4589742238952443e-014 -9.3503937007874001 0.49212598425196846 0.39370078740157477 7.0632989408271017e-190 1.3298658373827387e-063 I I #
point $-1 -1 $-1 1.0826771653543452 -9.3503937007874001 0.49212598425196846 #
point $-1 -1 $-1 1.4589742238952443e-014 -9.3503937007874001 3.983283033782084e-077 #
straight-curve $-1 -1 $-1 1.4589742238952443e-014 -9.3503937007874001 3.983283033782084e-077 0 0 0.39370078740157477 I I #
point $-1 -1 $-1 1.4589742238952443e-014 -9.3503937007874001 0.49212598425196846 #
End-of-ACIS-data 