700 0 1 0           
33 Autodesk Inventor 17.0.13800.0000 19 ASM 218.0.0.5119 NT 24 Fri Oct 18 14:28:38 2013 
25.399999999999999 9.9999999999999995e-007 1e-010 
body $-1 -1 $-1 $1 $-1 $-1 #
lump $-1 -1 $-1 $-1 $2 $0 #
shell $-1 -1 $-1 $-1 $-1 $3 $-1 $1 #
face $-1 -1 $-1 $4 $5 $2 $-1 $6 reversed single #
face $-1 -1 $-1 $7 $8 $2 $-1 $9 reversed single #
loop $-1 -1 $-1 $10 $11 $3 #
plane-surface $-1 -1 $-1 7.2729864660364676 -0.82677165354195081 -0.26812598425196849 3.3778592269521575e-063 -1.0226630661719133e-079 1 -0.39370078740157477 -6.737032320249447e-016 1.329865837382739e-063 reverse_v I I I I #
face $-1 -1 $-1 $12 $13 $2 $-1 $14 reversed single #
loop $-1 -1 $-1 $15 $16 $4 #
cone-surface $-1 -1 $-1 7.2729864660364676 -0.82677165354195081 -0.38012598425196842 -3.3778592269521575e-063 1.0226630661719133e-079 -1 -0.35449999999999993 -6.0662260121222087e-016 1.1974510959545397e-063 1 I I -0 1 0.35449999999999993 reversed I I I I #
loop $-1 -1 $-1 $-1 $17 $3 #
coedge $-1 -1 $-1 $11 $11 $18 $19 forward $5 $-1 #
face $-1 -1 $-1 $20 $21 $2 $-1 $22 reversed single #
loop $-1 -1 $-1 $23 $24 $7 #
cone-surface $-1 -1 $-1 7.2729864660364676 -0.82677165354195081 12.054361695588472 -3.3778592269521575e-063 1.0226630661719133e-079 -1 -0.17699999999999999 -3.0288349905377457e-016 5.9788108317053187e-064 1 I I -0 1 0.17699999999999999 reversed I I I I #
loop $-1 -1 $-1 $-1 $18 $4 #
coedge $-1 -1 $-1 $16 $16 $25 $26 reversed $8 $-1 #
coedge $-1 -1 $-1 $17 $17 $27 $28 reversed $10 $-1 #
coedge $-1 -1 $-1 $18 $18 $11 $19 reversed $15 $-1 #
edge $-1 -1 $-1 $29 0 $29 6.2831853071795862 $11 $30 forward @7 unknown #
face $-1 -1 $-1 $31 $32 $2 $-1 $33 reversed single #
loop $-1 -1 $-1 $34 $35 $12 #
plane-surface $-1 -1 $-1 1.0826771653476617 -0.59055118110591276 -0.37412598425196847 3.3778592269521575e-063 -1.0226630661719144e-079 1 0.39370078740157477 4.3464028614814743e-158 -1.329865837382739e-063 forward_v I I I I #
loop $-1 -1 $-1 $-1 $27 $7 #
coedge $-1 -1 $-1 $24 $24 $36 $37 reversed $13 $-1 #
coedge $-1 -1 $-1 $25 $25 $16 $26 forward $38 $-1 #
edge $-1 -1 $-1 $39 -2.3161575861405489e-016 $39 6.2831853071795862 $25 $40 forward @7 unknown #
coedge $-1 -1 $-1 $27 $27 $17 $28 forward $23 $-1 #
edge $-1 -1 $-1 $41 -3.1415926535897931 $41 3.1415926535897931 $27 $42 forward @7 unknown #
vertex $-1 -1 $-1 $19 $43 #
ellipse-curve $-1 -1 $-1 7.2729864660364676 -0.82677165354195081 -0.26812598425196849 -3.3778592269521575e-063 1.0226630661719133e-079 -1 -0.35449999999999993 -6.0662260121222087e-016 1.1974510959545397e-063 1 I I #
face $-1 -1 $-1 $44 $45 $2 $-1 $46 reversed single #
loop $-1 -1 $-1 $47 $48 $20 #
cone-surface $-1 -1 $-1 1.0826771653476617 -0.59055118110591276 -0.43312598425196852 3.3778592269521575e-063 -1.0226630661719144e-079 1 0.128 1.413102498324857e-158 -4.3236598104987616e-064 1 I I 0 1 0.128 forward I I I I #
loop $-1 -1 $-1 $-1 $49 $12 #
coedge $-1 -1 $-1 $35 $35 $50 $51 reversed $21 $-1 #
coedge $-1 -1 $-1 $36 $36 $24 $37 forward $52 $-1 #
edge $-1 -1 $-1 $53 -3.1415926535897931 $53 3.1415926535897931 $36 $54 forward @7 unknown #
loop $-1 -1 $-1 $55 $25 $56 #
vertex $-1 -1 $-1 $26 $57 #
ellipse-curve $-1 -1 $-1 7.2729864660364676 -0.82677165354195081 -0.49212598425196846 3.3778592269521575e-063 -1.0226630661719144e-079 1 -0.35449999999999993 -6.0662260121222087e-016 1.1974510959545397e-063 1 I I #
vertex $-1 -1 $-1 $28 $58 #
ellipse-curve $-1 -1 $-1 7.2729864660364676 -0.82677165354195081 -0.26812598425196826 -3.3778592269521575e-063 1.0226630661719133e-079 -1 -0.17699999999999999 -3.0288349905377457e-016 5.9788108317053187e-064 1 I I #
point $-1 -1 $-1 6.9184864660364678 -0.82677165354195137 -0.26812598425196849 #
face $-1 -1 $-1 $59 $60 $2 $-1 $61 reversed single #
loop $-1 -1 $-1 $62 $63 $31 #
cone-surface $-1 -1 $-1 1.0826771653476617 -0.59055118110591276 12.054361695588472 3.3778592269521575e-063 -1.0226630661719144e-079 1 0.067000000000000004 7.3967083896691736e-159 -2.2631656820579458e-064 1 I I 0 1 0.067000000000000004 forward I I I I #
loop $-1 -1 $-1 $-1 $50 $20 #
coedge $-1 -1 $-1 $48 $48 $64 $65 forward $32 $-1 #
coedge $-1 -1 $-1 $49 $49 $66 $67 forward $34 $-1 #
coedge $-1 -1 $-1 $50 $50 $35 $51 forward $47 $-1 #
edge $-1 -1 $-1 $68 0 $68 6.2831853071795862 $35 $69 forward @7 unknown #
loop $-1 -1 $-1 $70 $36 $71 #
vertex $-1 -1 $-1 $37 $72 #
ellipse-curve $-1 -1 $-1 7.2729864660364676 -0.82677165354195081 0 -3.3778592269521575e-063 -7.9424075897097666e-079 -1 -0.17699999999999999 -3.0288349905377457e-016 5.9788108317053187e-064 1 I I #
loop $-1 -1 $-1 $73 $64 $56 #
face $-1 -1 $-1 $74 $38 $2 $-1 $75 forward single #
point $-1 -1 $-1 6.9184864660364678 -0.82677165354195137 -0.49212598425196846 #
point $-1 -1 $-1 7.4499864660364681 -0.82677165354195048 -0.26812598425196826 #
face $-1 -1 $-1 $76 $77 $2 $-1 $78 reversed single #
loop $-1 -1 $-1 $79 $80 $44 #
plane-surface $-1 -1 $-1 1.0826771653543452 -8.9566929133858242 -0.37412598425196847 3.3778592269521575e-063 -1.0226630661719144e-079 1 0.39370078740157477 4.3464028614814743e-158 -1.329865837382739e-063 forward_v I I I I #
loop $-1 -1 $-1 $-1 $66 $31 #
coedge $-1 -1 $-1 $63 $63 $81 $82 forward $45 $-1 #
coedge $-1 -1 $-1 $64 $64 $48 $65 reversed $55 $-1 #
edge $-1 -1 $-1 $83 -3.4544118741319843e-142 $83 6.2831853071795862 $64 $84 forward @7 unknown #
coedge $-1 -1 $-1 $66 $66 $49 $67 reversed $62 $-1 #
edge $-1 -1 $-1 $85 -3.1415926535897931 $85 3.1415926535897931 $66 $86 forward @7 unknown #
vertex $-1 -1 $-1 $51 $87 #
ellipse-curve $-1 -1 $-1 1.0826771653476617 -0.59055118110591276 -0.37412598425196847 3.3778592269521575e-063 -1.0226630661719144e-079 1 0.128 1.413102498324857e-158 -4.3236598104987616e-064 1 I I #
loop $-1 -1 $-1 $88 $81 $71 #
face $-1 -1 $-1 $89 $52 $2 $-1 $90 reversed single #
point $-1 -1 $-1 7.4499864660364681 -0.82677165354195048 -5.9788108317053187e-064 #
loop $-1 -1 $-1 $91 $92 $56 #
face $-1 -1 $-1 $93 $94 $2 $-1 $95 forward single #
plane-surface $-1 -1 $-1 4.1728625470883962 -0.011974293448503946 -0.49212598425196846 -3.3778592269521575e-063 1.0226630661719144e-079 -1 0.39370078740157477 0 -1.329865837382739e-063 reverse_v I I I I #
face $-1 -1 $-1 $96 $97 $2 $-1 $98 reversed single #
loop $-1 -1 $-1 $99 $100 $59 #
cone-surface $-1 -1 $-1 1.0826771653543452 -8.9566929133858242 -0.43312598425196852 3.3778592269521575e-063 -1.0226630661719144e-079 1 0.128 1.413102498324857e-158 -4.3236598104987616e-064 1 I I 0 1 0.128 forward I I I I #
loop $-1 -1 $-1 $-1 $101 $44 #
coedge $-1 -1 $-1 $80 $80 $102 $103 reversed $60 $-1 #
coedge $-1 -1 $-1 $81 $81 $63 $82 reversed $70 $-1 #
edge $-1 -1 $-1 $104 -3.1415926535897931 $104 3.1415926535897931 $81 $105 forward @7 unknown #
vertex $-1 -1 $-1 $65 $106 #
ellipse-curve $-1 -1 $-1 1.0826771653476617 -0.59055118110591276 -0.49212598425196846 -3.3778592269521575e-063 1.0226630661719144e-079 -1 0.128 1.413102498324857e-158 -4.3236598104987616e-064 1 I I #
vertex $-1 -1 $-1 $67 $107 #
ellipse-curve $-1 -1 $-1 1.0826771653476617 -0.59055118110591276 -0.37412598425196819 3.3778592269521575e-063 -1.0226630661719144e-079 1 0.067000000000000004 7.3967083896691736e-159 -2.2631656820579458e-064 1 I I #
point $-1 -1 $-1 1.2106771653476616 -0.59055118110591276 -0.37412598425196847 #
loop $-1 -1 $-1 $108 $109 $71 #
face $-1 -1 $-1 $110 $111 $2 $-1 $112 forward single #
plane-surface $-1 -1 $-1 6.6304132272453451 -1.7439702283034517 -2.2396602498156312e-062 -3.3778592269521575e-063 -7.9424075897097666e-079 -1 0.39370078740157477 0 -1.329865837382739e-063 reverse_v I I I I #
loop $-1 -1 $-1 $113 $114 $56 #
coedge $-1 -1 $-1 $92 $92 $100 $115 reversed $73 $-1 #
face $-1 -1 $-1 $71 $116 $2 $-1 $117 forward single #
loop $-1 -1 $-1 $-1 $118 $74 #
cone-surface $-1 -1 $-1 7.2729864660364676 -0.82677165354195081 -2.4567124441799426e-062 0 0 1 -0.49212598425196835 -3.9023902219895143e-013 0 1 I I -0 1 0.49212598425196835 reversed I I I I #
face $-1 -1 $-1 $56 $119 $2 $-1 $120 reversed single #
loop $-1 -1 $-1 $121 $122 $76 #
cone-surface $-1 -1 $-1 1.0826771653543452 -8.9566929133858242 12.054361695588472 3.3778592269521575e-063 -1.0226630661719144e-079 1 0.067000000000000004 7.3967083896691736e-159 -2.2631656820579458e-064 1 I I 0 1 0.067000000000000004 forward I I I I #
loop $-1 -1 $-1 $-1 $102 $59 #
coedge $-1 -1 $-1 $100 $100 $92 $115 forward $77 $-1 #
coedge $-1 -1 $-1 $101 $101 $123 $124 forward $79 $-1 #
coedge $-1 -1 $-1 $102 $102 $80 $103 forward $99 $-1 #
edge $-1 -1 $-1 $125 0 $125 6.2831853071795862 $80 $126 forward @7 unknown #
vertex $-1 -1 $-1 $82 $127 #
ellipse-curve $-1 -1 $-1 1.0826771653476617 -0.59055118110591276 0 3.3778592269521575e-063 7.9424075897097666e-079 1 0.067000000000000004 7.3967083896691736e-159 -2.2631656820579458e-064 1 I I #
point $-1 -1 $-1 1.2106771653476616 -0.59055118110591276 -0.49212598425196846 #
point $-1 -1 $-1 1.0156771653476615 -0.59055118110591276 -0.37412598425196819 #
loop $-1 -1 $-1 $128 $129 $71 #
coedge $-1 -1 $-1 $109 $109 $122 $130 reversed $88 $-1 #
face $-1 -1 $-1 $131 $132 $2 $-1 $133 forward single #
loop $-1 -1 $-1 $-1 $134 $89 #
plane-surface $-1 -1 $-1 17.716535433070884 0.49212598425197124 -5.9843962682223303e-062 -1.5789838572446666e-016 1 0 -0.39370078740157477 -6.21647187891601e-017 1.3298658373827387e-063 reverse_v I I I I #
loop $-1 -1 $-1 $-1 $135 $56 #
coedge $-1 -1 $-1 $114 $114 $136 $137 reversed $91 $-1 #
edge $-1 -1 $-1 $138 -3.4544118741319843e-142 $138 6.2831853071795862 $92 $139 forward @7 unknown #
loop $-1 -1 $-1 $-1 $140 $93 #
plane-surface $-1 -1 $-1 7.765112450288437 -0.82677165354156057 -2.6229456738527859e-062 1 2.1210230918239818e-015 0 -8.3504846134802426e-016 0.39370078740157477 2.8206761501166251e-078 reverse_v I I I I #
coedge $-1 -1 $-1 $141 $142 $143 $144 forward $94 $-1 #
loop $-1 -1 $-1 $145 $136 $96 #
cone-surface $-1 -1 $-1 4.320230560524644 -0.82677165354429372 -1.4593130661428846e-062 0 0 1 -0.15944881889763848 -2.8606360710349891e-190 0 1 I I -0 1 0.15944881889763848 reversed I I I I #
loop $-1 -1 $-1 $-1 $123 $76 #
coedge $-1 -1 $-1 $122 $122 $109 $130 forward $97 $-1 #
coedge $-1 -1 $-1 $123 $123 $101 $124 reversed $121 $-1 #
edge $-1 -1 $-1 $146 -3.1415926535897931 $146 3.1415926535897931 $123 $147 forward @7 unknown #
vertex $-1 -1 $-1 $103 $148 #
ellipse-curve $-1 -1 $-1 1.0826771653543452 -8.9566929133858242 -0.37412598425196847 3.3778592269521575e-063 -1.0226630661719144e-079 1 0.128 1.413102498324857e-158 -4.3236598104987616e-064 1 I I #
point $-1 -1 $-1 1.0156771653476615 -0.59055118110591276 2.2631656820579458e-064 #
loop $-1 -1 $-1 $-1 $149 $71 #
coedge $-1 -1 $-1 $129 $129 $150 $151 reversed $108 $-1 #
edge $-1 -1 $-1 $152 -3.1415926535897931 $152 3.1415926535897931 $109 $153 forward @7 unknown #
face $-1 -1 $-1 $154 $155 $2 $-1 $156 forward single #
loop $-1 -1 $-1 $-1 $157 $110 #
plane-surface $-1 -1 $-1 1.3936001445237134 -9.1982031844496479 -4.7073851068612746e-063 0.7897443670711074 -0.61343608850430043 0 0.2415102710646852 0.3109229791618533 -8.1578769751956316e-064 reverse_v I I I I #
coedge $-1 -1 $-1 $158 $159 $160 $161 forward $111 $-1 #
coedge $-1 -1 $-1 $162 $163 $141 $164 reversed $113 $-1 #
coedge $-1 -1 $-1 $136 $136 $114 $137 forward $119 $-1 #
edge $-1 -1 $-1 $165 -3.1415926535897931 $165 3.1415926535897931 $114 $166 forward @7 unknown #
vertex $-1 -1 $-1 $115 $167 #
ellipse-curve $-1 -1 $-1 1.0826771653543452 -8.9566929133858242 -0.49212598425196846 -3.3778592269521575e-063 1.0226630661719144e-079 -1 0.128 1.413102498324857e-158 -4.3236598104987616e-064 1 I I #
coedge $-1 -1 $-1 $168 $160 $149 $169 reversed $116 $-1 #
coedge $-1 -1 $-1 $170 $118 $135 $164 forward $94 $-1 #
coedge $-1 -1 $-1 $118 $170 $171 $172 reversed $94 $-1 #
coedge $-1 -1 $-1 $157 $173 $118 $144 reversed $132 $-1 #
edge $-1 -1 $-1 $174 0 $175 1.25 $118 $176 forward @7 unknown #
loop $-1 -1 $-1 $-1 $150 $96 #
vertex $-1 -1 $-1 $124 $177 #
ellipse-curve $-1 -1 $-1 1.0826771653543452 -8.9566929133858242 -0.37412598425196819 3.3778592269521575e-063 -1.0226630661719144e-079 1 0.067000000000000004 7.3967083896691736e-159 -2.2631656820579458e-064 1 I I #
point $-1 -1 $-1 1.2106771653543451 -8.9566929133858242 -0.37412598425196847 #
coedge $-1 -1 $-1 $178 $171 $140 $169 forward $128 $-1 #
coedge $-1 -1 $-1 $150 $150 $129 $151 forward $145 $-1 #
edge $-1 -1 $-1 $179 -3.1415926535897931 $179 3.1415926535897931 $129 $180 forward @7 unknown #
vertex $-1 -1 $-1 $130 $181 #
ellipse-curve $-1 -1 $-1 1.0826771653543452 -8.9566929133858242 0 3.3778592269521575e-063 7.9424075897097666e-079 1 0.067000000000000004 7.3967083896691736e-159 -2.2631656820579458e-064 1 I I #
face $-1 -1 $-1 $182 $183 $2 $-1 $184 forward single #
loop $-1 -1 $-1 $-1 $185 $131 #
cone-surface $-1 -1 $-1 1.0826771653543452 -8.9566929133858242 -3.6571310528025711e-063 0 0 1 1.7483827159451283e-016 -0.39370078740157477 0 1 I I -0 1 0.39370078740157477 reversed I I I I #
coedge $-1 -1 $-1 $186 $143 $187 $188 reversed $132 $-1 #
coedge $-1 -1 $-1 $189 $134 $190 $191 forward $111 $-1 #
coedge $-1 -1 $-1 $134 $189 $178 $192 reversed $111 $-1 #
coedge $-1 -1 $-1 $140 $193 $134 $161 reversed $116 $-1 #
edge $-1 -1 $-1 $194 -4.2690422548493242e-062 $195 1.25 $160 $196 forward @7 unknown #
coedge $-1 -1 $-1 $197 $135 $173 $198 reversed $113 $-1 #
coedge $-1 -1 $-1 $135 $190 $193 $199 reversed $113 $-1 #
edge $-1 -1 $-1 $175 2.4811884893418599 $200 3.1415926535897807 $141 $201 forward @7 unknown #
vertex $-1 -1 $-1 $137 $202 #
ellipse-curve $-1 -1 $-1 4.320230560524644 -0.82677165354429372 -0.49212598425196846 -3.3778592269521575e-063 1.0226630661719144e-079 -1 -0.15944881889763848 -2.8606360710349891e-190 0 1 I I #
point $-1 -1 $-1 1.2106771653543451 -8.9566929133858242 -0.49212598425196846 #
coedge $-1 -1 $-1 $193 $140 $170 $203 forward $116 $-1 #
edge $-1 -1 $-1 $204 1.1648421899475987 $194 4.514842189943197 $140 $205 forward @7 unknown #
coedge $-1 -1 $-1 $142 $141 $168 $203 reversed $94 $-1 #
coedge $-1 -1 $-1 $149 $187 $142 $172 forward $128 $-1 #
edge $-1 -1 $-1 $174 2.4811884893418599 $204 3.1415926535897807 $142 $206 forward @7 unknown #
coedge $-1 -1 $-1 $143 $186 $162 $198 forward $132 $-1 #
vertex $-1 -1 $-1 $188 $207 #
vertex $-1 -1 $-1 $144 $208 #
straight-curve $-1 -1 $-1 7.661640189988784 -1.1286594923728075 -2.587994200934108e-062 0 0 -0.39370078740157477 I I #
point $-1 -1 $-1 1.015677165354345 -8.9566929133858242 -0.37412598425196819 #
coedge $-1 -1 $-1 $209 $149 $159 $192 forward $128 $-1 #
vertex $-1 -1 $-1 $151 $210 #
ellipse-curve $-1 -1 $-1 4.320230560524644 -0.82677165354429372 -1.4095342257485611e-062 3.3778592269521575e-063 -1.0226630661719144e-079 1 -0.15944881889763848 -2.8606360710349891e-190 0 1 I I #
point $-1 -1 $-1 1.015677165354345 -8.9566929133858242 2.2631656820579458e-064 #
face $-1 -1 $-1 $-1 $211 $2 $-1 $212 forward single #
loop $-1 -1 $-1 $-1 $213 $154 #
plane-surface $-1 -1 $-1 1.4589742238952443e-014 -9.3503937007874001 -3.983283033782084e-077 1.794077930970084e-189 -1 0 0.39370078740157477 7.0632989408271017e-190 -1.3298658373827387e-063 reverse_v I I I I #
coedge $-1 -1 $-1 $214 $215 $216 $217 reversed $155 $-1 #
coedge $-1 -1 $-1 $173 $157 $215 $218 forward $132 $-1 #
coedge $-1 -1 $-1 $171 $216 $157 $188 forward $128 $-1 #
edge $-1 -1 $-1 $219 0 $174 25.953513355074918 $157 $220 forward @7 unknown #
coedge $-1 -1 $-1 $159 $158 $221 $222 reversed $111 $-1 #
coedge $-1 -1 $-1 $163 $223 $158 $191 reversed $113 $-1 #
edge $-1 -1 $-1 $195 25.276614376267425 $224 45.000000000000014 $158 $225 forward @7 unknown #
edge $-1 -1 $-1 $194 25.276614376267425 $226 45.000000000000014 $159 $227 forward @7 unknown #
coedge $-1 -1 $-1 $160 $168 $163 $199 forward $116 $-1 #
vertex $-1 -1 $-1 $192 $228 #
vertex $-1 -1 $-1 $191 $229 #
straight-curve $-1 -1 $-1 7.7651124502884343 0.49212598425196968 -4.3036709710375575e-062 0 0 -0.39370078740157477 I I #
coedge $-1 -1 $-1 $230 $162 $231 $232 reversed $113 $-1 #
edge $-1 -1 $-1 $233 0 $175 25.953513355074918 $173 $234 forward @7 unknown #
edge $-1 -1 $-1 $200 0 $195 3.3499999999955983 $193 $235 forward @7 unknown #
vertex $-1 -1 $-1 $203 $236 #
ellipse-curve $-1 -1 $-1 7.2729864660364676 -0.82677165354195081 -0.49212598425196846 3.3778592269521565e-063 0 1 -0.49212598425196835 -3.9023902219895143e-013 1.662332296728423e-063 1 I I #
point $-1 -1 $-1 4.479679379422282 -0.82677165354429372 -0.49212598425196846 #
edge $-1 -1 $-1 $204 0 $200 1.25 $170 $237 forward @7 tangent #
vertex $-1 -1 $-1 $172 $238 #
straight-curve $-1 -1 $-1 7.7651124502884388 -1.2853709409225049 -2.6229456738527872e-062 -8.3504846134802426e-016 0.39370078740157477 2.5079829379233283e-078 I I #
ellipse-curve $-1 -1 $-1 7.2729864660364676 -0.82677165354195081 -2.4567124441799426e-062 3.3778592269521565e-063 0 1 -0.49212598425196835 -3.9023902219895143e-013 1.662332296728423e-063 1 F 2.3264454728053906e-027 F 3.1415926535897931 #
point $-1 -1 $-1 7.661640189988784 -1.1286594923728075 -2.587994200934108e-062 #
point $-1 -1 $-1 7.661640189988784 -1.1286594923728075 -0.49212598425196846 #
coedge $-1 -1 $-1 $239 $178 $240 $241 forward $128 $-1 #
point $-1 -1 $-1 4.479679379422282 -0.82677165354429372 -1.5131726325568859e-062 #
loop $-1 -1 $-1 $-1 $242 $182 #
plane-surface $-1 -1 $-1 1.3987061727561026e-014 0.49212598425196846 -3.7797060411513108e-077 -1 -6.1232339957367833e-017 0 2.4107220455656625e-017 -0.39370078740157477 -8.1430797052309512e-080 reverse_v I I I I #
coedge $-1 -1 $-1 $243 $244 $239 $245 reversed $183 $-1 #
coedge $-1 -1 $-1 $231 $185 $244 $246 forward $155 $-1 #
coedge $-1 -1 $-1 $185 $231 $186 $218 reversed $155 $-1 #
coedge $-1 -1 $-1 $187 $239 $185 $217 forward $128 $-1 #
edge $-1 -1 $-1 $247 5.0670281113633122e-141 $219 0.9103921625611916 $185 $248 forward @7 unknown #
edge $-1 -1 $-1 $219 0 $233 1.25 $215 $249 forward @7 tangent #
vertex $-1 -1 $-1 $217 $250 #
straight-curve $-1 -1 $-1 1.3936001445237134 -9.1982031844496479 -4.7073851068612746e-063 0.2415102710646852 0.3109229791618533 -8.1578769751956316e-064 F 0 F 25.953513355074918 #
coedge $-1 -1 $-1 $242 $240 $189 $222 forward $211 $-1 #
edge $-1 -1 $-1 $226 0 $224 1.25 $221 $251 forward @7 unknown #
coedge $-1 -1 $-1 $190 $230 $242 $252 reversed $113 $-1 #
vertex $-1 -1 $-1 $222 $253 #
straight-curve $-1 -1 $-1 17.716535433070884 0.49212598425197124 -0.49212598425196846 -0.39370078740157477 -6.21647187891601e-017 1.3298658373827387e-063 I I #
vertex $-1 -1 $-1 $241 $254 #
straight-curve $-1 -1 $-1 17.716535433070884 0.49212598425197124 -5.9843962682223303e-062 -0.39370078740157477 -6.21647187891601e-017 1.3298658373827387e-063 F -0 F 45.000000000000014 #
point $-1 -1 $-1 7.7651124502884343 0.49212598425198173 -2.6229456738527846e-062 #
point $-1 -1 $-1 7.7651124502884343 0.49212598425198173 -0.49212598425196846 #
coedge $-1 -1 $-1 $223 $197 $255 $256 reversed $113 $-1 #
coedge $-1 -1 $-1 $215 $214 $197 $232 forward $155 $-1 #
edge $-1 -1 $-1 $257 5.0670281113633122e-141 $233 0.9103921625611916 $231 $258 forward @7 unknown #
vertex $-1 -1 $-1 $218 $259 #
straight-curve $-1 -1 $-1 1.3936001445237134 -9.1982031844496479 -0.49212598425196846 0.2415102710646852 0.3109229791618533 -8.1578769751956316e-064 I I #
straight-curve $-1 -1 $-1 7.765112450288437 -0.82677165354156057 -0.49212598425196846 -8.3504846134802426e-016 0.39370078740157477 2.8206761501166251e-078 I I #
point $-1 -1 $-1 7.765112450288437 -0.82677165354156057 -0.49212598425196846 #
straight-curve $-1 -1 $-1 7.765112450288437 -0.82677165354156057 -2.6229456738527859e-062 0 0 -0.39370078740157477 I I #
point $-1 -1 $-1 7.765112450288437 -0.82677165354156057 -2.6229456738527859e-062 #
coedge $-1 -1 $-1 $216 $209 $213 $245 forward $128 $-1 #
coedge $-1 -1 $-1 $221 $260 $209 $241 reversed $211 $-1 #
edge $-1 -1 $-1 $226 0 $261 24.999999999999996 $240 $262 forward @7 unknown #
coedge $-1 -1 $-1 $260 $221 $223 $252 forward $211 $-1 #
coedge $-1 -1 $-1 $255 $213 $260 $263 forward $183 $-1 #
coedge $-1 -1 $-1 $213 $255 $214 $246 reversed $183 $-1 #
edge $-1 -1 $-1 $261 0 $247 2.7500000000000004 $213 $264 forward @7 unknown #
edge $-1 -1 $-1 $247 0 $257 1.25 $244 $265 forward @7 tangent #
vertex $-1 -1 $-1 $245 $266 #
ellipse-curve $-1 -1 $-1 1.0826771653543452 -8.9566929133858242 -3.6571310528025711e-063 3.3778592269521565e-063 0 1 1.7483827159451283e-016 -0.39370078740157477 -5.9057906892989231e-079 1 F 5.0670281113633122e-141 F 0.9103921625611916 #
straight-curve $-1 -1 $-1 1.3936001445237134 -9.1982031844496479 -4.7073851068612746e-063 0 0 -0.39370078740157477 I I #
point $-1 -1 $-1 1.3936001445237134 -9.1982031844496479 -4.7073851068612746e-063 #
straight-curve $-1 -1 $-1 1.3987061727561026e-014 0.49212598425196846 -3.7797060411513108e-077 0 0 -0.39370078740157477 I I #
edge $-1 -1 $-1 $224 0 $267 24.999999999999996 $242 $268 forward @7 unknown #
point $-1 -1 $-1 1.3987061727561026e-014 0.49212598425196846 -0.49212598425196846 #
point $-1 -1 $-1 1.3987061727561026e-014 0.49212598425196846 -3.7797060411513108e-077 #
coedge $-1 -1 $-1 $244 $243 $230 $256 forward $183 $-1 #
edge $-1 -1 $-1 $267 0 $257 2.7500000000000004 $255 $269 forward @7 unknown #
vertex $-1 -1 $-1 $246 $270 #
ellipse-curve $-1 -1 $-1 1.0826771653543452 -8.9566929133858242 -0.49212598425196846 3.3778592269521565e-063 0 1 1.7483827159451283e-016 -0.39370078740157477 -5.9057906892989231e-079 1 I I #
point $-1 -1 $-1 1.3936001445237134 -9.1982031844496479 -0.49212598425196846 #
coedge $-1 -1 $-1 $240 $242 $243 $263 reversed $211 $-1 #
vertex $-1 -1 $-1 $241 $271 #
straight-curve $-1 -1 $-1 1.3987061727561026e-014 0.49212598425196846 -3.7797060411513108e-077 2.4107220455656625e-017 -0.39370078740157477 -8.1430797052309512e-080 F 0 F 24.999999999999996 #
edge $-1 -1 $-1 $261 0 $267 1.25 $260 $272 forward @7 unknown #
straight-curve $-1 -1 $-1 1.4589742238952443e-014 -9.3503937007874001 -3.983283033782084e-077 0.39370078740157477 7.0632989408271017e-190 -1.3298658373827387e-063 F 0 F 2.7500000000000004 #
straight-curve $-1 -1 $-1 1.0826771653543452 -9.3503937007874001 -3.6571310528025711e-063 0 0 -0.39370078740157477 I I #
point $-1 -1 $-1 1.0826771653543452 -9.3503937007874001 -3.6571310528025711e-063 #
vertex $-1 -1 $-1 $263 $273 #
straight-curve $-1 -1 $-1 1.3987061727561026e-014 0.49212598425196846 -0.49212598425196846 2.4107220455656625e-017 -0.39370078740157477 -8.1430797052309512e-080 I I #
straight-curve $-1 -1 $-1 1.4589742238952443e-014 -9.3503937007874001 -0.49212598425196846 0.39370078740157477 7.0632989408271017e-190 -1.3298658373827387e-063 I I #
point $-1 -1 $-1 1.0826771653543452 -9.3503937007874001 -0.49212598425196846 #
point $-1 -1 $-1 1.4589742238952443e-014 -9.3503937007874001 -3.983283033782084e-077 #
straight-curve $-1 -1 $-1 1.4589742238952443e-014 -9.3503937007874001 -3.983283033782084e-077 0 0 -0.39370078740157477 I I #
point $-1 -1 $-1 1.4589742238952443e-014 -9.3503937007874001 -0.49212598425196846 #
End-of-ACIS-data 