700 0 1 0           
33 Autodesk Inventor 17.0.13800.0000 19 ASM 218.0.0.5119 NT 24 Fri Oct 18 14:28:40 2013 
1 9.9999999999999995e-007 1e-010 
body $-1 -1 $-1 $1 $-1 $-1 #
lump $-1 -1 $-1 $-1 $2 $0 #
shell $-1 -1 $-1 $-1 $-1 $3 $-1 $1 #
face $-1 -1 $-1 $4 $5 $2 $-1 $6 reversed single #
face $-1 -1 $-1 $7 $8 $2 $-1 $9 reversed single #
loop $-1 -1 $-1 $10 $11 $3 #
cone-surface $-1 -1 $-1 0 74 1.3322676295501878e-014 0 -1 -1.800361661554308e-016 -18.000000000000011 0 0 1 I I 0 1 18.000000000000011 forward I I I I #
face $-1 -1 $-1 $12 $13 $2 $-1 $14 forward single #
loop $-1 -1 $-1 $15 $16 $4 #
plane-surface $-1 -1 $-1 -1.8369701987210307e-016 25 4.9120978667098906e-015 -0 -1 -1.800361661554308e-016 0 1.8003616615543081e-015 -10 forward_v I I I I #
loop $-1 -1 $-1 $-1 $17 $3 #
coedge $-1 -1 $-1 $11 $11 $18 $19 forward $5 $-1 #
face $-1 -1 $-1 $20 $21 $2 $-1 $22 reversed single #
loop $-1 -1 $-1 $23 $24 $7 #
cone-surface $-1 -1 $-1 0 8.7500000000000018 1.5753164538600187e-015 0 -1 -1.800361661554308e-016 -9.2999999999999989 0 0 1 I I -0.70710678118654757 -0.70710678118654757 9.2999999999999989 forward I I I I #
loop $-1 -1 $-1 $-1 $18 $4 #
coedge $-1 -1 $-1 $16 $16 $25 $26 reversed $8 $-1 #
coedge $-1 -1 $-1 $17 $17 $27 $28 reversed $10 $-1 #
coedge $-1 -1 $-1 $18 $18 $11 $19 reversed $15 $-1 #
edge $-1 -1 $-1 $29 -3.1415926535897931 $29 3.1415926535897931 $11 $30 forward @7 unknown #
face $-1 -1 $-1 $31 $32 $2 $-1 $33 reversed single #
loop $-1 -1 $-1 $34 $35 $12 #
cone-surface $-1 -1 $-1 0 7.0000000000000027 1.2602531630880147e-015 0 1 1.800361661554308e-016 -7.5499999999999998 0 0 1 I I 0 1 7.5499999999999998 forward I I I I #
loop $-1 -1 $-1 $-1 $36 $7 #
coedge $-1 -1 $-1 $24 $24 $37 $38 forward $13 $-1 #
coedge $-1 -1 $-1 $25 $25 $16 $26 forward $39 $-1 #
edge $-1 -1 $-1 $40 -3.1415926535897931 $40 3.1415926535897931 $25 $41 forward @7 unknown #
coedge $-1 -1 $-1 $27 $27 $17 $28 forward $42 $-1 #
edge $-1 -1 $-1 $43 -3.1415926535897931 $43 3.1415926535897931 $27 $44 forward @7 unknown #
vertex $-1 -1 $-1 $19 $45 #
ellipse-curve $-1 -1 $-1 0 25 4.5009041538857682e-015 0 -1 -1.800361661554308e-016 -18.000000000000011 -0 -0 1 I I #
face $-1 -1 $-1 $46 $39 $2 $-1 $47 reversed single #
loop $-1 -1 $-1 $48 $49 $20 #
cone-surface $-1 -1 $-1 0 1.9803978277097396e-015 -1.029293493024859e-030 0 1 1.800361661554308e-016 -11.050000000000002 0 0 1 I I 0 1 11.050000000000002 forward I I I I #
loop $-1 -1 $-1 $-1 $37 $12 #
coedge $-1 -1 $-1 $35 $35 $50 $51 reversed $21 $-1 #
coedge $-1 -1 $-1 $36 $36 $49 $52 reversed $23 $-1 #
coedge $-1 -1 $-1 $37 $37 $24 $38 reversed $34 $-1 #
edge $-1 -1 $-1 $53 -3.1415926535897931 $53 3.1415926535897931 $37 $54 forward @7 unknown #
loop $-1 -1 $-1 $55 $25 $31 #
vertex $-1 -1 $-1 $26 $56 #
ellipse-curve $-1 -1 $-1 0 25 4.5009041538857682e-015 0 1 1.800361661554308e-016 -11.050000000000002 0 0 1 I I #
loop $-1 -1 $-1 $57 $27 $58 #
vertex $-1 -1 $-1 $28 $59 #
ellipse-curve $-1 -1 $-1 0 74 1.3322676295501878e-014 0 -1 -1.800361661554308e-016 -18.000000000000011 0 0 1 I I #
point $-1 -1 $-1 18.000000000000011 25 2.2965399154205323e-015 #
face $-1 -1 $-1 $60 $61 $2 $-1 $62 reversed single #
cone-surface $-1 -1 $-1 0 74 1.3322676295501878e-014 0 -1 -1.800361661554308e-016 -11.050000000000002 0 0 1 I I 0 1 11.050000000000002 forward I I I I #
loop $-1 -1 $-1 $-1 $63 $20 #
coedge $-1 -1 $-1 $49 $49 $36 $52 forward $32 $-1 #
coedge $-1 -1 $-1 $50 $50 $35 $51 forward $61 $-1 #
edge $-1 -1 $-1 $64 -3.1415926535897931 $64 3.1415926535897931 $50 $65 forward @7 unknown #
edge $-1 -1 $-1 $66 -3.1415926535897931 $66 3.1415926535897931 $49 $67 forward @7 unknown #
vertex $-1 -1 $-1 $38 $68 #
ellipse-curve $-1 -1 $-1 0 10.500000000000004 1.8903797446320226e-015 0 1 1.800361661554308e-016 -7.5499999999999998 0 0 1 I I #
loop $-1 -1 $-1 $-1 $69 $31 #
point $-1 -1 $-1 11.050000000000002 25 3.1476694408279433e-015 #
loop $-1 -1 $-1 $-1 $70 $58 #
face $-1 -1 $-1 $71 $42 $2 $-1 $72 forward single #
point $-1 -1 $-1 18.000000000000011 74 1.1118312057036643e-014 #
face $-1 -1 $-1 $73 $74 $2 $-1 $75 forward single #
loop $-1 -1 $-1 $76 $50 $46 #
plane-surface $-1 -1 $-1 -4.4767846579408167e-016 17.999999999999972 3.357869108028159e-015 -0 -1 -1.800361661554308e-016 0 1.8003616615543081e-015 -10 forward_v I I I I #
coedge $-1 -1 $-1 $63 $63 $77 $78 reversed $48 $-1 #
vertex $-1 -1 $-1 $51 $79 #
ellipse-curve $-1 -1 $-1 0 17.999999999999972 3.2406509907977476e-015 -0 -1 -1.800361661554308e-016 -7.5499999999999998 0 0 1 I I #
vertex $-1 -1 $-1 $52 $80 #
ellipse-curve $-1 -1 $-1 0 7.0000000000000027 1.2602531630880147e-015 0 1 1.800361661554308e-016 -11.050000000000002 -0 -0 1 I I #
point $-1 -1 $-1 7.5499999999999998 10.500000000000004 9.6577141127577076e-016 #
coedge $-1 -1 $-1 $69 $69 $81 $82 forward $55 $-1 #
coedge $-1 -1 $-1 $70 $70 $83 $84 forward $57 $-1 #
face $-1 -1 $-1 $-1 $85 $2 $-1 $86 forward single #
plane-surface $-1 -1 $-1 0 74 11.000000000000012 0 1 1.800361661554308e-016 0 -1.8003616615543081e-015 10 forward_v I I I I #
face $-1 -1 $-1 $87 $88 $2 $-1 $89 forward single #
loop $-1 -1 $-1 $90 $91 $60 #
cone-surface $-1 -1 $-1 0 71 1.2782567797035586e-014 0 1 1.8003616615543078e-016 0 1.9803978277097396e-015 -21.000000000000007 1 I I 0.70710678118654735 0.70710678118654891 21.000000000000007 forward I I I I #
loop $-1 -1 $-1 $-1 $81 $46 #
coedge $-1 -1 $-1 $77 $77 $63 $78 forward $85 $-1 #
edge $-1 -1 $-1 $92 -3.1415926535897931 $92 3.1415926535897931 $77 $93 forward @7 unknown #
point $-1 -1 $-1 7.5499999999999998 17.999999999999972 4.165259324153999e-015 #
point $-1 -1 $-1 11.050000000000002 7.0000000000000027 2.6134878761458404e-015 #
coedge $-1 -1 $-1 $81 $81 $69 $82 reversed $76 $-1 #
edge $-1 -1 $-1 $94 -3.1415926535897931 $94 3.1415926535897931 $69 $95 forward @7 unknown #
coedge $-1 -1 $-1 $83 $83 $70 $84 reversed $96 $-1 #
edge $-1 -1 $-1 $97 0 $97 6.2831853071795862 $70 $98 forward @7 unknown #
loop $-1 -1 $-1 $99 $77 $71 #
plane-surface $-1 -1 $-1 0 0 11.000000000000005 0 -1 -1.800361661554308e-016 0 1.8003616615543081e-015 -10 forward_v I I I I #
face $-1 -1 $-1 $100 $101 $2 $-1 $102 forward single #
loop $-1 -1 $-1 $103 $104 $73 #
cone-surface $-1 -1 $-1 0 37.000000000000007 6.6613381477509392e-015 0 1 1.800361661554308e-016 0 0 20.000000000000007 1 I I 0 1 20.000000000000007 forward I I I I #
loop $-1 -1 $-1 $-1 $105 $60 #
coedge $-1 -1 $-1 $91 $91 $106 $107 forward $74 $-1 #
vertex $-1 -1 $-1 $78 $108 #
ellipse-curve $-1 -1 $-1 0 1.9803978277097396e-015 -1.029293493024859e-030 0 1 1.800361661554308e-016 -11.050000000000002 0 0 1 I I #
vertex $-1 -1 $-1 $82 $109 #
ellipse-curve $-1 -1 $-1 0 18 3.2406509907977527e-015 0 -1 -1.800361661554308e-016 -11.050000000000002 -0 -0 1 I I #
loop $-1 -1 $-1 $110 $83 $111 #
vertex $-1 -1 $-1 $84 $112 #
ellipse-curve $-1 -1 $-1 0 74 1.3322676295501878e-014 0 1 1.800361661554308e-016 0 0 21.999999999999996 1 I I #
loop $-1 -1 $-1 $-1 $113 $71 #
face $-1 -1 $-1 $111 $114 $2 $-1 $115 forward single #
loop $-1 -1 $-1 $116 $117 $87 #
cone-surface $-1 -1 $-1 0 3.0000000000000018 5.4010849846629139e-016 0 1 1.800361661554308e-016 0 1.9803978277097404e-015 -21.000000000000014 1 I I -0.70710678118654879 0.70710678118654491 21.000000000000014 forward I I I I #
loop $-1 -1 $-1 $-1 $106 $73 #
coedge $-1 -1 $-1 $104 $104 $118 $119 reversed $88 $-1 #
coedge $-1 -1 $-1 $105 $105 $120 $121 reversed $90 $-1 #
coedge $-1 -1 $-1 $106 $106 $91 $107 reversed $103 $-1 #
edge $-1 -1 $-1 $122 -3.1415926535897931 $122 3.1415926535897931 $106 $123 forward @7 unknown #
point $-1 -1 $-1 11.050000000000002 1.9803978277097396e-015 1.3532347130578247e-015 #
point $-1 -1 $-1 11.050000000000002 18 1.8874162777399278e-015 #
loop $-1 -1 $-1 $-1 $120 $111 #
face $-1 -1 $-1 $58 $96 $2 $-1 $124 forward single #
point $-1 -1 $-1 0 74 22.000000000000011 #
coedge $-1 -1 $-1 $113 $113 $125 $126 reversed $99 $-1 #
loop $-1 -1 $-1 $127 $128 $100 #
cone-surface $-1 -1 $-1 0 1.000000000000004 1.8003616615542957e-016 0 1 1.800361661554308e-016 0 0 22.000000000000011 1 I I 0 1 22.000000000000011 forward I I I I #
loop $-1 -1 $-1 $-1 $118 $87 #
coedge $-1 -1 $-1 $117 $117 $128 $129 forward $101 $-1 #
coedge $-1 -1 $-1 $118 $118 $104 $119 forward $116 $-1 #
edge $-1 -1 $-1 $130 -3.1415926535897931 $130 3.1415926535897931 $104 $131 forward @7 unknown #
coedge $-1 -1 $-1 $120 $120 $105 $121 forward $110 $-1 #
edge $-1 -1 $-1 $132 0 $132 6.2831853071795862 $120 $133 forward @7 unknown #
vertex $-1 -1 $-1 $107 $134 #
ellipse-curve $-1 -1 $-1 0 70 1.2602531630880156e-014 0 1 1.800361661554308e-016 -0 -0 -20.000000000000007 1 I I #
cone-surface $-1 -1 $-1 0 73 1.3142640129346449e-014 0 1 1.800361661554308e-016 0 0 21.999999999999996 1 I I 0 1 21.999999999999996 forward I I I I #
coedge $-1 -1 $-1 $125 $125 $113 $126 forward $127 $-1 #
edge $-1 -1 $-1 $135 0 $135 6.2831853071795862 $125 $136 forward @7 unknown #
loop $-1 -1 $-1 $-1 $125 $100 #
coedge $-1 -1 $-1 $128 $128 $117 $129 reversed $114 $-1 #
edge $-1 -1 $-1 $137 0 $137 6.2831853071795862 $128 $138 forward @7 unknown #
vertex $-1 -1 $-1 $119 $139 #
ellipse-curve $-1 -1 $-1 0 3.9999999999999991 7.2014466462172172e-016 0 -1 -1.800361661554308e-016 -0 -0 -20.000000000000007 1 I I #
vertex $-1 -1 $-1 $121 $140 #
ellipse-curve $-1 -1 $-1 0 72 1.2962603963191017e-014 0 1 1.800361661554308e-016 0 0 21.999999999999996 1 I I #
point $-1 -1 $-1 2.4492935982947073e-015 70 20.000000000000021 #
vertex $-1 -1 $-1 $126 $141 #
ellipse-curve $-1 -1 $-1 0 3.9607956554194791e-015 -1.2590657983257195e-030 0 1 1.800361661554308e-016 0 0 22.000000000000011 1 I I #
vertex $-1 -1 $-1 $129 $142 #
ellipse-curve $-1 -1 $-1 0 2.000000000000004 3.6007233231086037e-016 0 1 1.800361661554308e-016 0 0 22.000000000000011 1 I I #
point $-1 -1 $-1 -2.4492935982947073e-015 3.9999999999999991 20.000000000000007 #
point $-1 -1 $-1 0 72 22.000000000000011 #
point $-1 -1 $-1 0 0 22.000000000000011 #
point $-1 -1 $-1 0 2 22.000000000000011 #
End-of-ACIS-data 