700 0 1 0           
33 Autodesk Inventor 17.0.13800.0000 19 ASM 218.0.0.5119 NT 24 Fri Oct 18 14:28:46 2013 
25.399999999999999 9.9999999999999995e-007 1e-010 
body $-1 -1 $-1 $1 $-1 $-1 #
lump $-1 -1 $-1 $-1 $2 $0 #
shell $-1 -1 $-1 $-1 $-1 $3 $-1 $1 #
face $-1 -1 $-1 $4 $5 $2 $-1 $6 reversed single #
face $-1 -1 $-1 $7 $8 $2 $-1 $9 reversed single #
loop $-1 -1 $-1 $10 $11 $3 #
cone-surface $-1 -1 $-1 6.7218110236220721 -0.82677165354330595 1.8680976518113098e-093 0 0 1 -0.15944881889763779 0 0 1 I I 0 1 0.15944881889763779 forward I I I I #
face $-1 -1 $-1 $12 $13 $2 $-1 $14 forward single #
loop $-1 -1 $-1 $15 $16 $4 #
cone-surface $-1 -1 $-1 3.7690551181102609 -0.82677165354329984 1.0474800602018604e-093 0 0 1 -0.15944881889763779 0 0 1 I I 0 1 0.15944881889763779 forward I I I I #
loop $-1 -1 $-1 $-1 $17 $3 #
coedge $-1 -1 $-1 $11 $11 $18 $19 reversed $5 $-1 #
face $-1 -1 $-1 $20 $21 $2 $-1 $22 forward single #
loop $-1 -1 $-1 $-1 $23 $7 #
cone-surface $-1 -1 $-1 6.7218110236220721 -0.82677165354330595 1.8680976518113098e-093 0 0 1 -0.49212598425196835 8.7419135797256275e-016 0 1 I I 0 1 0.49212598425196835 forward I I I I #
loop $-1 -1 $-1 $-1 $24 $4 #
coedge $-1 -1 $-1 $16 $16 $25 $26 reversed $8 $-1 #
coedge $-1 -1 $-1 $17 $17 $27 $28 reversed $10 $-1 #
coedge $-1 -1 $-1 $18 $18 $11 $19 forward $29 $-1 #
edge $-1 -1 $-1 $30 -3.1415926535897931 $30 3.1415926535897931 $18 $31 forward @7 unknown #
face $-1 -1 $-1 $32 $33 $2 $-1 $34 forward single #
loop $-1 -1 $-1 $-1 $35 $12 #
plane-surface $-1 -1 $-1 0.9842519685039387 -9.3425196850393686 2.7353919720315025e-094 0.80159288394646255 -0.59787026051342707 0 0.23538199232812088 0.31558774958522146 6.541638043699233e-095 forward_v I I I I #
coedge $-1 -1 $-1 $36 $37 $38 $39 forward $13 $-1 #
coedge $-1 -1 $-1 $24 $24 $40 $41 reversed $15 $-1 #
coedge $-1 -1 $-1 $25 $25 $16 $26 forward $42 $-1 #
edge $-1 -1 $-1 $43 -3.1415926535897931 $43 3.1415926535897931 $25 $44 forward @7 unknown #
coedge $-1 -1 $-1 $27 $27 $17 $28 forward $45 $-1 #
edge $-1 -1 $-1 $46 -3.1415926535897931 $46 3.1415926535897931 $27 $47 forward @7 unknown #
loop $-1 -1 $-1 $42 $18 $48 #
vertex $-1 -1 $-1 $19 $49 #
ellipse-curve $-1 -1 $-1 6.7218110236220721 -0.82677165354330595 0.49999999999999994 2.7791582435840022e-094 -8.365047311243547e-111 -1 -0.15944881889763779 0 0 1 I I #
face $-1 -1 $-1 $50 $51 $2 $-1 $52 forward single #
loop $-1 -1 $-1 $-1 $53 $20 #
plane-surface $-1 -1 $-1 1.8080415341742427e-015 -9.3425196850393686 5.0248335344426112e-109 0 -1 0 0.39370078740157477 0 1.0941567888125989e-094 forward_v I I I I #
coedge $-1 -1 $-1 $54 $55 $56 $57 forward $21 $-1 #
coedge $-1 -1 $-1 $58 $23 $59 $60 forward $13 $-1 #
coedge $-1 -1 $-1 $23 $58 $54 $61 reversed $13 $-1 #
coedge $-1 -1 $-1 $56 $62 $23 $39 reversed $63 $-1 #
edge $-1 -1 $-1 $64 2.5007510698888145 $65 3.1415926535897927 $23 $66 forward @7 unknown #
coedge $-1 -1 $-1 $40 $40 $24 $41 forward $67 $-1 #
edge $-1 -1 $-1 $68 -3.1415926535897931 $68 3.1415926535897931 $40 $69 forward @7 unknown #
loop $-1 -1 $-1 $70 $25 $48 #
vertex $-1 -1 $-1 $26 $71 #
ellipse-curve $-1 -1 $-1 3.7690551181102609 -0.82677165354329984 0.49999999999999994 2.7791582435840022e-094 -8.365047311243547e-111 -1 -0.15944881889763779 0 0 1 I I #
loop $-1 -1 $-1 $67 $27 $72 #
vertex $-1 -1 $-1 $28 $73 #
ellipse-curve $-1 -1 $-1 6.7218110236220721 -0.82677165354330595 7.382064870397762e-094 -2.7791582435840022e-094 8.365047311243547e-111 1 -0.15944881889763779 0 0 1 I I #
face $-1 -1 $-1 $72 $29 $2 $-1 $74 forward single #
point $-1 -1 $-1 6.88125984251971 -0.82677165354330595 0.49999999999999994 #
face $-1 -1 $-1 $75 $76 $2 $-1 $77 forward single #
loop $-1 -1 $-1 $-1 $78 $32 #
plane-surface $-1 -1 $-1 6.1268729730350053e-236 0.49999999999999994 -2.2045786659250435e-142 -1 -1.8369701987210307e-016 0 7.2321661366969701e-017 -0.39370078740157477 2.0099334137770448e-110 forward_v I I I I #
coedge $-1 -1 $-1 $79 $80 $81 $82 forward $33 $-1 #
coedge $-1 -1 $-1 $83 $35 $37 $61 forward $21 $-1 #
coedge $-1 -1 $-1 $35 $83 $79 $84 reversed $21 $-1 #
coedge $-1 -1 $-1 $81 $38 $35 $57 reversed $63 $-1 #
edge $-1 -1 $-1 $85 0 $64 26.051456534328402 $35 $86 forward @7 unknown #
coedge $-1 -1 $-1 $37 $36 $87 $88 reversed $13 $-1 #
coedge $-1 -1 $-1 $89 $90 $36 $60 reversed $91 $-1 #
edge $-1 -1 $-1 $65 0 $92 1.27 $36 $93 forward @7 tangent #
edge $-1 -1 $-1 $64 0 $94 1.27 $54 $95 forward @7 tangent #
coedge $-1 -1 $-1 $38 $96 $89 $97 reversed $63 $-1 #
loop $-1 -1 $-1 $-1 $62 $72 #
vertex $-1 -1 $-1 $57 $98 #
vertex $-1 -1 $-1 $39 $99 #
ellipse-curve $-1 -1 $-1 6.7218110236220721 -0.82677165354330595 1.8680976518113098e-093 -2.7791582435840017e-094 0 1 -0.49212598425196835 8.7419135797256275e-016 -1.3676959860157486e-094 1 F -2.5243548967072383e-030 F 3.1415926535897931 #
loop $-1 -1 $-1 $63 $40 $72 #
vertex $-1 -1 $-1 $41 $100 #
ellipse-curve $-1 -1 $-1 3.7690551181102609 -0.82677165354329984 7.382064870397762e-094 -2.7791582435840022e-094 8.365047311243547e-111 1 -0.15944881889763779 0 0 1 I I #
loop $-1 -1 $-1 $-1 $101 $48 #
point $-1 -1 $-1 3.9285039370078985 -0.82677165354329984 0.49999999999999994 #
face $-1 -1 $-1 $-1 $45 $2 $-1 $102 reversed single #
point $-1 -1 $-1 6.88125984251971 -0.82677165354330595 1.9124110017582199e-093 #
plane-surface $-1 -1 $-1 2.6562232961869245 -3.4564926004962975 0.49999999999999994 -2.7791582435840022e-094 8.365047311243547e-111 1 0.39370078740157477 0 1.0941567888125992e-094 forward_v I I I I #
face $-1 -1 $-1 $48 $91 $2 $-1 $103 forward single #
loop $-1 -1 $-1 $-1 $104 $50 #
plane-surface $-1 -1 $-1 7.2139370078740415 0.49999999999999994 2.0048672504128853e-093 0 1 0 -0.39370078740157477 -0 -1.0941567888125989e-094 forward_v I I I I #
coedge $-1 -1 $-1 $105 $106 $107 $108 forward $51 $-1 #
coedge $-1 -1 $-1 $109 $53 $55 $84 forward $33 $-1 #
coedge $-1 -1 $-1 $53 $109 $105 $110 reversed $33 $-1 #
coedge $-1 -1 $-1 $107 $56 $53 $82 reversed $63 $-1 #
edge $-1 -1 $-1 $111 0 $85 2.5 $53 $112 forward @7 unknown #
coedge $-1 -1 $-1 $55 $54 $113 $114 reversed $21 $-1 #
edge $-1 -1 $-1 $85 0 $115 1.27 $79 $116 forward @7 unknown #
vertex $-1 -1 $-1 $82 $117 #
straight-curve $-1 -1 $-1 0.9842519685039387 -9.3425196850393686 2.7353919720315025e-094 0.23538199232812085 0.31558774958522146 6.541638043699233e-095 F 0 F 26.051456534328402 #
coedge $-1 -1 $-1 $101 $113 $58 $88 forward $70 $-1 #
edge $-1 -1 $-1 $94 2.5007510698888145 $92 3.1415926535897927 $58 $118 forward @7 unknown #
coedge $-1 -1 $-1 $119 $59 $62 $97 forward $91 $-1 #
coedge $-1 -1 $-1 $59 $119 $101 $120 reversed $91 $-1 #
loop $-1 -1 $-1 $-1 $89 $75 #
vertex $-1 -1 $-1 $60 $121 #
straight-curve $-1 -1 $-1 7.2139370078740397 -0.82677165354330706 2.0048672504128844e-093 0 0 0.39370078740157477 I I #
vertex $-1 -1 $-1 $61 $122 #
straight-curve $-1 -1 $-1 7.1162957106035991 -1.1209991439534577 1.9777311887905462e-093 0 0 0.39370078740157477 I I #
coedge $-1 -1 $-1 $62 $107 $104 $123 reversed $63 $-1 #
edge $-1 -1 $-1 $65 -1.1000000000000019 $124 2.2699999999999982 $89 $125 forward @7 unknown #
point $-1 -1 $-1 7.1162957106035991 -1.1209991439534577 1.9777311887905462e-093 #
point $-1 -1 $-1 7.2139370078740397 -0.82677165354330706 2.0048672504128844e-093 #
point $-1 -1 $-1 3.9285039370078985 -0.82677165354329984 1.0917934101487705e-093 #
coedge $-1 -1 $-1 $126 $87 $90 $120 forward $70 $-1 #
plane-surface $-1 -1 $-1 2.6562232961869245 -3.4564926004962975 7.382064870397762e-094 -2.7791582435840022e-094 8.365047311243547e-111 1 0.39370078740157477 0 1.0941567888125992e-094 forward_v I I I I #
plane-surface $-1 -1 $-1 7.2139370078740415 -0.39370078740157405 2.0048672504128848e-093 1 -1.2253745946070014e-235 0 4.8243094275866192e-236 0.39370078740157477 -1.735888713326806e-142 forward_v I I I I #
coedge $-1 -1 $-1 $127 $128 $96 $123 forward $76 $-1 #
coedge $-1 -1 $-1 $129 $78 $80 $110 forward $51 $-1 #
coedge $-1 -1 $-1 $78 $129 $127 $130 reversed $51 $-1 #
coedge $-1 -1 $-1 $96 $81 $78 $108 reversed $63 $-1 #
edge $-1 -1 $-1 $131 0 $111 25 $78 $132 forward @7 unknown #
coedge $-1 -1 $-1 $80 $79 $133 $134 reversed $33 $-1 #
edge $-1 -1 $-1 $111 0 $135 1.27 $105 $136 forward @7 unknown #
vertex $-1 -1 $-1 $108 $137 #
straight-curve $-1 -1 $-1 1.8080415341742427e-015 -9.3425196850393686 5.0248335344426112e-109 0.39370078740157477 0 1.0941567888125989e-094 F 0 F 2.5 #
coedge $-1 -1 $-1 $87 $133 $83 $114 forward $70 $-1 #
edge $-1 -1 $-1 $115 0 $94 26.051456534328402 $83 $138 forward @7 unknown #
vertex $-1 -1 $-1 $84 $139 #
straight-curve $-1 -1 $-1 0.9842519685039387 -9.3425196850393686 2.7353919720315025e-094 0 0 0.39370078740157477 I I #
point $-1 -1 $-1 0.9842519685039387 -9.3425196850393686 2.7353919720315025e-094 #
ellipse-curve $-1 -1 $-1 6.7218110236220721 -0.82677165354330595 0.49999999999999994 -2.7791582435840017e-094 0 1 -0.49212598425196835 8.7419135797256275e-016 -1.3676959860157486e-094 1 I I #
coedge $-1 -1 $-1 $90 $89 $128 $140 forward $91 $-1 #
edge $-1 -1 $-1 $92 0 $141 3.3700000000000001 $90 $142 forward @7 unknown #
point $-1 -1 $-1 7.2139370078740397 -0.82677165354330706 0.49999999999999994 #
point $-1 -1 $-1 7.1162957106035991 -1.1209991439534577 0.49999999999999994 #
edge $-1 -1 $-1 $124 25.426599999999933 $131 43.75 $104 $143 forward @7 unknown #
vertex $-1 -1 $-1 $97 $144 #
straight-curve $-1 -1 $-1 7.2139370078740415 -0.39370078740157405 2.0048672504128848e-093 4.8243094275866192e-236 0.39370078740157477 -1.735888713326806e-142 F -1.1000000000000019 F 2.2699999999999982 #
coedge $-1 -1 $-1 $145 $101 $146 $147 forward $70 $-1 #
coedge $-1 -1 $-1 $146 $104 $106 $130 forward $76 $-1 #
coedge $-1 -1 $-1 $104 $146 $119 $140 reversed $76 $-1 #
coedge $-1 -1 $-1 $106 $105 $145 $148 reversed $51 $-1 #
edge $-1 -1 $-1 $131 0 $149 1.27 $127 $150 forward @7 unknown #
vertex $-1 -1 $-1 $123 $151 #
straight-curve $-1 -1 $-1 6.1268729730350053e-236 0.49999999999999994 -2.2045786659250435e-142 7.2321661366969701e-017 -0.39370078740157477 2.0099334137770448e-110 F 0 F 25 #
coedge $-1 -1 $-1 $113 $145 $109 $134 forward $70 $-1 #
edge $-1 -1 $-1 $135 0 $115 2.5 $109 $152 forward @7 unknown #
vertex $-1 -1 $-1 $110 $153 #
straight-curve $-1 -1 $-1 1.8080415341742427e-015 -9.3425196850393686 5.0248335344426112e-109 0 0 0.39370078740157477 I I #
point $-1 -1 $-1 1.8080415341742427e-015 -9.3425196850393686 5.0248335344426112e-109 #
straight-curve $-1 -1 $-1 0.9842519685039387 -9.3425196850393686 0.49999999999999994 0.23538199232812085 0.31558774958522146 6.541638043699233e-095 I I #
point $-1 -1 $-1 0.98425196850393837 -9.3425196850393704 0.49999999999999994 #
edge $-1 -1 $-1 $124 0 $141 1.27 $119 $154 forward @7 unknown #
vertex $-1 -1 $-1 $140 $155 #
straight-curve $-1 -1 $-1 7.2139370078740397 -0.82677165354330706 0.49999999999999994 1.2715510661419092e-015 0.39370078740157477 3.5338416276063132e-109 I I #
straight-curve $-1 -1 $-1 17.224409448818896 0.49999999999999994 4.7869359510551212e-093 -0.39370078740157477 -0 -1.0941567888125989e-094 F -0 F 43.75 #
point $-1 -1 $-1 7.2139370078740415 0.49999999999999994 2.0048672504128848e-093 #
coedge $-1 -1 $-1 $133 $126 $129 $148 forward $70 $-1 #
coedge $-1 -1 $-1 $128 $127 $126 $147 reversed $76 $-1 #
edge $-1 -1 $-1 $141 25.426599999999933 $149 43.75 $146 $156 forward @7 unknown #
edge $-1 -1 $-1 $149 0 $135 25 $129 $157 forward @7 unknown #
vertex $-1 -1 $-1 $130 $158 #
straight-curve $-1 -1 $-1 6.1268729730350053e-236 0.49999999999999994 -2.2045786659250435e-142 0 0 0.39370078740157477 I I #
point $-1 -1 $-1 6.1268729730350053e-236 0.49999999999999994 -2.2045786659250435e-142 #
straight-curve $-1 -1 $-1 1.8080415341742427e-015 -9.3425196850393686 0.49999999999999994 0.39370078740157477 0 1.0941567888125989e-094 I I #
point $-1 -1 $-1 1.3987061727561026e-015 -9.3425196850393704 0.49999999999999994 #
straight-curve $-1 -1 $-1 7.2139370078740415 0.49999999999999994 2.0048672504128848e-093 0 0 0.39370078740157477 I I #
point $-1 -1 $-1 7.2139370078740415 0.49999999999999994 0.49999999999999994 #
straight-curve $-1 -1 $-1 17.224409448818896 0.49999999999999994 0.49999999999999994 -0.39370078740157477 -0 -1.0941567888125989e-094 I I #
straight-curve $-1 -1 $-1 6.1268729730350053e-236 0.49999999999999994 0.49999999999999994 7.2321661366969701e-017 -0.39370078740157477 2.0099334137770448e-110 I I #
point $-1 -1 $-1 0 0.49999999999999994 0.49999999999999994 #
End-of-ACIS-data 