700 0 1 0           
33 Autodesk Inventor 17.0.13800.0000 19 ASM 218.0.0.5119 NT 24 Fri Oct 18 14:29:14 2013 
1 9.9999999999999995e-007 1e-010 
body $-1 -1 $-1 $1 $-1 $-1 #
lump $-1 -1 $-1 $-1 $2 $0 #
shell $-1 -1 $-1 $-1 $-1 $3 $-1 $1 #
face $-1 -1 $-1 $4 $5 $2 $-1 $6 forward single #
face $-1 -1 $-1 $7 $8 $2 $-1 $9 forward single #
loop $-1 -1 $-1 $10 $11 $3 #
plane-surface $-1 -1 $-1 -12.133333333333333 0 7.0000000000000018 0 0 1 10 0 0 forward_v I I I I #
face $-1 -1 $-1 $12 $13 $2 $-1 $14 forward single #
loop $-1 -1 $-1 $15 $16 $4 #
cone-surface $-1 -1 $-1 0 0 5.8333333333333348 -0 -0 -1 -13.166666666666668 0 0 1 I I 0 1 13.166666666666668 forward I I I I #
loop $-1 -1 $-1 $-1 $17 $3 #
coedge $-1 -1 $-1 $11 $11 $18 $19 reversed $5 $-1 #
face $-1 -1 $-1 $20 $21 $2 $-1 $22 forward single #
loop $-1 -1 $-1 $23 $24 $7 #
cone-surface $-1 -1 $-1 0 0 4.0833333333333366 -0 -0 -1 -12.583333333333336 0 0 1 I I -0.70710678118654891 0.70710678118654624 12.583333333333336 forward I I I I #
loop $-1 -1 $-1 $-1 $18 $4 #
coedge $-1 -1 $-1 $16 $16 $25 $26 reversed $8 $-1 #
coedge $-1 -1 $-1 $17 $17 $27 $28 forward $10 $-1 #
coedge $-1 -1 $-1 $18 $18 $11 $19 forward $15 $-1 #
edge $-1 -1 $-1 $29 0 $29 6.2831853071795862 $18 $30 forward @7 unknown #
face $-1 -1 $-1 $31 $32 $2 $-1 $33 forward single #
loop $-1 -1 $-1 $34 $35 $12 #
cone-surface $-1 -1 $-1 0 0 2.9166666666666696 -0 -0 -1 -12.583333333333336 0 0 1 I I 0.70710678118654613 0.70710678118654902 12.583333333333336 forward I I I I #
loop $-1 -1 $-1 $-1 $25 $7 #
coedge $-1 -1 $-1 $24 $24 $36 $37 reversed $13 $-1 #
coedge $-1 -1 $-1 $25 $25 $16 $26 forward $23 $-1 #
edge $-1 -1 $-1 $38 0 $38 6.2831853071795862 $25 $39 forward @7 unknown #
coedge $-1 -1 $-1 $27 $27 $17 $28 reversed $40 $-1 #
edge $-1 -1 $-1 $41 0 $41 6.2831853071795862 $17 $42 forward @7 unknown #
vertex $-1 -1 $-1 $19 $43 #
ellipse-curve $-1 -1 $-1 0 0 7.0000000000000018 -0 -0 -1 -13.166666666666668 0 0 1 I I #
face $-1 -1 $-1 $44 $45 $2 $-1 $46 forward single #
loop $-1 -1 $-1 $47 $48 $20 #
cone-surface $-1 -1 $-1 0 0 1.1666666666666667 -0 -0 -1 -13.166666666666668 0 0 1 I I 0 1 13.166666666666668 forward I I I I #
loop $-1 -1 $-1 $-1 $36 $12 #
coedge $-1 -1 $-1 $35 $35 $49 $50 reversed $21 $-1 #
coedge $-1 -1 $-1 $36 $36 $24 $37 forward $34 $-1 #
edge $-1 -1 $-1 $51 0 $51 6.2831853071795862 $36 $52 forward @7 unknown #
vertex $-1 -1 $-1 $26 $53 #
ellipse-curve $-1 -1 $-1 0 0 4.6666666666666679 -0 -0 -1 -13.166666666666668 0 0 1 I I #
loop $-1 -1 $-1 $54 $27 $44 #
vertex $-1 -1 $-1 $28 $55 #
ellipse-curve $-1 -1 $-1 0 0 7.0000000000000027 -0 -0 -1 -11.100000000000001 0 0 1 I I #
point $-1 -1 $-1 -13.166666666666668 0 7.0000000000000018 #
face $-1 -1 $-1 $-1 $40 $2 $-1 $56 forward single #
loop $-1 -1 $-1 $57 $58 $31 #
plane-surface $-1 -1 $-1 -12.133333333333333 0 1.3877787807814457e-015 -0 -0 -1 -10 0 0 forward_v I I I I #
loop $-1 -1 $-1 $-1 $49 $20 #
coedge $-1 -1 $-1 $48 $48 $59 $60 reversed $32 $-1 #
coedge $-1 -1 $-1 $49 $49 $35 $50 forward $47 $-1 #
edge $-1 -1 $-1 $61 0 $61 6.2831853071795862 $49 $62 forward @7 unknown #
vertex $-1 -1 $-1 $37 $63 #
ellipse-curve $-1 -1 $-1 0 0 3.5000000000000053 -0 -0 -1 -12.000000000000002 0 0 1 I I #
point $-1 -1 $-1 -13.166666666666668 0 4.6666666666666679 #
loop $-1 -1 $-1 $-1 $64 $44 #
point $-1 -1 $-1 -11.100000000000001 0 7.0000000000000027 #
cone-surface $-1 -1 $-1 0 0 3.5000000000000031 -0 -0 -1 -11.100000000000001 0 0 1 I I 0 -1 11.100000000000001 forward I I I I #
loop $-1 -1 $-1 $-1 $59 $31 #
coedge $-1 -1 $-1 $58 $58 $64 $65 reversed $45 $-1 #
coedge $-1 -1 $-1 $59 $59 $48 $60 forward $57 $-1 #
edge $-1 -1 $-1 $66 0 $66 6.2831853071795862 $59 $67 forward @7 unknown #
vertex $-1 -1 $-1 $50 $68 #
ellipse-curve $-1 -1 $-1 0 0 2.3333333333333335 -0 -0 -1 -13.166666666666668 0 0 1 I I #
point $-1 -1 $-1 -12.000000000000002 0 3.5000000000000053 #
coedge $-1 -1 $-1 $64 $64 $58 $65 forward $54 $-1 #
edge $-1 -1 $-1 $69 0 $69 6.2831853071795862 $64 $70 forward @7 unknown #
vertex $-1 -1 $-1 $60 $71 #
ellipse-curve $-1 -1 $-1 0 0 0 -0 -0 -1 -13.166666666666668 0 0 1 I I #
point $-1 -1 $-1 -13.166666666666668 0 2.3333333333333335 #
vertex $-1 -1 $-1 $65 $72 #
ellipse-curve $-1 -1 $-1 0 0 2.7755575615628914e-015 -0 -0 -1 -11.100000000000001 0 0 1 I I #
point $-1 -1 $-1 -13.166666666666668 0 0 #
point $-1 -1 $-1 -11.100000000000001 0 2.7755575615628914e-015 #
End-of-ACIS-data 