700 0 1 0           
33 Autodesk Inventor 17.0.13800.0000 19 ASM 218.0.0.5119 NT 24 Fri Oct 18 14:29:16 2013 
1 9.9999999999999995e-007 1e-010 
body $-1 -1 $-1 $1 $-1 $-1 #
lump $-1 -1 $-1 $-1 $2 $0 #
shell $-1 -1 $-1 $-1 $-1 $3 $-1 $1 #
face $-1 -1 $-1 $4 $5 $2 $-1 $6 reversed single #
face $-1 -1 $-1 $7 $8 $2 $-1 $9 reversed single #
loop $-1 -1 $-1 $-1 $10 $3 #
plane-surface $-1 -1 $-1 20.883419246269046 -6.4999999999999938 9.6999999999999957 -0.86602540378443771 0 -0.50000000000000178 -5.0000000000000178 -6.6613381477509639e-016 8.6602540378443766 forward_v I I I I #
face $-1 -1 $-1 $11 $12 $2 $-1 $13 reversed single #
loop $-1 -1 $-1 $-1 $14 $4 #
plane-surface $-1 -1 $-1 24.11658075373095 -6.4999999999999938 9.6999999999999975 9.4053765076559436e-016 0 -1 -10 -1.332267629550188e-015 -9.4053765076559429e-015 forward_v I I I I #
coedge $-1 -1 $-1 $15 $16 $17 $18 reversed $5 $-1 #
face $-1 -1 $-1 $19 $20 $2 $-1 $21 reversed single #
loop $-1 -1 $-1 $-1 $22 $7 #
plane-surface $-1 -1 $-1 25.733161507461901 -6.4999999999999929 12.5 0.86602540378443937 0 -0.49999999999999883 -4.9999999999999885 -6.6613381477509254e-016 -8.6602540378443944 forward_v I I I I #
coedge $-1 -1 $-1 $23 $24 $25 $26 reversed $8 $-1 #
coedge $-1 -1 $-1 $27 $10 $24 $28 forward $5 $-1 #
coedge $-1 -1 $-1 $10 $27 $29 $30 reversed $5 $-1 #
coedge $-1 -1 $-1 $31 $25 $10 $18 forward $32 $-1 #
edge $-1 -1 $-1 $33 -0.72706316032127805 $34 -0.40374700957508725 $17 $35 forward @7 unknown #
face $-1 -1 $-1 $36 $37 $2 $-1 $38 reversed single #
loop $-1 -1 $-1 $-1 $39 $11 #
plane-surface $-1 -1 $-1 24.11658075373095 -6.4999999999999938 15.299999999999997 0.86602540378443871 0 0.49999999999999994 4.9999999999999991 6.6613381477509392e-016 -8.6602540378443873 forward_v I I I I #
coedge $-1 -1 $-1 $40 $41 $42 $43 reversed $12 $-1 #
coedge $-1 -1 $-1 $44 $14 $41 $45 forward $8 $-1 #
coedge $-1 -1 $-1 $14 $44 $15 $28 reversed $8 $-1 #
coedge $-1 -1 $-1 $17 $42 $14 $26 forward $32 $-1 #
edge $-1 -1 $-1 $46 -2.4558290376865481 $33 -2.1325128869403578 $25 $47 forward @7 unknown #
coedge $-1 -1 $-1 $16 $15 $48 $49 forward $5 $-1 #
edge $-1 -1 $-1 $33 0 $50 0.30000000000000004 $24 $51 forward @7 unknown #
coedge $-1 -1 $-1 $52 $53 $16 $30 forward $54 $-1 #
edge $-1 -1 $-1 $34 0 $55 0.30000000000000004 $29 $56 forward @7 unknown #
coedge $-1 -1 $-1 $57 $17 $53 $58 forward $32 $-1 #
loop $-1 -1 $-1 $59 $17 $60 #
vertex $-1 -1 $-1 $18 $61 #
vertex $-1 -1 $-1 $18 $62 #
straight-curve $-1 -1 $-1 17.248103444662647 -6.4999999999999947 15.996551669940239 -5.0000000000000178 -6.6613381477509639e-016 8.6602540378443766 I I #
face $-1 -1 $-1 $63 $54 $2 $-1 $64 reversed single #
loop $-1 -1 $-1 $-1 $65 $19 #
plane-surface $-1 -1 $-1 20.883419246269042 -6.4999999999999938 15.299999999999997 -2.5376526277146439e-016 0 1 10 1.332267629550188e-015 2.537652627714644e-015 forward_v I I I I #
coedge $-1 -1 $-1 $66 $67 $68 $69 reversed $20 $-1 #
coedge $-1 -1 $-1 $70 $22 $67 $71 forward $12 $-1 #
coedge $-1 -1 $-1 $22 $70 $23 $45 reversed $12 $-1 #
coedge $-1 -1 $-1 $25 $68 $22 $43 forward $32 $-1 #
edge $-1 -1 $-1 $72 -1.8095949150518191 $46 -1.4862787643056286 $42 $73 forward @7 unknown #
coedge $-1 -1 $-1 $24 $23 $74 $75 forward $8 $-1 #
edge $-1 -1 $-1 $46 0 $76 0.30000000000000004 $41 $77 forward @7 unknown #
vertex $-1 -1 $-1 $26 $78 #
straight-curve $-1 -1 $-1 -0.44170962313452977 -6.4999999999999964 9.6999999999999744 -10 -1.332267629550188e-015 -9.4053765076559429e-015 I I #
coedge $-1 -1 $-1 $74 $79 $27 $49 reversed $80 $-1 #
edge $-1 -1 $-1 $50 0 $55 0.3233161507461908 $27 $81 forward @7 unknown #
vertex $-1 -1 $-1 $28 $82 #
straight-curve $-1 -1 $-1 20.883419246269046 -6.4999999999999938 9.6999999999999957 0 10 0 I I #
coedge $-1 -1 $-1 $83 $29 $79 $84 forward $54 $-1 #
coedge $-1 -1 $-1 $29 $83 $31 $58 reversed $54 $-1 #
loop $-1 -1 $-1 $-1 $53 $36 #
vertex $-1 -1 $-1 $30 $85 #
straight-curve $-1 -1 $-1 19.266838492538088 -6.4999999999999938 12.499999999999996 0 10 0 I I #
coedge $-1 -1 $-1 $68 $31 $65 $86 forward $32 $-1 #
edge $-1 -1 $-1 $34 1.6479368396787262 $87 1.9712529904249168 $31 $88 forward @7 unknown #
loop $-1 -1 $-1 $-1 $89 $60 #
face $-1 -1 $-1 $90 $32 $2 $-1 $91 forward single #
point $-1 -1 $-1 20.883419246269046 -6.4999999999999938 9.6999999999999957 #
point $-1 -1 $-1 19.266838492538088 -6.4999999999999938 12.499999999999996 #
face $-1 -1 $-1 $92 $93 $2 $-1 $94 forward single #
plane-surface $-1 -1 $-1 19.266838492538088 -6.4999999999999938 12.499999999999996 -0.86602540378443882 0 0.49999999999999983 4.9999999999999982 6.6613381477509392e-016 8.6602540378443891 forward_v I I I I #
coedge $-1 -1 $-1 $95 $96 $57 $86 reversed $37 $-1 #
coedge $-1 -1 $-1 $97 $39 $96 $98 forward $20 $-1 #
coedge $-1 -1 $-1 $39 $97 $40 $71 reversed $20 $-1 #
coedge $-1 -1 $-1 $42 $57 $39 $69 forward $32 $-1 #
edge $-1 -1 $-1 $99 0.56540508494817798 $72 0.88872123569436812 $68 $100 forward @7 unknown #
coedge $-1 -1 $-1 $41 $40 $101 $102 forward $12 $-1 #
edge $-1 -1 $-1 $72 0 $103 0.30000000000000004 $67 $104 forward @7 unknown #
vertex $-1 -1 $-1 $43 $105 #
straight-curve $-1 -1 $-1 16.685186932202829 -6.4999999999999947 -3.1715516699401993 -4.9999999999999885 -6.6613381477509245e-016 -8.6602540378443944 I I #
coedge $-1 -1 $-1 $101 $48 $44 $75 reversed $80 $-1 #
edge $-1 -1 $-1 $76 -0 $50 0.32331615074619036 $44 $106 forward @7 unknown #
vertex $-1 -1 $-1 $45 $107 #
straight-curve $-1 -1 $-1 24.11658075373095 -6.4999999999999938 9.6999999999999975 0 10 0 I I #
point $-1 -1 $-1 24.11658075373095 -6.4999999999999938 9.6999999999999975 #
coedge $-1 -1 $-1 $48 $108 $52 $84 reversed $80 $-1 #
loop $-1 -1 $-1 $-1 $79 $63 #
straight-curve $-1 -1 $-1 20.883419246269046 -3.4999999999999929 9.6999999999999957 -5.0000000000000178 -6.6613381477509639e-016 8.6602540378443766 I I #
point $-1 -1 $-1 20.883419246269046 -3.4999999999999929 9.6999999999999957 #
coedge $-1 -1 $-1 $53 $52 $95 $109 reversed $54 $-1 #
edge $-1 -1 $-1 $55 0 $110 0.32331615074619074 $52 $111 forward @7 unknown #
point $-1 -1 $-1 19.266838492538088 -3.4999999999999929 12.499999999999996 #
edge $-1 -1 $-1 $87 2.2941709623134523 $99 2.6174871130596431 $57 $112 forward @7 unknown #
vertex $-1 -1 $-1 $86 $113 #
straight-curve $-1 -1 $-1 11.027154294144466 -6.4999999999999956 -1.7715516699402112 4.9999999999999982 6.6613381477509373e-016 8.6602540378443891 I I #
coedge $-1 -1 $-1 $114 $115 $116 $117 reversed $59 $-1 #
face $-1 -1 $-1 $118 $119 $2 $-1 $120 forward single #
plane-surface $-1 -1 $-1 -25 -6.5 0 1.332267629550188e-016 -1 0 10 1.332267629550188e-015 0 forward_v I I I I #
face $-1 -1 $-1 $121 $122 $2 $-1 $123 reversed single #
loop $-1 -1 $-1 $80 $124 $63 #
plane-surface $-1 -1 $-1 22.499999999999986 -3.499999999999992 12.499999999999996 7.4014868308343778e-017 -1 -2.4651903288156619e-032 0 2.4651903288156619e-031 -10 forward_v I I I I #
coedge $-1 -1 $-1 $125 $65 $83 $109 forward $37 $-1 #
coedge $-1 -1 $-1 $65 $125 $66 $98 reversed $37 $-1 #
coedge $-1 -1 $-1 $67 $66 $126 $127 forward $20 $-1 #
edge $-1 -1 $-1 $99 0 $128 0.30000000000000004 $96 $129 forward @7 unknown #
vertex $-1 -1 $-1 $69 $130 #
straight-curve $-1 -1 $-1 21.289555328990062 -6.4999999999999938 20.196551669940206 4.9999999999999991 6.6613381477509392e-016 -8.6602540378443873 I I #
coedge $-1 -1 $-1 $126 $74 $70 $102 reversed $80 $-1 #
edge $-1 -1 $-1 $103 -0 $76 0.32331615074619052 $70 $131 forward @7 unknown #
vertex $-1 -1 $-1 $71 $132 #
straight-curve $-1 -1 $-1 25.733161507461901 -6.4999999999999929 12.5 0 10 0 I I #
point $-1 -1 $-1 25.733161507461901 -6.4999999999999929 12.5 #
straight-curve $-1 -1 $-1 24.11658075373095 -3.4999999999999929 9.6999999999999975 -10 -1.332267629550188e-015 -9.4053765076559429e-015 I I #
point $-1 -1 $-1 24.11658075373095 -3.4999999999999929 9.6999999999999975 #
coedge $-1 -1 $-1 $79 $126 $125 $133 reversed $80 $-1 #
edge $-1 -1 $-1 $87 0 $110 0.30000000000000004 $83 $134 forward @7 unknown #
vertex $-1 -1 $-1 $109 $135 #
straight-curve $-1 -1 $-1 19.266838492538088 -3.4999999999999929 12.499999999999996 4.9999999999999982 6.6613381477509392e-016 8.6602540378443891 I I #
straight-curve $-1 -1 $-1 -2.058290376865481 -6.4999999999999964 15.299999999999994 10 1.332267629550188e-015 2.537652627714644e-015 I I #
point $-1 -1 $-1 20.883419246269042 -6.4999999999999938 15.299999999999997 #
coedge $-1 -1 $-1 $136 $89 $137 $138 reversed $59 $-1 #
coedge $-1 -1 $-1 $89 $139 $140 $141 forward $59 $-1 #
coedge $-1 -1 $-1 $142 $143 $89 $117 forward $144 $-1 #
edge $-1 -1 $-1 $145 -0.78539816339744817 $146 0.78539816339744839 $89 $147 forward @7 unknown #
face $-1 -1 $-1 $148 $149 $2 $-1 $150 forward single #
loop $-1 -1 $-1 $-1 $151 $90 #
cone-surface $-1 -1 $-1 22.499999999999996 -3.2499999999999964 12.5 0 1 0 8.8388347648318444 0 -8.8388347648318426 1 I I 0 1 12.5 forward I I I I #
face $-1 -1 $-1 $152 $153 $2 $-1 $154 reversed single #
loop $-1 -1 $-1 $155 $156 $92 #
cone-surface $-1 -1 $-1 22.500000000000004 6.4999999999999938 12.499999999999996 0 -1 0 -3.25 0 -8.2473710400725917e-016 1 I I 0 1 3.25 forward I I I I #
coedge $-1 -1 $-1 $124 $124 $157 $158 reversed $93 $-1 #
coedge $-1 -1 $-1 $96 $95 $108 $133 forward $37 $-1 #
coedge $-1 -1 $-1 $108 $101 $97 $127 reversed $80 $-1 #
edge $-1 -1 $-1 $128 0 $103 0.32331615074619013 $97 $159 forward @7 unknown #
vertex $-1 -1 $-1 $98 $160 #
straight-curve $-1 -1 $-1 24.11658075373095 -6.4999999999999938 15.299999999999997 0 10 0 I I #
point $-1 -1 $-1 24.11658075373095 -6.4999999999999938 15.299999999999997 #
straight-curve $-1 -1 $-1 25.733161507461901 -3.499999999999992 12.5 -4.9999999999999885 -6.6613381477509254e-016 -8.6602540378443944 I I #
point $-1 -1 $-1 25.733161507461901 -3.499999999999992 12.5 #
edge $-1 -1 $-1 $110 0 $128 0.3233161507461908 $125 $161 forward @7 unknown #
straight-curve $-1 -1 $-1 20.883419246269042 -6.4999999999999938 15.299999999999997 0 10 0 I I #
point $-1 -1 $-1 20.883419246269042 -3.4999999999999929 15.299999999999997 #
coedge $-1 -1 $-1 $139 $114 $162 $163 reversed $59 $-1 #
coedge $-1 -1 $-1 $164 $165 $114 $138 forward $166 $-1 #
edge $-1 -1 $-1 $167 0 $145 1.2499999999999993 $137 $168 forward @7 unknown #
coedge $-1 -1 $-1 $115 $136 $169 $170 reversed $59 $-1 #
coedge $-1 -1 $-1 $171 $172 $115 $141 reversed $173 $-1 #
edge $-1 -1 $-1 $174 1.2499999999999996 $146 4.7499999999999991 $140 $175 forward @7 unknown #
coedge $-1 -1 $-1 $176 $116 $172 $177 forward $144 $-1 #
coedge $-1 -1 $-1 $116 $176 $164 $178 forward $144 $-1 #
loop $-1 -1 $-1 $-1 $176 $179 #
vertex $-1 -1 $-1 $117 $180 #
vertex $-1 -1 $-1 $117 $181 #
ellipse-curve $-1 -1 $-1 -12.5 -6.5 12.499999999999993 -1.332267629550188e-016 1 0 -8.8388347648318444 0 8.8388347648318426 1 I I #
face $-1 -1 $-1 $182 $183 $2 $-1 $184 forward single #
loop $-1 -1 $-1 $185 $186 $118 #
plane-surface $-1 -1 $-1 -12.500000000000002 0 5 0 0 1 10 0 0 forward_v I I I I #
coedge $-1 -1 $-1 $187 $188 $189 $190 forward $119 $-1 #
face $-1 -1 $-1 $191 $192 $2 $-1 $193 reversed single #
loop $-1 -1 $-1 $194 $195 $121 #
plane-surface $-1 -1 $-1 22.500000000000004 3.4999999999999929 12.499999999999998 -1.332267629550188e-016 -1 -0 0 0 -10 forward_v I I I I #
loop $-1 -1 $-1 $-1 $196 $92 #
coedge $-1 -1 $-1 $156 $156 $197 $198 forward $122 $-1 #
coedge $-1 -1 $-1 $157 $157 $124 $158 forward $192 $-1 #
edge $-1 -1 $-1 $199 -3.1415926535897944 $199 3.1415926535897918 $157 $200 forward @7 unknown #
straight-curve $-1 -1 $-1 24.11658075373095 -3.4999999999999929 15.299999999999997 4.9999999999999991 6.6613381477509392e-016 -8.6602540378443873 I I #
point $-1 -1 $-1 24.11658075373095 -3.4999999999999929 15.299999999999997 #
straight-curve $-1 -1 $-1 20.883419246269042 -3.4999999999999929 15.299999999999997 10 1.332267629550188e-015 2.537652627714644e-015 I I #
coedge $-1 -1 $-1 $201 $202 $136 $163 forward $203 $-1 #
edge $-1 -1 $-1 $204 -2.2499999999999996 $167 2.5 $136 $205 forward @7 unknown #
coedge $-1 -1 $-1 $206 $137 $143 $178 reversed $166 $-1 #
coedge $-1 -1 $-1 $137 $207 $201 $208 reversed $166 $-1 #
loop $-1 -1 $-1 $-1 $209 $210 #
vertex $-1 -1 $-1 $163 $211 #
straight-curve $-1 -1 $-1 -25 -6.5 0 0 0 10 I I #
coedge $-1 -1 $-1 $188 $187 $139 $170 forward $119 $-1 #
edge $-1 -1 $-1 $174 -0.78539816339744806 $204 2.3561944901923448 $139 $212 forward @7 unknown #
coedge $-1 -1 $-1 $213 $140 $187 $214 reversed $173 $-1 #
coedge $-1 -1 $-1 $140 $213 $142 $177 reversed $173 $-1 #
loop $-1 -1 $-1 $-1 $172 $215 #
vertex $-1 -1 $-1 $141 $216 #
straight-curve $-1 -1 $-1 34.999999999999993 -6.4999999999999929 25 -10 -1.332267629550188e-015 -1.4802973661668753e-015 F -0 F 6 #
coedge $-1 -1 $-1 $143 $142 $217 $218 forward $144 $-1 #
edge $-1 -1 $-1 $146 -0.64999999999999991 $219 -0.44999999999999984 $172 $220 forward @7 tangent #
edge $-1 -1 $-1 $221 0.45000000000000001 $145 0.65000000000000002 $164 $222 forward @7 tangent #
face $-1 -1 $-1 $215 $144 $2 $-1 $223 forward single #
point $-1 -1 $-1 -25 -6.5 12.499999999999993 #
point $-1 -1 $-1 -12.5 -6.4999999999999991 24.999999999999993 #
face $-1 -1 $-1 $-1 $224 $2 $-1 $225 forward single #
loop $-1 -1 $-1 $-1 $226 $148 #
plane-surface $-1 -1 $-1 4.592425496802573e-016 -6.4999999999999964 0 1 0 0 0 10 0 forward_v I I I I #
loop $-1 -1 $-1 $227 $228 $118 #
coedge $-1 -1 $-1 $229 $230 $231 $232 forward $149 $-1 #
coedge $-1 -1 $-1 $169 $151 $171 $214 forward $119 $-1 #
coedge $-1 -1 $-1 $151 $169 $202 $233 forward $119 $-1 #
coedge $-1 -1 $-1 $234 $235 $151 $190 reversed $236 $-1 #
edge $-1 -1 $-1 $237 -2.3561944901923448 $238 0.78539816339744806 $189 $239 forward @7 unknown #
face $-1 -1 $-1 $240 $241 $2 $-1 $193 reversed single #
loop $-1 -1 $-1 $242 $157 $152 #
cone-surface $-1 -1 $-1 22.500000000000004 6.4999999999999938 12.499999999999996 -2.2773805633336542e-016 -1 0 -1.6000000000000001 3.643808901333847e-016 -4.0602442043434295e-016 1 I I 0 1 1.6000000000000001 forward I I I I #
loop $-1 -1 $-1 $-1 $197 $121 #
coedge $-1 -1 $-1 $195 $195 $243 $244 reversed $153 $-1 #
coedge $-1 -1 $-1 $196 $196 $245 $246 reversed $155 $-1 #
coedge $-1 -1 $-1 $197 $197 $156 $198 reversed $194 $-1 #
edge $-1 -1 $-1 $247 -3.1415926535897931 $247 3.1415926535897931 $156 $248 forward @7 unknown #
vertex $-1 -1 $-1 $158 $249 #
ellipse-curve $-1 -1 $-1 22.5 -3.499999999999992 12.499999999999996 7.4014868308343778e-017 -1 -2.4651903288156619e-032 -1.6000000000000001 3.643808901333847e-016 -4.0602442043434295e-016 1 I I #
coedge $-1 -1 $-1 $250 $162 $165 $208 forward $203 $-1 #
coedge $-1 -1 $-1 $162 $251 $188 $233 reversed $203 $-1 #
loop $-1 -1 $-1 $-1 $252 $253 #
vertex $-1 -1 $-1 $163 $254 #
straight-curve $-1 -1 $-1 4.592425496802573e-016 -6.4999999999999964 0 -10 -1.332267629550188e-015 0 F -3.5 F 2.5 #
coedge $-1 -1 $-1 $255 $164 $256 $257 reversed $166 $-1 #
coedge $-1 -1 $-1 $165 $209 $258 $259 reversed $166 $-1 #
edge $-1 -1 $-1 $167 0 $260 1.3 $165 $261 forward @7 unknown #
coedge $-1 -1 $-1 $207 $262 $263 $264 reversed $166 $-1 #
face $-1 -1 $-1 $265 $166 $2 $-1 $266 forward single #
point $-1 -1 $-1 -25 -6.5 0 #
ellipse-curve $-1 -1 $-1 22.499999999999996 -6.5 12.5 -1.332267629550188e-016 1 0 8.8388347648318426 0 8.8388347648318462 1 I I #
coedge $-1 -1 $-1 $172 $171 $235 $267 reversed $173 $-1 #
edge $-1 -1 $-1 $238 -0.20000000000000029 $174 -3.3306690738754696e-016 $171 $268 forward @7 tangent #
face $-1 -1 $-1 $60 $173 $2 $-1 $269 forward single #
point $-1 -1 $-1 22.499999999999996 -6.4999999999999938 25 #
coedge $-1 -1 $-1 $235 $256 $176 $218 reversed $236 $-1 #
edge $-1 -1 $-1 $219 -0.78539816339744839 $221 0.78539816339744817 $217 $270 forward @7 unknown #
vertex $-1 -1 $-1 $267 $271 #
straight-curve $-1 -1 $-1 -12.500000000000002 0 24.999999999999993 0 10 0 F -4.5250010000000005 F 3.425001 #
vertex $-1 -1 $-1 $178 $272 #
straight-curve $-1 -1 $-1 -25 0 12.499999999999993 -0 -10 -0 F -3.425001 F 4.5250010000000005 #
cone-surface $-1 -1 $-1 -12.5 0 12.499999999999993 0 1 0 -8.8388347648318444 0 8.8388347648318426 1 I I 0 1 12.5 forward I I I I #
loop $-1 -1 $-1 $273 $245 $182 #
plane-surface $-1 -1 $-1 0 6.4999999999999964 0 1.332267629550188e-016 1 0 -10 1.332267629550188e-015 0 forward_v I I I I #
coedge $-1 -1 $-1 $274 $275 $276 $277 forward $183 $-1 #
loop $-1 -1 $-1 $-1 $278 $118 #
coedge $-1 -1 $-1 $279 $280 $281 $282 forward $185 $-1 #
coedge $-1 -1 $-1 $283 $186 $284 $285 forward $149 $-1 #
coedge $-1 -1 $-1 $186 $286 $287 $288 forward $149 $-1 #
coedge $-1 -1 $-1 $289 $290 $186 $232 reversed $291 $-1 #
edge $-1 -1 $-1 $292 -0.26832903768654737 $293 0.054987113059643412 $186 $294 forward @7 unknown #
edge $-1 -1 $-1 $204 -0.32499999999999973 $237 -0.12499999999999978 $202 $295 forward @7 tangent #
coedge $-1 -1 $-1 $296 $189 $251 $297 forward $236 $-1 #
coedge $-1 -1 $-1 $189 $217 $213 $267 forward $236 $-1 #
loop $-1 -1 $-1 $298 $217 $299 #
vertex $-1 -1 $-1 $297 $300 #
vertex $-1 -1 $-1 $214 $301 #
ellipse-curve $-1 -1 $-1 22.499999999999996 -4.4999999999999956 12.5 1.1102230246251565e-016 -1 0 8.8388347648318426 0 8.8388347648318462 1 I I #
face $-1 -1 $-1 $302 $291 $2 $-1 $303 reversed single #
loop $-1 -1 $-1 $304 $243 $191 #
loop $-1 -1 $-1 $-1 $305 $152 #
coedge $-1 -1 $-1 $243 $243 $195 $244 forward $241 $-1 #
edge $-1 -1 $-1 $306 -3.1415926535897918 $306 3.1415926535897944 $243 $307 forward @7 unknown #
coedge $-1 -1 $-1 $245 $245 $196 $246 forward $224 $-1 #
edge $-1 -1 $-1 $308 -3.1415926535897931 $308 3.1415926535897931 $245 $309 forward @7 unknown #
vertex $-1 -1 $-1 $198 $310 #
ellipse-curve $-1 -1 $-1 22.500000000000004 3.4999999999999929 12.499999999999996 -1.332267629550188e-016 -1 0 -3.25 4.3298697960381114e-016 -8.2473710400725917e-016 1 I I #
point $-1 -1 $-1 24.100000000000005 -3.4999999999999929 12.499999999999993 #
coedge $-1 -1 $-1 $252 $201 $311 $312 forward $203 $-1 #
coedge $-1 -1 $-1 $202 $313 $234 $297 reversed $203 $-1 #
coedge $-1 -1 $-1 $314 $250 $315 $316 reversed $203 $-1 #
face $-1 -1 $-1 $210 $317 $2 $-1 $318 reversed single #
point $-1 -1 $-1 22.499999999999996 -6.4999999999999938 0 #
coedge $-1 -1 $-1 $262 $206 $319 $320 reversed $166 $-1 #
coedge $-1 -1 $-1 $217 $321 $206 $257 forward $236 $-1 #
edge $-1 -1 $-1 $322 -1.9999999999999991 $221 -1.2499999999999998 $206 $323 forward @7 unknown #
coedge $-1 -1 $-1 $324 $311 $207 $259 forward $273 $-1 #
edge $-1 -1 $-1 $260 0 $325 1.2499999999999991 $258 $326 forward @7 unknown #
vertex $-1 -1 $-1 $312 $327 #
straight-curve $-1 -1 $-1 -25 -6.5 0 0 10 0 F 0 F 1.3 #
coedge $-1 -1 $-1 $209 $255 $328 $329 forward $166 $-1 #
coedge $-1 -1 $-1 $330 $331 $209 $264 forward $332 $-1 #
edge $-1 -1 $-1 $325 0 $333 0.20000000000000001 $209 $334 forward @7 tangent #
face $-1 -1 $-1 $335 $336 $2 $-1 $337 reversed single #
plane-surface $-1 -1 $-1 -25 6.5 0 -1 0 0 -0 -10 -0 forward_v I I I I #
edge $-1 -1 $-1 $219 -4.7499999999999991 $238 -1.2499999999999996 $213 $338 forward @7 unknown #
straight-curve $-1 -1 $-1 22.499999999999996 -6.4999999999999964 25 -0 -10 -0 F -4.0750010000000003 F 3.8750010000000001 #
plane-surface $-1 -1 $-1 -25.000000000000007 -6.5 24.999999999999993 -1.4802973661668753e-016 0 1 10 1.332267629550188e-015 1.4802973661668753e-015 forward_v I I I I #
ellipse-curve $-1 -1 $-1 -12.5 -4.4999999999999956 12.499999999999993 1.1102230246251565e-016 -1 0 -8.8388347648318444 0 8.8388347648318426 1 I I #
point $-1 -1 $-1 -12.5 -4.4999999999999982 24.999999999999993 #
point $-1 -1 $-1 -25.000000000000004 -4.5 12.499999999999993 #
loop $-1 -1 $-1 $-1 $324 $182 #
coedge $-1 -1 $-1 $339 $226 $340 $341 reversed $183 $-1 #
coedge $-1 -1 $-1 $226 $339 $313 $342 reversed $183 $-1 #
coedge $-1 -1 $-1 $343 $344 $226 $277 reversed $345 $-1 #
edge $-1 -1 $-1 $346 -0.62499999999999989 $347 -0.12499999999999989 $226 $348 forward @7 unknown #
coedge $-1 -1 $-1 $319 $340 $344 $349 forward $227 $-1 #
coedge $-1 -1 $-1 $350 $228 $351 $352 forward $185 $-1 #
coedge $-1 -1 $-1 $228 $353 $354 $355 forward $185 $-1 #
coedge $-1 -1 $-1 $356 $357 $228 $282 reversed $358 $-1 #
edge $-1 -1 $-1 $359 -0.26832903768654792 $360 0.054987113059642788 $228 $361 forward @7 unknown #
coedge $-1 -1 $-1 $362 $229 $363 $364 forward $149 $-1 #
coedge $-1 -1 $-1 $365 $366 $229 $285 reversed $367 $-1 #
edge $-1 -1 $-1 $293 0.10667096231345266 $368 0.42998711305964299 $229 $369 forward @7 unknown #
coedge $-1 -1 $-1 $230 $362 $370 $371 forward $149 $-1 #
coedge $-1 -1 $-1 $372 $373 $230 $288 reversed $374 $-1 #
edge $-1 -1 $-1 $375 -0.4558290376865477 $292 -0.13251288694035712 $230 $376 forward @7 unknown #
coedge $-1 -1 $-1 $377 $231 $373 $378 forward $291 $-1 #
coedge $-1 -1 $-1 $231 $377 $365 $379 reversed $291 $-1 #
loop $-1 -1 $-1 $-1 $231 $240 #
vertex $-1 -1 $-1 $232 $380 #
vertex $-1 -1 $-1 $232 $381 #
straight-curve $-1 -1 $-1 -17.041774057836314 0.4762023679041778 5 4.9999999999999929 -8.6602540378443909 0 I I #
straight-curve $-1 -1 $-1 22.499999999999996 -3.2499999999999964 0 0 10 0 F -4.2000010000000003 F 3.7500010000000006 #
coedge $-1 -1 $-1 $321 $234 $339 $382 reversed $236 $-1 #
edge $-1 -1 $-1 $237 -4.75 $383 -2.5 $251 $384 forward @7 unknown #
loop $-1 -1 $-1 $-1 $385 $299 #
face $-1 -1 $-1 $386 $236 $2 $-1 $387 reversed single #
point $-1 -1 $-1 22.5 -4.4999999999999938 0 #
point $-1 -1 $-1 22.499999999999996 -4.4999999999999938 25 #
face $-1 -1 $-1 $388 $374 $2 $-1 $389 reversed single #
plane-surface $-1 -1 $-1 -18.38341924626905 2.7999999999999998 5 0.86602540378443904 0.49999999999999933 0 4.9999999999999929 -8.6602540378443909 0 forward_v I I I I #
loop $-1 -1 $-1 $-1 $390 $191 #
coedge $-1 -1 $-1 $305 $305 $391 $392 reversed $242 $-1 #
vertex $-1 -1 $-1 $244 $393 #
ellipse-curve $-1 -1 $-1 22.500000000000004 3.4999999999999929 12.499999999999996 1.332267629550188e-016 1 0 -1.6000000000000001 3.643808901333847e-016 -4.0602442043434295e-016 1 I I #
vertex $-1 -1 $-1 $246 $394 #
ellipse-curve $-1 -1 $-1 22.500000000000004 6.4999999999999964 12.499999999999996 -1.332267629550188e-016 -1 0 -3.25 0 -8.2473710400725917e-016 1 I I #
point $-1 -1 $-1 25.750000000000007 3.4999999999999929 12.499999999999996 #
coedge $-1 -1 $-1 $258 $395 $250 $312 reversed $273 $-1 #
edge $-1 -1 $-1 $260 0 $396 4.75 $311 $397 forward @7 unknown #
coedge $-1 -1 $-1 $251 $314 $275 $342 forward $203 $-1 #
coedge $-1 -1 $-1 $313 $252 $343 $398 forward $203 $-1 #
coedge $-1 -1 $-1 $399 $400 $252 $316 forward $401 $-1 #
edge $-1 -1 $-1 $402 0.12499999999999978 $396 0.32499999999999973 $252 $403 forward @7 tangent #
loop $-1 -1 $-1 $404 $405 $253 #
plane-surface $-1 -1 $-1 -12.500000000000002 0 0 0 0 1 10 0 0 forward_v I I I I #
coedge $-1 -1 $-1 $406 $278 $255 $320 forward $227 $-1 #
edge $-1 -1 $-1 $407 -1.1000000000000001 $322 -0.20000000000000001 $255 $408 forward @7 unknown #
coedge $-1 -1 $-1 $256 $296 $406 $409 reversed $236 $-1 #
vertex $-1 -1 $-1 $320 $410 #
straight-curve $-1 -1 $-1 -25.000000000000007 -4.5 24.999999999999993 -3.5527136788005025e-015 -4.7331654313260733e-031 10 I I #
coedge $-1 -1 $-1 $411 $258 $331 $412 reversed $273 $-1 #
vertex $-1 -1 $-1 $264 $413 #
straight-curve $-1 -1 $-1 -25 6.5 0 0 0 10 I I #
point $-1 -1 $-1 -25 6.5 0 #
coedge $-1 -1 $-1 $344 $414 $262 $329 reversed $345 $-1 #
edge $-1 -1 $-1 $407 -1.9999999999999991 $333 -1.25 $262 $415 forward @7 unknown #
coedge $-1 -1 $-1 $416 $263 $414 $417 forward $332 $-1 #
coedge $-1 -1 $-1 $263 $416 $324 $412 forward $332 $-1 #
loop $-1 -1 $-1 $-1 $331 $418 #
vertex $-1 -1 $-1 $417 $419 #
straight-curve $-1 -1 $-1 -25 6.5 12.499999999999991 0 -10 0 F -3.8750010000000006 F 4.0750010000000003 #
face $-1 -1 $-1 $420 $421 $2 $-1 $422 reversed single #
loop $-1 -1 $-1 $-1 $423 $265 #
plane-surface $-1 -1 $-1 4.592425496802573e-016 -1.9999999999999929 10.250000000000002 0 -0.70710678118654757 0.70710678118654757 -0 -7.0710678118654755 -7.0710678118654755 forward_v I I I I #
straight-curve $-1 -1 $-1 34.999999999999993 -4.499999999999992 25 10 1.332267629550188e-015 1.4802973661668753e-015 I I #
coedge $-1 -1 $-1 $275 $274 $296 $382 forward $183 $-1 #
coedge $-1 -1 $-1 $278 $406 $274 $341 forward $227 $-1 #
edge $-1 -1 $-1 $424 -1.0999999999999992 $347 -0.20000000000000007 $274 $425 forward @7 unknown #
edge $-1 -1 $-1 $346 0.20000000000000001 $383 1.0999999999999994 $275 $426 forward @7 unknown #
coedge $-1 -1 $-1 $427 $276 $314 $398 reversed $345 $-1 #
coedge $-1 -1 $-1 $276 $328 $278 $349 reversed $345 $-1 #
loop $-1 -1 $-1 $428 $414 $429 #
vertex $-1 -1 $-1 $342 $430 #
vertex $-1 -1 $-1 $277 $431 #
straight-curve $-1 -1 $-1 5.5511151231257827e-016 4.4999999999999947 6.2499999999999991 0 0 10 I I #
edge $-1 -1 $-1 $347 -0.37500000000000039 $407 2.1249999999999996 $278 $432 forward @7 unknown #
coedge $-1 -1 $-1 $433 $279 $434 $435 forward $185 $-1 #
coedge $-1 -1 $-1 $436 $437 $279 $352 reversed $438 $-1 #
edge $-1 -1 $-1 $360 0.10667096231345238 $439 0.42998711305964299 $279 $440 forward @7 unknown #
coedge $-1 -1 $-1 $280 $433 $441 $442 forward $185 $-1 #
coedge $-1 -1 $-1 $443 $444 $280 $355 reversed $445 $-1 #
edge $-1 -1 $-1 $446 -0.4558290376865477 $359 -0.13251288694035723 $280 $447 forward @7 unknown #
coedge $-1 -1 $-1 $448 $281 $444 $449 forward $358 $-1 #
coedge $-1 -1 $-1 $281 $448 $436 $450 reversed $358 $-1 #
loop $-1 -1 $-1 $-1 $281 $451 #
vertex $-1 -1 $-1 $282 $452 #
vertex $-1 -1 $-1 $282 $453 #
straight-curve $-1 -1 $-1 -7.9582259421636916 -0.47620236790417825 5 -5.0000000000000044 8.6602540378443855 0 I I #
coedge $-1 -1 $-1 $286 $283 $454 $455 forward $149 $-1 #
coedge $-1 -1 $-1 $456 $457 $283 $364 reversed $458 $-1 #
edge $-1 -1 $-1 $368 0.2941709623134523 $459 0.61748711305964266 $283 $460 forward @7 unknown #
coedge $-1 -1 $-1 $461 $284 $290 $379 forward $367 $-1 #
coedge $-1 -1 $-1 $284 $461 $456 $462 reversed $367 $-1 #
loop $-1 -1 $-1 $-1 $284 $463 #
vertex $-1 -1 $-1 $364 $464 #
straight-curve $-1 -1 $-1 -16.233483680970831 0.92379763209582022 5 -5.0000000000000071 -8.660254037844382 0 I I #
coedge $-1 -1 $-1 $465 $466 $286 $371 reversed $467 $-1 #
edge $-1 -1 $-1 $468 -0.26832903768654726 $375 0.054987113059643052 $286 $469 forward @7 unknown #
coedge $-1 -1 $-1 $470 $287 $466 $471 forward $374 $-1 #
coedge $-1 -1 $-1 $287 $470 $289 $378 reversed $374 $-1 #
loop $-1 -1 $-1 $-1 $287 $302 #
vertex $-1 -1 $-1 $288 $472 #
straight-curve $-1 -1 $-1 -17.058290376865479 2.7999999999999998 5 10 0 0 I I #
coedge $-1 -1 $-1 $290 $289 $473 $474 forward $291 $-1 #
edge $-1 -1 $-1 $292 0 $475 0.25 $373 $476 forward @7 unknown #
edge $-1 -1 $-1 $293 0 $477 0.25 $365 $478 forward @7 unknown #
point $-1 -1 $-1 -18.38341924626905 2.7999999999999998 5 #
point $-1 -1 $-1 -16.766838492538096 -4.4408920985006262e-015 5 #
edge $-1 -1 $-1 $424 0.12499999999999989 $383 0.62499999999999989 $339 $479 forward @7 unknown #
vertex $-1 -1 $-1 $297 $480 #
straight-curve $-1 -1 $-1 -25 -4.5 0 -10 -1.332267629550188e-015 -0 I I #
coedge $-1 -1 $-1 $385 $385 $481 $482 reversed $298 $-1 #
face $-1 -1 $-1 $179 $483 $2 $-1 $484 reversed single #
plane-surface $-1 -1 $-1 4.9999999999999964 -4.4999999999999956 12.499999999999998 1.1102230246251565e-016 -1 0 0 0 -10 forward_v I I I I #
face $-1 -1 $-1 $485 $467 $2 $-1 $486 reversed single #
plane-surface $-1 -1 $-1 -21.616580753730954 2.7999999999999998 5 0 1 0 10 0 0 forward_v I I I I #
coedge $-1 -1 $-1 $390 $390 $487 $488 reversed $304 $-1 #
coedge $-1 -1 $-1 $391 $391 $305 $392 forward $421 $-1 #
edge $-1 -1 $-1 $489 -3.1415926535897931 $489 3.1415926535897931 $391 $490 forward @7 unknown #
point $-1 -1 $-1 24.100000000000005 3.4999999999999929 12.499999999999993 #
point $-1 -1 $-1 25.750000000000007 6.4999999999999938 12.499999999999996 #
coedge $-1 -1 $-1 $311 $411 $399 $491 reversed $273 $-1 #
vertex $-1 -1 $-1 $316 $492 #
straight-curve $-1 -1 $-1 -25 6.5 0 10 -1.332267629550188e-015 0 F 0 F 6 #
edge $-1 -1 $-1 $402 -4.75 $346 -2.5 $314 $493 forward @7 unknown #
coedge $-1 -1 $-1 $494 $315 $395 $491 forward $401 $-1 #
coedge $-1 -1 $-1 $315 $494 $427 $495 forward $401 $-1 #
loop $-1 -1 $-1 $-1 $399 $496 #
vertex $-1 -1 $-1 $398 $497 #
straight-curve $-1 -1 $-1 22.499999999999996 3.2499999999999964 0 0 10 0 F -3.7500010000000006 F 4.2000010000000003 #
loop $-1 -1 $-1 $203 $498 $253 #
coedge $-1 -1 $-1 $405 $405 $499 $500 forward $317 $-1 #
coedge $-1 -1 $-1 $340 $319 $321 $409 forward $227 $-1 #
vertex $-1 -1 $-1 $320 $501 #
straight-curve $-1 -1 $-1 -25 -6.5 5 -0 -10 -0 I I #
edge $-1 -1 $-1 $322 -2.1249999999999996 $424 0.37500000000000039 $406 $502 forward @7 unknown #
point $-1 -1 $-1 -25 -4.5 5 #
coedge $-1 -1 $-1 $395 $324 $503 $504 reversed $273 $-1 #
edge $-1 -1 $-1 $505 -0.78539816339744828 $325 0.78539816339744828 $324 $506 forward @7 unknown #
point $-1 -1 $-1 -25 6.5 12.499999999999991 #
coedge $-1 -1 $-1 $328 $507 $330 $417 reversed $345 $-1 #
straight-curve $-1 -1 $-1 -25.000000000000007 4.5 24.999999999999993 -3.5527136788005025e-015 4.7331654313260733e-031 10 I I #
coedge $-1 -1 $-1 $331 $330 $508 $509 forward $332 $-1 #
edge $-1 -1 $-1 $333 -0.78539816339744828 $510 0.78539816339744828 $414 $511 forward @7 unknown #
face $-1 -1 $-1 $512 $332 $2 $-1 $513 forward single #
point $-1 -1 $-1 -25.000000000000004 4.5 12.499999999999991 #
face $-1 -1 $-1 $514 $515 $2 $-1 $516 forward single #
loop $-1 -1 $-1 $517 $391 $335 #
plane-surface $-1 -1 $-1 22.5 -1.9999999999999933 12.499999999999998 1.1102230246251565e-016 -1 0 0 0 -10 forward_v I I I I #
coedge $-1 -1 $-1 $518 $519 $520 $521 reversed $336 $-1 #
vertex $-1 -1 $-1 $341 $522 #
straight-curve $-1 -1 $-1 4.592425496802573e-016 6.4999999999999964 5 0 10 0 I I #
straight-curve $-1 -1 $-1 4.592425496802573e-016 6.4999999999999964 0 0 -10 0 F 0 F 1.2999999999999994 #
coedge $-1 -1 $-1 $507 $343 $400 $495 reversed $345 $-1 #
loop $-1 -1 $-1 $-1 $523 $429 #
face $-1 -1 $-1 $524 $345 $2 $-1 $525 reversed single #
point $-1 -1 $-1 0 4.4999999999999964 0 #
point $-1 -1 $-1 4.592425496802573e-016 4.4999999999999964 5 #
straight-curve $-1 -1 $-1 -3.7500000000000036 4.4999999999999964 5 -10 1.1102230246251565e-015 0 I I #
coedge $-1 -1 $-1 $353 $350 $526 $527 forward $185 $-1 #
coedge $-1 -1 $-1 $528 $529 $350 $435 reversed $530 $-1 #
edge $-1 -1 $-1 $439 0.29417096231345241 $531 0.61748711305964288 $350 $532 forward @7 unknown #
coedge $-1 -1 $-1 $533 $351 $357 $450 forward $438 $-1 #
coedge $-1 -1 $-1 $351 $533 $528 $534 reversed $438 $-1 #
loop $-1 -1 $-1 $-1 $351 $535 #
vertex $-1 -1 $-1 $435 $536 #
straight-curve $-1 -1 $-1 -8.7665163190291668 -0.92379763209582366 5 5.0000000000000009 8.6602540378443873 0 I I #
coedge $-1 -1 $-1 $537 $538 $353 $442 reversed $539 $-1 #
edge $-1 -1 $-1 $540 -0.26832903768654759 $446 0.054987113059642899 $353 $541 forward @7 unknown #
coedge $-1 -1 $-1 $542 $354 $538 $543 forward $445 $-1 #
coedge $-1 -1 $-1 $354 $542 $356 $449 reversed $445 $-1 #
loop $-1 -1 $-1 $-1 $354 $544 #
vertex $-1 -1 $-1 $355 $545 #
straight-curve $-1 -1 $-1 -7.941709623134523 -2.8000000000000043 5 -10 -8.5846548499266228e-015 0 I I #
coedge $-1 -1 $-1 $357 $356 $546 $547 forward $358 $-1 #
edge $-1 -1 $-1 $359 0 $548 0.25 $444 $549 forward @7 unknown #
edge $-1 -1 $-1 $360 0 $550 0.25 $436 $551 forward @7 unknown #
face $-1 -1 $-1 $544 $358 $2 $-1 $552 reversed single #
point $-1 -1 $-1 -6.6165807537309504 -2.8000000000000029 5 #
point $-1 -1 $-1 -8.2331615074619062 -1.3179994556675895e-015 5 #
coedge $-1 -1 $-1 $553 $554 $362 $455 reversed $555 $-1 #
edge $-1 -1 $-1 $459 0.10667096231345219 $468 0.42998711305964255 $362 $556 forward @7 unknown #
coedge $-1 -1 $-1 $557 $363 $366 $462 forward $458 $-1 #
coedge $-1 -1 $-1 $363 $557 $553 $558 reversed $458 $-1 #
loop $-1 -1 $-1 $-1 $363 $559 #
vertex $-1 -1 $-1 $455 $560 #
straight-curve $-1 -1 $-1 -15.441709623134528 -2.8000000000000047 5 -10 6.8677238799413012e-015 0 I I #
coedge $-1 -1 $-1 $366 $365 $561 $562 forward $367 $-1 #
edge $-1 -1 $-1 $368 0 $563 0.25 $366 $564 forward @7 unknown #
face $-1 -1 $-1 $565 $367 $2 $-1 $566 reversed single #
point $-1 -1 $-1 -18.38341924626905 -2.8000000000000025 5 #
coedge $-1 -1 $-1 $567 $370 $554 $568 forward $467 $-1 #
coedge $-1 -1 $-1 $370 $567 $372 $471 reversed $467 $-1 #
loop $-1 -1 $-1 $-1 $370 $388 #
vertex $-1 -1 $-1 $371 $569 #
straight-curve $-1 -1 $-1 -21.891516319029169 2.3237976320958205 5 4.9999999999999947 8.6602540378443909 0 I I #
coedge $-1 -1 $-1 $373 $372 $570 $571 forward $374 $-1 #
edge $-1 -1 $-1 $375 0 $572 0.25 $466 $573 forward @7 unknown #
point $-1 -1 $-1 -21.616580753730954 2.7999999999999998 5 #
coedge $-1 -1 $-1 $570 $561 $377 $474 reversed $574 $-1 #
edge $-1 -1 $-1 $475 0 $477 0.3233161507461908 $377 $575 forward @7 unknown #
vertex $-1 -1 $-1 $378 $576 #
straight-curve $-1 -1 $-1 -18.38341924626905 2.7999999999999998 5 0 0 -10 I I #
vertex $-1 -1 $-1 $379 $577 #
straight-curve $-1 -1 $-1 -16.766838492538096 -4.4408920985006262e-015 5 0 0 -10 I I #
straight-curve $-1 -1 $-1 5.5511151231257827e-016 -4.4999999999999956 6.2499999999999991 0 0 -10 I I #
point $-1 -1 $-1 0 -4.4999999999999964 0 #
coedge $-1 -1 $-1 $481 $481 $385 $482 forward $578 $-1 #
edge $-1 -1 $-1 $579 -3.1415926535897931 $579 3.1415926535897931 $385 $580 forward @7 unknown #
loop $-1 -1 $-1 $581 $582 $386 #
plane-surface $-1 -1 $-1 22.5 -3.4999999999999938 12.499999999999998 1.1102230246251565e-016 -1 0 0 0 -10 forward_v I I I I #
face $-1 -1 $-1 $559 $555 $2 $-1 $583 reversed single #
plane-surface $-1 -1 $-1 -23.233161507461904 0 5 -0.86602540378443904 0.49999999999999944 0 4.9999999999999947 8.6602540378443909 0 forward_v I I I I #
coedge $-1 -1 $-1 $487 $487 $390 $488 forward $584 $-1 #
edge $-1 -1 $-1 $585 -3.1415926535897931 $585 3.1415926535897931 $487 $586 forward @7 unknown #
vertex $-1 -1 $-1 $392 $587 #
ellipse-curve $-1 -1 $-1 22.500000000000004 -1.999999999999994 12.499999999999996 1.1102230246251565e-016 -1 0 -1.6000000000000001 3.643808901333847e-016 -4.0602442043434295e-016 1 I I #
edge $-1 -1 $-1 $396 -2.3561944901923444 $588 0.78539816339744806 $395 $589 forward @7 unknown #
point $-1 -1 $-1 22.5 6.4999999999999938 0 #
straight-curve $-1 -1 $-1 -25 4.5 0 -10 1.332267629550188e-015 0 I I #
coedge $-1 -1 $-1 $400 $399 $590 $591 forward $401 $-1 #
edge $-1 -1 $-1 $592 -2.3561944901923444 $402 0.78539816339744806 $427 $593 forward @7 unknown #
face $-1 -1 $-1 $253 $401 $2 $-1 $594 forward single #
point $-1 -1 $-1 22.5 4.4999999999999938 0 #
coedge $-1 -1 $-1 $498 $498 $595 $596 forward $404 $-1 #
coedge $-1 -1 $-1 $499 $499 $405 $500 reversed $597 $-1 #
edge $-1 -1 $-1 $598 -3.1415926535897931 $598 3.1415926535897931 $405 $599 forward @7 unknown #
point $-1 -1 $-1 -25 4.5 5 #
straight-curve $-1 -1 $-1 -3.7500000000000036 -4.4999999999999964 5 10 1.1102230246251565e-015 0 I I #
coedge $-1 -1 $-1 $508 $590 $411 $504 forward $600 $-1 #
edge $-1 -1 $-1 $588 1.2499999999999991 $505 4.7499999999999991 $503 $601 forward @7 unknown #
vertex $-1 -1 $-1 $509 $602 #
ellipse-curve $-1 -1 $-1 -12.5 6.4999999999999964 12.499999999999991 -1.332267629550188e-016 -1 0 -8.8388347648318426 0 8.8388347648318426 1 I I #
coedge $-1 -1 $-1 $414 $427 $603 $604 reversed $345 $-1 #
coedge $-1 -1 $-1 $603 $503 $416 $509 reversed $600 $-1 #
edge $-1 -1 $-1 $510 -0.20000000000000018 $505 -1.1102230246251565e-016 $508 $605 forward @7 tangent #
vertex $-1 -1 $-1 $604 $606 #
ellipse-curve $-1 -1 $-1 -12.5 4.4999999999999956 12.499999999999991 1.1102230246251565e-016 1 0 -8.8388347648318426 0 8.8388347648318426 1 I I #
face $-1 -1 $-1 $496 $600 $2 $-1 $607 forward single #
cone-surface $-1 -1 $-1 -12.5 6.5 12.499999999999991 0 -1 0 -8.8388347648318426 0 8.8388347648318426 1 I I 0 1 12.5 forward I I I I #
face $-1 -1 $-1 $299 $608 $2 $-1 $609 forward single #
loop $-1 -1 $-1 $-1 $520 $420 #
cone-surface $-1 -1 $-1 22.5 -3.4999999999999938 12.5 0 1 0 -3.75 0 0 1 I I 0 1 3.75 forward I I I I #
loop $-1 -1 $-1 $-1 $610 $335 #
coedge $-1 -1 $-1 $519 $423 $611 $612 reversed $336 $-1 #
coedge $-1 -1 $-1 $423 $518 $610 $613 reversed $336 $-1 #
coedge $-1 -1 $-1 $614 $615 $423 $521 forward $515 $-1 #
edge $-1 -1 $-1 $616 -3.1415926535897931 $617 -2.2142974355881804 $520 $618 forward @7 unknown #
point $-1 -1 $-1 4.592425496802573e-016 -4.4999999999999947 5 #
coedge $-1 -1 $-1 $523 $523 $619 $620 reversed $428 $-1 #
face $-1 -1 $-1 $418 $621 $2 $-1 $622 reversed single #
plane-surface $-1 -1 $-1 4.9999999999999964 4.4999999999999956 12.499999999999998 1.1102230246251565e-016 1 0 0 0 -10 reverse_v I I I I #
coedge $-1 -1 $-1 $623 $624 $433 $527 reversed $625 $-1 #
edge $-1 -1 $-1 $531 0.10667096231345266 $540 0.42998711305964321 $433 $626 forward @7 unknown #
coedge $-1 -1 $-1 $627 $434 $437 $534 forward $530 $-1 #
coedge $-1 -1 $-1 $434 $627 $623 $628 reversed $530 $-1 #
loop $-1 -1 $-1 $-1 $434 $629 #
vertex $-1 -1 $-1 $527 $630 #
straight-curve $-1 -1 $-1 -9.558290376865477 2.7999999999999998 5 10 1.7169309699853247e-015 0 I I #
coedge $-1 -1 $-1 $437 $436 $631 $632 forward $438 $-1 #
edge $-1 -1 $-1 $439 0 $633 0.25 $437 $634 forward @7 unknown #
face $-1 -1 $-1 $635 $438 $2 $-1 $636 reversed single #
point $-1 -1 $-1 -6.6165807537309531 2.8000000000000003 5 #
coedge $-1 -1 $-1 $637 $441 $624 $638 forward $539 $-1 #
coedge $-1 -1 $-1 $441 $637 $443 $543 reversed $539 $-1 #
loop $-1 -1 $-1 $-1 $441 $639 #
vertex $-1 -1 $-1 $442 $640 #
straight-curve $-1 -1 $-1 -3.1084836809708309 -2.3237976320958222 5 -4.9999999999999982 -8.6602540378443891 0 I I #
coedge $-1 -1 $-1 $444 $443 $641 $642 forward $445 $-1 #
edge $-1 -1 $-1 $446 0 $643 0.25 $538 $644 forward @7 unknown #
face $-1 -1 $-1 $639 $445 $2 $-1 $645 reversed single #
point $-1 -1 $-1 -3.383419246269046 -2.8000000000000003 5 #
coedge $-1 -1 $-1 $641 $631 $448 $547 reversed $646 $-1 #
edge $-1 -1 $-1 $548 0 $550 0.32331615074619074 $448 $647 forward @7 unknown #
vertex $-1 -1 $-1 $449 $648 #
straight-curve $-1 -1 $-1 -6.6165807537309504 -2.8000000000000029 5 0 0 -10 I I #
vertex $-1 -1 $-1 $450 $649 #
straight-curve $-1 -1 $-1 -8.2331615074619062 -1.3179994556675895e-015 5 0 0 -10 I I #
plane-surface $-1 -1 $-1 -6.6165807537309504 -2.8000000000000029 5 -0.86602540378443849 -0.50000000000000044 -0 -5.0000000000000044 8.6602540378443855 0 forward_v I I I I #
coedge $-1 -1 $-1 $650 $454 $457 $558 forward $555 $-1 #
coedge $-1 -1 $-1 $454 $650 $465 $568 reversed $555 $-1 #
loop $-1 -1 $-1 $-1 $454 $485 #
straight-curve $-1 -1 $-1 -21.083225942163693 -3.7237976320958204 5 -4.9999999999999938 8.6602540378443909 0 I I #
coedge $-1 -1 $-1 $457 $456 $651 $652 forward $458 $-1 #
edge $-1 -1 $-1 $459 0 $653 0.25 $457 $654 forward @7 unknown #
face $-1 -1 $-1 $463 $458 $2 $-1 $655 reversed single #
point $-1 -1 $-1 -21.616580753730954 -2.8000000000000003 5 #
coedge $-1 -1 $-1 $473 $651 $461 $562 reversed $574 $-1 #
edge $-1 -1 $-1 $477 0 $563 0.32331615074619036 $461 $656 forward @7 unknown #
vertex $-1 -1 $-1 $462 $657 #
straight-curve $-1 -1 $-1 -18.38341924626905 -2.8000000000000025 5 0 0 -10 I I #
face $-1 -1 $-1 $451 $658 $2 $-1 $659 forward single #
plane-surface $-1 -1 $-1 -16.766838492538096 -4.4408920985006262e-015 5 0.86602540378443826 -0.50000000000000067 0 -5.0000000000000071 -8.660254037844382 0 forward_v I I I I #
coedge $-1 -1 $-1 $466 $465 $660 $661 forward $467 $-1 #
edge $-1 -1 $-1 $468 0 $662 0.25 $554 $663 forward @7 unknown #
point $-1 -1 $-1 -23.233161507461904 0 5 #
coedge $-1 -1 $-1 $660 $473 $470 $571 reversed $574 $-1 #
edge $-1 -1 $-1 $572 0 $475 0.32331615074619058 $470 $664 forward @7 unknown #
vertex $-1 -1 $-1 $471 $665 #
straight-curve $-1 -1 $-1 -21.616580753730954 2.7999999999999998 5 0 0 -10 I I #
loop $-1 -1 $-1 $-1 $561 $565 #
straight-curve $-1 -1 $-1 -18.38341924626905 2.7999999999999998 2.5 4.9999999999999929 -8.6602540378443909 0 I I #
point $-1 -1 $-1 -18.38341924626905 2.7999999999999998 2.5 #
point $-1 -1 $-1 -16.766838492538096 -4.4408920985006262e-015 2.5 #
loop $-1 -1 $-1 $-1 $481 $514 #
vertex $-1 -1 $-1 $482 $666 #
ellipse-curve $-1 -1 $-1 22.5 -4.4999999999999938 12.5 -1.1102230246251565e-016 1 0 -8.5 -9.4368957093138306e-016 0 1 I I #
loop $-1 -1 $-1 $-1 $667 $386 #
coedge $-1 -1 $-1 $582 $582 $668 $669 forward $483 $-1 #
plane-surface $-1 -1 $-1 -21.616580753730954 -2.8000000000000003 5 -0.86602540378443904 -0.49999999999999939 -0 -4.9999999999999938 8.6602540378443909 0 forward_v I I I I #
loop $-1 -1 $-1 $670 $487 $671 #
vertex $-1 -1 $-1 $488 $672 #
ellipse-curve $-1 -1 $-1 22.500000000000004 1.9999999999999933 12.499999999999996 1.1102230246251565e-016 1 0 -1.6000000000000001 3.643808901333847e-016 -4.0602442043434295e-016 1 I I #
point $-1 -1 $-1 24.100000000000005 -1.9999999999999942 12.499999999999996 #
vertex $-1 -1 $-1 $504 $673 #
ellipse-curve $-1 -1 $-1 22.5 6.4999999999999964 12.499999999999998 -1.332267629550188e-016 -1 0 8.8388347648318426 0 8.8388347648318462 1 I I #
coedge $-1 -1 $-1 $503 $603 $494 $591 reversed $600 $-1 #
edge $-1 -1 $-1 $588 3.3306690738754696e-016 $592 0.20000000000000029 $590 $674 forward @7 tangent #
vertex $-1 -1 $-1 $495 $675 #
ellipse-curve $-1 -1 $-1 22.499999999999996 4.4999999999999956 12.5 1.1102230246251565e-016 1 0 8.8388347648318444 0 -8.8388347648318426 1 I I #
cone-surface $-1 -1 $-1 22.499999999999996 3.2499999999999964 12.5 0 -1 0 8.8388347648318444 0 -8.8388347648318426 1 I I 0 1 12.5 forward I I I I #
coedge $-1 -1 $-1 $595 $595 $498 $596 reversed $676 $-1 #
edge $-1 -1 $-1 $677 -3.1415926535897931 $677 3.1415926535897931 $498 $678 forward @7 unknown #
loop $-1 -1 $-1 $-1 $499 $679 #
vertex $-1 -1 $-1 $500 $680 #
ellipse-curve $-1 -1 $-1 -5 -3.0616169978683831e-016 0 0 0 1 -1.5500000000000003 0 0 1 I I #
loop $-1 -1 $-1 $-1 $508 $512 #
straight-curve $-1 -1 $-1 34.999999999999993 6.4999999999999929 25 -10 1.332267629550188e-015 -1.4802973661668753e-015 F -0 F 6 #
point $-1 -1 $-1 -12.5 6.4999999999999991 24.999999999999993 #
coedge $-1 -1 $-1 $590 $508 $507 $604 forward $600 $-1 #
edge $-1 -1 $-1 $510 -4.7499999999999991 $592 -1.2499999999999991 $603 $681 forward @7 unknown #
straight-curve $-1 -1 $-1 -12.500000000000002 6.5 24.999999999999993 0 10 0 F -4.0750010000000003 F 3.8750010000000006 #
point $-1 -1 $-1 -12.5 4.4999999999999982 24.999999999999993 #
plane-surface $-1 -1 $-1 -25.000000000000007 6.5 24.999999999999993 -1.4802973661668753e-016 0 1 10 -1.332267629550188e-015 1.4802973661668753e-015 reverse_v I I I I #
loop $-1 -1 $-1 $578 $668 $514 #
cone-surface $-1 -1 $-1 22.5 -3.9999999999999951 12.5 0 -1 0 -8 -4.7184478546569153e-016 0 1 I I 0.70710678118654902 0.70710678118654668 8 forward I I I I #
coedge $-1 -1 $-1 $682 $682 $519 $613 forward $517 $-1 #
coedge $-1 -1 $-1 $615 $614 $518 $612 forward $515 $-1 #
edge $-1 -1 $-1 $683 2.2142974355881804 $616 3.1415926535897931 $611 $618 forward @7 unknown #
edge $-1 -1 $-1 $617 -1.4250000000000003 $683 -0.82499999999999996 $610 $684 forward @7 unknown #
coedge $-1 -1 $-1 $611 $520 $682 $685 reversed $515 $-1 #
coedge $-1 -1 $-1 $520 $611 $667 $686 reversed $515 $-1 #
vertex $-1 -1 $-1 $686 $687 #
vertex $-1 -1 $-1 $521 $688 #
ellipse-curve $-1 -1 $-1 22.5 0.25000000000000577 12.5 0 -0.70710678118654757 0.70710678118654757 0 3.75 3.75 0.70710678118654757 I I #
coedge $-1 -1 $-1 $619 $619 $523 $620 forward $689 $-1 #
edge $-1 -1 $-1 $690 -3.1415926535897931 $690 3.1415926535897931 $523 $691 forward @7 unknown #
loop $-1 -1 $-1 $692 $693 $524 #
plane-surface $-1 -1 $-1 22.5 3.4999999999999938 12.499999999999998 1.1102230246251565e-016 1 0 0 0 -10 reverse_v I I I I #
coedge $-1 -1 $-1 $694 $526 $529 $628 forward $625 $-1 #
coedge $-1 -1 $-1 $526 $694 $537 $638 reversed $625 $-1 #
loop $-1 -1 $-1 $-1 $526 $695 #
straight-curve $-1 -1 $-1 -3.9167740578363115 3.7237976320958257 5 5.0000000000000044 -8.6602540378443855 0 I I #
coedge $-1 -1 $-1 $529 $528 $696 $697 forward $530 $-1 #
edge $-1 -1 $-1 $531 0 $698 0.25 $529 $699 forward @7 unknown #
face $-1 -1 $-1 $535 $530 $2 $-1 $700 reversed single #
point $-1 -1 $-1 -3.3834192462690482 2.8000000000000007 5 #
coedge $-1 -1 $-1 $546 $696 $533 $632 reversed $646 $-1 #
edge $-1 -1 $-1 $550 0 $633 0.32331615074619063 $533 $701 forward @7 unknown #
vertex $-1 -1 $-1 $534 $702 #
straight-curve $-1 -1 $-1 -6.6165807537309531 2.8000000000000003 5 0 0 -10 I I #
face $-1 -1 $-1 $679 $703 $2 $-1 $704 forward single #
plane-surface $-1 -1 $-1 -8.2331615074619062 -1.3179994556675895e-015 5 -0.86602540378443871 0.50000000000000011 0 5.0000000000000009 8.6602540378443873 0 forward_v I I I I #
coedge $-1 -1 $-1 $538 $537 $705 $706 forward $539 $-1 #
edge $-1 -1 $-1 $540 0 $707 0.25 $624 $708 forward @7 unknown #
face $-1 -1 $-1 $695 $539 $2 $-1 $709 reversed single #
point $-1 -1 $-1 -1.7668384925380944 5.5511151231257827e-016 5 #
coedge $-1 -1 $-1 $705 $546 $542 $642 reversed $646 $-1 #
edge $-1 -1 $-1 $643 0 $548 0.32331615074619047 $542 $710 forward @7 unknown #
vertex $-1 -1 $-1 $543 $711 #
straight-curve $-1 -1 $-1 -3.383419246269046 -2.8000000000000003 5 0 0 -10 I I #
plane-surface $-1 -1 $-1 -3.383419246269046 -2.8000000000000003 5 8.5846548499266236e-016 -1 0 -10 -8.5846548499266228e-015 0 forward_v I I I I #
loop $-1 -1 $-1 $-1 $631 $635 #
straight-curve $-1 -1 $-1 -6.6165807537309504 -2.8000000000000029 2.5 -5.0000000000000044 8.6602540378443855 0 I I #
point $-1 -1 $-1 -6.6165807537309504 -2.8000000000000029 2.5 #
point $-1 -1 $-1 -8.2331615074619062 -1.3179994556675895e-015 2.5 #
coedge $-1 -1 $-1 $554 $553 $712 $713 forward $555 $-1 #
coedge $-1 -1 $-1 $561 $712 $557 $652 reversed $574 $-1 #
edge $-1 -1 $-1 $563 0 $653 0.32331615074619036 $557 $714 forward @7 unknown #
vertex $-1 -1 $-1 $558 $715 #
straight-curve $-1 -1 $-1 -21.616580753730954 -2.8000000000000003 5 0 0 -10 I I #
plane-surface $-1 -1 $-1 -18.38341924626905 -2.8000000000000025 5 -6.8677238799413012e-016 -1 -0 -10 6.8677238799413012e-015 0 forward_v I I I I #
straight-curve $-1 -1 $-1 -16.766838492538096 -4.4408920985006262e-015 2.5 -5.0000000000000071 -8.660254037844382 0 I I #
point $-1 -1 $-1 -18.38341924626905 -2.8000000000000025 2.5 #
loop $-1 -1 $-1 $574 $716 $565 #
plane-surface $-1 -1 $-1 -20 -5.6336797452643466e-016 2.5 0 0 1 10 0 0 forward_v I I I I #
coedge $-1 -1 $-1 $712 $570 $567 $661 reversed $574 $-1 #
edge $-1 -1 $-1 $662 0 $572 0.3233161507461903 $567 $717 forward @7 unknown #
vertex $-1 -1 $-1 $568 $718 #
straight-curve $-1 -1 $-1 -23.233161507461904 0 5 0 0 -10 I I #
straight-curve $-1 -1 $-1 -21.616580753730954 2.7999999999999998 2.5 10 0 0 I I #
point $-1 -1 $-1 -21.616580753730954 2.7999999999999998 2.5 #
point $-1 -1 $-1 31 -4.4999999999999929 12.5 #
coedge $-1 -1 $-1 $667 $667 $615 $686 forward $581 $-1 #
coedge $-1 -1 $-1 $668 $668 $582 $669 reversed $608 $-1 #
edge $-1 -1 $-1 $719 -8.9011791851710811 $719 -2.617993877991494 $582 $720 forward @7 unknown #
loop $-1 -1 $-1 $-1 $721 $671 #
face $-1 -1 $-1 $722 $584 $2 $-1 $723 reversed single #
point $-1 -1 $-1 24.100000000000005 1.9999999999999931 12.499999999999996 #
point $-1 -1 $-1 22.5 6.4999999999999938 25 #
straight-curve $-1 -1 $-1 22.5 6.4999999999999964 25 0 -10 0 F -3.8750010000000001 F 4.0750010000000003 #
point $-1 -1 $-1 22.5 4.4999999999999938 25 #
loop $-1 -1 $-1 $-1 $595 $724 #
vertex $-1 -1 $-1 $596 $725 #
ellipse-curve $-1 -1 $-1 -20 -1.1102230246251565e-015 0 0 0 1 -1.5500000000000003 0 0 1 I I #
face $-1 -1 $-1 $724 $726 $2 $-1 $727 reversed single #
point $-1 -1 $-1 -3.4499999999999997 -1.1634144591899852e-016 0 #
straight-curve $-1 -1 $-1 34.999999999999993 4.499999999999992 25 10 -1.332267629550188e-015 1.4802973661668753e-015 I I #
coedge $-1 -1 $-1 $610 $610 $614 $685 forward $517 $-1 #
vertex $-1 -1 $-1 $685 $728 #
straight-curve $-1 -1 $-1 11.25 -1.9999999999999947 10.25 -10 -1.1102230246251565e-015 -1.1102230246251565e-015 I I #
edge $-1 -1 $-1 $683 -0.64350110879328404 $617 3.7850937623830765 $614 $729 forward @7 unknown #
edge $-1 -1 $-1 $616 -4.7123889803846897 $616 1.5707963267948966 $667 $730 forward @7 unknown #
point $-1 -1 $-1 22.5 -3.4999999999999942 8.75 #
point $-1 -1 $-1 25.500000000000004 -1.9999999999999929 10.250000000000002 #
loop $-1 -1 $-1 $-1 $619 $731 #
vertex $-1 -1 $-1 $620 $732 #
ellipse-curve $-1 -1 $-1 22.5 4.4999999999999938 12.5 -1.1102230246251565e-016 -1 -0 -8.5 9.4368957093138306e-016 0 1 I I #
loop $-1 -1 $-1 $-1 $733 $524 #
coedge $-1 -1 $-1 $693 $693 $734 $735 forward $621 $-1 #
coedge $-1 -1 $-1 $624 $623 $736 $737 forward $625 $-1 #
face $-1 -1 $-1 $629 $625 $2 $-1 $738 reversed single #
coedge $-1 -1 $-1 $631 $736 $627 $697 reversed $646 $-1 #
edge $-1 -1 $-1 $633 0 $698 0.32331615074619047 $627 $739 forward @7 unknown #
vertex $-1 -1 $-1 $628 $740 #
straight-curve $-1 -1 $-1 -3.3834192462690482 2.8000000000000007 5 0 0 -10 I I #
plane-surface $-1 -1 $-1 -6.6165807537309531 2.8000000000000003 5 -1.7169309699853248e-016 1 0 10 1.7169309699853247e-015 0 forward_v I I I I #
straight-curve $-1 -1 $-1 -8.2331615074619062 -1.3179994556675895e-015 2.5 5.0000000000000009 8.6602540378443873 0 I I #
point $-1 -1 $-1 -6.6165807537309531 2.8000000000000003 2.5 #
loop $-1 -1 $-1 $646 $741 $635 #
plane-surface $-1 -1 $-1 -5 -5.0971388171439309e-016 2.5 0 0 1 10 0 0 forward_v I I I I #
coedge $-1 -1 $-1 $736 $641 $637 $706 reversed $646 $-1 #
edge $-1 -1 $-1 $707 0 $643 0.32331615074619047 $637 $742 forward @7 unknown #
vertex $-1 -1 $-1 $638 $743 #
straight-curve $-1 -1 $-1 -1.7668384925380944 5.5511151231257827e-016 5 0 0 -10 I I #
plane-surface $-1 -1 $-1 -1.7668384925380944 5.5511151231257827e-016 5 0.86602540378443882 -0.49999999999999978 0 -4.9999999999999982 -8.6602540378443891 0 forward_v I I I I #
straight-curve $-1 -1 $-1 -3.383419246269046 -2.8000000000000003 2.5 -10 -8.5846548499266228e-015 0 I I #
point $-1 -1 $-1 -3.383419246269046 -2.8000000000000003 2.5 #
coedge $-1 -1 $-1 $651 $660 $650 $713 reversed $574 $-1 #
edge $-1 -1 $-1 $653 0 $662 0.32331615074619036 $650 $744 forward @7 unknown #
straight-curve $-1 -1 $-1 -18.38341924626905 -2.8000000000000025 2.5 -10 6.8677238799413012e-015 0 I I #
point $-1 -1 $-1 -21.616580753730954 -2.8000000000000003 2.5 #
coedge $-1 -1 $-1 $716 $716 $745 $746 reversed $658 $-1 #
straight-curve $-1 -1 $-1 -23.233161507461904 0 2.5 4.9999999999999947 8.6602540378443909 0 I I #
point $-1 -1 $-1 -23.233161507461904 0 2.5 #
vertex $-1 -1 $-1 $669 $747 #
ellipse-curve $-1 -1 $-1 22.5 -3.4999999999999942 12.5 -1.1102230246251565e-016 1 0 -7.5 -8.3266726846886741e-016 -0 1 I I #
coedge $-1 -1 $-1 $748 $748 $749 $750 forward $670 $-1 #
face $-1 -1 $-1 $731 $751 $2 $-1 $752 forward single #
plane-surface $-1 -1 $-1 22.5 1.9999999999999933 12.499999999999998 1.1102230246251565e-016 1 0 0 0 -10 reverse_v I I I I #
face $-1 -1 $-1 $753 $754 $2 $-1 $755 reversed single #
point $-1 -1 $-1 -18.449999999999999 -9.2040277075731675e-016 0 #
loop $-1 -1 $-1 $597 $756 $679 #
cone-surface $-1 -1 $-1 -5 -3.0616169978683831e-016 5 0 0 -1 -1.5500000000000003 0 0 1 I I 0 1 1.5500000000000003 forward I I I I #
point $-1 -1 $-1 19.5 -1.9999999999999929 10.250000000000002 #
ellipse-curve $-1 -1 $-1 22.5 -1.9999999999999933 12.5 -1.1102230246251565e-016 1 0 -3.75 -4.163336342344337e-016 -0 1 I I #
ellipse-curve $-1 -1 $-1 22.5 -3.4999999999999938 12.5 1.1102230246251565e-016 -1 0 -3.75 0 0 1 I I #
face $-1 -1 $-1 $429 $757 $2 $-1 $758 forward single #
point $-1 -1 $-1 31 4.4999999999999929 12.5 #
coedge $-1 -1 $-1 $733 $733 $759 $760 reversed $692 $-1 #
coedge $-1 -1 $-1 $761 $762 $693 $735 reversed $751 $-1 #
edge $-1 -1 $-1 $763 -7.8539816339744828 $763 -1.5707963267948966 $693 $764 forward @7 unknown #
coedge $-1 -1 $-1 $696 $705 $694 $737 reversed $646 $-1 #
edge $-1 -1 $-1 $698 0 $707 0.32331615074619058 $694 $765 forward @7 unknown #
plane-surface $-1 -1 $-1 -3.3834192462690482 2.8000000000000007 5 0.86602540378443849 0.50000000000000044 0 5.0000000000000044 -8.6602540378443855 0 forward_v I I I I #
straight-curve $-1 -1 $-1 -6.6165807537309531 2.8000000000000003 2.5 10 1.7169309699853247e-015 0 I I #
point $-1 -1 $-1 -3.3834192462690482 2.8000000000000007 2.5 #
coedge $-1 -1 $-1 $741 $741 $756 $766 reversed $703 $-1 #
straight-curve $-1 -1 $-1 -1.7668384925380944 5.5511151231257827e-016 2.5 -4.9999999999999982 -8.6602540378443891 0 I I #
point $-1 -1 $-1 -1.7668384925380942 5.5511151231257827e-016 2.5 #
straight-curve $-1 -1 $-1 -21.616580753730954 -2.8000000000000003 2.5 -4.9999999999999938 8.6602540378443909 0 I I #
coedge $-1 -1 $-1 $745 $745 $716 $746 forward $754 $-1 #
edge $-1 -1 $-1 $767 -3.1415926535897931 $767 3.1415926535897931 $745 $768 forward @7 unknown #
point $-1 -1 $-1 28.995190528383286 -3.4999999999999942 8.75 #
coedge $-1 -1 $-1 $721 $721 $769 $770 reversed $670 $-1 #
coedge $-1 -1 $-1 $771 $772 $721 $750 reversed $773 $-1 #
edge $-1 -1 $-1 $774 0.82499999999999996 $775 1.4250000000000003 $721 $776 forward @7 unknown #
loop $-1 -1 $-1 $-1 $761 $722 #
cone-surface $-1 -1 $-1 22.5 3.4999999999999938 12.5 0 1 0 -3.75 0 0 1 I I -0 1 3.75 reversed I I I I #
face $-1 -1 $-1 $671 $773 $2 $-1 $777 reversed single #
loop $-1 -1 $-1 $676 $745 $724 #
cone-surface $-1 -1 $-1 -20 -1.1102230246251565e-015 5 0 0 -1 -1.5500000000000003 0 0 1 I I 0 1 1.5500000000000003 forward I I I I #
coedge $-1 -1 $-1 $756 $756 $741 $766 forward $726 $-1 #
loop $-1 -1 $-1 $689 $759 $731 #
cone-surface $-1 -1 $-1 22.5 3.9999999999999951 12.5 0 1 0 -8 4.7184478546569153e-016 0 1 I I 0.70710678118654902 0.70710678118654668 8 forward I I I I #
coedge $-1 -1 $-1 $759 $759 $733 $760 forward $757 $-1 #
edge $-1 -1 $-1 $778 -3.1415926535897931 $778 3.1415926535897931 $733 $779 forward @7 unknown #
coedge $-1 -1 $-1 $769 $734 $771 $780 forward $751 $-1 #
coedge $-1 -1 $-1 $734 $769 $772 $781 forward $751 $-1 #
vertex $-1 -1 $-1 $735 $782 #
ellipse-curve $-1 -1 $-1 22.5 3.4999999999999938 12.5 1.1102230246251565e-016 1 0 -3.75 0 0 1 I I #
straight-curve $-1 -1 $-1 -3.3834192462690482 2.8000000000000007 2.5 5.0000000000000044 -8.6602540378443855 0 I I #
edge $-1 -1 $-1 $783 -3.1415926535897931 $783 3.1415926535897931 $756 $784 forward @7 unknown #
vertex $-1 -1 $-1 $746 $785 #
ellipse-curve $-1 -1 $-1 -20 -1.1102230246251565e-015 2.5 0 0 1 -1.5500000000000003 0 0 1 I I #
coedge $-1 -1 $-1 $762 $761 $748 $770 forward $751 $-1 #
edge $-1 -1 $-1 $774 -0.64350110879328404 $775 3.785093762383076 $769 $786 forward @7 unknown #
coedge $-1 -1 $-1 $772 $749 $761 $780 reversed $773 $-1 #
coedge $-1 -1 $-1 $749 $771 $762 $781 reversed $773 $-1 #
loop $-1 -1 $-1 $-1 $771 $753 #
vertex $-1 -1 $-1 $770 $787 #
vertex $-1 -1 $-1 $781 $788 #
straight-curve $-1 -1 $-1 11.25 1.9999999999999947 10.25 10 -1.1102230246251565e-015 1.1102230246251565e-015 I I #
plane-surface $-1 -1 $-1 4.592425496802573e-016 1.9999999999999929 10.250000000000002 0 0.70710678118654757 0.70710678118654757 0 7.0710678118654755 -7.0710678118654755 reverse_v I I I I #
vertex $-1 -1 $-1 $760 $789 #
ellipse-curve $-1 -1 $-1 22.5 3.4999999999999942 12.5 1.1102230246251565e-016 1 0 -7.5 8.3266726846886741e-016 0 1 I I #
edge $-1 -1 $-1 $763 -3.1415926535897931 $774 -2.2142974355881804 $761 $790 forward @7 unknown #
edge $-1 -1 $-1 $775 2.2142974355881804 $763 3.1415926535897931 $762 $790 forward @7 unknown #
point $-1 -1 $-1 22.5 3.4999999999999942 8.75 #
vertex $-1 -1 $-1 $766 $791 #
ellipse-curve $-1 -1 $-1 -5 -3.0616169978683831e-016 2.5 0 0 1 -1.5500000000000003 0 0 1 I I #
point $-1 -1 $-1 -18.449999999999999 -9.2040277075731675e-016 2.5 #
ellipse-curve $-1 -1 $-1 22.5 1.9999999999999933 12.5 1.1102230246251565e-016 1 0 -3.75 4.163336342344337e-016 0 1 I I #
point $-1 -1 $-1 19.5 1.9999999999999929 10.250000000000002 #
point $-1 -1 $-1 25.500000000000004 1.9999999999999929 10.250000000000002 #
point $-1 -1 $-1 30 3.4999999999999929 12.5 #
ellipse-curve $-1 -1 $-1 22.5 -0.25000000000000577 12.5 0 0.70710678118654757 0.70710678118654757 0 -3.75 3.75 0.70710678118654757 I I #
point $-1 -1 $-1 -3.4499999999999997 -1.1634144591899852e-016 2.5 #
End-of-ACIS-data 