700 0 1 0           
33 Autodesk Inventor 17.0.13800.0000 19 ASM 218.0.0.5119 NT 24 Fri Oct 18 14:29:17 2013 
1 9.9999999999999995e-007 1e-010 
body $-1 -1 $-1 $1 $-1 $-1 #
lump $-1 -1 $-1 $-1 $2 $0 #
shell $-1 -1 $-1 $-1 $-1 $3 $-1 $1 #
face $-1 -1 $-1 $4 $5 $2 $-1 $6 reversed single #
face $-1 -1 $-1 $7 $8 $2 $-1 $9 reversed single #
loop $-1 -1 $-1 $10 $11 $3 #
cone-surface $-1 -1 $-1 -7.4931011011854096 0 0 0 0 -1 -1 0 0 1 I I 0 1 1 forward I I I I #
face $-1 -1 $-1 $12 $13 $2 $-1 $14 forward single #
loop $-1 -1 $-1 $15 $16 $4 #
cone-surface $-1 -1 $-1 0 0 30 0 0 -1 -2.5 0 0 1 I I 0 1 2.5 forward I I I I #
loop $-1 -1 $-1 $-1 $17 $3 #
coedge $-1 -1 $-1 $11 $11 $18 $19 reversed $5 $-1 #
face $-1 -1 $-1 $20 $21 $2 $-1 $22 forward single #
loop $-1 -1 $-1 $-1 $23 $7 #
spline-surface $-1 -1 $-1 forward { sweepsur angled 
	straight 4.9999999999999991 0 30 7.0710678118654782 0 7.0710678118654737 I I 
	intcurve forward { lawintcur none F 0 F 100.94948218450224 OPEN 
	null_surface 
	null_surface 
	nullbs 
	nullbs 
	I I 
	0 
	0 
	0 
	@113 VEC(4.999999999999999,0,0)*COS(X)+VEC(0,-4.999999999999999,0)*SIN(X)+X*VEC(-0,-0,-0.3184690411268826)+VEC(0,0,30) 
	0 
	
	0 } I I 
	angled 
	-0 -0.9979777005227306 -0.063565000270297045 
	4.9999999999999991 0 30 
	1 0 0 
	0 -0.063565000270297059 0.99797770052273072 
	-0 -0.9979777005227306 -0.063565000270297045 
	0 100.94948218450224 
	0 0 @114 CROSS(DCUR(EDGE1,1),VEC(-0,-0,-1))*DOT(CROSS(DCUR(EDGE2,1),VEC(-0,-0,-1)),CROSS(DCUR(EDGE3,1),VEC(-0,-0,-1)))^-0.5 
	3 
	@4 EDGE 
	intcurve forward { ref 1 } I I 
	0 
	100.94948218450224 @4 EDGE 
	intcurve forward { ref 1 } I I 
	0 
	100.94948218450224 @4 EDGE 
	intcurve forward { ref 1 } I I 
	0 
	100.94948218450224 @1 0 
	0 
	@10 VEC(1,1,1) 
	0 
	none F 0 F 0.14142135623730906 F 0 F 100.94948218450224 CLOSURE_UNSET CLOSURE_UNSET SINGULARITY_UNKNOWN SINGULARITY_UNKNOWN 
	0 
	0 
	0 
	0 
	0 
	0 
	} F 0 F 0.14142135623730906 F 0 F 97.34070191032842 #
loop $-1 -1 $-1 $-1 $24 $4 #
coedge $-1 -1 $-1 $16 $16 $25 $26 reversed $8 $-1 #
coedge $-1 -1 $-1 $17 $17 $27 $28 reversed $10 $-1 #
coedge $-1 -1 $-1 $18 $18 $11 $19 forward $29 $-1 #
edge $-1 -1 $-1 $30 -3.1415926535897931 $30 3.1415926535897931 $18 $31 forward @7 unknown #
face $-1 -1 $-1 $32 $33 $2 $-1 $34 forward single #
loop $-1 -1 $-1 $35 $36 $12 #
cone-surface $-1 -1 $-1 0 0 -0.5 0 0 1 9.5000000000000018 0 0 1 I I -0.70710678118654735 0.70710678118654757 9.5000000000000018 forward I I I I #
coedge $-1 -1 $-1 $37 $38 $39 $40 forward $13 $41 #
coedge $-1 -1 $-1 $24 $24 $42 $43 reversed $15 $-1 #
coedge $-1 -1 $-1 $25 $25 $16 $26 forward $44 $-1 #
edge $-1 -1 $-1 $45 -3.1415926535897931 $45 3.1415926535897931 $25 $46 forward @7 unknown #
coedge $-1 -1 $-1 $27 $27 $17 $28 forward $33 $-1 #
edge $-1 -1 $-1 $47 -3.1415926535897931 $47 3.1415926535897931 $27 $48 forward @7 unknown #
loop $-1 -1 $-1 $44 $18 $49 #
vertex $-1 -1 $-1 $19 $50 #
ellipse-curve $-1 -1 $-1 -7.4931011011854096 0 -2 0 0 1 -1 0 0 1 I I #
face $-1 -1 $-1 $51 $52 $2 $-1 $53 forward single #
loop $-1 -1 $-1 $54 $27 $20 #
plane-surface $-1 -1 $-1 4.7212824147066477e-016 1.8503717077085931e-016 0 0 0 1 10 0 0 forward_v I I I I #
loop $-1 -1 $-1 $-1 $55 $12 #
coedge $-1 -1 $-1 $36 $36 $56 $57 forward $21 $-1 #
coedge $-1 -1 $-1 $58 $23 $59 $60 forward $13 $61 #
coedge $-1 -1 $-1 $23 $58 $62 $63 reversed $13 $64 #
coedge $-1 -1 $-1 $65 $66 $23 $40 reversed $67 $-1 #
edge $-1 -1 $-1 $68 -1.7381008299913008 $69 -0 $23 $70 forward @7 unknown #
pcurve $-1 -1 $-1 2 $70 0 0 #
coedge $-1 -1 $-1 $42 $42 $24 $43 forward $71 $-1 #
edge $-1 -1 $-1 $72 -3.1415926535897931 $72 3.1415926535897931 $42 $73 forward @7 unknown #
loop $-1 -1 $-1 $74 $25 $49 #
vertex $-1 -1 $-1 $26 $75 #
ellipse-curve $-1 -1 $-1 0 0 -2.0000000000000018 0 0 1 -2.5 0 0 1 I I #
vertex $-1 -1 $-1 $28 $76 #
ellipse-curve $-1 -1 $-1 -7.4931011011854096 0 0 -0 -0 -1 -1 0 0 1 I I #
face $-1 -1 $-1 $77 $29 $2 $-1 $78 reversed single #
point $-1 -1 $-1 -6.4931011011854096 1.2246467991473532e-016 -2 #
face $-1 -1 $-1 $79 $80 $2 $-1 $81 forward single #
loop $-1 -1 $-1 $82 $83 $32 #
cone-surface $-1 -1 $-1 0 0 0 0 0 -1 10.000000000000002 0 0 1 I I 0 1 10.000000000000002 forward I I I I #
loop $-1 -1 $-1 $84 $85 $20 #
coedge $-1 -1 $-1 $55 $55 $86 $87 forward $35 $-1 #
coedge $-1 -1 $-1 $56 $56 $36 $57 reversed $82 $-1 #
edge $-1 -1 $-1 $88 -3.1415926535897931 $88 3.1415926535897931 $56 $89 forward @7 unknown #
coedge $-1 -1 $-1 $38 $37 $85 $90 reversed $13 $91 #
coedge $-1 -1 $-1 $92 $93 $37 $60 reversed $80 $94 #
edge $-1 -1 $-1 $69 3.1400226422686481 $95 97.34070191032842 $37 $96 forward @7 unknown #
pcurve $-1 -1 $-1 0 forward { exppc nubs 1 open 2 
	3.1400226422686481 1 97.34070191032842 1 
	0.14142135623730909 3.1400226422686477 
	0.14142135623730911 97.340701910328406 
	0 
	spline forward { ref 0 } I I I I 
	} 0 0 #
coedge $-1 -1 $-1 $97 $98 $38 $63 forward $99 $-1 #
edge $-1 -1 $-1 $68 -0 $100 94.200679268059773 $62 $101 forward @7 unknown #
pcurve $-1 -1 $-1 0 forward { exppc nubs 1 open 2 
	-94.200679268059787 1 0 1 
	1.5700924586837742e-016 94.200679268059758 
	0 0 
	0 
	spline forward { ref 0 } I I I I 
	} 0 0 #
coedge $-1 -1 $-1 $66 $39 $98 $102 forward $67 $-1 #
coedge $-1 -1 $-1 $39 $65 $92 $103 reversed $67 $-1 #
loop $-1 -1 $-1 $-1 $65 $77 #
vertex $-1 -1 $-1 $102 $104 #
vertex $-1 -1 $-1 $60 $105 #
intcurve-curve $-1 -1 $-1 forward { surfintcur full nubs 3 open 10 
	-1.7381008299913008 3 -1.6310027877623705 2 -1.5224872840498225 2 -1.3192165430388809 2 -1.1112001531444182 2 
	-0.89844003966415587 2 -0.68093810359500129 2 -0.45869622133390808 2 -0.23171624452105047 2 -0 3 
	4.9999999999999991 0 30 
	5.0226129441336251 -0.3550257829397151 30 
	5.0071996819715769 -0.71145274718287188 30 
	4.9011249959908474 -1.4198153132622648 30 
	4.8097790169690811 -1.7695970376344974 30 
	4.4440394929241478 -2.7387106629414673 30 
	4.0831476931457118 -3.3171860289198376 30 
	3.1509618529205192 -4.3171731182635389 30 
	2.5842714673670564 -4.7248363345164694 30 
	1.3129258396766208 -5.3094791902986991 30 
	0.61806995739302384 -5.4752647632481297 30 
	-0.81226403604261532 -5.5347672195982778 30 
	-1.534115706399479 -5.4218354301576444 30 
	-2.9102487839292128 -4.9228273545130028 30 
	-3.5491073005979934 -4.5358794356412337 30 
	-4.6566056357627259 -3.530075930505705 30 
	-5.1104160884161667 -2.9164783079714232 30 
	-5.7669627369077814 -1.5363811375819501 30 
	-5.9578424152954499 -0.78065659290861134 30 
	-5.9999926051948691 -0.0094200640569156949 30 
	9.0714190409052484e-006 
	plane -9.4425648294132974e-016 3.7007434154171881e-016 30 -0 -0 -1 10 0 0 reverse_v I I I I 
	spline forward { ref 0 } F 0 F 0.14142135623730906 F 0 F 97.34070191032842 
	nullbs 
	nubs 3 open 10 
	-1.7381008299913008 3 -1.6310027877623705 3 -1.5224872840498225 3 -1.3192165430388809 3 -1.1112001531444182 3 
	-0.89844003966415587 3 -0.68093810359500129 3 -0.45869622133390808 3 -0.23171624452105047 3 -0 3 
	0 0 
	0.0031979532278959538 0.071005156587943041 
	0.0063655044463056211 0.1413352878423875 
	0.0095214094888741545 0.21140683540898261 
	0.01271908349146003 0.28240579226995888 
	0.015886642587140606 0.3527360984259188 
	0.019042818977748309 0.42281367081796889 
	0.024954954034316097 0.55408265617985275 
	0.030741045897506779 0.68255306506334512 
	0.036517700659251105 0.81081393902928789 
	0.042429219765387646 0.94206924825093319 
	0.048216342497469984 1.0705625458391244 
	0.053995461778138576 1.1988781402902216 
	0.059906371368459048 1.3301199162414032 
	0.065694457584186114 1.4586346063585616 
	0.071475912723796484 1.5870020646169469 
	0.07738622018506261 1.7182304713082479 
	0.08317520824038549 1.8467651852522591 
	0.088958880108035709 1.975181862217225 
	0.0948685935822111 2.1063970804272123 
	0.10065842697739329 2.2349505637167399 
	0.10644420507334573 2.3634140059280218 
	0.11235333329302484 2.4946162295492229 
	0.11814396014844654 2.623187330284829 
	0.12393174180771793 2.7516952582396654 
	0.12984029395855334 2.8828846912240009 
	0.13563166655312223 3.0114723498393334 
	0.14142135623730906 3.1400226422686446 
	
	I I 
	0 
	0 
	0 
	} I I #
loop $-1 -1 $-1 $67 $42 $77 #
vertex $-1 -1 $-1 $43 $106 #
ellipse-curve $-1 -1 $-1 0 0 30 -0 -0 -1 -2.5 0 0 1 I I #
loop $-1 -1 $-1 $-1 $107 $49 #
point $-1 -1 $-1 2.5 3.0616169978683831e-016 -2.0000000000000018 #
point $-1 -1 $-1 -6.4931011011854096 1.2246467991473532e-016 0 #
face $-1 -1 $-1 $-1 $71 $2 $-1 $108 forward single #
plane-surface $-1 -1 $-1 4.7212824147066477e-016 1.8503717077085931e-016 -2 0 0 1 10 0 0 forward_v I I I I #
face $-1 -1 $-1 $49 $99 $2 $-1 $109 forward single #
loop $-1 -1 $-1 $-1 $92 $51 #
spline-surface $-1 -1 $-1 forward { sweepsur angled 
	straight 5.9999999999999964 0 30.999999999999996 -7.0710678118654542 0 7.071067811865495 I I 
	intcurve forward { lawintcur none F 0 F 100.94948218450224 OPEN 
	null_surface 
	null_surface 
	nullbs 
	nullbs 
	I I 
	0 
	0 
	0 
	@113 VEC(5.999999999999996,0,0)*COS(X)+VEC(0,-5.999999999999996,0)*SIN(X)+X*VEC(-0,-0,-0.3184690411268826)+VEC(0,0,31) 
	0 
	
	0 } I I 
	angled 
	-0 -0.99859432320352115 -0.053003562764228976 
	5.9999999999999964 0 30.999999999999996 
	1 0 0 
	0 -0.053003562764228976 0.99859432320352115 
	-0 -0.99859432320352115 -0.053003562764228976 
	0 100.94948218450224 
	0 0 @114 CROSS(DCUR(EDGE1,1),VEC(-0,-0,-1))*DOT(CROSS(DCUR(EDGE2,1),VEC(-0,-0,-1)),CROSS(DCUR(EDGE3,1),VEC(-0,-0,-1)))^-0.5 
	3 
	@4 EDGE 
	intcurve forward { ref 6 } I I 
	0 
	100.94948218450224 @4 EDGE 
	intcurve forward { ref 6 } I I 
	0 
	100.94948218450224 @4 EDGE 
	intcurve forward { ref 6 } I I 
	0 
	100.94948218450224 @1 0 
	0 
	@10 VEC(1,1,1) 
	0 
	none F 0 F 0.14142135623730923 F 0 F 100.94948218450224 CLOSURE_UNSET CLOSURE_UNSET SINGULARITY_UNKNOWN SINGULARITY_UNKNOWN 
	0 
	0 
	0 
	0 
	0 
	0 
	} F 0 F 0.14142135623730923 F 3.1400226422686441 F 100.48072455259708 #
loop $-1 -1 $-1 $-1 $56 $32 #
coedge $-1 -1 $-1 $83 $83 $107 $110 reversed $52 $-1 #
loop $-1 -1 $-1 $-1 $86 $20 #
coedge $-1 -1 $-1 $111 $112 $58 $90 forward $54 $-1 #
coedge $-1 -1 $-1 $86 $86 $55 $87 reversed $84 $-1 #
edge $-1 -1 $-1 $113 -3.1415926535897931 $113 3.1415926535897931 $86 $114 forward @7 unknown #
vertex $-1 -1 $-1 $57 $115 #
ellipse-curve $-1 -1 $-1 0 0 -1 0 0 1 10.000000000000002 0 0 1 I I #
edge $-1 -1 $-1 $100 0 $95 1.7313404755340065 $85 $116 forward @7 unknown #
pcurve $-1 -1 $-1 -1 $116 0 0 #
coedge $-1 -1 $-1 $117 $59 $66 $103 forward $80 $118 #
coedge $-1 -1 $-1 $59 $117 $111 $119 reversed $80 $120 #
pcurve $-1 -1 $-1 0 forward { exppc nubs 1 open 2 
	-97.34070191032842 1 -3.1400226422686481 1 
	-6.2803698347350829e-016 97.340701910328406 
	1.8488927466117464e-032 3.140022642268645 
	0 
	spline forward { ref 5 } I I I I 
	} 0 0 #
vertex $-1 -1 $-1 $119 $121 #
intcurve-curve $-1 -1 $-1 forward { lawintcur none F 3.1400226422686481 F 97.34070191032842 OPEN 
	null_surface 
	null_surface 
	nullbs 
	nullbs 
	I I 
	0 
	0 
	0 
	@113 VEC(5.999999999999996,0,0)*COS(X)+VEC(0,-5.999999999999996,0)*SIN(X)+X*VEC(-0,-0,-0.3184690411268826)+VEC(0,0,31) 
	0 
	
	0 } F 3.1400226422686481 F 97.34070191032842 #
coedge $-1 -1 $-1 $122 $62 $112 $123 reversed $99 $-1 #
coedge $-1 -1 $-1 $62 $122 $65 $102 reversed $99 $-1 #
loop $-1 -1 $-1 $-1 $62 $79 #
vertex $-1 -1 $-1 $90 $124 #
intcurve-curve $-1 -1 $-1 forward { lawintcur none F 0 F 94.200679268059773 OPEN 
	null_surface 
	null_surface 
	nullbs 
	nullbs 
	I I 
	0 
	0 
	0 
	@113 VEC(4.999999999999999,0,0)*COS(X)+VEC(0,-4.999999999999999,0)*SIN(X)+X*VEC(-0,-0,-0.3184690411268826)+VEC(0,0,30) 
	0 
	
	0 } I I #
edge $-1 -1 $-1 $68 -3.1415926535897931 $125 -3.1384526309475205 $98 $126 forward @7 unknown #
edge $-1 -1 $-1 $69 -1.731340475534124 $125 -0 $92 $127 forward @7 unknown #
point $-1 -1 $-1 4.9999999999999991 6.1232339957367653e-016 30 #
point $-1 -1 $-1 -5.9999926051948691 -0.0094200640568970432 30 #
point $-1 -1 $-1 2.5 3.0616169978683831e-016 30 #
coedge $-1 -1 $-1 $107 $107 $83 $110 forward $74 $-1 #
plane-surface $-1 -1 $-1 -2.3606412073533253e-016 9.251858538542974e-017 30 0 0 1 10 0 0 forward_v I I I I #
cone-surface $-1 -1 $-1 0 0 0 0 0 1 -4.9999999999999991 0 0 1 I I 0 1 4.9999999999999991 forward I I I I #
edge $-1 -1 $-1 $128 -3.1415926535897931 $128 3.1415926535897931 $83 $129 forward @7 unknown #
coedge $-1 -1 $-1 $112 $85 $93 $119 forward $54 $-1 #
coedge $-1 -1 $-1 $85 $111 $97 $123 forward $54 $-1 #
vertex $-1 -1 $-1 $87 $130 #
ellipse-curve $-1 -1 $-1 0 0 0 -0 -0 -1 9.0000000000000018 0 0 1 I I #
point $-1 -1 $-1 -10.000000000000002 -1.2246467991473535e-015 -1 #
intcurve-curve $-1 -1 $-1 forward { surfintcur full nubs 3 open 10 
	0 3 0.19728672553915624 2 0.39930368751600387 2 0.60604888046630612 2 0.81752032794025908 2 
	1.0337160824336096 2 1.2546342252109701 2 1.4802728660430442 2 1.6050995734547642 2 1.7313404755340065 3 
	4.9944549202494306 0.23541463335196361 0 
	5.0671105027031853 -0.41818188714409449 -5.8039899082687837e-018 
	5.0099297049745122 -1.0796712903439913 5.667569878596311e-018 
	4.6436041755226469 -2.3600033687626265 -5.8034581167919298e-018 
	4.3321734519105854 -2.9647511109835771 4.4465623107977425e-015 
	3.4872615419194535 -4.0354870873758175 4.4350891742116702e-015 
	2.9572086945441272 -4.4873227793638781 4.446564809094548e-015 
	1.7409854859612548 -5.1729947674956573 4.4350897081123483e-015 
	1.0636304059729851 -5.3948860219110175 4.4465671744125066e-015 
	-0.3538419837824836 -5.5715114831513208 4.4350902404567544e-015 
	-1.0809604857130359 -5.5185023269068587 8.8874615153001119e-015 
	-2.4904913127936688 -5.1353402240248025 8.8759828683975567e-015 
	-3.1576379550500793 -4.8030394090377895 8.8874636438379341e-015 
	-4.3417723031216715 -3.8938264112055272 8.8759833938223179e-015 
	-4.8435747410232342 -3.3209114880704971 4.4465735682531694e-015 
	-5.4327127571143752 -2.3075036457208804 4.4377490235385809e-015 
	-5.6033522643137745 -1.925152258200773 8.8848918628624153e-015 
	-5.8628513384276495 -1.1264349629307504 8.8786413235744921e-015 
	-5.9500212387529103 -0.71202839420031272 3.1078623884966165e-018 
	-5.9928949935099229 -0.29190682890889824 0 
	9.1080259136988125e-006 
	spline forward { ref 0 } F 0 F 0.14142135623730906 F 0 F 100.53096491487339 
	plane 4.7212824147066477e-016 1.8503717077085931e-016 0 0 0 1 10 0 0 forward_v I I I I 
	nubs 3 open 10 
	0 3 0.19728672553915624 3 0.39930368751600387 3 0.60604888046630612 3 0.81752032794025908 3 
	1.0337160824336096 3 1.2546342252109701 3 1.4802728660430442 3 1.6050995734547642 3 1.7313404755340065 3 
	0 94.200679268059773 
	0.0059116628944306856 94.33193776985793 
	0.011695457000615403 94.460357160923323 
	0.017468169062908538 94.588530493899157 
	0.023379290300308289 94.719776969116694 
	0.029164270944117093 94.848222705248389 
	0.034939674445879802 94.976455797097273 
	0.040850251952112303 95.1076901996815 
	0.046636338041219291 95.236160480361207 
	0.052414286187055736 95.364450071739014 
	0.058324319887927273 95.495672400042579 
	0.064111437541302052 95.624165584866631 
	0.069891794885401287 95.752508668427637 
	0.075801286366054432 95.883718957645954 
	0.081589368132657811 96.012233548977832 
	0.087372009463481212 96.140627344611033 
	0.093280961682024433 96.271825660423914 
	0.099069945858514724 96.400360288244997 
	0.10485475521482955 96.528802221226854 
	0.11076317226116961 96.659988654443794 
	0.11655300229434613 96.788542063085643 
	0.12233987209473823 96.917029744752341 
	0.12554125595673757 96.988111072783184 
	0.12871529629847178 97.058585284074127 
	0.13188061416602365 97.128865827540366 
	0.13508179275394636 97.199942597806626 
	0.138255838196539 97.270416922353562 
	0.14142135623730906 97.34070191032842 
	
	nullbs 
	I I 
	0 
	0 
	0 
	} I I #
coedge $-1 -1 $-1 $93 $92 $122 $131 reversed $80 $132 #
pcurve $-1 -1 $-1 2 $127 0 0 #
edge $-1 -1 $-1 $95 0 $133 1.738100829991317 $111 $134 forward @7 unknown #
pcurve $-1 -1 $-1 -1 $134 0 0 #
point $-1 -1 $-1 -5.9928949935099229 -0.29190682890889824 0 #
coedge $-1 -1 $-1 $98 $97 $117 $131 forward $99 $-1 #
edge $-1 -1 $-1 $133 3.0913522913134908 $100 3.0944923139557687 $97 $135 forward @7 unknown #
point $-1 -1 $-1 4.9944549202494315 0.23541463335196366 0 #
vertex $-1 -1 $-1 $103 $136 #
ellipse-curve $-1 -1 $-1 0 0 30 0 0 1 -4.9999999999999991 -0 -0 1 I I #
intcurve-curve $-1 -1 $-1 forward { surfintcur full nubs 3 open 10 
	-1.731340475534124 3 -1.6050995734548839 2 -1.480272866043147 2 -1.2546342252110496 2 -1.0337160824336706 2 
	-0.81752032794030138 2 -0.6060488804663352 2 -0.39930368751602219 2 -0.19728672553916196 2 -0 3 
	-5.9999926051948691 -0.0094200640569183612 30 
	-5.9782711291449129 0.4123244865280512 30 
	-5.9120223968613894 0.83058576993882194 30 
	-5.6929617212198611 1.6413271020644262 30 
	-5.54173891596459 2.0317654302630581 30 
	-5.0042368245856164 3.0734806306430711 30 
	-4.5318388978779183 3.6708727921894617 30 
	-3.3948586450885672 4.6384048766586048 30 
	-2.7452416871258656 5.0037899910821748 30 
	-1.3567314857159885 5.4572541794767311 30 
	-0.63319252749928445 5.5467117808205266 30 
	0.7913613163399108 5.4414935538803935 30 
	1.4790049300531165 5.2538985281164106 30 
	2.7281274496934143 4.6301695009486039 30 
	3.2802023265660818 4.205522772607214 30 
	4.1778196782449903 3.1785686564216569 30 
	4.5192274100955512 2.5902237847999574 30 
	4.9493880075004455 1.3299037917044396 30 
	5.0397161438432772 0.67212061925359312 30 
	4.9999753506647693 0.015700087411530166 30 
	9.1080259194715877e-006 
	plane -9.4425648294132974e-016 3.7007434154171881e-016 30 -0 -0 -1 10 0 0 reverse_v I I I I 
	spline forward { ref 5 } F 0 F 0.14142135623730923 F 0 F 100.48072455259708 
	nullbs 
	nubs 3 open 10 
	-1.731340475534124 3 -1.6050995734548839 3 -1.480272866043147 3 -1.2546342252110496 3 -1.0337160824336706 3 
	-0.81752032794030138 3 -0.6060488804663352 3 -0.39930368751602219 3 -0.19728672553916196 3 -0 3 
	0 3.1400226422686441 
	0.003165518040770348 3.2103076302435123 
	0.0063395634833634251 3.2807819547904287 
	0.0095407420712856732 3.351858725056684 
	0.012706059938837567 3.4221392685229217 
	0.015880100280571928 3.4926134798138659 
	0.019081484142571346 3.5636948078447146 
	0.024868353942963436 3.6921824895114113 
	0.0306581839761398 3.8207358981532717 
	0.036566601022480001 3.9519223313702083 
	0.042351410378794856 4.0803642643520686 
	0.048140394555285057 4.2088988921731438 
	0.054049346773828284 4.3400972079860312 
	0.059831988104651707 4.4684910036192385 
	0.065620069871254932 4.5970055949511091 
	0.071529561351908175 4.7282158841694324 
	0.077309918696007368 4.8565589677304359 
	0.083097036349382078 4.9850521525544922 
	0.089007070050253656 5.1162744808580571 
	0.094785018196090073 5.2445640722358702 
	0.10057110428519707 5.3730343529155755 
	0.10648168179142953 5.5042687554997975 
	0.11225708529319225 5.6325018473486823 
	0.11804206593700083 5.7609475834803829 
	0.12395318717440074 5.8921940586979229 
	0.12972589923669384 6.0203673916737506 
	0.13550969334287838 6.1487867827391591 
	0.14142135623730923 6.280045284537314 
	
	I I 
	0 
	0 
	0 
	} I I #
vertex $-1 -1 $-1 $110 $137 #
ellipse-curve $-1 -1 $-1 0 0 -2 0 0 -1 10.000000000000002 0 0 1 I I #
point $-1 -1 $-1 -9.0000000000000018 1.1021821192326181e-015 0 #
edge $-1 -1 $-1 $133 -100.4807245525971 $125 -6.2800452845373238 $122 $138 forward @7 unknown #
pcurve $-1 -1 $-1 0 forward { exppc nubs 1 open 2 
	6.2800452845373158 1 100.48072455259711 1 
	0.14142135623730939 6.2800452845373131 
	0.14142135623730925 100.48072455259708 
	0 
	spline forward { ref 5 } I I I I 
	} 0 0 #
vertex $-1 -1 $-1 $123 $139 #
intcurve-curve $-1 -1 $-1 forward { surfintcur full nubs 3 open 10 
	0 3 0.23171624452104789 2 0.45869622133391008 2 0.68093810359500972 2 0.89844003966417196 2 
	1.1112001531444362 2 1.3192165430388945 2 1.5224872840498314 2 1.6310027877623838 2 1.738100829991317 3 
	-5.9928949935099229 -0.29190682890889824 0 
	-5.9895288923466561 0.48047331797909276 -5.6842382759485591e-018 
	-5.8368419669248279 1.2448301337714904 4.4466930343233087e-015 
	-5.2504311537122224 2.6561571899529577 4.4352097334974864e-015 
	-4.8280077106768955 3.2917705976871101 4.4466935998998334e-015 
	-3.7724174737604397 4.3519227118019854 4.4352117005685946e-015 
	-3.1537972834130814 4.7704653695252022 4.4466941744947067e-015 
	-1.8044603864067288 5.3379521491132911 4.4352137684347823e-015 
	-1.0891908826540759 5.486992278154875 5.8026591624959317e-018 
	0.34232650924394453 5.499395172286432 -5.6761537125230632e-018 
	1.0446312589572129 5.3687139116845328 -4.4350888481760466e-015 
	2.3437330400480336 4.8486547455971492 -4.4465659588987351e-015 
	2.9301809188228267 4.4699646659212302 -4.4350882497617415e-015 
	3.9114091254892474 3.5180529966931404 -4.4465635392677079e-015 
	4.300896145934618 2.9584312484598332 5.8044534706076996e-018 
	4.7148423263563997 2.0089075900297377 -3.0986908839240044e-018 
	4.823638815470856 1.6641545384919265 -4.4377526658278964e-015 
	4.9651530807929314 0.96201276025987381 -4.4439905229787504e-015 
	4.9984463823773719 0.60680957114173739 3.1397068123270316e-018 
	4.9936910921863902 0.25109614855331974 0 
	9.0714190423409353e-006 
	spline forward { ref 5 } F 0 F 0.14142135623730923 F 0 F 100.53096491487339 
	plane 4.7212824147066477e-016 1.8503717077085931e-016 0 0 0 1 10 0 0 forward_v I I I I 
	nubs 3 open 10 
	0 3 0.23171624452104789 3 0.45869622133391008 3 0.68093810359500972 3 0.89844003966417196 3 
	1.1112001531444362 3 1.3192165430388945 3 1.5224872840498314 3 1.6310027877623838 3 1.738100829991317 3 
	0 97.34070191032842 
	0.0057896896841867496 97.46925220275773 
	0.011581062278755876 97.59783986137306 
	0.017489614429591061 97.729029294357389 
	0.023277396088862413 97.857537222312232 
	0.029068022944284122 97.98610832304783 
	0.034977151163963195 98.117310546669032 
	0.040762929259915669 98.245773988880316 
	0.046552762655097869 98.374327472169838 
	0.052462476129273176 98.505542690379826 
	0.058246147996923348 98.633959367344787 
	0.064035136052246019 98.762494081288807 
	0.069945443513512354 98.893722487980114 
	0.075726898653122779 99.022089946238495 
	0.081514984868849588 99.150604636355666 
	0.08742589445917022 99.281846412306848 
	0.093205013739838791 99.410162006757943 
	0.098992136471921191 99.538655304346136 
	0.10490365557805766 99.669910613567779 
	0.11068031033980191 99.798171487533722 
	0.1164664022029927 99.926641896417209 
	0.1223785372595604 100.05791088177909 
	0.12553471365016824 100.12798845417115 
	0.12870227274584889 100.19831876032711 
	0.13189994674843483 100.26931771718809 
	0.13505585179100341 100.33938926475469 
	0.13822340300941305 100.40971939600914 
	0.14142135623730923 100.48072455259708 
	
	nullbs 
	I I 
	0 
	0 
	0 
	} I I #
ellipse-curve $-1 -1 $-1 0 0 0 0 0 -1 -4.9999999999999991 -0 -0 1 I I #
point $-1 -1 $-1 4.9999753506647675 0.015700087411531768 30 #
point $-1 -1 $-1 -10.000000000000002 1.2246467991473535e-015 -2 #
intcurve-curve $-1 -1 $-1 forward { lawintcur none F -100.4807245525971 F -6.2800452845373238 OPEN 
	null_surface 
	null_surface 
	nullbs 
	nullbs 
	I I 
	0 
	0 
	0 
	@109 VEC(4.999999999999999,0,0)*COS(X)+VEC(0,4.999999999999999,0)*SIN(X)+X*VEC(0,0,0.3184690411268826)+VEC(0,0,32) 
	0 
	
	0 } I I #
point $-1 -1 $-1 4.9936910921863902 0.2510961485533198 0 #
End-of-ACIS-data 